<svg xmlns="http://www.w3.org/2000/svg"  viewBox="0 0 38 43" fill="none" width="100%" height="100%"  id="apple_podcast">
<title>apple_podcast</title>
<path d="M23.4595 27.2195C23.3884 26.58 23.1752 26.1181 22.7489 25.6918C21.9495 24.8568 20.5461 24.3062 18.8941 24.3062C17.242 24.3062 15.8387 24.8391 15.0393 25.6918C14.6307 26.1359 14.3998 26.58 14.3287 27.2195C14.1866 28.463 14.2754 29.5288 14.4175 31.2519C14.5596 32.8862 14.8261 35.0712 15.1636 37.274C15.4123 38.855 15.6077 39.7077 15.7854 40.3116C16.0874 41.3064 17.171 42.1591 18.8941 42.1591C20.6172 42.1591 21.7186 41.2887 22.0028 40.3116C22.1804 39.7077 22.3759 38.855 22.6246 37.274C22.9621 35.0535 23.2285 32.8862 23.3706 31.2519C23.5305 29.5288 23.6016 28.463 23.4595 27.2195Z" fill="currentColor"/>
<path d="M23.2638 18.1599C23.2638 20.5758 21.3098 22.5299 18.8938 22.5299C16.4779 22.5299 14.5239 20.5758 14.5239 18.1599C14.5239 15.744 16.4779 13.7899 18.8938 13.7899C21.3098 13.7899 23.2638 15.7617 23.2638 18.1599Z" fill="currentColor"/>
<path d="M18.8408 0.945951C8.64421 0.981479 0.295066 9.25956 0.152953 19.4562C0.0463685 27.7165 5.32231 34.7866 12.6944 37.3802C12.8721 37.4512 13.0497 37.2914 13.0319 37.1137C12.9431 36.4742 12.8365 35.8347 12.7655 35.1952C12.73 34.9643 12.5878 34.7866 12.3924 34.68C6.5658 32.1398 2.49782 26.2954 2.56888 19.5272C2.6577 10.6452 9.90546 3.41517 18.7698 3.34411C27.8472 3.27305 35.2549 10.6274 35.2549 19.6871C35.2549 26.3842 31.2047 32.1398 25.4313 34.68C25.2181 34.7689 25.076 34.9643 25.0583 35.1952C24.9694 35.8347 24.8806 36.4742 24.7918 37.1137C24.7563 37.3091 24.9517 37.4512 25.1293 37.3802C32.4304 34.8222 37.6708 27.8586 37.6708 19.6871C37.6353 9.34838 29.1973 0.928187 18.8408 0.945951Z" fill="currentColor"/>
<path d="M18.4143 7.1632C11.7705 7.4119 6.44131 12.901 6.35249 19.5448C6.29919 23.9148 8.48418 27.7874 11.8416 30.0789C12.0015 30.1855 12.2324 30.0612 12.2324 29.8658C12.1791 29.1019 12.1791 28.4269 12.2146 27.7163C12.2324 27.4854 12.1436 27.2722 11.966 27.1123C9.92308 25.1938 8.67959 22.4581 8.75064 19.4382C8.89276 14.109 13.1739 9.77453 18.5032 9.56136C24.2943 9.33042 29.055 13.9846 29.055 19.7047C29.055 22.618 27.8116 25.2471 25.8397 27.1123C25.6799 27.2722 25.591 27.4854 25.591 27.7163C25.6266 28.4091 25.6088 29.0841 25.5733 29.848C25.5555 30.0434 25.7864 30.1855 25.9641 30.0612C29.2682 27.8051 31.4532 23.9858 31.4532 19.6869C31.471 12.6168 25.5555 6.87897 18.4143 7.1632Z" fill="currentColor"/>
</svg>