<svg xmlns="http://www.w3.org/2000/svg" width="100%" height="100%" viewBox="0 0 35 36" fill="none" id="spotify">
<title>Spotify</title>
<path d="M17.2837 1.93054C8.29065 1.93054 1 9.221 1 18.214C1 27.2081 8.29065 34.4981 17.2837 34.4981C26.2771 34.4981 33.5676 27.2081 33.5676 18.214C33.5676 9.221 26.2771 1.93054 17.2837 1.93054" stroke="currentColor" stroke-width="1.96098"/>
<path d="M24.3937 25.0631C24.1054 25.5358 23.4901 25.6838 23.0191 25.3958C19.2529 23.0939 14.5125 22.5742 8.92975 23.8493C8.39178 23.9726 7.85553 23.6356 7.73296 23.0978C7.60962 22.5598 7.94554 22.0235 8.48467 21.9008C14.5941 20.5042 19.8346 21.1052 24.0619 23.6884C24.5333 23.9763 24.6817 24.592 24.3937 25.0631Z" fill="currentColor"/>
<path d="M26.3562 20.6962C25.9934 21.2847 25.2239 21.4693 24.6361 21.1079C20.3262 18.4587 13.7537 17.6911 8.65457 19.2389C7.99345 19.4387 7.29499 19.066 7.09409 18.4058C6.89491 17.7447 7.26779 17.0476 7.92796 16.8465C13.753 15.0788 20.9944 15.9349 25.9448 18.9771C26.5326 19.3391 26.7176 20.109 26.3562 20.6962Z" fill="currentColor"/>
<path d="M26.5255 16.1491C21.3557 13.0789 12.8281 12.7966 7.89292 14.2944C7.10023 14.535 6.26215 14.0876 6.02218 13.2951C5.78202 12.502 6.22883 11.6645 7.0219 11.4236C12.6874 9.70394 22.1051 10.036 28.0567 13.569C28.7697 13.9922 29.0033 14.9128 28.5809 15.6245C28.158 16.3373 27.2366 16.5723 26.5255 16.1491Z" fill="currentColor"/>
</svg>