<svg xmlns="http://www.w3.org/2000/svg" width="100%" height="100%">
    <title>Apple store</title>
    <path
        d="M136.093 35.2663C136.093 36.2823 135.682 37.2567 134.952 37.9747C134.222 38.6928 133.232 39.0956 132.2 39.0946H4.80206C2.65189 39.0968 0.90685 37.383 0.904053 35.2663V4.73724C0.90685 2.61977 2.65107 0.904542 4.80206 0.903992H132.199C134.349 0.903992 136.092 2.62036 136.092 4.73724L136.093 35.2663Z"
        fill="white" />
    <path
        d="M132.199 40H4.80169C2.1542 40 0.0056053 37.8878 0 35.2787V4.7273C0.00391672 2.11691 2.15191 0.0022 4.80169 0H132.198C134.848 0.0033 136.995 2.11737 137 4.7273V35.2777C137.002 37.8824 134.844 40 132.199 40H132.199Z"
        fill="#A6A6A6" />
    <path
        d="M136.093 35.2663C136.093 36.2823 135.682 37.2567 134.952 37.9747C134.222 38.6928 133.232 39.0956 132.2 39.0946H4.80206C2.65189 39.0968 0.90685 37.383 0.904053 35.2663V4.73724C0.90685 2.61977 2.65107 0.904542 4.80206 0.903992H132.199C134.349 0.903992 136.092 2.62036 136.092 4.73724L136.093 35.2663Z"
        fill="#292929" />
    <path fillRule="evenodd" clipRule="evenodd"
        d="M30.5907 19.8303C30.5613 16.5559 33.2703 14.9629 33.3942 14.8887C31.86 12.6506 29.482 12.3448 28.6463 12.3204C26.6491 12.1101 24.7117 13.5162 23.6943 13.5162C22.6566 13.5162 21.0899 12.3407 19.4013 12.3752C17.2284 12.4088 15.1957 13.6675 14.0808 15.6222C11.78 19.6078 13.496 25.4648 15.7003 28.6864C16.803 30.2652 18.0915 32.0258 19.778 31.9638C21.428 31.8968 22.0444 30.9123 24.0355 30.9123C26.0084 30.9123 26.5871 31.9638 28.3072 31.9242C30.078 31.8968 31.1928 30.3393 32.257 28.7473C33.5312 26.94 34.043 25.158 34.0633 25.0665C34.0227 25.0523 30.6252 23.7539 30.5907 19.8303L30.5907 19.8303ZM27.3417 10.2011C28.2292 9.09067 28.8364 7.57994 28.6678 6.04688C27.3834 6.10376 25.7771 6.93584 24.8521 8.02189C24.0337 8.97891 23.3026 10.5475 23.4914 12.0227C24.9343 12.1304 26.4157 11.2943 27.3417 10.2011Z"
        fill="white" />
    <path fillRule="evenodd" clipRule="evenodd"
        d="M54.4895 31.3796H52.1836L50.9204 27.4083H46.53L45.3268 31.3796H43.0818L47.4326 17.8593H50.1193L54.4895 31.3796ZM50.5398 25.742L49.3975 22.2116C49.2767 21.8509 49.0492 21.0016 48.7162 19.6646H48.6756C48.5415 20.2396 48.3273 21.0889 48.0338 22.2116L46.9109 25.742H50.5398ZM65.6566 26.385C65.6566 28.043 65.2068 29.3536 64.3061 30.3157C63.4999 31.1722 62.4977 31.5999 61.3027 31.5999C60.0121 31.5999 59.0841 31.1397 58.5205 30.2172V35.3325H56.3558V24.8347C56.3558 23.7933 56.3284 22.7255 56.2756 21.6303H58.1794L58.3002 23.1756H58.3408C59.0627 22.0113 60.1583 21.4292 61.6286 21.4292C62.778 21.4292 63.7375 21.8833 64.5051 22.7926C65.2718 23.7039 65.6566 24.9007 65.6566 26.385V26.385ZM63.4512 26.4643C63.4512 25.5154 63.238 24.7331 62.8095 24.1164C62.3414 23.4753 61.7129 23.1543 60.9249 23.1543C60.3908 23.1543 59.9055 23.3331 59.4719 23.6856C59.0374 24.0412 58.753 24.5055 58.62 25.0806C58.5607 25.2956 58.5269 25.5169 58.5195 25.7399V27.3664C58.5195 28.0746 58.7368 28.673 59.1714 29.1627C59.606 29.6503 60.1705 29.8952 60.865 29.8952C61.6804 29.8952 62.315 29.5792 62.7688 28.9524C63.2237 28.3235 63.4512 27.4945 63.4512 26.4643L63.4512 26.4643ZM76.8633 26.385C76.8633 28.043 76.4135 29.3536 75.5128 30.3157C74.7056 31.1722 73.7045 31.5999 72.5084 31.5999C71.2178 31.5999 70.2898 31.1397 69.7262 30.2172V35.3325H67.5615V24.8347C67.5615 23.7933 67.534 22.7255 67.4812 21.6303H69.3851L69.5059 23.1756H69.5465C70.2674 22.0113 71.363 21.4292 72.8343 21.4292C73.9827 21.4292 74.9422 21.8833 75.7118 22.7926C76.4774 23.7039 76.8633 24.9007 76.8633 26.385V26.385ZM74.6566 26.4643C74.6566 25.5154 74.4424 24.7331 74.0139 24.1164C73.5458 23.4753 72.9194 23.1543 72.1314 23.1543C71.5973 23.1543 71.112 23.3331 70.6764 23.6856C70.2418 24.0412 69.9585 24.5055 69.8255 25.0806C69.7595 25.3488 69.724 25.5672 69.724 25.7399V27.3664C69.724 28.0746 69.9423 28.673 70.3749 29.1627C70.8094 29.6493 71.374 29.8952 72.0705 29.8952C72.8869 29.8952 73.5215 29.5792 73.9743 28.9524C74.4292 28.3235 74.6567 27.4945 74.6567 26.4643L74.6566 26.4643ZM89.3928 27.5871C89.3928 28.7382 88.9907 29.6739 88.1916 30.3962C87.3123 31.1846 86.0847 31.5798 84.5109 31.5798C83.0569 31.5798 81.8912 31.2994 81.0119 30.7376L81.5125 28.9322C82.4618 29.4951 83.5046 29.7755 84.6398 29.7755C85.4562 29.7755 86.0908 29.5905 86.5436 29.2238C86.9975 28.856 87.227 28.3643 87.227 27.7506C87.227 27.201 87.0371 26.7408 86.6645 26.3659C86.2898 25.992 85.6704 25.6436 84.8002 25.3235C82.4344 24.4407 81.2505 23.1494 81.2505 21.4507C81.2505 20.3413 81.6688 19.433 82.5035 18.7229C83.3381 18.0138 84.4449 17.6592 85.8217 17.6592C87.0513 17.6592 88.0758 17.8735 88.8891 18.3012L88.3459 20.067C87.5803 19.6525 86.7162 19.4452 85.7496 19.4452C84.986 19.4452 84.387 19.6332 83.9585 20.007C83.598 20.3413 83.4153 20.7487 83.4153 21.2323C83.4153 21.7656 83.6234 22.2086 84.0377 22.5561C84.3971 22.8761 85.053 23.2246 86.0014 23.5984C87.165 24.0678 88.02 24.6144 88.5672 25.2422C89.1186 25.8701 89.3927 26.6534 89.3927 27.5871L89.3928 27.5871ZM96.5685 23.2559H94.1824V27.9892C94.1824 29.1931 94.6028 29.7936 95.4455 29.7936C95.8324 29.7936 96.1532 29.7611 96.4071 29.693L96.467 31.3378C96.0405 31.4973 95.479 31.5776 94.7835 31.5776C93.9285 31.5776 93.2604 31.3165 92.7781 30.7943C92.2978 30.2721 92.0562 29.3974 92.0562 28.166V23.2519H90.6347V21.6263H92.0562V19.8413L94.1824 19.1992V21.6263H96.5685L96.5685 23.2559ZM107.313 26.425C107.313 27.9236 106.885 29.1539 106.03 30.116C105.135 31.1065 103.945 31.6003 102.462 31.6003C101.03 31.6003 99.8919 31.1258 99.0431 30.1779C98.1942 29.228 97.7698 28.0312 97.7698 26.5876C97.7698 25.0768 98.2085 23.8394 99.0827 22.8773C99.959 21.9142 101.139 21.4326 102.622 21.4326C104.052 21.4326 105.2 21.9081 106.069 22.857C106.9 23.7774 107.313 24.9661 107.313 26.425V26.425ZM105.069 26.4745C105.069 25.5815 104.876 24.8155 104.489 24.1744C104.036 23.4003 103.386 23.0132 102.544 23.0132C101.677 23.0132 101.012 23.4003 100.559 24.1744C100.171 24.8155 99.9782 25.5947 99.9782 26.5152C99.9782 27.4092 100.171 28.1773 100.559 28.8163C101.027 29.5905 101.68 29.9775 102.526 29.9775C103.353 29.9775 104.002 29.5823 104.471 28.797C104.869 28.1407 105.069 27.3696 105.069 26.4745L105.069 26.4745ZM114.353 23.5353C114.128 23.4946 113.899 23.4745 113.67 23.4753C112.909 23.4753 112.32 23.7618 111.906 24.3389C111.546 24.8469 111.365 25.4889 111.365 26.2641V31.3794H109.201V24.7006C109.203 23.6771 109.182 22.6538 109.138 21.6314H111.023L111.102 23.4967H111.162C111.392 22.8556 111.751 22.3385 112.245 21.9514C112.696 21.6132 113.245 21.43 113.809 21.4292C114.009 21.4292 114.19 21.4434 114.351 21.4688L114.353 23.5353ZM124.034 26.0438C124.04 26.373 124.013 26.702 123.955 27.0262H117.461C117.485 27.9893 117.8 28.7269 118.403 29.2349C118.95 29.688 119.658 29.9156 120.527 29.9156C121.489 29.9156 122.366 29.7632 123.155 29.4553L123.494 30.9579C122.572 31.3602 121.484 31.5604 120.228 31.5604C118.717 31.5604 117.531 31.1154 116.668 30.2275C115.807 29.3385 115.375 28.1437 115.375 26.6472C115.375 25.1782 115.776 23.9539 116.579 22.9776C117.42 21.9352 118.556 21.4141 119.986 21.4141C121.39 21.4141 122.453 21.9352 123.175 22.9776C123.747 23.8036 124.034 24.8277 124.034 26.0438L124.034 26.0438ZM121.97 25.4819C121.985 24.8388 121.843 24.2852 121.55 23.8168C121.175 23.2133 120.598 22.9126 119.826 22.9126C119.118 22.9126 118.541 23.2062 118.103 23.7955C117.742 24.2638 117.528 24.8267 117.462 25.4799L121.97 25.4819H121.97Z"
        fill="white" />
    <path fillRule="evenodd" clipRule="evenodd"
        d="M45.9063 13.5819C45.3042 13.5819 44.7833 13.5524 44.3497 13.5027V6.96601C44.9561 6.87228 45.5689 6.82608 46.1825 6.82784C48.6651 6.82784 49.8084 8.05003 49.8084 10.0423C49.8084 12.3404 48.4579 13.5819 45.9063 13.5819V13.5819ZM46.2707 7.66599C45.9356 7.66599 45.6503 7.68631 45.4137 7.73507V12.7041C45.5416 12.7244 45.7874 12.7336 46.1326 12.7336C47.7592 12.7336 48.6852 11.807 48.6852 10.0718C48.6852 8.52446 47.8475 7.66598 46.2707 7.66598L46.2707 7.66599ZM53.3711 13.6318C51.9719 13.6318 51.0652 12.5864 51.0652 11.1671C51.0652 9.68786 51.9912 8.6333 53.4503 8.6333C54.8292 8.6333 55.7562 9.62893 55.7562 11.0889C55.7562 12.5864 54.8008 13.6318 53.3711 13.6318ZM53.4118 9.41162C52.6432 9.41162 52.1507 10.1309 52.1507 11.1367C52.1507 12.1232 52.6533 12.8425 53.4017 12.8425C54.15 12.8425 54.6526 12.0734 54.6526 11.1164C54.6526 10.1411 54.1601 9.41162 53.4118 9.41162H53.4118ZM63.735 8.73194L62.2373 13.5232H61.2616L60.6412 11.4425C60.4869 10.9336 60.3585 10.4171 60.2563 9.89521L60.236 9.8952C60.1579 10.4174 60.0096 10.9406 59.8522 11.4425L59.1922 13.5232H58.2063L56.797 8.73193H57.8905L58.4327 11.0097C58.5607 11.5522 58.6683 12.0643 58.7576 12.5479H58.7779C58.8561 12.1445 58.9841 11.6406 59.1719 11.0199L59.8522 8.73295H60.7193L61.3702 10.9711C61.5276 11.5136 61.6555 12.046 61.755 12.5489H61.7834C61.8525 12.0561 61.9611 11.5329 62.1084 10.9711L62.6902 8.73296L63.735 8.73194H63.735ZM69.2486 13.5231H68.1845V10.7719C68.1845 9.92459 67.8595 9.49992 67.2189 9.49992C66.5883 9.49992 66.1548 10.0424 66.1548 10.6734V13.5231H65.0906V10.1014C65.0906 9.67771 65.0805 9.22358 65.051 8.73084H65.9872L66.0369 9.47045H66.0664C66.3527 8.95841 66.9335 8.6333 67.5844 8.6333C68.5896 8.6333 69.2496 9.40238 69.2496 10.654L69.2486 13.5231L69.2486 13.5231ZM72.184 13.523H71.118V6.5332H72.184V13.523ZM76.0628 13.6318C74.6646 13.6318 73.7569 12.5864 73.7569 11.1671C73.7569 9.68786 74.6829 8.6333 76.141 8.6333C77.5209 8.6333 78.4469 9.62893 78.4469 11.0889C78.4479 12.5864 77.4914 13.6318 76.0628 13.6318ZM76.1023 9.41162C75.3336 9.41162 74.8412 10.1309 74.8412 11.1367C74.8412 12.1232 75.3448 12.8425 76.0911 12.8425C76.8404 12.8425 77.342 12.0734 77.342 11.1164C77.343 10.1411 76.8516 9.41162 76.1023 9.41162ZM82.6424 13.5231L82.5652 12.9714H82.5368C82.2119 13.4154 81.7377 13.6318 81.1366 13.6318C80.2786 13.6318 79.6694 13.0304 79.6694 12.2217C79.6694 11.0391 80.6939 10.4275 82.4677 10.4275V10.3391C82.4677 9.70818 82.1337 9.39222 81.4737 9.39222C81.0015 9.39222 80.5873 9.51108 80.2228 9.7478L80.0065 9.04781C80.4492 8.77147 81.0015 8.6333 81.6504 8.6333C82.9013 8.6333 83.5329 9.29367 83.5329 10.6154V12.3801C83.5329 12.8637 83.5542 13.2386 83.6019 13.5241L82.6424 13.5231L82.6424 13.5231ZM82.4961 11.1367C81.3142 11.1367 80.7212 11.4232 80.7212 12.1029C80.7212 12.6058 81.0269 12.8516 81.4513 12.8516C81.9925 12.8516 82.4961 12.4382 82.4961 11.8763L82.4961 11.1367ZM88.6999 13.523L88.6502 12.7539H88.6207C88.3151 13.335 87.8013 13.6317 87.0835 13.6317C85.929 13.6317 85.074 12.6157 85.074 11.1863C85.074 9.68773 85.9605 8.63216 87.1708 8.63216C87.8115 8.63216 88.2654 8.84856 88.5212 9.28338H88.5425V6.5332H89.6077V12.2317C89.6077 12.695 89.6188 13.1288 89.6473 13.523H88.6999L88.6999 13.523ZM88.5427 10.7039C88.5427 10.0334 88.099 9.46143 87.4217 9.46143C86.6328 9.46143 86.1505 10.1614 86.1505 11.1469C86.1505 12.1131 86.6511 12.7744 87.4004 12.7744C88.0696 12.7744 88.5427 12.1923 88.5427 11.5025V10.7039H88.5427ZM96.3611 13.6318C94.963 13.6318 94.0562 12.5864 94.0562 11.1671C94.0562 9.68786 94.9823 8.6333 96.4403 8.6333C97.8202 8.6333 98.7462 9.62893 98.7462 11.0889C98.7473 12.5864 97.7918 13.6318 96.3612 13.6318H96.3611ZM96.4006 9.41162C95.633 9.41162 95.1405 10.1309 95.1405 11.1367C95.1405 12.1232 95.6432 12.8425 96.3905 12.8425C97.1398 12.8425 97.6414 12.0734 97.6414 11.1164C97.6435 10.1411 97.151 9.41162 96.4006 9.41162ZM104.469 13.5231H103.404V10.7719C103.404 9.92462 103.079 9.49995 102.438 9.49995C101.808 9.49995 101.375 10.0425 101.375 10.6734V13.5231H100.31V10.1014C100.31 9.67774 100.3 9.22361 100.27 8.73087H101.206L101.256 9.47048H101.286C101.571 8.95844 102.153 8.63232 102.803 8.63232C103.808 8.63232 104.469 9.4014 104.469 10.6531L104.469 13.5231ZM111.628 9.53036H110.458V11.8569C110.458 12.4492 110.663 12.7448 111.077 12.7448C111.265 12.7448 111.422 12.7245 111.549 12.6951L111.578 13.5038C111.372 13.583 111.096 13.6226 110.753 13.6226C109.914 13.6226 109.413 13.1593 109.413 11.9463V9.53037H108.714V8.73183H109.413V7.85405L110.458 7.53809V8.73082H111.628V9.53036ZM117.261 13.523H116.198V10.7921C116.198 9.93461 115.874 9.5008 115.233 9.5008C114.681 9.5008 114.168 9.87569 114.168 10.6346V13.523H113.104V6.5332H114.168V9.41139H114.189C114.524 8.88919 115.009 8.63215 115.629 8.63215C116.642 8.63215 117.261 9.42053 117.261 10.6732L117.261 13.523ZM123.033 11.3834H119.839C119.86 12.2906 120.46 12.8027 121.348 12.8027C121.82 12.8027 122.255 12.7234 122.639 12.5761L122.804 13.3157C122.351 13.5128 121.818 13.6114 121.198 13.6114C119.7 13.6114 118.814 12.6645 118.814 11.1965C118.814 9.72739 119.722 8.62305 121.078 8.62305C122.302 8.62305 123.069 9.5303 123.069 10.9008C123.076 11.0626 123.064 11.2245 123.033 11.3834L123.033 11.3834ZM122.057 10.6246C122.057 9.885 121.684 9.36279 121.004 9.36279C120.393 9.36279 119.91 9.89515 119.841 10.6246H122.057Z"
        fill="white" />
</svg>