<svg xmlns="http://www.w3.org/2000/svg" width="100%" height="100%">
    <title>Google play</title>
    <path
        d="M127.111 40H4.88889C2.2 40 0 37.75 0 35V5C0 2.25 2.2 0 4.88889 0H127.111C129.8 0 132 2.25 132 5V35C132 37.75 129.8 40 127.111 40Z"
        fill="#292929" />
    <path fillRule="evenodd" clipRule="evenodd"
        d="M127.111 0.799805C129.38 0.799805 131.218 2.6798 131.218 4.9998V34.9998C131.218 37.3198 129.38 39.1998 127.111 39.1998H4.88887C2.62043 39.1998 0.782198 37.3198 0.782198 34.9998V4.9998C0.782198 2.6798 2.62042 0.799805 4.88887 0.799805H127.111ZM127.111 0H4.88889C2.2 0 0 2.25 0 5V35C0 37.75 2.2 40 4.88889 40H127.111C129.8 40 132 37.75 132 35V5C132 2.25 129.8 0 127.111 0Z"
        fill="#A6A6A6" />
    <path
        d="M46.3663 10.2016C46.3663 11.0261 46.1218 11.6837 45.6329 12.1646C45.0854 12.7436 44.3618 13.0381 43.4818 13.0381C42.6311 13.0381 41.9174 12.7436 41.3209 12.1548C40.7245 11.5659 40.4312 10.8298 40.4312 9.96606C40.4312 9.09255 40.7245 8.36626 41.3209 7.77737C41.9174 7.18849 42.6311 6.89404 43.4818 6.89404C43.9023 6.89404 44.3032 6.97256 44.6845 7.13941C45.0658 7.30626 45.3689 7.52218 45.6036 7.797L45.0854 8.31718C44.6943 7.85589 44.1663 7.62033 43.4818 7.62033C42.8658 7.62033 42.328 7.83625 41.8783 8.27792C41.4285 8.70977 41.2036 9.27902 41.2036 9.97587C41.2036 10.6727 41.4285 11.242 41.8783 11.6738C42.328 12.1057 42.8658 12.3314 43.4818 12.3314C44.1369 12.3314 44.6845 12.1155 45.1245 11.6738C45.408 11.3892 45.5743 10.9868 45.6134 10.4764H43.4818V9.75995H46.3271C46.3467 9.91699 46.3663 10.0642 46.3663 10.2016V10.2016Z"
        fill="white" stroke="white" strokeWidth="0.2" />
    <path
        d="M50.8739 7.74827H48.2046V9.61307H50.6099V10.3197H48.2046V12.1845H50.8739V12.9108H47.4517V7.02197H50.8739V7.74827Z"
        fill="white" stroke="white" strokeWidth="0.2" />
    <path d="M54.0513 12.9108H53.2984V7.74826H51.6558V7.02197H55.6842V7.74826H54.0415V12.9108H54.0513Z" fill="white"
        stroke="white" strokeWidth="0.2" />
    <path d="M58.6084 12.9108V7.02197H59.3613V12.9108H58.6084Z" fill="white" stroke="white" strokeWidth="0.2" />
    <path d="M62.7044 12.9108H61.9515V7.74826H60.3088V7.02197H64.3373V7.74826H62.6946V12.9108H62.7044Z" fill="white"
        stroke="white" strokeWidth="0.2" />
    <path fillRule="evenodd" clipRule="evenodd"
        d="M71.9739 12.1449C71.3971 12.7436 70.6833 13.0381 69.8228 13.0381C68.9624 13.0381 68.2486 12.7436 67.6717 12.1449C67.0948 11.5462 66.8113 10.8199 66.8113 9.96605C66.8113 9.11217 67.0948 8.37606 67.6717 7.78718C68.2486 7.18848 68.9624 6.89404 69.8228 6.89404C70.6735 6.89404 71.3873 7.18848 71.9739 7.78718C72.5508 8.38588 72.8442 9.11217 72.8442 9.96605C72.8344 10.8298 72.5508 11.556 71.9739 12.1449ZM68.2292 11.654C68.6594 12.0957 69.1972 12.3116 69.823 12.3116C70.4487 12.3116 70.9865 12.0957 71.4167 11.654C71.8469 11.2124 72.0718 10.6529 72.0718 9.96589C72.0718 9.27886 71.8567 8.71942 71.4167 8.27775C70.9865 7.83609 70.4487 7.61035 69.823 7.61035C69.1972 7.61035 68.6594 7.82627 68.2292 8.26794C67.799 8.71942 67.5741 9.27886 67.5741 9.96589C67.5741 10.6529 67.799 11.2124 68.2292 11.654H68.2292Z"
        fill="white" />
    <path
        d="M71.9739 12.1449L71.9025 12.0749L71.9019 12.0755L71.9739 12.1449ZM67.6717 12.1449L67.5997 12.2143L67.5997 12.2143L67.6717 12.1449ZM67.6717 7.78718L67.7432 7.85716L67.7437 7.85657L67.6717 7.78718ZM71.9739 7.78718L72.0459 7.71779L72.0454 7.71719L71.9739 7.78718ZM72.8442 9.96605L72.9442 9.96719V9.96605H72.8442ZM68.2292 11.654V11.554H67.9922L68.1575 11.7238L68.2292 11.654ZM71.4167 8.27775L71.3451 8.34753L71.3459 8.34833L71.4167 8.27775ZM68.2292 8.26794L68.1576 8.19816L68.1568 8.19895L68.2292 8.26794ZM68.2292 11.654V11.754H68.4662L68.3008 11.5843L68.2292 11.654ZM71.9019 12.0755C71.3448 12.6537 70.6574 12.9381 69.8228 12.9381V13.1381C70.7091 13.1381 71.4493 12.8335 72.0459 12.2143L71.9019 12.0755ZM69.8228 12.9381C68.9882 12.9381 68.3009 12.6537 67.7437 12.0755L67.5997 12.2143C68.1963 12.8335 68.9365 13.1381 69.8228 13.1381V12.9381ZM67.7437 12.0755C67.1856 11.4963 66.9113 10.7953 66.9113 9.96605H66.7113C66.7113 10.8446 67.004 11.5961 67.5997 12.2143L67.7437 12.0755ZM66.9113 9.96605C66.9113 9.13635 67.1859 8.42598 67.7431 7.85716L67.6003 7.7172C67.0037 8.32615 66.7113 9.088 66.7113 9.96605H66.9113ZM67.7437 7.85657C68.3009 7.27836 68.9882 6.99404 69.8228 6.99404V6.79404C68.9365 6.79404 68.1963 7.0986 67.5997 7.7178L67.7437 7.85657ZM69.8228 6.99404C70.6473 6.99404 71.3351 7.27816 71.9025 7.85717L72.0454 7.71719C71.4394 7.09881 70.6997 6.79404 69.8228 6.79404V6.99404ZM71.9019 7.85657C72.4606 8.43638 72.7442 9.1377 72.7442 9.96605H72.9442C72.9442 9.08665 72.641 8.33539 72.0459 7.7178L71.9019 7.85657ZM72.7442 9.96492C72.7346 10.8051 72.4599 11.506 71.9025 12.0749L72.0454 12.2149C72.6418 11.6061 72.9341 10.8544 72.9442 9.96719L72.7442 9.96492ZM68.1575 11.7238C68.6076 12.1858 69.1717 12.4116 69.823 12.4116V12.2116C69.2226 12.2116 68.7112 12.0055 68.3008 11.5843L68.1575 11.7238ZM69.823 12.4116C70.4742 12.4116 71.0383 12.1859 71.4884 11.7238L71.3451 11.5843C70.9347 12.0055 70.4233 12.2116 69.823 12.2116V12.4116ZM71.4884 11.7238C71.938 11.2622 72.1718 10.6771 72.1718 9.96589H71.9718C71.9718 10.6288 71.7558 11.1626 71.3451 11.5843L71.4884 11.7238ZM72.1718 9.96589C72.1718 9.25572 71.9485 8.66981 71.4876 8.20717L71.3459 8.34833C71.765 8.76903 71.9718 9.30201 71.9718 9.96589H72.1718ZM71.4884 8.20797C71.0391 7.74674 70.4754 7.51035 69.823 7.51035V7.71035C70.4221 7.71035 70.9339 7.92545 71.3451 8.34753L71.4884 8.20797ZM69.823 7.51035C69.1717 7.51035 68.6076 7.73611 68.1576 8.19817L68.3008 8.33772C68.7112 7.91643 69.2227 7.71035 69.823 7.71035V7.51035ZM68.1568 8.19895C67.708 8.66995 67.4741 9.25447 67.4741 9.96589H67.6741C67.6741 9.30325 67.8899 8.76889 68.3016 8.33693L68.1568 8.19895ZM67.4741 9.96589C67.4741 10.6771 67.7079 11.2622 68.1575 11.7238L68.3008 11.5843C67.8901 11.1626 67.6741 10.6287 67.6741 9.96589H67.4741ZM68.2292 11.554H68.2292V11.754H68.2292V11.554Z"
        fill="white" />
    <path
        d="M73.9005 12.9108V7.02197H74.8196L77.6747 11.6055H77.7041L77.6747 10.467V7.02197H78.4276V12.9108H77.6454L74.6632 8.11141H74.6338L74.6632 9.24992V12.9108H73.9005Z"
        fill="white" stroke="white" strokeWidth="0.2" />
    <path fillRule="evenodd" clipRule="evenodd"
        d="M66.6261 21.542C64.3283 21.542 62.451 23.2988 62.451 25.7133C62.451 28.1179 64.3283 29.8845 66.6261 29.8845C68.9239 29.8845 70.8012 28.1179 70.8012 25.7133C70.8012 23.2988 68.9239 21.542 66.6261 21.542ZM66.6262 28.2456C65.3649 28.2456 64.2795 27.2052 64.2795 25.7134C64.2795 24.2117 65.3648 23.1812 66.6262 23.1812C67.8875 23.1812 68.9728 24.2117 68.9728 25.7134C68.9728 27.2052 67.8777 28.2456 66.6262 28.2456ZM57.5133 21.542C55.2156 21.542 53.3382 23.2988 53.3382 25.7133C53.3382 28.1179 55.2156 29.8845 57.5133 29.8845C59.8111 29.8845 61.6884 28.1179 61.6884 25.7133C61.6884 23.2988 59.8111 21.542 57.5133 21.542ZM57.5132 28.2456C56.2518 28.2456 55.1665 27.2052 55.1665 25.7134C55.1665 24.2117 56.2518 23.1812 57.5132 23.1812C58.7745 23.1812 59.8598 24.2117 59.8598 25.7134C59.8598 27.2052 58.7745 28.2456 57.5132 28.2456ZM46.6794 22.8278V24.5945H50.9034C50.7763 25.5858 50.4438 26.3219 49.9452 26.8224C49.3292 27.4408 48.371 28.118 46.6892 28.118C44.0883 28.118 42.0545 26.0176 42.0545 23.4069C42.0545 20.7962 44.0883 18.6958 46.6892 18.6958C48.0874 18.6958 49.1141 19.2455 49.867 19.9619L51.1087 18.7155C50.0527 17.7046 48.6545 16.9292 46.6794 16.9292C43.1203 16.9292 40.1283 19.8344 40.1283 23.4167C40.1283 26.9893 43.1203 29.9043 46.6794 29.9043C48.6056 29.9043 50.0527 29.2762 51.187 28.0886C52.3505 26.9206 52.7123 25.2717 52.7123 23.9467C52.7123 23.5345 52.683 23.1518 52.6145 22.8377H46.6794L46.6794 22.8278ZM90.9827 24.2018C90.6405 23.2694 89.5845 21.542 87.4236 21.542C85.2823 21.542 83.5027 23.2301 83.5027 25.7133C83.5027 28.0492 85.2627 29.8845 87.6289 29.8845C89.5356 29.8845 90.6405 28.7166 91.0903 28.0394L89.6725 27.0873C89.2032 27.7842 88.5578 28.2455 87.629 28.2455C86.7001 28.2455 86.0352 27.8136 85.6147 26.9794L91.1783 24.6729L90.9827 24.2018ZM85.3115 25.5957C85.2626 23.9861 86.5532 23.1616 87.4821 23.1616C88.2057 23.1616 88.8217 23.5248 89.027 24.045L85.3115 25.5957ZM80.7942 29.6395H82.6227V17.3711H80.7942V29.6395ZM77.8023 22.4744H77.7338C77.3232 21.9837 76.5409 21.542 75.5436 21.542C73.4609 21.542 71.5543 23.3774 71.5543 25.7329C71.5543 28.0688 73.4609 29.8943 75.5436 29.8943C76.5311 29.8943 77.3232 29.4527 77.7338 28.9423H77.7925V29.541C77.7925 31.1408 76.9418 31.9947 75.5729 31.9947C74.4583 31.9947 73.764 31.1899 73.4805 30.5127L71.8867 31.1801C72.3463 32.2891 73.5587 33.6436 75.5729 33.6436C77.7143 33.6436 79.5231 32.3775 79.5231 29.2956V21.7972H77.7925V22.4744L77.8023 22.4744ZM75.6999 28.2455C74.4385 28.2455 73.3825 27.1855 73.3825 25.7329C73.3825 24.2607 74.4385 23.1909 75.6999 23.1909C76.9417 23.1909 77.9194 24.2705 77.9194 25.7329C77.9292 27.1855 76.9514 28.2455 75.6999 28.2455ZM99.548 17.3706H95.1773V29.639H97.0058V24.9868H99.5578C101.582 24.9868 103.567 23.5146 103.567 21.1787C103.567 18.8428 101.562 17.3706 99.548 17.3706ZM99.587 23.2794H96.9959V19.0688H99.587C100.956 19.0688 101.728 20.2074 101.728 21.1692C101.728 22.1311 100.956 23.2794 99.587 23.2794ZM110.871 21.5225C109.551 21.5225 108.182 22.1114 107.615 23.3971L109.238 24.0743C109.58 23.3971 110.225 23.1714 110.9 23.1714C111.848 23.1714 112.807 23.7406 112.816 24.7515V24.8791C112.484 24.6926 111.78 24.408 110.91 24.408C109.159 24.408 107.39 25.3699 107.39 27.1659C107.39 28.805 108.817 29.865 110.421 29.865C111.643 29.865 112.327 29.3154 112.748 28.6676H112.807V29.6196H114.567V24.9184C114.576 22.7395 112.953 21.5225 110.871 21.5225L110.871 21.5225ZM110.646 28.2456C110.049 28.2456 109.218 27.9414 109.218 27.2053C109.218 26.2631 110.255 25.8999 111.154 25.8999C111.956 25.8999 112.337 26.0766 112.816 26.3121C112.68 27.4408 111.702 28.2456 110.646 28.2456H110.646ZM120.991 21.7876L118.898 27.1072H118.84L116.669 21.7876H114.704L117.96 29.2272L116.102 33.3592H118.008L123.024 21.7876H120.991ZM104.564 29.6395H106.392V17.3711H104.564V29.6395Z"
        fill="white" />
    <path
        d="M10.2078 7.77061C9.92428 8.07487 9.75806 8.54597 9.75806 9.14467V30.8549C9.75806 31.4634 9.92428 31.9345 10.2078 32.229L10.2763 32.2977L22.3909 20.147V19.9998V19.8526L10.2763 7.7019L10.2078 7.77061Z"
        fill="url(#paint0_linear)" />
    <path
        d="M26.4284 24.2002L22.3901 20.1468V19.9995V19.8523L26.4284 15.7988L26.5164 15.8479L31.2977 18.5764C32.6666 19.3518 32.6666 20.6277 31.2977 21.4129L26.5164 24.1414L26.4284 24.2002Z"
        fill="url(#paint1_linear)" />
    <path d="M26.5166 24.1516L22.3904 20L10.2073 32.2292C10.6571 32.7101 11.4002 32.769 12.2411 32.2881L26.5166 24.1516"
        fill="url(#paint2_linear)" />
    <path
        d="M26.5164 15.8577L12.231 7.7115C11.3902 7.23058 10.647 7.28947 10.1973 7.77039L22.3901 19.9996L26.5164 15.8577Z"
        fill="url(#paint3_linear)" />
    <path opacity="0.2"
        d="M26.4286 24.0529L12.2313 32.1501C11.4393 32.6016 10.7255 32.5721 10.2757 32.1599L10.2073 32.2286L10.2757 32.2973C10.7353 32.7095 11.4393 32.739 12.2313 32.2875L26.5166 24.1412L26.4286 24.0529Z"
        fill="#292929" />
    <path opacity="0.12"
        d="M10.2078 32.091C9.92428 31.7867 9.75806 31.3156 9.75806 30.7169V30.8641C9.75806 31.4726 9.92428 31.9438 10.2078 32.2382L10.2763 32.1695L10.2078 32.091Z"
        fill="#292929" />
    <path opacity="0.12"
        d="M31.2981 21.2759L26.4189 24.0535L26.5069 24.1418L31.2883 21.4133C31.9727 21.0207 32.3149 20.5104 32.3149 20C32.2661 20.4613 31.9238 20.9226 31.2981 21.2759Z"
        fill="#292929" />
    <path opacity="0.25"
        d="M12.2316 7.84907L31.2983 18.7238C31.9143 19.0771 32.2663 19.5286 32.3249 19.9997C32.3249 19.4894 31.9827 18.9692 31.2983 18.5864L12.2316 7.71167C10.8627 6.9363 9.74805 7.58408 9.74805 9.15444V9.30166C9.74805 7.72149 10.8725 7.07371 12.2316 7.84908V7.84907Z"
        fill="white" />
    <defs>
        <linearGradient id="paint0_linear" x1="25.5449" y1="154.476" x2="6.13497" y2="149.336"
            gradientUnits="userSpaceOnUse">
            <stop stopColor="#00A0FF" />
            <stop offset="0.00657" stopColor="#00A1FF" />
            <stop offset="0.2601" stopColor="#00BEFF" />
            <stop offset="0.5122" stopColor="#00D2FF" />
            <stop offset="0.7604" stopColor="#00DFFF" />
            <stop offset="1" stopColor="#00E3FF" />
        </linearGradient>
        <linearGradient id="paint1_linear" x1="33.0814" y1="149.364" x2="9.42227" y2="149.364"
            gradientUnits="userSpaceOnUse">
            <stop stopColor="#FFE000" />
            <stop offset="0.4087" stopColor="#FFBD00" />
            <stop offset="0.7754" stopColor="#FFA500" />
            <stop offset="1" stopColor="#FF9C00" />
        </linearGradient>
        <linearGradient id="paint2_linear" x1="38.7068" y1="148.506" x2="23.0385" y2="122.242"
            gradientUnits="userSpaceOnUse">
            <stop stopColor="#FF3A44" />
            <stop offset="1" stopColor="#C31162" />
        </linearGradient>
        <linearGradient id="paint3_linear" x1="13.583" y1="182.668" x2="20.5724" y2="170.937"
            gradientUnits="userSpaceOnUse">
            <stop stopColor="#32A071" />
            <stop offset="0.0685" stopColor="#2DA771" />
            <stop offset="0.4762" stopColor="#15CF74" />
            <stop offset="0.8009" stopColor="#06E775" />
            <stop offset="1" stopColor="#00F076" />
        </linearGradient>
    </defs>
</svg>