<svg width="87" height="17" viewBox="0 0 87 17" fill="none" xmlns="http://www.w3.org/2000/svg">
<path fill-rule="evenodd" clip-rule="evenodd" d="M34.4602 13.0875C31.2295 15.4829 26.5456 16.7567 22.512 16.7567C16.8593 16.7567 11.7688 14.6574 7.91644 11.1628C7.61432 10.8881 7.88375 10.5134 8.24729 10.7259C12.4032 13.1556 17.5433 14.6191 22.8513 14.6191C26.4322 14.6191 30.3687 13.8722 33.9907 12.3286C34.537 12.0963 34.9951 12.6904 34.4602 13.0875V13.0875Z" fill="#212121"/>
<path fill-rule="evenodd" clip-rule="evenodd" d="M35.7314 11.6055C35.3138 11.0797 32.9736 11.3564 31.922 11.4804C31.6034 11.5184 31.5539 11.2441 31.8409 11.0457C33.7081 9.75436 36.768 10.1271 37.1235 10.5598C37.4815 10.9955 37.029 14.0159 35.2798 15.4569C35.0103 15.6785 34.7543 15.5603 34.8738 15.2679C35.2678 14.2995 36.1489 12.1323 35.7314 11.6055V11.6055Z" fill="#212121"/>
<path fill-rule="evenodd" clip-rule="evenodd" d="M31.9862 1.85643V0.586241C31.9872 0.392821 32.1311 0.264207 32.3046 0.264706L37.9342 0.264207C38.1141 0.264207 38.259 0.396311 38.259 0.584745V1.67398C38.257 1.85693 38.1047 2.09521 37.8351 2.47358L34.9188 6.68494C36.0012 6.65951 37.1461 6.82352 38.1299 7.38235C38.3517 7.50847 38.4113 7.69541 38.4286 7.87836V9.23379C38.4286 9.42073 38.2265 9.63658 38.0136 9.52442C36.2811 8.60617 33.9818 8.50597 32.0655 9.53538C31.8699 9.64107 31.6653 9.42771 31.6653 9.24077V7.95214C31.6653 7.74625 31.6693 7.39331 31.8748 7.07925L35.253 2.17697L32.3115 2.17647C32.1316 2.17647 31.9872 2.04686 31.9862 1.85643ZM11.451 9.79112H9.73825C9.5751 9.78065 9.44499 9.65702 9.43168 9.4985L9.43316 0.607676C9.43316 0.430209 9.58102 0.288135 9.76388 0.288135L11.3588 0.287637C11.5254 0.296111 11.6595 0.423728 11.6698 0.586241V1.74676H11.7024C12.1179 0.624127 12.901 0.100199 13.9563 0.100199C15.0273 0.100199 15.6991 0.624127 16.1787 1.74676C16.5942 0.624127 17.5375 0.100199 18.5445 0.100199C19.2641 0.100199 20.0472 0.3998 20.5268 1.07328C21.0705 1.82203 20.9591 2.90678 20.9591 3.86091L20.9571 9.47158C20.9571 9.64854 20.8097 9.79112 20.6269 9.79112H18.9166C18.7441 9.78015 18.609 9.64256 18.609 9.47207L18.6085 4.75872C18.6085 4.38484 18.6406 3.44965 18.5602 3.09421C18.4326 2.49501 18.0491 2.32652 17.5538 2.32652C17.1378 2.32652 16.706 2.60718 16.5301 3.05583C16.3541 3.50548 16.3704 4.25324 16.3704 4.75872V9.47158C16.3704 9.64854 16.2225 9.79112 16.0402 9.79112H14.3294C14.1574 9.78015 14.0218 9.64256 14.0218 9.47207L14.0199 4.75872C14.0199 3.76719 14.18 2.30857 12.9651 2.30857C11.7339 2.30857 11.7822 3.72981 11.7822 4.75872L11.7812 9.47158C11.7812 9.64854 11.6334 9.79112 11.451 9.79112ZM43.1207 1.91525C41.858 1.91525 41.7782 3.65453 41.7782 4.73978C41.7782 5.82502 41.7624 8.14506 43.1055 8.14506C44.4323 8.14506 44.4964 6.27417 44.4964 5.1331C44.4964 4.38484 44.4638 3.48654 44.2401 2.77567C44.0483 2.15802 43.6644 1.91525 43.1207 1.91525ZM43.1055 0.100199C45.6472 0.100199 47.0219 2.30857 47.0219 5.11465C47.0219 7.82651 45.5033 9.97855 43.1055 9.97855C40.611 9.97855 39.2522 7.77068 39.2522 5.02093C39.2522 2.25174 40.6268 0.100199 43.1055 0.100199ZM50.3187 9.79112H48.6119C48.4409 9.78015 48.3048 9.64256 48.3048 9.47207L48.3019 0.578265C48.3166 0.415254 48.4586 0.288135 48.6311 0.288135L50.2196 0.287637C50.3695 0.295613 50.4927 0.398305 50.5242 0.53639V1.89631H50.5563C51.0363 0.679959 51.7071 0.100199 52.89 0.100199C53.6575 0.100199 54.4091 0.380857 54.8887 1.14805C55.3362 1.85892 55.3362 3.05583 55.3362 3.91675V9.51146C55.3175 9.66898 55.1775 9.79112 55.0079 9.79112H53.2913C53.1325 9.78115 53.0049 9.663 52.9862 9.51146V4.68444C52.9862 3.71136 53.0985 2.28913 51.9151 2.28913C51.4996 2.28913 51.1157 2.56979 50.924 3C50.6839 3.54287 50.6519 4.08524 50.6519 4.68444V9.47158C50.6489 9.64854 50.5011 9.79112 50.3187 9.79112ZM29.2246 9.76918C29.1117 9.87187 28.9486 9.87885 28.8204 9.80956C28.2517 9.3315 28.1496 9.11066 27.8386 8.65503C26.8987 9.62362 26.2328 9.91425 25.0149 9.91425C23.5733 9.91425 22.4515 9.01395 22.4515 7.21435C22.4515 5.80807 23.2051 4.85194 24.2781 4.38335C25.2072 3.97058 26.5049 3.89581 27.4985 3.78315V3.55832C27.4985 3.14506 27.5306 2.65852 27.2901 2.30209C27.0816 1.98305 26.6814 1.85194 26.329 1.85194C25.6754 1.85194 25.0953 2.19043 24.9523 2.89182C24.9223 3.04785 24.8099 3.20289 24.6551 3.21086L22.9946 3.02891C22.8547 2.99651 22.6989 2.88285 22.7388 2.6665C23.1159 0.658025 24.8893 0.0319043 26.501 0.0149551H26.6281C27.4532 0.0254237 28.507 0.254237 29.1487 0.876868C29.9821 1.6645 29.9013 2.71435 29.9013 3.85842V6.55682C29.9013 7.36889 30.235 7.72482 30.548 8.16201C30.6579 8.32003 30.682 8.50697 30.5425 8.62262C30.1926 8.91923 29.5711 9.46509 29.2295 9.77317L29.2246 9.76918ZM27.4985 5.54586C27.4985 6.22083 27.5143 6.78314 27.1782 7.38334C26.9056 7.87038 26.4729 8.17048 25.9923 8.17048C25.3358 8.17048 24.9514 7.6645 24.9514 6.91425C24.9514 5.43868 26.2595 5.17048 27.4985 5.17048V5.54586ZM6.7736 9.76918C6.66024 9.87187 6.4966 9.87885 6.36895 9.80956C5.79967 9.3315 5.69765 9.11066 5.38714 8.65503C4.44673 9.62362 3.78135 9.91425 2.56345 9.91425C1.12179 9.91425 0 9.01395 0 7.21435C0 5.80807 0.752622 4.85194 1.8266 4.38335C2.75567 3.97058 4.05341 3.89581 5.04656 3.78315V3.55832C5.04656 3.14506 5.07909 2.65852 4.83857 2.30209C4.63008 1.98305 4.22937 1.85194 3.87746 1.85194C3.2239 1.85194 2.6428 2.19043 2.50085 2.89182C2.47128 3.04785 2.35841 3.20289 2.20316 3.21086L0.54315 3.02891C0.40268 2.99651 0.246931 2.88285 0.287347 2.6665C0.663411 0.658025 2.43727 0.0319043 4.04947 0.0149551H4.17663C5.00171 0.0254237 6.05548 0.254237 6.6972 0.876868C7.53016 1.6645 7.44982 2.71435 7.44982 3.85842V6.55682C7.44982 7.36889 7.7835 7.72482 8.09648 8.16201C8.2054 8.32003 8.23054 8.50697 8.09105 8.62262C7.74111 8.91923 7.1191 9.46509 6.77754 9.77317L6.7736 9.76918ZM5.04656 5.54586C5.04656 6.22083 5.06282 6.78314 4.72619 7.38334C4.45412 7.87038 4.02138 8.17048 3.54033 8.17048C2.88382 8.17048 2.49938 7.6645 2.49938 6.91425C2.49938 5.43868 3.80796 5.17048 5.04656 5.17048V5.54586ZM78.7483 12.9805V12.3275C78.7483 12.1416 78.8385 12.0134 79.0302 12.0249C79.3881 12.0763 79.8942 12.1276 80.2535 12.0528C80.7228 11.9541 81.0594 11.6176 81.2585 11.1565C81.539 10.5075 81.7248 9.98404 81.8421 9.64057L78.2791 0.713359C78.219 0.561814 78.2012 0.280658 78.5004 0.280658H79.7459C79.9834 0.280658 80.08 0.4332 80.1333 0.582751L82.7165 7.83399L85.1823 0.582751C85.2326 0.434197 85.3336 0.280658 85.5692 0.280658H86.7437C87.0409 0.280658 87.0242 0.561315 86.965 0.713359L83.4306 9.91923C82.9732 11.1446 82.364 13.0962 80.9919 13.4352C80.3038 13.6171 79.4359 13.5513 78.9262 13.3355C78.7976 13.2702 78.7483 13.0957 78.7483 12.9805ZM77.0868 9.24725C77.0868 9.41325 76.9523 9.54934 76.7871 9.54934H75.9088C75.7191 9.54934 75.5895 9.41076 75.5653 9.24725L75.4771 8.64256C75.0734 8.98803 74.5781 9.29162 74.0408 9.50298C73.0078 9.90876 71.817 9.97606 70.8076 9.34894C70.0776 8.8958 69.6902 8.00996 69.6902 7.0962C69.6902 6.38933 69.9056 5.68843 70.3832 5.17946C71.0205 4.48404 71.9441 4.14257 73.0595 4.14257C73.7333 4.14257 74.6974 4.22283 75.3987 4.45463V3.23778C75.3987 2.0005 74.8837 1.4651 73.5258 1.4651C72.4878 1.4651 71.6938 1.62363 70.5887 1.97108C70.4118 1.97707 70.3083 1.84098 70.3083 1.67497V0.981056C70.3083 0.814556 70.4488 0.653539 70.6011 0.604685C71.3902 0.25673 72.508 0.0398803 73.6963 0C75.2454 0 77.0868 0.353439 77.0868 2.76321V9.24725ZM75.3987 7.47058V5.63459C74.8092 5.47158 73.8338 5.40378 73.4563 5.40378C72.8599 5.40378 72.2069 5.54636 71.8658 5.91774C71.611 6.18992 71.4956 6.58075 71.4956 6.95862C71.4956 7.44715 71.6627 7.93718 72.0531 8.17945C72.5065 8.49102 73.2099 8.45313 73.8708 8.2632C74.5061 8.08075 75.1025 7.75822 75.3987 7.47058ZM64.1365 1.49252C66.0853 1.49252 66.6162 3.04237 66.6162 4.81704C66.627 6.01345 66.4096 7.08025 65.797 7.69092C65.3386 8.14805 64.8265 8.27267 64.0557 8.27267C63.3696 8.27267 62.4671 7.91076 61.7929 7.40677V2.3325C62.4947 1.78714 63.3903 1.49252 64.1365 1.49252ZM61.4942 13.2991H60.3177C60.1531 13.2991 60.0185 13.163 60.0185 12.997V0.598703C60.0185 0.432701 60.1531 0.29661 60.3177 0.29661H61.2182C61.4074 0.29661 61.5371 0.435194 61.5612 0.598703L61.6558 1.24825C62.4992 0.491026 63.585 0.00548354 64.6195 0.00548354C67.5171 0.00548354 68.4699 2.42024 68.4699 4.9312C68.4699 7.61764 67.0124 9.77616 64.5476 9.77616C63.5096 9.77616 62.5391 9.38882 61.7929 8.71584V12.997C61.7929 13.163 61.6583 13.2991 61.4942 13.2991Z" fill="#060606"/>
</svg>
