<svg width="24" height="24" viewBox="0 0 24 24" fill="none" xmlns="http://www.w3.org/2000/svg">
<g clip-path="url(#clip0_484_774)">
<path d="M24 12C24 18.6274 18.6274 24 12 24C5.37262 24 0 18.6274 0 12C0 12.0028 12 0.00135937 12 0C18.6274 0 24 5.37262 24 12Z" fill="#0052B4"/>
<path d="M11.9678 12.0004H11.9999C11.9999 11.9895 11.9999 11.9791 11.9999 11.9682C11.9892 11.979 11.9785 11.9897 11.9678 12.0004Z" fill="#F0F0F0"/>
<path d="M11.9997 6.26165C11.9997 4.15017 11.9997 2.76656 11.9997 0.000793457H11.9977C5.37125 0.00187158 -0.000244141 5.37398 -0.000244141 12.0007H6.26061V8.47518L9.78617 12.0007H11.9677C11.9784 11.9901 11.9891 11.9794 11.9998 11.9686C11.9998 11.1602 11.9998 10.4388 11.9998 9.78726L8.47419 6.26165H11.9997Z" fill="#F0F0F0"/>
<path d="M6.07124 1.5657C4.19441 2.63441 2.63413 4.19469 1.56543 6.07152V12.0005H4.69588V4.6962V4.69616H12.0002C12.0002 3.70883 12.0002 2.76824 12.0002 1.5657H6.07124V1.5657Z" fill="#D80027"/>
<path d="M12.0006 10.5249L7.73714 6.2615H6.26147C6.26147 6.26145 6.26147 6.2615 6.26147 6.2615L12.0005 12.0005H12.0006C12.0006 12.0005 12.0006 10.9831 12.0006 10.5249Z" fill="#D80027"/>
<path d="M7.23753 14.0865L7.89613 15.4635L9.38333 15.1198L8.71733 16.4933L9.9133 17.4418L8.42422 17.7774L8.42839 19.3038L7.23753 18.3488L6.04672 19.3038L6.05089 17.7774L4.56177 17.4418L5.75778 16.4933L5.09169 15.1198L6.57899 15.4635L7.23753 14.0865Z" fill="#F0F0F0"/>
<path d="M17.967 16.6954L18.2963 17.3839L19.0399 17.212L18.7069 17.8988L19.3049 18.373L18.5603 18.5408L18.5624 19.3041L17.967 18.8265L17.3716 19.3041L17.3737 18.5408L16.6292 18.373L17.2271 17.8988L16.8941 17.212L17.6377 17.3839L17.967 16.6954Z" fill="#F0F0F0"/>
<path d="M14.9033 9.39142L15.2326 10.08L15.9762 9.90807L15.6432 10.5948L16.2412 11.0691L15.4967 11.2369L15.4987 12.0001L14.9033 11.5226L14.3079 12.0001L14.3099 11.2369L13.5654 11.0691L14.1634 10.5948L13.8304 9.90807L14.574 10.08L14.9033 9.39142Z" fill="#F0F0F0"/>
<path d="M17.967 5.21762L18.2963 5.90622L19.0399 5.73432L18.7069 6.42109L19.3049 6.89528L18.5603 7.06314L18.5624 7.82636L17.967 7.34884L17.3716 7.82636L17.3737 7.06314L16.6292 6.89528L17.2271 6.42109L16.8941 5.73432L17.6377 5.90622L17.967 5.21762Z" fill="#F0F0F0"/>
<path d="M20.6421 8.34778L20.9714 9.03637L21.715 8.86443L21.382 9.5512L21.98 10.0254L21.2354 10.1933L21.2375 10.9565L20.6421 10.479L20.0467 10.9565L20.0487 10.1933L19.3042 10.0254L19.9022 9.5512L19.5692 8.86443L20.3128 9.03637L20.6421 8.34778Z" fill="#F0F0F0"/>
<path d="M18.7293 12.0003L18.9883 12.7975H19.8265L19.1483 13.2902L19.4074 14.0873L18.7293 13.5946L18.0512 14.0873L18.3102 13.2902L17.6321 12.7975H18.4703L18.7293 12.0003Z" fill="#F0F0F0"/>
</g>
<defs>
<clipPath id="clip0_484_774">
<rect width="24" height="24" fill="white"/>
</clipPath>
</defs>
</svg>
