<svg width="52" height="51" viewBox="0 0 52 51" fill="currentColor" xmlns="http://www.w3.org/2000/svg">
    <rect x="0.5" width="51" height="51" rx="6" fill="#882A2B" />
    <path fill-rule="evenodd" clip-rule="evenodd"
        d="M19.4438 33.4735H20.8751V27.9236V18H19.4438H18.0125V27.9236V33.4735H19.4438ZM40.5848 33.7499C37.2371 33.7499 34.8976 31.1596 34.8976 27.9418V18.002H37.7523V23.4268C38.5902 22.5412 39.6828 22.1317 40.9717 22.1317C43.8905 22.1317 46.25 24.7442 46.25 27.9398C46.25 31.1575 43.9106 33.7499 40.5848 33.7499ZM40.5848 24.7664C39.0192 24.7664 37.7523 26.1907 37.7523 27.962C37.7523 29.6889 39.0192 31.093 40.5848 31.093C42.1505 31.093 43.4174 29.7333 43.4174 27.962C43.4174 26.1261 42.1505 24.7664 40.5848 24.7664ZM5.75 27.9399C5.75 31.1576 8.13153 33.75 11.4572 33.75C14.1395 33.75 16.1582 32.2592 16.8017 29.7313H13.7766C13.4118 30.508 12.5097 31.1556 11.4593 31.1556C9.89362 31.1556 8.62668 29.7092 8.62668 27.9601C8.62668 26.1686 9.89362 24.6999 11.4593 24.6999C12.4876 24.6999 13.3677 25.3475 13.7546 26.104H16.7796C16.1341 23.5984 14.1174 22.0874 11.4572 22.0874C8.13153 22.0874 5.75 24.7221 5.75 27.9399ZM23.1463 28.7831C23.1463 31.6982 24.9705 33.7499 28.0597 33.7499C31.0647 33.7499 33.0393 31.6115 33.0373 28.7831V22.3697H30.2047V28.8698C30.2047 30.1004 29.3046 30.9861 28.0597 30.9861C26.1934 30.9861 25.9789 29.4952 25.9789 28.8698V22.3697H23.1463V28.7831Z"
        fill="white" />
</svg>