<svg width="20" height="20" viewBox="0 0 20 20" fill="none" xmlns="http://www.w3.org/2000/svg">
<mask id="mask0_1462_6379" style="mask-type:alpha" maskUnits="userSpaceOnUse" x="0" y="0" width="20" height="20">
<rect x="0.833008" y="0.833496" width="18.3333" height="18.3333" rx="9.16667" fill="#C4C4C4"/>
</mask>
<g mask="url(#mask0_1462_6379)">
<path d="M22.9405 0.833496H-0.440454C-1.57794 0.833496 -2.5 1.77173 -2.5 2.92917V17.0711C-2.5 18.2285 -1.57794 19.1668 -0.440454 19.1668H22.9405C24.0779 19.1668 25 18.2286 25 17.0711V2.92917C25 1.77173 24.0779 0.833496 22.9405 0.833496Z" fill="#F5F5F5"/>
<path d="M-2.3866 2.24376H24.8868C24.6077 1.42304 23.842 0.833496 22.9406 0.833496H-0.440327C-1.34181 0.833496 -2.10746 1.42304 -2.3866 2.24376Z" fill="#FF4B55"/>
<path d="M25 6.47461H-2.5V7.88482H25V6.47461Z" fill="#FF4B55"/>
<path d="M25 3.65381H-2.5V5.06402H25V3.65381Z" fill="#FF4B55"/>
<path d="M-2.5 10.2227C-2.5 10.4891 -2.28768 10.7052 -2.02584 10.7052H25V9.29492H-2.5V10.2227Z" fill="#FF4B55"/>
<path d="M25 14.9365H-2.5V16.3468H25V14.9365Z" fill="#FF4B55"/>
<path d="M24.8868 17.7563H-2.3866C-2.10746 18.5771 -1.34176 19.1666 -0.440327 19.1666H22.9406C23.8421 19.1666 24.6077 18.5771 24.8868 17.7563Z" fill="#FF4B55"/>
<path d="M25 12.1157H-2.5V13.5259H25V12.1157Z" fill="#FF4B55"/>
<path d="M-2.02584 10.7053H9.82763C10.0895 10.7053 10.3018 10.4893 10.3018 10.2228V1.31597C10.3018 1.04948 10.0895 0.833496 9.82763 0.833496H-0.440454C-1.57794 0.833551 -2.5 1.77178 -2.5 2.92922V10.2228C-2.5 10.4893 -2.28768 10.7053 -2.02584 10.7053Z" fill="#41479B"/>
<path d="M1.38708 1.94078L1.49204 2.26105L1.82381 2.26362C1.86678 2.264 1.88455 2.31974 1.85002 2.3457L1.58313 2.54623L1.68325 2.86808C1.69624 2.90972 1.64957 2.94427 1.6146 2.9188L1.34471 2.72248L1.07481 2.9188C1.03984 2.94427 0.993276 2.90972 1.00617 2.86808L1.10628 2.54623L0.839394 2.3457C0.804858 2.31969 0.822636 2.26394 0.865605 2.26362L1.19738 2.26105L1.30233 1.94078C1.31586 1.8993 1.3735 1.8993 1.38708 1.94078Z" fill="#F5F5F5"/>
<path d="M1.38708 3.61603L1.49204 3.9363L1.82381 3.93887C1.86678 3.93925 1.88455 3.99494 1.85002 4.02096L1.58313 4.22153L1.68325 4.54338C1.69624 4.58503 1.64957 4.61957 1.6146 4.5941L1.34471 4.39779L1.07481 4.5941C1.03984 4.61952 0.993276 4.58503 1.00617 4.54338L1.10628 4.22153L0.839394 4.02096C0.804858 3.99494 0.822636 3.93925 0.865605 3.93887L1.19738 3.9363L1.30233 3.61603C1.31586 3.5746 1.3735 3.5746 1.38708 3.61603Z" fill="#F5F5F5"/>
<path d="M1.38708 5.29137L1.49204 5.61163L1.82381 5.6142C1.86678 5.61458 1.88455 5.67028 1.85002 5.69629L1.58313 5.89687L1.68325 6.21872C1.69624 6.26037 1.64957 6.29491 1.6146 6.26944L1.34471 6.07312L1.07481 6.26944C1.03984 6.29485 0.993276 6.26042 1.00617 6.21872L1.10628 5.89687L0.839394 5.69629C0.804858 5.67028 0.822636 5.61458 0.865605 5.6142L1.19738 5.61163L1.30233 5.29137C1.31586 5.24988 1.3735 5.24988 1.38708 5.29137Z" fill="#F5F5F5"/>
<path d="M1.38708 6.96666L1.49204 7.28693L1.82381 7.28949C1.86678 7.28988 1.88455 7.34562 1.85002 7.37158L1.58313 7.57216L1.68325 7.89401C1.69624 7.93566 1.64957 7.9702 1.6146 7.94473L1.34471 7.74842L1.07481 7.94473C1.03984 7.97015 0.993276 7.93566 1.00617 7.89401L1.10628 7.57216L0.839394 7.37158C0.804858 7.34568 0.822636 7.28988 0.865605 7.28949L1.19738 7.28693L1.30233 6.96666C1.31586 6.92518 1.3735 6.92518 1.38708 6.96666Z" fill="#F5F5F5"/>
<path d="M1.38708 8.6424L1.49204 8.96267L1.82381 8.96523C1.86678 8.96562 1.88455 9.02131 1.85002 9.04732L1.58313 9.2479L1.68325 9.56975C1.69624 9.6114 1.64957 9.64594 1.6146 9.62047L1.34471 9.42415L1.07481 9.62047C1.03984 9.64588 0.993276 9.6114 1.00617 9.56975L1.10628 9.2479L0.839394 9.04732C0.804858 9.02131 0.822636 8.96562 0.865605 8.96523L1.19738 8.96267L1.30233 8.6424C1.31586 8.60097 1.3735 8.60097 1.38708 8.6424Z" fill="#F5F5F5"/>
<path d="M2.6654 2.76252L2.77036 3.08278L3.10213 3.08535C3.1451 3.08574 3.16288 3.14148 3.12834 3.16744L2.86145 3.36802L2.96157 3.68987C2.97456 3.73152 2.92789 3.76606 2.89292 3.74059L2.62303 3.54427L2.35313 3.74059C2.31816 3.766 2.2716 3.73152 2.28449 3.68987L2.3846 3.36802L2.11771 3.16744C2.08318 3.14143 2.10096 3.08574 2.14393 3.08535L2.4757 3.08278L2.58065 2.76252C2.59413 2.72109 2.65182 2.72109 2.6654 2.76252Z" fill="#F5F5F5"/>
<path d="M2.66528 4.43736L2.77023 4.75763L3.10201 4.7602C3.14498 4.76058 3.16275 4.81633 3.12822 4.84229L2.86133 5.04286L2.96144 5.36472C2.97444 5.40636 2.92777 5.4409 2.8928 5.41543L2.6229 5.21912L2.35301 5.41543C2.31804 5.44085 2.27147 5.40642 2.28437 5.36472L2.38448 5.04286L2.11759 4.84229C2.08306 4.81638 2.10083 4.76058 2.1438 4.7602L2.47558 4.75763L2.58053 4.43736C2.59401 4.39588 2.65169 4.39588 2.66528 4.43736Z" fill="#F5F5F5"/>
<path d="M2.66528 6.11314L2.77023 6.43341L3.10201 6.43598C3.14498 6.43636 3.16275 6.49205 3.12822 6.51807L2.86133 6.71865L2.96144 7.0405C2.97444 7.08214 2.92777 7.11668 2.8928 7.09122L2.6229 6.8949L2.35301 7.09122C2.31804 7.11663 2.27147 7.08214 2.28437 7.0405L2.38448 6.71865L2.11759 6.51807C2.08306 6.49205 2.10083 6.43636 2.1438 6.43598L2.47558 6.43341L2.58053 6.11314C2.59401 6.07166 2.65169 6.07166 2.66528 6.11314Z" fill="#F5F5F5"/>
<path d="M2.66528 7.78839L2.77023 8.10866L3.10201 8.11123C3.14498 8.11161 3.16275 8.1673 3.12822 8.19332L2.86133 8.39389L2.96144 8.71575C2.97444 8.75739 2.92777 8.79193 2.8928 8.76646L2.6229 8.57015L2.35301 8.76646C2.31804 8.79193 2.27147 8.75739 2.28437 8.71575L2.38448 8.39389L2.11759 8.19332C2.08306 8.1673 2.10083 8.11161 2.1438 8.11123L2.47558 8.10866L2.58053 7.78839C2.59401 7.74697 2.65169 7.74697 2.66528 7.78839Z" fill="#F5F5F5"/>
<path d="M3.9428 1.94077L4.04775 2.26104L4.37953 2.26361C4.4225 2.26399 4.44027 2.31974 4.40574 2.3457L4.13885 2.54622L4.23897 2.86807C4.25196 2.90972 4.20529 2.94426 4.17032 2.91879L3.90037 2.72253L3.63047 2.91884C3.59551 2.94431 3.54894 2.90977 3.56183 2.86813L3.66195 2.54627L3.39506 2.34575C3.36052 2.31974 3.3783 2.26399 3.42127 2.26366L3.75304 2.26109L3.85799 1.94083C3.87158 1.89929 3.92921 1.89929 3.9428 1.94077Z" fill="#F5F5F5"/>
<path d="M3.9428 3.61603L4.04775 3.9363L4.37953 3.93887C4.4225 3.93925 4.44027 3.99494 4.40574 4.02096L4.13885 4.22153L4.23897 4.54338C4.25196 4.58503 4.20529 4.61957 4.17032 4.5941L3.90037 4.39779L3.63047 4.5941C3.59551 4.61952 3.54894 4.58503 3.56183 4.54338L3.66195 4.22153L3.39506 4.02096C3.36052 3.99494 3.3783 3.93925 3.42127 3.93887L3.75304 3.9363L3.85799 3.61603C3.87158 3.5746 3.92921 3.5746 3.9428 3.61603Z" fill="#F5F5F5"/>
<path d="M3.9428 5.29137L4.04775 5.61164L4.37953 5.61421C4.4225 5.61459 4.44027 5.67028 4.40574 5.6963L4.13885 5.89687L4.23897 6.21873C4.25196 6.26037 4.20529 6.29491 4.17032 6.26945L3.90037 6.07308L3.63047 6.26939C3.59551 6.2948 3.54894 6.26032 3.56183 6.21867L3.66195 5.89682L3.39506 5.69624C3.36052 5.67023 3.3783 5.61454 3.42127 5.61415L3.75304 5.61159L3.85799 5.29132C3.87158 5.24989 3.92921 5.24989 3.9428 5.29137Z" fill="#F5F5F5"/>
<path d="M3.9428 6.96666L4.04775 7.28693L4.37953 7.28949C4.4225 7.28988 4.44027 7.34562 4.40574 7.37158L4.13885 7.57216L4.23897 7.89401C4.25196 7.93566 4.20529 7.9702 4.17032 7.94473L3.90037 7.74842L3.63047 7.94473C3.59551 7.97015 3.54894 7.93566 3.56183 7.89401L3.66195 7.57216L3.39506 7.37158C3.36052 7.34568 3.3783 7.28988 3.42127 7.28949L3.75304 7.28693L3.85799 6.96666C3.87158 6.92518 3.92921 6.92518 3.9428 6.96666Z" fill="#F5F5F5"/>
<path d="M3.9428 8.6424L4.04775 8.96267L4.37953 8.96523C4.4225 8.96562 4.44027 9.02131 4.40574 9.04732L4.13885 9.2479L4.23897 9.56975C4.25196 9.6114 4.20529 9.64594 4.17032 9.62047L3.90037 9.42415L3.63047 9.62047C3.59551 9.64588 3.54894 9.6114 3.56183 9.56975L3.66195 9.2479L3.39506 9.04732C3.36052 9.02131 3.3783 8.96562 3.42127 8.96523L3.75304 8.96267L3.85799 8.6424C3.87158 8.60097 3.92921 8.60097 3.9428 8.6424Z" fill="#F5F5F5"/>
<path d="M5.22107 2.76252L5.32602 3.08278L5.65779 3.08535C5.70076 3.08574 5.71854 3.14148 5.684 3.16744L5.41711 3.36802L5.51723 3.68987C5.53023 3.73152 5.48355 3.76606 5.44859 3.74059L5.17869 3.54427L4.90879 3.74059C4.87383 3.766 4.82726 3.73152 4.84015 3.68987L4.94027 3.36802L4.67338 3.16744C4.63884 3.14143 4.65662 3.08574 4.69959 3.08535L5.03136 3.08278L5.13631 2.76252C5.1499 2.72109 5.20748 2.72109 5.22107 2.76252Z" fill="#F5F5F5"/>
<path d="M5.22125 4.43736L5.3262 4.75763L5.65797 4.7602C5.70094 4.76058 5.71872 4.81633 5.68418 4.84229L5.4173 5.04286L5.51741 5.36472C5.53041 5.40636 5.48374 5.4409 5.44877 5.41543L5.17887 5.21912L4.90898 5.41543C4.87401 5.44085 4.82744 5.40642 4.84033 5.36472L4.94045 5.04286L4.67356 4.84229C4.63903 4.81638 4.6568 4.76058 4.69977 4.7602L5.03154 4.75763L5.1365 4.43736C5.15008 4.39588 5.20766 4.39588 5.22125 4.43736Z" fill="#F5F5F5"/>
<path d="M5.22125 6.11314L5.3262 6.43341L5.65797 6.43598C5.70094 6.43636 5.71872 6.49205 5.68418 6.51807L5.4173 6.71865L5.51741 7.0405C5.53041 7.08214 5.48374 7.11668 5.44877 7.09122L5.17887 6.8949L4.90898 7.09122C4.87401 7.11663 4.82744 7.08214 4.84033 7.0405L4.94045 6.71865L4.67356 6.51807C4.63903 6.49205 4.6568 6.43636 4.69977 6.43598L5.03154 6.43341L5.1365 6.11314C5.15008 6.07166 5.20766 6.07166 5.22125 6.11314Z" fill="#F5F5F5"/>
<path d="M5.22125 7.78839L5.3262 8.10866L5.65797 8.11123C5.70094 8.11161 5.71872 8.1673 5.68418 8.19332L5.4173 8.39389L5.51741 8.71575C5.53041 8.75739 5.48374 8.79193 5.44877 8.76646L5.17887 8.57015L4.90898 8.76646C4.87401 8.79193 4.82744 8.75739 4.84033 8.71575L4.94045 8.39389L4.67356 8.19332C4.63903 8.1673 4.6568 8.11161 4.69977 8.11123L5.03154 8.10866L5.1365 7.78839C5.15008 7.74697 5.20766 7.74697 5.22125 7.78839Z" fill="#F5F5F5"/>
<path d="M6.4992 1.94078L6.60416 2.26105L6.93593 2.26362C6.97889 2.264 6.99667 2.31974 6.96214 2.3457L6.69525 2.54623L6.79537 2.86808C6.80836 2.90972 6.76169 2.94427 6.72672 2.9188L6.45683 2.72248L6.18693 2.9188C6.15196 2.94427 6.1054 2.90972 6.11829 2.86808L6.2184 2.54623L5.95152 2.3457C5.91698 2.31969 5.93476 2.26394 5.97773 2.26362L6.3095 2.26105L6.41445 1.94078C6.42793 1.8993 6.48562 1.8993 6.4992 1.94078Z" fill="#F5F5F5"/>
<path d="M6.4992 3.61603L6.60416 3.9363L6.93593 3.93887C6.97889 3.93925 6.99667 3.99494 6.96214 4.02096L6.69525 4.22153L6.79537 4.54338C6.80836 4.58503 6.76169 4.61957 6.72672 4.5941L6.45683 4.39779L6.18693 4.5941C6.15196 4.61952 6.1054 4.58503 6.11829 4.54338L6.2184 4.22153L5.95152 4.02096C5.91698 3.99494 5.93476 3.93925 5.97773 3.93887L6.3095 3.9363L6.41445 3.61603C6.42793 3.5746 6.48562 3.5746 6.4992 3.61603Z" fill="#F5F5F5"/>
<path d="M6.4992 5.29137L6.60416 5.61163L6.93593 5.6142C6.97889 5.61458 6.99667 5.67028 6.96214 5.69629L6.69525 5.89687L6.79537 6.21872C6.80836 6.26037 6.76169 6.29491 6.72672 6.26944L6.45683 6.07312L6.18693 6.26944C6.15196 6.29485 6.1054 6.26042 6.11829 6.21872L6.2184 5.89687L5.95152 5.69629C5.91698 5.67028 5.93476 5.61458 5.97773 5.6142L6.3095 5.61163L6.41445 5.29137C6.42793 5.24988 6.48562 5.24988 6.4992 5.29137Z" fill="#F5F5F5"/>
<path d="M6.4992 6.96666L6.60416 7.28693L6.93593 7.28949C6.97889 7.28988 6.99667 7.34562 6.96214 7.37158L6.69525 7.57216L6.79537 7.89401C6.80836 7.93566 6.76169 7.9702 6.72672 7.94473L6.45683 7.74842L6.18693 7.94473C6.15196 7.97015 6.1054 7.93566 6.11829 7.89401L6.2184 7.57216L5.95152 7.37158C5.91698 7.34568 5.93476 7.28988 5.97773 7.28949L6.3095 7.28693L6.41445 6.96666C6.42793 6.92518 6.48562 6.92518 6.4992 6.96666Z" fill="#F5F5F5"/>
<path d="M6.4992 8.64191L6.60416 8.96218L6.93593 8.96475C6.97889 8.96513 6.99667 9.02082 6.96214 9.04683L6.69525 9.24741L6.79537 9.56926C6.80836 9.61091 6.76169 9.64545 6.72672 9.61998L6.45683 9.42367L6.18693 9.61998C6.15196 9.64539 6.1054 9.61091 6.11829 9.56926L6.2184 9.24741L5.95152 9.04683C5.91698 9.02082 5.93476 8.96513 5.97773 8.96475L6.3095 8.96218L6.41445 8.64191C6.42793 8.60048 6.48562 8.60048 6.4992 8.64191Z" fill="#F5F5F5"/>
<path d="M7.77673 2.76252L7.88168 3.08278L8.21346 3.08535C8.25643 3.08574 8.2742 3.14148 8.23967 3.16744L7.97278 3.36802L8.0729 3.68987C8.08589 3.73152 8.03922 3.76606 8.00425 3.74059L7.73435 3.54427L7.46446 3.74059C7.42949 3.766 7.38292 3.73152 7.39582 3.68987L7.49593 3.36802L7.22904 3.16744C7.19451 3.14143 7.21228 3.08574 7.25525 3.08535L7.58703 3.08278L7.69198 2.76252C7.70551 2.72109 7.76314 2.72109 7.77673 2.76252Z" fill="#F5F5F5"/>
<path d="M7.77673 4.43736L7.88168 4.75763L8.21346 4.7602C8.25643 4.76058 8.2742 4.81633 8.23967 4.84229L7.97278 5.04286L8.0729 5.36472C8.08589 5.40636 8.03922 5.4409 8.00425 5.41543L7.73435 5.21912L7.46446 5.41543C7.42949 5.44085 7.38292 5.40642 7.39582 5.36472L7.49593 5.04286L7.22904 4.84229C7.19451 4.81638 7.21228 4.76058 7.25525 4.7602L7.58703 4.75763L7.69198 4.43736C7.70551 4.39588 7.76314 4.39588 7.77673 4.43736Z" fill="#F5F5F5"/>
<path d="M7.77673 6.11314L7.88168 6.43341L8.21346 6.43598C8.25643 6.43636 8.2742 6.49205 8.23967 6.51807L7.97278 6.71865L8.0729 7.0405C8.08589 7.08214 8.03922 7.11668 8.00425 7.09122L7.73435 6.8949L7.46446 7.09122C7.42949 7.11663 7.38292 7.08214 7.39582 7.0405L7.49593 6.71865L7.22904 6.51807C7.19451 6.49205 7.21228 6.43636 7.25525 6.43598L7.58703 6.43341L7.69198 6.11314C7.70551 6.07166 7.76314 6.07166 7.77673 6.11314Z" fill="#F5F5F5"/>
<path d="M7.77673 7.78791L7.88168 8.10817L8.21346 8.11074C8.25643 8.11112 8.2742 8.16682 8.23967 8.19283L7.97278 8.39341L8.0729 8.71526C8.08589 8.7569 8.03922 8.79144 8.00425 8.76598L7.73435 8.56966L7.46446 8.76598C7.42949 8.79144 7.38292 8.7569 7.39582 8.71526L7.49593 8.39341L7.22904 8.19283C7.19451 8.16682 7.21228 8.11112 7.25525 8.11074L7.58703 8.10817L7.69198 7.78791C7.70551 7.74648 7.76314 7.74648 7.77673 7.78791Z" fill="#F5F5F5"/>
<path d="M9.05524 1.94078L9.16019 2.26105L9.49196 2.26362C9.53493 2.264 9.55271 2.31974 9.51817 2.3457L9.25128 2.54623L9.3514 2.86808C9.3644 2.90972 9.31772 2.94427 9.28276 2.9188L9.01286 2.72248L8.74296 2.9188C8.708 2.94427 8.66143 2.90972 8.67432 2.86808L8.77444 2.54623L8.50755 2.3457C8.47301 2.31969 8.49079 2.26394 8.53376 2.26362L8.86553 2.26105L8.97048 1.94078C8.98402 1.8993 9.04159 1.8993 9.05524 1.94078Z" fill="#F5F5F5"/>
<path d="M9.05524 3.61603L9.16019 3.9363L9.49196 3.93887C9.53493 3.93925 9.55271 3.99494 9.51817 4.02096L9.25128 4.22153L9.3514 4.54338C9.3644 4.58503 9.31772 4.61957 9.28276 4.5941L9.01286 4.39779L8.74296 4.5941C8.708 4.61952 8.66143 4.58503 8.67432 4.54338L8.77444 4.22153L8.50755 4.02096C8.47301 3.99494 8.49079 3.93925 8.53376 3.93887L8.86553 3.9363L8.97048 3.61603C8.98402 3.5746 9.04159 3.5746 9.05524 3.61603Z" fill="#F5F5F5"/>
<path d="M9.05524 5.29137L9.16019 5.61163L9.49196 5.6142C9.53493 5.61458 9.55271 5.67028 9.51817 5.69629L9.25128 5.89687L9.3514 6.21872C9.3644 6.26037 9.31772 6.29491 9.28276 6.26944L9.01286 6.07312L8.74296 6.26944C8.708 6.29485 8.66143 6.26042 8.67432 6.21872L8.77444 5.89687L8.50755 5.69629C8.47301 5.67028 8.49079 5.61458 8.53376 5.6142L8.86553 5.61163L8.97048 5.29137C8.98402 5.24988 9.04159 5.24988 9.05524 5.29137Z" fill="#F5F5F5"/>
<path d="M9.05524 6.96666L9.16019 7.28693L9.49196 7.28949C9.53493 7.28988 9.55271 7.34562 9.51817 7.37158L9.25128 7.57216L9.3514 7.89401C9.3644 7.93566 9.31772 7.9702 9.28276 7.94473L9.01286 7.74842L8.74296 7.94473C8.708 7.97015 8.66143 7.93566 8.67432 7.89401L8.77444 7.57216L8.50755 7.37158C8.47301 7.34568 8.49079 7.28988 8.53376 7.28949L8.86553 7.28693L8.97048 6.96666C8.98402 6.92518 9.04159 6.92518 9.05524 6.96666Z" fill="#F5F5F5"/>
<path d="M9.05524 8.64191L9.16019 8.96218L9.49196 8.96475C9.53493 8.96513 9.55271 9.02082 9.51817 9.04683L9.25128 9.24741L9.3514 9.56926C9.3644 9.61091 9.31772 9.64545 9.28276 9.61998L9.01286 9.42367L8.74296 9.61998C8.708 9.64539 8.66143 9.61091 8.67432 9.56926L8.77444 9.24741L8.50755 9.04683C8.47301 9.02082 8.49079 8.96513 8.53376 8.96475L8.86553 8.96218L8.97048 8.64191C8.98402 8.60048 9.04159 8.60048 9.05524 8.64191Z" fill="#F5F5F5"/>
</g>
</svg>
