<svg width="19" height="20" viewBox="0 0 19 20" fill="none" xmlns="http://www.w3.org/2000/svg">
<mask id="mask0_644_35778" style="mask-type:alpha" maskUnits="userSpaceOnUse" x="0" y="0" width="20" height="20">
<rect x="0.666992" y="0.833374" width="18.3333" height="18.3333" rx="9.16667" fill="#C4C4C4"/>
</mask>
<g mask="url(#mask0_644_35778)">
<path d="M23.6148 6.10352e-05H-4.01716C-5.36147 6.10352e-05 -6.45117 1.06623 -6.45117 2.38151V18.4519C-6.45117 19.7672 -5.36147 20.8334 -4.01716 20.8334H23.6148C24.9591 20.8334 26.0488 19.7672 26.0488 18.4519V2.38151C26.0488 1.06623 24.9591 6.10352e-05 23.6148 6.10352e-05Z" fill="#41479B"/>
<path d="M26.0151 1.98788C25.8233 0.860102 24.822 6.10352e-05 23.6148 6.10352e-05H22.9815L12.6006 6.65451V0.000123107H6.9971V6.65457L-3.38386 0.000123107H-4.01716C-5.2243 0.000123107 -6.22564 0.860102 -6.41747 1.98794L2.45516 7.67559H-6.45117V13.158H2.45516L-6.41747 18.8456C-6.22564 19.9733 -5.2243 20.8334 -4.01716 20.8334H-3.38386L6.9971 14.1789V20.8334H12.6006V14.1789L22.9815 20.8334H23.6148C24.822 20.8334 25.8233 19.9734 26.0151 18.8456L17.1425 13.1579H26.0488V7.67547H17.1425L26.0151 1.98788Z" fill="#F5F5F5"/>
<path d="M11.4799 6.10352e-05H8.11778V8.77194H-6.45117V12.0614H8.11778V20.8333H11.4799V12.0614H26.0488V8.77194H11.4799V6.10352e-05Z" fill="#FF4B55"/>
<path d="M-4.87697 20.6797L6.96668 13.1578H4.90826L-5.86523 20.0001C-5.60162 20.3011 -5.26284 20.537 -4.87697 20.6797Z" fill="#FF4B55"/>
<path d="M15.536 13.1578H13.4775L24.9488 20.4431C25.2698 20.2368 25.5376 19.9582 25.7287 19.6311L15.536 13.1578Z" fill="#FF4B55"/>
<path d="M-6.19336 1.31672L3.8188 7.67555H5.87722L-5.46808 0.470032C-5.7727 0.691874 -6.02197 0.981908 -6.19336 1.31672Z" fill="#FF4B55"/>
<path d="M14.659 7.67557L25.4522 0.820648C25.1857 0.520615 24.8443 0.286104 24.4557 0.146179L12.6006 7.67557H14.659Z" fill="#FF4B55"/>
</g>
</svg>
