<svg width="24" height="24" viewBox="0 0 24 24" fill="none" xmlns="http://www.w3.org/2000/svg">
<g clip-path="url(#clip0_462_611)">
<path d="M24 12C24 18.6274 18.6274 24 12 24C5.37262 24 0 18.6274 0 12C0 12.0029 12 0.0013125 12 0C18.6274 0 24 5.37262 24 12Z" fill="#0052B4"/>
<path d="M11.9683 12.0005H12.0004C12.0004 11.9897 12.0004 11.9792 12.0004 11.9683C11.9897 11.9791 11.979 11.9898 11.9683 12.0005Z" fill="#F0F0F0"/>
<path d="M12.0002 6.26092C12.0002 4.14944 12.0002 2.76592 12.0002 6.10352e-05H11.9982C5.37174 0.00118604 0.000244141 5.3733 0.000244141 12.0001H6.2611V8.47455L9.78666 12.0001H11.9682C11.9789 11.9894 11.9896 11.9787 12.0003 11.968C12.0003 11.1595 12.0003 10.4381 12.0003 9.78653L8.47468 6.26092H12.0002Z" fill="#F0F0F0"/>
<path d="M6.07124 1.565C4.19441 2.63371 2.63413 4.19399 1.56543 6.07082V11.9998H4.69588V4.69555V4.69546H12.0002C12.0002 3.70813 12.0002 2.76753 12.0002 1.565H6.07124Z" fill="#D80027"/>
<path d="M12.0006 10.5247L7.73714 6.26126C7.73714 6.26126 6.26147 6.26135 6.26147 6.26126V6.26135L12.0005 12.0004H12.0006C12.0006 12.0004 12.0006 10.9828 12.0006 10.5247Z" fill="#D80027"/>
<path d="M20.7811 8.90469L21.0401 9.70185H21.8783L21.2002 10.1945L21.4592 10.9916L20.7811 10.499L20.1029 10.9916L20.362 10.1945L19.6838 9.70185H20.522L20.7811 8.90469Z" fill="#D80027"/>
<path d="M17.7849 14.6436L18.1735 15.8393H19.4307L18.4135 16.5783L18.8021 17.774L17.7849 17.035L16.7678 17.774L17.1563 16.5783L16.1392 15.8393H17.3964L17.7849 14.6436Z" fill="#D80027"/>
<path d="M17.8985 5.25195L18.2223 6.24847H19.27L18.4224 6.86417L18.7462 7.86064L17.8985 7.24475L17.0509 7.86064L17.3747 6.86417L16.5271 6.24847H17.5748L17.8985 5.25195Z" fill="#D80027"/>
<path d="M15.0154 8.86996L15.4039 10.0657H16.6612L15.644 10.8047L16.0326 12.0004L15.0154 11.2614L13.9982 12.0004L14.3868 10.8047L13.3696 10.0657H14.6269L15.0154 8.86996Z" fill="#D80027"/>
</g>
<defs>
<clipPath id="clip0_462_611">
<rect width="24" height="24" fill="white"/>
</clipPath>
</defs>
</svg>
