<svg width="20" height="20" viewBox="0 0 20 20" fill="none" xmlns="http://www.w3.org/2000/svg">
<g clip-path="url(#clip0_644_35793)">
<path d="M10 0.625V3.75H3.75V10H0.625C0.625 15.1875 4.8125 19.375 10 19.375C15.1875 19.375 19.375 15.1875 19.375 10C19.375 4.8125 15.1875 0.625 10 0.625Z" fill="#2A5F9E"/>
<path d="M10 0.625C8.53125 0.625 7.15625 0.96875 5.90625 1.5625V3.4375H3.4375V5.90625H1.5625C0.96875 7.15625 0.625 8.53125 0.625 10H4.375V5.3125L8.125 10H10V7.65625L7.375 4.375H10V0.625Z" fill="white"/>
<path d="M4.8125 4.375L9.375 10H10V8.46875L6.6875 4.375H4.8125Z" fill="#ED4C5C"/>
<path d="M10 1.5625H5.90625C4.03125 2.46875 2.46875 4.03125 1.5625 5.90625V10H3.4375V3.4375H10V1.5625Z" fill="#ED4C5C"/>
<path d="M2.5 11.1562L3.1875 10.3125L2.96875 11.4062L4.0625 11.4375L3.09375 11.9375L3.75 12.8125L2.78125 12.375L2.5 13.4375L2.21875 12.375L1.25 12.8125L1.90625 11.9375L0.9375 11.4375L2.03125 11.4062L1.8125 10.3125L2.5 11.1562ZM16.25 6.3125L16.8125 5.625L16.625 6.5L17.5 6.53125L16.7188 6.9375L17.25 7.625L16.4688 7.25L16.25 8.125L16.0312 7.25L15.25 7.625L15.7812 6.9375L15 6.53125L15.875 6.5L15.6875 5.625L16.25 6.3125ZM16.25 12.5625L16.8125 11.875L16.625 12.75L17.5 12.7813L16.7188 13.1875L17.25 13.875L16.4688 13.5L16.25 14.375L16.0312 13.5L15.25 13.875L15.7812 13.1875L15 12.7813L15.875 12.75L15.6875 11.875L16.25 12.5625ZM13.125 8.1875L13.6875 7.5L13.5 8.375L14.375 8.40625L13.5938 8.8125L14.125 9.5L13.3438 9.125L13.125 10L12.9062 9.125L12.125 9.5L12.6562 8.8125L11.875 8.40625L12.75 8.375L12.5625 7.5L13.125 8.1875Z" fill="white"/>
</g>
<defs>
<clipPath id="clip0_644_35793">
<rect width="20" height="20" fill="white"/>
</clipPath>
</defs>
</svg>
