<svg width="20" height="20" viewBox="0 0 20 20" fill="none" xmlns="http://www.w3.org/2000/svg">
<mask id="mask0_644_35702" style="mask-type:alpha" maskUnits="userSpaceOnUse" x="0" y="0" width="20" height="20">
<rect x="0.833008" y="0.833374" width="18.3333" height="18.3333" rx="9.16667" fill="#C4C4C4"/>
</mask>
<g mask="url(#mask0_644_35702)">
<path d="M22.9405 0.833374H-0.440454C-1.57794 0.833374 -2.5 1.7716 -2.5 2.92905V17.071C-2.5 18.2284 -1.57794 19.1667 -0.440454 19.1667H22.9405C24.0779 19.1667 25 18.2285 25 17.071V2.92905C25 1.7716 24.0779 0.833374 22.9405 0.833374Z" fill="#F5F5F5"/>
<path d="M-2.38672 2.24364H24.8867C24.6076 1.42292 23.8419 0.833374 22.9405 0.833374H-0.440449C-1.34193 0.833374 -2.10758 1.42292 -2.38672 2.24364Z" fill="#FF4B55"/>
<path d="M25 6.47437H-2.5V7.88458H25V6.47437Z" fill="#FF4B55"/>
<path d="M25 3.65369H-2.5V5.0639H25V3.65369Z" fill="#FF4B55"/>
<path d="M-2.5 10.2226C-2.5 10.4891 -2.28768 10.7051 -2.02584 10.7051H25V9.29486H-2.5V10.2226Z" fill="#FF4B55"/>
<path d="M25 14.9363H-2.5V16.3466H25V14.9363Z" fill="#FF4B55"/>
<path d="M24.8867 17.7562H-2.38672C-2.10758 18.577 -1.34188 19.1665 -0.440449 19.1665H22.9405C23.8419 19.1665 24.6076 18.577 24.8867 17.7562Z" fill="#FF4B55"/>
<path d="M25 12.1155H-2.5V13.5258H25V12.1155Z" fill="#FF4B55"/>
<path d="M-2.02584 10.7052H9.82763C10.0895 10.7052 10.3018 10.4892 10.3018 10.2227V1.31585C10.3018 1.04936 10.0895 0.833374 9.82763 0.833374H-0.440454C-1.57794 0.833429 -2.5 1.77166 -2.5 2.9291V10.2227C-2.5 10.4892 -2.28768 10.7052 -2.02584 10.7052Z" fill="#41479B"/>
<path d="M1.38721 1.94078L1.49216 2.26105L1.82393 2.26362C1.8669 2.264 1.88468 2.31974 1.85014 2.3457L1.58325 2.54623L1.68337 2.86808C1.69637 2.90972 1.64969 2.94427 1.61473 2.9188L1.34483 2.72248L1.07493 2.9188C1.03997 2.94427 0.993398 2.90972 1.00629 2.86808L1.10641 2.54623L0.839516 2.3457C0.80498 2.31969 0.822758 2.26394 0.865727 2.26362L1.1975 2.26105L1.30245 1.94078C1.31599 1.8993 1.37362 1.8993 1.38721 1.94078Z" fill="#F5F5F5"/>
<path d="M1.38721 3.61603L1.49216 3.9363L1.82393 3.93887C1.8669 3.93925 1.88468 3.99494 1.85014 4.02096L1.58325 4.22153L1.68337 4.54338C1.69637 4.58503 1.64969 4.61957 1.61473 4.5941L1.34483 4.39779L1.07493 4.5941C1.03997 4.61952 0.993398 4.58503 1.00629 4.54338L1.10641 4.22153L0.839516 4.02096C0.80498 3.99494 0.822758 3.93925 0.865727 3.93887L1.1975 3.9363L1.30245 3.61603C1.31599 3.5746 1.37362 3.5746 1.38721 3.61603Z" fill="#F5F5F5"/>
<path d="M1.38721 5.29137L1.49216 5.61163L1.82393 5.6142C1.8669 5.61458 1.88468 5.67028 1.85014 5.69629L1.58325 5.89687L1.68337 6.21872C1.69637 6.26037 1.64969 6.29491 1.61473 6.26944L1.34483 6.07312L1.07493 6.26944C1.03997 6.29485 0.993398 6.26042 1.00629 6.21872L1.10641 5.89687L0.839516 5.69629C0.80498 5.67028 0.822758 5.61458 0.865727 5.6142L1.1975 5.61163L1.30245 5.29137C1.31599 5.24988 1.37362 5.24988 1.38721 5.29137Z" fill="#F5F5F5"/>
<path d="M1.38721 6.96666L1.49216 7.28693L1.82393 7.28949C1.8669 7.28988 1.88468 7.34562 1.85014 7.37158L1.58325 7.57216L1.68337 7.89401C1.69637 7.93566 1.64969 7.9702 1.61473 7.94473L1.34483 7.74842L1.07493 7.94473C1.03997 7.97015 0.993398 7.93566 1.00629 7.89401L1.10641 7.57216L0.839516 7.37158C0.80498 7.34568 0.822758 7.28988 0.865727 7.28949L1.1975 7.28693L1.30245 6.96666C1.31599 6.92518 1.37362 6.92518 1.38721 6.96666Z" fill="#F5F5F5"/>
<path d="M1.38721 8.6424L1.49216 8.96267L1.82393 8.96523C1.8669 8.96562 1.88468 9.02131 1.85014 9.04732L1.58325 9.2479L1.68337 9.56975C1.69637 9.6114 1.64969 9.64594 1.61473 9.62047L1.34483 9.42415L1.07493 9.62047C1.03997 9.64588 0.993398 9.6114 1.00629 9.56975L1.10641 9.2479L0.839516 9.04732C0.80498 9.02131 0.822758 8.96562 0.865727 8.96523L1.1975 8.96267L1.30245 8.6424C1.31599 8.60097 1.37362 8.60097 1.38721 8.6424Z" fill="#F5F5F5"/>
<path d="M2.66553 2.76252L2.77048 3.08278L3.10225 3.08535C3.14522 3.08574 3.163 3.14148 3.12846 3.16744L2.86157 3.36802L2.96169 3.68987C2.97469 3.73152 2.92801 3.76606 2.89305 3.74059L2.62315 3.54427L2.35325 3.74059C2.31829 3.766 2.27172 3.73152 2.28461 3.68987L2.38473 3.36802L2.11784 3.16744C2.0833 3.14143 2.10108 3.08574 2.14405 3.08535L2.47582 3.08278L2.58077 2.76252C2.59425 2.72109 2.65194 2.72109 2.66553 2.76252Z" fill="#F5F5F5"/>
<path d="M2.66553 4.43742L2.77048 4.75769L3.10225 4.76026C3.14522 4.76064 3.163 4.81639 3.12846 4.84235L2.86157 5.04292L2.96169 5.36478C2.97469 5.40642 2.92801 5.44096 2.89305 5.4155L2.62315 5.21918L2.35325 5.4155C2.31829 5.44091 2.27172 5.40648 2.28461 5.36478L2.38473 5.04292L2.11784 4.84235C2.0833 4.81644 2.10108 4.76064 2.14405 4.76026L2.47582 4.75769L2.58077 4.43742C2.59425 4.39594 2.65194 4.39594 2.66553 4.43742Z" fill="#F5F5F5"/>
<path d="M2.66553 6.1129L2.77048 6.43317L3.10225 6.43573C3.14522 6.43612 3.163 6.49181 3.12846 6.51782L2.86157 6.7184L2.96169 7.04025C2.97469 7.0819 2.92801 7.11644 2.89305 7.09097L2.62315 6.89466L2.35325 7.09097C2.31829 7.11639 2.27172 7.0819 2.28461 7.04025L2.38473 6.7184L2.11784 6.51782C2.0833 6.49181 2.10108 6.43612 2.14405 6.43573L2.47582 6.43317L2.58077 6.1129C2.59425 6.07142 2.65194 6.07142 2.66553 6.1129Z" fill="#F5F5F5"/>
<path d="M2.66553 7.78815L2.77048 8.10842L3.10225 8.11099C3.14522 8.11137 3.163 8.16706 3.12846 8.19307L2.86157 8.39365L2.96169 8.7155C2.97469 8.75715 2.92801 8.79169 2.89305 8.76622L2.62315 8.56991L2.35325 8.76622C2.31829 8.79169 2.27172 8.75715 2.28461 8.7155L2.38473 8.39365L2.11784 8.19307C2.0833 8.16706 2.10108 8.11137 2.14405 8.11099L2.47582 8.10842L2.58077 7.78815C2.59425 7.74672 2.65194 7.74672 2.66553 7.78815Z" fill="#F5F5F5"/>
<path d="M3.94292 1.94077L4.04788 2.26104L4.37965 2.26361C4.42262 2.26399 4.4404 2.31974 4.40586 2.3457L4.13897 2.54622L4.23909 2.86807C4.25209 2.90972 4.20541 2.94426 4.17044 2.91879L3.90049 2.72253L3.6306 2.91884C3.59563 2.94431 3.54906 2.90977 3.56195 2.86813L3.66207 2.54627L3.39518 2.34575C3.36064 2.31974 3.37842 2.26399 3.42139 2.26366L3.75316 2.26109L3.85812 1.94083C3.8717 1.89929 3.92934 1.89929 3.94292 1.94077Z" fill="#F5F5F5"/>
<path d="M3.94292 3.61603L4.04788 3.9363L4.37965 3.93887C4.42262 3.93925 4.4404 3.99494 4.40586 4.02096L4.13897 4.22153L4.23909 4.54338C4.25209 4.58503 4.20541 4.61957 4.17044 4.5941L3.90049 4.39779L3.6306 4.5941C3.59563 4.61952 3.54906 4.58503 3.56195 4.54338L3.66207 4.22153L3.39518 4.02096C3.36064 3.99494 3.37842 3.93925 3.42139 3.93887L3.75316 3.9363L3.85812 3.61603C3.8717 3.5746 3.92934 3.5746 3.94292 3.61603Z" fill="#F5F5F5"/>
<path d="M3.94292 5.29137L4.04788 5.61164L4.37965 5.61421C4.42262 5.61459 4.4404 5.67028 4.40586 5.6963L4.13897 5.89687L4.23909 6.21873C4.25209 6.26037 4.20541 6.29491 4.17044 6.26945L3.90049 6.07308L3.6306 6.26939C3.59563 6.2948 3.54906 6.26032 3.56195 6.21867L3.66207 5.89682L3.39518 5.69624C3.36064 5.67023 3.37842 5.61454 3.42139 5.61415L3.75316 5.61159L3.85812 5.29132C3.8717 5.24989 3.92934 5.24989 3.94292 5.29137Z" fill="#F5F5F5"/>
<path d="M3.94292 6.96666L4.04788 7.28693L4.37965 7.28949C4.42262 7.28988 4.4404 7.34562 4.40586 7.37158L4.13897 7.57216L4.23909 7.89401C4.25209 7.93566 4.20541 7.9702 4.17044 7.94473L3.90049 7.74842L3.6306 7.94473C3.59563 7.97015 3.54906 7.93566 3.56195 7.89401L3.66207 7.57216L3.39518 7.37158C3.36064 7.34568 3.37842 7.28988 3.42139 7.28949L3.75316 7.28693L3.85812 6.96666C3.8717 6.92518 3.92934 6.92518 3.94292 6.96666Z" fill="#F5F5F5"/>
<path d="M3.94292 8.6424L4.04788 8.96267L4.37965 8.96523C4.42262 8.96562 4.4404 9.02131 4.40586 9.04732L4.13897 9.2479L4.23909 9.56975C4.25209 9.6114 4.20541 9.64594 4.17044 9.62047L3.90049 9.42415L3.6306 9.62047C3.59563 9.64588 3.54906 9.6114 3.56195 9.56975L3.66207 9.2479L3.39518 9.04732C3.36064 9.02131 3.37842 8.96562 3.42139 8.96523L3.75316 8.96267L3.85812 8.6424C3.8717 8.60097 3.92934 8.60097 3.94292 8.6424Z" fill="#F5F5F5"/>
<path d="M5.22119 2.76252L5.32614 3.08278L5.65791 3.08535C5.70088 3.08574 5.71866 3.14148 5.68412 3.16744L5.41723 3.36802L5.51735 3.68987C5.53035 3.73152 5.48367 3.76606 5.44871 3.74059L5.17881 3.54427L4.90891 3.74059C4.87395 3.766 4.82738 3.73152 4.84027 3.68987L4.94039 3.36802L4.6735 3.16744C4.63896 3.14143 4.65674 3.08574 4.69971 3.08535L5.03148 3.08278L5.13643 2.76252C5.15002 2.72109 5.2076 2.72109 5.22119 2.76252Z" fill="#F5F5F5"/>
<path d="M5.22119 4.43742L5.32614 4.75769L5.65791 4.76026C5.70088 4.76064 5.71866 4.81639 5.68412 4.84235L5.41723 5.04292L5.51735 5.36478C5.53035 5.40642 5.48367 5.44096 5.44871 5.4155L5.17881 5.21918L4.90891 5.4155C4.87395 5.44091 4.82738 5.40648 4.84027 5.36478L4.94039 5.04292L4.6735 4.84235C4.63896 4.81644 4.65674 4.76064 4.69971 4.76026L5.03148 4.75769L5.13643 4.43742C5.15002 4.39594 5.2076 4.39594 5.22119 4.43742Z" fill="#F5F5F5"/>
<path d="M5.22119 6.1129L5.32614 6.43317L5.65791 6.43573C5.70088 6.43612 5.71866 6.49181 5.68412 6.51782L5.41723 6.7184L5.51735 7.04025C5.53035 7.0819 5.48367 7.11644 5.44871 7.09097L5.17881 6.89466L4.90891 7.09097C4.87395 7.11639 4.82738 7.0819 4.84027 7.04025L4.94039 6.7184L4.6735 6.51782C4.63896 6.49181 4.65674 6.43612 4.69971 6.43573L5.03148 6.43317L5.13643 6.1129C5.15002 6.07142 5.2076 6.07142 5.22119 6.1129Z" fill="#F5F5F5"/>
<path d="M5.22119 7.78815L5.32614 8.10842L5.65791 8.11099C5.70088 8.11137 5.71866 8.16706 5.68412 8.19307L5.41723 8.39365L5.51735 8.7155C5.53035 8.75715 5.48367 8.79169 5.44871 8.76622L5.17881 8.56991L4.90891 8.76622C4.87395 8.79169 4.82738 8.75715 4.84027 8.7155L4.94039 8.39365L4.6735 8.19307C4.63896 8.16706 4.65674 8.11137 4.69971 8.11099L5.03148 8.10842L5.13643 7.78815C5.15002 7.74672 5.2076 7.74672 5.22119 7.78815Z" fill="#F5F5F5"/>
<path d="M6.49951 1.94078L6.60446 2.26105L6.93623 2.26362C6.9792 2.264 6.99698 2.31974 6.96244 2.3457L6.69555 2.54623L6.79567 2.86808C6.80867 2.90972 6.76199 2.94427 6.72703 2.9188L6.45713 2.72248L6.18724 2.9188C6.15227 2.94427 6.1057 2.90972 6.11859 2.86808L6.21871 2.54623L5.95182 2.3457C5.91729 2.31969 5.93506 2.26394 5.97803 2.26362L6.3098 2.26105L6.41475 1.94078C6.42823 1.8993 6.48592 1.8993 6.49951 1.94078Z" fill="#F5F5F5"/>
<path d="M6.49951 3.61621L6.60446 3.93648L6.93623 3.93905C6.9792 3.93943 6.99698 3.99512 6.96244 4.02114L6.69555 4.22172L6.79567 4.54357C6.80867 4.58521 6.76199 4.61975 6.72703 4.59429L6.45713 4.39797L6.18724 4.59429C6.15227 4.6197 6.1057 4.58521 6.11859 4.54357L6.21871 4.22172L5.95182 4.02114C5.91729 3.99512 5.93506 3.93943 5.97803 3.93905L6.3098 3.93648L6.41475 3.61621C6.42823 3.57479 6.48592 3.57479 6.49951 3.61621Z" fill="#F5F5F5"/>
<path d="M6.49951 5.29137L6.60446 5.61163L6.93623 5.6142C6.9792 5.61458 6.99698 5.67028 6.96244 5.69629L6.69555 5.89687L6.79567 6.21872C6.80867 6.26037 6.76199 6.29491 6.72703 6.26944L6.45713 6.07312L6.18724 6.26944C6.15227 6.29485 6.1057 6.26042 6.11859 6.21872L6.21871 5.89687L5.95182 5.69629C5.91729 5.67028 5.93506 5.61458 5.97803 5.6142L6.3098 5.61163L6.41475 5.29137C6.42823 5.24988 6.48592 5.24988 6.49951 5.29137Z" fill="#F5F5F5"/>
<path d="M6.49951 6.9669L6.60446 7.28717L6.93623 7.28974C6.9792 7.29012 6.99698 7.34587 6.96244 7.37183L6.69555 7.5724L6.79567 7.89426C6.80867 7.9359 6.76199 7.97044 6.72703 7.94498L6.45713 7.74866L6.18724 7.94498C6.15227 7.97039 6.1057 7.9359 6.11859 7.89426L6.21871 7.5724L5.95182 7.37183C5.91729 7.34592 5.93506 7.29012 5.97803 7.28974L6.3098 7.28717L6.41475 6.9669C6.42823 6.92542 6.48592 6.92542 6.49951 6.9669Z" fill="#F5F5F5"/>
<path d="M6.49951 8.64215L6.60446 8.96242L6.93623 8.96499C6.9792 8.96537 6.99698 9.02106 6.96244 9.04708L6.69555 9.24765L6.79567 9.56951C6.80867 9.61115 6.76199 9.64569 6.72703 9.62022L6.45713 9.42391L6.18724 9.62022C6.15227 9.64564 6.1057 9.61115 6.11859 9.56951L6.21871 9.24765L5.95182 9.04708C5.91729 9.02106 5.93506 8.96537 5.97803 8.96499L6.3098 8.96242L6.41475 8.64215C6.42823 8.60073 6.48592 8.60073 6.49951 8.64215Z" fill="#F5F5F5"/>
<path d="M7.77685 2.76252L7.88181 3.08278L8.21358 3.08535C8.25655 3.08574 8.27433 3.14148 8.23979 3.16744L7.9729 3.36802L8.07302 3.68987C8.08602 3.73152 8.03934 3.76606 8.00437 3.74059L7.73448 3.54427L7.46458 3.74059C7.42961 3.766 7.38305 3.73152 7.39594 3.68987L7.49605 3.36802L7.22916 3.16744C7.19463 3.14143 7.21241 3.08574 7.25538 3.08535L7.58715 3.08278L7.6921 2.76252C7.70563 2.72109 7.76327 2.72109 7.77685 2.76252Z" fill="#F5F5F5"/>
<path d="M7.77685 4.43736L7.88181 4.75763L8.21358 4.7602C8.25655 4.76058 8.27433 4.81633 8.23979 4.84229L7.9729 5.04286L8.07302 5.36472C8.08602 5.40636 8.03934 5.4409 8.00437 5.41543L7.73448 5.21912L7.46458 5.41543C7.42961 5.44085 7.38305 5.40642 7.39594 5.36472L7.49605 5.04286L7.22916 4.84229C7.19463 4.81638 7.21241 4.76058 7.25538 4.7602L7.58715 4.75763L7.6921 4.43736C7.70563 4.39588 7.76327 4.39588 7.77685 4.43736Z" fill="#F5F5F5"/>
<path d="M7.77685 6.11314L7.88181 6.43341L8.21358 6.43598C8.25655 6.43636 8.27433 6.49205 8.23979 6.51807L7.9729 6.71865L8.07302 7.0405C8.08602 7.08214 8.03934 7.11668 8.00437 7.09122L7.73448 6.8949L7.46458 7.09122C7.42961 7.11663 7.38305 7.08214 7.39594 7.0405L7.49605 6.71865L7.22916 6.51807C7.19463 6.49205 7.21241 6.43636 7.25538 6.43598L7.58715 6.43341L7.6921 6.11314C7.70563 6.07166 7.76327 6.07166 7.77685 6.11314Z" fill="#F5F5F5"/>
<path d="M7.77685 7.78791L7.88181 8.10817L8.21358 8.11074C8.25655 8.11112 8.27433 8.16682 8.23979 8.19283L7.9729 8.39341L8.07302 8.71526C8.08602 8.7569 8.03934 8.79144 8.00437 8.76598L7.73448 8.56966L7.46458 8.76598C7.42961 8.79144 7.38305 8.7569 7.39594 8.71526L7.49605 8.39341L7.22916 8.19283C7.19463 8.16682 7.21241 8.11112 7.25538 8.11074L7.58715 8.10817L7.6921 7.78791C7.70563 7.74648 7.76327 7.74648 7.77685 7.78791Z" fill="#F5F5F5"/>
<path d="M9.05518 1.94078L9.16013 2.26105L9.4919 2.26362C9.53487 2.264 9.55265 2.31974 9.51811 2.3457L9.25122 2.54623L9.35134 2.86808C9.36434 2.90972 9.31766 2.94427 9.28269 2.9188L9.0128 2.72248L8.7429 2.9188C8.70793 2.94427 8.66137 2.90972 8.67426 2.86808L8.77437 2.54623L8.50748 2.3457C8.47295 2.31969 8.49073 2.26394 8.5337 2.26362L8.86547 2.26105L8.97042 1.94078C8.98395 1.8993 9.04153 1.8993 9.05518 1.94078Z" fill="#F5F5F5"/>
<path d="M9.05518 3.61621L9.16013 3.93648L9.4919 3.93905C9.53487 3.93943 9.55265 3.99512 9.51811 4.02114L9.25122 4.22172L9.35134 4.54357C9.36434 4.58521 9.31766 4.61975 9.28269 4.59429L9.0128 4.39797L8.7429 4.59429C8.70793 4.6197 8.66137 4.58521 8.67426 4.54357L8.77437 4.22172L8.50748 4.02114C8.47295 3.99512 8.49073 3.93943 8.5337 3.93905L8.86547 3.93648L8.97042 3.61621C8.98395 3.57479 9.04153 3.57479 9.05518 3.61621Z" fill="#F5F5F5"/>
<path d="M9.05518 5.29137L9.16013 5.61163L9.4919 5.6142C9.53487 5.61458 9.55265 5.67028 9.51811 5.69629L9.25122 5.89687L9.35134 6.21872C9.36434 6.26037 9.31766 6.29491 9.28269 6.26944L9.0128 6.07312L8.7429 6.26944C8.70793 6.29485 8.66137 6.26042 8.67426 6.21872L8.77437 5.89687L8.50748 5.69629C8.47295 5.67028 8.49073 5.61458 8.5337 5.6142L8.86547 5.61163L8.97042 5.29137C8.98395 5.24988 9.04153 5.24988 9.05518 5.29137Z" fill="#F5F5F5"/>
<path d="M9.05518 6.9669L9.16013 7.28717L9.4919 7.28974C9.53487 7.29012 9.55265 7.34587 9.51811 7.37183L9.25122 7.5724L9.35134 7.89426C9.36434 7.9359 9.31766 7.97044 9.28269 7.94498L9.0128 7.74866L8.7429 7.94498C8.70793 7.97039 8.66137 7.9359 8.67426 7.89426L8.77437 7.5724L8.50748 7.37183C8.47295 7.34592 8.49073 7.29012 8.5337 7.28974L8.86547 7.28717L8.97042 6.9669C8.98395 6.92542 9.04153 6.92542 9.05518 6.9669Z" fill="#F5F5F5"/>
<path d="M9.05518 8.64215L9.16013 8.96242L9.4919 8.96499C9.53487 8.96537 9.55265 9.02106 9.51811 9.04708L9.25122 9.24765L9.35134 9.56951C9.36434 9.61115 9.31766 9.64569 9.28269 9.62022L9.0128 9.42391L8.7429 9.62022C8.70793 9.64564 8.66137 9.61115 8.67426 9.56951L8.77437 9.24765L8.50748 9.04708C8.47295 9.02106 8.49073 8.96537 8.5337 8.96499L8.86547 8.96242L8.97042 8.64215C8.98395 8.60073 9.04153 8.60073 9.05518 8.64215Z" fill="#F5F5F5"/>
</g>
</svg>
