<svg width="20" height="20" viewBox="0 0 20 20" fill="none" xmlns="http://www.w3.org/2000/svg">
<mask id="mask0_644_35763" style="mask-type:alpha" maskUnits="userSpaceOnUse" x="0" y="0" width="20" height="20">
<rect x="0.833008" y="0.833374" width="18.3333" height="18.3333" rx="9.16667" fill="#C4C4C4"/>
</mask>
<g mask="url(#mask0_644_35763)">
<path d="M17.3552 0.833374H2.64258V19.1666H17.3552V0.833374Z" fill="#F5F5F5"/>
<path d="M-1.33684 0.833374C-2.43986 0.833374 -3.33398 1.7716 -3.33398 2.92903V17.0709C-3.33398 18.2283 -2.43986 19.1666 -1.33684 19.1666H2.64308V0.833374H-1.33684Z" fill="#FF4B55"/>
<path d="M21.3354 0.833374H17.3555V19.1665H21.3354C22.4384 19.1665 23.3325 18.2283 23.3325 17.0709V2.92903C23.3325 1.7716 22.4384 0.833374 21.3354 0.833374Z" fill="#FF4B55"/>
<path d="M12.7886 12.1183L15.5169 10.4824L14.8909 10.1539C14.7153 10.0618 14.6148 9.86286 14.6408 9.65862L14.8445 8.05609L13.6894 8.40871C13.4342 8.48665 13.1695 8.32192 13.1121 8.0497L13.0014 7.52503L11.9169 8.85692C11.7666 9.04154 11.4801 8.90053 11.5193 8.66121L11.9825 5.83522L11.2734 6.0387C11.0663 6.09816 10.8475 5.99924 10.7465 5.80041L9.9998 4.33184V4.32965L9.99928 4.33074L9.99871 4.32965V4.33184L9.25199 5.80041C9.15089 5.99918 8.93214 6.0981 8.72501 6.0387L8.01589 5.83522L8.47907 8.66121C8.51829 8.90048 8.23183 9.04154 8.08146 8.85698L6.99693 7.52509L6.8863 8.04975C6.8289 8.32203 6.56411 8.48665 6.30895 8.40877L5.1539 8.05615L5.35759 9.65868C5.38358 9.86286 5.28306 10.0619 5.10749 10.154L4.48145 10.4824L7.20974 12.1183C7.49234 12.2878 7.6162 12.6472 7.50219 12.9671L7.26896 13.6217L9.60673 13.4122C9.73611 13.4006 9.84621 13.5099 9.84241 13.6461L9.76876 16.2718H10.2286L10.1548 13.646C10.151 13.5098 10.2611 13.4005 10.3905 13.4121L12.7293 13.6217L12.4961 12.9671C12.3822 12.6471 12.506 12.2877 12.7886 12.1183Z" fill="#FF4B55"/>
</g>
</svg>
