<svg width="69" height="16" viewBox="0 0 69 16" fill="none" xmlns="http://www.w3.org/2000/svg">
<path d="M67.0357 11.5613C66.7765 11.5623 66.52 11.6146 66.281 11.7153C66.0419 11.8159 65.8249 11.963 65.6425 12.1479C65.46 12.3329 65.3157 12.5523 65.2177 12.7934C65.1198 13.0344 65.0701 13.2926 65.0715 13.553C65.0701 13.8134 65.1198 14.0715 65.2177 14.3126C65.3157 14.5537 65.46 14.773 65.6425 14.958C65.8249 15.143 66.0419 15.29 66.281 15.3907C66.52 15.4914 66.7765 15.5437 67.0357 15.5447C68.1192 15.5447 69 14.6525 69 13.553C69.0014 13.2926 68.9517 13.0344 68.8538 12.7934C68.7558 12.5523 68.6115 12.3329 68.429 12.1479C68.2466 11.963 68.0296 11.8159 67.7905 11.7153C67.5515 11.6146 67.295 11.5623 67.0357 11.5613V11.5613ZM60.5719 10.0231C60.5719 8.51643 59.3023 7.29662 57.7361 7.29662C56.1699 7.29662 54.9004 8.51828 54.9004 10.0231C54.9004 11.528 56.1718 12.7478 57.738 12.7478C59.3042 12.7478 60.5719 11.528 60.5719 10.0231V10.0231ZM60.583 4.72374H63.7117V15.3207H60.583V14.6432C59.6708 15.2757 58.5884 15.6141 57.48 15.6131C54.4342 15.6131 51.9651 13.1106 51.9651 10.0231C51.9651 6.93568 54.4342 4.43313 57.48 4.43313C58.6316 4.43313 59.6985 4.79037 60.583 5.40305V4.72374ZM35.5383 6.10458V4.72559H32.334V15.3207H35.5457V10.373C35.5457 8.70338 37.3293 7.8075 38.5675 7.8075H38.6044V4.72559C37.333 4.72559 36.1666 5.27719 35.5383 6.10458V6.10458ZM27.5561 10.0231C27.5561 8.51643 26.2866 7.29662 24.7204 7.29662C23.1542 7.29662 21.8846 8.51828 21.8846 10.0231C21.8846 11.528 23.156 12.7478 24.7222 12.7478C26.2884 12.7478 27.5561 11.528 27.5561 10.0231V10.0231ZM27.5672 4.72374H30.6978V15.3207H27.5672V14.6432C26.6827 15.254 25.6159 15.6131 24.4642 15.6131C21.4184 15.6131 18.9493 13.1106 18.9493 10.0231C18.9493 6.93568 21.4184 4.43313 24.4642 4.43313C25.6159 4.43313 26.6827 4.79037 27.5672 5.40305V4.72374ZM46.4041 4.44054C45.1548 4.44054 43.9719 4.83295 43.1796 5.91763V4.72559H40.0637V15.3207H43.2183V9.75289C43.2183 8.14252 44.2833 7.35215 45.5676 7.35215C46.9422 7.35215 47.7345 8.1851 47.7345 9.73068V15.3207H50.8595V8.58306C50.8595 6.11754 48.9248 4.44054 46.4041 4.44054V4.44054ZM14.3907 15.3207H17.6669V0.00370349H14.3907V15.3207ZM0 15.3244H3.46962V0H0.00184247L0 15.3244ZM12.1354 0C12.1354 3.31698 10.8603 6.40444 8.58653 8.69782L13.381 15.3244H9.09693L3.88789 8.12401L5.23299 7.10227C6.32801 6.27495 7.21522 5.20183 7.82374 3.96864C8.43226 2.73544 8.74523 1.37637 8.73762 0H12.1317H12.1354Z" fill="black"/>
</svg>
