<svg xmlns="http://www.w3.org/2000/svg" width="100%" height="100%" viewBox="0 0 13 17" fill="none" id="lock">
  <path d="M2 17C1.5875 17 1.23425 16.8413 0.940251 16.524C0.646251 16.2067 0.499501 15.8257 0.500001 15.381V7.28571C0.500001 6.84048 0.647001 6.45919 0.941001 6.14186C1.235 5.82452 1.588 5.66613 2 5.66667H2.75V4.04762C2.75 2.92778 3.11575 1.97308 3.84725 1.18352C4.57875 0.393969 5.463 -0.00053913 6.5 5.52954e-07C7.5375 5.52954e-07 8.422 0.394778 9.1535 1.18433C9.885 1.97389 10.2505 2.92832 10.25 4.04762V5.66667H11C11.4125 5.66667 11.7657 5.82533 12.0597 6.14267C12.3537 6.46 12.5005 6.84102 12.5 7.28571V15.381C12.5 15.8262 12.353 16.2075 12.059 16.5248C11.765 16.8421 11.412 17.0005 11 17H2ZM2 15.381H11V7.28571H2V15.381ZM6.5 12.9524C6.9125 12.9524 7.26575 12.7937 7.55975 12.4764C7.85375 12.159 8.0005 11.778 8 11.3333C8 10.8881 7.853 10.5068 7.559 10.1895C7.265 9.87214 6.912 9.71375 6.5 9.71429C6.0875 9.71429 5.73425 9.87295 5.44025 10.1903C5.14625 10.5076 4.9995 10.8886 5 11.3333C5 11.7786 5.147 12.1599 5.441 12.4772C5.735 12.7945 6.088 12.9529 6.5 12.9524ZM4.25 5.66667H8.75V4.04762C8.75 3.37302 8.53125 2.7996 8.09375 2.32738C7.65625 1.85516 7.125 1.61905 6.5 1.61905C5.875 1.61905 5.34375 1.85516 4.90625 2.32738C4.46875 2.7996 4.25 3.37302 4.25 4.04762V5.66667Z" fill="black"/>
</svg>