<svg width="1714" height="202" viewBox="0 0 1714 202" fill="currentColor" xmlns="http://www.w3.org/2000/svg">
    <path
        d="M1618.55 110.65V105.2L1635.05 83H1643.55L1627.4 105.2L1623.45 104.05H1651V110.65H1618.55ZM1637.4 118V110.65L1637.65 104.05V97.5H1645.3V118H1637.4ZM1659 118.4C1657.67 118.4 1656.52 117.95 1655.55 117.05C1654.62 116.117 1654.15 114.933 1654.15 113.5C1654.15 112.067 1654.62 110.917 1655.55 110.05C1656.52 109.15 1657.67 108.7 1659 108.7C1660.37 108.7 1661.52 109.15 1662.45 110.05C1663.38 110.917 1663.85 112.067 1663.85 113.5C1663.85 114.933 1663.38 116.117 1662.45 117.05C1661.52 117.95 1660.37 118.4 1659 118.4ZM1682.5 118.6C1679.3 118.6 1676.52 117.933 1674.15 116.6C1671.82 115.267 1670.02 113.317 1668.75 110.75C1667.48 108.183 1666.85 105.017 1666.85 101.25C1666.85 97.2167 1667.6 93.8 1669.1 91C1670.63 88.2 1672.73 86.0667 1675.4 84.6C1678.1 83.1333 1681.2 82.4 1684.7 82.4C1686.57 82.4 1688.35 82.6 1690.05 83C1691.75 83.4 1693.22 84 1694.45 84.8L1691.45 90.75C1690.48 90.0833 1689.45 89.6333 1688.35 89.4C1687.25 89.1333 1686.1 89 1684.9 89C1681.87 89 1679.47 89.9167 1677.7 91.75C1675.93 93.5833 1675.05 96.3 1675.05 99.9C1675.05 100.5 1675.05 101.167 1675.05 101.9C1675.08 102.633 1675.18 103.367 1675.35 104.1L1673.1 102C1673.73 100.7 1674.55 99.6167 1675.55 98.75C1676.55 97.85 1677.73 97.1833 1679.1 96.75C1680.5 96.2833 1682.03 96.05 1683.7 96.05C1685.97 96.05 1688 96.5 1689.8 97.4C1691.6 98.3 1693.03 99.5667 1694.1 101.2C1695.2 102.833 1695.75 104.75 1695.75 106.95C1695.75 109.317 1695.15 111.383 1693.95 113.15C1692.78 114.883 1691.2 116.233 1689.2 117.2C1687.23 118.133 1685 118.6 1682.5 118.6ZM1682.05 112.55C1683.18 112.55 1684.18 112.35 1685.05 111.95C1685.95 111.517 1686.65 110.9 1687.15 110.1C1687.65 109.3 1687.9 108.383 1687.9 107.35C1687.9 105.75 1687.35 104.483 1686.25 103.55C1685.18 102.583 1683.75 102.1 1681.95 102.1C1680.75 102.1 1679.7 102.333 1678.8 102.8C1677.9 103.233 1677.18 103.85 1676.65 104.65C1676.15 105.417 1675.9 106.317 1675.9 107.35C1675.9 108.35 1676.15 109.25 1676.65 110.05C1677.15 110.817 1677.85 111.433 1678.75 111.9C1679.65 112.333 1680.75 112.55 1682.05 112.55Z"
        fill="#292929" />
    <rect x="1015" y="33" width="557" height="132" rx="4" fill="#808080" />
    <rect x="1015" y="33" width="503" height="132" rx="4" fill="#6CE8B5" />
    <path
        d="M1095.49 50.2212L1108.08 83.8979L1144 85.4674L1115.86 107.85L1125.47 142.497L1095.49 122.654L1065.5 142.497L1075.11 107.85L1046.97 85.4674L1082.89 83.8979L1095.49 50.2212Z"
        fill="#F6F4F5" />
    <path
        d="M1299.52 50.2212L1312.11 83.8979L1348.03 85.4674L1319.9 107.85L1329.5 142.497L1299.52 122.654L1269.54 142.497L1279.15 107.85L1251.01 85.4674L1286.93 83.8979L1299.52 50.2212Z"
        fill="#F6F4F5" />
    <path
        d="M1197.5 50.2212L1210.1 83.8979L1246.02 85.4674L1217.88 107.85L1227.49 142.497L1197.5 122.654L1167.52 142.497L1177.13 107.85L1148.99 85.4674L1184.91 83.8979L1197.5 50.2212Z"
        fill="#F6F4F5" />
    <path
        d="M1401.54 50.2212L1414.13 83.8979L1450.05 85.4674L1421.92 107.85L1431.52 142.497L1401.54 122.654L1371.56 142.497L1381.16 107.85L1353.03 85.4674L1388.95 83.8979L1401.54 50.2212Z"
        fill="#F6F4F5" />
    <path
        d="M1503.56 50.2212L1516.15 83.8979L1552.07 85.4674L1523.93 107.85L1533.54 142.497L1503.56 122.654L1473.58 142.497L1483.18 107.85L1455.05 85.4674L1490.96 83.8979L1503.56 50.2212Z"
        fill="#F6F4F5" />
    <g clip-path="url(#clip0_303_43)">
        <path
            d="M406.015 32.7563H428.463V114.248L465.43 73.5024H494.098L450.348 119.147L495.808 166.678H466.577L428.483 124.61V166.678H406.034V32.7563H406.015Z"
            fill="black" />
        <path
            d="M498.607 119.147C498.607 90.2986 519.345 69.1675 548.771 69.1675C578.197 69.1675 598.566 90.3181 598.566 119.147V127.215H522.183C525.195 141.056 535.574 148.366 548.771 148.366C558.761 148.366 566.127 145.489 570.831 139.326H594.776C587.798 157.405 570.831 169.127 548.752 169.127C519.326 169.127 498.588 147.977 498.588 119.147H498.607ZM574.796 108.961C571.219 96.2667 561.035 89.9293 548.771 89.9293C536.507 89.9293 526.323 96.4611 522.746 108.961H574.796Z"
            fill="black" />
        <path
            d="M613.279 120.158C613.279 89.0346 631.762 71.0527 659.303 71.0527C686.843 71.0527 705.327 88.8402 705.327 120.158V166.697H682.878V120.158C682.878 102.429 673.452 91.9895 659.303 91.9895C645.153 91.9895 635.727 102.429 635.727 120.158V166.697H613.279V120.158Z"
            fill="black" />
        <path
            d="M797.53 32.7563V120.1C797.53 136.507 786.588 148.21 770.184 148.21C753.78 148.21 742.643 136.507 742.643 120.1C742.643 105.248 753.78 93.02 770.184 93.02C777.181 93.02 783.148 95.1584 787.735 98.8715V78.1291C781.787 74.1828 774.518 72.1027 766.413 72.1027C743.79 72.1027 720.02 87.3047 720.02 119.186C720.02 148.793 740.758 169.186 770.378 169.186C799.999 169.186 819.979 149.571 819.979 119.381V32.7563H797.53Z"
            fill="black" />
        <path
            d="M884.836 68.8755C855.41 68.8755 834.672 90.1039 834.672 119.05C834.672 147.996 855.41 169.224 884.836 169.224C914.262 169.224 935 147.996 935 119.05C935 90.1039 914.262 68.8755 884.836 68.8755ZM884.836 148.093C868.802 148.093 855.799 135.088 855.799 119.05C855.799 103.012 868.802 90.0067 884.836 90.0067C900.871 90.0067 913.873 103.012 913.873 119.05C913.873 135.088 900.871 148.093 884.836 148.093Z"
            fill="black" />
        <path
            d="M323.49 37.9077C285.007 37.9077 257.855 65.7068 257.855 103.556C257.855 141.406 285.007 169.205 323.49 169.205C361.973 169.205 389.125 141.406 389.125 103.556C389.125 65.7068 361.973 37.9077 323.49 37.9077ZM323.49 146.596C299.72 146.596 280.459 127.331 280.459 103.556C280.459 79.7813 299.72 60.5163 323.49 60.5163C347.26 60.5163 366.521 79.7813 366.521 103.556C366.521 127.331 347.26 146.596 323.49 146.596Z"
            fill="black" />
        <path d="M201.958 0H0V202H201.958V0Z" fill="#00EAB6" />
        <path
            d="M100.969 22.2783C87.228 22.2783 74.3226 25.8164 63.0887 31.9983C63.0887 31.9983 100.891 31.9983 100.969 31.9983C139.005 31.9983 169.966 62.9466 169.966 101.01C169.966 139.073 139.025 170.022 100.969 170.022C62.9138 170.022 31.972 139.073 31.972 101.01C31.972 94.2059 32.9826 87.6158 34.829 81.4145H24.7224C23.1092 87.6741 22.254 94.2448 22.254 101.01C22.254 144.478 57.4912 179.742 100.969 179.742C144.447 179.742 179.684 144.497 179.684 101.01C179.684 57.5229 144.447 22.2783 100.969 22.2783Z"
            fill="black" />
        <path
            d="M48.7645 42.1265C45.4216 45.1008 42.3118 48.3472 39.5131 51.8464H100.969C128.063 51.8464 150.103 73.8913 150.103 100.99C150.103 128.09 128.063 150.135 100.969 150.135C73.8756 150.135 51.8354 128.09 51.8354 100.99C51.8354 94.031 53.2931 87.402 55.9169 81.3951H45.4799C43.303 87.5186 42.1175 94.1282 42.1175 100.99C42.1175 133.513 68.4725 159.855 100.969 159.855C133.466 159.855 159.821 133.494 159.821 100.99C159.821 68.487 133.466 42.1265 100.969 42.1265H48.7645Z"
            fill="black" />
        <path
            d="M100.969 71.4807C117.237 71.4807 130.473 84.7193 130.473 100.99C130.473 117.262 117.237 130.5 100.969 130.5C84.7014 130.5 71.4656 117.262 71.4656 100.99C71.4656 93.4672 74.3227 86.6049 78.9678 81.395H67.0148C63.6718 87.1687 61.7282 93.856 61.7282 100.99C61.7282 122.666 79.2982 140.22 100.95 140.22C122.601 140.22 140.171 122.647 140.171 100.99C140.171 79.3344 122.601 61.7607 100.95 61.7607H32.7688C30.9807 64.8711 29.387 68.1176 28.0265 71.4807H100.969Z"
            fill="black" />
    </g>
    <defs>
        <clipPath id="clip0_303_43">
            <rect width="935" height="202" fill="white" />
        </clipPath>
    </defs>
</svg>