<svg width="24" height="24" viewBox="0 0 24 24" fill="none" xmlns="http://www.w3.org/2000/svg">
<g clip-path="url(#clip0_462_610)">
<path d="M12 24C18.6274 24 24 18.6274 24 12C24 5.37258 18.6274 0 12 0C5.37258 0 0 5.37258 0 12C0 18.6274 5.37258 24 12 24Z" fill="#F0F0F0"/>
<path d="M0 12C0 5.37262 5.37262 0 12 0C18.6274 0 24 5.37262 24 12" fill="#D80027"/>
<path d="M7.30402 6.26095C7.30402 4.51261 8.53275 3.05208 10.1736 2.69372C9.92138 2.63869 9.65977 2.60883 9.39094 2.60883C7.37386 2.60883 5.73877 4.24392 5.73877 6.261C5.73877 8.27808 7.37386 9.91317 9.39094 9.91317C9.65967 9.91317 9.92133 9.88331 10.1736 9.82823C8.53275 9.46987 7.30402 8.00934 7.30402 6.26095Z" fill="#F0F0F0"/>
<path d="M11.9997 2.86996L12.2588 3.66707H13.097L12.4188 4.15978L12.6778 4.95689L11.9997 4.46428L11.3217 4.95689L11.5807 4.15978L10.9026 3.66707H11.7407L11.9997 2.86996Z" fill="#F0F0F0"/>
<path d="M9.96663 4.43463L10.2256 5.23179H11.0638L10.3857 5.72444L10.6447 6.52155L9.96663 6.02894L9.28845 6.52155L9.54752 5.72444L8.86938 5.23179H9.70756L9.96663 4.43463Z" fill="#F0F0F0"/>
<path d="M14.033 4.43463L14.292 5.23179H15.1302L14.452 5.72444L14.7111 6.52155L14.033 6.02894L13.3549 6.52155L13.6139 5.72444L12.9358 5.23179H13.7739L14.033 4.43463Z" fill="#F0F0F0"/>
<path d="M13.2507 6.78333L13.5097 7.58048H14.3479L13.6698 8.07314L13.9288 8.87025L13.2507 8.37764L12.5726 8.87025L12.8317 8.07314L12.1536 7.58048H12.9916L13.2507 6.78333Z" fill="#F0F0F0"/>
<path d="M10.7491 6.78333L11.008 7.58048H11.8463L11.1681 8.07314L11.4272 8.87025L10.7491 8.37764L10.0709 8.87025L10.3299 8.07314L9.65186 7.58048H10.49L10.7491 6.78333Z" fill="#F0F0F0"/>
</g>
<defs>
<clipPath id="clip0_462_610">
<rect width="24" height="24" fill="white"/>
</clipPath>
</defs>
</svg>
