<svg xmlns="http://www.w3.org/2000/svg" width="100%" height="100%" viewBox="0 0 41 45" testId="" id="atom">
  <title>Atom</title>
  <path
    d="M0.952965 34.0575C1.88598 29.8865 4.44676 26.5707 7.17857 23.3479C8.06558 22.301 8.0691 22.3145 7.1644 21.2765C4.94097 18.7259 2.93576 16.0429 1.65242 12.929C1.53447 12.6519 1.44364 12.368 1.354 12.0818C1.26435 11.7957 1.37877 11.5578 1.67955 11.4557C1.98033 11.3536 2.22569 11.4826 2.34601 11.7587C2.50996 12.1368 2.63379 12.5318 2.80011 12.91C4.08227 15.8376 6.03323 18.3545 8.14342 20.7715C8.80042 21.5245 8.80986 21.5133 9.50697 20.8187C9.89848 20.4012 10.3118 20.0027 10.7455 19.6247C11.189 19.2645 11.347 18.8247 11.3753 18.3018C11.5451 15.3412 12.0593 12.4076 12.9087 9.55482C13.0515 9.06445 12.963 8.81759 12.4558 8.61336C10.486 7.81665 8.50791 7.06259 6.35643 6.82919C5.61768 6.73402 4.86696 6.76594 4.14008 6.92345C3.03367 7.1849 2.3224 7.82114 2.06526 8.90287C1.88715 9.64908 1.53683 9.73773 0.948242 9.20921V8.87257C1.48847 6.38371 3.53378 5.7542 5.57084 5.78898C8.13633 5.83387 10.4801 6.66424 12.779 7.6315C13.3192 7.85593 13.4997 7.77065 13.6908 7.25784C14.2211 5.79168 14.9665 4.40413 15.9048 3.13629C16.9156 1.79647 18.1459 0.752901 19.8869 0.363525H21.0664C22.8971 0.771977 24.1615 1.90083 25.1948 3.31807C26.0876 4.56913 26.8016 5.92758 27.318 7.35771C27.4772 7.78523 27.6506 7.85481 28.0776 7.65619C28.977 7.24079 29.9069 6.88826 30.8601 6.6014C32.6766 6.04931 34.5072 5.61169 36.4488 5.80806C38.3584 6.00106 39.6335 7.0783 39.9626 8.87369C40.1608 9.95093 39.9555 11.0001 39.5993 12.0156C38.3018 15.6872 36.1032 18.8314 33.2959 21.6098C32.7462 22.154 32.7403 22.1506 33.2499 22.7083C34.6479 24.2214 35.9216 25.8346 37.0598 27.5334C38.4127 29.5791 39.5934 31.6931 39.9874 34.1315C40.3813 36.5699 39.1039 38.3608 36.6434 38.7423C35.8077 38.8583 34.9586 38.8552 34.1239 38.7333C32.0066 38.4562 30.0203 37.7762 28.0941 36.9256C27.6848 36.7449 27.4796 36.782 27.318 37.2241C26.8676 38.4784 26.266 39.6789 25.5251 40.8014C24.7949 41.8977 23.9504 42.8986 22.7661 43.5854C21.2528 44.4618 19.7277 44.4651 18.2108 43.5932C17.508 43.1803 16.8848 42.6558 16.3683 42.0425C15.131 40.6118 14.3053 38.9667 13.6424 37.242C13.4784 36.8134 13.3074 36.764 12.8804 36.9458C10.6735 37.8895 8.41001 38.6222 5.97308 38.8534C3.50431 39.0778 1.73972 38.0769 0.955326 35.854L0.952965 34.0575ZM12.3225 24.2737C12.3437 24.9066 12.6033 25.3274 13.0786 25.7504C15.2834 27.7095 17.6126 29.5379 20.0532 31.2252C20.3221 31.4104 20.5392 31.4721 20.8388 31.2634C23.3854 29.4893 25.866 27.6468 28.0245 25.4283C28.5353 24.9032 28.639 24.3298 28.6544 23.7003C28.7063 22.3963 28.6791 21.0906 28.573 19.7897C28.5594 19.5853 28.4625 19.3941 28.3029 19.2567C25.9795 17.1452 23.5091 15.1853 20.9084 13.3902C20.5793 13.1658 20.3469 13.1793 20.0261 13.4003C17.44 15.1826 14.9815 17.1267 12.667 19.2196C12.5749 19.3016 12.5012 19.4004 12.4504 19.5101C12.3995 19.6199 12.3725 19.7382 12.3709 19.8581C12.3166 20.6773 12.2459 21.4942 12.2812 22.3156C12.306 22.9709 12.3001 23.6229 12.3225 24.2737ZM36.9996 29.4354C35.7198 27.2417 34.1133 25.2668 32.4171 23.3547C32.1187 23.018 31.8993 22.9765 31.5844 23.3277C31.246 23.7151 30.8761 24.0764 30.478 24.4083C29.8339 24.9312 29.6039 25.5843 29.565 26.3687C29.4067 29.293 28.897 32.1905 28.0457 35.0045C27.8853 35.5465 27.9891 35.8024 28.54 36.0245C30.511 36.8201 32.4961 37.5484 34.6429 37.7874C35.4399 37.8944 36.2518 37.8386 37.0244 37.6236C38.382 37.2174 38.9647 36.3612 38.9341 34.8328C38.8621 32.8456 37.981 31.1175 36.9996 29.4343V29.4354ZM5.18395 37.8244C6.53098 37.8682 7.82611 37.5753 9.10473 37.2129C10.301 36.8578 11.4699 36.4244 12.6033 35.9157C12.8687 35.8035 13.0751 35.6913 12.9713 35.3356C12.0276 32.2284 11.5299 29.0517 11.2916 25.8278C11.281 25.6221 11.1891 25.4277 11.0345 25.2836C10.3869 24.6608 9.73696 24.038 9.10709 23.4029C8.89006 23.1863 8.72493 23.1269 8.49256 23.3895C6.17713 26.0074 4.03155 28.7307 2.68806 31.9445C2.29645 32.8815 1.9992 33.8521 2.02515 34.7857C1.98386 36.7326 3.07258 37.7548 5.18395 37.8233V37.8244ZM35.8154 6.78655C34.4672 6.74278 33.1708 7.01883 31.8922 7.38352C30.6778 7.74526 29.4904 8.18463 28.3383 8.69864C28.028 8.83217 27.8853 8.97917 27.995 9.33937C28.9186 12.3691 29.4105 15.4796 29.6464 18.6249C29.652 18.7816 29.6899 18.9356 29.7581 19.0783C29.8264 19.221 29.9234 19.3495 30.0439 19.4564C30.6045 19.9801 31.1507 20.5142 31.6823 21.0588C31.9312 21.3124 32.1045 21.3651 32.39 21.0824C34.985 18.515 37.0421 15.6165 38.3974 12.2861C38.7312 11.4669 38.9541 10.6163 38.927 9.80618C38.9376 7.8492 37.8902 6.85163 35.8154 6.78542V6.78655ZM23.4302 41.7474C24.8351 40.2695 25.6713 38.4865 26.3661 36.6327C26.484 36.3129 26.3661 36.1525 26.083 36.0088C24.2961 35.1194 22.5676 34.1275 20.9072 33.0386C20.6088 32.8411 20.3622 32.831 20.0567 33.033C18.4107 34.1079 16.6989 35.0889 14.9305 35.9707C14.6037 36.1345 14.4669 36.3073 14.6096 36.6754C15.3009 38.4708 16.097 40.2056 17.4405 41.6576C18.2509 42.5328 19.2004 43.1915 20.4743 43.2185C21.7282 43.1825 22.647 42.5665 23.4255 41.7462L23.4302 41.7474ZM17.6222 2.76823C16.1513 4.26963 15.2926 6.10542 14.5825 8.01415C14.4858 8.27448 14.5589 8.43831 14.809 8.56286C16.6449 9.48323 18.4231 10.5042 20.1346 11.6206C20.2331 11.6977 20.3568 11.7398 20.4843 11.7398C20.6119 11.7398 20.7355 11.6977 20.8341 11.6206C22.5295 10.5149 24.2929 9.50654 26.1148 8.60102C26.4168 8.44953 26.4687 8.26438 26.3507 7.96028C25.6666 6.14357 24.8492 4.39419 23.4868 2.93318C22.6883 2.07588 21.7494 1.42954 20.571 1.40037C19.2841 1.40934 18.3806 1.98836 17.6175 2.76711L17.6222 2.76823ZM26.1585 28.5894C24.7572 29.6946 23.3535 30.7977 21.8744 31.8076C21.5323 32.041 21.4698 32.1779 21.8744 32.4293C23.3512 33.3449 24.8645 34.1988 26.4097 35.0045C26.7471 35.1796 26.9016 35.1066 26.9995 34.7711C27.6264 32.5994 28.0682 30.3832 28.3206 28.1439C28.3737 27.6378 28.54 27.134 28.3796 26.5314C27.5964 27.2372 26.9405 27.9744 26.1585 28.5894ZM14.9753 15.8825C16.2928 14.7996 17.6552 13.7684 19.0683 12.8011C19.4056 12.5711 19.4823 12.4319 19.0683 12.1795C17.608 11.2818 16.1194 10.4233 14.586 9.63449C14.3277 9.50208 14.0859 9.36855 13.9668 9.78373C13.228 12.3295 12.7392 14.935 12.5065 17.5668C12.5132 17.6779 12.5298 17.7882 12.5561 17.8967C13.4254 17.1774 14.1956 16.5243 14.9776 15.8825H14.9753ZM28.0752 14.6807C27.8172 13.0786 27.4627 11.4919 27.0137 9.92849C26.8957 9.51891 26.7471 9.41568 26.326 9.63898C24.802 10.4447 23.2887 11.2661 21.8437 12.194C21.5984 12.3523 21.4227 12.4667 21.7765 12.7102C23.9778 14.2372 26.083 15.8858 28.0811 17.6476C28.1519 17.7093 28.2357 17.7598 28.435 17.8944C28.409 16.7297 28.2392 15.704 28.0776 14.6807H28.0752ZM13.0019 30.6788C13.2378 32.0253 13.5587 33.346 13.9232 34.6612C14.0281 35.0416 14.1496 35.2222 14.5955 34.9832C16.1383 34.1685 17.6693 33.3393 19.132 32.4023C19.3584 32.2565 19.5224 32.1386 19.198 31.9176C16.9168 30.3646 14.7901 28.6309 12.6988 26.8557C12.6752 26.8355 12.628 26.84 12.5042 26.8153C12.5923 28.1111 12.7585 29.401 13.0019 30.6788ZM9.72753 22.1001C9.57301 22.2561 9.60957 22.393 9.75111 22.5366C10.2147 23.0079 10.6759 23.4826 11.2468 24.0683C11.3022 22.8463 11.0722 21.7714 11.1524 20.6548C10.6782 21.1362 10.2041 21.6199 9.72753 22.1001ZM29.6617 23.6958C30.2668 23.2335 30.6749 22.7678 31.0972 22.3167C31.234 22.1708 31.168 22.0463 31.0512 21.9251C30.6407 21.5032 30.2314 21.0801 29.8233 20.656C29.7101 21.6625 29.841 22.6208 29.6652 23.6958H29.6617Z"
    fill="currentColor" />
</svg>