<svg xmlns="http://www.w3.org/2000/svg" width="100%" height="100%" viewBox="0 0 38 38" fill="none" id="audio">
    <title>Audio</title>
    <path
        d="M28.0514 21.7008L31.1343 18.6179M31.1343 18.6179L34.2173 15.5349M31.1343 18.6179L28.0514 15.5349M31.1343 18.6179L34.2173 21.7008"
        stroke="white" stroke-width="2.3122" stroke-linecap="round" stroke-linejoin="round" />
    <path
        d="M3.38733 21.4796V15.7546C3.38733 14.937 3.71214 14.1528 4.2903 13.5746C4.86846 12.9965 5.65262 12.6717 6.47027 12.6717H10.9405C11.2419 12.6716 11.5367 12.5832 11.7883 12.4173L21.0372 6.31927C21.2695 6.16624 21.539 6.07896 21.817 6.06669C22.095 6.05441 22.3711 6.11761 22.616 6.24958C22.861 6.38154 23.0657 6.57735 23.2084 6.81623C23.351 7.05511 23.4264 7.32816 23.4264 7.6064V29.6278C23.4264 29.9061 23.351 30.1791 23.2084 30.418C23.0657 30.6569 22.861 30.8527 22.616 30.9847C22.3711 31.1166 22.095 31.1798 21.817 31.1676C21.539 31.1553 21.2695 31.068 21.0372 30.915L11.7883 24.8169C11.5367 24.6511 11.2419 24.5626 10.9405 24.5626H6.47027C5.65262 24.5626 4.86846 24.2378 4.2903 23.6596C3.71214 23.0814 3.38733 22.2973 3.38733 21.4796Z"
        stroke="white" stroke-width="2.3122" />
</svg>