<svg xmlns="http://www.w3.org/2000/svg" width="100%" height="100%" viewBox="0 0 42 48" fill="none" testId="beauty_face"
    id="beauty_face">
    <title>Beauty Face</title>
    <g clip-path="url(#clip0_5269_12890)">
        <path
            d="M20.1522 47.9998C17.3931 47.1773 15.1654 45.4636 13.0575 43.5957C11.7723 42.4475 10.607 41.1794 9.66448 39.7399C9.47597 39.4486 9.32174 39.4829 9.04755 39.6028C7.4367 40.2883 5.62021 39.6028 4.93474 38.0948C4.7805 37.7521 4.76337 37.4265 5.02042 37.1352C5.2432 36.8781 5.55166 36.8781 5.84298 36.9638C6.11717 37.0495 6.21999 37.3065 6.35708 37.5464C6.69982 38.1119 7.19678 38.4033 7.88225 38.3519C8.48204 38.3005 8.91046 38.0263 9.18465 37.495C9.49311 36.8952 9.40742 36.1755 8.94473 35.6614C8.49918 35.1644 7.83084 35.0102 7.19678 35.2501C7.04255 35.3187 6.88832 35.4043 6.73409 35.4729C6.33995 35.6443 6.01435 35.5243 5.80871 35.1816C5.60307 34.8388 5.65448 34.479 5.96294 34.2048C6.21999 33.9649 6.54559 33.8449 6.87119 33.7421C7.1111 33.6735 7.21392 33.5536 7.17965 33.3137C6.83691 30.9659 7.02542 28.6182 7.2482 26.2705C7.26533 26.0306 7.19678 25.842 7.09396 25.6535C6.44277 24.334 5.9458 22.9631 5.77444 21.4722C5.4317 18.5589 6.03149 15.8513 7.57379 13.3665C8.96187 11.1216 10.9497 9.51074 13.1946 8.17407C13.5202 7.98557 13.6745 7.74566 13.7773 7.38578C14.4285 4.781 16.9819 3.08446 19.6381 3.4272C20.7862 3.58143 21.883 3.90703 22.8769 4.4554C25.7901 6.08339 28.6863 7.77993 31.291 9.88775C34.0672 12.1327 35.7809 15.0116 36.1065 18.6103C36.3121 20.7867 36.0379 22.9288 35.0611 24.8995C34.6841 25.6535 34.5299 26.3904 34.6327 27.2301C34.8555 29.0123 34.9069 30.8117 34.7184 32.5939C34.6841 32.9538 34.7698 33.2451 34.9583 33.5536C35.9522 35.1816 35.2325 37.3579 33.4845 38.1291C33.1418 38.2833 32.9362 38.489 32.7477 38.7803C30.28 42.6703 26.9897 45.6007 22.8255 47.5543C22.4656 47.7257 22.0715 47.8285 21.6773 47.9656H20.1864L20.1522 47.9998ZM33.8273 23.7514C33.9986 23.5971 34.0158 23.4258 34.0672 23.2887C34.7013 21.2837 34.7869 19.2615 34.3071 17.2051C33.6388 14.4118 31.9422 12.3212 29.7316 10.6075C27.7095 9.04805 25.4988 7.79707 23.3225 6.47754C22.3285 5.87775 21.3003 5.34651 20.1693 5.08946C18.5413 4.72959 17.0847 4.98664 15.9708 6.32331C14.5999 7.98557 14.9083 10.4361 16.6391 11.9442C18.4213 13.5036 20.4606 14.7032 22.4485 15.9542C23.3396 16.5197 24.2821 17.0166 25.1904 17.565C25.6188 17.8221 25.7387 18.2333 25.5331 18.5932C25.3275 18.9702 24.9333 19.0902 24.4878 18.8845C24.3164 18.7989 24.1622 18.7132 23.9908 18.6103C23.0483 18.062 22.1057 17.4965 21.1804 16.9309C20.9747 16.811 20.8205 16.7424 20.5977 16.9138C18.507 18.439 16.1764 19.5529 13.863 20.6668C12.7834 21.198 11.7209 21.7635 10.7612 22.5004C10.2985 22.8603 9.88725 23.2715 9.66448 23.8199C9.28747 24.8138 8.75623 25.7735 8.73909 26.8874C8.73909 27.3158 8.65341 27.7614 8.61913 28.1898C8.53345 29.8863 8.48204 31.5829 8.70482 33.2794C8.73909 33.605 8.87619 33.7935 9.18465 33.9477C10.6413 34.6846 11.2753 36.3126 10.6927 37.8378C10.5727 38.1805 10.5899 38.4033 10.7955 38.6946C11.9437 40.374 13.3146 41.8306 14.874 43.133C16.2964 44.3154 17.7702 45.3951 19.4838 46.1491C20.4606 46.5946 21.4031 46.5946 22.3628 46.1319C25.9101 44.4183 28.7377 41.8992 31.0168 38.7117C31.2396 38.4033 31.1368 38.2833 30.8283 38.1462C29.3717 37.4608 28.6348 35.9184 29.029 34.4104C29.4745 32.6967 31.0854 31.6857 32.8162 32.0284C33.1761 32.097 33.2789 32.0284 33.2789 31.6514C33.2618 30.7603 33.3303 29.8692 33.2618 28.9781C33.1589 27.5043 33.1418 26.0306 32.5592 24.6082C32.1307 23.5629 31.5652 22.7232 30.6227 22.1062C29.6459 21.455 28.6006 20.9409 27.5552 20.4097C27.0583 20.1527 26.904 19.7585 27.0925 19.3472C27.2982 18.9531 27.6923 18.816 28.1722 19.0388C29.5088 19.6557 30.8112 20.3412 31.9765 21.2323C32.7477 21.8149 33.3303 22.5175 33.6902 23.4086C33.7245 23.5115 33.793 23.5971 33.8444 23.7342L33.8273 23.7514ZM7.9508 23.8028C8.20785 23.3229 8.37922 22.9288 8.602 22.5518C8.82477 22.1748 9.13324 21.8663 9.45883 21.575C10.8469 20.3926 12.4578 19.6214 14.0858 18.8503C15.7823 18.0277 17.4617 17.1709 19.0383 16.1255C19.3639 15.9199 19.381 15.7999 19.0383 15.5771C18.2843 15.0973 17.5645 14.5832 16.8276 14.0691C15.371 13.0409 14.1543 11.8071 13.7259 9.99057C13.6573 9.68211 13.5031 9.69924 13.2803 9.85347C12.9033 10.1105 12.5263 10.3676 12.1664 10.6246C8.65341 13.2294 6.76837 16.5882 7.21392 21.078C7.29961 21.9863 7.52238 22.8774 7.91653 23.8028H7.9508ZM32.165 33.5022C31.2225 33.5022 30.4171 34.2733 30.4171 35.1987C30.4171 36.1241 31.2054 36.9124 32.1479 36.9295C33.0904 36.9295 33.8787 36.1755 33.8958 35.2158C33.913 34.3076 33.1075 33.5022 32.165 33.5022Z"
            fill="#3A3A3A" />
        <path
            d="M20.5128 0C24.8312 0.154231 28.4299 1.78222 31.1375 5.20957C31.9087 6.18636 32.2857 7.35166 32.4913 8.56837C32.5599 9.01392 32.32 9.35666 31.9087 9.44234C31.5145 9.52803 31.1033 9.30525 31.0347 8.87683C30.5035 5.86076 28.3957 4.18136 25.9108 2.82756C24.3343 1.97072 22.6206 1.50803 20.8384 1.4909C17.6509 1.45662 14.3264 2.43342 12.5785 6.16923C12.3214 6.7176 12.1329 7.30025 12.0472 7.90004C11.9615 8.46555 11.6017 8.77401 11.139 8.68833C10.6763 8.60264 10.4364 8.19136 10.5392 7.64298C11.2589 3.77008 14.275 0.822563 18.1993 0.188504C18.5934 0.119957 19.0047 0.0514102 19.3989 0.0171367C19.7759 -0.0171367 20.1529 0.0171367 20.5299 0.0171367L20.5128 0Z"
            fill="#3A3A3A" />
        <path
            d="M38.0767 43.7157C36.3116 43.7157 34.8379 42.2248 34.8379 40.4597C34.8379 38.7117 36.3631 37.2037 38.111 37.2208C39.8761 37.2208 41.367 38.746 41.3498 40.494C41.3498 42.2762 39.859 43.7328 38.0767 43.7328V43.7157ZM38.0939 42.1734C39.0707 42.1734 39.8075 41.4536 39.8075 40.4768C39.8075 39.5 39.0707 38.7632 38.111 38.746C37.1342 38.746 36.3973 39.4829 36.3973 40.4597C36.3973 41.4365 37.1171 42.1734 38.0939 42.1734Z"
            fill="#3A3A3A" />
        <path
            d="M38.4361 35.4731C37.168 35.4731 36.1569 34.4621 36.174 33.2282C36.174 31.9944 37.2022 31.0176 38.4361 31.0176C39.6528 31.0176 40.681 32.0458 40.681 33.2454C40.681 34.4621 39.6699 35.4731 38.4361 35.4731ZM38.4018 32.5599C37.9905 32.5599 37.6992 32.8683 37.7163 33.2796C37.7163 33.6738 38.0419 33.9651 38.4532 33.948C38.8474 33.948 39.1558 33.6224 39.1558 33.2282C39.1558 32.8512 38.8131 32.5599 38.419 32.5599H38.4018Z"
            fill="#3A3A3A" />
        <path
            d="M0.650391 31.0686C0.650391 29.8691 1.66146 28.8066 2.86103 28.7723C4.07774 28.738 5.12308 29.7662 5.15735 31.0172C5.19163 32.1997 4.14629 33.245 2.92958 33.2793C1.74714 33.3307 0.650391 32.2682 0.650391 31.0686ZM2.87817 31.7541C3.28945 31.7541 3.63218 31.4114 3.63218 31.0344C3.63218 30.6574 3.28945 30.3318 2.91244 30.3318C2.5183 30.3318 2.20983 30.6402 2.20983 31.0344C2.20983 31.4456 2.50116 31.7541 2.8953 31.7712L2.87817 31.7541Z"
            fill="#3A3A3A" />
        <path
            d="M12.2865 33.982C10.4871 33.982 9.03052 32.5596 8.99624 30.7774C8.9791 29.0295 10.4529 27.5386 12.2351 27.5386C14.0687 27.5386 15.4911 28.9267 15.4911 30.7431C15.4911 32.5596 14.0859 33.982 12.2694 33.982H12.2865ZM13.9659 30.7774C13.9659 29.8006 13.229 29.0295 12.2865 29.0123C11.3611 29.0123 10.5557 29.8006 10.5385 30.7431C10.5385 31.6857 11.3097 32.474 12.2522 32.5082C13.1776 32.5425 13.9659 31.7542 13.9659 30.7774Z"
            fill="#3A3A3A" />
        <path
            d="M16.3132 37.7008C16.3132 38.9004 15.2678 39.9458 14.0682 39.9458C12.8687 39.9458 11.7891 38.9004 11.7891 37.6837C11.7891 36.467 12.8687 35.4045 14.0682 35.4388C15.2678 35.4559 16.296 36.5013 16.296 37.7008H16.3132ZM14.0682 36.9811C13.6741 36.9811 13.3656 37.2724 13.3485 37.6666C13.3485 38.0779 13.657 38.4206 14.0682 38.4035C14.4453 38.4035 14.7709 38.0607 14.7709 37.6837C14.7709 37.2896 14.4453 36.9811 14.0511 36.9811H14.0682Z"
            fill="#3A3A3A" />
        <path
            d="M20.8894 40.9226C19.9468 40.9397 19.1585 40.6141 18.5073 39.9801C18.1646 39.6373 18.1303 39.2089 18.4217 38.9005C18.713 38.5749 19.1071 38.5577 19.5013 38.8662C20.5466 39.6545 21.2664 39.6545 22.2946 38.8662C22.723 38.5406 23.1171 38.5577 23.4085 38.9005C23.6655 39.2089 23.6312 39.6716 23.2885 39.9972C22.6202 40.6484 21.8147 40.9569 20.8894 40.9226Z"
            fill="#3A3A3A" />
        <path
            d="M20.94 35.199C20.3059 35.199 19.7747 34.9762 19.3291 34.5821C18.9692 34.2736 18.935 33.8795 19.1749 33.5367C19.4319 33.194 19.8603 33.1083 20.2545 33.3996C20.7 33.7252 21.0942 33.7081 21.5397 33.3996C21.9339 33.1254 22.3794 33.194 22.6194 33.5196C22.8764 33.8623 22.8079 34.2736 22.448 34.5992C22.0196 34.9933 21.4883 35.1647 20.94 35.1819V35.199Z"
            fill="#3A3A3A" />
    </g>
    <defs>
        <clipPath id="clip0_5269_12890">
            <rect width="40.6998" height="48" fill="white" transform="translate(0.650391)" />
        </clipPath>
    </defs>
</svg>