<svg xmlns="http://www.w3.org/2000/svg" width="100%" height="100%" testId="">
    <title>bra</title>
    <path
        d="M4.20786 30.6383C4.02369 30.6383 3.82929 30.5669 3.66558 30.4445C3.43026 30.261 3.28701 29.9754 3.28701 29.7103C3.28701 29.2819 3.21539 26.7935 3.04145 26.2734C2.90844 25.8552 2.67311 25.3963 2.33547 24.8864C0.851885 22.6427 0.401693 20.3991 0.841653 17.3702C1.22022 14.8206 2.16153 4.78532 2.33547 2.81703C2.36617 2.48048 2.58103 2.20513 2.89821 2.08274C3.31771 1.92977 3.85998 1.65441 4.24879 1.46064C4.52504 1.31786 4.85245 1.32806 5.11847 1.50143C5.29241 1.61362 5.43565 1.79719 5.49704 2.01136C5.55843 2.22552 5.63006 2.49068 5.71191 2.79663C6.20303 4.61195 7.46152 8.30378 8.70978 10.4964C10.6333 13.8619 14.7055 16.4217 16.0152 16.4217C17.6318 16.4217 21.0798 14.1985 23.1057 10.1701C24.3846 7.63068 25.7659 4.76493 26.3082 2.79663C26.4003 2.46009 26.4719 2.20513 26.5333 1.99096C26.6254 1.6952 26.8607 1.46064 27.1676 1.38925C27.3723 1.33826 27.5871 1.36886 27.7918 1.47084C28.1703 1.66461 28.7126 1.92977 29.1219 2.09294C29.4391 2.21532 29.6539 2.49068 29.6846 2.82723C29.8483 4.78532 30.7896 14.8206 31.158 17.3702C31.5979 20.3991 31.1477 22.6427 29.6642 24.8864C29.4595 25.1924 29.1833 25.7125 29.0298 26.2632C28.8661 26.8139 28.7842 29.3839 28.7842 29.7103C28.7842 29.9754 28.6717 30.2202 28.4568 30.3833C28.2522 30.5465 27.9862 30.5975 27.7304 30.5261C24.2823 29.6083 20.558 29.1901 16.0254 29.2105C11.503 29.2309 7.80939 29.6695 4.41249 30.6077C4.34087 30.6383 4.26925 30.6383 4.20786 30.6383ZM4.64782 1.86858C4.58643 1.86858 4.53527 1.87878 4.48411 1.90937C4.08508 2.11334 3.52234 2.3989 3.08238 2.56207C2.94937 2.61306 2.85728 2.72524 2.84705 2.86802C2.67311 4.82612 1.7318 14.8818 1.35323 17.4518C0.933738 20.3481 1.35323 22.4796 2.7652 24.611C3.12331 25.1516 3.3791 25.6615 3.53257 26.1204C3.74744 26.7833 3.79859 29.4961 3.79859 29.7204C3.79859 29.8326 3.87022 29.9652 3.98276 30.0468C4.07485 30.1182 4.1874 30.1488 4.26925 30.1284C7.70708 29.1799 11.4416 28.7312 16.0152 28.7108C20.5989 28.6904 24.3642 29.1187 27.8532 30.0366C27.9555 30.0672 28.0578 30.0468 28.1396 29.9754C28.2215 29.9142 28.2727 29.8122 28.2727 29.7103C28.2727 29.5471 28.334 26.7935 28.5387 26.1204C28.7126 25.5187 29.0196 24.9374 29.2344 24.6008C30.6464 22.4796 31.0659 20.3379 30.6464 17.4416C30.2781 14.8818 29.3367 4.82612 29.1628 2.85782C29.1526 2.72524 29.0605 2.60286 28.9275 2.55187C28.4978 2.3887 27.935 2.11334 27.5462 1.90937C27.4541 1.85838 27.362 1.84818 27.2802 1.86858C27.1472 1.89917 27.0551 1.99096 27.0142 2.11334C26.9528 2.31731 26.8812 2.57227 26.7891 2.90882C26.2366 4.9281 24.8451 7.81425 23.5559 10.3843C21.4072 14.6472 17.7955 16.9112 16.0049 16.9112C14.5623 16.9214 10.3059 14.3106 8.25958 10.7412C6.99086 8.50775 5.71191 4.76493 5.21056 2.91901C5.12871 2.62326 5.05708 2.3581 4.99569 2.14393C4.965 2.04195 4.91384 1.97056 4.84222 1.91957C4.78083 1.88897 4.71944 1.86858 4.64782 1.86858Z"
        fill="currentColor" stroke="none" strokeWidth="0.5" strokeLinejoin="round" />
</svg>