<svg xmlns="http://www.w3.org/2000/svg" width="100%" height="100%" testId="">
    <title>Bubbles</title>
    <g clipPath="url(#clip0_4068_37884)">
        <path
            d="M24.6424 15.5222C22.8363 15.5203 21.0441 15.8383 19.3489 16.4615C19.3549 16.3266 19.3597 16.1918 19.3597 16.0581C19.3599 14.1436 18.7924 12.2719 17.7289 10.68C16.6654 9.08796 15.1537 7.84708 13.385 7.11425C11.6162 6.38143 9.66991 6.18957 7.79213 6.56293C5.91435 6.93629 4.18946 7.85811 2.83559 9.21181C1.48172 10.5655 0.559677 12.2903 0.186082 14.168C-0.187513 16.0458 0.00412892 17.9921 0.736737 19.7609C1.46934 21.5298 2.71001 23.0416 4.30188 24.1053C5.89374 25.169 7.76529 25.7367 9.67983 25.7367C9.84574 25.7367 10.0104 25.7367 10.1763 25.7236C9.08124 28.796 8.99279 32.1373 9.92379 35.2633C10.8548 38.3894 12.7569 41.1378 15.3545 43.1105C17.9521 45.0831 21.1104 46.1775 24.3716 46.235C27.6328 46.2926 30.8277 45.3103 33.4933 43.4305C36.1589 41.5508 38.1567 38.8711 39.1974 35.7799C40.2381 32.6886 40.2676 29.3463 39.2816 26.2372C38.2956 23.128 36.3452 20.4136 33.7132 18.4871C31.0812 16.5606 27.9041 15.5222 24.6424 15.5222ZM9.68342 24.9024C7.93412 24.9024 6.22413 24.3837 4.76966 23.4118C3.31519 22.4399 2.18158 21.0586 1.51221 19.4424C0.842834 17.8262 0.66775 16.0479 1.00911 14.3322C1.35046 12.6166 2.19293 11.0406 3.42995 9.80379C4.66698 8.56694 6.24301 7.72469 7.95872 7.38356C9.67443 7.04244 11.4528 7.21776 13.0688 7.88734C14.6849 8.55693 16.0661 9.69072 17.0378 11.1453C18.0095 12.5999 18.528 14.31 18.5278 16.0593C18.5278 16.3099 18.5146 16.5618 18.4931 16.8112C14.9107 18.3881 12.0605 21.2664 10.5189 24.8642C10.2372 24.8905 9.95794 24.9024 9.68342 24.9024ZM24.646 45.4031C22.2763 45.4032 19.9426 44.8233 17.8486 43.7142C15.7545 42.605 13.9637 41.0003 12.6323 39.04C11.301 37.0797 10.4695 34.8234 10.2106 32.4679C9.95164 30.1124 10.273 27.7294 11.1467 25.5267C11.2114 25.4554 11.249 25.3638 11.2529 25.2677C12.2685 22.8446 13.9223 20.7425 16.0382 19.1852C18.1541 17.6279 20.6529 16.6737 23.2683 16.4244C25.8837 16.1751 28.5176 16.64 30.8897 17.7695C33.2617 18.899 35.283 20.6508 36.738 22.8383C38.193 25.0258 39.0273 27.5671 39.1521 30.1914C39.2769 32.8156 38.6874 35.4246 37.4464 37.7403C36.2055 40.056 34.3596 41.9917 32.1054 43.3411C29.8512 44.6905 27.2732 45.4032 24.646 45.4031Z"
            fill="currentColor" />
        <path
            d="M24.6423 19.677C21.6723 19.6814 18.8252 20.8633 16.7251 22.9635C14.6251 25.0638 13.4436 27.911 13.4395 30.881C13.4395 30.9918 13.4835 31.0981 13.5618 31.1764C13.6402 31.2547 13.7464 31.2988 13.8572 31.2988C13.968 31.2988 14.0742 31.2547 14.1526 31.1764C14.2309 31.0981 14.2749 30.9918 14.2749 30.881C14.2791 28.1326 15.3726 25.4979 17.3159 23.5543C19.2592 21.6108 21.8939 20.5169 24.6423 20.5125C24.7531 20.5125 24.8593 20.4685 24.9377 20.3901C25.016 20.3118 25.06 20.2055 25.06 20.0948C25.06 19.984 25.016 19.8777 24.9377 19.7994C24.8593 19.721 24.7531 19.677 24.6423 19.677Z"
            fill="currentColor" />
        <path
            d="M9.68333 9.90405C8.05156 9.90595 6.48719 10.5551 5.33346 11.709C4.17973 12.863 3.53088 14.4275 3.5293 16.0593C3.5293 16.1701 3.57331 16.2763 3.65165 16.3547C3.73 16.433 3.83625 16.477 3.94705 16.477C4.05784 16.477 4.16409 16.433 4.24244 16.3547C4.32078 16.2763 4.36479 16.1701 4.36479 16.0593C4.36606 14.649 4.92678 13.2968 5.92389 12.2995C6.921 11.3021 8.27305 10.7411 9.68333 10.7395C9.79413 10.7395 9.90038 10.6955 9.97872 10.6172C10.0571 10.5389 10.1011 10.4326 10.1011 10.3218C10.1011 10.211 10.0571 10.1048 9.97872 10.0264C9.90038 9.94807 9.79413 9.90405 9.68333 9.90405Z"
            fill="currentColor" />
        <path
            d="M27.6103 11.6324C28.6854 11.6324 29.7362 11.3136 30.6301 10.7163C31.524 10.1191 32.2207 9.27014 32.6321 8.27693C33.0435 7.28373 33.1511 6.19083 32.9414 5.13644C32.7316 4.08206 32.214 3.11355 31.4538 2.35338C30.6937 1.59321 29.7251 1.07553 28.6707 0.865797C27.6164 0.656066 26.5235 0.763708 25.5303 1.17511C24.537 1.58651 23.6881 2.28319 23.0909 3.17706C22.4936 4.07092 22.1748 5.12182 22.1748 6.19686C22.1764 7.63796 22.7496 9.01958 23.7686 10.0386C24.7876 11.0576 26.1692 11.6308 27.6103 11.6324ZM27.6103 1.59685C28.5201 1.59685 29.4095 1.86664 30.166 2.37209C30.9224 2.87755 31.512 3.59597 31.8601 4.43651C32.2083 5.27705 32.2994 6.20196 32.1219 7.09428C31.9444 7.98659 31.5063 8.80623 30.863 9.44955C30.2197 10.0929 29.4 10.531 28.5077 10.7085C27.6154 10.886 26.6905 10.7949 25.85 10.4467C25.0094 10.0985 24.291 9.50895 23.7856 8.75248C23.2801 7.99602 23.0103 7.10665 23.0103 6.19686C23.0116 4.97725 23.4966 3.80795 24.359 2.94556C25.2214 2.08316 26.3907 1.59812 27.6103 1.59685Z"
            fill="currentColor" />
        <path
            d="M3.53767 35.4011L2.2128 36.7247C2.17295 36.7635 2.14129 36.8099 2.11967 36.8612C2.09804 36.9124 2.08691 36.9675 2.08691 37.0231C2.08691 37.0787 2.09804 37.1338 2.11967 37.185C2.14129 37.2363 2.17295 37.2827 2.2128 37.3215C2.25161 37.3614 2.29801 37.393 2.34926 37.4146C2.40051 37.4363 2.45557 37.4474 2.51119 37.4474C2.56681 37.4474 2.62187 37.4363 2.67312 37.4146C2.72437 37.393 2.77077 37.3614 2.80958 37.3215L4.13445 35.9978C4.17325 35.959 4.20402 35.913 4.22502 35.8623C4.24601 35.8116 4.25681 35.7573 4.25681 35.7024C4.25681 35.6476 4.24601 35.5932 4.22502 35.5426C4.20402 35.4919 4.17325 35.4458 4.13445 35.407C4.09566 35.3682 4.04961 35.3375 3.99892 35.3165C3.94824 35.2955 3.89389 35.2847 3.83903 35.2847C3.78417 35.2847 3.72986 35.2955 3.67917 35.3165C3.62849 35.3375 3.58244 35.3682 3.54364 35.407L3.53767 35.4011Z"
            fill="currentColor" />
        <path
            d="M5.89634 33.0414L4.57266 34.3663C4.49431 34.4454 4.45062 34.5524 4.45118 34.6638C4.45174 34.7751 4.49652 34.8817 4.57566 34.9601C4.6548 35.0384 4.76182 35.0821 4.87318 35.0815C4.98454 35.081 5.0911 35.0362 5.16944 34.9571L6.49312 33.6322C6.57226 33.5539 6.61702 33.4473 6.61758 33.3359C6.61814 33.2246 6.57444 33.1176 6.49609 33.0384C6.41775 32.9593 6.31119 32.9145 6.19983 32.9139C6.08847 32.9134 5.98145 32.9571 5.90231 33.0354L5.89634 33.0414Z"
            fill="currentColor" />
        <path
            d="M2.8034 33.0414C2.72426 32.9622 2.61693 32.9178 2.50501 32.9178C2.39309 32.9178 2.28576 32.9622 2.20662 33.0414C2.12748 33.1205 2.08301 33.2279 2.08301 33.3398C2.08301 33.4517 2.12748 33.559 2.20662 33.6382L3.53146 34.963C3.57025 35.0018 3.6163 35.0326 3.66699 35.0536C3.71768 35.0746 3.77202 35.0854 3.82688 35.0854C3.88174 35.0854 3.93605 35.0746 3.98674 35.0536C4.03743 35.0326 4.08348 35.0018 4.12227 34.963C4.16106 34.9242 4.19184 34.8782 4.21284 34.8275C4.23383 34.7768 4.24463 34.7225 4.24463 34.6676C4.24463 34.6128 4.23383 34.5584 4.21284 34.5077C4.19184 34.4571 4.16106 34.411 4.12227 34.3722L2.8034 33.0414Z"
            fill="currentColor" />
        <path
            d="M5.16359 35.401C5.08524 35.3219 4.97868 35.2771 4.86732 35.2766C4.75596 35.276 4.64894 35.3197 4.5698 35.398C4.49066 35.4764 4.44588 35.583 4.44532 35.6943C4.44476 35.8057 4.48845 35.9127 4.5668 35.9918L5.89048 37.3155C5.92951 37.3539 5.97576 37.3843 6.02656 37.4048C6.07736 37.4252 6.13171 37.4355 6.18648 37.4349C6.24109 37.4356 6.29528 37.4254 6.3459 37.4049C6.39653 37.3844 6.44255 37.354 6.48129 37.3155C6.52113 37.2767 6.55282 37.2303 6.57445 37.1791C6.59607 37.1278 6.6072 37.0727 6.6072 37.0171C6.6072 36.9615 6.59607 36.9064 6.57445 36.8552C6.55282 36.8039 6.52113 36.7575 6.48129 36.7187L5.16359 35.401Z"
            fill="currentColor" />
        <path
            d="M35.2065 15.7382C35.3167 15.739 35.4228 15.6961 35.5014 15.6188L36.8263 14.294C36.9046 14.2156 36.9486 14.1094 36.9486 13.9986C36.9486 13.8878 36.9046 13.7815 36.8263 13.7032C36.7479 13.6248 36.6416 13.5808 36.5308 13.5808C36.42 13.5808 36.3138 13.6248 36.2354 13.7032L34.9105 15.028C34.851 15.0863 34.8103 15.1611 34.7936 15.2427C34.7769 15.3243 34.785 15.409 34.8168 15.486C34.8487 15.563 34.9028 15.6287 34.9722 15.6747C35.0417 15.7207 35.1233 15.7449 35.2065 15.7442V15.7382Z"
            fill="currentColor" />
        <path
            d="M37.5662 13.3797C37.6208 13.3803 37.675 13.3701 37.7256 13.3496C37.7762 13.3291 37.8223 13.2988 37.8611 13.2604L39.1859 11.9355C39.2643 11.8564 39.308 11.7493 39.3074 11.638C39.3068 11.5266 39.2621 11.4201 39.1829 11.3417C39.1038 11.2634 38.9968 11.2197 38.8854 11.2202C38.774 11.2208 38.6675 11.2656 38.5892 11.3447L37.2643 12.6696C37.2054 12.7281 37.1652 12.8028 37.1488 12.8842C37.1325 12.9656 37.1407 13.05 37.1724 13.1268C37.2041 13.2035 37.2579 13.2691 37.327 13.3152C37.3961 13.3613 37.4773 13.3858 37.5603 13.3857L37.5662 13.3797Z"
            fill="currentColor" />
        <path
            d="M36.2355 13.2544C36.2743 13.2932 36.3204 13.324 36.3711 13.345C36.4218 13.366 36.4761 13.3768 36.531 13.3768C36.5858 13.3768 36.6401 13.366 36.6908 13.345C36.7415 13.324 36.7876 13.2932 36.8264 13.2544C36.8652 13.2157 36.8959 13.1696 36.9169 13.1189C36.9379 13.0682 36.9487 13.0139 36.9487 12.959C36.9487 12.9042 36.9379 12.8499 36.9169 12.7992C36.8959 12.7485 36.8652 12.7024 36.8264 12.6636L35.5015 11.3388C35.4232 11.2596 35.3166 11.2149 35.2052 11.2143C35.0939 11.2137 34.9868 11.2574 34.9077 11.3358C34.8286 11.4141 34.7838 11.5207 34.7832 11.6321C34.7826 11.7434 34.8264 11.8504 34.9047 11.9296L36.2355 13.2544Z"
            fill="currentColor" />
        <path
            d="M38.5956 15.6165C38.6747 15.6957 38.782 15.7401 38.8939 15.7401C39.0059 15.7401 39.1132 15.6957 39.1923 15.6165C39.2715 15.5374 39.3159 15.43 39.3159 15.3181C39.3159 15.2062 39.2715 15.0989 39.1923 15.0197L37.8675 13.6949C37.8287 13.6561 37.7827 13.6253 37.732 13.6043C37.6813 13.5833 37.6269 13.5725 37.572 13.5725C37.5172 13.5725 37.4629 13.5833 37.4122 13.6043C37.3615 13.6253 37.3155 13.6561 37.2767 13.6949C37.2379 13.7337 37.2071 13.7797 37.1861 13.8304C37.1651 13.8811 37.1543 13.9354 37.1543 13.9903C37.1543 14.0451 37.1651 14.0995 37.1861 14.1502C37.2071 14.2008 37.2379 14.2469 37.2767 14.2857L38.5956 15.6165Z"
            fill="currentColor" />
    </g>
    <defs>
        <clipPath id="clip0_4068_37884">
            <rect width="40" height="45.4773" fill="white" transform="translate(0 0.761353)" />
        </clipPath>
    </defs>
</svg>