<svg xmlns="http://www.w3.org/2000/svg" width="100%" height="100%" fill="currentColor">
    <title>bullet three</title>
    <circle cx="12" cy="12.0004" r="10.25" stroke="none" strokeWidth="1.5" />
    <path
        d="M10.5092 12.8645H10.9892C12.1892 12.8645 13.7412 13.3125 13.7412 14.7845C13.7412 16.1445 12.6532 16.6565 11.6612 16.6565C10.4612 16.6565 9.67719 15.9525 9.40519 15.0565L7.61319 15.6165C8.22119 17.5045 9.82119 18.2885 11.7252 18.2885C13.6452 18.2885 15.6772 17.1525 15.6772 14.8005C15.6772 13.4085 14.7172 12.3525 13.3412 12.0805V12.0485C14.5732 11.7445 15.3732 10.7045 15.3732 9.48855C15.3732 7.45655 13.7092 6.38455 11.7252 6.38455C9.91719 6.38455 8.42919 7.45655 8.02919 8.97655L9.83719 9.44055C10.0612 8.57655 10.7172 7.98455 11.6452 7.98455C12.6052 7.98455 13.4372 8.59255 13.4372 9.61655C13.4372 11.0085 12.1572 11.3285 11.0212 11.3285H10.5092V12.8645Z"
        fill="currentColor" />
</svg>