<svg xmlns="http://www.w3.org/2000/svg" width="100%" height="100%" viewBox="0 0 25 25" testId="" fill="none"
  id="certified">
  <title>Certified</title>
  <g clip-path="url(#clip0_1_713)">
    <path
      d="M12.1667 24.0276C18.61 24.0276 23.8333 18.8341 23.8333 12.4276C23.8333 6.02113 18.61 0.827637 12.1667 0.827637C5.72334 0.827637 0.5 6.02113 0.5 12.4276C0.5 18.8341 5.72334 24.0276 12.1667 24.0276Z"
      fill="none" />
    <path
      d="M0.5 12.428C0.5 18.8238 5.73307 24.0276 12.1663 24.0276C18.5996 24.0276 23.8326 18.8245 23.8326 12.428H23.5474C23.5474 18.6678 18.442 23.744 12.1663 23.744C5.89067 23.744 0.785257 18.6678 0.785257 12.428C0.785257 6.1882 5.89067 1.11126 12.1663 1.11126C16.2411 1.11126 19.8225 3.25163 21.8333 6.46093L22.0663 6.29621C20.0033 3.01482 16.3371 0.827637 12.1663 0.827637C5.73307 0.827637 0.5 6.03219 0.5 12.428Z"
      fill="#292929" />
    <path
      d="M8.64906 16.9696C8.16483 16.9696 7.87816 16.8824 7.75553 16.7016C7.61716 16.4974 7.7334 16.257 7.8033 16.1138C7.81326 16.0932 7.82253 16.0741 7.8304 16.0564C7.84533 16.0266 7.8539 15.9941 7.8555 15.9609C7.8571 15.9277 7.85173 15.8945 7.83966 15.8635C7.78563 15.7559 7.69263 15.6725 7.57936 15.6302L7.548 15.6167C7.3105 15.5168 6.75496 15.2835 6.67723 14.9211C6.6624 14.844 6.66773 14.7644 6.6927 14.6899C6.71766 14.6154 6.76146 14.5485 6.81986 14.4957C7.23063 14.0554 7.9552 12.5536 8.0151 12.1076C8.05006 11.8445 8.0151 11.6644 7.92096 11.2297C7.85606 10.9192 7.76693 10.4944 7.66066 9.83356C7.39466 8.18073 8.7261 6.24001 8.78243 6.15845C8.80453 6.12908 8.8372 6.10936 8.8736 6.10343C8.91 6.0975 8.94733 6.10582 8.97766 6.12663C9.00803 6.14748 9.02913 6.1792 9.03646 6.21512C9.0438 6.25108 9.03686 6.28847 9.01706 6.31942C9.00423 6.33858 7.6949 8.2488 7.94236 9.78819C8.0479 10.4427 8.13633 10.8645 8.2005 11.1716C8.29606 11.6268 8.3396 11.8338 8.2975 12.1451C8.23046 12.6464 7.48596 14.2014 7.02883 14.6886C6.9518 14.7708 6.95253 14.8247 6.9575 14.858C6.9889 14.9998 7.22493 15.1693 7.66066 15.3544L7.69346 15.3686C7.87763 15.4393 8.02626 15.5795 8.1071 15.7585C8.13273 15.8245 8.1446 15.895 8.14203 15.9657C8.13946 16.0364 8.12246 16.1058 8.0921 16.1698C8.08353 16.1904 8.07286 16.2123 8.06146 16.2357C8.01296 16.3357 7.94663 16.4726 7.99013 16.542C8.02793 16.5974 8.19836 16.7222 8.95786 16.6739C8.9957 16.6716 9.0329 16.6843 9.06133 16.7092C9.08973 16.7341 9.10703 16.7693 9.1094 16.8069C9.11176 16.8445 9.099 16.8815 9.07393 16.9098C9.04886 16.938 9.01353 16.9552 8.9757 16.9576C8.8566 16.9661 8.74963 16.9696 8.64906 16.9696Z"
      fill="#292929" />
    <path
      d="M9.6639 19.986C9.10764 19.986 8.81667 19.7903 8.6655 19.6052C8.4066 19.2882 8.38027 18.8082 8.5885 18.2523C8.64697 18.0977 8.6976 17.8893 8.60844 17.7765C8.5193 17.6638 8.29964 17.6617 8.22264 17.6716C8.20404 17.6739 8.18517 17.6725 8.16714 17.6675C8.14907 17.6626 8.1322 17.6541 8.11744 17.6426C8.10267 17.6312 8.0903 17.6169 8.08107 17.6007C8.07184 17.5845 8.0659 17.5667 8.0636 17.5482C8.05894 17.5111 8.0692 17.4736 8.0922 17.444C8.11517 17.4144 8.149 17.395 8.18627 17.3901C8.2041 17.3901 8.6213 17.3369 8.8281 17.6028C8.96647 17.7765 8.975 18.0283 8.85234 18.3551C8.6826 18.8054 8.69334 19.1975 8.883 19.4294C9.08414 19.6754 9.49274 19.7598 10.0647 19.6719C10.5732 19.5939 11.0374 19.3818 11.4867 19.1755C12.2925 18.8075 13.1269 18.4267 14.2344 18.794C14.2529 18.7994 14.27 18.8084 14.2848 18.8205C14.2996 18.8326 14.3119 18.8476 14.3207 18.8645C14.3296 18.8814 14.335 18.8999 14.3365 18.9189C14.338 18.938 14.3356 18.9571 14.3295 18.9752C14.3234 18.9933 14.3137 19.0099 14.301 19.0242C14.2883 19.0385 14.2728 19.05 14.2554 19.0582C14.2381 19.0664 14.2193 19.071 14.2001 19.0718C14.1809 19.0726 14.1618 19.0695 14.1439 19.0628C13.1455 18.7309 12.3967 19.072 11.6058 19.4336C11.1387 19.6463 10.6559 19.8669 10.1082 19.9505C9.9612 19.9735 9.81267 19.9854 9.6639 19.986Z"
      fill="#292929" />
    <path
      d="M15.8069 9.67192C14.8984 9.67192 13.3067 9.44645 11.118 8.29209C9.68603 7.53693 8.8495 6.69669 8.6313 5.79616C8.4423 5.01618 8.8046 4.48792 8.81957 4.46594C8.84123 4.43502 8.87437 4.41391 8.91167 4.40725C8.93013 4.40397 8.9491 4.40433 8.96743 4.40831C8.98577 4.41228 9.00313 4.41984 9.01853 4.43048C9.03393 4.44115 9.0471 4.45471 9.05723 4.47042C9.06737 4.48616 9.07423 4.50369 9.07757 4.52205C9.08087 4.54042 9.08053 4.55927 9.0765 4.5775C9.0725 4.59573 9.06493 4.613 9.0542 4.62834C9.04137 4.64604 8.74827 5.08071 8.91157 5.738C9.10983 6.54211 9.91997 7.33837 11.2528 8.04179C13.0278 8.97844 14.3906 9.27272 15.22 9.35425C16.1172 9.44291 16.6021 9.30961 16.6071 9.30818C16.6429 9.2993 16.6808 9.3046 16.7128 9.3229C16.7447 9.34122 16.7683 9.37115 16.7786 9.40642C16.7888 9.44165 16.7849 9.47946 16.7677 9.51194C16.7505 9.54439 16.7213 9.56895 16.6863 9.58045C16.6549 9.59178 16.3554 9.67192 15.8069 9.67192Z"
      fill="#292929" />
    <path d="M13.0405 14.0714L16.6314 17.3244L24.2327 8.20264" stroke="#292929" strokeWidth="1.5"
      strokeLinecap="round" />
  </g>
  <defs>
    <clip-path id="clip0_1_713">
      <rect width="24" height="23.2" fill="white" transform="translate(0.5 0.827637)" />
    </clip-path>
  </defs>
</svg>