<svg xmlns="http://www.w3.org/2000/svg" width="100%" height="100%" viewBox="0 0 30 31" testId="" fill="none"
  id="clinically_tested">
  <title>clinically tested</title>
  <g clip-path="url(#clip0_64_5222)">
    <path
      d="M15.0302 30.8361C6.74194 30.8361 0 24.0933 0 15.8059C0 7.51859 6.74194 0.77478 15.0302 0.77478C23.3185 0.77478 30.0613 7.51765 30.0613 15.8059C30.0613 24.0942 23.3185 30.8361 15.0302 30.8361ZM15.0302 1.14228C6.945 1.14228 0.3675 7.72072 0.3675 15.8059C0.3675 23.8911 6.945 30.4686 15.0302 30.4686C23.1154 30.4686 29.6938 23.8911 29.6938 15.8059C29.6938 7.72072 23.1154 1.14228 15.0302 1.14228Z"
      fill="currentColor" />
    <path d="M14.3774 15.6043L17.2121 18.1869L23.2125 10.9449" stroke="currentColor" strokeWidth="1.06334"
      strokeLinecap="round" />
    <path
      d="M11.9053 13.618C11.8019 13.5702 11.7172 13.6104 11.656 13.6946C11.6067 13.7666 11.5616 13.8416 11.5211 13.9189C11.2181 14.4595 10.9453 15.0164 10.7039 15.5872C10.4016 16.3082 10.16 17.0449 10.106 17.8869C10.106 17.9826 10.1203 18.1371 10.3121 18.1496C10.5241 18.1639 10.5514 18.0037 10.5514 17.8429C10.5564 17.6364 10.5825 17.4308 10.6293 17.2296C10.8513 16.1589 11.3316 15.192 11.8412 14.2376C11.909 14.121 11.9686 13.9998 12.0196 13.8749C12.0295 13.8506 12.0343 13.8245 12.0339 13.7983C12.0335 13.772 12.0277 13.7462 12.0171 13.7222C12.0064 13.6982 11.991 13.6766 11.9718 13.6587C11.9526 13.6408 11.93 13.627 11.9053 13.618Z"
      fill="currentColor" />
    <path
      d="M21.4079 17.9156C21.4084 17.9238 21.4084 17.9319 21.4079 17.94C21.4169 18.2023 21.4033 18.4648 21.3673 18.7246C21.1271 20.4527 20.3669 21.8989 19.0273 23.0174C17.8471 24.0025 16.4822 24.5245 14.935 24.5407H14.8393C14.7854 24.5476 14.7309 24.5498 14.6766 24.5474C13.1295 24.5312 11.7645 24.0092 10.5843 23.0242C9.24376 21.9056 8.48354 20.4594 8.24434 18.7313C8.10704 17.73 8.31611 16.7875 8.68112 15.8671C9.25956 14.4103 10.0628 13.076 10.924 11.7747C12.0343 10.0955 13.2538 8.4966 14.5398 6.94846C14.7503 6.69487 14.8637 6.69154 15.0704 6.94129C16.5348 8.71237 17.9322 10.5318 19.1484 12.4789C19.4865 13.0119 19.81 13.5529 20.1082 14.1081L19.7957 14.4674C19.738 14.3589 19.6795 14.2509 19.6201 14.1434C19.5804 14.0721 19.5412 13.9998 19.501 13.9285L19.4804 13.8917C18.9747 12.9989 18.4255 12.1354 17.8461 11.2934C17.085 10.1926 16.2702 9.12956 15.4354 8.07703C15.2676 7.8675 15.0989 7.65857 14.9292 7.45031C14.8312 7.33307 14.7728 7.33021 14.6771 7.45031C12.7572 9.83854 10.9034 12.2722 9.52459 15.0284C9.12892 15.8192 8.79404 16.6354 8.67109 17.5214C8.64812 17.6846 8.64334 17.8535 8.6304 18.0194C8.65483 21.0005 10.9034 23.6049 13.8452 24.0422C14.1193 24.0805 14.3968 24.1068 14.6733 24.1283C14.7077 24.1307 14.7436 24.1327 14.7781 24.1355C14.8278 24.1274 14.8824 24.1259 14.934 24.1216C15.211 24.1001 15.488 24.0767 15.7626 24.036C18.7063 23.5987 20.9549 20.9942 20.9745 18.0109C20.9659 17.9023 20.9606 17.7932 20.9515 17.6846C20.925 17.4301 20.8813 17.1778 20.8209 16.9291C20.6743 16.3309 20.441 15.7617 20.1722 15.2066L20.4936 14.8558C20.68 15.2365 20.8469 15.6266 20.9936 16.0244C21.1552 16.4452 21.2738 16.8812 21.3476 17.3257L21.352 17.3473C21.3842 17.5351 21.403 17.7251 21.4079 17.9156Z"
      fill="currentColor" />
  </g>
  <defs>
    <clip-path id="clip0_64_5222">
      <rect width="30" height="30" fill="white" transform="translate(0 0.77478)" />
    </clip-path>
  </defs>
</svg>