<svg xmlns="http://www.w3.org/2000/svg" width="100%" height="100%" viewBox="0 0 25 25" testId="" fill="none"
  id="cruelty_free">
  <title>CrueltyFree</title>
  <g clip-path="url(#clip0_1_693)">
    <mask id="mask0_1_693" style="mask-type: luminance;" maskUnits="userSpaceOnUse" x="0" y="0" width="25" height="25">
      <path d="M24.2037 0H0.5V24.8276H24.2037V0Z" fill="white" />
    </mask>
    <g mask="url(#mask0_1_693)">
      <path
        d="M2.78571 9.22173C3.83768 9.22173 4.69047 8.26896 4.69047 7.09366C4.69047 5.91835 3.83768 4.96558 2.78571 4.96558C1.73374 4.96558 0.880951 5.91835 0.880951 7.09366C0.880951 8.26896 1.73374 9.22173 2.78571 9.22173Z"
        fill="none" />
      <path
        d="M8.88096 6.38429C10.1433 6.38429 11.1667 5.03453 11.1667 3.36951C11.1667 1.7045 10.1433 0.354736 8.88096 0.354736C7.61859 0.354736 6.59525 1.7045 6.59525 3.36951C6.59525 5.03453 7.61859 6.38429 8.88096 6.38429Z"
        fill="none" />
      <path
        d="M15.9667 6.38429C17.1449 6.38429 18.1 5.03453 18.1 3.36951C18.1 1.7045 17.1449 0.354736 15.9667 0.354736C14.7885 0.354736 13.8333 1.7045 13.8333 3.36951C13.8333 5.03453 14.7885 6.38429 15.9667 6.38429Z"
        fill="none" />
      <path
        d="M21.7272 9.23557C22.7166 9.38367 23.6946 8.48464 23.9117 7.22754C24.1288 5.97044 23.5027 4.83129 22.5133 4.6832C21.524 4.5351 20.5459 5.43412 20.3289 6.69123C20.1118 7.94833 20.7378 9.08747 21.7272 9.23557Z"
        fill="none" />
      <path
        d="M13.4524 11.1724L12.3095 13.1232L12.1191 12.2365L10.4048 10.1084L6.9762 9.22168L3.7381 10.6404L2.21429 13.6552L3.16668 17.0246L6.40477 20.2168L12.3095 24.4729L18.9762 19.8621L21.8333 16.67L22.2143 12.9458L20.5 10.2857L18.2143 9.22168L15.5476 9.57636L13.4524 11.1724Z"
        fill="none" />
      <path
        d="M9.34786 8.62386e-05C11.0293 0.499091 12.0575 2.07234 11.8197 3.76341C11.7135 4.51678 11.4952 5.22508 10.9849 5.83846C9.93117 7.10258 8.18793 7.113 7.12439 5.85786C5.92009 4.43985 5.97052 2.20333 7.22824 0.828989C7.63171 0.3882 8.15559 0.144244 8.74721 -0.00268555L9.34786 8.62386e-05ZM11.137 3.26996C11.1227 2.55541 10.9112 1.77641 10.2563 1.15196C9.52923 0.458895 8.57708 0.458895 7.84172 1.14295C6.65018 2.24561 6.6487 4.55768 7.84172 5.66378C8.58237 6.35271 9.65643 6.31873 10.3436 5.57231C10.9164 4.94648 11.137 4.20491 11.137 3.26996Z"
        fill="#292929" />
      <path
        d="M16.2478 0C17.9308 0.499006 18.9575 2.07919 18.7211 3.77096C18.618 4.50284 18.402 5.18826 17.9202 5.78983C16.8484 7.12814 15.0359 7.12747 13.9671 5.78983C12.8381 4.3753 12.8923 2.25038 14.08 0.889892C14.491 0.419303 15.0292 0.155247 15.6471 0.00277284L16.2478 0ZM13.8535 3.56372C13.848 4.30028 14.1313 5.01393 14.6513 5.57362C15.3393 6.32142 16.4096 6.3554 17.154 5.66509C18.3395 4.56657 18.3365 2.24206 17.1472 1.14147C16.4239 0.471284 15.4831 0.46158 14.7589 1.13177C14.0853 1.75553 13.8565 2.54008 13.8565 3.56372H13.8535Z"
        fill="#292929" />
      <path
        d="M24.2037 7.04993C24.0833 7.7527 23.8545 8.40903 23.3381 8.96556C22.2844 10.1015 20.5532 9.83467 19.9766 8.43329C19.4964 7.26338 19.6695 6.1649 20.4772 5.16896C21.4669 3.94985 23.1462 4.10928 23.88 5.47391C24.0547 5.79827 24.1059 6.15242 24.2037 6.49688V7.04993ZM20.3989 7.08806C20.3943 7.6425 20.5035 8.05488 20.7165 8.43882C20.7955 8.58662 20.9094 8.71618 21.0499 8.81808C21.1904 8.91998 21.354 8.99159 21.5285 9.02763C21.703 9.06366 21.8841 9.0632 22.0584 9.02632C22.2327 8.98943 22.3958 8.91704 22.5358 8.81447C23.5075 8.09922 23.8063 6.55161 23.1628 5.57439C22.6999 4.87302 21.8282 4.77668 21.199 5.36648C20.7084 5.82838 20.4231 6.4424 20.3989 7.08806Z"
        fill="#292929" />
      <path
        d="M12.3375 11.9424C12.555 11.6104 12.7138 11.3186 12.9193 11.0636C14.1447 9.55342 15.7916 8.78894 17.8261 9.00172C20.0089 9.22974 21.4766 10.4211 22.267 12.2841C22.9241 13.8386 22.7939 15.371 21.9192 16.8465C20.9874 18.4184 19.6566 19.6797 18.2408 20.8704C16.5661 22.2781 14.7431 23.5103 12.8516 24.6608C12.4858 24.8833 12.2141 24.8846 11.8437 24.6566C9.37566 23.1319 7.00922 21.5004 4.95661 19.5092C3.94425 18.5279 3.03124 17.4779 2.45845 16.2151C1.20823 13.463 2.79565 9.98727 6.06758 9.13341C8.32941 8.54361 10.9164 9.54924 12.0665 11.4732C12.1463 11.6146 12.2269 11.7532 12.3375 11.9424ZM21.9493 14.2863C21.9907 13.533 21.8063 12.8468 21.4842 12.1864C20.471 10.1072 17.9466 9.07173 15.7178 9.84727C14.2027 10.3733 13.2407 11.3969 12.75 12.8073C12.6807 13.0042 12.6461 13.2461 12.3631 13.2571C12.0522 13.2689 12.0086 13.0139 11.9378 12.8067C11.822 12.4658 11.6682 12.1369 11.4787 11.8253C10.2631 9.82855 7.63017 9.03569 5.47223 10.0178C3.05383 11.1177 2.02112 13.9412 3.19908 16.2283C3.80123 17.3892 4.67962 18.3588 5.64457 19.266C7.56091 21.068 9.73318 22.5768 11.9942 23.9851C12.272 24.1583 12.4609 24.1382 12.7244 23.9733C14.2197 23.0499 15.659 22.0517 17.0358 20.9834C18.4862 19.8461 19.8591 18.6395 20.9166 17.1639C21.5459 16.2851 22.008 15.3502 21.9493 14.2863Z"
        fill="#292929" />
      <path
        d="M4.94988 7.18851C4.97205 7.83959 4.74954 8.47781 4.31986 8.99532C3.64773 9.80828 2.4931 9.91986 1.6403 9.26491C0.390083 8.30295 0.119879 6.34643 1.06902 5.12317C1.75171 4.243 2.85967 4.07871 3.7787 4.75239C4.62775 5.36989 4.92653 6.22793 4.94988 7.18851ZM1.18643 6.85167C1.22707 7.56 1.41223 8.22949 2.01439 8.74303C2.61654 9.25661 3.37374 9.1845 3.85772 8.57116C4.59236 7.64037 4.35975 5.99434 3.38955 5.26316C2.84837 4.85496 2.17622 4.90554 1.72386 5.39553C1.33848 5.81068 1.21578 6.30968 1.18718 6.85167H1.18643Z"
        fill="#292929" />
      <path
        d="M4.48096 15.592C4.42762 15.592 4.37551 15.5771 4.33159 15.5492C4.28763 15.5214 4.25388 15.4819 4.23482 15.436C3.81482 14.4304 3.93376 13.4261 4.58484 12.4461C4.87734 11.9952 5.28591 11.6175 5.77448 11.3463C6.26309 11.0752 6.81665 10.9191 7.38633 10.8916C7.45619 10.8916 7.5232 10.9172 7.57261 10.9626C7.62202 11.0081 7.6498 11.0698 7.6498 11.1342C7.6498 11.1985 7.62202 11.2602 7.57261 11.3057C7.5232 11.3512 7.45619 11.3767 7.38633 11.3767C6.90659 11.4038 6.4413 11.5385 6.03105 11.7691C5.6208 11.9997 5.27806 12.3193 5.03269 12.6998C4.47044 13.5426 4.36728 14.4047 4.72484 15.2641C4.74004 15.3009 4.74534 15.3404 4.74031 15.3795C4.73528 15.4185 4.72004 15.4558 4.69593 15.4882C4.67181 15.5207 4.63955 15.5472 4.60183 15.5656C4.56412 15.5841 4.52214 15.5938 4.47943 15.594L4.48096 15.592Z"
        fill="#292929" />
    </g>
  </g>
  <defs>
    <clip-path id="clip0_1_693">
      <rect width="24" height="24.8276" fill="white" transform="translate(0.5)" />
    </clip-path>
  </defs>
</svg>