<svg xmlns="http://www.w3.org/2000/svg" width="100%" height="100%" viewBox="0 0 41 41" fill="none" testId="ears"
    id="ears">
    <title>Ears</title>
    <path
        d="M37 15.9444C37 16.1458 36.9197 16.3389 36.7768 16.4813C36.634 16.6237 36.4402 16.7037 36.2381 16.7037C36.036 16.7037 35.8422 16.6237 35.6993 16.4813C35.5565 16.3389 35.4762 16.1458 35.4762 15.9444C35.4762 12.1185 33.951 8.44916 31.2362 5.74377C28.5214 3.03839 24.8393 1.51852 21 1.51852C17.1607 1.51852 13.4786 3.03839 10.7638 5.74377C8.04898 8.44916 6.52381 12.1185 6.52381 15.9444C6.52381 21.3352 8.34286 23.0834 10.1029 24.7746C11.7143 26.3216 13.381 27.9237 13.381 31.8889C13.381 33.9026 14.1837 35.8338 15.6125 37.2577C17.0414 38.6816 18.9793 39.4815 21 39.4815C23.1657 39.4815 24.9676 38.578 26.5086 36.7197C26.6392 36.5706 26.8231 36.4783 27.021 36.4623C27.219 36.4464 27.4154 36.5081 27.5683 36.6343C27.7213 36.7605 27.8188 36.9412 27.84 37.138C27.8612 37.3348 27.8045 37.532 27.6819 37.6877C25.861 39.8858 23.6114 41 21 41C18.5759 40.9975 16.2519 40.0368 14.5378 38.3286C12.8237 36.6205 11.8597 34.3045 11.8571 31.8889C11.8571 28.569 10.5543 27.3162 9.04571 25.868C7.14857 24.0457 5 21.9787 5 15.9444C5 11.7157 6.68571 7.66018 9.68629 4.67002C12.6869 1.67986 16.7565 0 21 0C25.2435 0 29.3131 1.67986 32.3137 4.67002C35.3143 7.66018 37 11.7157 37 15.9444ZM30.1162 27.4358C29.9414 27.3353 29.7337 27.3081 29.5387 27.36C29.3437 27.412 29.1774 27.5389 29.0762 27.713C28.8249 28.1479 28.4366 28.488 27.9714 28.6804C27.5062 28.8728 26.9903 28.9067 26.5038 28.7768C26.0174 28.647 25.5875 28.3606 25.2811 27.9623C24.9748 27.564 24.809 27.076 24.8095 26.5741C24.8095 24.5487 25.8457 23.1726 26.9429 21.7148C28.141 20.1204 29.381 18.4747 29.381 15.9444C29.381 13.7294 28.498 11.6051 26.9262 10.0388C25.3545 8.47252 23.2228 7.59259 21 7.59259C18.7772 7.59259 16.6455 8.47252 15.0738 10.0388C13.502 11.6051 12.619 13.7294 12.619 15.9444C12.619 16.1458 12.6993 16.3389 12.8422 16.4813C12.9851 16.6237 13.1789 16.7037 13.381 16.7037C13.583 16.7037 13.7768 16.6237 13.9197 16.4813C14.0626 16.3389 14.1429 16.1458 14.1429 15.9444C14.1429 14.1321 14.8653 12.394 16.1513 11.1125C17.4372 9.83105 19.1814 9.11111 21 9.11111C22.8186 9.11111 24.5628 9.83105 25.8487 11.1125C27.1347 12.394 27.8571 14.1321 27.8571 15.9444C27.8571 17.9698 26.821 19.3459 25.7238 20.8037C24.5257 22.3981 23.2857 24.0438 23.2857 26.5741C23.2858 27.4097 23.5625 28.222 24.073 28.885C24.5835 29.548 25.2992 30.0246 26.1092 30.2408C26.9192 30.4571 27.7782 30.401 28.553 30.0813C29.3277 29.7615 29.975 29.1959 30.3943 28.4722C30.4951 28.298 30.5225 28.091 30.4704 27.8967C30.4182 27.7024 30.2908 27.5366 30.1162 27.4358Z"
        fill="black" />
</svg>