<svg width="100%" height="100%" viewBox="0 0 17 17" fill="none" xmlns="http://www.w3.org/2000/svg" id="eye">
<g clip-path="url(#clip0_7886_34355)">
  <path d="M8.49999 13.6479C6.3524 13.6479 4.39462 12.4522 2.83046 10.9777C1.46515 9.69064 0.634805 8.41592 0.600148 8.36229C0.466617 8.15576 0.466617 7.89014 0.600148 7.68361C0.634805 7.62998 1.46515 6.35526 2.83046 5.06817C4.39415 3.59407 6.35199 2.39795 8.49999 2.39795C10.6475 2.39795 12.6053 3.59361 14.1695 5.06817C15.5348 6.35526 16.3652 7.62998 16.3998 7.68361C16.5334 7.89014 16.5334 8.15576 16.3998 8.36229C16.3652 8.41592 15.5348 9.69064 14.1695 10.9777C12.6058 12.4518 10.648 13.6479 8.49999 13.6479ZM1.88799 8.02248C2.67974 9.10373 5.35096 12.3979 8.49999 12.3979C11.6568 12.3979 14.3216 9.10557 15.112 8.02345C14.3199 6.9417 11.6488 3.64795 8.49999 3.64795C5.34321 3.64795 2.67837 6.94032 1.88799 8.02248Z" fill="currentColor"/>
  <path d="M8.5 11.1479C6.77688 11.1479 5.375 9.74607 5.375 8.02295C5.375 6.29982 6.77688 4.89795 8.5 4.89795C10.2232 4.89795 11.625 6.29982 11.625 8.02295C11.625 9.74607 10.2232 11.1479 8.5 11.1479ZM8.5 6.14795C7.46613 6.14795 6.625 6.98907 6.625 8.02295C6.625 9.05682 7.46613 9.89795 8.5 9.89795C9.53387 9.89795 10.375 9.05682 10.375 8.02295C10.375 6.98907 9.53387 6.14795 8.5 6.14795Z" fill="currentColor"/>
</g>
<defs>
  <clipPath id="clip0_7886_34355">
    <rect width="16" height="16" fill="white" transform="translate(0.5 0.0229492)"/>
  </clipPath>
</defs>
</svg>
