<svg xmlns="http://www.w3.org/2000/svg" width="100%" height="100%" testId="">
    <title>FairAdvantages</title>
    <path
        d="M53.6412 30.2871C53.6494 30.254 53.6551 30.2203 53.6583 30.1863C53.6575 30.1772 53.6575 30.1681 53.6583 30.159C53.66 30.1312 53.66 30.1032 53.6583 30.0754C53.6591 30.0686 53.6591 30.0617 53.6583 30.0549C53.6533 30.0214 53.6459 29.9883 53.6361 29.9559C53.6354 29.9496 53.6354 29.9433 53.6361 29.9371C53.6256 29.9097 53.6136 29.883 53.6002 29.8569L53.59 29.8381L53.5814 29.8227L41.8025 10.8144L41.794 10.8024L41.7804 10.7836C41.7641 10.76 41.7458 10.7377 41.7258 10.7171L41.7138 10.7034C41.6896 10.68 41.6633 10.6589 41.6352 10.6402L41.6165 10.6266C41.5918 10.6113 41.5661 10.5976 41.5396 10.5856L41.5226 10.5771C41.4916 10.5648 41.4596 10.5551 41.427 10.5481H41.4014C41.3666 10.5412 41.3311 10.5378 41.2956 10.5378H27.8318C27.8318 10.5293 27.8318 10.5225 27.8318 10.5156V0.597479C27.8318 0.439018 27.7689 0.28705 27.6568 0.175001C27.5448 0.0629519 27.3928 0 27.2343 0C27.0759 0 26.9239 0.0629519 26.8118 0.175001C26.6998 0.28705 26.6368 0.439018 26.6368 0.597479V10.5156C26.6368 10.5156 26.6368 10.5293 26.6368 10.5378H12.3554C12.3198 10.5378 12.2845 10.5412 12.2496 10.5481H12.2239C12.1913 10.5551 12.1593 10.5648 12.1283 10.5771L12.1113 10.5856C12.0847 10.5972 12.0589 10.6109 12.0345 10.6266L12.014 10.6402C11.9865 10.6589 11.9608 10.68 11.9372 10.7034L11.9252 10.7171C11.9047 10.7373 11.8864 10.7596 11.8706 10.7836L11.8569 10.8024L11.8484 10.8144L0.0695487 29.8227C0.0692397 29.8273 0.0692397 29.8318 0.0695487 29.8364C0.0649141 29.8434 0.0608618 29.8508 0.0575457 29.8586C0.0440793 29.8832 0.0327103 29.9089 0.0234541 29.9354V29.9559C0.0136115 29.9883 0.00621365 30.0214 0.00128205 30.0549C0.000442769 30.0617 0.000442769 30.0686 0.00128205 30.0754C-0.00042735 30.1032 -0.00042735 30.1312 0.00128205 30.159C0.00213081 30.1681 0.00213081 30.1773 0.00128205 30.1863C0.00460456 30.2196 0.0097067 30.2526 0.0166191 30.2853C0.0173528 30.2922 0.0173528 30.299 0.0166191 30.3058C0.0248944 30.3346 0.0357399 30.3626 0.0490437 30.3895V30.4048C0.219752 30.7565 4.43797 39 12.3605 39C20.2831 39 24.4962 30.7565 24.672 30.4048C24.672 30.4048 24.672 30.3946 24.672 30.3895C24.684 30.3623 24.6943 30.3343 24.7027 30.3058C24.7027 30.3058 24.7027 30.2939 24.7027 30.2871C24.7112 30.2541 24.7163 30.2203 24.718 30.1863C24.7189 30.1773 24.7189 30.1681 24.718 30.159C24.7206 30.1312 24.7206 30.1032 24.718 30.0754C24.7189 30.0686 24.7189 30.0617 24.718 30.0549C24.7139 30.0212 24.7065 29.9881 24.6959 29.9559C24.6959 29.9559 24.6959 29.9439 24.6959 29.9371C24.6854 29.9097 24.6734 29.883 24.66 29.8569L24.6498 29.8381V29.8227L13.4377 11.7277H40.215L29.0028 29.8227C29.0038 29.8272 29.0038 29.8319 29.0028 29.8364C28.9995 29.8441 28.9956 29.8515 28.9909 29.8586C28.979 29.8842 28.967 29.9098 28.9567 29.9354V29.9559C28.9461 29.9881 28.9387 30.0212 28.9346 30.0549C28.9337 30.0617 28.9337 30.0686 28.9346 30.0754C28.932 30.1032 28.932 30.1312 28.9346 30.159C28.9337 30.1681 28.9337 30.1773 28.9346 30.1863C28.9362 30.2198 28.9413 30.253 28.9499 30.2853C28.9499 30.2853 28.9499 30.299 28.9499 30.3058C28.9584 30.3343 28.9687 30.3623 28.9807 30.3895C28.9807 30.3895 28.9807 30.3997 28.9807 30.4048C29.1514 30.7565 33.3696 39 41.2922 39C49.2147 39 53.4278 30.7565 53.6037 30.4048V30.3895C53.617 30.3626 53.6278 30.3346 53.6361 30.3058L53.6412 30.2871ZM12.3622 37.7982C6.62812 37.7982 2.90669 32.7862 1.62126 30.7292H23.1032C21.8177 32.793 18.1014 37.805 12.3622 37.805V37.7982ZM1.65885 29.5342L12.3622 12.2722L23.0656 29.5496L1.65885 29.5342ZM41.287 12.2722L51.9904 29.5496H30.5836L41.287 12.2722ZM41.287 37.8136C35.5529 37.8136 31.8315 32.8016 30.546 30.7445H52.028C50.7426 32.793 47.0211 37.805 41.287 37.805V37.8136Z"
        fill="currentColor" />
</svg>