<svg xmlns="http://www.w3.org/2000/svg" width="100%" height="100%" viewBox="0 0 40 48" fill="none" testId="focus"
    id="focus">
    <title>Focus</title>
    <g clip-path="url(#clip0_5269_12880)">
        <path d="M27.719 0.569824H13.2598V19.828H27.719V0.569824Z" stroke="#333333" stroke-linecap="round"
            stroke-linejoin="round" />
        <path d="M27.7073 19.8281H13.248V47.4301H27.7073V19.8281Z" stroke="#333333" stroke-linecap="round"
            stroke-linejoin="round" />
        <path d="M33.332 25.2822H39.2537" stroke="#333333" stroke-linecap="round" stroke-linejoin="round" />
        <path d="M32.8359 17.765L38.142 14.6304" stroke="#333333" stroke-linecap="round" stroke-linejoin="round" />
        <path d="M32.8359 32.2812L38.142 35.4159" stroke="#333333" stroke-linecap="round" stroke-linejoin="round" />
        <path d="M6.66578 25.2822H0.744141" stroke="#333333" stroke-linecap="round" stroke-linejoin="round" />
        <path d="M7.16157 17.765L1.85547 14.6304" stroke="#333333" stroke-linecap="round" stroke-linejoin="round" />
        <path d="M7.16157 32.2812L1.85547 35.4159" stroke="#333333" stroke-linecap="round" stroke-linejoin="round" />
        <path
            d="M18.3551 28.1263C18.9023 27.6476 19.6432 27.4082 20.5779 27.4082C21.1991 27.4082 21.7291 27.5165 22.1737 27.7331C22.6182 27.9496 22.9545 28.2403 23.1825 28.6165C23.4105 28.9869 23.5244 29.4087 23.5244 29.8703C23.5244 30.4175 23.3877 30.862 23.1141 31.204C22.8405 31.5459 22.5214 31.7796 22.1566 31.905V31.9563C22.6296 32.1159 23.0001 32.3723 23.2737 32.7371C23.5472 33.1019 23.684 33.5692 23.684 34.1391C23.684 34.6521 23.5643 35.108 23.3307 35.5013C23.097 35.8945 22.7493 36.2023 22.2991 36.4246C21.8488 36.6469 21.3131 36.7609 20.6919 36.7609C19.7002 36.7609 18.9023 36.5158 18.3095 36.0256C17.7168 35.5355 17.4033 34.8003 17.3691 33.8143H19.4323C19.438 34.179 19.5463 34.464 19.7401 34.6806C19.9396 34.8915 20.2302 34.9997 20.6121 34.9997C20.9369 34.9997 21.1877 34.9086 21.3644 34.7205C21.5411 34.5324 21.6323 34.2873 21.6323 33.9796C21.6323 33.5806 21.5069 33.2956 21.2504 33.1133C20.9939 32.9309 20.595 32.8454 20.0364 32.8454H19.6375V31.1185H20.0364C20.4582 31.1185 20.8002 31.0444 21.0623 30.9019C21.3245 30.7594 21.4556 30.4973 21.4556 30.1268C21.4556 29.8304 21.3701 29.5968 21.2048 29.4315C21.0395 29.2662 20.8116 29.1807 20.5209 29.1807C20.2074 29.1807 19.9737 29.2776 19.8199 29.4657C19.666 29.6538 19.5805 29.8931 19.552 30.1724H17.4774C17.5116 29.2833 17.8023 28.6051 18.3494 28.1206L18.3551 28.1263Z"
            fill="#333333" />
    </g>
    <defs>
        <clipPath id="clip0_5269_12880">
            <rect width="39.6504" height="48" fill="white" transform="translate(0.173828)" />
        </clipPath>
    </defs>
</svg>