<svg xmlns="http://www.w3.org/2000/svg" width="100%" height="100%" viewBox="0 0 68 68" fill="none" id="frown">
  <title>frown</title>
  <path
    d="M34 64C50.5685 64 64 50.5685 64 34C64 17.4315 50.5685 4 34 4C17.4315 4 4 17.4315 4 34C4 50.5685 17.4315 64 34 64Z"
    fill="none" />
  <path
    d="M64 34.0296C64.0064 29.5175 62.9753 25.0627 60.9841 21C59.9702 30.9185 58.3731 39.7073 49.0635 48.6699C39.8271 57.5622 25.9923 57.4947 9 50.0686C14.4495 58.1257 23.0411 64 33.6008 64C41.6631 64 49.3953 60.8424 55.0963 55.2219C60.7972 49.6013 64 41.9783 64 34.0296Z"
    fill="none" />
  <path
    d="M34 64C50.5685 64 64 50.5685 64 34C64 17.4315 50.5685 4 34 4C17.4315 4 4 17.4315 4 34C4 50.5685 17.4315 64 34 64Z"
    stroke="#292929" strokeWidth="2" strokeLinejoin="round" />
  <path
    d="M44.1292 48.8737C44.1292 48.8737 41.7372 42.8737 34.1292 42.8737C26.5212 42.8737 24.1292 48.8737 24.1292 48.8737"
    stroke="#292929" strokeWidth="2" strokeLinecap="round" strokeLinejoin="round" />
  <path
    d="M24.6292 32.1304C24.6292 33.5111 23.5099 34.6304 22.1292 34.6304C20.7485 34.6304 19.6292 33.5111 19.6292 32.1304C19.6292 30.7497 20.7485 29.6304 22.1292 29.6304C23.5099 29.6304 24.6292 30.7497 24.6292 32.1304Z"
    fill="#292929" stroke="#292929" />
  <path
    d="M48.6292 32.1304C48.6292 33.5111 47.5099 34.6304 46.1292 34.6304C44.7485 34.6304 43.6292 33.5111 43.6292 32.1304C43.6292 30.7497 44.7485 29.6304 46.1292 29.6304C47.5099 29.6304 48.6292 30.7497 48.6292 32.1304Z"
    fill="#292929" stroke="#292929" />
  <path
    d="M14.7553 23.6181C16.5344 19.9142 19.3229 16.7876 22.8 14.5982C26.2771 12.4087 30.3017 11.2452 34.4107 11.2415"
    stroke="white" strokeWidth="6" strokeLinecap="round" strokeLinejoin="round" />
</svg>