<svg width="100%" height="100%" viewBox="0 0 78 78" fill="none" xmlns="http://www.w3.org/2000/svg" id="gift_thin">
<path d="M12.998 35.749V61.749C12.998 63.4729 13.6829 65.1262 14.9019 66.3452C16.1208 67.5642 17.7741 68.249 19.498 68.249H58.498C60.222 68.249 61.8752 67.5642 63.0942 66.3452C64.3132 65.1262 64.998 63.4729 64.998 61.749V35.749" stroke="currentColor" stroke-width="2" stroke-linecap="round" stroke-linejoin="round"/>
<path d="M39 17.874C39 14.8572 37.8016 11.9639 35.6683 9.83068C33.5351 7.69746 30.6418 6.49902 27.625 6.49902C25.4701 6.49902 23.4035 7.35505 21.8798 8.87878C20.356 10.4025 19.5 12.4691 19.5 14.624C19.5 16.7789 20.356 18.8455 21.8798 20.3693C23.4035 21.893 25.4701 22.749 27.625 22.749H39M39 17.874V22.749M39 17.874C39 14.8572 40.1984 11.9639 42.3317 9.83068C44.4649 7.69746 47.3582 6.49902 50.375 6.49902C52.5299 6.49902 54.5965 7.35505 56.1202 8.87878C57.644 10.4025 58.5 12.4691 58.5 14.624C58.5 15.691 58.2898 16.7476 57.8815 17.7333C57.4732 18.7191 56.8747 19.6148 56.1202 20.3693C55.3658 21.1237 54.4701 21.7222 53.4843 22.1305C52.4985 22.5389 51.442 22.749 50.375 22.749H39" stroke="currentColor" stroke-width="2" stroke-linejoin="round"/>
<path d="M39 35.748V68.2481M9.75 22.748H68.25V35.748H9.75V22.748Z" stroke="currentColor" stroke-width="2" stroke-linecap="round" stroke-linejoin="round"/>
</svg>
