<svg xmlns="http://www.w3.org/2000/svg" width="100%" height="100%" viewBox="0 0 30 31" testId="" fill="none"
  id="money_flow">
  <title>MoneyFlow</title>
  <g clip-path="url(#clip0_64_5227)">
    <path
      d="M15.0302 30.8361C6.74198 30.8361 0 24.0933 0 15.8059C0 7.51859 6.74198 0.77478 15.0302 0.77478C23.3185 0.77478 30.0614 7.51765 30.0614 15.8059C30.0614 24.0942 23.3185 30.8361 15.0302 30.8361ZM15.0302 1.14229C6.945 1.14229 0.3675 7.72072 0.3675 15.8059C0.3675 23.8911 6.945 30.4686 15.0302 30.4686C23.1154 30.4686 29.6939 23.8911 29.6939 15.8059C29.6939 7.72072 23.1154 1.14229 15.0302 1.14229Z"
      fill="currentColor" />
    <path
      d="M20.5556 10.5711C19.121 9.0417 17.0817 8.08624 14.8193 8.08624C10.4764 8.08624 6.95581 11.6068 6.95581 15.9497C6.95581 16.6548 7.04862 17.3382 7.22267 17.9884"
      stroke="currentColor" strokeWidth="0.797506" strokeLinecap="round" />
    <path d="M20.353 7.5069L20.5972 10.6099" stroke="currentColor" strokeWidth="0.797506" strokeLinecap="round" />
    <path d="M20.5473 10.6104L17.4407 10.8045" stroke="currentColor" strokeWidth="0.797506" strokeLinecap="round" />
    <path
      d="M9.13306 21.1342C10.5677 22.6636 12.607 23.6191 14.8694 23.6191C19.2123 23.6191 22.7329 20.0985 22.7329 15.7555C22.7329 15.0505 22.64 14.3671 22.466 13.7169"
      stroke="currentColor" strokeWidth="0.797506" strokeLinecap="round" />
    <path d="M9.33568 24.1984L9.09155 21.0953" stroke="currentColor" strokeWidth="0.797506" strokeLinecap="round" />
    <path d="M9.1416 21.095L12.2481 20.9008" stroke="currentColor" strokeWidth="0.797506" strokeLinecap="round" />
    <path
      d="M14.7584 12.2131V13.2967H15.138V12.2131H14.7584ZM14.7584 18.4612V19.5684H15.1459V18.4612H14.7584ZM16.1899 14.5067L16.5458 14.2853C16.4825 14.0954 16.3797 13.9083 16.2373 13.7237C16.1003 13.5339 15.9236 13.3784 15.7075 13.2571C15.4913 13.1359 15.2329 13.0752 14.9324 13.0752C14.6529 13.0752 14.3972 13.1306 14.1652 13.2413C13.9385 13.352 13.7566 13.5076 13.6195 13.7079C13.4877 13.903 13.4218 14.1271 13.4218 14.3802C13.4218 14.6174 13.4666 14.8231 13.5562 14.9971C13.6512 15.1658 13.7697 15.3134 13.9122 15.44C14.0598 15.5612 14.2153 15.6641 14.3787 15.7484C14.5475 15.8275 14.703 15.8934 14.8454 15.9462C15.0563 16.0199 15.2593 16.1122 15.4544 16.223C15.6547 16.3284 15.8208 16.4655 15.9526 16.6342C16.0844 16.7977 16.1503 17.006 16.1503 17.259C16.1503 17.4752 16.1108 17.665 16.0317 17.8285C15.9526 17.9919 15.8287 18.1184 15.66 18.2081C15.4965 18.2977 15.283 18.3426 15.0194 18.3426C14.7558 18.3426 14.529 18.2819 14.3392 18.1606C14.1494 18.0394 13.9859 17.8759 13.8489 17.6703C13.7118 17.4647 13.5958 17.2379 13.5009 16.9901L13.1292 17.2037C13.2293 17.4884 13.3638 17.7494 13.5325 17.9866C13.7065 18.2186 13.9148 18.4058 14.1573 18.5482C14.4051 18.6853 14.6846 18.7538 14.9957 18.7538C15.3647 18.7538 15.6653 18.6879 15.8973 18.5561C16.1345 18.4243 16.3112 18.2424 16.4272 18.0104C16.5432 17.7784 16.6011 17.5174 16.6011 17.2274C16.6011 16.9901 16.559 16.7845 16.4746 16.6105C16.3902 16.4365 16.2795 16.2889 16.1424 16.1676C16.0054 16.041 15.8551 15.9356 15.6916 15.8512C15.5335 15.7669 15.3779 15.6957 15.225 15.6377C15.0035 15.5534 14.79 15.4611 14.5844 15.3609C14.3787 15.2554 14.21 15.1263 14.0782 14.9734C13.9464 14.8205 13.8805 14.6333 13.8805 14.4118C13.8805 14.222 13.9227 14.0586 14.007 13.9215C14.0914 13.7844 14.2127 13.6789 14.3708 13.6051C14.529 13.5313 14.7188 13.4944 14.9403 13.4944C15.1723 13.4944 15.3674 13.5445 15.5255 13.6447C15.689 13.7448 15.8234 13.874 15.9289 14.0322C16.0344 14.1851 16.1214 14.3433 16.1899 14.5067Z"
      fill="currentColor" />
  </g>
  <defs>
    <clip-path id="clip0_64_5227">
      <rect width="30" height="30" fill="white" transform="translate(0 0.77478)" />
    </clip-path>
  </defs>
</svg>