<svg xmlns="http://www.w3.org/2000/svg" width="100%" height="100%" viewBox="0 0 73 72" fill="none" testId="no_trial_time" id="no_trial_time">
<title>No Trial Time</title>
<g clip-path="url(#clip0_4707_4189)">
<path d="M54.1819 56.1359C63.9752 46.3426 63.9752 30.4645 54.1819 20.6712C44.3886 10.8779 28.5105 10.8779 18.7172 20.6712C8.9239 30.4645 8.9239 46.3426 18.7172 56.1359C28.5105 65.9292 44.3886 65.9292 54.1819 56.1359Z" stroke="#457A41" stroke-width="2.20408" stroke-linecap="round" stroke-linejoin="round"/>
<path d="M36.25 19.0288C39.6531 19.0288 42.9945 19.938 45.9284 21.6622C48.8624 23.3865 51.2825 25.8633 52.9383 28.8364C54.5942 31.8095 55.4257 35.171 55.3469 38.5732C55.2681 41.9754 54.2818 45.2948 52.4901 48.1881C50.6984 51.0813 48.1662 53.4434 45.1556 55.0299C42.1449 56.6165 38.765 57.37 35.3656 57.2124C31.9661 57.0549 28.6704 55.992 25.8194 54.1337C22.9685 52.2755 20.6657 49.6893 19.1492 46.6427L36.25 38.1309L36.25 19.0288Z" stroke="#457A41" stroke-width="2.20408" stroke-linecap="round" stroke-linejoin="round"/>
<path d="M26.6992 8.37573H45.8013" stroke="#457A41" stroke-width="2.20408" stroke-linecap="round"/>
</g>
<defs>
<clipPath id="clip0_4707_4189">
<rect width="72" height="72" fill="white" transform="translate(0.25)"/>
</clipPath>
</defs>
</svg>