<svg xmlns="http://www.w3.org/2000/svg" width="100%" height="100%" viewBox="0 0 32 32" testId="">
    <title>packs and bundles</title>
    <g clipPath="url(#clip0)">
        <path fillRule="evenodd" clipRule="evenodd"
            d="M32.1728 12.3895L22.4331 26.2927C22.3776 26.3673 22.3071 26.4191 22.2411 26.4523L22.2345 26.4556L22.2278 26.4586L22.2236 26.4604C22.0392 26.5557 21.7226 26.6233 21.1685 26.672C20.9024 26.6954 20.4245 26.7148 19.9846 26.729L20.6904 25.7215C20.7209 25.7199 20.7524 25.7182 20.784 25.7165C20.9324 25.7087 21.0848 25.7007 21.1629 25.6927C21.0999 25.5729 21.0264 25.3992 20.9883 25.2962L21.6974 24.2841C21.7575 24.587 21.8313 24.8321 21.9084 25.0233C21.9424 25.1076 21.9763 25.1796 22.0089 25.2405L30.9234 12.5065C30.3915 12.4592 29.6343 12.416 28.8072 12.4431C28.1861 12.4635 27.5328 12.5233 26.9092 12.6479L26.7369 11.6992C27.4411 11.5594 28.1616 11.4969 28.8267 11.4776C29.7725 11.4502 30.6199 11.51 31.1728 11.5671L29.5396 2.49474C28.0311 2.78832 23.2279 3.64014 18.3696 3.64014C13.5201 3.64014 8.7508 2.78833 7.24644 2.49476L6.52541 5.9166C6.26668 5.8827 6.016 5.84833 5.77437 5.81392C5.70445 5.80396 5.63529 5.794 5.56692 5.78405L6.38351 1.84519C6.40632 1.69702 6.49265 1.59953 6.5677 1.53901L6.57617 1.53218L6.5852 1.52612C6.70054 1.4486 6.82159 1.43108 6.93972 1.44809L6.95674 1.45054L6.97327 1.4553L6.98877 1.45855C7.02007 1.46529 7.0988 1.48225 7.22951 1.50876C7.40007 1.54335 7.64714 1.59187 7.96001 1.64961C8.58578 1.76511 9.47427 1.91745 10.54 2.06923C12.6725 2.37293 15.5097 2.67365 18.3696 2.67365C21.2294 2.67365 24.0785 2.37293 26.2218 2.0692C27.2928 1.91742 28.1864 1.76507 28.8152 1.64957C29.1296 1.59182 29.3777 1.54332 29.5486 1.50874C29.6341 1.49144 29.7 1.47767 29.7452 1.46801L29.7962 1.45686L29.8027 1.45537L29.8147 1.45132L29.8372 1.44809C29.9553 1.43108 30.0764 1.4486 30.1917 1.52612L30.2008 1.53218L30.2092 1.53901C30.2843 1.59953 30.3706 1.69701 30.3934 1.84518L32.2065 11.832H32.2195L32.254 12.0412C32.2746 12.1655 32.2389 12.2985 32.1728 12.3895ZM5.56692 5.78405C4.59319 5.64231 3.77909 5.50222 3.19437 5.3943C2.8815 5.33656 2.63444 5.28804 2.46387 5.25345C2.33316 5.22694 2.25443 5.20998 2.22314 5.20324C2.21162 5.20076 2.20764 5.19999 2.20764 5.19999L2.19111 5.19523L2.17408 5.19278C2.05595 5.17577 1.93491 5.19329 1.81956 5.27081L1.81053 5.27687L1.80207 5.2837C1.72702 5.34422 1.64068 5.44171 1.61787 5.58988L-0.195211 15.5767H-0.198977L-0.233569 15.7859C-0.25053 15.8885 -0.239303 16.0294 -0.150545 16.1463L9.58319 30.0411L9.58746 30.0469C9.64526 30.1246 9.70811 30.1655 9.7666 30.1953C9.94436 30.2947 10.2532 30.3643 10.8054 30.4145C11.3798 30.4666 12.2571 30.5 13.6039 30.5C14.9435 30.5 15.8241 30.4677 16.4055 30.4164C16.9598 30.3676 17.2761 30.2998 17.4601 30.2039L17.4615 30.2033L17.4683 30.2004L17.475 30.197C17.5409 30.1638 17.6115 30.112 17.667 30.0374L19.9846 26.729L20.6904 25.7215L20.9883 25.2962C21.3471 24.784 21.3429 24.7902 21.6974 24.2841L27.4067 16.1341C27.4727 16.0432 27.5085 15.9102 27.4879 15.7859L27.4533 15.5767H27.4409L26.9092 12.6479L26.7369 11.6992L25.6278 5.58987C25.605 5.4417 25.5186 5.34422 25.4436 5.2837L25.4351 5.27687L25.4261 5.27081C25.3108 5.19329 25.1897 5.17577 25.0716 5.19278L25.0491 5.19601L25.0371 5.20006L25.0305 5.20155L24.9795 5.2127C24.9344 5.22236 24.8685 5.23613 24.783 5.25343C24.6121 5.28801 24.364 5.33651 24.0496 5.39426C23.4207 5.50976 22.5272 5.66211 21.4561 5.81389C19.3129 6.11762 16.4638 6.41834 13.6039 6.41834C11.0681 6.41834 8.55014 6.18191 6.52541 5.9166L5.56692 5.78405ZM26.4072 15.3118C25.8542 15.2547 25.0068 15.1949 24.0611 15.2223C22.898 15.256 21.5653 15.4222 20.4467 15.9019C18.3103 16.8219 16.8546 19.5018 16.0593 23.6915L16.0581 23.6989C15.816 25.2208 15.7848 26.5223 15.8975 27.5491C15.9836 28.3344 16.156 28.9786 16.3972 29.4373C16.265 29.451 16.1107 29.4645 15.9313 29.477C15.2679 29.5138 14.4111 29.5335 13.6039 29.5335C12.7757 29.5335 11.8938 29.5121 11.2272 29.4724C11.085 29.4618 10.9603 29.4508 10.8511 29.4397C11.0946 28.9825 11.2662 28.3381 11.3514 27.5531C11.4632 26.5222 11.43 25.2126 11.1877 23.6801L11.1862 23.6724C10.3911 19.493 8.94515 16.8126 6.79899 15.8924C5.68491 15.4125 4.35464 15.2465 3.19166 15.2128C2.24462 15.1853 1.39468 15.2453 0.838839 15.3025L2.4808 6.23945C3.98517 6.53302 8.75449 7.38483 13.6039 7.38483C18.4623 7.38483 23.2655 6.53301 24.774 6.23943L26.4072 15.3118ZM24.0411 16.1878C22.9571 16.2234 21.7747 16.3793 20.8241 16.7894C19.9567 17.1604 19.1919 17.9225 18.5467 19.1038C17.9017 20.2848 17.3843 21.8698 17.0047 23.8574C16.7322 25.5736 16.7479 26.8474 16.8804 27.7323C16.9467 28.1752 17.0418 28.5174 17.1425 28.7675C17.1765 28.8518 17.2104 28.9239 17.243 28.9848L26.1573 16.2512C25.6253 16.2038 24.8681 16.1607 24.0411 16.1878ZM1.10048 16.2559L10.0086 28.9771C10.0412 28.9144 10.0747 28.8408 10.1082 28.7553C10.2074 28.5022 10.3002 28.1588 10.3646 27.7163C10.4934 26.832 10.5069 25.5643 10.2409 23.857C9.8613 21.8696 9.34393 20.2872 8.69898 19.1075C8.054 17.9277 7.28988 17.1653 6.42181 16.7895C5.47452 16.3847 4.29727 16.2307 3.2163 16.1951C2.39124 16.1679 1.63478 16.21 1.10048 16.2559Z"
            fill="currentColor"></path>
    </g>
    <defs>
        <clipPath id="clip0">
            <rect width="32" height="32" fill="white"></rect>
        </clipPath>
    </defs>
</svg>