<svg xmlns="http://www.w3.org/2000/svg" width="100%" height="100%" viewBox="0 0 41 41" fill="none" testId="pain"
    id="pain">
    <title>Pain</title>
    <path fill-rule="evenodd" clip-rule="evenodd"
        d="M15.9849 36.8991C15.8732 36.8888 15.7646 36.8566 15.6653 36.8043C15.566 36.752 15.478 36.6807 15.4063 36.5944C15.3346 36.5081 15.2806 36.4085 15.2474 36.3013C15.2142 36.1941 15.2024 36.0814 15.2128 35.9697L15.8987 28.5248L19.3538 30.3527L20.1481 25.5745C20.1854 25.351 20.3099 25.1515 20.4943 25.0198C20.5856 24.9546 20.6888 24.9081 20.7981 24.8828C20.9074 24.8575 21.0206 24.8539 21.1313 24.8724C21.2419 24.8908 21.3479 24.9309 21.4431 24.9903C21.5382 25.0497 21.6208 25.1272 21.686 25.2185C21.7512 25.3098 21.7977 25.4131 21.823 25.5224C21.8483 25.6317 21.8519 25.7449 21.8334 25.8555L20.6495 32.9707L17.3644 31.2334L16.9143 36.1269C16.904 36.2386 16.8718 36.3472 16.8195 36.4465C16.7672 36.5458 16.6959 36.6338 16.6096 36.7055C16.5233 36.7772 16.4237 36.8312 16.3165 36.8644C16.2093 36.8976 16.0967 36.9094 15.9849 36.8991ZM4.01977 25.4139C3.96502 25.316 3.93009 25.2083 3.91698 25.0968C3.90388 24.9854 3.91285 24.8725 3.94339 24.7645C3.97392 24.6566 4.02543 24.5557 4.09496 24.4677C4.16449 24.3796 4.25069 24.3061 4.34862 24.2514L11.1333 20.4598L11.6022 24.523L16.2514 22.3534C16.4568 22.2577 16.6918 22.2475 16.9047 22.3251C17.1175 22.4026 17.2909 22.5615 17.3866 22.7669C17.4823 22.9722 17.4926 23.2072 17.415 23.4201C17.3375 23.633 17.1786 23.8063 16.9732 23.9021L10.1766 27.0736L9.72988 23.2016L5.18229 25.7428C4.98461 25.8531 4.75122 25.8804 4.5334 25.8188C4.31558 25.7571 4.1303 25.6115 4.01977 25.4139ZM7.99079 8.15891C8.10833 7.96542 8.29788 7.8265 8.51778 7.77269C8.73768 7.71887 8.96996 7.75456 9.16356 7.87191L15.9687 12.0018L12.5717 14.4814L16.9006 17.5624C16.992 17.6275 17.0697 17.7099 17.1293 17.805C17.1889 17.9001 17.2291 18.006 17.2477 18.1166C17.2664 18.2273 17.2631 18.3405 17.2379 18.4499C17.2128 18.5592 17.1664 18.6626 17.1013 18.754C17.0363 18.8454 16.9538 18.9231 16.8588 18.9827C16.7637 19.0422 16.6578 19.0825 16.5471 19.1011C16.4365 19.1198 16.3232 19.1164 16.2139 19.0913C16.1045 19.0662 16.0012 19.0198 15.9098 18.9547L9.64958 14.4994L12.892 12.1333L8.27779 9.33168C8.0843 9.21414 7.94539 9.02459 7.89157 8.80469C7.83776 8.58479 7.87344 8.35251 7.99079 8.15891ZM26.6988 4.55945C26.9216 4.59902 27.1196 4.72541 27.2493 4.91087C27.3791 5.09632 27.4299 5.32568 27.3906 5.54857L26.1077 12.8278L22.8593 10.7496L21.6925 15.3647C21.6358 15.583 21.495 15.77 21.3009 15.8849C21.1068 15.9998 20.8752 16.0332 20.6565 15.978C20.4378 15.9227 20.2499 15.7832 20.1337 15.5899C20.0175 15.3966 19.9825 15.1652 20.0363 14.9461L21.7839 8.03249L24.87 10.0082L25.7088 5.25218C25.7283 5.14168 25.7693 5.0361 25.8296 4.94147C25.8899 4.84685 25.9683 4.76504 26.0602 4.70071C26.1522 4.63638 26.2559 4.59079 26.3654 4.56655C26.475 4.54232 26.5883 4.5399 26.6988 4.55945ZM37.4587 16.5391C37.5127 16.6375 37.5468 16.7454 37.5591 16.8569C37.5714 16.9685 37.5616 17.0813 37.5302 17.189C37.4989 17.2967 37.4467 17.3972 37.3765 17.4847C37.3063 17.5722 37.2196 17.6451 37.1213 17.6991L30.616 21.2669L30.2034 17.4155L25.8497 19.4057C25.6436 19.5 25.4084 19.5084 25.196 19.4293C24.9836 19.3502 24.8113 19.1899 24.7171 18.9838C24.6228 18.7776 24.6144 18.5425 24.6935 18.3301C24.7726 18.1176 24.9329 17.9454 25.139 17.8511L31.6486 14.8769L32.0416 18.5362L36.2996 16.2009C36.4982 16.0921 36.7318 16.0667 36.9491 16.1301C37.1665 16.1935 37.3498 16.3406 37.4587 16.5391ZM33.0256 32.0218C32.908 32.2153 32.7185 32.3542 32.4986 32.408C32.2787 32.4618 32.0464 32.4261 31.8528 32.3088L25.4303 28.4112L28.6052 26.0938L24.6317 23.2657C24.5402 23.2006 24.4625 23.1182 24.403 23.0231C24.3434 22.928 24.3032 22.8221 24.2845 22.7115C24.2659 22.6008 24.2692 22.4876 24.2943 22.3783C24.3195 22.2689 24.3659 22.1656 24.4309 22.0741C24.5623 21.8895 24.7617 21.7646 24.9851 21.727C25.0958 21.7084 25.209 21.7117 25.3184 21.7368C25.4277 21.7619 25.5311 21.8083 25.6225 21.8734L31.5265 26.0759L28.507 28.2797L32.7386 30.8481C32.8345 30.9063 32.918 30.9829 32.9843 31.0733C33.0507 31.1638 33.0985 31.2665 33.1252 31.3755C33.1518 31.4845 33.1568 31.5976 33.1397 31.7085C33.1226 31.8194 33.0838 31.9259 33.0256 32.0218Z"
        fill="black" />
</svg>