<svg width="100%" height="100%" viewBox="0 0 20 20" fill="none" xmlns="http://www.w3.org/2000/svg" id="paint_brush">
    <path d="M7.63368 12.0964C7.28232 12.1177 6.97756 12.1474 6.71791 12.1848C6.38598 12.2327 6.05584 12.3141 5.72704 12.4301C5.41652 12.5395 5.16278 12.6789 4.95742 12.8425C4.74583 13.011 4.53545 13.2374 4.32976 13.5314C4.13179 13.8143 3.94771 14.1697 3.78249 14.6053L7.63368 12.0964ZM7.63368 12.0964C7.92725 12.5703 8.29715 12.9854 8.74091 13.3401C9.16676 13.6804 9.63248 13.9432 10.1359 14.1273L10.1406 14.4548L10.1406 14.4576C10.1666 15.8387 9.75138 16.9136 8.92663 17.7405C8.10034 18.5689 7.0152 18.9999 5.61335 18.9999C4.81027 18.9999 4.12345 18.8486 3.53857 18.5627C2.94316 18.2716 2.47771 17.8796 2.12835 17.388C1.75931 16.8688 1.47848 16.278 1.28853 15.6106C1.20148 15.3048 1.13384 14.9864 1.08603 14.6551C1.11185 14.6732 1.13736 14.691 1.16256 14.7085C1.38092 14.8604 1.61008 15.002 1.84979 15.1333C1.97626 15.2025 2.1008 15.2626 2.21987 15.3065C2.3319 15.3479 2.47618 15.3892 2.63145 15.3892C2.86878 15.3892 3.11496 15.3349 3.33347 15.1881C3.55365 15.0401 3.69698 14.8309 3.78241 14.6055L7.63368 12.0964ZM18.6397 1.34749L19.0373 0.898117L18.6397 1.34749C18.8868 1.56608 19.0004 1.8187 19.0004 2.14633C19.0004 2.4616 18.8848 2.9017 18.5854 3.48731C17.4022 5.72636 16.4008 7.50651 15.5801 8.83231C14.7481 10.1763 14.1319 11.0028 13.7229 11.3806L13.7229 11.3806L13.7197 11.3835C13.1254 11.9405 12.4889 12.1963 11.7917 12.1963C11.0567 12.1963 10.4357 11.9343 9.89808 11.3854C9.35838 10.8344 9.09871 10.2002 9.09871 9.45347C9.09871 8.70302 9.36019 8.10867 9.88929 7.62587C9.88947 7.6257 9.88966 7.62553 9.88985 7.62536L16.7319 1.42301L16.7337 1.4213C17.06 1.12299 17.3846 0.999902 17.7233 0.999902C18.0772 0.999902 18.3738 1.11225 18.6397 1.34749Z" stroke="currentColor" stroke-width="1.2"/>
</svg>
