<svg width="42" height="42" viewBox="0 0 42 42" fill="none" xmlns="http://www.w3.org/2000/svg" id="priority_support_2">
<rect width="42" height="42" rx="21" fill="#FCD9D1"/>
<g clip-path="url(#clip0_639_11516)">
    <path d="M7.21923 15.365C7.38533 14.7264 7.6788 14.1723 8.20131 13.7622C8.65408 13.4085 9.20661 13.2154 9.77562 13.2121C10.1228 13.2036 10.4386 13.5212 10.4667 13.8607C10.4991 14.2558 10.2826 14.5743 9.9209 14.6653C8.76498 14.956 8.63326 15.129 8.63326 16.3551C8.63326 19.5845 8.63326 22.815 8.63326 26.0464C8.63326 26.941 9.06731 27.3883 9.93542 27.3883C10.303 27.3883 10.671 27.3883 11.0386 27.3883C11.5916 27.3917 11.9034 27.7059 11.9078 28.2779C11.9141 29.0597 11.9078 29.8419 11.9102 30.6242C11.9102 30.6779 11.9165 30.732 11.9199 30.7852C12.0168 30.8086 12.0337 30.7291 12.07 30.6858C12.8773 29.7246 13.6874 28.765 14.4869 27.7963C14.7252 27.508 15.0017 27.3798 15.375 27.3808C18.7101 27.3898 22.0448 27.3858 25.3798 27.3868C25.9256 27.3868 26.2515 27.6959 26.2267 28.1859C26.2182 28.3481 26.156 28.5024 26.0503 28.6232C25.9446 28.7441 25.8018 28.8243 25.6457 28.8504C25.4592 28.8769 25.2712 28.8895 25.083 28.8882C22.0079 28.8902 18.9329 28.8891 15.8579 28.8847C15.592 28.8847 15.4148 28.9657 15.24 29.1769C14.2831 30.3343 13.3162 31.4827 12.3393 32.6221C11.9151 33.1191 11.378 33.1876 10.8991 32.8482C10.5267 32.5843 10.4439 32.1822 10.441 31.7549C10.4347 30.9179 10.4289 30.0804 10.4444 29.243C10.4497 28.9597 10.3543 28.8777 10.0875 28.8842C9.13204 28.909 8.30542 28.6174 7.70301 27.8072C7.46475 27.4862 7.33497 27.1159 7.21875 26.7387L7.21923 15.365Z" fill="#882A2B"/>
    <path d="M23.6736 8.94345C26.4967 8.94345 29.3201 8.94345 32.1437 8.94345C33.3916 8.94345 34.3383 9.678 34.6991 10.9036C34.756 11.1069 34.7835 11.3178 34.7804 11.5293C34.7804 15.0251 34.7843 18.5205 34.7775 22.0158C34.7775 23.4074 33.6637 24.5574 32.3049 24.6001C32.1527 24.6099 32 24.6099 31.8478 24.6001C31.6154 24.5778 31.5325 24.6648 31.5359 24.9103C31.548 25.7551 31.5398 26.603 31.5407 27.4494C31.5476 27.6612 31.5181 27.8724 31.4536 28.0736C31.179 28.8405 30.243 29.0219 29.6788 28.4036C29.274 27.9613 28.9001 27.4902 28.5137 27.0305C27.8928 26.2929 27.2692 25.5574 26.6556 24.8129C26.5195 24.6474 26.3684 24.5987 26.1655 24.5992C22.5084 24.6038 18.8513 24.6038 15.1942 24.5992C13.9352 24.5992 12.9608 23.8572 12.6233 22.6609C12.557 22.4219 12.5243 22.1744 12.5265 21.9259C12.5265 18.4857 12.5273 15.0453 12.5289 11.6048C12.5289 10.1009 13.6528 8.94892 15.1221 8.94494C17.9729 8.93798 20.8232 8.94345 23.6736 8.94345ZM30.0691 26.6066V26.3824C30.0691 25.5728 30.0643 24.7632 30.0715 23.9541C30.0759 23.4387 30.3824 23.1346 30.8803 23.1311C31.2677 23.1286 31.6512 23.1311 32.0362 23.1311C32.8923 23.1246 33.3466 22.6564 33.3466 21.7793C33.3466 18.4405 33.3466 15.1015 33.3466 11.7624C33.3466 10.8847 32.8909 10.4155 32.0347 10.415H15.2838C14.4122 10.415 13.9608 10.8802 13.9603 11.7788C13.9603 15.0904 13.9603 18.4017 13.9603 21.7126C13.9603 22.6892 14.3889 23.132 15.3361 23.132C19.1004 23.132 22.8645 23.1306 26.6285 23.1276C26.982 23.1276 27.2488 23.2443 27.4701 23.5202C27.7437 23.8611 28.0299 24.1906 28.3112 24.5246C28.8774 25.1976 29.4478 25.8705 30.0691 26.6066Z" fill="#882A2B"/>
    <path d="M20.0596 17.0256C20.0586 16.7935 20.1467 16.5705 20.3047 16.4045C20.4627 16.2387 20.6781 16.1433 20.9041 16.1389C21.3617 16.1389 21.7603 16.5519 21.7569 17.0251C21.7536 17.2526 21.6644 17.47 21.5081 17.6314C21.3516 17.7927 21.1403 17.8853 20.9186 17.8898C20.8067 17.892 20.6954 17.8713 20.5913 17.8288C20.4872 17.7864 20.3925 17.7231 20.3125 17.6427C20.2325 17.5622 20.1689 17.4662 20.1255 17.3602C20.0821 17.2543 20.0596 17.1405 20.0596 17.0256Z" fill="#882A2B"/>
    <path d="M27.2471 17.0155C27.2483 17.1304 27.2271 17.2444 27.1849 17.3509C27.1427 17.4574 27.0803 17.5541 27.0013 17.6355C26.9223 17.7171 26.8283 17.7816 26.7247 17.8253C26.6212 17.8691 26.5102 17.8913 26.3982 17.8907C26.1764 17.8883 25.9641 17.7979 25.8059 17.6383C25.6477 17.4787 25.5559 17.2624 25.5498 17.0349C25.5504 16.8028 25.6386 16.58 25.7957 16.4132C25.9529 16.2465 26.1669 16.1486 26.3929 16.1403C26.853 16.1313 27.2457 16.5344 27.2471 17.0155Z" fill="#882A2B"/>
    <path d="M24.503 17.025C24.4977 17.2524 24.4059 17.4687 24.2474 17.6276C24.0888 17.7865 23.876 17.8755 23.6543 17.8755C23.4327 17.8755 23.2199 17.7865 23.0613 17.6276C22.9027 17.4687 22.811 17.2524 22.8057 17.025C22.8065 16.7929 22.8957 16.5703 23.0542 16.4046C23.2127 16.239 23.428 16.1435 23.6541 16.1384C24.1136 16.1384 24.5054 16.5475 24.503 17.025Z" fill="#882A2B"/>
</g>
<defs>
    <clipPath id="clip0_639_11516">
        <rect width="27.5625" height="27.5625" fill="white" transform="translate(7.21875 7.21875)"/>
    </clipPath>
</defs>
</svg>
