<svg xmlns="http://www.w3.org/2000/svg" width="100%" height="100%" viewBox="0 0 43 72" fill="none" testId="product_question_mark">
<title>Product Question Mark</title>
<path d="M19.6431 13.4119H1.73486V37.2636H19.6431V13.4119Z" stroke="#457A41" stroke-width="2.20408" stroke-linecap="round" stroke-linejoin="round"/>
<path d="M19.6294 37.2635H1.72119V71.4494H19.6294V37.2635Z" stroke="#457A41" stroke-width="2.20408" stroke-linecap="round" stroke-linejoin="round"/>
<circle cx="24.9645" cy="17.2653" r="17.2653" fill="white"/>
<path d="M24.965 22.3667C24.0259 22.3667 23.2646 23.128 23.2646 24.0672C23.2646 25.0063 24.0259 25.7676 24.965 25.7676C25.9042 25.7676 26.6655 25.0063 26.6655 24.0672C26.6655 23.128 25.9042 22.3667 24.965 22.3667ZM25.4308 20.9092H24.4591C24.0567 20.9092 23.7304 20.5829 23.7304 20.1804V20.1573C23.7304 15.8853 28.4334 16.2936 28.4334 13.6343C28.4334 12.4187 27.3547 11.1923 24.945 11.1923C23.1751 11.1923 22.2567 11.7782 21.3491 12.9347C21.1117 13.2372 20.6777 13.2988 20.3623 13.079L19.5647 12.5233C19.2231 12.2853 19.1481 11.8085 19.404 11.4802C20.6931 9.82666 22.2226 8.76302 24.945 8.76302C28.1224 8.76302 30.8626 10.5698 30.8626 13.6343C30.8626 17.7284 26.1596 17.5119 26.1596 20.1573V20.1804C26.1596 20.5829 25.8333 20.9092 25.4308 20.9092ZM24.965 4.14749C32.169 4.14749 38.0829 9.98219 38.0829 17.2653C38.0829 24.51 32.2157 30.3832 24.965 30.3832C17.7233 30.3832 11.8472 24.5189 11.8472 17.2653C11.8472 10.026 17.7139 4.14749 24.965 4.14749ZM24.965 2.2041C16.6475 2.2041 9.90381 8.95025 9.90381 17.2653C9.90381 25.5853 16.6475 32.3266 24.965 32.3266C33.2825 32.3266 40.0263 25.5853 40.0263 17.2653C40.0263 8.95025 33.2825 2.2041 24.965 2.2041Z" fill="#457A41"/>
</svg>