<svg width="100%" height="100%" viewBox="0 0 26 24" fill="none" xmlns="http://www.w3.org/2000/svg" id="returns">
    <mask id="path-1-outside-1_3439_31718" maskUnits="userSpaceOnUse" x="0" y="0.714355" width="26" height="22" fill="currentColor">
        <rect fill="white" y="0.714355" width="26" height="22"/>
        <path fill-rule="evenodd" clip-rule="evenodd" d="M22.6855 13.2789C22.5786 13.2789 22.5074 13.243 22.4362 13.1712L20.4777 11.2335C20.4065 11.1617 20.3709 11.09 20.3709 10.9823C20.3709 10.8747 20.4065 10.8029 20.4777 10.7311C20.549 10.6593 20.6202 10.6235 20.727 10.6235C20.8338 10.6235 20.905 10.6593 20.9763 10.7311L22.2938 12.0947V11.7718C22.2582 7.75274 19.73 4.20021 15.9911 2.90839C13.6053 2.08305 11.0772 2.26247 8.86944 3.37488C6.66173 4.48729 4.98814 6.38914 4.20475 8.75749C4.20475 8.82926 4.13354 8.90103 4.02671 8.9728C3.97231 9.02762 3.89712 9.01962 3.83291 9.01279C3.81306 9.01068 3.79427 9.00868 3.77745 9.00868C3.70624 9.00868 3.63502 8.93691 3.5638 8.82926C3.5094 8.77443 3.51734 8.69867 3.52412 8.63395C3.52621 8.61396 3.5282 8.59501 3.5282 8.57807C4.34719 6.0303 6.1276 3.94902 8.54897 2.76485C10.9347 1.54479 13.6766 1.40125 16.2048 2.26247C20.2641 3.62607 23.0059 7.46566 23.0059 11.8076V12.1306L24.3947 10.7311C24.4659 10.6593 24.5371 10.6235 24.6439 10.6235C24.7507 10.6235 24.822 10.6593 24.8932 10.7311C24.9644 10.8029 25 10.8747 25 10.9823C25 11.09 24.9644 11.1617 24.8932 11.2335L22.9347 13.1712C22.8635 13.243 22.7923 13.2789 22.6855 13.2789ZM12.8932 22.2857C11.7893 22.2857 10.7211 22.1063 9.68843 21.7475C5.62908 20.348 2.88724 16.5084 2.85163 12.1306V11.8076L1.56973 13.0994C1.49852 13.1712 1.4273 13.2071 1.32047 13.2071C1.23595 13.2071 1.19601 13.1846 1.14774 13.1575C1.135 13.1503 1.12169 13.1428 1.10682 13.1353C1.03561 13.0635 1 12.9918 1 12.8841C1 12.7765 1.03561 12.7047 1.07122 12.6329L3.02967 10.6952C3.10089 10.6234 3.17211 10.5875 3.27893 10.5875C3.38576 10.5875 3.45697 10.6234 3.52819 10.6952L5.45104 12.6688C5.52225 12.7406 5.55786 12.8124 5.55786 12.92C5.55786 13.0277 5.52225 13.0994 5.45104 13.1712C5.37982 13.243 5.3086 13.2788 5.20178 13.2788C5.09495 13.2788 5.02374 13.243 4.95252 13.1712L3.5638 11.6999V12.0229C3.52819 14.7142 4.63205 17.2979 6.5905 19.0921L6.80415 19.3074V9.65455C6.80415 9.61867 6.80415 9.5469 6.83976 9.51102L7.80119 7.93212C7.81899 7.91418 7.83679 7.88726 7.8546 7.86035C7.8724 7.83344 7.89021 7.80652 7.90801 7.78858C7.94362 7.71681 8.01484 7.68093 8.12166 7.68093H17.8427C17.9852 7.68093 18.092 7.78858 18.1632 7.968L19.089 9.51102C19.089 9.52896 19.0979 9.55587 19.1068 9.58279C19.1157 9.6097 19.1246 9.63661 19.1246 9.65455V19.1638L19.3383 18.9485C20.4421 17.872 21.2255 16.5802 21.6884 15.1807C21.724 15.0731 21.7952 15.0013 21.8665 14.9654C21.9377 14.9295 22.0445 14.9295 22.1157 14.9654H22.1513C22.2582 15.0013 22.3294 15.0731 22.365 15.1448C22.4006 15.2525 22.4006 15.3242 22.365 15.4319C21.5816 17.9438 19.7656 20.0251 17.3442 21.2451C15.8843 21.9269 14.3887 22.2857 12.8932 22.2857ZM18.2344 9.3316L17.6291 8.32684H14.3531L14.5312 9.3316H18.2344ZM13.6409 8.32684H12.2522L12.0386 9.3316H13.8546L13.6409 8.32684ZM13.9614 9.97751H12.003V12.9918L12.8932 12.7765H13L13.9614 12.9918V9.97751ZM11.5757 8.32684H8.2997L7.72997 9.3316H11.3976L11.5757 8.32684ZM11.3264 9.97751H7.48071H7.4451V19.7739L7.51632 19.8098C8.26409 20.348 9.04748 20.7786 9.86647 21.0298C10.8279 21.3528 11.8605 21.5322 12.8576 21.5322C14.816 21.5322 16.7745 20.9222 18.3769 19.7021L18.4481 19.6662V9.97751H14.5312L14.4955 13.4583V13.4942C14.4599 13.6377 14.3175 13.7095 14.1751 13.7095H14.1039L12.9288 13.3865L11.7537 13.7095H11.6825C11.5401 13.7095 11.4332 13.6377 11.362 13.4583C11.3264 13.4224 11.3264 9.97751 11.3264 9.97751Z"/>
    </mask>
    <path fill-rule="evenodd" clip-rule="evenodd" d="M22.6855 13.2789C22.5786 13.2789 22.5074 13.243 22.4362 13.1712L20.4777 11.2335C20.4065 11.1617 20.3709 11.09 20.3709 10.9823C20.3709 10.8747 20.4065 10.8029 20.4777 10.7311C20.549 10.6593 20.6202 10.6235 20.727 10.6235C20.8338 10.6235 20.905 10.6593 20.9763 10.7311L22.2938 12.0947V11.7718C22.2582 7.75274 19.73 4.20021 15.9911 2.90839C13.6053 2.08305 11.0772 2.26247 8.86944 3.37488C6.66173 4.48729 4.98814 6.38914 4.20475 8.75749C4.20475 8.82926 4.13354 8.90103 4.02671 8.9728C3.97231 9.02762 3.89712 9.01962 3.83291 9.01279C3.81306 9.01068 3.79427 9.00868 3.77745 9.00868C3.70624 9.00868 3.63502 8.93691 3.5638 8.82926C3.5094 8.77443 3.51734 8.69867 3.52412 8.63395C3.52621 8.61396 3.5282 8.59501 3.5282 8.57807C4.34719 6.0303 6.1276 3.94902 8.54897 2.76485C10.9347 1.54479 13.6766 1.40125 16.2048 2.26247C20.2641 3.62607 23.0059 7.46566 23.0059 11.8076V12.1306L24.3947 10.7311C24.4659 10.6593 24.5371 10.6235 24.6439 10.6235C24.7507 10.6235 24.822 10.6593 24.8932 10.7311C24.9644 10.8029 25 10.8747 25 10.9823C25 11.09 24.9644 11.1617 24.8932 11.2335L22.9347 13.1712C22.8635 13.243 22.7923 13.2789 22.6855 13.2789ZM12.8932 22.2857C11.7893 22.2857 10.7211 22.1063 9.68843 21.7475C5.62908 20.348 2.88724 16.5084 2.85163 12.1306V11.8076L1.56973 13.0994C1.49852 13.1712 1.4273 13.2071 1.32047 13.2071C1.23595 13.2071 1.19601 13.1846 1.14774 13.1575C1.135 13.1503 1.12169 13.1428 1.10682 13.1353C1.03561 13.0635 1 12.9918 1 12.8841C1 12.7765 1.03561 12.7047 1.07122 12.6329L3.02967 10.6952C3.10089 10.6234 3.17211 10.5875 3.27893 10.5875C3.38576 10.5875 3.45697 10.6234 3.52819 10.6952L5.45104 12.6688C5.52225 12.7406 5.55786 12.8124 5.55786 12.92C5.55786 13.0277 5.52225 13.0994 5.45104 13.1712C5.37982 13.243 5.3086 13.2788 5.20178 13.2788C5.09495 13.2788 5.02374 13.243 4.95252 13.1712L3.5638 11.6999V12.0229C3.52819 14.7142 4.63205 17.2979 6.5905 19.0921L6.80415 19.3074V9.65455C6.80415 9.61867 6.80415 9.5469 6.83976 9.51102L7.80119 7.93212C7.81899 7.91418 7.83679 7.88726 7.8546 7.86035C7.8724 7.83344 7.89021 7.80652 7.90801 7.78858C7.94362 7.71681 8.01484 7.68093 8.12166 7.68093H17.8427C17.9852 7.68093 18.092 7.78858 18.1632 7.968L19.089 9.51102C19.089 9.52896 19.0979 9.55587 19.1068 9.58279C19.1157 9.6097 19.1246 9.63661 19.1246 9.65455V19.1638L19.3383 18.9485C20.4421 17.872 21.2255 16.5802 21.6884 15.1807C21.724 15.0731 21.7952 15.0013 21.8665 14.9654C21.9377 14.9295 22.0445 14.9295 22.1157 14.9654H22.1513C22.2582 15.0013 22.3294 15.0731 22.365 15.1448C22.4006 15.2525 22.4006 15.3242 22.365 15.4319C21.5816 17.9438 19.7656 20.0251 17.3442 21.2451C15.8843 21.9269 14.3887 22.2857 12.8932 22.2857ZM18.2344 9.3316L17.6291 8.32684H14.3531L14.5312 9.3316H18.2344ZM13.6409 8.32684H12.2522L12.0386 9.3316H13.8546L13.6409 8.32684ZM13.9614 9.97751H12.003V12.9918L12.8932 12.7765H13L13.9614 12.9918V9.97751ZM11.5757 8.32684H8.2997L7.72997 9.3316H11.3976L11.5757 8.32684ZM11.3264 9.97751H7.48071H7.4451V19.7739L7.51632 19.8098C8.26409 20.348 9.04748 20.7786 9.86647 21.0298C10.8279 21.3528 11.8605 21.5322 12.8576 21.5322C14.816 21.5322 16.7745 20.9222 18.3769 19.7021L18.4481 19.6662V9.97751H14.5312L14.4955 13.4583V13.4942C14.4599 13.6377 14.3175 13.7095 14.1751 13.7095H14.1039L12.9288 13.3865L11.7537 13.7095H11.6825C11.5401 13.7095 11.4332 13.6377 11.362 13.4583C11.3264 13.4224 11.3264 9.97751 11.3264 9.97751Z" fill="currentColor"/>
    <path d="M22.4362 13.1712L22.5782 13.0304L22.5769 13.0291L22.4362 13.1712ZM20.4777 11.2335L20.3358 11.3744L20.3371 11.3757L20.4777 11.2335ZM20.9763 10.7311L21.1201 10.5921L21.1182 10.5902L20.9763 10.7311ZM22.2938 12.0947L22.1499 12.2337L22.4938 12.5895V12.0947H22.2938ZM22.2938 11.7718H22.4938L22.4938 11.77L22.2938 11.7718ZM15.9911 2.90839L15.9257 3.0974L15.9258 3.09742L15.9911 2.90839ZM8.86944 3.37488L8.77945 3.19627H8.77945L8.86944 3.37488ZM4.20475 8.75749L4.01487 8.69468L4.00475 8.72527V8.75749H4.20475ZM4.02671 8.9728L3.91518 8.80678L3.89872 8.81784L3.88475 8.83192L4.02671 8.9728ZM3.83291 9.01279L3.85407 8.81391L3.85406 8.81391L3.83291 9.01279ZM3.5638 8.82926L3.73061 8.71891L3.7197 8.70242L3.70577 8.68839L3.5638 8.82926ZM3.52412 8.63395L3.32521 8.61311L3.52412 8.63395ZM3.5282 8.57807L3.33779 8.51686L3.3282 8.54672V8.57807H3.5282ZM8.54897 2.76485L8.63685 2.94454L8.64003 2.94292L8.54897 2.76485ZM16.2048 2.26247L16.1403 2.45179L16.1411 2.45206L16.2048 2.26247ZM23.0059 12.1306H22.8059V12.6161L23.1479 12.2715L23.0059 12.1306ZM24.3947 10.7311L24.2527 10.5902L24.3947 10.7311ZM24.8932 11.2335L25.0338 11.3757L25.0351 11.3744L24.8932 11.2335ZM22.9347 13.1712L22.794 13.0291L22.7928 13.0304L22.9347 13.1712ZM9.68843 21.7475L9.75408 21.5586L9.75361 21.5584L9.68843 21.7475ZM2.85163 12.1306H2.65163L2.65164 12.1322L2.85163 12.1306ZM2.85163 11.8076H3.05163V11.3221L2.70967 11.6667L2.85163 11.8076ZM1.56973 13.0994L1.42777 12.9586L1.42777 12.9586L1.56973 13.0994ZM1.14774 13.1575L1.2458 12.9831L1.24579 12.9831L1.14774 13.1575ZM1.10682 13.1353L0.964859 13.2762L0.987777 13.2993L1.01683 13.3139L1.10682 13.1353ZM1.07122 12.6329L0.930549 12.4908L0.906865 12.5142L0.892057 12.544L1.07122 12.6329ZM3.02967 10.6952L3.17035 10.8374L3.17164 10.8361L3.02967 10.6952ZM3.52819 10.6952L3.67145 10.5556L3.67015 10.5543L3.52819 10.6952ZM5.45104 12.6688L5.30778 12.8084L5.30907 12.8097L5.45104 12.6688ZM5.45104 13.1712L5.30907 13.0303L5.30907 13.0303L5.45104 13.1712ZM4.95252 13.1712L4.80703 13.3085L4.81056 13.3121L4.95252 13.1712ZM3.5638 11.6999L3.70924 11.5627L3.3638 11.1967V11.6999H3.5638ZM3.5638 12.0229L3.7638 12.0255V12.0229H3.5638ZM6.5905 19.0921L6.73263 18.951L6.72561 18.9446L6.5905 19.0921ZM6.80415 19.3074L6.66219 19.4482L7.00415 19.7929V19.3074H6.80415ZM6.83976 9.51102L6.98173 9.65189L6.99833 9.63516L7.01058 9.61503L6.83976 9.51102ZM7.80119 7.93212L7.65922 7.79124L7.64262 7.80797L7.63036 7.8281L7.80119 7.93212ZM7.8546 7.86035L8.0214 7.9707L8.0214 7.9707L7.8546 7.86035ZM7.90801 7.78858L8.04998 7.92946L8.07278 7.90647L8.08717 7.87747L7.90801 7.78858ZM18.1632 7.968L17.9773 8.04179L17.9833 8.05693L17.9917 8.0709L18.1632 7.968ZM19.089 9.51102H19.289V9.45562L19.2605 9.40812L19.089 9.51102ZM19.1068 9.58279L19.2967 9.51998L19.2967 9.51997L19.1068 9.58279ZM19.1246 19.1638H18.9246V19.6493L19.2666 19.3047L19.1246 19.1638ZM19.3383 18.9485L19.1986 18.8053L19.1963 18.8077L19.3383 18.9485ZM21.6884 15.1807L21.4985 15.1179V15.1179L21.6884 15.1807ZM21.8665 14.9654L21.9565 15.144L21.9565 15.144L21.8665 14.9654ZM22.1157 14.9654L22.0257 15.144L22.0682 15.1654H22.1157V14.9654ZM22.1513 14.9654L22.215 14.7758L22.184 14.7654H22.1513V14.9654ZM22.365 15.1448L22.5549 15.082L22.5504 15.0686L22.5441 15.0559L22.365 15.1448ZM22.365 15.4319L22.1751 15.3691L22.1741 15.3723L22.365 15.4319ZM17.3442 21.2451L17.4289 21.4264L17.4342 21.4237L17.3442 21.2451ZM17.6291 8.32684L17.8004 8.22363L17.7421 8.12684H17.6291V8.32684ZM18.2344 9.3316V9.5316H18.5884L18.4057 9.22839L18.2344 9.3316ZM14.3531 8.32684V8.12684H14.1146L14.1562 8.36174L14.3531 8.32684ZM14.5312 9.3316L14.3342 9.36649L14.3635 9.5316H14.5312V9.3316ZM12.2522 8.32684V8.12684H12.0903L12.0566 8.28524L12.2522 8.32684ZM13.6409 8.32684L13.8366 8.28524L13.8029 8.12684H13.6409V8.32684ZM12.0386 9.3316L11.8429 9.29L11.7916 9.5316H12.0386V9.3316ZM13.8546 9.3316V9.5316H14.1016L14.0502 9.29L13.8546 9.3316ZM12.003 9.97751V9.77751H11.803V9.97751H12.003ZM13.9614 9.97751H14.1614V9.77751H13.9614V9.97751ZM12.003 12.9918H11.803V13.2459L12.05 13.1862L12.003 12.9918ZM12.8932 12.7765V12.5765H12.8693L12.8462 12.5821L12.8932 12.7765ZM13 12.7765L13.0437 12.5813L13.0221 12.5765H13V12.7765ZM13.9614 12.9918L13.9177 13.1869L14.1614 13.2415V12.9918H13.9614ZM8.2997 8.32684V8.12684H8.18319L8.12573 8.22819L8.2997 8.32684ZM11.5757 8.32684L11.7726 8.36174L11.8142 8.12684H11.5757V8.32684ZM7.72997 9.3316L7.55599 9.23295L7.38665 9.5316H7.72997V9.3316ZM11.3976 9.3316V9.5316H11.5653L11.5946 9.36649L11.3976 9.3316ZM11.3264 9.97751H11.5264V9.77751H11.3264V9.97751ZM7.4451 9.97751V9.77751H7.2451V9.97751H7.4451ZM7.4451 19.7739H7.2451V19.897L7.3551 19.9525L7.4451 19.7739ZM7.51632 19.8098L7.63316 19.6474L7.62038 19.6382L7.60632 19.6311L7.51632 19.8098ZM9.86647 21.0298L9.93018 20.8402L9.92511 20.8386L9.86647 21.0298ZM18.3769 19.7021L18.2869 19.5235L18.2704 19.5318L18.2557 19.543L18.3769 19.7021ZM18.4481 19.6662L18.5381 19.8448L18.6481 19.7894V19.6662H18.4481ZM18.4481 9.97751H18.6481V9.77751H18.4481V9.97751ZM14.5312 9.97751V9.77751H14.3332L14.3312 9.97546L14.5312 9.97751ZM14.4955 13.4583L14.2955 13.4562V13.4583H14.4955ZM14.4955 13.4942L14.6897 13.5423L14.6955 13.5186V13.4942H14.4955ZM14.1039 13.7095L14.0509 13.9023L14.0769 13.9095H14.1039V13.7095ZM12.9288 13.3865L12.9818 13.1936L12.9288 13.1791L12.8758 13.1936L12.9288 13.3865ZM11.7537 13.7095V13.9095H11.7807L11.8067 13.9023L11.7537 13.7095ZM11.362 13.4583L11.5479 13.3845L11.5328 13.3464L11.504 13.3174L11.362 13.4583ZM22.2942 13.3121C22.3416 13.3598 22.3969 13.4037 22.4657 13.4345C22.5354 13.4657 22.6085 13.4789 22.6855 13.4789V13.0789C22.6556 13.0789 22.6397 13.0741 22.6292 13.0694C22.6179 13.0644 22.602 13.0544 22.5782 13.0304L22.2942 13.3121ZM20.3371 11.3757L22.2955 13.3134L22.5769 13.0291L20.6184 11.0913L20.3371 11.3757ZM20.1709 10.9823C20.1709 11.0593 20.1839 11.1323 20.2146 11.2021C20.245 11.271 20.2884 11.3266 20.3358 11.3744L20.6197 11.0926C20.5959 11.0686 20.5858 11.0525 20.5806 11.0406C20.5758 11.0296 20.5709 11.013 20.5709 10.9823H20.1709ZM20.3358 10.5902C20.2884 10.638 20.245 10.6936 20.2146 10.7625C20.1839 10.8323 20.1709 10.9053 20.1709 10.9823H20.5709C20.5709 10.9516 20.5758 10.935 20.5806 10.924C20.5858 10.9121 20.5959 10.896 20.6197 10.872L20.3358 10.5902ZM20.727 10.4235C20.6501 10.4235 20.577 10.4366 20.5073 10.4678C20.4385 10.4987 20.3831 10.5425 20.3358 10.5902L20.6197 10.872C20.6436 10.8479 20.6594 10.838 20.6708 10.8329C20.6812 10.8282 20.6971 10.8235 20.727 10.8235V10.4235ZM21.1182 10.5902C21.0709 10.5425 21.0155 10.4987 20.9467 10.4678C20.877 10.4366 20.804 10.4235 20.727 10.4235V10.8235C20.7569 10.8235 20.7728 10.8282 20.7832 10.8329C20.7946 10.838 20.8104 10.8479 20.8343 10.872L21.1182 10.5902ZM22.4376 11.9557L21.1201 10.5921L20.8324 10.8701L22.1499 12.2337L22.4376 11.9557ZM22.0938 11.7718V12.0947H22.4938V11.7718H22.0938ZM15.9258 3.09742C19.5831 4.36105 22.0589 7.83742 22.0938 11.7735L22.4938 11.77C22.4574 7.66806 19.8769 4.03937 16.0564 2.71935L15.9258 3.09742ZM8.95944 3.55349C11.1189 2.4654 13.591 2.28973 15.9257 3.0974L16.0565 2.71938C13.6197 1.87637 11.0354 2.05955 8.77945 3.19627L8.95944 3.55349ZM4.39464 8.8203C5.16099 6.50343 6.79793 4.64261 8.95944 3.55349L8.77945 3.19627C6.52553 4.33196 4.81528 6.27485 4.01487 8.69468L4.39464 8.8203ZM4.13825 9.13881C4.19808 9.09861 4.25902 9.05131 4.30681 8.99627C4.35352 8.94247 4.40475 8.86139 4.40475 8.75749H4.00475C4.00475 8.72536 4.02038 8.71605 4.00478 8.73402C3.99025 8.75075 3.96217 8.77522 3.91518 8.80678L4.13825 9.13881ZM3.81175 9.21167C3.856 9.21638 4.03616 9.24722 4.16868 9.11367L3.88475 8.83192C3.8897 8.82693 3.89608 8.82264 3.90251 8.81983C3.90834 8.81729 3.91155 8.81711 3.90987 8.81732C3.90787 8.81755 3.90275 8.81789 3.89271 8.81739C3.88223 8.81686 3.87096 8.81571 3.85407 8.81391L3.81175 9.21167ZM3.77745 9.20868C3.78156 9.20868 3.78908 9.20926 3.81175 9.21167L3.85406 8.81391C3.83705 8.8121 3.80697 8.80868 3.77745 8.80868V9.20868ZM3.397 8.93961C3.43683 8.99981 3.48372 9.06117 3.53835 9.10935C3.5916 9.1563 3.67277 9.20868 3.77745 9.20868V8.80868C3.81092 8.80868 3.82087 8.82517 3.80291 8.80933C3.78632 8.79471 3.762 8.76636 3.73061 8.71891L3.397 8.93961ZM3.32521 8.61311C3.32053 8.65774 3.29012 8.83739 3.42184 8.97013L3.70577 8.68839C3.71071 8.69337 3.71482 8.69963 3.71745 8.70575C3.71982 8.71126 3.7199 8.7141 3.71966 8.71205C3.71938 8.7097 3.71905 8.70427 3.71956 8.69398C3.72009 8.68327 3.72125 8.67179 3.72303 8.65479L3.32521 8.61311ZM3.3282 8.57807C3.3282 8.5825 3.32759 8.59034 3.32521 8.61311L3.72303 8.65479C3.72483 8.63757 3.7282 8.60753 3.7282 8.57807H3.3282ZM8.4611 2.58518C5.99026 3.79356 4.17322 5.91796 3.33779 8.51686L3.7186 8.63928C4.52115 6.14265 6.26494 4.10449 8.63683 2.94451L8.4611 2.58518ZM16.2692 2.07315C13.6926 1.19544 10.8944 1.34076 8.45791 2.58678L8.64003 2.94292C10.975 1.74883 13.6605 1.60706 16.1403 2.45179L16.2692 2.07315ZM23.2059 11.8076C23.2059 7.38106 20.4105 3.46425 16.2684 2.07288L16.1411 2.45206C20.1177 3.78788 22.8059 7.55027 22.8059 11.8076H23.2059ZM23.2059 12.1306V11.8076H22.8059V12.1306H23.2059ZM24.2527 10.5902L22.864 11.9897L23.1479 12.2715L24.5366 10.872L24.2527 10.5902ZM24.6439 10.4235C24.567 10.4235 24.4939 10.4366 24.4242 10.4678C24.3554 10.4987 24.3 10.5425 24.2527 10.5902L24.5366 10.872C24.5605 10.8479 24.5764 10.838 24.5877 10.8329C24.5981 10.8282 24.614 10.8235 24.6439 10.8235V10.4235ZM25.0351 10.5902C24.9878 10.5425 24.9324 10.4987 24.8637 10.4678C24.794 10.4366 24.7209 10.4235 24.6439 10.4235V10.8235C24.6738 10.8235 24.6897 10.8282 24.7001 10.8329C24.7115 10.838 24.7273 10.8479 24.7512 10.872L25.0351 10.5902ZM25.2 10.9823C25.2 10.9053 25.187 10.8323 25.1563 10.7625C25.1259 10.6936 25.0825 10.638 25.0351 10.5902L24.7512 10.872C24.775 10.896 24.7851 10.9121 24.7903 10.924C24.7952 10.935 24.8 10.9516 24.8 10.9823H25.2ZM25.0351 11.3744C25.0825 11.3266 25.1259 11.271 25.1563 11.2021C25.187 11.1323 25.2 11.0593 25.2 10.9823H24.8C24.8 11.013 24.7952 11.0296 24.7903 11.0406C24.7851 11.0525 24.775 11.0686 24.7512 11.0926L25.0351 11.3744ZM23.0754 13.3134L25.0338 11.3757L24.7525 11.0913L22.7941 13.0291L23.0754 13.3134ZM22.6855 13.4789C22.7624 13.4789 22.8355 13.4657 22.9052 13.4345C22.974 13.4037 23.0293 13.3598 23.0767 13.3121L22.7928 13.0304C22.7689 13.0544 22.753 13.0644 22.7417 13.0694C22.7313 13.0741 22.7153 13.0789 22.6855 13.0789V13.4789ZM9.62278 21.9364C10.6767 22.3027 11.7672 22.4858 12.8932 22.4858V22.0857C11.8114 22.0857 10.7654 21.91 9.75408 21.5586L9.62278 21.9364ZM2.65164 12.1322C2.68792 16.5932 5.48229 20.509 9.62324 21.9366L9.75361 21.5584C5.77587 20.1871 3.08656 16.4236 3.05163 12.1289L2.65164 12.1322ZM2.65163 11.8076V12.1306H3.05163V11.8076H2.65163ZM1.7117 13.2403L2.9936 11.9485L2.70967 11.6667L1.42777 12.9586L1.7117 13.2403ZM1.32047 13.4071C1.39742 13.4071 1.47051 13.3939 1.54021 13.3627C1.60899 13.3319 1.66435 13.288 1.7117 13.2403L1.42777 12.9586C1.4039 12.9826 1.38804 12.9926 1.3767 12.9976C1.36628 13.0023 1.35035 13.0071 1.32047 13.0071V13.4071ZM1.04967 13.3318C1.07193 13.3443 1.10948 13.366 1.1563 13.3819C1.20609 13.3987 1.25921 13.4071 1.32047 13.4071V13.0071C1.29721 13.0071 1.2881 13.0042 1.28472 13.003C1.27837 13.0009 1.27181 12.9978 1.2458 12.9831L1.04967 13.3318ZM1.01683 13.3139C1.02704 13.3191 1.03657 13.3244 1.04968 13.3318L1.24579 12.9831C1.23343 12.9762 1.21634 12.9665 1.19682 12.9567L1.01683 13.3139ZM0.8 12.8841C0.8 12.9611 0.812958 13.0341 0.843713 13.1039C0.874104 13.1728 0.91747 13.2284 0.964859 13.2762L1.24879 12.9944C1.22496 12.9704 1.21492 12.9543 1.2097 12.9425C1.20485 12.9315 1.2 12.9148 1.2 12.8841H0.8ZM0.892057 12.544C0.855643 12.6174 0.8 12.7259 0.8 12.8841H1.2C1.2 12.8271 1.21557 12.792 1.25038 12.7218L0.892057 12.544ZM2.88901 10.553L0.930549 12.4908L1.21188 12.7751L3.17034 10.8374L2.88901 10.553ZM3.27893 10.3875C3.20198 10.3875 3.1289 10.4007 3.0592 10.4319C2.99041 10.4627 2.93506 10.5066 2.88771 10.5543L3.17164 10.8361C3.19551 10.812 3.21137 10.8021 3.2227 10.797C3.23312 10.7923 3.24906 10.7875 3.27893 10.7875V10.3875ZM3.67015 10.5543C3.62281 10.5066 3.56745 10.4627 3.49867 10.4319C3.42897 10.4007 3.35588 10.3875 3.27893 10.3875V10.7875C3.30881 10.7875 3.32474 10.7923 3.33516 10.797C3.3465 10.8021 3.36236 10.812 3.38622 10.8361L3.67015 10.5543ZM5.59429 12.5293L3.67144 10.5556L3.38494 10.8348L5.30779 12.8084L5.59429 12.5293ZM5.75786 12.92C5.75786 12.843 5.7449 12.77 5.71415 12.7002C5.68376 12.6313 5.64039 12.5757 5.593 12.5279L5.30907 12.8097C5.3329 12.8337 5.34295 12.8498 5.34816 12.8617C5.35302 12.8727 5.35786 12.8893 5.35786 12.92H5.75786ZM5.593 13.3121C5.64039 13.2643 5.68376 13.2087 5.71415 13.1398C5.7449 13.07 5.75786 12.997 5.75786 12.92H5.35786C5.35786 12.9507 5.35302 12.9673 5.34816 12.9784C5.34295 12.9902 5.3329 13.0063 5.30907 13.0303L5.593 13.3121ZM5.20178 13.4788C5.27873 13.4788 5.35182 13.4657 5.42151 13.4345C5.4903 13.4037 5.54566 13.3598 5.593 13.3121L5.30907 13.0303C5.2852 13.0544 5.26934 13.0643 5.25801 13.0694C5.24759 13.0741 5.23166 13.0788 5.20178 13.0788V13.4788ZM4.81056 13.3121C4.8579 13.3598 4.91326 13.4037 4.98205 13.4345C5.05174 13.4657 5.12483 13.4788 5.20178 13.4788V13.0788C5.1719 13.0788 5.15597 13.0741 5.14555 13.0694C5.13421 13.0643 5.11836 13.0544 5.09449 13.0303L4.81056 13.3121ZM3.41836 11.8372L4.80708 13.3085L5.09796 13.0339L3.70924 11.5627L3.41836 11.8372ZM3.7638 12.0229V11.6999H3.3638V12.0229H3.7638ZM6.72561 18.9446C4.80996 17.1896 3.72891 14.6609 3.76378 12.0255L3.36382 12.0203C3.32747 14.7675 4.45414 17.4061 6.4554 19.2395L6.72561 18.9446ZM6.94612 19.1665L6.73247 18.9512L6.44854 19.2329L6.66219 19.4482L6.94612 19.1665ZM6.60415 9.65455V19.3074H7.00415V9.65455H6.60415ZM6.6978 9.37014C6.63595 9.43247 6.61799 9.50959 6.61128 9.55015C6.6038 9.5954 6.60415 9.63776 6.60415 9.65455H7.00415C7.00415 9.6454 7.00418 9.63833 7.00451 9.63105C7.00483 9.62381 7.00538 9.6187 7.00592 9.61542C7.00652 9.6118 7.00661 9.61354 7.00449 9.61876C7.00238 9.62395 6.99616 9.63735 6.98173 9.65189L6.6978 9.37014ZM7.63036 7.8281L6.66894 9.407L7.01058 9.61503L7.97201 8.03613L7.63036 7.8281ZM7.6878 7.75C7.67842 7.76417 7.67181 7.77412 7.66572 7.78256C7.65939 7.79132 7.65749 7.79299 7.65922 7.79124L7.94315 8.07299C7.97794 8.03794 8.0074 7.99187 8.0214 7.9707L7.6878 7.75ZM7.76605 7.64771C7.73126 7.68276 7.7018 7.72883 7.68779 7.75L8.0214 7.9707C8.03078 7.95652 8.03739 7.94658 8.04348 7.93814C8.04981 7.92938 8.05171 7.92771 8.04998 7.92946L7.76605 7.64771ZM8.12166 7.48093C7.96853 7.48093 7.80966 7.53682 7.72885 7.69969L8.08717 7.87747C8.08718 7.87745 8.0869 7.87802 8.0862 7.879C8.0855 7.87999 8.08455 7.88116 8.08336 7.88236C8.08077 7.88497 8.07856 7.88623 8.07812 7.88645C8.07799 7.88652 8.08937 7.88093 8.12166 7.88093V7.48093ZM17.8427 7.48093H8.12166V7.88093H17.8427V7.48093ZM18.3491 7.89422C18.2673 7.68808 18.1098 7.48093 17.8427 7.48093V7.88093C17.8582 7.88093 17.8733 7.885 17.894 7.90409C17.9182 7.92647 17.9485 7.96908 17.9773 8.04179L18.3491 7.89422ZM19.2605 9.40812L18.3347 7.8651L17.9917 8.0709L18.9175 9.61392L19.2605 9.40812ZM19.2967 9.51997C19.2944 9.51302 19.2926 9.50752 19.291 9.50235C19.2893 9.49725 19.2883 9.49373 19.2876 9.49129C19.2869 9.48871 19.2871 9.48884 19.2874 9.49095C19.2877 9.49211 19.288 9.49434 19.2883 9.49744C19.2887 9.5005 19.289 9.50514 19.289 9.51102H18.889C18.889 9.54753 18.8972 9.57976 18.9015 9.59578C18.9066 9.61446 18.9129 9.63342 18.9169 9.6456L19.2967 9.51997ZM19.3246 9.65455C19.3246 9.61804 19.3165 9.58581 19.3121 9.56979C19.3071 9.55111 19.3007 9.53216 19.2967 9.51998L18.9169 9.64559C18.9192 9.65254 18.9211 9.65805 18.9227 9.66321C18.9243 9.66832 18.9253 9.67184 18.926 9.67428C18.9267 9.67686 18.9266 9.67672 18.9262 9.67462C18.926 9.67346 18.9256 9.67123 18.9253 9.66813C18.925 9.66507 18.9246 9.66043 18.9246 9.65455H19.3246ZM19.3246 19.1638V9.65455H18.9246V19.1638H19.3246ZM19.1963 18.8077L18.9827 19.023L19.2666 19.3047L19.4802 19.0894L19.1963 18.8077ZM21.4985 15.1179C21.0453 16.488 20.2787 17.752 19.1986 18.8053L19.4779 19.0917C20.6055 17.992 21.4057 16.6723 21.8783 15.2435L21.4985 15.1179ZM21.7765 14.7868C21.6588 14.8461 21.5511 14.959 21.4985 15.1179L21.8783 15.2435C21.897 15.1871 21.9317 15.1565 21.9565 15.144L21.7765 14.7868ZM22.2057 14.7868C22.1366 14.7519 22.0599 14.7385 21.9911 14.7385C21.9223 14.7385 21.8456 14.7519 21.7765 14.7868L21.9565 15.144C21.9564 15.144 21.9573 15.1436 21.9592 15.1429C21.9611 15.1423 21.9636 15.1416 21.9669 15.1409C21.9737 15.1394 21.982 15.1385 21.9911 15.1385C22.0002 15.1385 22.0085 15.1394 22.0152 15.1409C22.0185 15.1416 22.0211 15.1423 22.023 15.1429C22.0249 15.1436 22.0257 15.144 22.0257 15.144L22.2057 14.7868ZM22.1513 14.7654H22.1157V15.1654H22.1513V14.7654ZM22.5441 15.0559C22.4856 14.938 22.3737 14.8291 22.215 14.7758L22.0876 15.155C22.1426 15.1735 22.1731 15.2081 22.1858 15.2337L22.5441 15.0559ZM22.5549 15.4947C22.5769 15.4281 22.5917 15.3613 22.5917 15.2884C22.5917 15.2155 22.5769 15.1486 22.5549 15.082L22.1751 15.2076C22.1887 15.2487 22.1917 15.2715 22.1917 15.2884C22.1917 15.3052 22.1887 15.328 22.1751 15.3691L22.5549 15.4947ZM17.4342 21.4237C19.9012 20.1807 21.7555 18.0579 22.5559 15.4914L22.1741 15.3723C21.4077 17.8296 19.63 19.8694 17.2542 21.0665L17.4342 21.4237ZM12.8932 22.4858C14.4213 22.4858 15.9456 22.119 17.4288 21.4263L17.2596 21.0639C15.8229 21.7348 14.3561 22.0857 12.8932 22.0857V22.4858ZM17.4578 8.43005L18.0631 9.43481L18.4057 9.22839L17.8004 8.22363L17.4578 8.43005ZM14.3531 8.52684H17.6291V8.12684H14.3531V8.52684ZM14.7281 9.2967L14.55 8.29195L14.1562 8.36174L14.3342 9.36649L14.7281 9.2967ZM18.2344 9.1316H14.5312V9.5316H18.2344V9.1316ZM12.2522 8.52684H13.6409V8.12684H12.2522V8.52684ZM12.2342 9.37319L12.4479 8.36844L12.0566 8.28524L11.8429 9.29L12.2342 9.37319ZM13.8546 9.1316H12.0386V9.5316H13.8546V9.1316ZM13.4453 8.36844L13.659 9.37319L14.0502 9.29L13.8366 8.28524L13.4453 8.36844ZM12.003 10.1775H13.9614V9.77751H12.003V10.1775ZM12.203 12.9918V9.97751H11.803V12.9918H12.203ZM12.8462 12.5821L11.9559 12.7974L12.05 13.1862L12.9402 12.9709L12.8462 12.5821ZM13 12.5765H12.8932V12.9765H13V12.5765ZM14.0051 12.7966L13.0437 12.5813L12.9563 12.9716L13.9177 13.1869L14.0051 12.7966ZM13.7614 9.97751V12.9918H14.1614V9.97751H13.7614ZM8.2997 8.52684H11.5757V8.12684H8.2997V8.52684ZM7.90395 9.43025L8.47368 8.42549L8.12573 8.22819L7.55599 9.23295L7.90395 9.43025ZM11.3976 9.1316H7.72997V9.5316H11.3976V9.1316ZM11.3787 8.29195L11.2007 9.2967L11.5946 9.36649L11.7726 8.36174L11.3787 8.29195ZM7.48071 10.1775H11.3264V9.77751H7.48071V10.1775ZM7.4451 10.1775H7.48071V9.77751H7.4451V10.1775ZM7.6451 19.7739V9.97751H7.2451V19.7739H7.6451ZM7.60632 19.6311L7.5351 19.5953L7.3551 19.9525L7.42632 19.9884L7.60632 19.6311ZM9.92511 20.8386C9.13273 20.5956 8.36891 20.177 7.63316 19.6474L7.39948 19.9721C8.15928 20.519 8.96222 20.9617 9.80782 21.221L9.92511 20.8386ZM12.8576 21.3322C11.8837 21.3322 10.8726 21.1568 9.93015 20.8402L9.80278 21.2194C10.7832 21.5487 11.8373 21.7322 12.8576 21.7322V21.3322ZM18.2557 19.543C16.6903 20.7348 14.7751 21.3322 12.8576 21.3322V21.7322C14.8569 21.7322 16.8586 21.1095 18.498 19.8612L18.2557 19.543ZM18.3581 19.4876L18.2869 19.5235L18.4668 19.8807L18.5381 19.8448L18.3581 19.4876ZM18.2481 9.97751V19.6662H18.6481V9.97751H18.2481ZM14.5312 10.1775H18.4481V9.77751H14.5312V10.1775ZM14.6955 13.4603L14.7311 9.97956L14.3312 9.97546L14.2956 13.4562L14.6955 13.4603ZM14.6955 13.4942V13.4583H14.2955V13.4942H14.6955ZM14.1751 13.9095C14.3701 13.9095 14.6237 13.8082 14.6897 13.5423L14.3014 13.446C14.2978 13.4608 14.2894 13.4736 14.27 13.4857C14.2481 13.4992 14.2145 13.5095 14.1751 13.5095V13.9095ZM14.1039 13.9095H14.1751V13.5095H14.1039V13.9095ZM12.8758 13.5793L14.0509 13.9023L14.1569 13.5166L12.9818 13.1936L12.8758 13.5793ZM11.8067 13.9023L12.9818 13.5793L12.8758 13.1936L11.7007 13.5166L11.8067 13.9023ZM11.6825 13.9095H11.7537V13.5095H11.6825V13.9095ZM11.1761 13.5321C11.2206 13.644 11.2837 13.7417 11.375 13.8107C11.4688 13.8817 11.5756 13.9095 11.6825 13.9095V13.5095C11.647 13.5095 11.6291 13.5014 11.6161 13.4916C11.6006 13.4798 11.5747 13.4519 11.5479 13.3845L11.1761 13.5321ZM11.3264 9.97751C11.1264 9.97751 11.1264 9.97752 11.1264 9.97755C11.1264 9.97758 11.1264 9.97762 11.1264 9.97767C11.1264 9.97778 11.1264 9.97794 11.1264 9.97815C11.1264 9.97857 11.1264 9.97919 11.1264 9.98002C11.1264 9.98169 11.1264 9.98416 11.1264 9.98743C11.1264 9.99396 11.1264 10.0036 11.1264 10.0163C11.1264 10.0415 11.1264 10.0786 11.1265 10.1257C11.1265 10.2201 11.1267 10.3548 11.127 10.5167C11.1275 10.8403 11.1286 11.2723 11.1309 11.7055C11.1331 12.1385 11.1364 12.5733 11.1415 12.9023C11.144 13.0666 11.1469 13.2057 11.1504 13.3054C11.1521 13.3549 11.154 13.3966 11.1563 13.4276C11.1573 13.4426 11.1587 13.4584 11.1607 13.4725C11.1616 13.479 11.1632 13.4898 11.1661 13.5017C11.1675 13.5075 11.1703 13.518 11.1752 13.5303C11.178 13.5376 11.1904 13.5692 11.2201 13.5991L11.504 13.3174C11.5331 13.3468 11.5449 13.3774 11.5472 13.3833C11.5515 13.3942 11.5537 13.4029 11.5546 13.4065C11.5557 13.4108 11.5563 13.414 11.5565 13.4154C11.5567 13.4162 11.5568 13.4168 11.5568 13.4172C11.5569 13.4175 11.5569 13.4178 11.5569 13.4178C11.5569 13.4178 11.5569 13.4174 11.5567 13.4165C11.5566 13.4155 11.5565 13.4142 11.5563 13.4125C11.556 13.4091 11.5556 13.4046 11.5552 13.3989C11.5535 13.3755 11.5518 13.3396 11.5501 13.2914C11.5468 13.1958 11.5439 13.0599 11.5414 12.8962C11.5364 12.5692 11.5331 12.1361 11.5309 11.7034C11.5286 11.2709 11.5275 10.8394 11.527 10.516C11.5267 10.3543 11.5265 10.2197 11.5265 10.1255C11.5264 10.0784 11.5264 10.0414 11.5264 10.0161C11.5264 10.0035 11.5264 9.99387 11.5264 9.98736C11.5264 9.98411 11.5264 9.98164 11.5264 9.97999C11.5264 9.97917 11.5264 9.97854 11.5264 9.97813C11.5264 9.97792 11.5264 9.97777 11.5264 9.97766C11.5264 9.97761 11.5264 9.97757 11.5264 9.97755C11.5264 9.97752 11.5264 9.97751 11.3264 9.97751Z" fill="currentColor" mask="url(#path-1-outside-1_3439_31718)"/>
</svg>
