<svg width="100%" height="100%" viewBox="0 0 24 24" fill="none" xmlns="http://www.w3.org/2000/svg" id="savings">
<path d="M21.5618 11.1598C21.6039 11.4658 21.625 11.7919 21.625 12.138C21.625 14.1061 20.9856 15.4292 20.3738 16.251C20.1321 16.5773 19.8506 16.8763 19.535 17.1421C19.4312 17.2275 19.3229 17.3079 19.2105 17.3831L19.1981 17.3908C19.0992 17.4485 19.0177 17.5286 18.9612 17.6237C18.9047 17.7188 18.875 17.8257 18.875 17.9344V20.0768C18.875 20.2469 18.8026 20.4099 18.6736 20.5301C18.5447 20.6504 18.3698 20.7179 18.1875 20.7179H16.2845C16.2422 20.7179 16.2016 20.7022 16.1717 20.6743C16.1418 20.6464 16.125 20.6086 16.125 20.5692C16.125 19.7781 15.4375 19.1371 14.5905 19.1371H12.1595C11.3125 19.1371 10.625 19.7781 10.625 20.5692C10.625 20.6086 10.6082 20.6464 10.5783 20.6743C10.5484 20.7022 10.5078 20.7179 10.4655 20.7179H8.5625C8.38016 20.7179 8.2053 20.6504 8.07636 20.5301C7.94743 20.4099 7.875 20.2469 7.875 20.0768V18.9871C7.8746 18.8528 7.829 18.722 7.74463 18.6132C7.66025 18.5044 7.54137 18.423 7.40475 18.3806L7.34975 18.3563C7.24043 18.3064 7.13479 18.2499 7.0335 18.187C6.731 18.005 6.25388 17.6665 5.6145 17.0626C5.03812 16.5088 4.57371 15.8625 4.24363 15.1548C3.99063 14.6138 3.46125 14.1381 2.75313 14.0266C2.64772 14.01 2.55198 13.9592 2.48281 13.8832C2.41363 13.8072 2.37545 13.7109 2.375 13.6112V11.679C2.375 11.5911 2.40843 11.506 2.46935 11.4389C2.53027 11.3717 2.61474 11.3269 2.70775 11.3124C3.464 11.1931 4.00025 10.6534 4.20925 10.0585C4.388 9.54819 4.70975 8.87893 5.24325 8.37506C5.69281 7.95638 6.19622 7.5912 6.742 7.28784C6.96087 7.16579 7.1857 7.05327 7.41575 6.95064L7.4515 6.93526L7.45837 6.93269C7.58234 6.88314 7.68794 6.80069 7.76202 6.69559C7.8361 6.5905 7.87539 6.46741 7.875 6.34164V3.65307C8.22288 3.93513 8.6285 4.24027 9.06575 4.51208C9.6625 4.88645 10.3734 5.23775 11.1035 5.36468C11.2722 4.93645 11.4922 4.53131 11.7635 4.14924L11.5119 4.12488C11.0238 4.07873 10.4366 3.82615 9.83025 3.44793C9.28443 3.09769 8.77154 2.7048 8.29713 2.27352C8.14882 2.14136 7.96252 2.05222 7.76089 2.01694C7.55926 1.98166 7.35098 2.00176 7.16138 2.07479C6.96698 2.14633 6.80005 2.27057 6.68216 2.43147C6.56426 2.59237 6.50081 2.78253 6.5 2.9774V5.94419C5.67843 6.34919 4.92514 6.86454 4.26425 7.47374C3.51763 8.1789 3.112 9.06355 2.903 9.65973C2.8205 9.88795 2.64175 10.0226 2.4795 10.0482C2.06616 10.113 1.6908 10.3123 1.41998 10.6106C1.14915 10.9089 1.00037 11.2869 1 11.6778V13.6099C0.999786 14.0129 1.15269 14.403 1.43158 14.711C1.71047 15.0189 2.09732 15.2247 2.5235 15.292C2.69538 15.3177 2.881 15.4484 2.98275 15.6677C3.38053 16.5195 3.94048 17.297 4.6355 17.9626C5.33538 18.6242 5.88813 19.0229 6.28413 19.2627C6.36296 19.3097 6.43492 19.3512 6.5 19.3871V20.0768C6.5 20.3294 6.55335 20.5795 6.657 20.8128C6.76065 21.0461 6.91257 21.2581 7.10409 21.4367C7.29561 21.6153 7.52298 21.757 7.77322 21.8536C8.02345 21.9503 8.29165 22 8.5625 22H10.4655C11.3125 22 12 21.3589 12 20.5692C12 20.4858 12.0715 20.4192 12.1595 20.4192H14.5905C14.6785 20.4192 14.75 20.4858 14.75 20.5692C14.75 21.3589 15.4375 22 16.2845 22H18.1875C18.7345 22 19.2591 21.7974 19.6459 21.4367C20.0327 21.0761 20.25 20.5869 20.25 20.0768V18.2575C20.7269 17.8873 21.1478 17.4586 21.5012 16.9831C22.2644 15.9613 23 14.3856 23 12.138C23 11.2072 22.8611 10.3739 22.5971 9.62896C22.3401 10.1869 21.9902 10.7036 21.5604 11.1598M21.3514 5.63007C21.7641 6.55979 21.8297 7.59186 21.5377 8.56054C21.2457 9.52921 20.613 10.3783 19.7413 10.9713C19.15 11.3713 18.3704 11.3431 17.6966 11.0829L13.5166 9.4687C12.8429 9.20843 12.2695 8.71482 12.1554 8.043C11.9774 6.96028 12.2304 5.85427 12.8665 4.93341C13.5026 4.01254 14.4779 3.34042 15.6087 3.04371C16.7395 2.747 17.9477 2.8462 19.0055 3.32261C20.0633 3.79901 20.8976 4.61973 21.3514 5.63007ZM18.9314 9.93538C19.4254 9.60033 19.8147 9.14857 20.0593 8.6266C20.3039 8.10464 20.3949 7.53133 20.3229 6.96569C20.2509 6.40005 20.0186 5.86251 19.6499 5.40839C19.2811 4.95428 18.7892 4.6 18.2248 4.38202C17.6604 4.16404 17.044 4.09024 16.4388 4.1682C15.8337 4.24617 15.2618 4.47309 14.7819 4.82561C14.3021 5.17813 13.9317 5.64351 13.7088 6.17386C13.4859 6.7042 13.4186 7.28034 13.5139 7.84299C13.5315 7.91516 13.5712 7.98105 13.628 8.03274C13.716 8.11992 13.8562 8.21223 14.0433 8.28403L18.2232 9.89949C18.3762 9.96072 18.5408 9.99255 18.7073 9.99308C18.7868 9.99453 18.8638 9.97449 18.9314 9.93538ZM7.53125 11.1021C7.80475 11.1021 8.06706 11.0008 8.26045 10.8205C8.45385 10.6401 8.5625 10.3955 8.5625 10.1405C8.5625 9.88549 8.45385 9.64091 8.26045 9.46058C8.06706 9.28025 7.80475 9.17894 7.53125 9.17894C7.25775 9.17894 6.99544 9.28025 6.80205 9.46058C6.60865 9.64091 6.5 9.88549 6.5 10.1405C6.5 10.3955 6.60865 10.6401 6.80205 10.8205C6.99544 11.0008 7.25775 11.1021 7.53125 11.1021Z" fill="currentColor"/>
</svg>
