<svg xmlns="http://www.w3.org/2000/svg" width="100%" height="100%" viewBox="0 0 68 60">
    <title>sixty days guarantee</title>
    <path fillRule="evenodd" clipRule="evenodd"
        d="M7.12893 20.0377C6.95506 20.5703 7.22866 21.1476 7.74181 21.3283L7.74182 21.3283C8.25436 21.509 8.80986 21.2242 8.98374 20.6916C13.6669 6.34132 28.7093 -1.37319 42.5168 3.49389C53.5644 7.38818 60.8041 18.2973 60.4618 30.3023L56.7328 26.3617C56.3533 25.9601 55.7341 25.9548 55.3486 26.3495C55.1556 26.5462 55.0573 26.8058 55.0552 27.0667C55.0531 27.3271 55.1473 27.5882 55.3369 27.7882L60.7689 33.5285C60.9627 33.7336 61.2191 33.8353 61.4749 33.8331C61.7301 33.8391 61.9872 33.7419 62.1837 33.5407L67.7069 27.8953C68.0931 27.5012 68.0983 26.8576 67.7186 26.4565C67.5294 26.2561 67.2796 26.1542 67.0285 26.1521C66.778 26.1499 66.5266 26.2475 66.3342 26.4445L62.4178 30.4475C62.8212 17.5178 55.0381 5.75829 43.146 1.56628C28.3162 -3.6612 12.1587 4.62531 7.12893 20.0377ZM5.31341 29.5826C4.92323 42.5 12.7034 54.245 24.5866 58.4339C39.4157 63.6612 55.5738 55.3744 60.6034 39.9626C60.7775 39.4292 60.5032 38.8523 59.9908 38.6717C59.4776 38.4907 58.9228 38.7753 58.7488 39.3086C54.0657 53.6582 39.0226 61.3731 25.2156 56.5061C14.0119 52.5567 6.72506 41.3935 7.28932 29.1894L11.2678 33.394C11.647 33.7951 12.2662 33.8007 12.652 33.4058C12.845 33.2091 12.9431 32.9497 12.9451 32.6888C12.9472 32.4285 12.8533 32.167 12.6637 31.9671L7.2316 26.2268C7.03598 26.0197 6.77654 25.918 6.51822 25.9223C6.26536 25.9181 6.01109 26.0154 5.81628 26.2147L0.293184 31.8604C-0.0932236 32.2545 -0.0982397 32.8981 0.28148 33.2988C0.470773 33.4992 0.72026 33.6014 0.971555 33.6035C1.22211 33.6058 1.47331 33.508 1.66576 33.3109L5.31341 29.5826Z"
        fill="currentColor" />
    <path fillRule="evenodd" clipRule="evenodd"
        d="M7.12893 20.0377C6.95506 20.5703 7.22866 21.1476 7.74181 21.3283L7.74182 21.3283C8.25436 21.509 8.80986 21.2242 8.98374 20.6916C13.6669 6.34132 28.7093 -1.37319 42.5168 3.49389C53.5644 7.38818 60.8041 18.2973 60.4618 30.3023L56.7328 26.3617C56.3533 25.9601 55.7341 25.9548 55.3486 26.3495C55.1556 26.5462 55.0573 26.8058 55.0552 27.0667C55.0531 27.3271 55.1473 27.5882 55.3369 27.7882L60.7689 33.5285C60.9627 33.7336 61.2191 33.8353 61.4749 33.8331C61.7301 33.8391 61.9872 33.7419 62.1837 33.5407L67.7069 27.8953C68.0931 27.5012 68.0983 26.8576 67.7186 26.4565C67.5294 26.2561 67.2796 26.1542 67.0285 26.1521C66.778 26.1499 66.5266 26.2475 66.3342 26.4445L62.4178 30.4475C62.8212 17.5178 55.0381 5.75829 43.146 1.56628C28.3162 -3.6612 12.1587 4.62531 7.12893 20.0377ZM5.31341 29.5826C4.92323 42.5 12.7034 54.245 24.5866 58.4339C39.4157 63.6612 55.5738 55.3744 60.6034 39.9626C60.7775 39.4292 60.5032 38.8523 59.9908 38.6717C59.4776 38.4907 58.9228 38.7753 58.7488 39.3086C54.0657 53.6582 39.0226 61.3731 25.2156 56.5061C14.0119 52.5567 6.72506 41.3935 7.28932 29.1894L11.2678 33.394C11.647 33.7951 12.2662 33.8007 12.652 33.4058C12.845 33.2091 12.9431 32.9497 12.9451 32.6888C12.9472 32.4285 12.8533 32.167 12.6637 31.9671L7.2316 26.2268C7.03598 26.0197 6.77654 25.918 6.51822 25.9223C6.26536 25.9181 6.01109 26.0154 5.81628 26.2147L0.293184 31.8604C-0.0932235 32.2545 -0.0982397 32.8981 0.28148 33.2988C0.470773 33.4992 0.72026 33.6014 0.971555 33.6035C1.22211 33.6058 1.47331 33.508 1.66576 33.3109L5.31341 29.5826Z"
        fill="currentColor" />
    <path
        d="M26.4316 13.008L22.1836 19.584C21.0796 21.336 20.4316 22.656 20.4316 24.6C20.4316 27.888 23.0956 30.432 26.6476 30.432C30.1276 30.432 32.8396 28.08 32.8396 24.48C32.8396 21.384 30.4156 19.032 27.4156 19.032C26.8396 19.032 26.0716 19.128 25.6156 19.32L25.5916 19.296L29.9356 13.008H26.4316ZM23.3596 24.672C23.3596 22.68 24.7276 21.312 26.6716 21.312C28.5916 21.312 29.8876 22.704 29.8876 24.624C29.8876 26.64 28.5676 27.984 26.6236 27.984C24.6316 27.984 23.3596 26.448 23.3596 24.672ZM47.32 21.504C47.32 16.008 45.184 12.576 41.344 12.576C37.48 12.576 35.32 16.008 35.32 21.504C35.32 27 37.48 30.432 41.344 30.432C45.184 30.432 47.32 27 47.32 21.504ZM44.368 21.504C44.368 23.88 43.912 27.984 41.344 27.984C38.752 27.984 38.272 23.88 38.272 21.504C38.272 19.128 38.752 14.976 41.344 14.976C43.912 14.976 44.368 19.128 44.368 21.504Z"
        fill="currentColor" />
    <path
        d="M21.0373 46H24.5513C27.1413 46 30.0253 44.516 30.0253 41.044C30.0253 37.32 27.1413 36.088 24.5513 36.088H21.0373V46ZM22.8013 44.46V37.6H24.2713C26.0913 37.6 28.1353 38.202 28.1353 41.044C28.1353 43.718 26.0913 44.46 24.2713 44.46H22.8013ZM30.1829 46H32.1569L33.0529 43.732H37.3509L38.2749 46H40.2909L36.0209 36.088H34.4949L30.1829 46ZM33.6549 42.22L35.2089 38.188L36.7349 42.22H33.6549ZM42.8317 46H44.5957V41.702L48.3197 36.088H46.2757L43.7557 40.26L41.2637 36.088H39.1077L42.8317 41.702V46Z"
        fill="currentColor" />
</svg>