<svg xmlns="http://www.w3.org/2000/svg" width="100%" height="100%">
    <title>smiling</title>
    <g>
        <path
            d="M20.7207 41.3C9.48878 41.2953 0.386968 32.1871 0.390138 20.9553C0.393188 9.7235 9.50025 0.620378 20.7319 0.621948C31.9609 0.621948 41.0667 9.7263 41.0681 20.9581C41.0557 32.1897 31.9523 41.2905 20.7207 41.3ZM20.7207 3.07741C10.8438 3.07741 2.83717 11.0842 2.83717 20.961C2.83717 30.8378 10.8438 38.8446 20.7207 38.8446C30.5975 38.8446 38.6042 30.8379 38.6042 20.961C38.6138 11.0747 30.6069 3.0526 20.7207 3.04308V3.07741Z"
            fill="currentColor" />
        <circle cx="12.5127" cy="18.5227" r="2.45545" fill="currentColor" />
        <circle cx="28.9282" cy="18.5227" r="2.45545" fill="currentColor" />
        <path
            d="M20.695 31.7015C17.505 31.7073 14.4889 30.2483 12.513 27.7436C12.0909 27.2102 12.1812 26.4356 12.7147 26.0136C13.2481 25.5916 14.0228 25.682 14.4447 26.2154C15.9658 28.1361 18.2854 29.251 20.7353 29.2393C23.1854 29.2276 25.4941 28.0904 26.9968 26.1553C27.4154 25.6284 28.1786 25.533 28.714 25.9407C28.9712 26.1392 29.1385 26.4321 29.1788 26.7545C29.2191 27.0769 29.129 27.4021 28.9287 27.6578C26.9626 30.2132 23.9193 31.7079 20.695 31.7015H20.695Z"
            fill="currentColor" />
    </g>
    <defs>
        <clipPath id="clip0_13_1543">
            <rect width="40.678" height="40.6781" fill="white" transform="translate(0.390137 0.621948)" />
        </clipPath>
    </defs>
</svg>