<svg xmlns="http://www.w3.org/2000/svg" width="100%" height="100%" viewBox="0 0 37 37" fill="none" testId="soundOff"
    id="soundOff">
    <title>SoundOff</title>
    <path
        d="M27.7637 21.6739L30.8818 18.5558M30.8818 18.5558L33.9999 15.4376M30.8818 18.5558L27.7637 15.4376M30.8818 18.5558L33.9999 21.6739"
        stroke="white" stroke-width="2.3122" stroke-linecap="round" stroke-linejoin="round" />
    <path
        d="M2.81909 21.4501V15.6598C2.81909 14.8328 3.14761 14.0397 3.73237 13.4549C4.31713 12.8702 5.11024 12.5416 5.93722 12.5416H10.4585C10.7633 12.5416 11.0615 12.4521 11.316 12.2844L20.6704 6.11673C20.9054 5.96195 21.178 5.87367 21.4591 5.86126C21.7403 5.84885 22.0195 5.91277 22.2673 6.04624C22.515 6.17971 22.7221 6.37775 22.8664 6.61936C23.0107 6.86096 23.0869 7.13713 23.0869 7.41855V29.6913C23.0869 29.9728 23.0107 30.2489 22.8664 30.4905C22.7221 30.7321 22.515 30.9302 22.2673 31.0637C22.0195 31.1971 21.7403 31.2611 21.4591 31.2486C21.178 31.2362 20.9054 31.148 20.6704 30.9932L11.316 24.8255C11.0615 24.6578 10.7633 24.5683 10.4585 24.5683H5.93722C5.11024 24.5683 4.31713 24.2397 3.73237 23.655C3.14761 23.0702 2.81909 22.2771 2.81909 21.4501Z"
        stroke="white" stroke-width="2.3122" />
</svg>