<svg xmlns="http://www.w3.org/2000/svg" width="100%" height="100%" viewBox="0 0 37 37" fill="none" testId="sound_on"
    id="soundOn">
    <title>SoundOn</title>
    <path
        d="M2 21.4182V15.6918C2 14.8739 2.32489 14.0896 2.90319 13.5113C3.48149 12.933 4.26584 12.6081 5.08368 12.6081H9.55502C9.85648 12.608 10.1513 12.5196 10.403 12.3537L19.6541 6.25415C19.8865 6.10108 20.156 6.01377 20.4341 6.0015C20.7121 5.98923 20.9883 6.05244 21.2333 6.18444C21.4784 6.31643 21.6831 6.51229 21.8258 6.75122C21.9685 6.99016 22.0439 7.26327 22.0439 7.54159V29.5683C22.0439 29.8466 21.9685 30.1197 21.8258 30.3587C21.6831 30.5976 21.4784 30.7935 21.2333 30.9255C20.9883 31.0575 20.7121 31.1207 20.4341 31.1084C20.156 31.0961 19.8865 31.0088 19.6541 30.8558L10.403 24.7562C10.1513 24.5904 9.85648 24.5019 9.55502 24.5018H5.08368C4.26584 24.5018 3.48149 24.1769 2.90319 23.5986C2.32489 23.0203 2 22.236 2 21.4182Z"
        stroke="white" stroke-width="2.3122" />
    <path
        d="M27.1506 12.7419C29.8173 15.6319 29.8173 21.2298 27.1506 24.1198M29.1511 7.05298C37.129 13.2426 37.177 23.6598 29.1511 29.8088"
        stroke="white" stroke-width="2" stroke-linecap="round" stroke-linejoin="round" />
</svg>