<svg xmlns="http://www.w3.org/2000/svg" width="100%" height="100%" viewBox="0 0 42 42" fill="none" testId="star"
    id="star">
    <title>Star</title>
    <path
        d="M21 3.5V7M21 35V38.5M3.5 21H7M35 21H38.5M10.5 31.5L11.1002 30.8997M30.8997 11.1002L31.5 10.5M31.5 31.5L30.8997 30.8997M11.1002 11.1002L10.5 10.5M26.7138 25.5972C26.936 27.8862 27.0462 29.0307 26.376 29.54C25.7057 30.0475 24.6995 29.5855 22.6835 28.658L22.162 28.4165C21.5897 28.154 21.3045 28.021 21 28.021C20.6973 28.021 20.4103 28.154 19.838 28.4165L19.3165 28.658C17.3005 29.5855 16.2943 30.0492 15.624 29.54C14.9538 29.0325 15.064 27.8862 15.2862 25.5972L15.3423 25.0057C15.407 24.3547 15.4385 24.0293 15.3423 23.7283C15.2495 23.4273 15.0413 23.1822 14.6248 22.6957L14.245 22.2513C12.7785 20.5363 12.0435 19.6788 12.3007 18.8545C12.4862 18.2595 13.1023 17.9655 14.245 17.6645M18.5097 15.232C19.6175 13.244 20.1723 12.25 21 12.25C21.8277 12.25 22.3825 13.244 23.4903 15.232L23.7772 15.7465C24.0922 16.3118 24.2497 16.5935 24.4947 16.779C24.7397 16.9663 25.0477 17.0363 25.6585 17.1745L26.215 17.3005C28.3675 17.787 29.4438 18.0303 29.6993 18.8545C29.8848 19.4495 29.554 20.062 28.8032 21"
        stroke="black" stroke-width="1.5" stroke-linecap="round" />
</svg>