<svg width="100%" height="100%" viewBox="0 0 24 24" fill="none" xmlns="http://www.w3.org/2000/svg" id="subscription">
    <title>Subscription</title>
    <g clip-path="url(#clip0_5697_3096)">
        <path
            d="M19.1627 19.2328L18.5018 18.5719L18.8299 18.239L18.3799 17.789L21.9799 17.0765L21.2674 20.6765L19.4955 18.9047L19.1627 19.2328Z"
            fill="#292929" />
        <path
            d="M16.6553 2.93435C16.074 2.63435 15.46 2.38591 14.8271 2.2031L15.0896 1.3031C15.7787 1.50466 16.449 1.77185 17.0865 2.09998L16.6553 2.93435Z"
            fill="#292929" />
        <path
            d="M18.8865 4.50464C18.4412 4.09214 17.9584 3.72183 17.4521 3.39839L17.9584 2.6062C18.5115 2.95776 19.0365 3.36558 19.524 3.81558L18.8865 4.50464Z"
            fill="#292929" />
        <path
            d="M21.4076 6.08428L20.6154 6.58115C20.2967 6.0749 19.9264 5.5874 19.5186 5.14209L20.2123 4.50928C20.6576 4.99678 21.0607 5.52647 21.4076 6.08428Z"
            fill="#292929" />
        <path
            d="M22.683 8.94834L21.783 9.20615C21.6049 8.58271 21.3658 7.96865 21.0752 7.39209L21.9096 6.97021C22.2283 7.59834 22.4908 8.26396 22.683 8.94834Z"
            fill="#292929" />
        <path
            d="M21.8439 22.5796L19.4814 20.2171C17.4189 22.1062 14.7658 23.1375 11.9486 23.1375C8.97676 23.1328 6.1877 21.975 4.0877 19.875C1.98301 17.7703 0.825195 14.9718 0.825195 12C0.825195 9.0234 1.98301 6.22965 4.0877 4.12496C6.6752 1.53746 10.3736 0.384336 13.9783 1.04527L13.8143 1.96871C10.5143 1.35934 7.1252 2.41402 4.75332 4.7859C0.773633 8.76559 0.773633 15.2343 4.75332 19.214C8.71895 23.1796 15.183 23.189 19.158 19.2328L19.4908 18.9046L21.2627 20.6765L21.9752 17.0765L18.3752 17.789L18.8252 18.239L18.1643 18.9L16.4721 17.2078L23.1658 15.8812L21.8439 22.5796Z"
            fill="#292929" />
        <path
            d="M17.5986 12.5296C17.4575 11.5686 17.1281 7.72452 17.0575 6.97973C17.034 6.83558 16.9399 6.69143 16.8223 6.64338C16.7047 6.59533 16.54 6.52325 16.3283 6.40312C16.2342 6.35507 16.093 6.33105 15.9989 6.3791C15.9048 6.42715 15.8107 6.52325 15.7872 6.61935L15.7401 6.7635C15.5755 7.38816 15.199 8.70956 14.5639 9.43033C13.8111 10.2712 12.823 10.7998 11.9996 10.7998C11.1762 10.7998 10.1881 10.2712 9.43534 9.43033C8.80015 8.70956 8.42375 7.38816 8.25907 6.7635L8.21202 6.61935C8.18849 6.52325 8.09439 6.42715 8.00029 6.3791C7.90619 6.33105 7.76504 6.35507 7.67093 6.40312C7.45921 6.52325 7.29453 6.59533 7.1769 6.64338C7.05927 6.69143 6.96517 6.83558 6.94165 6.97973C6.87107 7.72452 6.54172 11.5686 6.40056 12.5296C6.25941 13.7069 6.42409 14.5718 6.96517 15.4367C7.10633 15.6289 7.1769 15.8211 7.20043 15.9172C7.22395 16.0854 7.29453 17.1185 7.29453 17.2386C7.29453 17.3587 7.34158 17.4788 7.43568 17.5509C7.50626 17.623 7.60036 17.647 7.69446 17.647C7.71798 17.647 7.76504 17.647 7.76504 17.647C8.98835 17.2866 10.3058 17.1185 11.9525 17.1185C11.9761 17.1185 12.0231 17.1185 12.0466 17.1185C13.6934 17.1185 15.0108 17.2866 16.2342 17.647C16.2342 17.647 16.2812 17.647 16.3047 17.647C16.3988 17.647 16.4929 17.623 16.5635 17.5509C16.6341 17.4788 16.7047 17.3587 16.7047 17.2386C16.7047 17.1185 16.7752 16.0854 16.7988 15.9172C16.8223 15.8211 16.8929 15.6289 17.034 15.4367C17.5751 14.5718 17.7398 13.7069 17.5986 12.5296ZM16.7517 15.2205C16.587 15.4847 16.4929 15.6769 16.4694 15.8211C16.4459 16.0133 16.3753 17.0944 16.3753 17.1905C16.3753 17.2146 16.3753 17.2626 16.3518 17.2866C16.3283 17.3107 16.3047 17.3107 16.2812 17.2866C15.0108 16.9263 13.6464 16.7581 11.9996 16.7341C10.3528 16.7581 8.98835 16.9263 7.71798 17.2866C7.69446 17.2866 7.67093 17.2866 7.64741 17.2866C7.62388 17.2626 7.62388 17.2146 7.62388 17.1905C7.62388 17.0944 7.55331 16.0133 7.52978 15.8211C7.50626 15.6769 7.41215 15.4847 7.24748 15.2205C6.72992 14.4276 6.58877 13.6108 6.72992 12.5296C6.87107 11.5686 7.20043 7.72452 7.271 6.97973C7.271 6.93168 7.29453 6.93168 7.31805 6.90766C7.43568 6.85961 7.81209 6.6674 7.83561 6.6674C7.85914 6.6674 7.88266 6.64338 7.90619 6.6674C7.92971 6.6674 7.95324 6.69143 7.95324 6.71545L8.00029 6.85961C8.18849 7.50829 8.5649 8.87774 9.24713 9.64656C10.047 10.5595 11.0821 11.0881 11.9996 11.1121C12.9171 11.1121 13.9522 10.5595 14.7521 9.64656C15.4343 8.87774 15.8107 7.50829 15.9989 6.85961L16.046 6.71545C16.046 6.69143 16.0695 6.6674 16.093 6.6674C16.1165 6.64338 16.1401 6.6674 16.1636 6.6674C16.1871 6.6674 16.5635 6.85961 16.6811 6.90766C16.7047 6.93168 16.7282 6.93168 16.7282 6.97973C16.7988 7.72452 17.1281 11.5686 17.2693 12.5296C17.4104 13.6108 17.2693 14.4276 16.7517 15.2205Z"
            fill="#292929" />
    </g>
    <defs>
        <clipPath id="clip0_5697_3096">
            <rect width="24" height="24" fill="white" />
        </clipPath>
    </defs>
</svg>