<svg xmlns="http://www.w3.org/2000/svg" width="100%" height="100%" viewBox="0 0 36 36" fill="none" id="subscription">
    <g id="recycle-refresh-reload-repeat-rotate-sync-svgrepo-com 1">
        <path id="Vector"
            d="M28.744 28.8486L27.7526 27.8572L28.2448 27.358L27.5698 26.683L32.9698 25.6143L31.9011 31.0143L29.2433 28.3564L28.744 28.8486Z"
            fill="currentColor" />
        <g id="Group">
            <g id="Group_2">
                <path id="Vector_2"
                    d="M24.9814 4.40195C24.1096 3.95195 23.1885 3.5793 22.2393 3.30508L22.633 1.95508C23.6666 2.25742 24.6721 2.6582 25.6283 3.15039L24.9814 4.40195Z"
                    fill="currentColor" />
            </g>
            <g id="Group_3">
                <path id="Vector_3"
                    d="M28.3288 6.75781C27.6608 6.13906 26.9366 5.58359 26.1772 5.09844L26.9366 3.91016C27.7663 4.4375 28.5538 5.04922 29.2851 5.72422L28.3288 6.75781Z"
                    fill="currentColor" />
            </g>
            <g id="Group_4">
                <path id="Vector_4"
                    d="M32.1119 9.12813L30.9236 9.87344C30.4455 9.11406 29.89 8.38281 29.2783 7.71484L30.3189 6.76562C30.9869 7.49687 31.5916 8.29141 32.1119 9.12813Z"
                    fill="currentColor" />
            </g>
            <g id="Group_5">
                <path id="Vector_5"
                    d="M34.024 13.4242L32.674 13.8109C32.4068 12.8758 32.0482 11.9547 31.6123 11.0898L32.8639 10.457C33.342 11.3992 33.7357 12.3977 34.024 13.4242Z"
                    fill="currentColor" />
            </g>
            <g id="Group_6">
                <path id="Vector_6"
                    d="M32.7654 33.87L29.2217 30.3262C26.1279 33.1598 22.1482 34.7067 17.9225 34.7067C13.4646 34.6996 9.28106 32.9629 6.13105 29.8129C2.97402 26.6559 1.2373 22.4582 1.2373 18.0004C1.2373 13.5356 2.97402 9.34496 6.13105 6.18793C10.0123 2.30668 15.56 0.576992 20.967 1.5684L20.7209 2.95355C15.7709 2.03949 10.6873 3.62152 7.12949 7.17934C1.15996 13.1489 1.15996 22.852 7.12949 28.8215C13.0779 34.77 22.774 34.784 28.7365 28.8496L29.2357 28.3575L31.8936 31.0153L32.9623 25.6153L27.5623 26.684L28.2373 27.359L27.2459 28.3504L24.7076 25.8121L34.7482 23.8223L32.7654 33.87Z"
                    fill="currentColor" />
            </g>
        </g>
        <path id="Vector_7"
            d="M16.7778 6C15.3333 6 14.6111 7.64286 16.0556 8.46429V9.69643C16.0556 10.0792 15.7392 10.2065 15.6959 10.2221C14.375 10.509 13.1834 11.3107 12.3263 12.4892C11.4692 13.6676 11.0002 15.1491 11 16.6786V25.7143C11 26.5857 11.3044 27.4214 11.8461 28.0376C12.3879 28.6538 13.1227 29 13.8889 29H21.1111C21.8773 29 22.6121 28.6538 23.1539 28.0376C23.6956 27.4214 24 26.5857 24 25.7143V16.6786C24 13.4701 21.9778 10.798 19.3041 10.2221H19.3084C19.3084 10.2221 18.9473 10.1071 18.9444 9.69643V8.46429H21.1111C21.8333 8.46429 22.1944 7.23214 21.1111 6.82143C21.1111 6.82143 17.5 6 16.7778 6ZM16.7778 11.75H18.2222C19.3715 11.75 20.4737 12.2693 21.2864 13.1935C22.099 14.1178 22.5556 15.3714 22.5556 16.6786V25.7143C22.5556 26.15 22.4034 26.5679 22.1325 26.876C21.8616 27.1841 21.4942 27.3571 21.1111 27.3571H13.8889C13.5058 27.3571 13.1384 27.1841 12.8675 26.876C12.5966 26.5679 12.4444 26.15 12.4444 25.7143V16.6786C12.4444 15.3714 12.901 14.1178 13.7136 13.1935C14.5263 12.2693 15.6285 11.75 16.7778 11.75Z"
            fill="black" />
    </g>
</svg>