<svg xmlns="http://www.w3.org/2000/svg" width="100%" height="100%" fill="currentColor">
    <title>thumbs down</title>
    <g>
        <path
            d="M3.59375 12.1903H1.90625C1.1307 12.1903 0.5 11.5084 0.5 10.6665V2.74289C0.5 1.90101 1.1307 1.21912 1.90625 1.21912H3.59375C4.3707 1.21912 5 1.90101 5 2.74289V10.6665C5 11.5084 4.3707 12.1903 3.59375 12.1903ZM3.875 2.74289C3.875 2.57528 3.74879 2.43814 3.59375 2.43814H1.90625C1.75121 2.43814 1.625 2.57528 1.625 2.74289V10.6665C1.625 10.8341 1.75121 10.9713 1.90625 10.9713H3.59375C3.74879 10.9713 3.875 10.8341 3.875 10.6665V2.74289ZM18.5 11.0665C18.5 12.3579 17.5297 13.4093 16.3379 13.4093H12.7344C13.1555 14.4402 13.3964 15.4466 13.3964 15.9742C13.3988 17.1106 12.5797 18.2854 11.2191 18.2854C9.77 18.2854 9.43672 17.1765 9.1407 16.1974C8.16758 12.9865 6.125 12.4646 6.125 11.5808C6.125 11.2341 6.38867 10.9713 6.6875 10.9713C6.83164 10.9713 6.97578 11.0322 7.08477 11.1503C8.9368 13.1708 9.44094 13.2878 10.207 15.8169C10.5301 16.8778 10.632 17.0664 11.2191 17.0664C11.9455 17.0664 12.2717 16.4275 12.2717 15.9742C12.2717 15.5898 11.9591 14.3 11.3359 13.0989C11.2878 13.0062 11.2639 12.9034 11.2639 12.8006C11.2648 12.4379 11.5391 12.1903 11.8273 12.1903H16.3379C16.9109 12.1903 17.375 11.6875 17.375 11.0665C17.375 10.4825 16.9503 9.99378 16.4089 9.95416C16.1114 9.93202 15.8847 9.66278 15.8847 9.34617C15.8847 8.8818 16.3087 8.85628 16.3087 8.17934C16.3087 7.64069 15.9533 7.17746 15.4639 7.0788C15.2608 7.03758 15.0048 6.83434 15.0048 6.47881C15.0048 6.1403 15.2426 6.07044 15.2426 5.58131C15.2426 4.39962 14.1348 4.73866 14.1348 3.94134C14.1348 3.80702 14.1765 3.74592 14.1765 3.56002C14.1758 2.94098 13.7117 2.43814 13.1387 2.43814H11.184C8.30082 2.43814 7.37656 4.87694 6.6875 4.87694C6.37556 4.87694 6.125 4.60293 6.125 4.26895C6.09336 3.64573 8.39609 1.21912 11.184 1.21912H13.1397C14.3319 1.21912 15.3018 2.26976 15.3018 3.56078C15.954 3.97449 16.3681 4.74171 16.3681 5.58207C16.3681 5.76481 16.3472 5.94755 16.3072 6.12567C16.986 6.52643 17.4343 7.30546 17.4343 8.18048C17.4343 8.45549 17.3892 8.72562 17.3024 8.97971C18.0148 9.3637 18.5 10.1599 18.5 11.0665Z"
            fill="currentColor" />
    </g>
</svg>