<svg id="tk_sixty_days_bold" dataName="TK 60 Days Bold" xmlns="http://www.w3.org/2000/svg" width="100%" height="100%" viewBox="0 0 55.892 47.699">
	<title>
		tk sixty days bold
	</title>
	<g id="Grupo_45" dataName="Grupo 45" transform="translate(17.777 12.342)">
		<path id="Trazado_125" dataName="Trazado 125" d="M933.732,885.051a5.185,5.185,0,0,0-1.741-.358,3.3,3.3,0,0,0-3.584,2.817,3.036,3.036,0,0,1,2.629-1.161,3.5,3.5,0,0,1,3.7,3.687c0,2.27-1.792,3.96-4.369,3.96-2.629,0-4.592-1.912-4.592-5.087,0-3.926,2.526-6.5,6.366-6.5a4.931,4.931,0,0,1,2.3.458Zm-3.4,6.692a1.627,1.627,0,1,0-.077,0Z" transform="translate(-925.778 -882.401)" fill="currentColor" />
		<path id="Trazado_126" dataName="Trazado 126" d="M945.363,884.3a4.685,4.685,0,0,1,7.528,0,8.337,8.337,0,0,1,0,7.817,4.685,4.685,0,0,1-7.528,0A8.336,8.336,0,0,1,945.363,884.3Zm2.134,6.315a1.694,1.694,0,0,0,1.622,1.024,1.676,1.676,0,0,0,1.621-1.024,7,7,0,0,0,0-4.813,1.676,1.676,0,0,0-1.621-1.023,1.694,1.694,0,0,0-1.622,1.023A7.276,7.276,0,0,0,947.5,890.619Z" transform="translate(-933.737 -882.404)" fill="currentColor" />
		<path id="Trazado_127" dataName="Trazado 127" d="M926.32,913.565V907.2h2.309a3.184,3.184,0,1,1,.076,6.369H926.32Zm2.246-1.338a1.848,1.848,0,0,0,0-3.693h-.827v3.692Z" transform="translate(-926.01 -893.006)" fill="currentColor" />
		<path id="Trazado_128" dataName="Trazado 128" d="M938.4,912.308l1.051-.161c.243-.036.323-.153.323-.306,0-.26-.225-.485-.656-.485a.718.718,0,0,0-.763.656l-1.186-.243a1.783,1.783,0,0,1,1.959-1.482c1.446,0,1.976.809,1.976,1.725V914.2a4.516,4.516,0,0,0,.053.692h-1.231a2.186,2.186,0,0,1-.045-.5,1.563,1.563,0,0,1-2.8-.727A1.374,1.374,0,0,1,938.4,912.308Zm1.374.826v-.2l-.844.135c-.286.045-.5.18-.5.494,0,.233.153.458.531.458.408,0,.821-.2.821-.889Z" transform="translate(-930.608 -894.327)" fill="currentColor" />
		<path id="Trazado_129" dataName="Trazado 129" d="M945.79,916.7l1.015-2.318-1.878-3.863h1.527l1.087,2.39.989-2.39h1.447L947.23,916.7Z" transform="translate(-933.967 -894.427)" fill="currentColor" />
		<path id="Trazado_130" dataName="Trazado 130" d="M955.37,913.412a.636.636,0,0,0,.666.6l.035,0c.351,0,.521-.188.521-.386,0-.162-.108-.3-.44-.368l-.515-.115c-.952-.207-1.329-.744-1.329-1.374a1.582,1.582,0,0,1,1.673-1.485l.044,0a1.584,1.584,0,0,1,1.787,1.33l-1.132.207a.586.586,0,0,0-.622-.549h-.016a.435.435,0,0,0-.484.379v.007c0,.188.153.3.351.333l.592.115c.925.188,1.374.744,1.374,1.4a1.576,1.576,0,0,1-1.779,1.509,1.679,1.679,0,0,1-1.889-1.4Z" transform="translate(-937.936 -894.325)" fill="currentColor" />
	</g>
	<g id="Grupo_46" dataName="Grupo 46" transform="translate(0 0)">
		<path id="Trazado_129-2" dataName="Trazado 129" d="M978.73,903.356a1.65,1.65,0,0,1-1.168-.48L973.682,899a1.431,1.431,0,1,1,2.023-2.023L978.732,900l3.026-3.026A1.431,1.431,0,1,1,983.781,899l-3.877,3.876A1.66,1.66,0,0,1,978.73,903.356Z" transform="translate(-928.308 -876.111)" fill="currentColor" />
		<path id="Trazado_130-2" dataName="Trazado 130" d="M904.225,903.042a1.427,1.427,0,0,1-1.011-.419l-3.026-3.027-3.027,3.027a1.431,1.431,0,1,1-2.023-2.023l3.877-3.878a1.664,1.664,0,0,1,2.342,0l3.88,3.88a1.431,1.431,0,0,1-1.012,2.442Z" transform="translate(-894.719 -875.977)" fill="currentColor" />
		<path id="Trazado_131" dataName="Trazado 131" d="M949.815,887.91a1,1,0,0,1-.11,0,1.431,1.431,0,0,1-1.316-1.536c.042-.538.062-1.083.062-1.621a21.05,21.05,0,0,0-39.941-9.285,1.431,1.431,0,0,1-2.568-1.263,23.912,23.912,0,0,1,45.371,10.548c0,.61-.023,1.229-.07,1.839A1.431,1.431,0,0,1,949.815,887.91Z" transform="translate(-899.455 -860.837)" fill="currentColor" />
		<path id="Trazado_132" dataName="Trazado 132" d="M925.664,923.938a23.945,23.945,0,0,1-23.891-23.924c0-.616.023-1.235.069-1.84a1.431,1.431,0,0,1,2.854.218c-.041.532-.061,1.078-.061,1.622a21.05,21.05,0,0,0,39.941,9.285,1.431,1.431,0,0,1,2.568,1.263,23.979,23.979,0,0,1-21.479,13.373Z" transform="translate(-897.735 -876.239)" fill="currentColor" />
	</g>
</svg>
