<svg xmlns="http://www.w3.org/2000/svg" width="100%" height="100%" viewBox="0 0 72 72" fill="none" testId="unhappy">
<path d="M54.0007 54.0049C63.794 44.2116 63.794 28.3335 54.0007 18.5402C44.2074 8.74694 28.3293 8.74694 18.536 18.5402C8.74275 28.3335 8.74275 44.2116 18.536 54.0049C28.3293 63.7982 44.2074 63.7982 54.0007 54.0049Z" stroke="#457A41" stroke-width="2.20408" stroke-linecap="round" stroke-linejoin="round"/>
<path d="M23.8559 30.4377H23.856V30.4356C23.856 30.2151 23.9213 29.9997 24.0439 29.8164C24.1664 29.6332 24.3405 29.4904 24.5442 29.4061C24.7479 29.3219 24.972 29.2999 25.1881 29.3431C25.4043 29.3862 25.6028 29.4926 25.7585 29.6486C25.9142 29.8046 26.0202 30.0033 26.0629 30.2196C26.1057 30.4358 26.0833 30.6599 25.9986 30.8634C25.914 31.0669 25.7709 31.2408 25.5874 31.3629C25.4039 31.4851 25.1883 31.5501 24.9679 31.5496L24.9657 31.5496C24.8198 31.5496 24.6753 31.5209 24.5405 31.4649C24.4057 31.409 24.2833 31.3271 24.1802 31.2238L23.4002 32.0023L24.1802 31.2238C24.0772 31.1206 23.9955 30.998 23.9398 30.8631C23.8842 30.7282 23.8557 30.5836 23.8559 30.4377Z" fill="#457A41" stroke="#457A41" stroke-width="2.20408"/>
<path d="M46.4604 30.4377H46.4604V30.4356C46.4604 30.2151 46.5258 29.9997 46.6483 29.8164C46.7708 29.6332 46.945 29.4904 47.1487 29.4061C47.3524 29.3219 47.5765 29.2999 47.7926 29.3431C48.0088 29.3862 48.2073 29.4926 48.363 29.6486C48.5187 29.8046 48.6247 30.0033 48.6674 30.2196C48.7102 30.4358 48.6878 30.6599 48.6031 30.8634C48.5185 31.0669 48.3754 31.2408 48.1919 31.3629C48.0084 31.4851 47.7928 31.5501 47.5723 31.5496L47.5702 31.5496C47.4243 31.5496 47.2798 31.5209 47.145 31.4649C47.0102 31.409 46.8878 31.3271 46.7847 31.2238L46.0047 32.0023L46.7847 31.2238C46.6817 31.1206 46.6 30.998 46.5443 30.8631C46.4887 30.7282 46.4602 30.5836 46.4604 30.4377Z" fill="#457A41" stroke="#457A41" stroke-width="2.20408"/>
<path d="M24.124 46.5332C25.1503 44.1643 26.8469 42.1473 29.005 40.7304C31.163 39.3136 33.6882 38.5587 36.2698 38.5587C38.8514 38.5587 41.3767 39.3136 43.5347 40.7304C45.6928 42.1473 47.3894 44.1643 48.4157 46.5332" stroke="#457A41" stroke-width="2.20408" stroke-linecap="round" stroke-linejoin="round"/>
</svg>