<svg xmlns="http://www.w3.org/2000/svg" width="100%" height="100%" viewBox="0 0 73 72" fill="none" testId="wallet_thin">
<title>Wallet Thin</title>
<path d="M60.1914 21.4899H15.1914C14.2963 21.4899 13.4379 21.1343 12.8049 20.5014C12.172 19.8684 11.8164 19.01 11.8164 18.1149C11.8164 17.2198 12.172 16.3613 12.8049 15.7284C13.4379 15.0954 14.2963 14.7399 15.1914 14.7399H53.4414C53.7398 14.7399 54.0259 14.6213 54.2369 14.4104C54.4479 14.1994 54.5664 13.9132 54.5664 13.6149C54.5664 13.3165 54.4479 13.0304 54.2369 12.8194C54.0259 12.6084 53.7398 12.4899 53.4414 12.4899H15.1914C13.6996 12.4899 12.2688 13.0825 11.2139 14.1374C10.159 15.1923 9.56641 16.623 9.56641 18.1149V54.1149C9.56641 55.6067 10.159 57.0375 11.2139 58.0923C12.2688 59.1472 13.6996 59.7399 15.1914 59.7399H60.1914C61.0865 59.7399 61.945 59.3843 62.5779 58.7514C63.2108 58.1184 63.5664 57.26 63.5664 56.3649V24.8649C63.5664 23.9698 63.2108 23.1113 62.5779 22.4784C61.945 21.8454 61.0865 21.4899 60.1914 21.4899ZM61.3164 56.3649C61.3164 56.6632 61.1979 56.9494 60.9869 57.1604C60.7759 57.3713 60.4898 57.4899 60.1914 57.4899H15.1914C14.2963 57.4899 13.4379 57.1343 12.8049 56.5014C12.172 55.8684 11.8164 55.01 11.8164 54.1149V22.6149C12.7887 23.3477 13.9739 23.7427 15.1914 23.7399H60.1914C60.4898 23.7399 60.7759 23.8584 60.9869 24.0694C61.1979 24.2804 61.3164 24.5665 61.3164 24.8649V56.3649ZM52.3164 39.4899C52.3164 39.9349 52.1844 40.3699 51.9372 40.7399C51.69 41.1099 51.3386 41.3983 50.9274 41.5686C50.5163 41.7389 50.0639 41.7835 49.6274 41.6966C49.191 41.6098 48.7901 41.3955 48.4754 41.0809C48.1607 40.7662 47.9465 40.3653 47.8596 39.9288C47.7728 39.4924 47.8174 39.04 47.9877 38.6288C48.158 38.2177 48.4464 37.8663 48.8164 37.6191C49.1864 37.3718 49.6214 37.2399 50.0664 37.2399C50.6631 37.2399 51.2354 37.4769 51.6574 37.8989C52.0794 38.3208 52.3164 38.8931 52.3164 39.4899Z" fill="#457A41"/>
</svg>