<svg xmlns="http://www.w3.org/2000/svg" width="100%" height="100%" viewBox="0 0 41 41" fill="none" testId="winter_light"
    id="winter_light">
    <title>Winter Light</title>
    <path
        d="M21 25C23.7614 25 26 22.7614 26 20C26 17.2386 23.7614 15 21 15C18.2386 15 16 17.2386 16 20C16 22.7614 18.2386 25 21 25Z"
        stroke="black" />
    <path
        d="M21 14V8M21 8V2M21 8L15 4M21 8L27 4M27 20H33M33 20H39M33 20L37 14M33 20L37 26M21 26V32M21 32V38M21 32L15 36M21 32L27 36M15 20H9M9 20H3M9 20L5 14M9 20L5 26"
        stroke="black" stroke-linecap="round" />
</svg>