<svg xmlns="http://www.w3.org/2000/svg" width="100%" height="100%" viewBox="0 0 24 24" fill="none"
    id="address_information_light">
    <title>Address Information light</title>
    <g clip-path="url(#clip0_5697_2804)">
        <path
            d="M23.6325 13.3311C23.6325 14.5129 23.6494 15.6947 23.6272 16.8771C23.606 17.9826 23.1975 18.958 22.3835 19.699C21.9072 20.1319 21.3155 20.4399 20.7677 20.7919C19.5328 21.5875 18.2937 22.379 17.0503 23.1666C16.4629 23.5417 15.8132 23.8087 15.1318 23.9551C14.6243 24.0647 14.1379 23.9636 13.65 23.8133C12.6973 23.5185 11.9151 22.9252 11.0927 22.4013C9.79285 21.5735 8.49303 20.7458 7.20168 19.9048C6.61952 19.5254 6.27445 18.9485 6.01513 18.3208C5.79198 17.7736 5.6818 17.1869 5.69123 16.596C5.70605 14.3475 5.70605 12.0987 5.69123 9.84979C5.68647 9.04323 6.00878 8.46371 6.69679 8.03661C8.9196 6.65741 11.1175 5.24063 13.3462 3.87307C14.2274 3.33218 15.1736 3.36288 16.0527 3.908C18.311 5.30837 20.5555 6.73732 22.8074 8.14934C23.3636 8.49864 23.6251 9.00671 23.6267 9.65397C23.6298 10.8797 23.6267 12.1054 23.6267 13.3311H23.6325ZM14.0262 22.6304C14.0342 22.4717 14.0421 22.3843 14.0421 22.2991C14.0421 19.6356 14.0404 16.9718 14.0368 14.3076C14.0313 14.1064 13.9852 13.9084 13.9013 13.7254C13.6796 13.2248 13.2795 12.8728 12.8296 12.5865C11.1943 11.5471 9.55363 10.5149 7.90769 9.48991C7.73259 9.38918 7.54328 9.31549 7.34617 9.27133C7.12071 9.21364 6.9921 9.31578 6.95982 9.54653C6.95037 9.64308 6.94754 9.74016 6.95135 9.83709C6.95135 12.1393 6.9413 14.4415 6.96141 16.7437C6.96458 17.1142 7.06355 17.491 7.18157 17.844C7.4065 18.5161 7.94103 18.9025 8.52531 19.2671C10.0146 20.1912 11.4769 21.1581 12.9593 22.0933C13.2821 22.297 13.641 22.4389 14.0262 22.6304ZM15.2768 22.6304C15.6711 22.4394 16.0178 22.3087 16.3274 22.1144C17.8849 21.1337 19.4208 20.1181 20.9847 19.1507C21.9326 18.5648 22.3644 17.7371 22.3644 16.649C22.3644 14.3736 22.3644 12.0978 22.3644 9.82174C22.3693 9.72482 22.3665 9.62766 22.356 9.53119C22.3205 9.31473 22.2014 9.18824 21.9696 9.25757C21.7825 9.30479 21.6024 9.37594 21.4335 9.46926C20.3009 10.1661 19.1719 10.8698 18.0464 11.5804C17.4504 11.9556 16.8487 12.324 16.2755 12.732C15.6113 13.2046 15.2414 13.8085 15.2573 14.6929C15.3028 17.1972 15.2731 19.7027 15.2731 22.2081L15.2768 22.6304ZM20.7963 8.37797C20.6857 8.30017 20.6036 8.23772 20.5168 8.18321C19.787 7.72436 19.0498 7.27662 18.329 6.80295C18.121 6.6664 17.9802 6.67011 17.7727 6.80295C16.5719 7.57088 15.3599 8.32187 14.1527 9.07868C13.4181 9.5423 12.6804 10.0075 11.9088 10.4949C12.8614 11.165 13.9315 11.6381 14.6328 12.559C14.9312 12.2806 15.1847 11.9736 15.5023 11.7619C16.6285 11.0099 17.778 10.2885 18.9175 9.55976C19.5319 9.1676 20.1506 8.78337 20.7963 8.37797ZM8.5105 8.35574C8.5957 8.41819 8.64863 8.46159 8.70632 8.49864C9.28001 8.86064 9.86059 9.21099 10.4242 9.58676C10.6391 9.73018 10.7947 9.72436 11.0112 9.58676C12.4957 8.64259 13.9903 7.70901 15.4822 6.77278C15.9347 6.48911 16.3861 6.20385 16.8736 5.89689C16.3708 5.57934 15.904 5.28826 15.4388 4.99294C14.918 4.6627 14.4025 4.66217 13.8786 4.99294C12.6349 5.77657 11.389 6.55703 10.1411 7.33431L8.5105 8.35574Z"
            fill="currentColor" />
        <path
            d="M4.24846 18.2906C4.15282 18.2702 4.06004 18.2383 3.9722 18.1953C3.07954 17.6837 2.18919 17.1673 1.30112 16.6462C1.19462 16.59 1.10885 16.5013 1.0563 16.393C1.00376 16.2846 0.987175 16.1624 1.00898 16.0439C1.04708 15.7793 1.19686 15.5676 1.4673 15.5258C1.6393 15.4994 1.81526 15.5273 1.97061 15.6057C2.85338 16.1 3.7261 16.6113 4.59829 17.1247C4.87297 17.2861 4.98305 17.5655 4.90525 17.8439C4.82745 18.1223 4.6094 18.2874 4.24846 18.2906Z"
            fill="currentColor" />
        <path
            d="M12.1543 2.20952C12.158 2.66414 11.669 2.94411 11.2017 2.68954C10.692 2.41275 10.1934 2.1169 9.69067 1.82847C9.32479 1.61889 8.95961 1.40825 8.59514 1.19655C8.2649 1.00497 8.14688 0.646674 8.312 0.343948C8.49512 0.00893877 8.83754 -0.0990258 9.18948 0.0989102C10.085 0.602747 10.9741 1.11823 11.8637 1.63371C12.0611 1.74697 12.1575 1.92691 12.1543 2.20952Z"
            fill="currentColor" />
        <path
            d="M1.61609 4.61011C1.74734 4.65509 1.88865 4.68155 2.0072 4.74877C2.84181 5.22191 3.67219 5.7014 4.50309 6.18142C4.83228 6.37142 4.97624 6.62386 4.91961 6.90383C4.82752 7.35739 4.36338 7.54421 3.92411 7.29547C3.32659 6.95729 2.73331 6.61116 2.13951 6.26716C1.85001 6.09939 1.55734 5.93797 1.27526 5.75697C1.16143 5.68666 1.07529 5.57929 1.03134 5.45292C0.987382 5.32656 0.988295 5.18891 1.03392 5.06314C1.11648 4.8001 1.3303 4.6408 1.61609 4.61011Z"
            fill="currentColor" />
        <path
            d="M7.85476 5.00567C7.76479 4.96333 7.58008 4.88871 7.40702 4.79397C7.06196 4.60344 6.72166 4.40286 6.38083 4.2044C6.01988 3.9927 5.90451 3.63811 6.08551 3.31262C6.26651 2.98714 6.62745 2.90669 6.99898 3.11733C7.4259 3.35973 7.85141 3.60512 8.27551 3.85351C8.53748 4.00752 8.64597 4.2769 8.56235 4.54946C8.47185 4.84531 8.26016 5.00726 7.85476 5.00567Z"
            fill="currentColor" />
        <path
            d="M4.21303 12.1238C4.21303 12.6477 3.74148 12.9621 3.32126 12.7477C2.837 12.5006 2.36863 12.2217 1.90766 11.9322C1.60705 11.7432 1.54777 11.3971 1.72189 11.1002C1.89072 10.8134 2.23208 10.7112 2.54645 10.8817C3.00901 11.1325 3.46151 11.4024 3.91771 11.666C4.11671 11.7814 4.2215 11.9528 4.21303 12.1238Z"
            fill="currentColor" />
    </g>
    <defs>
        <clipPath id="clip0_5697_2804">
            <rect width="24" height="24" fill="white" />
        </clipPath>
    </defs>
</svg>