<svg xmlns="http://www.w3.org/2000/svg" width="100%" height="100%">
    <title>Address Information</title>
    <g clipPath="url(#clip0_1_3119)">
        <path
            d="M24.1322 13.3311C24.1322 14.5129 24.1492 15.6947 24.127 16.8771C24.1058 17.9826 23.6972 18.958 22.8832 19.699C22.4069 20.1319 21.8152 20.4399 21.2675 20.7919C20.0326 21.5875 18.7934 22.379 17.5501 23.1666C16.9627 23.5417 16.313 23.8087 15.6316 23.9551C15.124 24.0647 14.6377 23.9636 14.1497 23.8133C13.1971 23.5185 12.4149 22.9252 11.5924 22.4013C10.2926 21.5735 8.99279 20.7458 7.70144 19.9048C7.11927 19.5254 6.77421 18.9485 6.51488 18.3208C6.29173 17.7736 6.18156 17.1869 6.19099 16.596C6.20581 14.3475 6.20581 12.0987 6.19099 9.84979C6.18622 9.04323 6.50853 8.46371 7.19654 8.03661C9.41935 6.65741 11.6173 5.24063 13.8459 3.87307C14.7271 3.33218 15.6734 3.36288 16.5525 3.908C18.8107 5.30837 21.0552 6.73732 23.3072 8.14934C23.8634 8.49864 24.1248 9.00671 24.1264 9.65397C24.1296 10.8797 24.1264 12.1054 24.1264 13.3311H24.1322ZM14.526 22.6304C14.5339 22.4717 14.5419 22.3843 14.5419 22.2991C14.5419 19.6356 14.5401 16.9718 14.5366 14.3076C14.5311 14.1064 14.485 13.9084 14.4011 13.7254C14.1793 13.2248 13.7792 12.8728 13.3294 12.5865C11.694 11.5471 10.0534 10.5149 8.40745 9.48991C8.23235 9.38918 8.04304 9.31549 7.84592 9.27133C7.62047 9.21364 7.49186 9.31578 7.45958 9.54653C7.45012 9.64308 7.44729 9.74016 7.45111 9.83709C7.45111 12.1393 7.44105 14.4415 7.46116 16.7437C7.46434 17.1142 7.56331 17.491 7.68133 17.844C7.90626 18.5161 8.44079 18.9025 9.02507 19.2671C10.5144 20.1912 11.9766 21.1581 13.459 22.0933C13.7819 22.297 14.1407 22.4389 14.526 22.6304ZM15.7766 22.6304C16.1709 22.4394 16.5175 22.3087 16.8271 22.1144C18.3847 21.1337 19.9205 20.1181 21.4845 19.1507C22.4323 18.5648 22.8642 17.7371 22.8642 16.649C22.8642 14.3736 22.8642 12.0978 22.8642 9.82174C22.8691 9.72482 22.8662 9.62766 22.8557 9.53119C22.8203 9.31473 22.7012 9.18824 22.4694 9.25757C22.2823 9.30479 22.1021 9.37594 21.9332 9.46926C20.8007 10.1661 19.6716 10.8698 18.5461 11.5804C17.9502 11.9556 17.3484 12.324 16.7753 12.732C16.1111 13.2046 15.7411 13.8085 15.757 14.6929C15.8025 17.1972 15.7729 19.7027 15.7729 22.2081L15.7766 22.6304ZM21.296 8.37797C21.1854 8.30017 21.1034 8.23772 21.0166 8.18321C20.2868 7.72436 19.5495 7.27662 18.8287 6.80295C18.6207 6.6664 18.48 6.67011 18.2725 6.80295C17.0716 7.57088 15.8597 8.32187 14.6525 9.07868C13.9179 9.5423 13.1801 10.0075 12.4085 10.4949C13.3611 11.165 14.4313 11.6381 15.1325 12.559C15.431 12.2806 15.6845 11.9736 16.002 11.7619C17.1283 11.0099 18.2778 10.2885 19.4172 9.55976C20.0317 9.1676 20.6504 8.78337 21.296 8.37797ZM9.01025 8.35574C9.09546 8.41819 9.14838 8.46159 9.20607 8.49864C9.77977 8.86064 10.3603 9.21099 10.924 9.58676C11.1389 9.73018 11.2945 9.72436 11.5109 9.58676C12.9954 8.64259 14.49 7.70901 15.9819 6.77278C16.4344 6.48911 16.8859 6.20385 17.3733 5.89689C16.8705 5.57934 16.4037 5.28826 15.9385 4.99294C15.4178 4.6627 14.9023 4.66217 14.3783 4.99294C13.1346 5.77657 11.8888 6.55703 10.6408 7.33431L9.01025 8.35574Z"
            fill="none" />
        <path
            d="M4.74834 18.2906C4.6527 18.2702 4.55992 18.2383 4.47208 18.1953C3.57942 17.6837 2.68906 17.1673 1.801 16.6462C1.6945 16.59 1.60873 16.5013 1.55618 16.393C1.50363 16.2846 1.48705 16.1624 1.50886 16.0439C1.54696 15.7793 1.69674 15.5676 1.96718 15.5258C2.13918 15.4994 2.31514 15.5273 2.47049 15.6057C3.35326 16.1 4.22598 16.6113 5.09817 17.1247C5.37284 17.2861 5.48292 17.5655 5.40513 17.8439C5.32733 18.1223 5.10928 18.2874 4.74834 18.2906Z"
            fill="none" />
        <path
            d="M12.6542 2.20952C12.6579 2.66414 12.1688 2.94411 11.7015 2.68954C11.1919 2.41275 10.6933 2.1169 10.1905 1.82847C9.82467 1.61889 9.45949 1.40825 9.09502 1.19655C8.76477 1.00497 8.64675 0.646674 8.81188 0.343948C8.99499 0.00893877 9.33741 -0.0990258 9.68936 0.0989102C10.5848 0.602747 11.474 1.11823 12.3636 1.63371C12.561 1.74697 12.6573 1.92691 12.6542 2.20952Z"
            fill="none" />
        <path
            d="M2.11609 4.61011C2.24734 4.65509 2.38865 4.68155 2.5072 4.74877C3.34181 5.22191 4.17219 5.7014 5.00309 6.18142C5.33228 6.37142 5.47624 6.62386 5.41961 6.90383C5.32752 7.35739 4.86338 7.54421 4.42411 7.29547C3.82659 6.95729 3.23331 6.61116 2.63951 6.26716C2.35001 6.09939 2.05734 5.93797 1.77526 5.75697C1.66143 5.68666 1.57529 5.57929 1.53134 5.45292C1.48738 5.32656 1.4883 5.18891 1.53392 5.06314C1.61648 4.8001 1.8303 4.6408 2.11609 4.61011Z"
            fill="none" />
        <path
            d="M8.35464 5.00567C8.26467 4.96333 8.07996 4.88871 7.9069 4.79397C7.56184 4.60344 7.22153 4.40286 6.8807 4.2044C6.51976 3.9927 6.40439 3.63811 6.58539 3.31262C6.76639 2.98714 7.12733 2.90669 7.49886 3.11733C7.92578 3.35973 8.35129 3.60512 8.77538 3.85351C9.03736 4.00752 9.14585 4.2769 9.06223 4.54946C8.97173 4.84531 8.76004 5.00726 8.35464 5.00567Z"
            fill="none" />
        <path
            d="M4.71315 12.1238C4.71315 12.6477 4.2416 12.9621 3.82138 12.7477C3.33713 12.5006 2.86875 12.2217 2.40778 11.9322C2.10717 11.7432 2.0479 11.3971 2.22202 11.1002C2.39084 10.8134 2.7322 10.7112 3.04657 10.8817C3.50913 11.1325 3.96163 11.4024 4.41784 11.666C4.61683 11.7814 4.72162 11.9528 4.71315 12.1238Z"
            fill="#292929" />
    </g>
    <defs>
        <clipPath id="clip0_1_3119">
            <rect width="24" height="24" fill="white" transform="translate(0.5)" />
        </clipPath>
    </defs>
</svg>