<svg xmlns="http://www.w3.org/2000/svg" width="100%" height="100%" viewBox="0 0 25 24">
    <title>Benefits</title>
    <path
        d="M1.50086 15.0492C1.66801 14.6891 1.94945 14.5589 2.34477 14.5718C2.99531 14.5928 3.64758 14.5817 4.29899 14.5718C4.40244 14.5688 4.50244 14.5339 4.58516 14.4716C5.67184 13.599 6.92653 13.2518 8.30153 13.2685C9.0711 13.2784 9.7947 13.4924 10.5161 13.7347C12.0871 14.2624 13.6529 14.8154 15.2397 15.2859C16.3384 15.6116 17.0874 16.5204 16.7771 17.8344C17.1432 17.736 17.45 17.5508 17.7418 17.336C18.6229 16.6877 19.5036 16.0386 20.3839 15.3886C20.8733 15.0272 21.4152 14.8988 22.0069 15.0418C22.7803 15.2301 23.253 15.7319 23.4549 16.4951C23.4674 16.5419 23.4854 16.5874 23.5009 16.6338V17.1924C23.378 17.6969 23.1571 18.1421 22.7274 18.4587C21.777 19.1574 20.8506 19.8917 19.8726 20.5492C17.1759 22.3629 14.2127 23.0237 11.0056 22.4256C9.60907 22.1652 8.22891 21.8155 6.84102 21.5057C6.35633 21.3974 5.8725 21.2869 5.36891 21.1735C5.36891 21.3218 5.36891 21.4425 5.36891 21.5632C5.36676 22.0359 5.1111 22.2937 4.64317 22.2963C3.88434 22.2963 3.12551 22.2821 2.36582 22.3027C1.96578 22.3135 1.6723 22.1944 1.5 21.8249L1.50086 15.0492ZM5.36805 19.8466C5.44625 19.8664 5.50813 19.8836 5.57043 19.8978C7.24321 20.2789 8.9177 20.6514 10.5879 21.0416C13.0053 21.6066 15.3458 21.4047 17.606 20.3678C19.2362 19.6193 20.567 18.4274 21.9957 17.3828C22.3906 17.094 22.2389 16.4624 21.7761 16.312C21.5329 16.2325 21.3172 16.2995 21.1131 16.4517C20.2414 17.1005 19.3667 17.7459 18.489 18.3878C17.3972 19.1853 16.1777 19.4835 14.856 19.1965C14.1685 19.047 13.5033 18.7866 12.8304 18.5692C12.0149 18.3056 11.2005 18.0378 10.3872 17.7656C10.0757 17.6617 9.90212 17.397 9.92532 17.0971C9.94638 16.8233 10.1496 16.5737 10.4289 16.5307C10.5767 16.5127 10.7267 16.5282 10.8676 16.5763C12.1184 16.9802 13.3663 17.3953 14.6162 17.8013C14.7431 17.8475 14.878 17.8677 15.0128 17.8606C15.1566 17.8448 15.2902 17.779 15.3903 17.6747C15.4905 17.5704 15.5508 17.4342 15.5607 17.29C15.5873 16.9626 15.4159 16.7142 15.0717 16.6003C13.3693 16.037 11.6647 15.4806 9.96356 14.9125C9.41142 14.7277 8.85755 14.5769 8.27016 14.5636C7.2518 14.5404 6.31036 14.7617 5.49567 15.4011C5.4368 15.4475 5.37364 15.5343 5.37364 15.6022C5.36805 17.0098 5.36805 18.4171 5.36805 19.8466ZM2.80539 15.8733V20.9999H4.06739V15.8733H2.80539Z"
        fill="currentColor" />
    <path
        d="M23.5008 7.25869C23.4033 7.70342 23.3435 8.16104 23.2 8.59073C22.3742 11.1074 19.9052 12.7707 17.3288 12.5675C14.5848 12.3526 12.42 10.3881 11.9749 7.71202C11.4313 4.44639 13.7959 1.36165 17.0963 1.03037C20.285 0.710248 23.0754 2.95537 23.4608 6.1501C23.4703 6.20549 23.4829 6.2603 23.4986 6.31424L23.5008 7.25869ZM17.7 2.28506C15.2156 2.28506 13.1904 4.30459 13.1883 6.78174C13.1861 9.25889 15.2078 11.2862 17.688 11.2935C20.1802 11.2995 22.2139 9.27393 22.2113 6.78518C22.2092 4.30459 20.1853 2.28506 17.7 2.28506Z"
        fill="currentColor" />
    <path
        d="M18.3501 4.24914C18.5852 4.36773 18.8103 4.46055 19.0127 4.58902C19.341 4.79613 19.4248 5.17727 19.2323 5.48235C19.0398 5.78742 18.6552 5.86906 18.3269 5.6684C17.9484 5.43766 17.5659 5.45355 17.1822 5.63617C17.101 5.67484 17.0473 5.77066 16.9811 5.84027C17.0555 5.89785 17.1216 5.98594 17.205 6.00785C17.5298 6.09379 17.8624 6.14664 18.1868 6.23129C18.4343 6.29574 18.6891 6.3602 18.9152 6.47535C19.8729 6.96176 19.9975 8.18422 19.1558 8.85281C18.9581 9.00922 18.7154 9.11406 18.4825 9.21848C18.3793 9.26488 18.3454 9.30828 18.342 9.41742C18.3286 9.81402 18.0678 10.0839 17.7082 10.0886C17.3485 10.0933 17.0735 9.82348 17.0602 9.43332C17.0559 9.31945 17.0142 9.27992 16.9154 9.23996C16.7288 9.17 16.5492 9.08252 16.3791 8.97871C16.0564 8.7716 15.9761 8.38231 16.1733 8.08196C16.3645 7.79063 16.7465 7.70469 17.0632 7.89934C17.4409 8.13094 17.8233 8.12449 18.2075 7.94231C18.2934 7.89934 18.3497 7.79793 18.4193 7.72359C18.3415 7.66859 18.2711 7.58566 18.1851 7.56375C17.8113 7.46922 17.4306 7.40176 17.0576 7.30594C16.8424 7.25508 16.6343 7.17787 16.438 7.07606C15.5455 6.58363 15.4175 5.44324 16.1896 4.77336C16.3998 4.59117 16.6808 4.49191 16.924 4.34582C16.9794 4.31273 17.0529 4.24226 17.0499 4.1907C17.0448 4.09941 17.0586 4.00806 17.0903 3.92231C17.122 3.83656 17.171 3.75825 17.2343 3.69224C17.2976 3.62623 17.3737 3.57394 17.458 3.53861C17.5424 3.50328 17.6331 3.48567 17.7245 3.48687C18.0962 3.50535 18.3299 3.77691 18.3458 4.21734C18.345 4.22894 18.3493 4.24269 18.3501 4.24914Z"
        fill="currentColor" />
</svg>