<svg xmlns="http://www.w3.org/2000/svg" width="100%" height="100%">
    <title>Club Membership</title>
    <path
        d="M12.5043 0.00176581C12.1978 -0.0108544 11.8924 0.0442996 11.6106 0.163133C11.3289 0.281966 11.0781 0.461426 10.8769 0.688188L10.3966 1.24236C10.2834 1.36766 10.1335 1.45565 9.96738 1.49431C9.80124 1.53297 9.62695 1.52041 9.46837 1.45833L8.78118 1.18376C8.53378 1.08433 8.26911 1.0326 8.00169 1.03141C7.55375 1.03167 7.11828 1.17598 6.76221 1.44215C6.40613 1.70833 6.14913 2.08165 6.03071 2.50476L5.83413 3.20122C5.78922 3.36203 5.69401 3.50503 5.56187 3.61012C5.42973 3.71522 5.2673 3.77714 5.09738 3.78718L4.35892 3.83071C4.06973 3.84682 3.78737 3.92305 3.53059 4.05432C3.27382 4.18559 3.04851 4.36889 2.86967 4.59204C2.69082 4.81518 2.56253 5.07306 2.49331 5.34853C2.4241 5.624 2.41556 5.91074 2.46825 6.18969L2.6033 6.90122C2.63551 7.06665 2.6135 7.23782 2.54044 7.39026C2.46737 7.54271 2.34697 7.66864 2.19646 7.75006L1.55031 8.10333C1.29712 8.24154 1.07678 8.43084 0.903898 8.65871C0.731012 8.88658 0.609518 9.14782 0.547459 9.42513C0.485399 9.70244 0.48419 9.9895 0.543912 10.2673C0.603633 10.5451 0.722922 10.8073 0.893882 11.0366L1.32636 11.6209C1.42759 11.7557 1.48289 11.9184 1.48443 12.0858C1.48596 12.2532 1.43365 12.4168 1.33492 12.5534L0.907561 13.1461C0.740193 13.3779 0.625017 13.6419 0.569658 13.9206C0.514299 14.1993 0.520021 14.4863 0.586445 14.7627C0.652869 15.0391 0.778479 15.2985 0.954958 15.5237C1.13144 15.749 1.35476 15.9349 1.61014 16.0693L2.26141 16.4142C2.41231 16.4925 2.53427 16.6153 2.61004 16.7652C2.6858 16.9151 2.71155 17.0846 2.68363 17.2496L2.55885 17.9661C2.51069 18.2458 2.52373 18.5323 2.59711 18.8067C2.67049 19.0811 2.80253 19.337 2.98449 19.5577C3.16646 19.7783 3.3942 19.9586 3.65263 20.0866C3.91107 20.2145 4.19431 20.2873 4.48361 20.3L5.22721 20.3285C5.39775 20.3353 5.56176 20.3946 5.69588 20.498C5.82999 20.6014 5.92739 20.7436 5.97421 20.9044L6.17934 21.6009C6.30484 22.0164 6.56396 22.3812 6.91816 22.6409C7.27235 22.9006 7.7027 23.0414 8.14516 23.0423C8.42258 23.0425 8.69711 22.9872 8.952 22.8799L9.63576 22.5953C9.79257 22.5316 9.9656 22.5167 10.1314 22.5527C10.2971 22.5886 10.4476 22.6736 10.5623 22.7962L11.0597 23.337C11.2536 23.5478 11.491 23.7159 11.7562 23.8302C12.0214 23.9444 12.3083 24.0023 12.598 23.9999C12.8877 23.9976 13.1736 23.935 13.4367 23.8164C13.6999 23.6978 13.9344 23.5258 14.1247 23.3119L14.6051 22.756C14.7181 22.6306 14.868 22.5426 15.0342 22.5039C15.2004 22.4652 15.3747 22.4779 15.5332 22.5401L16.2204 22.8163C16.4679 22.9154 16.7325 22.9672 16.9999 22.9687C17.4478 22.9683 17.8832 22.8239 18.2393 22.5577C18.5953 22.2916 18.8524 21.9183 18.9709 21.4953L19.1675 20.7972C19.2124 20.6364 19.3076 20.4934 19.4397 20.3883C19.5719 20.2832 19.7343 20.2213 19.9042 20.2112L20.6427 20.1727C20.9317 20.1566 21.2139 20.0804 21.4705 19.9492C21.7272 19.818 21.9524 19.6349 22.1312 19.4119C22.31 19.189 22.4384 18.9313 22.5077 18.6561C22.577 18.3808 22.5858 18.0942 22.5334 17.8154L22.3983 17.1022C22.3663 16.9381 22.3882 16.7683 22.461 16.6173C22.5338 16.4663 22.6537 16.3418 22.8034 16.2617L23.4513 15.9085C23.7045 15.7703 23.9248 15.581 24.0977 15.3531C24.2706 15.1252 24.3921 14.864 24.4542 14.5867C24.5162 14.3094 24.5174 14.0223 24.4577 13.7445C24.398 13.4667 24.2787 13.2045 24.1077 12.9752L23.6787 12.3843C23.5773 12.2494 23.5219 12.0868 23.5204 11.9193C23.5188 11.7519 23.5712 11.5883 23.6701 11.4517L24.0957 10.859C24.2632 10.6273 24.3784 10.3634 24.4339 10.0848C24.4894 9.80617 24.4838 9.51918 24.4176 9.24283C24.3513 8.96647 24.2259 8.70705 24.0496 8.48174C23.8733 8.25642 23.6501 8.07035 23.3949 7.93584L22.7419 7.59096C22.591 7.51263 22.469 7.38983 22.3932 7.23992C22.3175 7.09 22.2917 6.92056 22.3196 6.75554L22.4461 6.03899C22.4943 5.75917 22.4812 5.47252 22.4077 5.19804C22.3343 4.92355 22.2021 4.66749 22.0199 4.44683C21.8378 4.22616 21.6098 4.04592 21.3512 3.91805C21.0925 3.79017 20.8091 3.71759 20.5196 3.70511L19.7726 3.67832C19.6025 3.67185 19.4387 3.61304 19.3046 3.51026C19.1706 3.40748 19.0729 3.26595 19.0256 3.10575L18.8188 2.4076C18.7374 2.1356 18.5982 1.88357 18.4102 1.66809C18.2222 1.45261 17.9897 1.27856 17.7281 1.15741C17.4665 1.03625 17.1817 0.970741 16.8923 0.96518C16.603 0.959619 16.3158 1.01414 16.0495 1.12514L15.3657 1.40976C15.2087 1.47398 15.0353 1.48914 14.8692 1.45318C14.703 1.41722 14.5523 1.33189 14.4376 1.20885L13.9418 0.668088C13.7599 0.468496 13.5389 0.306683 13.292 0.192229C13.045 0.0777744 12.7771 0.0130043 12.5042 0.00175253L12.5043 0.00176581ZM12.3863 1.21392C12.5087 1.20703 12.6312 1.22723 12.7445 1.27303C12.8578 1.31882 12.9592 1.38903 13.041 1.47844L13.5368 2.0192C13.7289 2.22905 13.9639 2.39697 14.2266 2.51206C14.4893 2.62714 14.7738 2.68682 15.0616 2.68722C15.3396 2.68802 15.6149 2.63274 15.8701 2.52482L16.5522 2.24021C16.6537 2.19743 16.7631 2.17576 16.8736 2.17659C17.0493 2.17754 17.22 2.23391 17.3604 2.33735C17.5008 2.44079 17.6034 2.58579 17.6531 2.75085L17.8582 3.449C17.9782 3.85112 18.2237 4.20635 18.5604 4.46486C18.897 4.72338 19.3078 4.8722 19.7351 4.89046L20.477 4.91891C20.5923 4.92244 20.7055 4.95064 20.8086 5.00154C20.9116 5.05245 21.0021 5.12481 21.0736 5.21357C21.1475 5.3008 21.2012 5.40271 21.231 5.51226C21.2608 5.62181 21.266 5.73639 21.2462 5.84809L21.1266 6.56464C21.0552 6.9783 21.1185 7.40347 21.3074 7.77996C21.4964 8.15645 21.8015 8.46519 22.1796 8.66246L22.8325 9.00569C22.9348 9.05874 23.0244 9.13251 23.0953 9.22208C23.1662 9.31165 23.2169 9.41498 23.2439 9.5252C23.2709 9.63543 23.2736 9.75001 23.2519 9.86135C23.2302 9.97269 23.1846 10.0782 23.118 10.171L22.6924 10.7637C22.4443 11.106 22.3126 11.5162 22.316 11.9361C22.3193 12.3559 22.4576 12.764 22.7112 13.1025L23.1454 13.6868C23.2694 13.8757 23.3118 14.1051 23.2633 14.3247V14.3264C23.2386 14.4371 23.19 14.5412 23.1207 14.6319C23.0514 14.7226 22.9631 14.7977 22.8616 14.8521L22.2138 15.2054C21.8396 15.4088 21.5401 15.7222 21.3576 16.1013C21.1751 16.4804 21.1188 16.906 21.1967 17.3182L21.3317 18.0297C21.3527 18.1411 21.3493 18.2557 21.3218 18.3657C21.2942 18.4757 21.2431 18.5788 21.1719 18.6681C21.1006 18.7573 21.0108 18.8308 20.9084 18.8835C20.806 18.9362 20.6933 18.9671 20.5779 18.974L19.8411 19.0125C19.4137 19.0363 19.0047 19.1907 18.6717 19.4541C18.3387 19.7175 18.0984 20.0766 17.9847 20.4808L17.7898 21.1789C17.7438 21.3493 17.6415 21.4999 17.499 21.6074C17.3565 21.7149 17.1817 21.7732 17.0018 21.7733C16.8952 21.7732 16.7897 21.7533 16.6907 21.7147L16.0035 21.4384C15.756 21.3393 15.4914 21.2875 15.224 21.2861C14.9312 21.2862 14.6418 21.3477 14.3753 21.4664C14.1088 21.5851 13.8713 21.7582 13.6787 21.9742L13.1932 22.52C13.1173 22.6056 13.0237 22.6744 12.9186 22.7219C12.8135 22.7693 12.6993 22.7944 12.5836 22.7953C12.4678 22.7963 12.3532 22.7731 12.2473 22.7274C12.1414 22.6816 12.0467 22.6144 11.9693 22.53L11.4719 21.9893C11.2797 21.7794 11.0447 21.6115 10.782 21.4964C10.5193 21.3813 10.2348 21.3216 9.94706 21.3212C9.66959 21.3206 9.39495 21.3759 9.14022 21.4836L8.45815 21.7682C8.35663 21.8108 8.24723 21.8325 8.13678 21.8319C7.96109 21.8309 7.79039 21.7745 7.64998 21.6711C7.50958 21.5677 7.40694 21.4227 7.35729 21.2576L7.15216 20.5595C7.03215 20.1573 6.78661 19.8021 6.45001 19.5436C6.1134 19.2851 5.70261 19.1363 5.27526 19.118L4.53339 19.0895C4.4179 19.0857 4.30465 19.0573 4.20159 19.0061C4.09853 18.9549 4.00815 18.8822 3.9368 18.7932C3.8631 18.7062 3.80951 18.6045 3.77971 18.4953C3.7499 18.3861 3.74459 18.2718 3.76414 18.1604L3.8838 17.4421C3.95532 17.0285 3.8921 16.6032 3.70311 16.2267C3.51412 15.8502 3.20894 15.5415 2.83081 15.3443L2.17782 14.9994C2.07509 14.9475 1.98544 14.8739 1.91536 14.7838C1.84529 14.6937 1.79656 14.5895 1.7727 14.4788C1.74512 14.3691 1.742 14.2549 1.76353 14.144C1.78506 14.033 1.83075 13.9279 1.89749 13.8358L2.32484 13.2432C2.57255 12.9006 2.70387 12.4903 2.70018 12.0705C2.6965 11.6507 2.55801 11.2427 2.30433 10.9043L1.87185 10.32C1.80222 10.229 1.754 10.124 1.73066 10.0125C1.70731 9.90111 1.70941 9.786 1.7368 9.67545C1.76118 9.5649 1.80951 9.46076 1.87851 9.37006C1.94752 9.27937 2.0356 9.20425 2.1368 9.14976L2.78466 8.79649C3.15901 8.59327 3.45864 8.27991 3.64117 7.90075C3.82369 7.52159 3.87987 7.09582 3.80176 6.68367L3.67697 5.98218C3.65469 5.87055 3.65752 5.7555 3.68527 5.64505C3.71302 5.5346 3.76502 5.4314 3.83765 5.34264C3.90837 5.2535 3.99773 5.18019 4.09973 5.12764C4.20174 5.07509 4.31404 5.0445 4.42911 5.03793L5.16758 4.9944C5.59461 4.97017 6.00316 4.81551 6.33582 4.55215C6.66848 4.28879 6.90853 3.92997 7.02225 3.52611L7.21883 2.82796C7.26487 2.65764 7.36711 2.50701 7.50964 2.39951C7.65217 2.29202 7.82699 2.23369 8.00688 2.23361C8.11343 2.23376 8.21899 2.25364 8.318 2.29221L9.00519 2.56846C9.25267 2.66763 9.51729 2.71935 9.78468 2.72081C10.0774 2.72062 10.3668 2.65912 10.6333 2.54044C10.8998 2.42177 11.1373 2.24865 11.33 2.0327L11.8154 1.48857C11.887 1.40771 11.9744 1.34175 12.0725 1.29459C12.1706 1.24742 12.2773 1.22002 12.3864 1.214L12.3863 1.21392ZM12.4838 6.50618C12.2503 6.50994 12.0231 6.58081 11.8304 6.70999C11.6377 6.83917 11.4881 7.02096 11.4 7.23277L10.5128 9.3707L8.16064 9.53979C7.92454 9.55663 7.69894 9.64207 7.5127 9.78518C7.32646 9.92829 7.18805 10.1226 7.11518 10.3432C7.04231 10.5638 7.03829 10.8006 7.10364 11.0235C7.16899 11.2463 7.30073 11.445 7.48201 11.5941L9.28373 13.0841L8.72134 15.3242C8.67682 15.4948 8.67309 15.6731 8.71045 15.8453C8.74781 16.0175 8.82524 16.179 8.93672 16.3171C9.04796 16.4571 9.19025 16.5706 9.35283 16.6489C9.51542 16.7272 9.69404 16.7683 9.87522 16.7691C10.0973 16.7696 10.315 16.708 10.5026 16.5916L12.5043 15.3728L14.506 16.5916C14.6931 16.7077 14.9101 16.7692 15.1316 16.7691C15.3128 16.7683 15.4914 16.7272 15.654 16.6489C15.8166 16.5706 15.9589 16.4571 16.0701 16.3171C16.1817 16.179 16.2591 16.0176 16.2965 15.8453C16.3339 15.6731 16.3301 15.4948 16.2855 15.3242L15.7231 13.0841L17.5248 11.5941C17.7065 11.4453 17.8386 11.2467 17.9043 11.0239C17.97 10.8011 17.9662 10.5641 17.8935 10.3434C17.8208 10.1227 17.6824 9.92829 17.4961 9.78511C17.3098 9.64193 17.0841 9.55651 16.8479 9.53979L14.494 9.3707L13.6068 7.23277C13.5162 7.01489 13.3605 6.82892 13.1601 6.69925C12.9596 6.56959 12.7239 6.50228 12.4837 6.50618H12.4838ZM12.4975 7.77687L13.4957 10.1743C13.5389 10.2787 13.6112 10.369 13.7043 10.435C13.7974 10.501 13.9076 10.5401 14.0222 10.5477L16.6565 10.7352L14.6393 12.4044C14.5518 12.4769 14.4867 12.5719 14.4513 12.6787C14.416 12.7855 14.4118 12.8998 14.4393 13.0088L15.0701 15.5201L12.8273 14.1539C12.7306 14.0942 12.6186 14.0626 12.5043 14.0626C12.3899 14.0626 12.2779 14.0942 12.1812 14.1539L9.92986 15.5302L10.5675 13.0037C10.595 12.8946 10.5907 12.7801 10.555 12.6732C10.5194 12.5664 10.4538 12.4715 10.3658 12.3993L8.34357 10.7301L10.9778 10.5426C11.0923 10.5343 11.2021 10.495 11.2951 10.4291C11.3881 10.3631 11.4605 10.2732 11.5043 10.1693L12.4975 7.77684L12.4975 7.77687Z"
        fill="none" />
</svg>