<svg xmlns="http://www.w3.org/2000/svg" width="100%" height="100%" viewBox="0 0 40 40">
    <title>ellipsis</title>
    <path
        d="M20 15.92C22.2083 15.92 24 17.7475 24 20C24 22.2525 22.2083 24.08 20 24.08C17.7917 24.08 16 22.2525 16 20C16 17.7475 17.7917 15.92 20 15.92ZM16 7.08C16 9.3325 17.7917 11.16 20 11.16C22.2083 11.16 24 9.3325 24 7.08C24 4.8275 22.2083 3 20 3C17.7917 3 16 4.8275 16 7.08ZM16 32.92C16 35.1725 17.7917 37 20 37C22.2083 37 24 35.1725 24 32.92C24 30.6675 22.2083 28.84 20 28.84C17.7917 28.84 16 30.6675 16 32.92Z"
        fill="currentColor" />
</svg>