<svg xmlns="http://www.w3.org/2000/svg" width="100%" height="100%" viewBox="0 0 40 40" id="ellipsis_horizontal">
  <title>Ellipsis Horizontal</title>
  <path
    d="M24 20C24 22.2083 22.2083 24 20 24C17.7917 24 16 22.2083 16 20C16 17.7917 17.7917 16 20 16C22.2083 16 24 17.7917 24 20ZM34 16C31.7917 16 30 17.7917 30 20C30 22.2083 31.7917 24 34 24C36.2083 24 38 22.2083 38 20C38 17.7917 36.2083 16 34 16ZM6 16C3.79167 16 2 17.7917 2 20C2 22.2083 3.79167 24 6 24C8.20833 24 10 22.2083 10 20C10 17.7917 8.20833 16 6 16Z"
    fill="currentColor" />
</svg>