<svg xmlns="http://www.w3.org/2000/svg" width="100%" height="100%">
    <title>filters</title>
    <path fillRule="evenodd" clipRule="evenodd"
        d="M32.232 1C29.4069 1 27.0889 3.07242 26.5818 5.78801H2.96671C2.53208 5.78801 2.09745 6.07386 2.02501 6.50264C1.88013 7.14581 2.3872 7.71751 2.96671 7.71751H26.6542C27.1613 10.6475 29.8416 12.8628 33.0289 12.4341C35.6367 12.1482 37.665 10.0758 37.9547 7.50312C38.3893 4.00144 35.6367 1 32.232 1ZM32.232 10.4331C30.1313 10.4331 28.4652 8.71799 28.4652 6.71703C28.4652 4.71607 30.2037 3.00096 32.232 3.00096C34.3328 2.9295 36.0713 4.64461 36.0713 6.71703C36.0713 8.78945 34.3328 10.4331 32.232 10.4331ZM37.0127 19.0086H13.3977C12.8906 16.293 10.4277 14.2206 7.45766 14.3636C4.5601 14.5065 2.16962 16.7218 2.02474 19.5803C1.87986 22.7962 4.48766 25.4403 7.74742 25.4403C10.5725 25.4403 12.8906 23.4393 13.3977 20.7952H37.0127C37.4474 20.7952 37.8096 20.5094 37.9544 20.152C38.0993 19.5803 37.6647 19.0086 37.0127 19.0086ZM7.74742 23.7252C5.64669 23.7252 3.98059 22.0101 3.98059 20.0091C3.98059 18.0082 5.71913 16.293 7.74742 16.293C9.7757 16.293 11.5142 18.0082 11.5142 20.0091C11.5867 22.0101 9.84814 23.7252 7.74742 23.7252ZM26.5808 32.3007C27.0879 29.5851 29.4059 27.5127 32.231 27.5127C35.6357 27.5127 38.3883 30.5142 37.9537 34.0158C37.6639 36.5885 35.6357 38.6609 33.0279 38.9468C29.8405 39.3756 27.1603 37.1602 26.6532 34.2302H3.03814C2.45863 34.2302 1.95156 33.6585 2.09643 33.0154C2.16887 32.5866 2.60351 32.3007 3.03814 32.3007H26.5808ZM28.4642 33.3012C28.4642 35.3022 30.1303 37.0173 32.231 37.0173C34.3318 37.0173 35.9978 35.3022 35.9978 33.3012C35.9978 31.3003 34.3318 29.5851 32.231 29.5851C30.2027 29.5851 28.4642 31.3003 28.4642 33.3012Z"
        fill="none" />
</svg>