<svg xmlns="http://www.w3.org/2000/svg" width="100%" height="100%" viewBox="0 0 22 19" id="hamburger">
  <title>Hamburguer</title>
  <path fill-rule="evenodd" clip-rule="evenodd"
    d="M1.25 3C0.559644 3 0 2.44036 0 1.75C0 1.05964 0.559644 0.5 1.25 0.5H20.75C21.4404 0.5 22 1.05964 22 1.75C22 2.44036 21.4404 3 20.75 3H1.25ZM1.25 11C0.559644 11 0 10.4404 0 9.75C0 9.05964 0.559644 8.5 1.25 8.5H10.75C11.4404 8.5 12 9.05964 12 9.75C12 10.4404 11.4404 11 10.75 11H1.25ZM0 17.75C0 18.4404 0.559644 19 1.25 19H16.75C17.4404 19 18 18.4404 18 17.75C18 17.0596 17.4404 16.5 16.75 16.5H1.25C0.559644 16.5 0 17.0596 0 17.75Z"
    fill="currentColor" />
</svg>