<svg xmlns="http://www.w3.org/2000/svg" width="100%" height="100%" viewBox="0 0 40 40" id="home">
  <title>Home</title>
  <path fill-rule="evenodd" clip-rule="evenodd"
    d="M20.6292 2.20886L37.5565 17.7192C38.0415 18.0703 38.1385 18.7483 37.799 19.2206C37.5929 19.5111 37.2534 19.6685 36.926 19.6685C36.6956 19.6685 36.4773 19.608 36.2833 19.4627L19.9987 4.42462L3.7262 19.4627C3.24118 19.8138 2.56215 19.717 2.21051 19.2327C1.85887 18.7483 1.95587 18.0703 2.4409 17.7192L19.3439 2.20886C19.7319 1.93038 20.2533 1.93038 20.6292 2.20886ZM31.9181 19.2206C31.9181 18.6394 32.391 18.1672 32.973 18.1672C33.5551 18.1672 34.0158 18.6394 34.0158 19.2206V36.9466C34.0158 37.5278 33.5429 38 32.9609 38H23.4909C22.9452 38 22.4844 37.5762 22.4481 37.0314V36.9466V26.788C22.4481 25.0566 21.7205 23.64 19.9866 23.64C18.2526 23.64 17.5251 25.0566 17.5251 26.788V36.9466V37.0314C17.4887 37.5762 17.0401 38 16.4823 38H7.01223C6.4302 38 5.9573 37.5278 5.9573 36.9466V19.2206C5.9573 18.6394 6.4302 18.1672 7.01223 18.1672C7.59425 18.1672 8.06715 18.6394 8.06715 19.2206V35.9053H15.4395V26.8001C15.4395 23.9063 17.1007 21.5574 19.9987 21.5574C22.8967 21.5574 24.5579 23.9063 24.5579 26.8001V35.9053H31.9181V19.2206Z"
    fill="currentColor" />
</svg>