<svg xmlns="http://www.w3.org/2000/svg" width="100%" height="100%">
    <title>Home solid</title>
    <path
        d="M38.9792 19.0431C38.9054 18.5828 38.6594 18.1709 38.2905 17.8923L21.1464 2.39973C21.1341 2.38762 21.1095 2.3755 21.0972 2.35128C20.7774 2.12113 20.3962 2 20.0026 2C19.6091 2 19.2278 2.12113 18.908 2.35128C18.8957 2.36339 18.8711 2.3755 18.8588 2.39973L1.71472 17.8923C0.841526 18.5585 0.73084 19.8668 1.59174 20.6541C1.85 20.8964 2.18206 21.0538 2.52642 21.1144C3.03066 21.1992 3.5349 21.0781 3.92845 20.7873C3.95305 20.7752 3.96535 20.751 3.98994 20.7389L5.77323 19.1157V19.2005V21.9139V36.9462C5.77323 37.5276 6.25287 38 6.8432 38H14.2715C14.9479 38 15.5013 37.4549 15.5013 36.7887V26.1292C15.5013 23.646 17.5675 21.5626 20.0887 21.611C22.5361 21.6595 24.5039 23.6218 24.5039 26.0444V36.7645C24.5039 37.4307 25.0573 37.9758 25.7337 37.9758H33.162C33.7523 37.9758 34.232 37.5034 34.232 36.9219V24.4455V19.2005V19.1157L36.0153 20.7389C36.0399 20.751 36.0522 20.7752 36.0768 20.7873C36.4457 21.0538 36.9008 21.175 37.3681 21.1386C37.7863 21.0902 38.1921 20.9085 38.4873 20.6057C38.8808 20.1696 39.0653 19.6124 38.9792 19.0431Z"
        fill="currentColor" />
</svg>