<svg xmlns="http://www.w3.org/2000/svg" width="100%" height="100%">
    <title>Loading</title>
    <path fillRule="evenodd" clipRule="evenodd"
        d="M29.1958 7.86544C23.6297 3.33207 15.4135 3.40801 9.92333 8.3742C5.89114 12.0191 4.19018 17.57 5.4659 22.8551C5.60259 23.4019 5.26088 23.9562 4.71414 24.0929C4.63061 24.1157 4.55467 24.1233 4.47114 24.1233C4.00794 24.1233 3.59029 23.8119 3.47639 23.3411C2.01842 17.327 3.96237 11.0092 8.54889 6.85549C11.8825 3.83325 16.2032 2.29175 20.6986 2.51956C24.3283 2.70181 27.7227 4.0079 30.4791 6.26319L30.3197 2.06395C30.2969 1.49443 30.7373 1.02363 31.3068 1.00085C31.8688 0.978065 32.3472 1.41849 32.3699 1.98801L32.6205 8.68554V8.69313V8.7311V8.80704C32.6205 9.36137 32.1877 9.80939 31.6334 9.83217L24.8599 10.0828H24.8219C24.2752 10.0828 23.8196 9.64992 23.7968 9.09559C23.774 8.52608 24.2144 8.05527 24.784 8.03249L29.1958 7.86544ZM35.2859 16.03C35.8326 15.894 36.3869 16.2339 36.5236 16.7778C37.9816 22.7677 36.0376 29.0446 31.4511 33.1763C28.3226 35.9862 24.3435 37.512 20.1595 37.512C19.8785 37.512 19.59 37.5044 19.3014 37.4893C15.6945 37.308 12.3153 36.0164 9.55885 33.7957L9.92334 37.8821C9.97649 38.4486 9.55885 38.9396 8.99692 38.9924C8.96655 39 8.93618 39 8.9058 39C8.38184 39 7.93382 38.5997 7.88826 38.0709L7.28078 31.3559C7.22762 30.7894 7.64527 30.2984 8.20719 30.2456L14.9579 29.6413C15.5274 29.5884 16.021 29.9963 16.0741 30.5628C16.1273 31.1293 15.7096 31.6203 15.1477 31.6732L10.6827 32.0735C13.4012 34.3244 16.7727 35.465 20.1519 35.465C23.6905 35.465 27.2443 34.2111 30.0767 31.6656C34.1089 28.04 35.8174 22.5184 34.5341 17.2612C34.3974 16.7173 34.7391 16.1659 35.2859 16.03Z"
        fill="none" />
</svg>