<svg xmlns="http://www.w3.org/2000/svg" width="100%" height="100%" viewBox="0 0 40 40" id="lock_solid">
  <title>Lock solid</title>
  <path fillRule="evenodd" clipRule="evenodd"
    d="M31.5357 17.625H33.3571C35.3683 17.625 37 19.2207 37 21.1875V35.4375C37 37.4043 35.3683 39 33.3571 39H6.64286C4.6317 39 3 37.4043 3 35.4375V21.1875C3 19.2207 4.6317 17.625 6.64286 17.625H8.46429V12.2812C8.46429 6.06172 13.6402 1 20 1C26.3598 1 31.5357 6.06172 31.5357 12.2812V17.625ZM13.5357 12.2812V17.625H26.4643V12.2812C26.4643 9.33477 24 5.9375 20 5.9375C16 5.9375 13.5357 9.33477 13.5357 12.2812ZM20 32C18.8929 32 18 31.1667 18 30.1333V25.8667C18 24.8333 18.8929 24 20 24C21.1071 24 22 24.8333 22 25.8667V30.1333C22 31.1667 21.1071 32 20 32Z"
    fill="currentColor" />
</svg>