<svg xmlns="http://www.w3.org/2000/svg" width="100%" height="100%">
    <title>Lock</title>
    <path fillRule="evenodd" clipRule="evenodd"
        d="M8.837 13.0762C8.837 6.9557 13.8578 2 20 2C26.1422 2 31.163 6.9557 31.163 13.0762V16.9129H31.8238C34.1164 16.9129 36 18.7594 36 21.0652V33.8477C36 36.1535 34.1164 38 31.8238 38H8.17622C5.88362 38 4 36.1535 4 33.8477V21.0652C4 18.7594 5.88362 16.9129 8.17622 16.9129H8.837V13.0762ZM20 3.91342C14.8829 3.91342 10.7401 8.03844 10.7401 13.0762V17.8696C10.7401 18.3968 10.3152 18.8263 9.78855 18.8263H8.17622C6.90875 18.8263 5.9031 19.842 5.9031 21.0652V33.8477C5.9031 35.0709 6.90875 36.0866 8.17622 36.0866H31.8238C33.0912 36.0866 34.0969 35.0709 34.0969 33.8477V21.0652C34.0969 19.842 33.0912 18.8263 31.8238 18.8263H30.2114C29.6848 18.8263 29.2599 18.3968 29.2599 17.8696V13.0762C29.2599 8.03844 25.1171 3.91342 20 3.91342ZM13.3262 13.0762C13.3262 9.99299 15.85 6.42901 20 6.42901C24.15 6.42901 26.6738 9.99299 26.6738 13.0762V17.8696C26.6738 18.3968 26.2489 18.8263 25.7222 18.8263H14.2778C13.7511 18.8263 13.3262 18.3968 13.3262 17.8696V13.0762ZM20 8.34244C17.0668 8.34244 15.2293 10.875 15.2293 13.0762V16.9129H24.7707V13.0762C24.7707 10.875 22.9332 8.34244 20 8.34244ZM20 32C18.8929 32 18 31.1667 18 30.1333V25.8667C18 24.8333 18.8929 24 20 24C21.1071 24 22 24.8333 22 25.8667V30.1333C22 31.1667 21.1071 32 20 32Z"
        fill="none" />
</svg>