<svg xmlns="http://www.w3.org/2000/svg" width="100%" height="100%">
    <title>Map marker</title>
    <path
        d="M15 7.5C10.8645 7.5 7.5 10.8645 7.5 15C7.5 19.1355 10.8645 22.5 15 22.5C19.1355 22.5 22.5 19.1355 22.5 15C22.5 10.8645 19.1355 7.5 15 7.5ZM15 20C12.243 20 10 17.757 10 15C10 12.243 12.243 10 15 10C17.757 10 20 12.243 20 15C20 17.757 17.757 20 15 20ZM15 0C6.7157 0 0 6.7157 0 15C0 21.0479 2.10703 22.7368 13.4584 39.193C14.2033 40.2689 15.7966 40.2691 16.5416 39.193C27.893 22.7368 30 21.0479 30 15C30 6.7157 23.2843 0 15 0ZM15 37.0259C4.11758 21.2881 2.5 20.0386 2.5 15C2.5 11.6611 3.80023 8.52211 6.16117 6.16117C8.52211 3.80023 11.6611 2.5 15 2.5C18.3389 2.5 21.4779 3.80023 23.8388 6.16117C26.1998 8.52211 27.5 11.6611 27.5 15C27.5 20.0383 25.8834 21.2867 15 37.0259Z"
        fill="none" />
</svg>