<svg xmlns="http://www.w3.org/2000/svg" width="100%" height="100%">
    <title>Map Solid</title>
    <path
        d="M18.5612 38.2333C7.96656 22.6 6 20.9955 6 15.25C6 7.37992 12.268 1 20 1C27.732 1 34 7.37992 34 15.25C34 20.9955 32.0334 22.6 21.4388 38.2333C20.7435 39.2556 19.2564 39.2555 18.5612 38.2333ZM20 21.1875C23.2217 21.1875 25.8333 18.5292 25.8333 15.25C25.8333 11.9708 23.2217 9.3125 20 9.3125C16.7783 9.3125 14.1667 11.9708 14.1667 15.25C14.1667 18.5292 16.7783 21.1875 20 21.1875Z"
        fill="currentColor" />
</svg>