<svg xmlns="http://www.w3.org/2000/svg" width="100%" height="100%" viewBox="0 0 24 24" fill="none"
    id="map_marker_light">
    <title>Map marker light</title>
    <path
        d="M12 4.5C9.51867 4.5 7.5 6.51867 7.5 9C7.5 11.4813 9.51867 13.5 12 13.5C14.4813 13.5 16.5 11.4813 16.5 9C16.5 6.51867 14.4813 4.5 12 4.5ZM12 12C10.3458 12 9 10.6542 9 9C9 7.34578 10.3458 6 12 6C13.6542 6 15 7.34578 15 9C15 10.6542 13.6542 12 12 12ZM12 0C7.02942 0 3 4.02942 3 9C3 12.6287 4.26422 13.6421 11.0751 23.5158C11.522 24.1613 12.478 24.1614 12.925 23.5158C19.7358 13.6421 21 12.6287 21 9C21 4.02942 16.9706 0 12 0ZM12 22.2155C5.47055 12.7729 4.5 12.0232 4.5 9C4.5 6.99666 5.28014 5.11327 6.6967 3.6967C8.11327 2.28014 9.99666 1.5 12 1.5C14.0033 1.5 15.8867 2.28014 17.3033 3.6967C18.7199 5.11327 19.5 6.99666 19.5 9C19.5 12.023 18.5301 12.772 12 22.2155Z"
        fill="currentColor" />
</svg>