<svg xmlns="http://www.w3.org/2000/svg" width="100%" height="100%" viewBox="0 0 36 36" testId="">
    <title>Search</title>
    <path
        d="M35.7522 32.9679L27.2166 24.4324C27.0549 24.2707 26.844 24.1863 26.619 24.1863H25.6909C27.9057 21.62 29.2486 18.2804 29.2486 14.6243C29.2486 6.54577 22.7028 0 14.6243 0C6.54577 0 0 6.54577 0 14.6243C0 22.7028 6.54577 29.2486 14.6243 29.2486C18.2804 29.2486 21.62 27.9057 24.1863 25.6909V26.619C24.1863 26.844 24.2777 27.0549 24.4324 27.2166L32.9679 35.7522C33.2984 36.0826 33.8327 36.0826 34.1632 35.7522L35.7522 34.1632C36.0826 33.8327 36.0826 33.2984 35.7522 32.9679ZM14.6243 25.8737C8.40896 25.8737 3.37484 20.8396 3.37484 14.6243C3.37484 8.40896 8.40896 3.37484 14.6243 3.37484C20.8396 3.37484 25.8737 8.40896 25.8737 14.6243C25.8737 20.8396 20.8396 25.8737 14.6243 25.8737Z"
        fill="currentColor" />
</svg>