<svg xmlns="http://www.w3.org/2000/svg" width="100%" height="100%" viewBox="0 0 26 22" testId="" id="shaper_box">
  <title>Shaperbox</title>
  <g>
    <path fillRule="evenodd" clipRule="evenodd"
      d="M25.8683 8.55798C25.6962 8.14428 25.3761 7.82361 24.9669 7.65494L24.5099 7.46655V5.00947C24.5099 4.08212 23.7685 3.32769 22.8571 3.32769H14.4693L9.65862 1.34466C9.46321 1.26406 9.24079 1.36 9.16167 1.55873C9.08251 1.75746 9.17671 1.98389 9.37206 2.0644L12.4367 3.32769H4.45949L5.25 1.34196C5.43418 0.879336 5.95392 0.65539 6.40852 0.842809L7.95765 1.48138C8.15316 1.56204 8.37553 1.46603 8.4546 1.2673C8.53376 1.06856 8.43952 0.842197 8.24421 0.761642L6.69503 0.123072C5.85054 -0.225095 4.88483 0.190861 4.54261 1.05033L3.63602 3.32763H3.14288C2.23156 3.32763 1.49015 4.08205 1.49015 5.00942V8.7178L0.121855 12.1549C-0.0439464 12.5712 -0.0404421 13.0284 0.131706 13.442C0.3038 13.8557 0.623928 14.1764 1.03313 14.3451L1.49021 14.5335V16.9906C1.49021 17.9179 2.23161 18.6723 3.14293 18.6723H4.77134C4.98208 18.6723 5.15291 18.4985 5.15291 18.2841C5.15291 18.0696 4.98208 17.8958 4.77134 17.8958H3.14293C2.65244 17.8958 2.25335 17.4898 2.25335 16.9906V10.051H7.26799C6.38704 10.7592 5.2117 11.9842 4.71613 13.7494C4.66123 13.945 4.7691 14.156 4.95785 14.2228C5.16219 14.2951 5.39066 14.1742 5.45002 13.9627C5.96474 12.1292 7.35625 10.9214 8.14055 10.364V17.8957H6.2977C6.08696 17.8957 5.91613 18.0696 5.91613 18.284C5.91613 18.4985 6.08696 18.6723 6.2977 18.6723H11.5308L15.3224 20.2352C15.3694 20.2546 15.4178 20.2637 15.4655 20.2637C15.6164 20.2637 15.7592 20.1721 15.8193 20.0211C15.8985 19.8224 15.8043 19.596 15.6089 19.5155L13.5634 18.6723H21.5405L20.75 20.658C20.5658 21.1206 20.0459 21.3446 19.5915 21.1572L17.027 20.1C16.8315 20.0195 16.6092 20.1154 16.5301 20.3141C16.4509 20.5129 16.5451 20.7393 16.7404 20.8198L19.305 21.8769C19.5076 21.9605 19.7171 22 19.9235 22C20.577 22 21.1973 21.6029 21.4574 20.9496L22.364 18.6723H22.8571C23.7685 18.6723 24.5099 17.9179 24.5099 16.9905V13.2822L25.8782 9.84512C26.0439 9.42874 26.0404 8.97166 25.8683 8.55796L25.8683 8.55798ZM1.31967 13.6253C1.09944 13.5345 0.927136 13.3619 0.834461 13.1393C0.741833 12.9167 0.739954 12.6706 0.829178 12.4465L1.49014 10.7863V13.6957L1.31967 13.6253ZM4.74542 7.83073C4.68002 7.67422 4.63305 7.42407 4.9777 7.06025C5.13639 6.89273 5.33743 6.78572 5.56955 6.82137C6.03095 6.8921 6.64007 7.43478 7.28489 8.34933C7.50889 8.66706 7.70393 8.98262 7.85445 9.24093C6.39206 9.09547 5.02442 8.49875 4.74542 7.83073ZM8.1405 8.23626C7.53473 7.31044 6.62575 6.1983 5.6837 6.05351C5.21971 5.98221 4.78564 6.14399 4.42824 6.52126C4.15371 6.81099 3.73867 7.40589 4.04301 8.13447C4.23222 8.58753 4.6596 8.97161 5.21545 9.27431H2.25333V5.00942C2.25333 4.51026 2.65241 4.10422 3.14291 4.10422H8.14054V8.23627L8.1405 8.23626ZM23.7467 16.9906C23.7467 17.4897 23.3476 17.8957 22.8571 17.8957H8.90369V10.364C9.68801 10.9214 11.0795 12.1292 11.5942 13.9627C11.6537 14.1746 11.8819 14.2945 12.0864 14.2228C12.2753 14.1565 12.3829 13.9446 12.3281 13.7494C11.8325 11.9842 10.6572 10.7592 9.77626 10.051H23.7467L23.7467 16.9906ZM9.18959 9.24088C9.33864 8.98509 9.53166 8.67283 9.75383 8.35712C10.4006 7.43792 11.0117 6.89251 11.4744 6.82142C11.7067 6.78561 11.9078 6.89278 12.0666 7.0603C12.4112 7.42418 12.3642 7.67432 12.2988 7.83079C12.0198 8.49875 10.652 9.09547 9.18959 9.24088ZM23.7467 9.27436H11.8287C12.3845 8.97161 12.812 8.58753 13.0012 8.13451C13.3055 7.40594 12.8905 6.81103 12.6159 6.5213C12.2585 6.14394 11.824 5.98231 11.3604 6.05356C10.4184 6.19835 9.50941 7.31049 8.90364 8.23631V4.10433H22.857C23.3475 4.10433 23.7466 4.51037 23.7466 5.00952V9.27436H23.7467ZM25.1708 9.55355L24.5099 11.2138V8.30442L24.6804 8.3747C24.9006 8.46549 25.0729 8.63812 25.1655 8.86078C25.2582 9.08338 25.2601 9.32944 25.1709 9.55355H25.1708Z"
      fill="currentColor" />
    <path
      d="M25.8683 8.55798L25.7298 8.61559L26.0088 8.50538L25.8683 8.55798ZM24.9669 7.65494L24.9098 7.79362L24.9098 7.79362L24.9669 7.65494ZM24.5099 7.46655H24.3599V7.56697L24.4527 7.60523L24.5099 7.46655ZM14.4693 3.32769L14.4121 3.46637L14.4396 3.47769H14.4693V3.32769ZM9.65862 1.34466L9.60142 1.48332L9.60145 1.48334L9.65862 1.34466ZM9.16167 1.55873L9.30103 1.61424L9.30104 1.61421L9.16167 1.55873ZM9.37206 2.0644L9.42923 1.92572L9.42922 1.92572L9.37206 2.0644ZM12.4367 3.32769V3.47769L12.4938 3.18901L12.4367 3.32769ZM4.45949 3.32769L4.32013 3.27221L4.23833 3.47769H4.45949V3.32769ZM5.25 1.34196L5.11064 1.28648L5.11063 1.28648L5.25 1.34196ZM6.40852 0.842809L6.35135 0.981486L6.35136 0.981488L6.40852 0.842809ZM7.95765 1.48138L8.01487 1.34272L8.01482 1.3427L7.95765 1.48138ZM8.4546 1.2673L8.31525 1.21179L8.31522 1.21185L8.4546 1.2673ZM8.24421 0.761642L8.30141 0.622974L8.30138 0.622962L8.24421 0.761642ZM6.69503 0.123072L6.63785 0.261749L6.63786 0.261753L6.69503 0.123072ZM4.54261 1.05033L4.40325 0.994839L4.40325 0.994848L4.54261 1.05033ZM3.63602 3.32763V3.47763H3.73775L3.77538 3.38311L3.63602 3.32763ZM1.49015 8.7178L1.62951 8.77328L1.64015 8.74656V8.7178H1.49015ZM0.121855 12.1549L0.26121 12.2104L0.261218 12.2104L0.121855 12.1549ZM0.131706 13.442L0.270201 13.3844L0.270194 13.3844L0.131706 13.442ZM1.03313 14.3451L1.09029 14.2064L1.09028 14.2064L1.03313 14.3451ZM1.49021 14.5335H1.64021V14.4331L1.54737 14.3948L1.49021 14.5335ZM2.25335 10.051V9.901H2.10335V10.051H2.25335ZM7.26799 10.051L7.36197 10.1679L7.694 9.901H7.26799V10.051ZM4.71613 13.7494L4.57172 13.7089L4.57171 13.7089L4.71613 13.7494ZM4.95785 14.2228L5.00791 14.0814L5.0079 14.0814L4.95785 14.2228ZM5.45002 13.9627L5.3056 13.9222L5.3056 13.9222L5.45002 13.9627ZM8.14055 10.364H8.29056V10.0734L8.05366 10.2417L8.14055 10.364ZM8.14055 17.8957V18.0457H8.29056V17.8957H8.14055ZM11.5308 18.6723L11.588 18.5336L11.5605 18.5223H11.5308V18.6723ZM15.3224 20.2352L15.3796 20.0966L15.3796 20.0965L15.3224 20.2352ZM15.8193 20.0211L15.68 19.9656L15.68 19.9657L15.8193 20.0211ZM15.6089 19.5155L15.5518 19.6542L15.5518 19.6542L15.6089 19.5155ZM13.5634 18.6723V18.5223L13.5063 18.811L13.5634 18.6723ZM21.5405 18.6723L21.6799 18.7278L21.7617 18.5223H21.5405V18.6723ZM20.75 20.658L20.8894 20.7135L20.8894 20.7135L20.75 20.658ZM19.5915 21.1572L19.6487 21.0185L19.6487 21.0185L19.5915 21.1572ZM17.027 20.1L17.0842 19.9614L17.0842 19.9614L17.027 20.1ZM16.5301 20.3141L16.6694 20.3696L16.6694 20.3696L16.5301 20.3141ZM16.7404 20.8198L16.7976 20.6811L16.7976 20.6811L16.7404 20.8198ZM19.305 21.8769L19.3622 21.7382L19.3622 21.7382L19.305 21.8769ZM21.4574 20.9496L21.5968 21.0051L21.5968 21.0051L21.4574 20.9496ZM22.364 18.6723V18.5223H22.2623L22.2246 18.6169L22.364 18.6723ZM24.5099 13.2822L24.3706 13.2267L24.3599 13.2534V13.2822H24.5099ZM25.8782 9.84512L26.0176 9.9006L26.0176 9.90059L25.8782 9.84512ZM25.8683 8.55796L26.0068 8.50035L25.7278 8.61055L25.8683 8.55796ZM1.31967 13.6253L1.37688 13.4867L1.37684 13.4867L1.31967 13.6253ZM0.834461 13.1393L0.695969 13.1969L0.695983 13.197L0.834461 13.1393ZM0.829178 12.4465L0.968539 12.502L0.96854 12.502L0.829178 12.4465ZM1.49014 10.7863H1.64014L1.35078 10.7308L1.49014 10.7863ZM1.49014 13.6957L1.43294 13.8343L1.64014 13.9198V13.6957H1.49014ZM4.74542 7.83073L4.88384 7.77292L4.88382 7.7729L4.74542 7.83073ZM4.9777 7.06025L5.08659 7.16341L5.08659 7.16341L4.9777 7.06025ZM5.56955 6.82137L5.54678 6.96963L5.54682 6.96964L5.56955 6.82137ZM7.28489 8.34933L7.40749 8.2629L7.40748 8.26289L7.28489 8.34933ZM7.85445 9.24093L7.83961 9.3902L8.13198 9.41928L7.98406 9.16541L7.85445 9.24093ZM8.1405 8.23626L8.01498 8.31839L8.04925 8.37076L8.11059 8.38325L8.1405 8.23626ZM5.6837 6.05351L5.70649 5.90525L5.70649 5.90525L5.6837 6.05351ZM4.42824 6.52126L4.53712 6.62443L4.53713 6.62442L4.42824 6.52126ZM4.04301 8.13447L4.18143 8.07666L4.18142 8.07665L4.04301 8.13447ZM5.21545 9.27431V9.42431L5.28719 9.14258L5.21545 9.27431ZM2.25333 9.27431H2.10333V9.42431H2.25333V9.27431ZM8.14054 4.10422H8.29054V3.95422H8.14054V4.10422ZM8.14054 8.23627L8.11063 8.38325L8.29054 8.41987V8.23627H8.14054ZM23.7467 16.9906H23.8967H23.7467ZM8.90369 17.8957H8.75369V18.0457H8.90369V17.8957ZM8.90369 10.364L8.99058 10.2417L8.75369 10.0734V10.364H8.90369ZM11.5942 13.9627L11.7387 13.9222L11.7387 13.9222L11.5942 13.9627ZM12.0864 14.2228L12.136 14.3643L12.136 14.3643L12.0864 14.2228ZM12.3281 13.7494L12.4725 13.7089L12.4725 13.7089L12.3281 13.7494ZM9.77626 10.051V9.901H9.35025L9.68228 10.1679L9.77626 10.051ZM23.7467 10.051H23.8967V9.901H23.7467V10.051ZM9.18959 9.24088L9.05999 9.16536L8.91207 9.41921L9.20444 9.39014L9.18959 9.24088ZM9.75383 8.35712L9.8765 8.44344L9.8765 8.44343L9.75383 8.35712ZM11.4744 6.82142L11.4972 6.96968L11.4973 6.96966L11.4744 6.82142ZM12.0666 7.0603L12.1755 6.95715L12.1754 6.95712L12.0666 7.0603ZM12.2988 7.83079L12.1604 7.77294L12.1604 7.77298L12.2988 7.83079ZM11.8287 9.27436L11.757 9.14263L11.8287 9.42436V9.27436ZM13.0012 8.13451L12.8628 8.0767L12.8628 8.0767L13.0012 8.13451ZM12.6159 6.5213L12.507 6.62446L12.5071 6.62448L12.6159 6.5213ZM11.3604 6.05356L11.3376 5.9053L11.3604 6.05356ZM8.90364 8.23631H8.75364V8.73953L9.02916 8.31844L8.90364 8.23631ZM8.90364 4.10433V3.95433H8.75364V4.10433H8.90364ZM23.7466 9.27436H23.5966V9.42436H23.7466V9.27436ZM25.1708 9.55355V9.40355H25.0691L25.0315 9.49807L25.1708 9.55355ZM24.5099 11.2138H24.3599L24.6492 11.2693L24.5099 11.2138ZM24.5099 8.30442L24.567 8.16573L24.3599 8.08035V8.30442H24.5099ZM24.6804 8.3747L24.7376 8.23602L24.7376 8.23601L24.6804 8.3747ZM25.1655 8.86078L25.027 8.91837L25.027 8.91843L25.1655 8.86078ZM25.1709 9.55355V9.70355H25.2726L25.3102 9.60903L25.1709 9.55355ZM26.0068 8.50036C25.8197 8.05043 25.4706 7.7003 25.0241 7.51626L24.9098 7.79362C25.2817 7.94692 25.5728 8.23813 25.7298 8.61559L26.0068 8.50036ZM25.0241 7.51626L24.5671 7.32787L24.4527 7.60523L24.9098 7.79362L25.0241 7.51626ZM24.6599 7.46655V5.00947H24.3599V7.46655H24.6599ZM24.6599 5.00947C24.6599 4.00174 23.8538 3.17769 22.8571 3.17769V3.47769C23.6832 3.47769 24.3599 4.16249 24.3599 5.00947H24.6599ZM22.8571 3.17769H14.4693V3.47769H22.8571V3.17769ZM14.5264 3.18901L9.71578 1.20598L9.60145 1.48334L14.4121 3.46637L14.5264 3.18901ZM9.71582 1.20599C9.44144 1.09281 9.13164 1.22862 9.02231 1.50325L9.30104 1.61421C9.34993 1.49138 9.48498 1.4353 9.60142 1.48332L9.71582 1.20599ZM9.02232 1.50322C8.9134 1.77666 9.04201 2.09062 9.31491 2.20309L9.42922 1.92572C9.31141 1.87717 9.25162 1.73826 9.30103 1.61424L9.02232 1.50322ZM9.31489 2.20308L12.3795 3.46637L12.4938 3.18901L9.42923 1.92572L9.31489 2.20308ZM12.4367 3.17769H4.45949V3.47769H12.4367V3.17769ZM4.59885 3.38317L5.38936 1.39744L5.11063 1.28648L4.32013 3.27221L4.59885 3.38317ZM5.38936 1.39745C5.54331 1.01075 5.97568 0.826606 6.35135 0.981486L6.4657 0.704132C5.93217 0.484175 5.32505 0.747919 5.11064 1.28648L5.38936 1.39745ZM6.35136 0.981488L7.90049 1.62006L8.01482 1.3427L6.46569 0.704129L6.35136 0.981488ZM7.90044 1.62004C8.17495 1.7333 8.48471 1.5974 8.59397 1.32275L8.31522 1.21185C8.26636 1.33467 8.13137 1.39079 8.01487 1.34272L7.90044 1.62004ZM8.59395 1.32281C8.70289 1.04932 8.57417 0.735478 8.30141 0.622974L8.18702 0.90031C8.30486 0.948917 8.36463 1.08781 8.31525 1.21179L8.59395 1.32281ZM8.30138 0.622962L6.75219 -0.0156083L6.63786 0.261753L8.18705 0.900323L8.30138 0.622962ZM6.7522 -0.0156042C5.8288 -0.396305 4.77571 0.0594285 4.40325 0.994839L4.68197 1.10582C4.99395 0.322294 5.87227 -0.0538858 6.63785 0.261749L6.7522 -0.0156042ZM4.40325 0.994848L3.49665 3.27215L3.77538 3.38311L4.68198 1.10581L4.40325 0.994848ZM3.63602 3.17763H3.14288V3.47763H3.63602V3.17763ZM3.14288 3.17763C2.14627 3.17763 1.34015 4.00168 1.34015 5.00942H1.64015C1.64015 4.16241 2.31686 3.47763 3.14288 3.47763V3.17763ZM1.34015 5.00942V8.7178H1.64015V5.00942H1.34015ZM1.35079 8.66232L-0.0175073 12.0994L0.261218 12.2104L1.62951 8.77328L1.35079 8.66232ZM-0.0174996 12.0994C-0.197788 12.5521 -0.193974 13.0498 -0.00678221 13.4997L0.270194 13.3844C0.11309 13.0069 0.109896 12.5903 0.26121 12.2104L-0.0174996 12.0994ZM-0.006789 13.4997C0.18038 13.9496 0.529474 14.2997 0.975969 14.4838L1.09028 14.2064C0.718382 14.0531 0.42722 13.7619 0.270201 13.3844L-0.006789 13.4997ZM0.975963 14.4838L1.43304 14.6722L1.54737 14.3948L1.09029 14.2064L0.975963 14.4838ZM1.34021 14.5335V16.9906H1.64021V14.5335H1.34021ZM1.34021 16.9906C1.34021 17.9983 2.14631 18.8223 3.14293 18.8223V18.5223C2.3169 18.5223 1.64021 17.8375 1.64021 16.9906H1.34021ZM3.14293 18.8223H4.77134V18.5223H3.14293V18.8223ZM4.77134 18.8223C5.06737 18.8223 5.30291 18.5789 5.30291 18.2841H5.00291C5.00291 18.4181 4.89679 18.5223 4.77134 18.5223V18.8223ZM5.30291 18.2841C5.30291 17.9893 5.06737 17.7458 4.77134 17.7458V18.0458C4.89678 18.0458 5.00291 18.15 5.00291 18.2841H5.30291ZM4.77134 17.7458H3.14293V18.0458H4.77134V17.7458ZM3.14293 17.7458C2.73772 17.7458 2.40335 17.4094 2.40335 16.9906H2.10335C2.10335 17.5701 2.56715 18.0458 3.14293 18.0458V17.7458ZM2.40335 16.9906V10.051H2.10335V16.9906H2.40335ZM2.25335 10.201H7.26799V9.901H2.25335V10.201ZM7.17401 9.93409C6.28028 10.6525 5.07902 11.9019 4.57172 13.7089L4.86055 13.7899C5.34439 12.0665 6.49381 10.8658 7.36197 10.1679L7.17401 9.93409ZM4.57171 13.7089C4.49594 13.9788 4.643 14.2705 4.9078 14.3642L5.0079 14.0814C4.89519 14.0415 4.82653 13.9111 4.86055 13.7899L4.57171 13.7089ZM4.90779 14.3642C5.19611 14.4663 5.51226 14.296 5.59444 14.0032L5.3056 13.9222C5.26906 14.0523 5.12827 14.124 5.00791 14.0814L4.90779 14.3642ZM5.59444 14.0032C6.09536 12.2189 7.45341 11.0363 8.22745 10.4862L8.05366 10.2417C7.25908 10.8064 5.83412 12.0395 5.3056 13.9222L5.59444 14.0032ZM7.99055 10.364V17.8957H8.29056V10.364H7.99055ZM8.14055 17.7457H6.2977V18.0457H8.14055V17.7457ZM6.2977 17.7457C6.00167 17.7457 5.76613 17.9892 5.76613 18.284H6.06613C6.06613 18.1499 6.17226 18.0457 6.2977 18.0457V17.7457ZM5.76613 18.284C5.76613 18.5788 6.00167 18.8223 6.2977 18.8223V18.5223C6.17225 18.5223 6.06613 18.4181 6.06613 18.284H5.76613ZM6.2977 18.8223H11.5308V18.5223H6.2977V18.8223ZM11.4736 18.811L15.2652 20.3739L15.3796 20.0965L11.588 18.5336L11.4736 18.811ZM15.2652 20.3739C15.3306 20.4009 15.3985 20.4137 15.4655 20.4137V20.1137C15.4371 20.1137 15.4081 20.1083 15.3796 20.0966L15.2652 20.3739ZM15.4655 20.4137C15.6769 20.4137 15.8755 20.2855 15.9587 20.0766L15.68 19.9657C15.6429 20.0588 15.5558 20.1137 15.4655 20.1137V20.4137ZM15.9587 20.0767C16.0676 19.8032 15.939 19.4893 15.6661 19.3768L15.5518 19.6542C15.6696 19.7027 15.7294 19.8416 15.68 19.9656L15.9587 20.0767ZM15.6661 19.3768L13.6206 18.5336L13.5063 18.811L15.5518 19.6542L15.6661 19.3768ZM13.5634 18.8223H21.5405V18.5223H13.5634V18.8223ZM21.4012 18.6168L20.6107 20.6025L20.8894 20.7135L21.6799 18.7278L21.4012 18.6168ZM20.6107 20.6025C20.4567 20.9892 20.0242 21.1734 19.6487 21.0185L19.5343 21.2958C20.0676 21.5158 20.675 21.2521 20.8894 20.7135L20.6107 20.6025ZM19.6487 21.0185L17.0842 19.9614L16.9698 20.2387L19.5343 21.2958L19.6487 21.0185ZM17.0842 19.9614C16.8098 19.8483 16.5 19.984 16.3907 20.2586L16.6694 20.3696C16.7183 20.2468 16.8533 20.1907 16.9699 20.2387L17.0842 19.9614ZM16.3907 20.2586C16.2818 20.5321 16.4104 20.846 16.6833 20.9585L16.7976 20.6811C16.6798 20.6326 16.62 20.4937 16.6694 20.3696L16.3907 20.2586ZM16.6833 20.9585L19.2478 22.0156L19.3622 21.7382L16.7976 20.6811L16.6833 20.9585ZM19.2478 22.0156C19.4689 22.1067 19.6978 22.15 19.9235 22.15V21.85C19.7364 21.85 19.5464 21.8142 19.3622 21.7382L19.2478 22.0156ZM19.9235 22.15C20.6373 22.15 21.3136 21.7164 21.5968 21.0051L21.3181 20.8941C21.0811 21.4894 20.5166 21.85 19.9235 21.85V22.15ZM21.5968 21.0051L22.5034 18.7278L22.2246 18.6169L21.318 20.8942L21.5968 21.0051ZM22.364 18.8223H22.8571V18.5223H22.364V18.8223ZM22.8571 18.8223C23.8538 18.8223 24.6599 17.9983 24.6599 16.9905H24.3599C24.3599 17.8375 23.6832 18.5223 22.8571 18.5223V18.8223ZM24.6599 16.9905V13.2822H24.3599V16.9905H24.6599ZM24.6493 13.3377L26.0176 9.9006L25.7389 9.78964L24.3706 13.2267L24.6493 13.3377ZM26.0176 9.90059C26.1978 9.44786 26.194 8.95019 26.0068 8.50035L25.7298 8.61557C25.8869 8.99313 25.8901 9.40963 25.7389 9.78966L26.0176 9.90059ZM25.7278 8.61055L25.7279 8.61057L26.0088 8.50538L26.0088 8.50537L25.7278 8.61055ZM1.37684 13.4867C1.1939 13.4112 1.05055 13.2681 0.97294 13.0817L0.695983 13.197C0.803726 13.4558 1.00497 13.6579 1.26251 13.764L1.37684 13.4867ZM0.972954 13.0817C0.895366 12.8952 0.893791 12.6898 0.968539 12.502L0.689817 12.3911C0.586117 12.6515 0.5883 12.9381 0.695969 13.1969L0.972954 13.0817ZM0.96854 12.502L1.62951 10.8417L1.35078 10.7308L0.689816 12.3911L0.96854 12.502ZM1.34014 10.7863V13.6957H1.64014V10.7863H1.34014ZM1.54735 13.557L1.37688 13.4867L1.26247 13.764L1.43294 13.8343L1.54735 13.557ZM4.88382 7.7729C4.85782 7.71068 4.83913 7.63951 4.85538 7.55003C4.87193 7.45885 4.92812 7.3307 5.08659 7.16341L4.8688 6.95709C4.68263 7.15362 4.58997 7.33246 4.5602 7.49644C4.53012 7.66211 4.56762 7.79427 4.60702 7.88857L4.88382 7.7729ZM5.08659 7.16341C5.22504 7.01726 5.38001 6.94402 5.54678 6.96963L5.59232 6.67311C5.29485 6.62742 5.04774 6.76821 4.8688 6.95709L5.08659 7.16341ZM5.54682 6.96964C5.73504 6.99849 5.97616 7.12927 6.25866 7.38092C6.538 7.62976 6.84406 7.98441 7.1623 8.43576L7.40748 8.26289C7.0809 7.7997 6.75999 7.42574 6.45821 7.15691C6.15959 6.89091 5.86545 6.71498 5.59228 6.6731L5.54682 6.96964ZM7.16229 8.43576C7.38313 8.74901 7.57583 9.06072 7.72485 9.31645L7.98406 9.16541C7.83203 8.90451 7.63464 8.58511 7.40749 8.2629L7.16229 8.43576ZM7.8693 9.09167C7.15231 9.02035 6.46076 8.83845 5.91752 8.59492C5.64594 8.47317 5.41483 8.33753 5.23693 8.19529C5.0579 8.05214 4.94045 7.90849 4.88384 7.77292L4.60701 7.88854C4.68989 8.08699 4.84802 8.26843 5.04959 8.4296C5.25229 8.59167 5.5068 8.73956 5.7948 8.86867C6.37074 9.12686 7.0942 9.31605 7.83961 9.3902L7.8693 9.09167ZM8.26602 8.15413C7.96014 7.68664 7.57468 7.16727 7.14314 6.74481C6.71458 6.32528 6.22393 5.98478 5.70649 5.90525L5.66091 6.20177C6.08552 6.26703 6.52039 6.555 6.93327 6.95919C7.34318 7.36046 7.7151 7.86006 8.01498 8.31839L8.26602 8.15413ZM5.70649 5.90525C5.18806 5.82558 4.70634 6.0096 4.31934 6.4181L4.53713 6.62442C4.86494 6.27839 5.25137 6.13883 5.66092 6.20177L5.70649 5.90525ZM4.31935 6.41809C4.03465 6.71856 3.5641 7.37714 3.9046 8.19228L4.18142 8.07665C3.91324 7.43464 4.27277 6.90341 4.53712 6.62443L4.31935 6.41809ZM3.9046 8.19227C4.11249 8.69007 4.5735 9.09551 5.14371 9.40604L5.28719 9.14258C4.74571 8.8477 4.35195 8.48499 4.18143 8.07666L3.9046 8.19227ZM5.21545 9.12431H2.25333V9.42431H5.21545V9.12431ZM2.40333 9.27431V5.00942H2.10333V9.27431H2.40333ZM2.40333 5.00942C2.40333 4.59064 2.7377 4.25422 3.14291 4.25422V3.95422C2.56713 3.95422 2.10333 4.42988 2.10333 5.00942H2.40333ZM3.14291 4.25422H8.14054V3.95422H3.14291V4.25422ZM7.99054 4.10422V8.23627H8.29054V4.10422H7.99054ZM8.17045 8.08928L8.17041 8.08927L8.11059 8.38325L8.11063 8.38325L8.17045 8.08928ZM23.5967 16.9906C23.5967 17.4093 23.2623 17.7457 22.8571 17.7457V18.0457C23.4329 18.0457 23.8967 17.5701 23.8967 16.9906H23.5967ZM22.8571 17.7457H8.90369V18.0457H22.8571V17.7457ZM9.05369 17.8957V10.364H8.75369V17.8957H9.05369ZM8.8168 10.4862C9.59085 11.0363 10.9489 12.2188 11.4498 14.0032L11.7387 13.9222C11.2101 12.0395 9.78517 10.8064 8.99058 10.2417L8.8168 10.4862ZM11.4498 14.0032C11.5322 14.2969 11.8483 14.4652 12.136 14.3643L12.0368 14.0812C11.9154 14.1238 11.7752 14.0522 11.7387 13.9222L11.4498 14.0032ZM12.136 14.3643C12.4018 14.2711 12.5481 13.978 12.4725 13.7089L12.1837 13.7899C12.2177 13.9112 12.1488 14.0419 12.0368 14.0812L12.136 14.3643ZM12.4725 13.7089C11.9652 11.9019 10.764 10.6525 9.87024 9.93409L9.68228 10.1679C10.5505 10.8658 11.6999 12.0665 12.1837 13.7899L12.4725 13.7089ZM9.77626 10.201H23.7467V9.901H9.77626V10.201ZM23.5967 10.051L23.5967 16.9906H23.8967L23.8967 10.051H23.5967ZM9.3192 9.3164C9.46673 9.06321 9.65743 8.75475 9.8765 8.44344L9.63116 8.27079C9.40588 8.59092 9.21055 8.90698 9.05999 9.16536L9.3192 9.3164ZM9.8765 8.44343C10.1957 7.98976 10.5028 7.63327 10.783 7.38314C11.0664 7.13017 11.3084 6.99869 11.4972 6.96968L11.4517 6.67316C11.1777 6.71524 10.8827 6.89201 10.5832 7.15932C10.2806 7.42946 9.95869 7.80528 9.63115 8.2708L9.8765 8.44343ZM11.4973 6.96966C11.6641 6.94395 11.8191 7.01726 11.9577 7.16348L12.1754 6.95712C11.9965 6.76829 11.7492 6.62727 11.4516 6.67317L11.4973 6.96966ZM11.9577 7.16345C12.1161 7.33077 12.1723 7.45893 12.1888 7.55011C12.2051 7.63959 12.1864 7.71074 12.1604 7.77294L12.4372 7.88864C12.4766 7.79437 12.5141 7.66222 12.484 7.49654C12.4543 7.33256 12.3616 7.15371 12.1755 6.95715L11.9577 7.16345ZM12.1604 7.77298C12.1038 7.90852 11.9863 8.05216 11.8073 8.1953C11.6293 8.33753 11.3982 8.47316 11.1266 8.59491C10.5833 8.83843 9.89174 9.02032 9.17475 9.09162L9.20444 9.39014C9.94985 9.31602 10.6733 9.12685 11.2493 8.86867C11.5373 8.73956 11.7919 8.59168 11.9946 8.42962C12.1962 8.26847 12.3543 8.08704 12.4372 7.8886L12.1604 7.77298ZM23.7467 9.12436H11.8287V9.42436H23.7467V9.12436ZM11.9005 9.40609C12.4706 9.09552 12.9317 8.69007 13.1396 8.19232L12.8628 8.0767C12.6922 8.48498 12.2984 8.8477 11.757 9.14263L11.9005 9.40609ZM13.1396 8.19233C13.4801 7.37719 13.0095 6.7186 12.7248 6.41813L12.5071 6.62448C12.7714 6.90345 13.1309 7.43468 12.8628 8.0767L13.1396 8.19233ZM12.7248 6.41815C12.3378 6.00952 11.8556 5.82569 11.3376 5.9053L11.3832 6.20182C11.7924 6.13893 12.1792 6.27837 12.507 6.62446L12.7248 6.41815ZM11.3376 5.9053C10.8202 5.98483 10.3296 6.32533 9.90102 6.74486C9.46947 7.16731 9.084 7.68669 8.77812 8.15419L9.02916 8.31844C9.32904 7.86011 9.70097 7.36051 10.1109 6.95924C10.5238 6.55504 10.9586 6.26708 11.3832 6.20182L11.3376 5.9053ZM9.05364 8.23631V4.10433H8.75364V8.23631H9.05364ZM8.90364 4.25433H22.857V3.95433H8.90364V4.25433ZM22.857 4.25433C23.2622 4.25433 23.5966 4.59075 23.5966 5.00952H23.8966C23.8966 4.42999 23.4328 3.95433 22.857 3.95433V4.25433ZM23.5966 5.00952V9.27436H23.8966V5.00952H23.5966ZM23.7466 9.42436H23.7467V9.12436H23.7466V9.42436ZM25.0315 9.49807L24.3705 11.1584L24.6492 11.2693L25.3102 9.60903L25.0315 9.49807ZM24.6599 11.2138V8.30442H24.3599V11.2138H24.6599ZM24.4527 8.4431L24.6232 8.51338L24.7376 8.23601L24.567 8.16573L24.4527 8.4431ZM24.6232 8.51337C24.8061 8.58879 24.9495 8.73197 25.027 8.91837L25.304 8.80319C25.1964 8.54428 24.995 8.34218 24.7376 8.23602L24.6232 8.51337ZM25.027 8.91843C25.1047 9.10486 25.1062 9.31032 25.0315 9.49806L25.3102 9.60903C25.4139 9.34857 25.4117 9.06191 25.304 8.80313L25.027 8.91843ZM25.1709 9.40355H25.1708V9.70355H25.1709V9.40355Z"
      fill="currentColor" />
  </g>
</svg>