<svg xmlns="http://www.w3.org/2000/svg" width="100%" height="100%" viewBox="0 0 32 38" testId="" id="shopping_bag_v3">
  <title>Shopping bag v3</title>
  <path fill="currentColor"
    d="M1022.736 942.64l-83.408-503.776c-7.44-65.312-66.976-118.432-132.72-118.432h-70.656v-85.28c0-130.16-92.848-236.032-222.976-236.032-130.096 0-224.944 105.872-224.944 236.032v85.28H211.36c-65.744 0-125.28 53.12-132.528 117.056l-77.28 504.16c-2.976 26.56 2.224 47.504 15.408 62.288 12.432 13.904 30.528 20.976 53.744 20.976h873.568c32.912 0 51.776-13.216 61.84-24.32 9.216-10.208 19.648-28.144 16.624-57.952zM352.048 235.136c0-94.848 66.128-172.032 160.944-172.032s158.976 77.184 158.976 172.032v85.28h-319.92v-85.28zm595.12 725.312l-872.496.448c-5.504 0-11.008-2.944-9.712-10.688l77.248-504.096c3.84-33.44 35.504-61.68 69.152-61.68h76.688v72.928C268.976 468.432 256 488.848 256 512.496c0 35.344 28.656 64 64 64s64-28.656 64-64c0-23.616-12.928-44-31.952-55.088v-72.992h319.904v72.992C652.944 468.496 640 488.896 640 512.496c0 35.344 28.656 64 64 64s64-28.656 64-64c0-23.648-12.976-44.064-32.048-55.152v-72.928h70.656c33.664 0 65.312 28.256 69.408 63.44l83.344 503.28c.4 4.096-2.816 9.312-12.192 9.312z" />
</svg>