<svg xmlns="http://www.w3.org/2000/svg" width="100%" height="100%" testId="">
    <title>Shopping bag</title>
    <path
        d="M25.1429 9.5C25.1429 4.26164 21.0414 0 16 0C10.9586 0 6.85714 4.26164 6.85714 9.5H0V32.0625C0 35.3417 2.55836 38 5.71429 38H26.2857C29.4416 38 32 35.3417 32 32.0625V9.5H25.1429ZM16 3.5625C19.1509 3.5625 21.7143 6.22606 21.7143 9.5H10.2857C10.2857 6.22606 12.8491 3.5625 16 3.5625ZM28.5714 32.0625C28.5714 33.3721 27.5461 34.4375 26.2857 34.4375H5.71429C4.45393 34.4375 3.42857 33.3721 3.42857 32.0625V13.0625H6.85714V16.0312C6.85714 17.015 7.62464 17.8125 8.57143 17.8125C9.51822 17.8125 10.2857 17.015 10.2857 16.0312V13.0625H21.7143V16.0312C21.7143 17.015 22.4818 17.8125 23.4286 17.8125C24.3754 17.8125 25.1429 17.015 25.1429 16.0312V13.0625H28.5714V32.0625Z"
        fill="currentColor" />
</svg>