<svg xmlns="http://www.w3.org/2000/svg" width="100%" height="100%" viewBox="0 0 32 38" testId="" id="shopping_bag_v2">
  <title>Shopping bag v2</title>
  <path
    d="M35 33.1642L32.8322 9.85821C32.7622 9.38806 32.3427 8.98507 31.8531 8.98507H27.3776C27.3077 5.15672 24.021 2 19.965 2C15.9091 2 12.6224 5.15672 12.6224 9.05224H8.14685C7.65734 9.05224 7.23776 9.45522 7.16783 9.92537L5 33.1642V33.2313C5 35.8507 7.51748 38 10.5944 38H29.4056C32.4825 38 35 35.8507 35 33.2313V33.1642ZM20.035 3.8806C22.972 3.8806 25.4196 6.16418 25.4196 8.98507H14.6503C14.6503 6.16418 17.0979 3.8806 20.035 3.8806ZM29.4056 36.1194H10.5944C8.63636 36.1194 7.02797 34.8433 6.95804 33.2985L9.05594 10.9328H12.6224V13.9552C12.6224 14.4254 13.042 14.8955 13.5315 14.8955C14.0909 14.9627 14.5804 14.4925 14.5804 13.9552V10.8657H25.3496V13.8881C25.3496 14.3582 25.7692 14.8284 26.2587 14.8284C26.8182 14.8955 27.3077 14.4254 27.3077 13.8881V10.7985H30.8741L32.972 33.1642C32.972 34.8433 31.3636 36.1194 29.4056 36.1194Z"
    fill="currentColor" />
</svg>