<svg xmlns="http://www.w3.org/2000/svg" width="100%" height="100%" viewBox="0 0 21 21">
    <title>Shopping Cart</title>
    <path
        d="M20.1247 3.23755H5.26021L4.94207 1.53861C4.86172 1.10961 4.5018 0.800049 4.08333 0.800049H0.4375C0.195891 0.800049 0 1.00468 0 1.25708V2.17114C0 2.42354 0.195891 2.62817 0.4375 2.62817H3.36292L5.9002 16.1754C5.49777 16.6134 5.25 17.2075 5.25 17.8625C5.25 19.2087 6.29468 20.3 7.58333 20.3C8.87199 20.3 9.91666 19.2087 9.91666 17.8625C9.91712 17.4346 9.80916 17.0141 9.60374 16.6438H14.8963C14.6909 17.0141 14.5829 17.4346 14.5834 17.8625C14.5834 19.2087 15.628 20.3 16.9167 20.3C18.2054 20.3 19.25 19.2087 19.25 17.8625C19.25 17.1718 18.9746 16.5487 18.5327 16.1052L18.5704 15.924C18.689 15.3542 18.2736 14.8157 17.7154 14.8157H7.42875L7.0864 12.9875H18.4762C18.8878 12.9875 19.2438 12.6879 19.3312 12.2676L20.9797 4.34577C21.0982 3.77605 20.6828 3.23755 20.1247 3.23755ZM7.58333 18.7766C7.10084 18.7766 6.70833 18.3666 6.70833 17.8625C6.70833 17.3585 7.10084 16.9485 7.58333 16.9485C8.06582 16.9485 8.45833 17.3585 8.45833 17.8625C8.45833 18.3666 8.06582 18.7766 7.58333 18.7766ZM16.9167 18.7766C16.4342 18.7766 16.0417 18.3666 16.0417 17.8625C16.0417 17.3585 16.4342 16.9485 16.9167 16.9485C17.3992 16.9485 17.7917 17.3585 17.7917 17.8625C17.7917 18.3666 17.3992 18.7766 16.9167 18.7766ZM17.7712 11.1594H6.74406L5.60255 5.06567H19.0392L17.7712 11.1594Z"
        fill="currentColor" />
</svg>