<svg xmlns="http://www.w3.org/2000/svg" width="100%" height="100%">
    <title>Shopping cart v2</title>
    <path
        d="M9.82547 25.2855C10.4093 25.5724 11.0307 25.7113 11.6804 25.7113C18.4222 25.7113 25.1546 25.7205 31.8965 25.702C34.1186 25.6928 35.9359 23.9527 35.9736 21.7685C36.0206 18.9456 35.9924 16.1319 35.983 13.309C35.983 12.7722 35.6252 12.3835 35.0696 12.3002C33.3183 12.0595 31.5575 11.8282 29.8061 11.5875C27.1414 11.2266 24.4767 10.8656 21.8214 10.5046C18.9684 10.1159 16.1153 9.72718 13.2717 9.33846C12.0476 9.17186 10.8236 9.00526 9.57124 8.83866C9.57124 8.69058 9.57124 8.561 9.57124 8.44068C9.57124 7.47812 9.57124 6.52481 9.57124 5.56225C9.57124 4.83107 9.41117 4.59969 8.71439 4.31277C8.23418 4.10915 7.74455 3.91479 7.26433 3.72042C5.95552 3.1651 4.6467 2.61903 3.32846 2.06371C3.2908 2.0452 3.25314 2.03594 3.21547 2.02669C3.03657 1.98041 2.80117 1.98966 2.56577 2.09147C2.29271 2.20254 1.98198 2.53573 2.00082 3.06329C2.01965 3.60936 2.38687 3.86851 2.85767 4.06287C4.28889 4.64596 5.72012 5.25682 7.15134 5.83066C7.38674 5.92321 7.53739 6.1546 7.53739 6.40449C7.52798 13.5126 7.52798 20.6115 7.52798 27.7197C7.52798 27.84 7.52798 27.9603 7.53739 28.0806C7.67863 29.7003 8.49782 30.8758 10.0044 31.5607C10.3528 31.718 10.7294 31.8106 11.0966 31.9216C9.91963 34.1337 10.833 36.0588 11.9911 37.0306C13.3753 38.1783 15.3526 38.3079 16.8686 37.3361C17.6125 36.8548 18.1586 36.1976 18.4693 35.3739C18.9119 34.2077 18.7706 33.0786 18.2057 31.9772H27.2732C26.9248 32.6065 26.7365 33.2452 26.7365 33.9208C26.7554 35.6423 27.5745 36.8918 29.1376 37.6322C30.5971 38.3171 32.3767 38.021 33.5631 36.9473C34.7966 35.8274 35.2297 34.1615 34.6836 32.6528C34.0715 30.9498 32.5556 29.941 30.5971 29.9317C24.4202 29.9317 18.2339 29.9317 12.0571 29.9317C11.8876 29.9317 11.7275 29.9317 11.558 29.9225C10.494 29.8669 9.62774 29.1265 9.56182 28.0806C9.49591 27.1273 9.55241 26.1648 9.55241 25.1837C9.67482 25.23 9.75014 25.2485 9.82547 25.2855ZM30.9266 31.9402C32.0565 31.9772 32.9416 32.8935 32.9228 33.9949C32.904 35.1148 31.953 36.0033 30.8136 35.9755C29.6931 35.9477 28.7704 35.0222 28.7892 33.9393C28.808 32.8102 29.7779 31.9031 30.9266 31.9402ZM14.7123 31.9402C15.8611 31.9679 16.7556 32.8842 16.7274 34.0134C16.6991 35.1425 15.7575 36.0218 14.6182 35.9848C13.4883 35.9477 12.6032 35.0407 12.622 33.9301C12.6314 32.8009 13.573 31.9124 14.7123 31.9402ZM9.56182 11.0414C9.56182 10.9952 9.57124 10.9489 9.58066 10.8563C10.6258 10.9952 11.6427 11.134 12.6503 11.2728C15.3338 11.6338 18.0268 12.004 20.7103 12.365C23.5539 12.7537 26.3881 13.1332 29.2317 13.5126C30.7006 13.7163 32.1789 13.9106 33.6478 14.1142C33.8079 14.1328 33.9491 14.142 33.9491 14.3641C33.9397 16.8076 33.968 19.2602 33.9209 21.7037C33.8926 22.9346 32.9981 23.6936 31.727 23.7214C31.3315 23.7306 30.9454 23.7214 30.55 23.7214C24.3449 23.7214 18.1398 23.7214 11.9441 23.7214C11.0025 23.7214 10.2304 23.4159 9.79722 22.5552C9.65598 22.2683 9.57124 21.9258 9.57124 21.6111C9.56182 18.0941 9.56182 14.5678 9.56182 11.0414Z"
        fill="currentColor" />
</svg>