<svg xmlns="http://www.w3.org/2000/svg" width="100%" height="100%" viewBox="0 0 27 26" id="shopping_bag_v4">
    <title>Shopping bag v4</title>
    <path d="M24.8438 5.25012H19.5973C19.3491 3.81293 18.6012 2.50959 17.4856 1.57013C16.3701 0.63067 14.9585 0.115479 13.5 0.115479C12.0415 0.115479 10.6299 0.63067 9.51436 1.57013C8.39878 2.50959 7.6509 3.81293 7.40273 5.25012H2.15625C1.60924 5.25012 1.08464 5.46742 0.697842 5.85421C0.311048 6.24101 0.09375 6.76561 0.09375 7.31262V23.8126C0.09375 24.3596 0.311048 24.8842 0.697842 25.271C1.08464 25.6578 1.60924 25.8751 2.15625 25.8751H24.8438C25.3908 25.8751 25.9154 25.6578 26.3022 25.271C26.689 24.8842 26.9062 24.3596 26.9062 23.8126V7.31262C26.9062 6.76561 26.689 6.24101 26.3022 5.85421C25.9154 5.46742 25.3908 5.25012 24.8438 5.25012ZM13.5 2.15637C14.4143 2.15812 15.3023 2.46262 16.0252 3.02233C16.7482 3.58203 17.2654 4.36542 17.4961 5.25012H9.50391C9.73461 4.36542 10.2518 3.58203 10.9748 3.02233C11.6977 2.46262 12.5857 2.15812 13.5 2.15637ZM24.8438 23.8126H2.15625V7.31262H7.3125V10.4064C7.3125 10.6799 7.42115 10.9422 7.61455 11.1356C7.80794 11.329 8.07025 11.4376 8.34375 11.4376C8.61725 11.4376 8.87956 11.329 9.07295 11.1356C9.26635 10.9422 9.375 10.6799 9.375 10.4064V7.31262H17.625V10.4064C17.625 10.6799 17.7336 10.9422 17.927 11.1356C18.1204 11.329 18.3827 11.4376 18.6562 11.4376C18.9298 11.4376 19.1921 11.329 19.3855 11.1356C19.5789 10.9422 19.6875 10.6799 19.6875 10.4064V7.31262H24.8438V23.8126Z" fill="currentColor"/>
</svg>