<svg xmlns="http://www.w3.org/2000/svg" width="100%" height="100%">
    <title>User</title>
    <path
        d="M22.4 21.375C20.35 21.375 19.3643 22.5 16 22.5C12.6357 22.5 11.6571 21.375 9.6 21.375C4.3 21.375 0 25.6078 0 30.825V32.625C0 34.4883 1.53571 36 3.42857 36H28.5714C30.4643 36 32 34.4883 32 32.625V30.825C32 25.6078 27.7 21.375 22.4 21.375ZM28.5714 32.625H3.42857V30.825C3.42857 27.4781 6.2 24.75 9.6 24.75C10.6429 24.75 12.3357 25.875 16 25.875C19.6929 25.875 21.35 24.75 22.4 24.75C25.8 24.75 28.5714 27.4781 28.5714 30.825V32.625ZM16 20.25C21.6786 20.25 26.2857 15.7148 26.2857 10.125C26.2857 4.53516 21.6786 0 16 0C10.3214 0 5.71429 4.53516 5.71429 10.125C5.71429 15.7148 10.3214 20.25 16 20.25ZM16 3.375C19.7786 3.375 22.8571 6.40547 22.8571 10.125C22.8571 13.8445 19.7786 16.875 16 16.875C12.2214 16.875 9.14286 13.8445 9.14286 10.125C9.14286 6.40547 12.2214 3.375 16 3.375Z"
        fill="none" />
</svg>