<svg xmlns="http://www.w3.org/2000/svg" width="100%" height="100%" viewBox="0 0 40 40">
    <title>User Solid</title>
    <path fillRule="evenodd" clipRule="evenodd"
        d="M20.1332 21.3964H20.0523H19.8743C17.4468 21.358 15.4805 20.5424 14.024 18.9883C10.8844 15.626 11.3699 9.9095 11.4346 9.24013C11.645 5.02389 13.7651 3.01579 15.5129 2.07714C17.2445 1.13849 19.0409 1 19.9633 1H20.1009C21.7597 1.03078 23.2566 1.40008 24.5513 2.10792C26.2667 3.04657 28.3625 5.03928 28.5729 9.24013C28.6457 9.9018 29.1231 15.6183 25.9835 18.9883C24.527 20.5424 22.5607 21.358 20.1332 21.3964ZM36.9963 31.1292V31.1523C37.0044 31.4138 37.0368 33.5989 36.5675 34.7145C36.4785 34.9453 36.3005 35.1531 36.0658 35.2916C35.4265 35.6763 29.5762 39 20.0038 39C9.96194 39 3.99026 35.33 3.93362 35.2916C3.70705 35.1531 3.52904 34.953 3.43193 34.7145C2.97071 33.5989 2.99498 31.3985 3.00307 31.1523V31.1215V31.1061C3.01117 31.0522 3.01117 30.9984 3.01117 30.9368V30.9214L3.01207 30.8965C3.06911 29.3286 3.2006 25.7141 6.85473 24.5355C6.88709 24.5201 6.91137 24.5125 6.95183 24.5048C10.5931 23.6354 13.587 22.3889 13.6194 22.3659C14.1373 22.0196 14.8251 22.0812 15.2701 22.4736C15.4562 22.6428 15.6585 22.7967 15.8851 22.9121C17.0826 23.5353 20.5378 24.9664 24.0658 22.9121C24.26 22.7967 24.438 22.6736 24.5918 22.5197C25.0368 22.0889 25.7489 22.0119 26.2829 22.3659C26.3153 22.3889 29.4144 23.6354 33.0476 24.5048L33.0638 24.5125C33.0678 24.5125 33.0739 24.5144 33.08 24.5163C33.086 24.5182 33.0921 24.5201 33.0961 24.5201C33.1042 24.524 33.1123 24.5259 33.1204 24.5278C33.1285 24.5298 33.1366 24.5317 33.1447 24.5355C36.8183 25.7204 36.9397 29.3673 36.9882 30.9291V30.9368V31.0292C36.9963 31.0599 36.9963 31.0984 36.9963 31.1292Z"
        fill="currentColor" />
</svg>