<svg xmlns="http://www.w3.org/2000/svg" width="100%" height="100%" viewBox="0 0 40 40" id="user_v2">
  <title>User</title>
  <path fillRule="evenodd" clipRule="evenodd"
    d="M20.1251 21.4006H20.0442H19.8661C17.4374 21.3621 15.4702 20.5464 14.013 18.9919C10.8719 15.629 11.3577 9.9113 11.4224 9.2418C11.6329 5.02471 13.754 3.0162 15.5026 2.07736C17.235 1.13852 19.0322 1 19.9551 1H20.0928C21.7523 1.03078 23.25 1.40016 24.5453 2.10814C26.2616 3.04698 28.3583 5.0401 28.5688 9.2418C28.6416 9.90361 29.1193 15.6213 25.9782 18.9919C24.521 20.5464 22.5538 21.3621 20.1251 21.4006ZM13.9887 9.44188V9.47266C13.9885 9.47513 13.9882 9.47848 13.9878 9.48268C13.9598 9.79248 13.5114 14.7562 15.9236 17.3528C16.9031 18.407 18.2146 18.9226 19.9389 18.938H20.0199C21.7442 18.9226 23.0557 18.3994 24.0353 17.3528C24.7477 16.5909 25.6625 15.1288 25.9539 12.4585C26.1239 10.9117 26.0106 9.64196 25.9944 9.48036C25.9863 9.44188 25.9863 9.4034 25.9863 9.38032C25.8811 7.15634 25.1201 5.52491 23.7196 4.5399C22.5133 3.6857 21.048 3.48562 20.0361 3.46254H19.947C19.008 3.46254 17.6317 3.63183 16.4255 4.41677C14.9278 5.39409 14.1102 7.06399 13.9968 9.38801C13.9968 9.40072 13.9944 9.4111 13.9922 9.42043C13.9904 9.42804 13.9887 9.43496 13.9887 9.44188ZM36.9962 31.1353V31.1584C37.0043 31.42 37.0367 33.6055 36.5834 34.7136C36.4943 34.9445 36.3162 35.1523 36.0814 35.2908C35.4419 35.6756 29.5888 39 20.0118 39C9.96524 39 3.99073 35.3293 3.93406 35.2908C3.70739 35.1523 3.52929 34.9522 3.43214 34.7136C2.97069 33.5978 2.99498 31.3969 3.00308 31.1507V31.1199V31.1045C3.01117 31.0506 3.01117 30.9968 3.01117 30.9352V30.9198L3.01208 30.8949C3.06914 29.3267 3.2007 25.7114 6.85655 24.5326C6.88893 24.5172 6.91322 24.5095 6.9537 24.5018C10.5967 23.6322 13.6406 21.6468 13.673 21.6237C14.264 21.2313 15.0816 21.3698 15.4945 21.9239C15.6969 22.1932 15.7697 22.5164 15.7131 22.8396C15.6483 23.1628 15.4621 23.4475 15.1707 23.6399L15.1302 23.663C14.2964 24.194 11.2848 25.987 7.64991 26.872C5.87699 27.4723 5.6746 29.2422 5.61793 31.0045C5.61793 31.019 5.61613 31.0352 5.61422 31.0524C5.61209 31.0716 5.60984 31.0919 5.60984 31.1122V31.1891C5.60174 31.8433 5.65032 32.8437 5.76365 33.4439C7.26133 34.2288 12.3372 36.5375 20.0037 36.5375C27.7026 36.5375 32.7461 34.2288 34.2357 33.4516C34.349 32.8667 34.3976 31.9048 34.3895 31.2122C34.3814 31.143 34.3814 31.0737 34.3814 31.0045C34.3247 29.2499 34.1223 27.4799 32.3494 26.8797C28.2288 25.887 24.9663 23.74 24.8286 23.6476C24.5372 23.4552 24.3429 23.1705 24.2862 22.8473C24.2296 22.5241 24.3024 22.2009 24.5048 21.9316C24.9258 21.3775 25.7353 21.239 26.3263 21.6314C26.3587 21.6545 29.4107 23.6399 33.0456 24.5095L33.0618 24.5172C33.0659 24.5172 33.0719 24.5191 33.078 24.5211C33.0841 24.523 33.0901 24.5249 33.0942 24.5249C33.1023 24.5288 33.1104 24.5307 33.1185 24.5326C33.1266 24.5345 33.1347 24.5364 33.1428 24.5403C36.8181 25.7254 36.9396 29.373 36.9881 30.9352V30.9429V31.0352C36.9962 31.066 36.9962 31.1045 36.9962 31.1353Z"
    fill="currentColor" />
</svg>