<svg width="64" height="64" viewBox="0 0 64 64" fill="currentColor" xmlns="http://www.w3.org/2000/svg">
    <mask id="mask0_20_424" style="mask-type:alpha" maskUnits="userSpaceOnUse" x="0" y="0" width="64" height="64">
        <circle cx="32" cy="32" r="32" fill="#C4C4C4" />
    </mask>
    <g mask="url(#mask0_20_424)">
        <path d="M66.3349 -1.46262H-2.19257V66.0511H66.3349V-1.46262Z" fill="#F7A08B" />
        <g style="mix-blend-mode:lighten" opacity="0.2">
            <path
                d="M32.0287 39.1025C51.7198 39.1025 67.6825 28.4743 67.6825 15.3637C67.6825 2.2532 51.7198 -8.375 32.0287 -8.375C12.3377 -8.375 -3.625 2.2532 -3.625 15.3637C-3.625 28.4743 12.3377 39.1025 32.0287 39.1025Z"
                fill="white" />
        </g>
        <path
            d="M33.9363 18.7873C33.9177 17.6163 34.0416 16.4473 34.3051 15.3061C34.5062 14.4416 34.8334 13.6115 35.2763 12.8423C35.637 12.2235 36.1101 11.6774 36.6713 11.2323C37.1664 10.8433 37.7134 10.5253 38.2963 10.2873C38.8332 10.0711 39.3951 9.92325 39.9688 9.84734C40.4785 9.77815 40.992 9.74183 41.5063 9.73859C42.0029 9.74226 42.4988 9.77566 42.9913 9.83858C43.5573 9.90921 44.1126 10.0481 44.6451 10.2523C45.2293 10.4753 45.777 10.7841 46.2701 11.1686C46.8276 11.6131 47.2962 12.159 47.6513 12.7773C48.0947 13.5531 48.4223 14.3894 48.6238 15.2598C48.8688 16.244 48.9913 17.4194 48.9913 18.7861V31.7773C49.0103 32.9479 48.8869 34.1165 48.6238 35.2573C48.419 36.1309 48.0885 36.97 47.6426 37.7486C47.2778 38.3822 46.8029 38.9456 46.2401 39.4123C45.7473 39.8166 45.2003 40.1499 44.6151 40.4023C44.0882 40.6289 43.5352 40.7889 42.9688 40.8786C42.4839 40.957 41.9938 40.9988 41.5026 41.0036C40.9786 41.0002 40.4555 40.9585 39.9376 40.8786C39.3598 40.7892 38.7951 40.6293 38.2563 40.4023C37.6707 40.1549 37.1234 39.8249 36.6313 39.4223C36.0743 38.9607 35.608 38.3995 35.2563 37.7673C34.8216 36.9834 34.5005 36.1416 34.3026 35.2673C34.0432 34.1225 33.9203 32.951 33.9363 31.7773V18.7873ZM38.7038 33.7336C38.7038 35.0044 38.9347 35.9278 39.3963 36.5036C39.858 37.0794 40.5622 37.3673 41.5088 37.3673C42.433 37.3673 43.1226 37.0794 43.5776 36.5036C44.0326 35.9278 44.2588 35.0044 44.2563 33.7336V17.0961C44.2563 15.7536 44.0284 14.7761 43.5726 14.1636C43.1168 13.5511 42.428 13.2453 41.5063 13.2461C40.5588 13.2461 39.8547 13.5519 39.3938 14.1636C38.933 14.7753 38.7022 15.7528 38.7013 17.0961L38.7038 33.7336Z"
            fill="#882A2B" />
        <path
            d="M15.2025 43.4089H18.3463C19.0771 43.4037 19.8058 43.4876 20.5163 43.6589C21.1632 43.8111 21.7729 44.0921 22.3088 44.4851C22.8276 44.8747 23.2448 45.3837 23.525 45.9689C23.825 46.5772 23.975 47.316 23.975 48.1851C23.9893 48.8881 23.84 49.5848 23.5388 50.2201C23.2593 50.7926 22.8578 51.2969 22.3625 51.6976C21.8555 52.1041 21.2767 52.412 20.6563 52.6051C20.0017 52.8144 19.3185 52.9203 18.6313 52.9189H15.2025V43.4089ZM17.2988 50.9851H18.3813C18.8355 50.9882 19.2886 50.9383 19.7313 50.8364C20.1221 50.7508 20.4905 50.5838 20.8125 50.3464C21.1232 50.1108 21.3702 49.8015 21.5313 49.4464C21.718 49.0166 21.8076 48.551 21.7938 48.0826C21.8037 47.6626 21.7137 47.2461 21.5313 46.8676C21.3653 46.5325 21.124 46.2403 20.8263 46.0139C20.5136 45.7833 20.1604 45.6137 19.785 45.5139C19.3779 45.4015 18.9574 45.3451 18.535 45.3464H17.2988V50.9851Z"
            fill="#882A2B" />
        <path
            d="M28.5288 43.4089H30.2563L34.3938 52.9189H32.0338L31.215 50.9027H27.5213L26.7288 52.9177H24.4175L28.5288 43.4089ZM29.3338 46.1752L28.1788 49.1314H30.5063L29.3338 46.1752Z"
            fill="#882A2B" />
        <path
            d="M36.695 48.8627L33.1225 43.4089H35.7288L37.7438 46.9677L39.8812 43.4089H42.3662L38.7937 48.8627V52.9189H36.695V48.8627Z"
            fill="#882A2B" />
        <path
            d="M47.7638 45.7326C47.5836 45.5109 47.3438 45.3452 47.0726 45.2551C46.8079 45.1574 46.5285 45.1054 46.2463 45.1014C46.0881 45.1018 45.9305 45.1199 45.7763 45.1551C45.6172 45.1895 45.4636 45.2458 45.3201 45.3226C45.1814 45.3947 45.0615 45.4983 44.9701 45.6251C44.8568 45.801 44.8134 46.0129 44.8483 46.2192C44.8832 46.4255 44.994 46.6113 45.1588 46.7401C45.4088 46.9094 45.6827 47.0404 45.9713 47.1289C46.2971 47.2364 46.6484 47.3439 47.0251 47.4514C47.3955 47.5564 47.7502 47.7103 48.0801 47.9089C48.4081 48.1073 48.6861 48.3784 48.8926 48.7014C49.1076 49.0347 49.2151 49.478 49.2151 50.0314C49.2258 50.5089 49.1248 50.9823 48.9201 51.4139C48.7316 51.7976 48.458 52.1333 48.1201 52.3951C47.7717 52.6618 47.3747 52.8579 46.9513 52.9726C45.9234 53.2517 44.8357 53.2191 43.8263 52.8789C43.2769 52.6778 42.7741 52.3669 42.3488 51.9651L43.8388 50.3264C44.0516 50.6112 44.331 50.8396 44.6526 50.9914C45.1274 51.2249 45.6685 51.2867 46.1838 51.1664C46.3484 51.129 46.5068 51.068 46.6538 50.9851C46.7878 50.9084 46.9027 50.8024 46.9901 50.6751C47.076 50.5439 47.1196 50.3894 47.1151 50.2326C47.1197 50.1011 47.0921 49.9705 47.0345 49.8522C46.977 49.7338 46.8914 49.6314 46.7851 49.5539C46.5329 49.3716 46.2542 49.2291 45.9588 49.1314C45.6255 49.0139 45.2676 48.8972 44.8851 48.7814C44.5089 48.6693 44.1478 48.5114 43.8101 48.3114C43.4804 48.1162 43.1982 47.8502 42.9838 47.5326C42.7638 47.2101 42.6542 46.7847 42.6551 46.2564C42.6443 45.7904 42.7481 45.329 42.9576 44.9126C43.1525 44.5355 43.4272 44.2054 43.7626 43.9451C44.1106 43.6802 44.5048 43.4823 44.9251 43.3614C45.3653 43.2312 45.8222 43.1655 46.2813 43.1664C46.8094 43.1649 47.3347 43.242 47.8401 43.3951C48.3425 43.5482 48.8054 43.8093 49.1963 44.1601L47.7638 45.7326Z"
            fill="#882A2B" />
        <path
            d="M28.9926 22.6901L20.8076 22.7114C20.6776 22.7115 20.5488 22.6861 20.4286 22.6365C20.3085 22.5869 20.1992 22.5141 20.1072 22.4223C20.0151 22.3305 19.9421 22.2214 19.8922 22.1014C19.8423 21.9813 19.8165 21.8526 19.8163 21.7226V17.4026C19.8163 15.8551 20.0892 14.7301 20.6351 14.0276C21.1809 13.3251 21.9713 12.9751 23.0063 12.9776C23.4455 12.9675 23.8833 13.0313 24.3013 13.1664C24.6671 13.2963 24.9802 13.5426 25.1926 13.8676C25.4584 14.2923 25.6357 14.7664 25.7138 15.2614C25.84 16.0162 25.896 16.7812 25.8813 17.5464V18.9214C25.8813 19.2404 26.0077 19.5465 26.2329 19.7725C26.458 19.9986 26.7635 20.1263 27.0826 20.1276L28.6776 20.1339C28.8397 20.1349 29.0005 20.1037 29.1505 20.0422C29.3005 19.9808 29.4369 19.8902 29.5517 19.7757C29.6666 19.6612 29.7576 19.5251 29.8195 19.3752C29.8814 19.2254 29.9131 19.0648 29.9126 18.9026C29.9126 17.2864 29.9126 15.8739 29.9126 15.5839C29.9165 14.8245 29.7896 14.0702 29.5376 13.3539C29.2858 12.6462 28.8699 12.0083 28.3238 11.4926C27.7039 10.9217 26.9716 10.4866 26.1738 10.2151C25.2988 9.89761 24.2434 9.73844 23.0076 9.73761C22.4789 9.74101 21.9507 9.77105 21.4251 9.82761C20.8314 9.89307 20.2482 10.0321 19.6888 10.2414C19.0829 10.471 18.5113 10.7827 17.9901 11.1676C17.399 11.6124 16.9009 12.1687 16.5238 12.8051C16.056 13.597 15.7104 14.455 15.4988 15.3501C15.2397 16.3576 15.1105 17.5689 15.1113 18.9839V31.6089C15.1113 33.3239 15.2822 34.778 15.6238 35.9714C15.9655 37.1647 16.468 38.1339 17.1313 38.8789C17.7939 39.6199 18.6365 40.1775 19.5776 40.4976C20.654 40.8491 21.7817 41.0181 22.9138 40.9976C23.9375 41.0119 24.9563 40.8539 25.9276 40.5301C26.8082 40.2258 27.597 39.7028 28.2201 39.0101C28.8559 38.3084 29.3447 37.3939 29.6863 36.2664C30.028 35.1389 30.1988 33.7539 30.1988 32.1114V23.8901C30.1988 23.732 30.1676 23.5754 30.1069 23.4294C30.0462 23.2834 29.9572 23.1509 29.8452 23.0394C29.7331 22.9279 29.6 22.8396 29.4537 22.7797C29.3074 22.7197 29.1507 22.6893 28.9926 22.6901V22.6901ZM20.5451 37.0126L21.4201 30.2964C21.0167 30.0453 20.7046 29.6713 20.5299 29.2294C20.3551 28.7876 20.3269 28.3013 20.4493 27.8422C20.5718 27.3831 20.8385 26.9755 21.2102 26.6794C21.5818 26.3833 22.0387 26.2145 22.5135 26.1977C22.9884 26.1809 23.4561 26.317 23.8477 26.5861C24.2393 26.8552 24.5341 27.2429 24.6887 27.6922C24.8433 28.1415 24.8496 28.6286 24.7064 29.0817C24.5633 29.5348 24.2785 29.9299 23.8938 30.2089L24.8938 37.0314L20.5451 37.0126Z"
            fill="#882A2B" />
    </g>
</svg>