<svg width="64" height="64" viewBox="0 0 64 64" fill="currentColor" xmlns="http://www.w3.org/2000/svg">
    <g clip-path="url(#clip0_20_415)">
        <rect width="64" height="64" rx="32" fill="#F5BAB0" />
        <path d="M0 30L18 43L41.5 32L69.5 35L85 30V72H0V30Z" fill="#FE9D8C" />
        <g clip-path="url(#clip1_20_415)">
            <path
                d="M13.5529 20.6118V22.9647H35.9059V40.6118H28.6635C28.1388 38.5894 26.32 37.0824 24.1412 37.0824C21.9623 37.0824 20.1435 38.5894 19.6188 40.6118H18.2588V34.7294H15.9059V42.9647H19.6188C20.1435 44.9871 21.9623 46.4941 24.1412 46.4941C26.32 46.4941 28.1388 44.9871 28.6635 42.9647H38.4423C38.967 44.9871 40.7859 46.4941 42.9647 46.4941C45.1435 46.4941 46.9623 44.9871 47.487 42.9647H51.2V33.3694L51.1259 33.1847L48.7729 26.1259L48.5176 25.3177H38.2588V20.6118H13.5529ZM14.7294 25.3177V27.6706H25.3176V25.3177H14.7294ZM38.2588 27.6706H46.8247L48.847 33.7V40.6118H47.487C46.9623 38.5894 45.1435 37.0824 42.9647 37.0824C40.7859 37.0824 38.967 38.5894 38.4423 40.6118H38.2588V27.6706ZM15.9059 30.0235V32.3765H22.9647V30.0235H15.9059ZM24.1412 39.4353C25.4553 39.4353 26.4941 40.4741 26.4941 41.7882C26.4941 43.1024 25.4553 44.1412 24.1412 44.1412C22.827 44.1412 21.7882 43.1024 21.7882 41.7882C21.7882 40.4741 22.827 39.4353 24.1412 39.4353ZM42.9647 39.4353C44.2788 39.4353 45.3176 40.4741 45.3176 41.7882C45.3176 43.1024 44.2788 44.1412 42.9647 44.1412C41.6506 44.1412 40.6117 43.1024 40.6117 41.7882C40.6117 40.4741 41.6506 39.4353 42.9647 39.4353Z"
                fill="#292929" />
        </g>
    </g>
    <defs>
        <clip-path id="clip0_20_415">
            <rect width="64" height="64" rx="32" fill="white" />
        </clip-path>
        <clip-path id="clip1_20_415">
            <rect width="37.6471" height="37.6471" fill="white" transform="translate(13.5529 13.5529)" />
        </clip-path>
    </defs>
</svg>