<?xml version="1.0" encoding="utf-8"?>
<svg width="253px" height="42px" viewBox="0 0 253 42" fill="none" xmlns="http://www.w3.org/2000/svg" xmlns:xlink="http://www.w3.org/1999/xlink">
  <defs>
    <linearGradient gradientUnits="userSpaceOnUse" id="XMLID_21_" y2="141.95996" x2="269.1944" y1="141.95996" x1="89.159668" gradientTransform="matrix(-1.567692,0,0,-1.567692,385.3705,350.53)">
      <stop id="stop84" offset="0" style="stop-color:#ff0000;stop-opacity:1;"/>
      <stop style="stop-color:red;stop-opacity:1;" offset="0.14" id="stop2808"/>
      <stop id="stop114" offset="0.22" style="stop-color:#ffffff;stop-opacity:1"/>
      <stop style="stop-color:white;stop-opacity:1;" offset="0.6" id="stop2810"/>
      <stop style="stop-color:red;stop-opacity:1;" offset="0.7" id="stop2806"/>
      <stop id="stop134" offset="1" style="stop-color:#ff0000;stop-opacity:1;"/>
    </linearGradient>
    <linearGradient id="linearGradient5684" gradientUnits="userSpaceOnUse" gradientTransform="matrix(-0.195961, 0, 0, -0.195961, 267.433125, 47.694273)" x1="89.159668" y1="141.95996" x2="269.1944" y2="141.95996" xlink:href="#XMLID_21_"/>
    <linearGradient x1="87.396973" y1="141.97266" x2="240.94727" y2="141.97266" id="XMLID_22_-1" gradientUnits="userSpaceOnUse" gradientTransform="matrix(1.567692,0,0,1.567692,-129.3706,-94.56783)">
      <stop style="stop-color:#ffffff;stop-opacity:0.66666675" offset="0" id="stop139-7"/>
      <stop style="stop-color:#d7d7d7;stop-opacity:0.21875" offset="0.2407" id="stop143-4"/>
      <stop style="stop-color:#4d4d4d;stop-opacity:0" offset="0.4586" id="stop145-0"/>
      <stop style="stop-color:#ffffff;stop-opacity:0.51041669" offset="0.7189" id="stop3696"/>
      <stop style="stop-color:#f2f2f2;stop-opacity:0.40000001" offset="0.8735" id="stop2807"/>
      <stop style="stop-color:#ffffff;stop-opacity:0.62352943" offset="1" id="stop3694"/>
    </linearGradient>
    <linearGradient id="linearGradient3921" gradientUnits="userSpaceOnUse" gradientTransform="matrix(0.195961, 0, 0, 0.195961, 203.090474, -7.94296)" x1="87.396973" y1="141.97266" x2="269.33331" y2="141.97276" xlink:href="#XMLID_22_-1"/>
  </defs>
  <path d="M172.388 9.94416C174.329 9.94416 175.903 8.38966 175.903 6.47208C175.903 4.5545 174.329 3 172.388 3C170.446 3 168.872 4.5545 168.872 6.47208C168.872 8.38966 170.446 9.94416 172.388 9.94416Z" style="fill: rgb(248, 248, 248);"/>
  <path d="M74.1145 31.6643H69.2775L69.3304 29.2103C68.9339 30.3067 66.2643 32.2125 63.1454 32.2125C57.8854 32.2125 53.6299 27.6178 53.6299 21.9529C53.6299 16.2618 57.859 11.5888 63.8854 11.5888C69.8854 11.5888 74.1145 16.2618 74.1145 21.9529V31.6643V31.6643ZM63.9119 16.314C61.0837 16.314 58.7577 18.768 58.7577 22.0051C58.7577 25.1378 61.0837 27.5134 63.9119 27.5134C66.7401 27.5134 69.0132 25.0595 69.0132 22.0051C69.0132 18.8724 66.7401 16.314 63.9119 16.314Z" style="fill: rgb(248, 248, 248);"/>
  <path d="M166.097 31.6381H160.996V20.0471C160.996 18.9246 160.599 16.1835 157.031 16.314C154.969 16.3662 153.357 18.0892 153.357 20.1255V31.6381H148.255V20.0471C148.255 18.9507 147.912 16.2879 144.529 16.2879C142.255 16.2879 140.67 17.8281 140.67 20.0471V31.6381H135.568V20.3865C135.568 15.3742 139.084 11.5888 144.555 11.5888C147.278 11.5888 149.471 12.6592 150.899 14.3822C152.405 12.6592 154.652 11.5888 157.242 11.5888C162.819 11.5888 166.097 15.2176 166.097 20.3865V31.6381V31.6381Z" style="fill: rgb(248, 248, 248);"/>
  <path d="M187.639 11.6149C193.216 11.6149 196.493 15.2437 196.493 20.4126V31.6642H191.392V20.2821C191.392 19.1595 190.996 16.314 187.427 16.314C185.366 16.314 183.753 18.3241 183.753 20.3343V31.6381H178.652V20.3865C178.652 15.4003 182.194 11.6149 187.639 11.6149Z" style="fill: rgb(248, 248, 248);"/>
  <path d="M82.6255 39V29.7063C83.6035 30.7505 85.6652 32.2125 88.5463 32.2125C93.8062 32.2125 97.9824 27.5917 97.9824 21.9007C97.9824 16.2357 93.7533 11.6149 87.7533 11.6149C81.7269 11.6149 77.4978 16.2357 77.4978 21.9007V39H82.6255ZM87.7797 27.5134C84.9515 27.5134 82.6255 25.0334 82.6255 21.9007C82.6255 18.8463 84.9515 16.314 87.7797 16.314C90.6079 16.314 92.8811 18.7157 92.8811 21.9007C92.8811 25.1117 90.6079 27.5134 87.7797 27.5134Z" style="fill: rgb(248, 248, 248);"/>
  <path d="M50.9868 31.6381H45.8855V20.3082C45.8855 19.1595 45.5154 16.314 42.2114 16.314C39.9383 16.314 38.326 18.0892 38.326 20.3082V31.6381H33.2247V4.54025H38.326V13.9906C39.3304 12.4764 41.4449 11.641 43.163 11.641C48.0264 11.641 51.0132 15.1392 51.0132 20.3082V31.6381H50.9868Z" style="fill: rgb(248, 248, 248);"/>
  <path d="M210 32.0297C203.577 32.6302 199.692 29.1581 199.692 23.7803V7.09863H204.793V12.1893H210V16.8883H204.793V23.8325C204.793 26.5736 206.881 27.6178 210 27.4612V32.0297Z" style="fill: rgb(248, 248, 248);"/>
  <path d="M120.423 23.8064C120.502 23.2321 120.555 22.2922 120.555 21.9007C120.555 15.5047 115.85 11.6149 110.749 11.6149C105.093 11.6149 100.52 16.2879 100.52 21.979C100.52 27.67 105.198 32.2125 111.463 32.2125C114.396 32.2125 117.7 31.1943 119.418 29.3669L116.934 25.7382C115.877 26.7041 114.581 27.5395 111.806 27.5395C107.339 27.5395 106.07 24.7984 105.965 23.8064H120.423V23.8064ZM105.938 20.0993C106.229 18.3241 107.815 16.314 110.59 16.314C113.815 16.314 115.322 18.4808 115.507 20.1516L105.938 20.0993Z" style="fill: rgb(248, 248, 248);"/>
  <path d="M174.952 31.6382H169.85V12.1893H174.952V31.6382Z" style="fill: rgb(248, 248, 248);"/>
  <path d="M133.85 16.314C130.599 15.7397 128.432 17.4627 128.432 20.256V31.6382H123.33V20.256C123.33 14.6693 127.242 10.7796 133.85 11.5627V16.314Z" style="fill: rgb(248, 248, 248);"/>
  <path d="M21.7004 32.839C27.2775 33.0479 30.3172 29.7324 30.3172 25.19C30.3172 20.6737 25.5066 19.2379 23.1542 18.4547C20.326 17.5149 18.1586 16.9666 18.1586 15.3742C18.1586 14.095 19.3216 13.2857 21.1718 13.2857C22.9692 13.2857 25.2687 14.0428 27.489 15.4003L27.6476 15.5047L29.8943 11.5366L29.7621 11.4583C27.2775 9.83974 24.1322 8.87382 21.3304 8.87382C16.467 8.87382 13.0573 11.7977 13.0573 16.0007C13.0573 20.752 17.9471 22.24 20.2731 22.7883C23.1278 23.4409 25.2159 24.1196 25.2159 25.8687C25.2159 27.2785 23.8678 28.4793 21.7269 28.1922C18.3436 27.67 12.37 23.8847 8.06168 23.8847C4.28194 23.8847 1.53304 25.5294 0 28.5838L4.20264 30.6983C4.73128 29.628 5.57709 28.5576 7.53304 28.5576C12 28.5576 16.3084 32.6302 21.7004 32.839Z" style="fill: rgb(248, 248, 248);"/>
  <path id="path81" style="fill:#4d4d4d;fill-opacity:1" d="M 250.308 7.938 C 240.171 2.574 230.035 14.609 219.899 8.878 C 219.547 8.681 219.262 8.78 219.262 9.132 C 219.262 16.295 219.262 23.461 219.262 30.624 C 219.262 30.976 219.547 31.447 219.899 31.644 C 230.141 37.435 240.383 25.087 250.625 30.878 C 250.977 31.075 251.262 30.976 251.262 30.624 C 251.262 23.461 251.262 16.295 251.262 9.132 C 251.262 8.781 250.977 8.309 250.625 8.112 C 250.519 8.052 250.413 7.993 250.308 7.938 Z"/>
  <path id="path136" style="fill:url(#linearGradient5684)" d="M 220.216 31.177 C 220.216 30.946 222.078 32.453 224.88 32.558 C 227.682 32.853 231.425 31.746 235.187 30.63 C 238.949 29.518 242.731 28.394 245.611 28.685 C 248.491 28.792 250.469 30.314 250.625 30.236 C 250.625 29.625 250.625 9.353 250.625 8.743 C 250.47 8.844 248.511 7.308 245.651 7.193 C 242.789 6.893 239.025 8.014 235.262 9.132 C 231.499 10.249 227.735 11.365 224.873 11.061 C 222.013 10.944 220.054 9.41 219.899 9.51 C 219.899 10.121 219.899 30.393 219.899 31.003 C 220.058 31.093 220.216 31.177 220.216 31.177 Z"/>
  <path id="path151" style="fill:#ff0000;fill-opacity:1" d="M 250.308 29.748 C 247.935 28.493 245.563 28.191 243.191 28.391 C 236.531 23.326 232.438 27.138 227.343 32.22 C 224.968 32.422 222.593 32.12 220.216 30.864 C 220.216 23.911 220.216 16.96 220.216 10.008 C 222.571 11.253 224.923 11.561 227.276 11.37 C 233.139 13.947 238 12.435 243.176 7.537 C 245.552 7.334 247.93 7.635 250.308 8.892 C 250.308 15.845 250.308 22.797 250.308 29.748 Z"/>
  <polyline style="fill:none" points="219.262 35.878 219.262 3.878 251.262 3.878 251.262 35.878" id="_x3C_Slice_x3E_"/>
  <path style="fill:#ffffff" d="M 243.216 7.532 C 237.914 7.968 232.614 10.922 227.312 11.362 L 227.312 32.212 C 232.613 31.771 237.911 28.834 243.212 28.394 Z M 227.312 32.212 C 227.016 32.236 226.725 32.254 226.429 32.261 C 226.722 32.254 227.019 32.236 227.312 32.212 Z" id="path3797"/>
  <path d="M 235.262 12.728 L 236.381 14.562 C 236.507 14.759 236.734 14.649 236.962 14.424 L 237.771 13.657 L 237.168 17.368 C 237.04 18.053 237.448 17.897 237.648 17.545 L 239.06 15.283 L 239.29 16.067 C 239.316 16.172 239.433 16.247 239.607 16.151 L 241.393 15.056 L 240.925 17.088 C 240.823 17.539 240.745 17.741 241.026 17.741 L 241.662 17.822 L 238.587 21.719 C 238.466 21.868 238.405 22.076 238.448 22.227 L 238.717 23.082 C 237.658 23.358 236.709 23.604 235.652 23.879 C 235.557 23.914 235.496 23.993 235.496 24.112 L 235.685 27.583 L 234.839 27.909 L 235.028 24.291 C 235.028 24.174 234.967 24.141 234.874 24.179 C 233.815 24.718 232.866 25.203 231.807 25.742 L 232.076 24.679 C 232.119 24.496 232.058 24.334 231.937 24.279 L 228.862 22.75 L 229.499 22.179 C 229.779 21.964 229.701 21.823 229.599 21.449 L 229.131 19.776 L 230.917 19.497 C 231.091 19.459 231.208 19.294 231.234 19.168 L 231.464 18.208 L 232.876 19.383 C 233.076 19.58 233.484 19.423 233.356 18.836 L 232.753 15.59 L 233.563 15.733 C 233.79 15.783 234.017 15.718 234.143 15.423" style="fill:#ff0000;fill-opacity:1;stroke:none" id="maple leaf"/>
  <path id="path4562" style="fill:url(#linearGradient3921)" d="M 250.308 29.748 C 240.278 24.441 230.246 36.17 220.216 30.864 C 220.216 23.911 220.216 16.96 220.216 10.008 C 230.246 15.315 240.278 3.586 250.308 8.892 C 250.308 15.845 250.308 22.797 250.308 29.748 Z"/>
</svg>