<svg width="210" height="42" viewBox="0 0 210 42" fill="none" xmlns="http://www.w3.org/2000/svg">
<path d="M172.388 9.94416C174.329 9.94416 175.903 8.38966 175.903 6.47208C175.903 4.5545 174.329 3 172.388 3C170.446 3 168.872 4.5545 168.872 6.47208C168.872 8.38966 170.446 9.94416 172.388 9.94416Z" fill="#292929"/>
<path d="M74.1145 31.6643H69.2775L69.3304 29.2103C68.9339 30.3067 66.2643 32.2125 63.1454 32.2125C57.8854 32.2125 53.6299 27.6178 53.6299 21.9529C53.6299 16.2618 57.859 11.5888 63.8854 11.5888C69.8854 11.5888 74.1145 16.2618 74.1145 21.9529V31.6643V31.6643ZM63.9119 16.314C61.0837 16.314 58.7577 18.768 58.7577 22.0051C58.7577 25.1378 61.0837 27.5134 63.9119 27.5134C66.7401 27.5134 69.0132 25.0595 69.0132 22.0051C69.0132 18.8724 66.7401 16.314 63.9119 16.314Z" fill="#292929"/>
<path d="M166.097 31.6381H160.996V20.0471C160.996 18.9246 160.599 16.1835 157.031 16.314C154.969 16.3662 153.357 18.0892 153.357 20.1255V31.6381H148.255V20.0471C148.255 18.9507 147.912 16.2879 144.529 16.2879C142.255 16.2879 140.67 17.8281 140.67 20.0471V31.6381H135.568V20.3865C135.568 15.3742 139.084 11.5888 144.555 11.5888C147.278 11.5888 149.471 12.6592 150.899 14.3822C152.405 12.6592 154.652 11.5888 157.242 11.5888C162.819 11.5888 166.097 15.2176 166.097 20.3865V31.6381V31.6381Z" fill="#292929"/>
<path d="M187.639 11.6149C193.216 11.6149 196.493 15.2437 196.493 20.4126V31.6642H191.392V20.2821C191.392 19.1595 190.996 16.314 187.427 16.314C185.366 16.314 183.753 18.3241 183.753 20.3343V31.6381H178.652V20.3865C178.652 15.4003 182.194 11.6149 187.639 11.6149Z" fill="#292929"/>
<path d="M82.6255 39V29.7063C83.6035 30.7505 85.6652 32.2125 88.5463 32.2125C93.8062 32.2125 97.9824 27.5917 97.9824 21.9007C97.9824 16.2357 93.7533 11.6149 87.7533 11.6149C81.7269 11.6149 77.4978 16.2357 77.4978 21.9007V39H82.6255ZM87.7797 27.5134C84.9515 27.5134 82.6255 25.0334 82.6255 21.9007C82.6255 18.8463 84.9515 16.314 87.7797 16.314C90.6079 16.314 92.8811 18.7157 92.8811 21.9007C92.8811 25.1117 90.6079 27.5134 87.7797 27.5134Z" fill="#292929"/>
<path d="M50.9868 31.6381H45.8855V20.3082C45.8855 19.1595 45.5154 16.314 42.2114 16.314C39.9383 16.314 38.326 18.0892 38.326 20.3082V31.6381H33.2247V4.54025H38.326V13.9906C39.3304 12.4764 41.4449 11.641 43.163 11.641C48.0264 11.641 51.0132 15.1392 51.0132 20.3082V31.6381H50.9868Z" fill="#292929"/>
<path d="M210 32.0297C203.577 32.6302 199.692 29.1581 199.692 23.7803V7.09863H204.793V12.1893H210V16.8883H204.793V23.8325C204.793 26.5736 206.881 27.6178 210 27.4612V32.0297Z" fill="#292929"/>
<path d="M120.423 23.8064C120.502 23.2321 120.555 22.2922 120.555 21.9007C120.555 15.5047 115.85 11.6149 110.749 11.6149C105.093 11.6149 100.52 16.2879 100.52 21.979C100.52 27.67 105.198 32.2125 111.463 32.2125C114.396 32.2125 117.7 31.1943 119.418 29.3669L116.934 25.7382C115.877 26.7041 114.581 27.5395 111.806 27.5395C107.339 27.5395 106.07 24.7984 105.965 23.8064H120.423V23.8064ZM105.938 20.0993C106.229 18.3241 107.815 16.314 110.59 16.314C113.815 16.314 115.322 18.4808 115.507 20.1516L105.938 20.0993Z" fill="#292929"/>
<path d="M174.952 31.6382H169.85V12.1893H174.952V31.6382Z" fill="#292929"/>
<path d="M133.85 16.314C130.599 15.7397 128.432 17.4627 128.432 20.256V31.6382H123.33V20.256C123.33 14.6693 127.242 10.7796 133.85 11.5627V16.314Z" fill="#292929"/>
<path d="M21.7004 32.839C27.2775 33.0479 30.3172 29.7324 30.3172 25.19C30.3172 20.6737 25.5066 19.2379 23.1542 18.4547C20.326 17.5149 18.1586 16.9666 18.1586 15.3742C18.1586 14.095 19.3216 13.2857 21.1718 13.2857C22.9692 13.2857 25.2687 14.0428 27.489 15.4003L27.6476 15.5047L29.8943 11.5366L29.7621 11.4583C27.2775 9.83974 24.1322 8.87382 21.3304 8.87382C16.467 8.87382 13.0573 11.7977 13.0573 16.0007C13.0573 20.752 17.9471 22.24 20.2731 22.7883C23.1278 23.4409 25.2159 24.1196 25.2159 25.8687C25.2159 27.2785 23.8678 28.4793 21.7269 28.1922C18.3436 27.67 12.37 23.8847 8.06168 23.8847C4.28194 23.8847 1.53304 25.5294 0 28.5838L4.20264 30.6983C4.73128 29.628 5.57709 28.5576 7.53304 28.5576C12 28.5576 16.3084 32.6302 21.7004 32.839Z" fill="#292929"/>
</svg>
