<svg width="24" height="25" viewBox="0 0 24 25" fill="none" xmlns="http://www.w3.org/2000/svg">
<g id="Mid / Social Media / Pinterest">
<path id="Icon" d="M23 12.0334C23 18.1101 18.0766 23.0334 12 23.0334C10.8645 23.0334 9.77339 22.8605 8.74435 22.5411C9.19234 21.8093 9.8621 20.6117 10.1105 19.658C10.2435 19.1435 10.7935 17.0411 10.7935 17.0411C11.1528 17.7242 12.1996 18.3052 13.3129 18.3052C16.6306 18.3052 19.0214 15.2536 19.0214 11.4613C19.0214 7.82861 16.054 5.10966 12.2395 5.10966C7.49355 5.10966 4.96976 8.29433 4.96976 11.7673C4.96976 13.3818 5.83024 15.3911 7.20081 16.0298C7.40927 16.1274 7.52016 16.083 7.56895 15.8834C7.60444 15.7326 7.79073 14.983 7.875 14.6371C7.90161 14.5262 7.88831 14.4286 7.7996 14.3222C7.35161 13.7677 6.9879 12.7564 6.9879 11.8117C6.9879 9.38546 8.82419 7.03909 11.9556 7.03909C14.6569 7.03909 16.5508 8.87982 16.5508 11.5145C16.5508 14.4907 15.0472 16.5532 13.0911 16.5532C12.0133 16.5532 11.2016 15.6617 11.4633 14.5661C11.7738 13.2576 12.3726 11.8472 12.3726 10.9024C12.3726 10.0597 11.9202 9.35441 10.9798 9.35441C9.8754 9.35441 8.98831 10.4943 8.98831 12.0246C8.98831 13.0004 9.31653 13.6568 9.31653 13.6568C9.31653 13.6568 8.22984 18.2609 8.03024 19.1213C7.80847 20.0705 7.89718 21.4101 7.99032 22.2794C3.90081 20.6782 1 16.6951 1 12.0334C1 5.95683 5.92339 1.03345 12 1.03345C18.0766 1.03345 23 5.95683 23 12.0334Z" fill="#311C85"/>
</g>
</svg>
