<svg width="24" height="25" viewBox="0 0 24 25" fill="none" xmlns="http://www.w3.org/2000/svg">
<g id="Mid / Social Media / Youtube">
<path id="Icon" d="M23.4985 6.53691C23.2225 5.55149 22.4092 4.77541 21.3766 4.51203C19.505 4.03345 12 4.03345 12 4.03345C12 4.03345 4.49503 4.03345 2.62336 4.51203C1.59077 4.77545 0.777523 5.55149 0.501503 6.53691C0 8.32303 0 12.0496 0 12.0496C0 12.0496 0 15.7762 0.501503 17.5623C0.777523 18.5477 1.59077 19.2915 2.62336 19.5549C4.49503 20.0334 12 20.0334 12 20.0334C12 20.0334 19.505 20.0334 21.3766 19.5549C22.4092 19.2915 23.2225 18.5477 23.4985 17.5623C24 15.7762 24 12.0496 24 12.0496C24 12.0496 24 8.32303 23.4985 6.53691ZM9.54544 15.4331V8.66616L15.8181 12.0497L9.54544 15.4331Z" fill="#311C85"/>
</g>
</svg>
