<svg xmlns="http://www.w3.org/2000/svg" width="100%" height="100%" fill="currentColor">
    <title>Frowning</title>
    <path
        d="M59.5014 59.5068C72.8311 46.177 72.8312 24.5652 59.5014 11.2354C46.1716 -2.09437 24.5598 -2.09436 11.23 11.2354C-2.09976 24.5652 -2.09976 46.177 11.23 59.5068C24.5598 72.8366 46.1716 72.8365 59.5014 59.5068Z"
        stroke="#292929" strokeWidth="1.5" strokeLinecap="round" strokeLinejoin="round" />
    <path
        d="M16.9707 27.4261C16.9707 26.8293 17.1477 26.2459 17.4794 25.7497C17.8111 25.2536 18.2826 24.867 18.8341 24.6388C19.3856 24.4107 19.9924 24.3513 20.5776 24.4682C21.1629 24.585 21.7004 24.8729 22.122 25.2953C22.5436 25.7177 22.8304 26.2558 22.9461 26.8412C23.0619 27.4267 23.0013 28.0334 22.7721 28.5845C22.5429 29.1355 22.1554 29.6062 21.6586 29.937C21.1618 30.2677 20.578 30.4436 19.9812 30.4425C19.5854 30.4425 19.1934 30.3644 18.8278 30.2128C18.4622 30.0611 18.13 29.8388 17.8504 29.5587C17.5708 29.2785 17.3491 28.9459 17.1982 28.58C17.0472 28.2141 16.9699 27.822 16.9707 27.4261Z"
        fill="#292929" />
    <path
        d="M47.7387 27.4261C47.7387 26.8293 47.9157 26.2459 48.2474 25.7497C48.5791 25.2536 49.0506 24.867 49.6021 24.6388C50.1536 24.4107 50.7604 24.3513 51.3456 24.4682C51.9309 24.585 52.4684 24.8729 52.89 25.2953C53.3116 25.7177 53.5984 26.2558 53.7141 26.8412C53.8299 27.4267 53.7693 28.0334 53.5401 28.5845C53.3109 29.1355 52.9234 29.6062 52.4266 29.937C51.9298 30.2677 51.346 30.4436 50.7492 30.4425C50.3534 30.4425 49.9614 30.3644 49.5958 30.2128C49.2302 30.0611 48.898 29.8388 48.6184 29.5587C48.3388 29.2785 48.1171 28.9459 47.9662 28.58C47.8152 28.2141 47.7379 27.822 47.7387 27.4261Z"
        fill="#292929" />
    <path
        d="M18.8362 49.3369C20.2332 46.1126 22.5424 43.3673 25.4797 41.4387C28.4171 39.5102 31.8542 38.4827 35.3681 38.4827C38.8819 38.4827 42.319 39.5102 45.2564 41.4387C48.1937 43.3673 50.5029 46.1126 51.8999 49.3369"
        stroke="#292929" strokeWidth="1.5" strokeLinecap="round" strokeLinejoin="round" />
</svg>