<svg xmlns="http://www.w3.org/2000/svg" width="100%" height="100%" viewBox="0 0 70 70" fill="none"
  id="grinning_with_sweat">
  <title>Grinning With Sweat</title>
  <path
    d="M64.3431 17.3426C68.8555 24.5868 70.4904 33.2586 68.9253 41.6486C67.3602 50.0385 62.7088 57.5377 55.8881 62.6678C49.0673 67.7979 40.5721 70.1867 32.0773 69.3631C23.5824 68.5395 15.7044 64.5634 9.9961 58.2186C4.28785 51.8738 1.16363 43.6206 1.23941 35.0863C1.31518 26.552 4.58545 18.3557 10.4055 12.1132C16.2255 5.87075 24.1729 2.03514 32.6811 1.36251C41.1892 0.689893 49.6406 3.22908 56.3692 8.47948"
    stroke="#292929" strokeWidth="1.5" strokeLinecap="round" strokeLinejoin="round" />
  <path
    d="M53.7249 41.084C52.5045 44.9971 50.0654 48.4178 46.7636 50.8468C43.4618 53.2758 39.4701 54.5859 35.371 54.5859C31.272 54.5859 27.2803 53.2758 23.9784 50.8468C20.6766 48.4178 18.2375 44.9971 17.0172 41.084H53.7249Z"
    stroke="#292929" strokeWidth="1.5" strokeLinecap="round" strokeLinejoin="round" />
  <path
    d="M16.2965 29.1639C16.6563 28.5415 17.1686 28.0209 17.7851 27.6512C18.4016 27.2814 19.1021 27.0745 19.8205 27.0501C20.539 27.0257 21.2519 27.1845 21.8921 27.5116C22.5323 27.8387 23.0787 28.3233 23.4799 28.9198"
    stroke="#292929" strokeWidth="1.5" strokeLinecap="round" strokeLinejoin="round" />
  <path
    d="M54.463 29.1639C54.1032 28.5415 53.5909 28.0209 52.9744 27.6512C52.3579 27.2814 51.6574 27.0745 50.9389 27.0501C50.2205 27.0257 49.5075 27.1845 48.8674 27.5116C48.2272 27.8387 47.6808 28.3233 47.2795 28.9198"
    stroke="#292929" strokeWidth="1.5" strokeLinecap="round" strokeLinejoin="round" />
  <path
    d="M63.9189 11.3389L59.374 2.80713L54.8291 11.3389C54.091 12.6989 53.7248 13.4312 53.7248 14.6866C53.7248 16.1848 54.32 17.6217 55.3794 18.6811C56.4389 19.7405 57.8757 20.3357 59.374 20.3357C60.8722 20.3357 62.3091 19.7405 63.3685 18.6811C64.4279 17.6217 65.0231 16.1848 65.0231 14.6866C65.0231 13.4312 64.7325 12.9023 63.9189 11.3389Z"
    stroke="#292929" strokeWidth="1.5" strokeLinecap="round" strokeLinejoin="round" />
</svg>