<svg xmlns="http://www.w3.org/2000/svg" width="100%" height="100%" viewBox="0 0 70 70" fill="none" id="relieved">
  <title>Relieved</title>
  <path
    d="M69.0624 40.8658C72.0828 22.2582 59.4469 4.72517 40.8393 1.70473C22.2318 -1.31571 4.69878 11.3202 1.67834 29.9278C-1.3421 48.5354 11.2938 66.0684 29.9014 69.0888C48.509 72.1092 66.0419 59.4733 69.0624 40.8658Z"
    stroke="#292929" strokeWidth="1.5" strokeLinecap="round" strokeLinejoin="round" />
  <path
    d="M53.7249 41.0782C52.5045 44.9913 50.0655 48.4121 46.7636 50.841C43.4618 53.27 39.4701 54.5801 35.371 54.5801C31.272 54.5801 27.2803 53.27 23.9785 50.841C20.6766 48.4121 18.2375 44.9913 17.0172 41.0782"
    stroke="#292929" strokeWidth="1.5" strokeLinecap="round" strokeLinejoin="round" />
  <path
    d="M16.2965 27.1472C16.6569 27.7686 17.1692 28.2883 17.7853 28.6577C18.4014 29.027 19.1012 29.2339 19.8191 29.2588C20.537 29.2838 21.2495 29.1261 21.8898 28.8005C22.5301 28.4748 23.0773 27.992 23.48 27.3971"
    stroke="#292929" strokeWidth="1.5" strokeLinecap="round" strokeLinejoin="round" />
  <path
    d="M54.4455 27.1472C54.0851 27.7686 53.5728 28.2883 52.9567 28.6577C52.3406 29.027 51.6408 29.2339 50.9229 29.2588C50.205 29.2838 49.4925 29.1261 48.8522 28.8005C48.2119 28.4748 47.6647 27.992 47.262 27.3971"
    stroke="#292929" strokeWidth="1.5" strokeLinecap="round" strokeLinejoin="round" />
</svg>