<svg xmlns="http://www.w3.org/2000/svg" width="100%" height="100%" viewBox="0 0 70 70" fill="none" id="smiling_v2">
  <title>Smiling V2</title>
  <path
    d="M68.5789 43.2059C72.9092 24.8588 61.5464 6.47522 43.1993 2.14492C24.8523 -2.18538 6.46866 9.17743 2.13837 27.5245C-2.19193 45.8715 9.17089 64.2551 27.5179 68.5854C45.865 72.9157 64.2486 61.5529 68.5789 43.2059Z"
    stroke="#292929" strokeWidth="1.5" strokeLinecap="round" strokeLinejoin="round" />
  <path
    d="M16.9706 27.4261C16.9706 26.8296 17.1475 26.2464 17.479 25.7503C17.8104 25.2543 18.2815 24.8677 18.8327 24.6394C19.3838 24.4111 19.9903 24.3514 20.5755 24.4678C21.1606 24.5841 21.698 24.8714 22.1199 25.2933C22.5417 25.7151 22.829 26.2526 22.9454 26.8377C23.0618 27.4228 23.002 28.0293 22.7737 28.5805C22.5454 29.1316 22.1588 29.6027 21.6628 29.9341C21.1667 30.2656 20.5836 30.4425 19.987 30.4425C19.187 30.4425 18.4198 30.1247 17.8541 29.559C17.2884 28.9934 16.9706 28.2261 16.9706 27.4261Z"
    fill="#292929" />
  <path
    d="M47.7386 27.4261C47.7386 26.8296 47.9155 26.2464 48.247 25.7503C48.5784 25.2543 49.0495 24.8677 49.6007 24.6394C50.1518 24.4111 50.7583 24.3514 51.3435 24.4678C51.9286 24.5841 52.466 24.8714 52.8879 25.2933C53.3097 25.7151 53.597 26.2526 53.7134 26.8377C53.8298 27.4228 53.77 28.0293 53.5417 28.5805C53.3134 29.1316 52.9268 29.6027 52.4308 29.9341C51.9347 30.2656 51.3516 30.4425 50.755 30.4425C49.955 30.4425 49.1878 30.1247 48.6221 29.559C48.0564 28.9934 47.7386 28.2261 47.7386 27.4261V27.4261Z"
    fill="#292929" />
  <path
    d="M53.7248 41.084C52.5044 44.9972 50.0653 48.4179 46.7635 50.8469C43.4617 53.2758 39.47 54.5859 35.3709 54.5859C31.2719 54.5859 27.2802 53.2758 23.9783 50.8469C20.6765 48.4179 18.2374 44.9972 17.0171 41.084"
    stroke="#292929" strokeWidth="1.5" strokeLinecap="round" strokeLinejoin="round" />
</svg>