<svg width="14" height="13" viewBox="0 0 14 13" fill="none" xmlns="http://www.w3.org/2000/svg">
<path d="M13.283 4.35475L9.45993 3.81367L7.75148 0.452207C7.5979 0.151836 7.29832 0 6.99873 0C6.70097 0 6.40348 0.149805 6.24937 0.452207L4.5404 3.81342L0.717086 4.35398C0.0314592 4.45047 -0.243314 5.27033 0.253733 5.74006L3.01948 8.35529L2.36494 12.0491C2.27196 12.5767 2.70527 13 3.19056 13C3.31933 13 3.45176 12.9703 3.57896 12.9048L6.99925 11.161L10.4193 12.9053C10.5462 12.97 10.6784 12.9995 10.8066 12.9995C11.2924 12.9995 11.7265 12.5778 11.6336 12.0499L10.9798 8.3558L13.7461 5.74107C14.2434 5.27135 13.9686 4.45123 13.283 4.35475ZM10.1032 7.48287L9.62997 7.93025L9.74176 8.56197L10.2516 11.4425L7.58406 10.0819L6.99951 9.78377L7.0003 1.73012L8.33315 4.35271L8.62517 4.9273L9.27841 5.01973L12.262 5.44197L10.1032 7.48287Z" fill="#F7A08B"/>
</svg>
