<svg width="40" height="36" viewBox="0 0 40 36" fill="none" xmlns="http://www.w3.org/2000/svg">
<g clip-path="url(#clip0_305_7)">
<path fill-rule="evenodd" clip-rule="evenodd" d="M4.19352 12.0226C4.09125 12.3422 4.25219 12.6886 4.55404 12.797C4.85553 12.9054 5.18231 12.7345 5.28459 12.4149C8.03941 3.80479 16.8879 -0.823911 25.0099 2.09633C31.5085 4.4329 35.7671 10.9783 35.5658 18.1813L33.3723 15.8169C33.149 15.576 32.7848 15.5728 32.558 15.8097C32.4445 15.9277 32.3867 16.0834 32.3855 16.24C32.3842 16.3962 32.4396 16.5528 32.5512 16.6729L35.7464 20.1171C35.8601 20.2397 36.0104 20.3007 36.1604 20.2998C36.3109 20.3038 36.4627 20.2455 36.5787 20.1244L39.8276 16.7372C40.0548 16.5007 40.0578 16.1145 39.8345 15.8739C39.7232 15.7537 39.5763 15.6925 39.4285 15.6912C39.2812 15.6899 39.1333 15.7485 39.0201 15.8667L36.7164 18.2685C36.9536 10.5107 32.3754 3.45497 25.38 0.93977C16.6566 -2.19672 7.15222 2.77518 4.19352 12.0226ZM3.12556 17.7495C2.89603 25.5 7.47262 32.547 14.4627 35.0604C23.1857 38.1967 32.6905 33.2247 35.6491 23.9776C35.7515 23.6575 35.5902 23.3114 35.2887 23.203C34.9869 23.0944 34.6605 23.2652 34.5581 23.5852C31.8034 32.1949 22.9545 36.8239 14.8327 33.9037C8.24232 31.534 3.95594 24.8361 4.28787 17.5136L6.62813 20.0364C6.85121 20.2771 7.21544 20.2804 7.4424 20.0434C7.55588 19.9255 7.61361 19.7698 7.6148 19.6133C7.61604 19.4571 7.5608 19.3002 7.44925 19.1802L4.25391 15.736C4.13884 15.6118 3.98622 15.5508 3.83426 15.5533C3.68552 15.5508 3.53594 15.6092 3.42134 15.7288L0.172461 19.1162C-0.0548373 19.3527 -0.057788 19.7388 0.165576 19.9792C0.276925 20.0995 0.423682 20.1608 0.571503 20.1621C0.718886 20.1634 0.866651 20.1048 0.979856 19.9865L3.12556 17.7495Z" fill="#18444C"/>
<path d="M10.919 11.408C10.9723 10.3413 11.3456 9.51996 12.039 8.94396C12.743 8.35729 13.6656 8.06396 14.807 8.06396C15.5856 8.06396 16.2523 8.20263 16.807 8.47996C17.3616 8.74663 17.7776 9.11463 18.055 9.58396C18.343 10.0427 18.487 10.5653 18.487 11.152C18.487 11.824 18.311 12.3947 17.959 12.864C17.6176 13.3227 17.207 13.632 16.727 13.792V13.856C17.3456 14.048 17.8256 14.3893 18.167 14.88C18.519 15.3707 18.695 16 18.695 16.768C18.695 17.408 18.5456 17.9787 18.247 18.48C17.959 18.9813 17.527 19.376 16.951 19.664C16.3856 19.9413 15.703 20.08 14.903 20.08C13.6976 20.08 12.7163 19.776 11.959 19.168C11.2016 18.56 10.8016 17.664 10.759 16.48H12.935C12.9563 17.0027 13.1323 17.424 13.463 17.744C13.8043 18.0533 14.2683 18.208 14.855 18.208C15.399 18.208 15.815 18.0587 16.103 17.76C16.4016 17.4507 16.551 17.056 16.551 16.576C16.551 15.936 16.3483 15.4773 15.943 15.2C15.5376 14.9227 14.9083 14.784 14.055 14.784H13.591V12.944H14.055C15.5696 12.944 16.327 12.4373 16.327 11.424C16.327 10.9653 16.1883 10.608 15.911 10.352C15.6443 10.096 15.255 9.96797 14.743 9.96797C14.2416 9.96797 13.8523 10.1067 13.575 10.384C13.3083 10.6507 13.1536 10.992 13.111 11.408H10.919ZM20.4651 14.016C20.4651 12.1707 20.7958 10.7253 21.4571 9.67997C22.1291 8.63463 23.2384 8.11197 24.7851 8.11197C26.3318 8.11197 27.4358 8.63463 28.0971 9.67997C28.7691 10.7253 29.1051 12.1707 29.1051 14.016C29.1051 15.872 28.7691 17.328 28.0971 18.384C27.4358 19.44 26.3318 19.968 24.7851 19.968C23.2384 19.968 22.1291 19.44 21.4571 18.384C20.7958 17.328 20.4651 15.872 20.4651 14.016ZM26.8971 14.016C26.8971 13.2267 26.8438 12.5653 26.7371 12.032C26.6411 11.488 26.4384 11.0453 26.1291 10.704C25.8304 10.3627 25.3824 10.192 24.7851 10.192C24.1878 10.192 23.7344 10.3627 23.4251 10.704C23.1264 11.0453 22.9238 11.488 22.8171 12.032C22.7211 12.5653 22.6731 13.2267 22.6731 14.016C22.6731 14.8267 22.7211 15.5093 22.8171 16.064C22.9131 16.608 23.1158 17.0507 23.4251 17.392C23.7344 17.7227 24.1878 17.888 24.7851 17.888C25.3824 17.888 25.8358 17.7227 26.1451 17.392C26.4544 17.0507 26.6571 16.608 26.7531 16.064C26.8491 15.5093 26.8971 14.8267 26.8971 14.016Z" fill="#18444C"/>
<path d="M13.5095 22.718C14.1695 22.718 14.7485 22.847 15.2465 23.105C15.7505 23.363 16.1375 23.732 16.4075 24.212C16.6835 24.686 16.8215 25.238 16.8215 25.868C16.8215 26.498 16.6835 27.05 16.4075 27.524C16.1375 27.992 15.7505 28.355 15.2465 28.613C14.7485 28.871 14.1695 29 13.5095 29H11.3135V22.718H13.5095ZM13.4645 27.929C14.1245 27.929 14.6345 27.749 14.9945 27.389C15.3545 27.029 15.5345 26.522 15.5345 25.868C15.5345 25.214 15.3545 24.704 14.9945 24.338C14.6345 23.966 14.1245 23.78 13.4645 23.78H12.5735V27.929H13.4645ZM21.6167 27.803H19.1147L18.7007 29H17.3777L19.6367 22.709H21.1037L23.3627 29H22.0307L21.6167 27.803ZM21.2747 26.795L20.3657 24.167L19.4567 26.795H21.2747ZM29.202 22.718L27.078 26.813V29H25.818V26.813L23.685 22.718H25.107L26.457 25.589L27.798 22.718H29.202Z" fill="#18444C"/>
</g>
<defs>
<clipPath id="clip0_305_7">
<rect width="40" height="36" fill="white"/>
</clipPath>
</defs>
</svg>
