<svg width="127" height="17" viewBox="0 0 127 17" fill="none" xmlns="http://www.w3.org/2000/svg">
<path d="M76.1892 3.14012C77.0402 3.14012 77.73 2.45052 77.73 1.59985C77.73 0.749175 77.0402 0.0595703 76.1892 0.0595703C75.3383 0.0595703 74.6484 0.749175 74.6484 1.59985C74.6484 2.45052 75.3383 3.14012 76.1892 3.14012Z" fill="white"/>
<path d="M33.0461 12.7904H30.9236L30.9393 11.7059C30.7663 12.1931 29.6029 13.0418 28.2193 13.0418C25.9081 13.0418 24.0371 10.9986 24.0371 8.48389C24.0371 5.95344 25.8924 3.87878 28.5495 3.87878C31.1908 3.87878 33.0304 5.95344 33.0304 8.48389V12.7904H33.0461ZM28.5495 5.96916C27.3074 5.96916 26.2854 7.05364 26.2854 8.49961C26.2854 9.89843 27.3074 10.9515 28.5495 10.9515C29.7915 10.9515 30.7978 9.867 30.7978 8.49961C30.7978 7.1165 29.7915 5.96916 28.5495 5.96916Z" fill="white"/>
<path d="M73.423 12.7904H71.1747V7.63517C71.1747 7.13222 71.0017 5.92201 69.4295 5.96916C68.5333 6.00059 67.8258 6.75501 67.8258 7.65089V12.7904H65.5932V7.63517C65.5932 7.14794 65.436 5.96916 63.9581 5.96916C62.9518 5.96916 62.26 6.64499 62.26 7.63517V12.7904H60.0117V7.79234C60.0117 5.56051 61.5525 3.87878 63.9581 3.87878C65.153 3.87878 66.112 4.3503 66.7409 5.12043C67.4013 4.3503 68.3918 3.87878 69.5238 3.87878C71.9765 3.87878 73.423 5.49765 73.423 7.79234V12.7904Z" fill="white"/>
<path d="M82.8721 3.89441C85.3248 3.89441 86.7713 5.49755 86.7713 7.79225V12.7903H84.523V7.7451C84.523 7.24215 84.35 5.98478 82.7778 5.98478C81.8816 5.98478 81.1741 6.88066 81.1741 7.77653V12.806H78.9258V7.79225C78.9415 5.56042 80.498 3.89441 82.8721 3.89441Z" fill="white"/>
<path d="M36.7737 16.0595V11.9259C37.1982 12.3817 38.1101 13.0418 39.3679 13.0418C41.6791 13.0418 43.5187 10.9829 43.5187 8.45246C43.5187 5.93772 41.6634 3.87878 39.0377 3.87878C36.3806 3.87878 34.5254 5.93772 34.5254 8.45246V16.0438L36.7737 16.0595ZM39.0377 10.9515C37.7957 10.9515 36.7737 9.85128 36.7737 8.45246C36.7737 7.10079 37.7957 5.96916 39.0377 5.96916C40.2798 5.96916 41.2861 7.03792 41.2861 8.45246C41.2861 9.88271 40.2798 10.9515 39.0377 10.9515Z" fill="white"/>
<path d="M22.8902 12.7904H20.6419V7.76089C20.6419 7.25795 20.4847 5.98486 19.0225 5.98486C18.0163 5.98486 17.3245 6.77072 17.3245 7.76089V12.7904H15.0762V0.735352H17.3245V4.93182C17.7647 4.25598 18.6923 3.89449 19.447 3.89449C21.5853 3.89449 22.8902 5.45048 22.8902 7.74517V12.7904Z" fill="white"/>
<path d="M92.698 12.9632C89.8837 13.2304 88.1699 11.6902 88.1699 9.28544V1.88269H90.4182V4.14595H92.698V6.23632H90.4182V9.31687C90.4182 10.5428 91.3302 10.9986 92.698 10.9357V12.9632Z" fill="white"/>
<path d="M53.3764 9.30118C53.4078 9.04971 53.4393 8.62535 53.4393 8.45246C53.4393 5.60766 51.3639 3.87878 49.1313 3.87878C46.6471 3.87878 44.6504 5.95344 44.6504 8.48389C44.6504 11.0143 46.71 13.0261 49.4615 13.0261C50.7507 13.0261 52.1972 12.5703 52.9676 11.7688L51.867 10.1499C51.4111 10.5743 50.8293 10.9515 49.6187 10.9515C47.6534 10.9515 47.1031 9.74126 47.0559 9.28546H53.3764V9.30118ZM47.0088 7.65089C47.1345 6.86503 47.8263 5.96916 49.0527 5.96916C50.4677 5.96916 51.1281 6.9279 51.2067 7.6666L47.0088 7.65089Z" fill="white"/>
<path d="M77.3068 12.7904H76.1905H75.0742V8.4682V4.146H76.1905H77.3068V8.4682V12.7904Z" fill="white"/>
<path d="M59.2728 5.96921C57.8421 5.71774 56.8987 6.47216 56.8987 7.71381V12.7904H54.6504V7.72953C54.6504 5.24623 56.3641 3.51735 59.2728 3.87884V5.96921Z" fill="white"/>
<path d="M10.0278 13.3091C12.4805 13.4034 13.8169 11.9259 13.8169 9.91416C13.8169 7.90237 11.7101 7.27369 10.6724 6.92791C9.43037 6.50355 8.4713 6.26779 8.4713 5.56052C8.4713 4.99471 8.97442 4.63322 9.79199 4.63322C10.5781 4.63322 11.5844 4.97899 12.5591 5.57624L12.622 5.62339L13.5968 3.86308L13.5497 3.81593C12.4648 3.09294 11.0812 2.66858 9.83916 2.66858C7.7009 2.66858 6.20726 3.9731 6.20726 5.82771C6.20726 7.94952 8.34552 8.59392 9.3832 8.8454C10.641 9.14402 11.5529 9.44265 11.5529 10.2128C11.5529 10.8415 10.9712 11.3758 10.0278 11.2344C8.54991 11.0301 5.93998 9.34834 4.03756 9.34834C2.3867 9.34834 1.17607 10.0713 0.5 11.423L2.33953 12.366C2.55965 11.8945 2.93699 11.423 3.80172 11.423C5.76703 11.423 7.66945 13.2305 10.0278 13.3091Z" fill="white"/>
<path d="M99.2055 12.9948C96.5956 12.9948 94.7246 10.983 94.7246 8.46824C94.7246 5.9535 96.5956 3.91028 99.2055 3.91028C101.297 3.91028 102.869 5.08906 103.372 7.03798H100.998C100.699 6.45645 100.007 5.93778 99.1898 5.93778C97.9634 5.93778 96.9729 7.08513 96.9729 8.48395C96.9729 9.85134 97.9634 10.9673 99.1898 10.9673C100.007 10.9673 100.715 10.4643 101.014 9.85134H103.388C102.885 11.8474 101.312 12.9948 99.2055 12.9948Z" fill="white"/>
<path d="M112.225 12.9947C109.804 12.9947 108.373 11.3915 108.373 9.12829V4.13025H110.59V9.19115C110.59 9.67838 110.763 10.8414 112.225 10.8414C113.2 10.8414 113.907 10.1499 113.907 9.19115V4.13025H116.124V9.12829C116.14 11.3287 114.583 12.9947 112.225 12.9947Z" fill="white"/>
<path d="M122.051 12.9947C119.425 12.9947 117.586 10.9829 117.586 8.46816V0.735352H119.834V4.96325C120.495 4.2717 121.344 3.95736 122.366 3.95736C124.661 3.95736 126.501 6.00058 126.501 8.48388C126.501 10.9829 124.661 12.9947 122.051 12.9947ZM122.051 6.00058C120.825 6.00058 119.834 7.11649 119.834 8.48388C119.834 9.83555 120.825 10.92 122.051 10.92C123.277 10.92 124.268 9.86698 124.268 8.48388C124.268 7.06934 123.277 6.00058 122.051 6.00058Z" fill="white"/>
<path d="M106.594 12.7904H105.478H104.361V8.46816V0.735352H105.478H106.594V8.46816V12.7904Z" fill="white"/>
</svg>
