<svg xmlns="http://www.w3.org/2000/svg" width="100%" height="100%" viewBox="0 0 20 34" testId="" id="chevron_left">
  <title>chevron left</title>
  <g opacity="currentColor">
    <path
      d="M15.8577 33.3343C16.7726 34.2219 18.2973 34.2219 19.2122 33.3343C20.1271 32.4467 20.1271 30.9674 19.2122 30.0798C15.5527 26.5294 11.8933 23.0776 8.2338 19.5272C8.2338 19.4286 5.79416 17.2589 5.79416 17.1603C5.79416 17.0616 8.33545 14.7933 8.33545 14.6947C11.9949 11.1443 15.6544 7.59391 19.3139 3.94489C20.2287 3.05729 20.2287 1.57795 19.3139 0.690353C18.8056 0.197243 18.1957 0 17.5858 0C16.9759 0 16.3659 0.197243 15.8577 0.690353L0.711563 15.3851C0.304956 15.7795 0 16.3713 0 17.0616C0 17.6534 0.304956 18.2451 0.711563 18.7382L15.8577 33.3343Z"
      fill="currentColor" />
  </g>
</svg>