<svg xmlns="http://www.w3.org/2000/svg" width="100%" height="100%">
    <title>chevron down variant</title>
    <path
        d="M29.5843 30.1397C30.1386 29.5972 30.1386 28.7835 29.5843 28.241C29.03 27.6985 28.1986 27.6985 27.6443 28.241L21.455 34.389V2.35617C21.3626 1.63288 20.7159 1 19.9769 1C19.2379 1 18.5912 1.63288 18.5912 2.35617V34.389L12.3095 28.241C11.7552 27.6985 10.9238 27.6985 10.3695 28.241C10.0924 28.5123 10 28.8739 10 29.2355C10 29.5972 10.0924 29.9588 10.3695 30.2301L18.9607 38.6384C19.2379 38.9096 19.6074 39 19.9769 39C20.3464 39 20.7159 38.8192 20.9931 38.6384L29.5843 30.1397Z"
        fill="currentColor" />
</svg>