<svg xmlns="http://www.w3.org/2000/svg" width="100%" height="100%" viewBox="0 0 38 38" id="chevron_up_variant">
  <title>chevron up variant</title>
  <path
    d="M10.4157 9.86033C9.86143 10.4028 9.86143 11.2165 10.4157 11.759C10.97 12.3015 11.8014 12.3015 12.3557 11.759L18.545 5.61099V37.6438C18.6374 38.3671 19.2841 39 20.0231 39C20.7621 39 21.4088 38.3671 21.4088 37.6438V5.61099L27.6905 11.759C28.2448 12.3015 29.0762 12.3015 29.6305 11.759C29.9076 11.4877 30 11.1261 30 10.7645C30 10.4028 29.9076 10.0412 29.6305 9.76992L21.0393 1.36164C20.7621 1.09041 20.3926 1 20.0231 1C19.6536 1 19.2841 1.18082 19.0069 1.36164L10.4157 9.86033Z"
    fill="currentColor" />
</svg>