<svg xmlns="http://www.w3.org/2000/svg" width="100%" height="100%" viewBox="0 0 22 22" id="chevron_up_solid">
  <title>chevron up solid</title>
  <path fillRule="evenodd" clipRule="evenodd"
    d="M11 22C4.92487 22 0 17.0751 0 11C0 4.92487 4.92487 0 11 0C17.0751 0 22 4.92487 22 11C22 17.0751 17.0751 22 11 22ZM11.6271 7.05494L11.6271 16.4342C11.6271 16.8548 11.2432 17.1492 10.8594 17.1071C10.5608 17.023 10.3476 16.7706 10.3476 16.4762L10.3476 7.097L7.83115 9.53644C7.6179 9.74674 7.27669 9.7888 7.02078 9.62056C6.80752 9.49438 6.72222 9.28409 6.72222 9.07379C6.72222 8.90555 6.76487 8.73731 6.89283 8.61114L10.5182 5.07816C10.7741 4.8258 11.1579 4.8258 11.4138 5.07816L15.0818 8.61114C15.3804 8.86349 15.3378 9.3682 14.9539 9.5785C14.698 9.74674 14.3568 9.70468 14.1435 9.49438L11.6271 7.05494Z"
    fill="currentColor" />
</svg>