<svg xmlns="http://www.w3.org/2000/svg" width="100%" height="100%" testId="">
    <title>chevron right</title>
    <g opacity="none">
        <path
            d="M4.14231 0.6657C3.22745 -0.2219 1.70267 -0.2219 0.787802 0.6657C-0.127065 1.5533 -0.127065 3.03263 0.787802 3.92023C4.44727 7.47063 8.10673 10.9224 11.7662 14.4728C11.7662 14.5714 14.2058 16.7411 14.2058 16.8397C14.2058 16.9384 11.6645 19.2067 11.6645 19.3053C8.00508 22.8557 4.34562 26.4061 0.68615 30.0551C-0.228717 30.9427 -0.228717 32.422 0.68615 33.3096C1.19441 33.8028 1.80432 34 2.41423 34C3.02414 34 3.63405 33.8028 4.14231 33.3096L19.2884 18.6149C19.695 18.2205 20 17.6287 20 16.9384C20 16.3466 19.695 15.7549 19.2884 15.2618L4.14231 0.6657Z"
            fill="currentColor" />
    </g>
</svg>