<svg xmlns="http://www.w3.org/2000/svg" width="16" height="17" viewBox="0 0 16 17" fill="none" id="chevron_right_grey">
  <path d="M5.76048 1.58551C5.37166 1.22003 4.72363 1.22003 4.33482 1.58551C3.946 1.951 3.946 2.56013 4.33482 2.92561C5.89009 4.38754 7.44536 5.80886 9.00064 7.27079C9.00064 7.3114 10.0375 8.2048 10.0375 8.24541C10.0375 8.28602 8.95743 9.22003 8.95743 9.26064C7.40216 10.7226 5.84689 12.1845 4.29161 13.687C3.9028 14.0525 3.9028 14.6617 4.29161 15.0271C4.50762 15.2302 4.76684 15.3114 5.02605 15.3114C5.28526 15.3114 5.54447 15.2302 5.76048 15.0271L12.1976 8.97638C12.3704 8.81394 12.5 8.57029 12.5 8.28602C12.5 8.04237 12.3704 7.79871 12.1976 7.59567L5.76048 1.58551Z" fill="#808080"/>
</svg>