<svg xmlns="http://www.w3.org/2000/svg" width="100%" height="100%" viewBox="0 0 38 38" id="chevron_left_variant">
  <title>chevron left variant</title>
  <path
    d="M9.86033 10.4157C10.4028 9.86143 11.2165 9.86143 11.759 10.4157C12.3015 10.97 12.3015 11.8014 11.759 12.3557L5.61099 18.545H37.6438C38.3671 18.6374 39 19.2841 39 20.0231C39 20.7621 38.3671 21.4088 37.6438 21.4088H5.61099L11.759 27.6905C12.3015 28.2448 12.3015 29.0762 11.759 29.6305C11.4877 29.9076 11.1261 30 10.7645 30C10.4028 30 10.0412 29.9076 9.76992 29.6305L1.36164 21.0393C1.09041 20.7621 1 20.3926 1 20.0231C1 19.6536 1.18082 19.2841 1.36164 19.0069L9.86033 10.4157Z"
    fill="currentColor" />
</svg>