<svg xmlns="http://www.w3.org/2000/svg" width="100%" height="100%" viewBox="0 0 38 38" id="circle_chevron_left">
  <title>circle chevron left</title>
  <path fillRule="evenodd" clipRule="evenodd"
    d="M38 20C38 29.9411 29.9411 38 20 38C10.0589 38 2 29.9411 2 20C2 10.0589 10.0589 2 20 2C29.9411 2 38 10.0589 38 20ZM23.6061 28.6476C23.1487 29.1175 22.3863 29.1175 21.9288 28.6476L14.3558 20.9202C14.1525 20.6592 14 20.3459 14 20.0326C14 19.6671 14.1525 19.3539 14.3558 19.145L21.9288 11.3655C22.183 11.1044 22.4879 11 22.7929 11C23.0978 11 23.4028 11.1044 23.6569 11.3655C24.1144 11.8354 24.1144 12.6186 23.6569 13.0885C21.8272 15.0203 19.9975 16.8999 18.1677 18.7796C18.1677 18.8057 17.8501 19.1189 17.5324 19.4322C17.2147 19.7455 16.8971 20.0587 16.8971 20.0848C16.8971 20.1109 17.202 20.4112 17.507 20.7114C17.8119 21.0116 18.1169 21.3118 18.1169 21.3379C19.0318 22.2778 19.9467 23.2045 20.8615 24.1313C21.7764 25.058 22.6912 25.9848 23.6061 26.9246C24.0635 27.3945 24.0635 28.1777 23.6061 28.6476Z"
    fill="currentColor" />
</svg>