<svg xmlns="http://www.w3.org/2000/svg" width="100%" height="100%" viewBox="0 0 38 38" id="circle_line_up">
  <title>circle line up</title>
  <path fillRule="evenodd" clipRule="evenodd"
    d="M20 38C10.0589 38 2 29.9411 2 20C2 10.0589 10.0589 2 20 2C29.9411 2 38 10.0589 38 20C38 29.9411 29.9411 38 20 38ZM21.0262 13.5445V28.8923C21.0262 29.5805 20.398 30.0623 19.7699 29.9935C19.2814 29.8558 18.9324 29.4429 18.9324 28.9611V13.6133L14.8146 17.6051C14.4656 17.9492 13.9073 18.018 13.4886 17.7427C13.1396 17.5363 13 17.1921 13 16.848C13 16.5727 13.0698 16.2974 13.2792 16.091L19.2116 10.3097C19.6303 9.89676 20.2585 9.89676 20.6772 10.3097L26.6794 16.091C27.1679 16.5039 27.0981 17.3298 26.47 17.6739C26.0513 17.9492 25.4929 17.8804 25.1439 17.5363L21.0262 13.5445Z"
    fill="currentColor" />
</svg>