<svg xmlns="http://www.w3.org/2000/svg" width="100%" height="100%" viewBox="0 0 38 38" id="circle_line_left">
  <title>circle line left</title>
  <path fill-rule="evenodd" clip-rule="evenodd"
    d="M38 20C38 29.9411 29.9411 38 20 38C10.0589 38 2 29.9411 2 20C2 10.0589 10.0589 2 20 2C29.9411 2 38 10.0589 38 20ZM13.5445 18.9738H28.8923C29.5805 18.9738 30.0623 19.602 29.9935 20.2301C29.8558 20.7186 29.4429 21.0676 28.9611 21.0676H13.6133L17.6051 25.1854C17.9492 25.5344 18.018 26.0927 17.7427 26.5114C17.5363 26.8604 17.1921 27 16.848 27C16.5727 27 16.2974 26.9302 16.091 26.7208L10.3097 20.7884C9.89676 20.3697 9.89676 19.7415 10.3097 19.3228L16.091 13.3206C16.5039 12.8321 17.3298 12.9019 17.6739 13.53C17.9492 13.9487 17.8804 14.5071 17.5363 14.8561L13.5445 18.9738Z"
    fill="currentColor" />
</svg>