<svg xmlns="http://www.w3.org/2000/svg" width="100%" height="100%" viewBox="0 0 38 38">
    <title>circle up</title>
    <path
        d="M0 19C0 8.50403 8.50403 0 19 0C29.496 0 38 8.50403 38 19C38 29.496 29.496 38 19 38C8.50403 38 0 29.496 0 19ZM17.6976 10.2738L7.31653 20.6548C6.59637 21.375 6.59637 22.5395 7.31653 23.252L8.61895 24.5544C9.33911 25.2746 10.5036 25.2746 11.2161 24.5544L19 16.7706L26.7839 24.5544C27.504 25.2746 28.6685 25.2746 29.381 24.5544L30.6835 23.252C31.4036 22.5319 31.4036 21.3673 30.6835 20.6548L20.3024 10.2738C19.5823 9.55363 18.4177 9.55363 17.6976 10.2738Z"
        fill="currentColor" />
</svg>