<svg xmlns="http://www.w3.org/2000/svg" width="100%" height="100%" viewBox="0 0 38 38">
    <title>circle chevron down</title>
    <path fillRule="evenodd" clipRule="evenodd"
        d="M20 2C10.0589 2 2 10.0589 2 20C2 29.9411 10.0589 38 20 38C29.9411 38 38 29.9411 38 20C38 10.0589 29.9411 2 20 2ZM11.3524 16.3939C10.8825 16.8513 10.8825 17.6137 11.3524 18.0712L19.0798 25.6442C19.3408 25.8475 19.6541 26 19.9674 26C20.3329 26 20.6461 25.8475 20.855 25.6442L28.6345 18.0712C28.8956 17.817 29 17.5121 29 17.2071C29 16.9022 28.8956 16.5972 28.6345 16.3431C28.1646 15.8856 27.3814 15.8856 26.9115 16.3431C24.9797 18.1728 23.1001 20.0025 21.2204 21.8323C21.1943 21.8323 20.8811 22.1499 20.5678 22.4676C20.2545 22.7853 19.9413 23.1029 19.9152 23.1029C19.8891 23.1029 19.5888 22.798 19.2886 22.493C18.9884 22.1881 18.6882 21.8831 18.6621 21.8831C17.7222 20.9682 16.7955 20.0533 15.8687 19.1385C14.942 18.2236 14.0152 17.3088 13.0754 16.3939C12.6055 15.9365 11.8223 15.9365 11.3524 16.3939Z"
        fill="currentColor" />
</svg>