<svg xmlns="http://www.w3.org/2000/svg" width="100%" height="100%" viewBox="0 0 38 38" id="circle_line_down">
  <title>circle line down</title>
  <path fillRule="evenodd" clipRule="evenodd"
    d="M20 2C10.0589 2 2 10.0589 2 20C2 29.9411 10.0589 38 20 38C29.9411 38 38 29.9411 38 20C38 10.0589 29.9411 2 20 2ZM21.0262 26.4555V11.1077C21.0262 10.4195 20.398 9.93772 19.7699 10.0065C19.2814 10.1442 18.9324 10.5571 18.9324 11.0389V26.3867L14.8146 22.3949C14.4656 22.0508 13.9073 21.982 13.4886 22.2573C13.1396 22.4637 13 22.8079 13 23.152C13 23.4273 13.0698 23.7026 13.2792 23.909L19.2116 29.6903C19.6303 30.1032 20.2585 30.1032 20.6772 29.6903L26.6794 23.909C27.1679 23.4961 27.0981 22.6702 26.47 22.3261C26.0513 22.0508 25.4929 22.1196 25.1439 22.4637L21.0262 26.4555Z"
    fill="currentColor" />
</svg>