<svg width="21" height="20" viewBox="0 0 21 20" fill="none" xmlns="http://www.w3.org/2000/svg" id="circle_round">
<title>Round Arrow</title>
<g clip-path="url(#clip0_2506_6961)">
  <path d="M10.5001 17.5C8.2149 17.5 6.18756 16.4648 4.81647 14.8516L6.14377 13.5243C6.52175 13.1463 6.25404 12.5 5.7195 12.5H1.10006C0.76869 12.5 0.500061 12.7686 0.500061 13.1V17.7194C0.500061 18.254 1.14635 18.5217 1.52433 18.1437L3.03522 16.6328C4.86334 18.6953 7.5274 20 10.5001 20C15.822 20 20.1721 15.8441 20.4824 10.6001C20.5019 10.2693 20.2314 10 19.9001 10H18.6001C18.2687 10 18.0026 10.2696 17.9765 10.5999C17.6712 14.4636 14.4426 17.5 10.5001 17.5Z" fill="#E7C9B2"/>
  <path d="M10.5001 2.5C12.7852 2.5 14.8126 3.53516 16.1837 5.14844L14.8564 6.47574C14.4784 6.85372 14.7461 7.5 15.2806 7.5L19.9001 7.5C20.2314 7.5 20.5001 7.23137 20.5001 6.9L20.5001 2.28056C20.5001 1.74602 19.8538 1.47832 19.4758 1.8563L17.9649 3.36719C16.1368 1.30469 13.4727 -6.1435e-07 10.5001 -8.74228e-07C5.1781 -1.33949e-06 0.828032 4.15594 0.517763 9.39992C0.498192 9.73071 0.76869 10 1.10006 10L2.40006 10C2.73143 10 2.99756 9.73042 3.02366 9.40008C3.32893 5.53644 6.55748 2.5 10.5001 2.5Z" fill="#2579C8"/>
</g>
<defs>
  <clipPath id="clip0_2506_6961">
    <rect width="20" height="20" fill="white" transform="translate(0.500061)"/>
  </clipPath>
</defs>
</svg>
