<svg xmlns="http://www.w3.org/2000/svg" width="100%" height="100%">
    <title>circle chevron Right</title>
    <path fillRule="evenodd" clipRule="evenodd"
        d="M2 20C2 29.9411 10.0589 38 20 38C29.9411 38 38 29.9411 38 20C38 10.0589 29.9411 2 20 2C10.0589 2 2 10.0589 2 20ZM16.3939 28.6476C16.8513 29.1175 17.6137 29.1175 18.0712 28.6476L25.6442 20.9202C25.8475 20.6592 26 20.3459 26 20.0326C26 19.6671 25.8475 19.3539 25.6442 19.145L18.0712 11.3655C17.817 11.1044 17.5121 11 17.2071 11C16.9022 11 16.5972 11.1044 16.3431 11.3655C15.8856 11.8354 15.8856 12.6186 16.3431 13.0885C18.1728 15.0203 20.0025 16.8999 21.8323 18.7796C21.8323 18.8057 22.1499 19.1189 22.4676 19.4322C22.7853 19.7455 23.1029 20.0587 23.1029 20.0848C23.1029 20.1109 22.798 20.4112 22.493 20.7114C22.1881 21.0116 21.8831 21.3118 21.8831 21.3379C20.9682 22.2778 20.0533 23.2045 19.1385 24.1313C18.2236 25.058 17.3088 25.9848 16.3939 26.9246C15.9365 27.3945 15.9365 28.1777 16.3939 28.6476Z"
        fill="currentColor" />
</svg>