<svg width="100%" height="100%" viewBox="0 0 14 14" fill="none" xmlns="http://www.w3.org/2000/svg" id="circle_round_grayed">
  <g clip-path="url(#clip0_2637_17641)">
    <path d="M7 12.25C5.40039 12.25 3.98125 11.5254 3.02148 10.3961L3.64331 9.77426C4.02129 9.39629 3.75359 8.75 3.21905 8.75H0.600001C0.26863 8.75 0 9.01863 0 9.35V11.969C0 12.5036 0.646285 12.7713 1.02426 12.3933L1.77461 11.643C3.0543 13.0867 4.91914 14 7 14C10.6644 14 13.6705 11.1853 13.9747 7.59974C14.0027 7.26956 13.7314 7 13.4 7H12.85C12.5186 7 12.2536 7.26975 12.2163 7.59901C11.9193 10.2177 9.6986 12.25 7 12.25Z" fill="#9E9E9E"/>
    <path d="M7 1.75C8.59961 1.75 10.0188 2.47461 10.9785 3.60391L10.3567 4.22573C9.97871 4.60371 10.2464 5.25 10.781 5.25L13.4 5.25C13.7314 5.25 14 4.98137 14 4.65L14 2.03095C14 1.49641 13.3537 1.22871 12.9757 1.60669L12.2254 2.35703C10.9457 0.913281 9.08086 -4.30045e-07 7 -6.11959e-07C3.33562 -9.32309e-07 0.329479 2.81467 0.0253249 6.40025C-0.00268362 6.73044 0.268629 7 0.6 7L1.15 7C1.48137 7 1.7464 6.73025 1.78374 6.40099C2.0807 3.78228 4.3014 1.75 7 1.75Z" fill="#767676"/>
  </g>
  <defs>
    <clipPath id="clip0_2637_17641">
      <rect width="14" height="14" fill="white"/>
    </clipPath>
  </defs>
</svg>
