<svg width="157" height="20" viewBox="0 0 157 20" fill="none" xmlns="http://www.w3.org/2000/svg">
<path d="M157 -1.38283e-05C157 11.0457 148.046 20 137 20L4.52995e-06 20L2.7815e-06 -1.02903e-07L157 -1.38283e-05V-1.38283e-05Z" fill="#CC4125"/>
<path d="M22.2582 6.44786C21.7208 6.44786 21.3434 6.79091 21.3434 7.19112C21.3434 7.52273 21.5493 7.7743 22.041 7.86578L23.0586 8.06017C24.6252 8.36891 25.4257 9.29513 25.4257 10.5415C25.4257 11.8451 24.305 13.1715 22.3383 13.1715C20.0627 13.1715 19.1136 11.7193 19.0222 10.5873L20.9661 10.2556C21.0004 10.8731 21.4463 11.4334 22.3383 11.4334C22.9214 11.4334 23.2759 11.1133 23.2759 10.7016C23.2759 10.3471 23.0358 10.0841 22.5326 9.99265L21.5264 9.79826C20.0742 9.52382 19.2509 8.63191 19.2509 7.36265C19.2509 5.84182 20.623 4.72121 22.2696 4.72121C24.3165 4.72121 25.1512 5.9333 25.2999 6.97386L23.3788 7.32834C23.3216 6.96243 23.0586 6.44786 22.2582 6.44786ZM26.7949 13V4.89273H31.9863V6.74517H28.9217V8.02586H31.7118V9.80969H28.9217V11.1133H32.0091V13H26.7949ZM40.7895 13V7.98013L39.0172 13H37.3248L35.5638 8.0373V13H33.5285V4.89273H36.3757L38.1938 9.83256L39.9319 4.89273H42.8592V13H40.7895ZM44.6617 13V4.89273H46.8458V13H44.6617ZM48.4425 10.5873V8.76913H51.9758V10.5873H48.4425ZM58.0255 11.4677H55.2469L54.7552 13H52.5826L55.4298 4.89273H57.9684L60.8042 13H58.5172L58.0255 11.4677ZM55.8072 9.71821H57.4767L56.6534 7.11108L55.8072 9.71821ZM66.7423 13L63.9294 8.18595V13H61.8139V4.89273H64.2839L66.8109 9.29513V4.89273H68.9378V13H66.7423ZM75.6758 13L72.8628 8.18595V13H70.7474V4.89273H73.2173L75.7444 9.29513V4.89273H77.8712V13H75.6758ZM82.8597 13.183C80.9844 13.183 79.6008 12.0738 79.6008 10.027V4.89273H81.7391V9.95834C81.7391 10.7702 82.1393 11.1819 82.8597 11.1819C83.5801 11.1819 83.9688 10.7702 83.9688 9.95834V4.89273H86.1072V10.027C86.1072 12.0738 84.7464 13.183 82.8597 13.183ZM92.2629 11.4677H89.4843L88.9926 13H86.82L89.6672 4.89273H92.2057L95.0416 13H92.7546L92.2629 11.4677ZM90.0446 9.71821H91.714L90.8907 7.11108L90.0446 9.71821ZM96.0513 13V4.89273H98.1782V10.976H101.266V13H96.0513ZM107.438 6.44786C106.901 6.44786 106.524 6.79091 106.524 7.19112C106.524 7.52273 106.73 7.7743 107.221 7.86578L108.239 8.06017C109.805 8.36891 110.606 9.29513 110.606 10.5415C110.606 11.8451 109.485 13.1715 107.519 13.1715C105.243 13.1715 104.294 11.7193 104.202 10.5873L106.146 10.2556C106.181 10.8731 106.627 11.4334 107.519 11.4334C108.102 11.4334 108.456 11.1133 108.456 10.7016C108.456 10.3471 108.216 10.0841 107.713 9.99265L106.707 9.79826C105.254 9.52382 104.431 8.63191 104.431 7.36265C104.431 5.84182 105.803 4.72121 107.45 4.72121C109.497 4.72121 110.331 5.9333 110.48 6.97386L108.559 7.32834C108.502 6.96243 108.239 6.44786 107.438 6.44786ZM116.417 11.4677H113.638L113.146 13H110.974L113.821 4.89273H116.36L119.195 13H116.908L116.417 11.4677ZM114.198 9.71821H115.868L115.045 7.11108L114.198 9.71821ZM120.205 13V4.89273H122.332V10.976H125.419V13H120.205ZM126.548 13V4.89273H131.739V6.74517H128.675V8.02586H131.465V9.80969H128.675V11.1133H131.762V13H126.548Z" fill="#F7F4F2"/>
</svg>
