<svg width="228" height="164" viewBox="0 0 228 164" fill="none" xmlns="http://www.w3.org/2000/svg">
<circle cx="113.191" cy="80.8512" r="76" fill="#BFB371"/>
<path d="M8.02089 70.6862L213.363 41.7239L205.291 69.7963L205.241 69.9698L205.337 70.1228L220.858 94.8675L15.5165 123.83L26.7908 95.341L26.8754 95.1273L26.735 94.9453L8.02089 70.6862Z" fill="url(#paint0_linear_819_3899)" stroke="white" stroke-width="0.808511"/>
<path d="M50.5856 74.8225C52.1123 75.5033 52.9986 76.6915 53.2443 78.3913C53.494 80.1233 53.0308 81.9158 51.8545 83.7727C50.6783 85.6255 49.1153 87.2971 47.1737 88.7875C45.228 90.2778 43.3186 91.3452 41.4374 91.9897C44.8292 91.7037 47.6651 92.0662 49.9371 93.0813C52.209 94.0963 53.5303 95.8847 53.9049 98.4505C54.2272 100.682 53.7277 102.821 52.4104 104.867C51.0892 106.913 49.2361 108.625 46.8554 110.007C44.4707 111.388 41.9127 112.279 39.1815 112.673C37.683 112.891 36.2771 112.923 34.9599 112.774C33.6466 112.625 32.5107 112.295 31.5519 111.787C29.9205 110.869 29.002 109.672 28.7885 108.206C28.6193 107.042 28.8933 105.939 29.6103 104.899C30.3273 103.86 31.4029 103.236 32.8329 103.03C33.8642 102.881 34.7262 103.01 35.4151 103.421C36.1039 103.832 36.5148 104.505 36.6517 105.435C36.8169 106.567 36.5591 107.675 35.8823 108.762C35.2056 109.846 34.267 110.595 33.0706 111.006C33.5298 111.348 34.2025 111.598 35.0928 111.759C35.9831 111.92 36.9458 111.924 37.9771 111.775C39.7415 111.521 41.3205 110.841 42.7063 109.737C44.096 108.637 45.1353 107.183 45.8282 105.383C46.5211 103.582 46.7064 101.564 46.3801 99.3327C46.0699 97.2019 45.4093 95.5544 44.3901 94.3904C43.3709 93.2303 42.1181 92.6704 40.6277 92.7147C39.6689 93.6009 38.9036 94.0883 38.3396 94.1688C37.7716 94.2494 37.4574 94.0601 37.3889 93.5928C37.3204 93.1256 37.5863 92.7913 38.1865 92.5858C38.7867 92.3804 39.4393 92.2435 40.1443 92.175C42.0779 90.9787 43.6046 89.3433 44.7164 87.281C45.8282 85.2147 46.2189 83.0315 45.8846 80.7356C45.4455 77.7025 43.943 76.3733 41.3769 76.7439C40.0113 76.9412 38.674 77.5172 37.3688 78.4719C36.0596 79.4265 35.0203 80.5624 34.2388 81.8835C33.4613 83.2047 33.1632 84.4977 33.3445 85.7625C33.5862 87.43 34.6698 88.1229 36.6034 87.8409C37.6024 87.6959 38.5128 87.3535 39.3386 86.8057C40.1604 86.2619 40.9902 85.4684 41.8281 84.4292L42.529 85.0415C41.675 86.1854 40.7042 87.0756 39.6246 87.708C38.541 88.3404 37.4856 88.7311 36.4503 88.8801C35.3828 89.0332 34.4483 88.9083 33.6386 88.4974C32.8289 88.0866 32.3334 87.2488 32.1521 85.984C31.9064 84.2842 32.3415 82.5965 33.4613 80.9249C34.5772 79.2493 36.1563 77.8153 38.1946 76.619C40.2329 75.4227 42.4525 74.6534 44.8493 74.3029C47.1495 73.9686 49.0629 74.1458 50.5896 74.8225H50.5856Z" fill="white"/>
<path d="M81.7808 71.6083C83.5492 73.1228 84.6852 75.6443 85.1968 79.1728C85.7769 83.1685 85.4385 87.3536 84.1817 91.7159C82.9248 96.0822 80.959 99.8201 78.2802 102.926C75.6014 106.035 72.5641 107.836 69.1642 108.327C66.5659 108.702 64.3987 108.134 62.6665 106.615C60.9344 105.097 59.8105 102.571 59.2989 99.0427C58.7269 95.0792 59.0572 90.9062 60.2939 86.5278C61.5305 82.1494 63.4722 78.4075 66.1188 75.3019C68.7654 72.2004 71.7866 70.3999 75.1865 69.9085C77.8169 69.5258 80.0164 70.0938 81.7848 71.6042L81.7808 71.6083ZM69.7966 75.8699C68.3827 78.915 67.3998 82.7577 66.8479 87.3939C66.296 92.03 66.3605 96.7146 67.0453 101.447C67.3555 103.578 67.7543 105.113 68.2457 106.043C68.7372 106.974 69.3495 107.389 70.0826 107.284C71.7141 107.046 73.2368 105.407 74.6507 102.362C76.0646 99.3166 77.0556 95.4739 77.6236 90.8337C78.1956 86.1935 78.1352 81.509 77.4504 76.7761C77.1402 74.6454 76.7333 73.1147 76.2258 72.1843C75.7182 71.2538 75.0978 70.843 74.3647 70.9477C72.7332 71.1853 71.2105 72.8247 69.7966 75.8699Z" fill="white"/>
<path d="M135.393 85.4805C134.048 89.3474 131.683 92.6986 128.304 95.5343C124.92 98.37 120.597 100.17 115.336 100.932L112.879 101.238C110.938 101.451 109.234 101.665 107.767 101.874C104.537 102.342 102.043 102.752 100.295 103.111V102.092C101.423 101.862 102.261 101.604 102.817 101.318C103.368 101.032 103.779 100.577 104.045 99.9409C104.311 99.3085 104.521 98.3498 104.674 97.069L107.634 71.3384C107.771 70.3998 107.8 69.6667 107.723 69.131C107.618 68.3979 107.296 67.8985 106.768 67.6367C106.237 67.3748 105.35 67.3144 104.114 67.4594V66.4363C105.632 66.3195 107.84 66.0496 110.736 65.6307L112.335 65.4011C115.82 64.7969 118.293 64.3861 119.76 64.1726C124.658 63.4637 128.541 63.9309 131.417 65.5703C134.29 67.2137 136.014 70.0011 136.582 73.9283C137.138 77.7589 136.743 81.6096 135.397 85.4765L135.393 85.4805ZM123.534 95.204C125.689 92.4771 127.16 89.1621 127.937 85.255C128.714 81.3519 128.819 77.4327 128.251 73.5014C127.8 70.3716 126.809 68.1079 125.278 66.7142C123.752 65.3206 121.588 64.8251 118.789 65.2279C117.923 65.3528 117.298 65.5542 116.912 65.8321C116.525 66.1101 116.243 66.5491 116.058 67.1533C115.872 67.7575 115.707 68.7323 115.562 70.0816L112.634 96.0136C112.48 97.5322 112.428 98.4747 112.48 98.8413C112.561 99.4092 112.811 99.7798 113.23 99.957C113.645 100.134 114.305 100.158 115.204 100.03C118.603 99.5381 121.379 97.9269 123.534 95.2V95.204Z" fill="white"/>
<path d="M166.448 91.7035C166.987 92.1345 167.559 92.3239 168.164 92.2715L168.107 93.2986C166.395 93.4436 163.97 93.7457 160.84 94.1969C157.44 94.6883 154.951 95.0991 153.364 95.4334L153.42 94.4063C154.544 94.1767 155.406 93.9068 156.006 93.5967C156.606 93.2906 156.997 92.8233 157.182 92.203C157.364 91.5827 157.34 90.7086 157.11 89.5848L155.474 81.4564L144.679 83.0193L141.186 89.9031C140.336 91.5545 139.982 92.8676 140.123 93.8303C140.239 94.6278 140.683 95.1716 141.452 95.4496C142.225 95.7275 143.297 95.804 144.675 95.6711L144.57 96.7063C141.758 97.0124 139.583 97.2742 138.052 97.4958C136.819 97.673 135.679 97.8905 134.624 98.1443L134.68 97.1171C135.514 96.7586 136.284 96.1383 136.989 95.2522C137.694 94.3701 138.552 92.9522 139.563 91.0027L156.155 58.6541C156.461 58.6461 156.896 58.5977 157.46 58.5172C158.061 58.4286 158.476 58.352 158.701 58.2876L165.251 89.4277C165.509 90.5113 165.908 91.2726 166.448 91.7035ZM155.281 80.4615L152.715 67.3143L145.235 81.9156L155.281 80.4615Z" fill="white"/>
<path d="M202.291 51.9567C203.242 52.6535 203.806 53.6162 203.987 54.8488C204.173 56.1136 203.899 57.2414 203.178 58.2323C202.452 59.2231 201.425 59.8112 200.092 60.0046C198.992 60.1617 198.102 60.0126 197.425 59.5494C196.744 59.0862 196.338 58.3894 196.205 57.4549C196.08 56.3512 196.305 55.3402 196.889 54.4218C197.469 53.5034 198.287 52.7985 199.339 52.3071C199.153 52.1984 198.859 52.1742 198.46 52.2306C197.461 52.3756 196.515 52.9033 195.629 53.8136C194.283 55.0985 192.881 57.3985 191.423 60.7215C189.965 64.0446 188.793 68.0484 187.906 72.7329L186.686 84.3898C186.601 85.2196 186.597 85.9003 186.674 86.432C186.799 87.298 187.165 87.8418 187.777 88.0593C188.386 88.2768 189.413 88.3171 190.855 88.1761L190.75 89.2113C188.837 89.3845 185.965 89.751 182.134 90.3069C178.536 90.8265 175.862 91.2656 174.109 91.62L174.214 90.5848C175.402 90.3432 176.285 90.0813 176.853 89.7954C177.425 89.5094 177.848 89.0462 178.134 88.4097C178.416 87.7733 178.617 86.8187 178.738 85.5418L179.882 74.4085C178.69 69.9214 177.396 66.1633 176.007 63.1343C174.617 60.1053 173.203 58.6915 171.773 58.9009C171.205 58.9815 170.778 59.2513 170.484 59.6984C170.19 60.1455 169.968 60.7779 169.811 61.5795L169.219 64.8784L168.119 65.0355L168.812 61.0075C169.171 59.0177 169.88 57.5193 170.943 56.5164C172.003 55.5134 173.384 54.8891 175.084 54.6434C177.251 54.3292 179.056 54.7561 180.498 55.9242C181.94 57.0924 183.153 58.8727 184.128 61.2653C185.103 63.6579 186.13 66.9367 187.209 71.1016C187.854 67.8108 188.696 64.814 189.735 62.1152C190.774 59.4165 191.951 57.1004 193.272 55.175C194.871 52.8348 196.688 51.5177 198.722 51.2236C200.156 51.0182 201.345 51.2599 202.299 51.9567H202.291Z" fill="white"/>
<path d="M56.1195 43.8074L66.2037 48.9349L64.9527 51.3905L58.9078 48.3134L63.8068 53.6449L62.7971 55.6267L55.5817 54.815L61.6425 57.8968L60.3915 60.3524L50.3113 55.2251L51.7865 52.3232L60.2072 53.0438L54.6531 46.6935L56.1195 43.8074Z" fill="white"/>
<path d="M69.3342 44.1424C68.3735 44.4613 67.3874 44.5171 66.3844 44.3021C65.3773 44.0869 64.4659 43.6056 63.6501 42.8622C62.8343 42.1187 62.2776 41.2531 61.9797 40.2731C61.6817 39.2932 61.6499 38.3123 61.8845 37.3222C62.119 36.3362 62.5953 35.4489 63.3133 34.6644C64.0313 33.8798 64.8727 33.3262 65.8334 33.0073C66.7981 32.6886 67.776 32.6364 68.7708 32.8551C69.7656 33.0738 70.673 33.555 71.4886 34.3024C72.3042 35.0499 72.8651 35.9117 73.1712 36.8919C73.4773 37.8682 73.513 38.8533 73.2828 39.8355C73.0525 40.8177 72.5803 41.7011 71.8624 42.4856C71.1444 43.2702 70.3029 43.8238 69.3422 44.1427L69.3342 44.1424ZM70.7989 38.5794C70.7195 37.7738 70.3188 37.0355 69.5885 36.3682C68.8505 35.6926 68.0782 35.3581 67.2721 35.3529C66.4658 35.3516 65.7586 35.6811 65.1503 36.3492C64.5338 37.021 64.2612 37.7596 64.3329 38.5567C64.4006 39.3537 64.8092 40.0964 65.5551 40.7764C66.2931 41.4521 67.0652 41.7905 67.8715 41.7918C68.6778 41.793 69.3891 41.4597 70.0059 40.7839C70.614 40.1197 70.8826 39.381 70.8031 38.5755L70.7989 38.5794Z" fill="white"/>
<path d="M86.3578 30.8L84.0572 32.317L76.3722 29.0267L80.2103 34.8543L77.9097 36.3713L71.6859 26.9252L73.9865 25.4081L81.6904 28.7275L77.8332 22.8749L80.1338 21.3579L86.3577 30.804L86.3578 30.8Z" fill="white"/>
<path d="M88.6922 19.9236L89.523 22.0544L92.9613 20.7137L93.7337 22.6969L90.2954 24.0377L91.1993 26.349L95.0883 24.8334L95.8899 26.8905L89.4353 29.4081L85.321 18.8725L91.7756 16.3548L92.5772 18.4119L88.6881 19.9274L88.6922 19.9236Z" fill="white"/>
<path d="M106.58 13.1635L104.001 21.2886L104.634 24.9714L101.917 25.4391L101.284 21.7563L96.1438 14.9555L99.2259 14.4263L102.188 18.7259L103.53 13.69L106.58 13.1676L106.58 13.1635Z" fill="white"/>
<path d="M125.117 20.759C125.44 21.3207 125.556 21.9262 125.461 22.5713C125.33 23.5051 124.897 24.2048 124.165 24.6581C123.432 25.1155 122.483 25.2575 121.313 25.092L116.094 24.3552L117.68 13.1572L122.722 13.8706C123.86 14.0307 124.715 14.417 125.282 15.0291C125.854 15.6414 126.073 16.3923 125.947 17.2861C125.855 17.9474 125.603 18.4691 125.196 18.8554C124.789 19.2416 124.287 19.4788 123.687 19.5708C124.314 19.8024 124.79 20.1971 125.113 20.7588L125.117 20.759ZM122.252 22.6638C122.529 22.4898 122.698 22.2066 122.755 21.8139C122.812 21.4211 122.724 21.095 122.493 20.8314C122.262 20.5719 121.922 20.4086 121.465 20.3453L119.485 20.0655L119.137 22.5384L121.145 22.8234C121.602 22.8867 121.971 22.8335 122.248 22.6636L122.252 22.6638ZM119.77 18.0737L121.557 18.3253C122.002 18.3881 122.359 18.3384 122.628 18.1763C122.897 18.0141 123.057 17.7426 123.109 17.3577C123.166 16.973 123.086 16.6674 122.874 16.4288C122.662 16.1942 122.333 16.0435 121.889 15.9807L120.101 15.729L119.77 18.0737Z" fill="white"/>
<path d="M135.176 26.9857L131.235 25.4755L129.889 27.1008L127.195 26.0697L135.064 16.971L138.044 18.1147L137.819 30.1392L135.096 29.0949L135.184 26.986L135.176 26.9857ZM135.273 24.7442L135.446 20.3773L132.669 23.7492L135.273 24.7483L135.273 24.7442Z" fill="white"/>
<path d="M145.193 24.4187C146.09 23.9762 147.033 23.7976 148.021 23.8911C149.009 23.9805 149.953 24.3382 150.855 24.9642C151.956 25.7316 152.699 26.6776 153.079 27.802C153.46 28.9305 153.436 30.0865 153 31.2778L150.511 29.5498C150.597 29.0333 150.536 28.5551 150.337 28.1155C150.137 27.6758 149.822 27.308 149.391 27.0079C148.693 26.5233 147.962 26.376 147.192 26.5618C146.422 26.7475 145.756 27.248 145.195 28.0591C144.629 28.8701 144.398 29.6709 144.494 30.457C144.591 31.2431 144.988 31.8764 145.681 32.3607C146.112 32.6608 146.569 32.8289 147.051 32.8611C147.534 32.8932 147.998 32.7795 148.457 32.5203L150.945 34.2483C149.983 35.0711 148.905 35.498 147.719 35.5294C146.532 35.5607 145.386 35.1946 144.285 34.4313C143.384 33.8053 142.718 33.0479 142.287 32.1512C141.857 31.2585 141.69 30.3163 141.788 29.3246C141.885 28.3329 142.255 27.3807 142.89 26.4637C143.525 25.5467 144.295 24.8652 145.188 24.4225L145.193 24.4187Z" fill="white"/>
<path d="M155.297 44.3989L156.5 38.2364L152.766 41.5564L150.936 39.497L159.389 31.9787L161.222 34.0383L157.513 37.3351L163.726 36.8554L165.879 39.275L158.823 39.6834L157.535 46.9107L155.297 44.3948L155.297 44.3989Z" fill="white"/>
<path d="M74.0196 125.266C74.1387 124.849 74.1288 124.431 73.9942 124.017C73.8594 123.6 73.6002 123.213 73.2285 122.844C72.5791 122.212 71.8539 121.916 71.0447 121.96C70.2396 122.003 69.4875 122.384 68.7964 123.095C68.0576 123.854 67.6859 124.645 67.6773 125.471C67.6727 126.297 68.0298 127.061 68.7486 127.764C69.2428 128.245 69.7785 128.527 70.3638 128.608C70.9491 128.688 71.5477 128.571 72.1597 128.257L69.6153 125.774L71.0571 124.296L75.419 128.55L73.5998 130.412C72.9641 130.767 72.2582 130.987 71.4818 131.07C70.7054 131.153 69.9145 131.059 69.1091 130.793C68.3036 130.526 67.5558 130.057 66.8697 129.386C66.0569 128.591 65.5047 127.709 65.2172 126.73C64.9256 125.755 64.912 124.776 65.1763 123.794C65.4366 122.815 65.9639 121.918 66.7584 121.105C67.5528 120.292 68.4354 119.74 69.4144 119.453C70.3894 119.165 71.3681 119.148 72.3508 119.412C73.3293 119.672 74.227 120.199 75.0398 120.994C76.0241 121.955 76.6228 123.002 76.832 124.139C77.0413 125.276 76.847 126.371 76.2413 127.43L74.0277 125.27L74.0196 125.266Z" fill="white"/>
<path d="M83.8375 128.159L80.3628 134.096C80.0166 134.689 79.8952 135.231 79.9987 135.725C80.1023 136.215 80.4383 136.625 81.0029 136.956C81.5675 137.286 82.0966 137.38 82.5861 137.236C83.0756 137.092 83.4934 136.724 83.8397 136.131L87.3144 130.193L89.7311 131.605L86.2643 137.527C85.7448 138.412 85.1172 139.054 84.3814 139.443C83.6455 139.835 82.8703 139.999 82.0516 139.938C81.2329 139.877 80.4357 139.618 79.6518 139.162C78.8679 138.706 78.2598 138.142 77.8194 137.475C77.3791 136.809 77.1632 136.063 77.1678 135.237C77.1684 134.411 77.4304 133.553 77.9499 132.668L81.4167 126.746L83.8334 128.159L83.8375 128.159Z" fill="white"/>
<path d="M97.2139 144.138L93.0959 142.934L91.8675 144.692L89.052 143.869L96.271 134.004L99.3818 134.915L100.148 147.118L97.3042 146.288L97.214 144.146L97.2139 144.138ZM97.1298 141.863L96.9431 137.422L94.4115 141.067L97.1298 141.863Z" fill="white"/>
<path d="M111.551 148.156L109.374 143.703L108.705 143.672L108.492 148.005L105.694 147.867L106.259 136.382L110.956 136.615C111.863 136.659 112.623 136.858 113.248 137.203C113.869 137.549 114.327 138.006 114.617 138.574C114.907 139.142 115.036 139.761 115.001 140.438C114.964 141.2 114.715 141.872 114.256 142.45C113.797 143.029 113.141 143.425 112.286 143.634L114.712 148.313L111.556 148.156L111.551 148.156ZM108.803 141.693L110.536 141.777C111.048 141.802 111.437 141.696 111.708 141.459C111.975 141.221 112.123 140.873 112.145 140.413C112.167 139.978 112.053 139.629 111.812 139.363C111.566 139.1 111.19 138.956 110.678 138.931L108.944 138.847L108.803 141.693Z" fill="white"/>
<path d="M127.347 144.629L123.128 145.421L122.827 147.544L119.946 148.084L121.921 136.019L125.108 135.423L131.314 145.959L128.401 146.504L127.351 144.633L127.347 144.629ZM126.24 142.638L124.063 138.761L123.451 143.156L126.236 142.634L126.24 142.638Z" fill="white"/>
<path d="M146.07 139.8L143.528 140.979L136.291 136.524L139.277 142.956L136.739 144.135L131.893 133.709L134.43 132.53L141.68 137.017L138.677 130.557L141.219 129.378L146.066 139.804L146.07 139.8Z" fill="white"/>
<path d="M150.792 122.199L152.178 123.964L149.783 125.846L155.5 133.118L153.297 134.849L147.579 127.573L145.184 129.455L143.798 127.69L150.788 122.195L150.792 122.199Z" fill="white"/>
<path d="M156.516 119.267L158.286 120.777L160.719 117.927L162.363 119.331L159.925 122.18L161.845 123.817L164.6 120.593L166.304 122.051L161.73 127.404L152.988 119.941L157.563 114.584L159.267 116.042L156.512 119.267L156.516 119.267Z" fill="white"/>
<path d="M162.954 110.279L164.98 111.423L166.824 108.158L168.708 109.22L166.864 112.484L169.061 113.722L171.149 110.027L173.102 111.132L169.638 117.263L159.628 111.61L163.092 105.479L165.045 106.584L162.958 110.274L162.954 110.279Z" fill="white"/>
<defs>
<linearGradient id="paint0_linear_819_3899" x1="18.1915" y1="124.511" x2="221.532" y2="95.0001" gradientUnits="userSpaceOnUse">
<stop stop-color="#BFB26F"/>
<stop offset="0.516182" stop-color="#D3CCA4"/>
<stop offset="1" stop-color="#BFB26F"/>
</linearGradient>
</defs>
</svg>
