<?xml version="1.0" standalone="no"?>
<!DOCTYPE svg PUBLIC "-//W3C//DTD SVG 20010904//EN"
 "http://www.w3.org/TR/2001/REC-SVG-20010904/DTD/svg10.dtd">
<svg version="1.0" xmlns="http://www.w3.org/2000/svg"
 width="848.000000pt" height="848.000000pt" viewBox="0 0 848.000000 848.000000"
 preserveAspectRatio="xMidYMid meet">
<metadata>
Created by potrace 1.14, written by Peter Selinger 2001-2017
</metadata>
<g transform="translate(0.000000,848.000000) scale(0.100000,-0.100000)"
fill="#000000" stroke="none">
<path d="M4118 8366 c-138 -139 -308 -315 -448 -466 -58 -62 -110 -118 -116
-124 -30 -33 -141 -158 -244 -276 -56 -64 -165 -192 -209 -245 -9 -11 -32 -40
-51 -65 -19 -25 -38 -47 -41 -50 -4 -3 -64 -79 -133 -170 -70 -91 -132 -172
-139 -180 -14 -17 -64 -88 -122 -170 -21 -30 -41 -57 -45 -60 -4 -3 -13 -16
-20 -29 -7 -14 -17 -30 -22 -35 -19 -22 -196 -295 -263 -406 -39 -63 -75 -124
-82 -135 -7 -11 -15 -27 -19 -35 -4 -8 -21 -38 -38 -65 -17 -28 -40 -68 -51
-90 -11 -22 -22 -42 -26 -45 -3 -3 -59 -113 -125 -245 -108 -215 -204 -429
-264 -585 -11 -30 -25 -64 -30 -75 -5 -11 -18 -49 -30 -85 -12 -36 -24 -72
-27 -80 -3 -8 -7 -19 -9 -25 -1 -5 -16 -59 -34 -120 -17 -60 -33 -117 -35
-126 -34 -158 -45 -212 -50 -245 -2 -21 -7 -50 -10 -64 -6 -33 -13 -89 -22
-175 -10 -90 -10 -370 0 -455 4 -36 10 -83 12 -105 4 -40 11 -79 21 -125 3
-14 7 -36 9 -50 6 -38 12 -60 29 -125 9 -33 19 -69 22 -80 8 -29 10 -38 17
-55 3 -8 20 -55 38 -105 44 -126 180 -404 202 -413 4 -2 7 -8 7 -14 0 -25 198
-298 299 -413 150 -170 430 -428 621 -570 41 -31 83 -62 92 -70 9 -7 27 -19
40 -26 13 -6 25 -15 28 -19 7 -10 180 -123 239 -156 28 -16 51 -32 51 -36 0
-5 4 -8 9 -8 5 0 53 -25 107 -56 55 -31 169 -91 254 -134 130 -65 206 -100
435 -200 11 -4 47 -19 80 -32 90 -35 103 -54 99 -152 -3 -124 -14 -243 -26
-300 -15 -72 -13 -112 6 -141 23 -35 71 -57 115 -52 79 9 110 53 126 177 12
92 14 117 20 220 10 176 12 191 36 216 12 13 26 24 31 24 35 0 719 317 738
342 3 4 17 12 30 17 14 6 43 23 65 36 22 14 51 31 65 38 14 7 36 19 50 28 14
9 71 46 128 83 56 36 131 86 165 111 34 25 73 53 86 62 138 99 348 282 500
434 328 329 556 684 693 1079 16 47 31 92 33 100 2 8 12 51 23 95 12 44 25
107 31 140 6 33 13 74 16 90 20 115 27 492 12 625 -8 73 -24 180 -31 216 -2
12 -7 39 -10 60 -4 22 -9 47 -12 56 -3 9 -7 27 -10 40 -3 13 -7 34 -10 48 -13
58 -29 114 -65 235 -48 159 -120 363 -169 480 -44 107 -122 279 -136 300 -7
11 -14 25 -14 30 -2 13 -112 230 -150 295 -16 28 -30 53 -30 56 0 3 -33 60
-72 127 -40 67 -75 127 -77 132 -2 6 -15 24 -28 41 -12 17 -23 34 -23 38 0 4
-9 19 -19 34 -10 15 -61 90 -112 167 -125 190 -256 375 -423 595 -128 170
-322 418 -335 430 -3 3 -24 27 -46 55 -22 27 -47 57 -55 65 -8 9 -34 38 -57
65 -23 28 -50 60 -60 71 -10 12 -39 46 -64 75 -26 30 -62 70 -80 90 -19 20
-70 76 -114 124 -203 223 -606 635 -622 635 -6 0 -62 -51 -125 -114z m460
-532 c33 -20 78 -67 202 -210 52 -60 97 -111 100 -114 3 -3 27 -32 55 -65 27
-33 54 -65 60 -71 5 -6 24 -28 40 -49 17 -21 35 -43 40 -49 10 -11 26 -30 90
-110 17 -21 42 -52 57 -69 43 -50 87 -148 95 -213 4 -32 7 -61 6 -64 -1 -3 -4
-21 -7 -42 -9 -55 -90 -293 -108 -313 -4 -5 -8 -15 -8 -23 0 -8 -7 -28 -14
-45 -8 -18 -42 -95 -74 -172 -58 -136 -144 -324 -162 -355 -5 -8 -29 -55 -54
-105 -58 -114 -181 -330 -223 -389 -43 -61 -74 -79 -136 -80 -62 0 -109 24
-139 73 -21 33 -21 36 -21 1205 l-1 1172 23 41 c40 70 113 89 179 47z m-546
-8 c72 -31 85 -68 81 -236 -1 -74 -4 -680 -6 -1345 -3 -894 -7 -1220 -16
-1246 -33 -100 -166 -142 -256 -80 -30 20 -52 53 -102 151 -36 69 -83 159
-105 200 -22 41 -48 89 -56 105 -47 91 -239 377 -272 405 -3 3 -35 43 -70 90
-35 47 -68 87 -72 88 -4 2 -8 8 -8 13 0 8 -46 73 -90 126 -5 6 -35 51 -66 99
-89 136 -113 243 -86 372 17 74 42 120 140 252 87 116 252 331 262 340 3 3 16
19 29 35 22 30 43 55 175 209 62 73 148 172 201 230 11 13 52 58 90 101 91
102 147 124 227 91z m1636 -1375 c22 -11 53 -37 69 -58 28 -36 142 -207 153
-228 3 -5 26 -43 53 -83 26 -40 47 -76 47 -81 0 -4 9 -16 20 -26 11 -10 20
-22 20 -26 0 -5 27 -53 60 -108 33 -55 60 -102 60 -105 0 -2 18 -34 41 -71
101 -167 138 -287 134 -430 -4 -105 -10 -138 -41 -235 -3 -8 -5 -16 -5 -18 1
-3 -72 -145 -99 -192 -74 -129 -286 -349 -544 -565 -26 -22 -60 -50 -74 -63
-15 -12 -31 -26 -37 -30 -27 -20 -151 -117 -155 -122 -3 -4 -54 -44 -115 -90
-60 -47 -112 -87 -115 -90 -3 -3 -25 -21 -50 -40 -25 -19 -52 -40 -60 -47 -23
-18 -154 -126 -166 -138 -6 -5 -37 -32 -70 -60 -32 -27 -77 -69 -99 -93 -67
-72 -102 -94 -154 -97 -25 -1 -50 0 -56 4 -5 3 -12 6 -15 7 -26 4 -61 33 -77
63 -18 35 -19 61 -18 682 1 356 5 658 9 672 3 14 21 36 39 49 86 60 167 147
310 330 16 20 119 176 154 233 92 149 266 495 357 710 26 61 51 119 56 130 5
11 19 44 30 74 35 91 80 137 158 162 41 13 136 2 180 -20z m-2858 -338 c29
-15 61 -46 90 -86 75 -105 244 -332 250 -337 4 -3 33 -41 66 -85 32 -44 62
-82 65 -85 9 -7 99 -149 99 -156 0 -3 8 -18 19 -32 49 -71 314 -598 476 -947
20 -44 47 -102 60 -130 51 -108 104 -223 135 -294 l32 -74 2 -201 c2 -209 -3
-245 -38 -284 -28 -31 -44 -39 -93 -47 -49 -7 -102 16 -143 60 -14 15 -65 61
-115 103 -49 41 -94 80 -100 86 -5 6 -32 29 -60 51 -27 21 -52 42 -55 45 -3 3
-30 25 -60 50 -30 25 -57 47 -60 50 -3 3 -23 18 -45 35 -22 16 -42 32 -45 35
-3 3 -43 35 -90 70 -47 35 -87 66 -90 70 -3 3 -45 37 -95 75 -49 38 -92 72
-95 75 -3 3 -27 23 -55 45 -27 21 -52 42 -55 45 -3 3 -36 32 -74 65 -112 96
-279 268 -336 343 -14 19 -30 39 -36 46 -7 7 -34 46 -61 87 -149 223 -185 428
-114 646 37 113 79 198 190 381 47 79 95 160 106 180 33 59 101 120 148 132
23 6 47 12 52 14 22 7 82 -8 125 -31z m3745 -1376 c56 -13 113 -114 139 -247
2 -8 6 -22 9 -30 17 -46 69 -276 83 -367 3 -21 7 -49 10 -63 6 -38 14 -110 19
-181 24 -301 -23 -386 -381 -689 -87 -74 -430 -312 -454 -315 -3 0 -23 -12
-45 -26 -22 -14 -87 -51 -145 -83 -58 -31 -112 -61 -120 -66 -32 -19 -242
-121 -443 -214 -42 -20 -84 -36 -92 -36 -8 0 -15 -4 -15 -8 0 -5 -6 -9 -12 -9
-7 0 -35 -10 -63 -23 -153 -70 -538 -210 -563 -205 -91 18 -112 63 -108 230 4
135 7 157 35 258 61 219 170 386 406 622 214 213 313 299 648 558 116 89 217
169 226 177 9 8 35 28 56 45 22 16 45 34 51 40 6 5 30 26 54 45 168 135 358
318 484 468 77 92 97 108 145 122 23 6 36 6 76 -3z m-4445 -92 c16 -8 53 -40
82 -71 54 -57 280 -282 321 -319 19 -17 181 -153 242 -203 11 -10 47 -37 80
-62 33 -25 62 -47 65 -50 3 -3 43 -35 90 -70 47 -36 87 -67 90 -71 3 -3 23
-18 45 -35 22 -16 45 -34 50 -40 6 -6 46 -40 90 -75 44 -35 95 -77 114 -94 19
-16 59 -52 90 -80 59 -52 308 -300 352 -350 14 -17 55 -73 90 -125 103 -152
163 -301 185 -460 12 -82 7 -438 -6 -486 -25 -88 -126 -155 -226 -149 -61 4
-80 13 -231 114 -65 43 -206 133 -313 200 -228 142 -208 129 -290 179 -68 42
-265 183 -311 224 -15 13 -51 43 -80 68 -101 85 -369 363 -419 434 -8 12 -23
30 -33 41 -10 11 -51 63 -90 115 -39 52 -74 97 -77 100 -4 3 -40 55 -81 115
-41 61 -77 112 -81 113 -5 2 -8 7 -8 12 0 5 -29 54 -64 110 -72 113 -96 174
-98 247 -1 44 7 115 17 153 2 8 7 31 10 50 3 19 11 55 16 80 6 25 12 52 14 60
2 8 15 60 30 115 38 143 72 189 163 221 45 15 131 10 172 -11z m-139 -1535
c36 -10 84 -56 163 -154 22 -26 49 -58 60 -70 142 -149 185 -192 257 -261 150
-142 312 -267 494 -380 106 -66 448 -282 503 -317 15 -10 34 -21 42 -25 8 -3
17 -9 20 -13 3 -3 52 -37 110 -75 58 -38 107 -72 108 -77 2 -4 9 -8 16 -8 7 0
21 -8 32 -18 10 -10 62 -47 114 -84 111 -77 154 -118 180 -169 29 -57 33 -89
34 -294 1 -183 0 -191 -23 -228 -41 -66 -93 -85 -178 -67 -46 11 -320 143
-431 209 -29 17 -55 31 -58 31 -2 0 -41 22 -85 50 -44 27 -84 50 -89 50 -5 0
-10 3 -12 8 -1 4 -38 29 -81 56 -133 82 -357 250 -501 376 -67 58 -319 312
-356 358 -19 24 -45 56 -58 70 -119 137 -306 446 -382 632 -12 30 -26 64 -31
75 -24 56 -57 174 -54 191 2 10 4 27 4 37 1 21 56 78 91 94 32 15 65 16 111 3z
m4649 -162 c39 -31 57 -66 55 -106 -1 -32 -68 -208 -84 -222 -3 -3 -23 -39
-44 -80 -57 -115 -103 -188 -247 -394 -120 -173 -406 -466 -590 -606 -18 -14
-38 -29 -44 -35 -77 -71 -424 -299 -591 -388 -22 -12 -42 -25 -45 -28 -3 -3
-102 -54 -221 -114 -184 -91 -223 -107 -270 -110 -92 -4 -141 41 -156 145 -5
30 -8 235 -8 455 1 408 3 425 39 460 25 24 65 44 136 68 186 63 483 179 647
253 28 13 54 24 56 24 17 0 480 229 567 280 30 18 64 37 75 42 11 5 29 14 40
21 215 129 327 201 454 295 41 30 86 58 100 63 37 11 102 0 131 -23z"/>
</g>
</svg>
