<svg width="94" height="33" viewBox="0 0 94 33" fill="none" xmlns="http://www.w3.org/2000/svg">
<path d="M92.1007 11.6279L89.2842 10.0161L86.427 8.37992C84.5384 7.29726 82.1777 8.65669 82.1777 10.8383V11.2046C82.1777 11.4081 82.2835 11.5953 82.4626 11.693L83.7895 12.4501C84.1558 12.6617 84.6117 12.3931 84.6117 11.9698V11.0988C84.6117 10.6673 85.0757 10.3987 85.4501 10.6104L88.055 12.1082L90.6518 13.5979C91.0262 13.8095 91.0262 14.3549 90.6518 14.5666L88.055 16.0562L85.4501 17.554C85.0757 17.7657 84.6117 17.4971 84.6117 17.0656V16.6342C84.6117 14.4526 82.251 13.085 80.3624 14.1758L77.5052 15.812L74.6886 17.4238C72.7919 18.5146 72.7919 21.2579 74.6886 22.3487L77.5052 23.9605L80.3624 25.5967C82.251 26.6793 84.6117 25.3199 84.6117 23.1383V22.772C84.6117 22.5685 84.5058 22.3812 84.3268 22.2836L82.9999 21.5265C82.6336 21.3149 82.1777 21.5835 82.1777 22.0068V22.8778C82.1777 23.3092 81.7137 23.5779 81.3393 23.3662L78.7344 21.8684L76.1376 20.3787C75.7632 20.1671 75.7632 19.6217 76.1376 19.41L78.7344 17.9204L81.3393 16.4225C81.7137 16.2109 82.1777 16.4795 82.1777 16.911V17.3424C82.1777 19.524 84.5384 20.8916 86.427 19.8008L89.2842 18.1646L92.1007 16.5528C93.9974 15.4538 93.9974 12.7187 92.1007 11.6279Z" fill="black"/>
<path d="M73.628 12.1655L67.0344 25.7843H64.2992L66.7657 20.6966L62.8828 12.1655H65.6912L68.1821 17.88L70.901 12.1655H73.628Z" fill="black"/>
<path d="M7.69258 17.0007C7.69258 15.3726 6.51224 14.233 5.06327 14.233C3.61429 14.233 2.43395 15.397 2.43395 17.0007C2.43395 18.588 3.61429 19.7684 5.06327 19.7684C6.51224 19.7684 7.69258 18.6287 7.69258 17.0007ZM7.71701 21.836V20.5824C7.00066 21.4534 5.93428 21.9907 4.66439 21.9907C2.01065 21.9907 0 19.8661 0 17.0007C0 14.1597 2.09206 11.9944 4.72137 11.9944C5.9587 11.9944 7.00066 12.5398 7.71701 13.3864V12.1653H10.094V21.836H7.71701Z" fill="black"/>
<path d="M21.6528 19.6868C20.8225 19.6868 20.5864 19.3775 20.5864 18.5635V14.2735H22.1168V12.1652H20.5864V9.80448H18.1525V12.1652H15.0103V11.2046C15.0103 10.3906 15.3197 10.0813 16.1744 10.0813H16.7117V8.20898H15.5395C13.5288 8.20898 12.5764 8.86835 12.5764 10.879V12.1733H11.2251V14.2735H12.5764V21.8359H15.0103V14.2735H18.1525V19.0112C18.1525 20.9811 18.9095 21.8359 20.8795 21.8359H22.1331V19.6868H21.6528Z" fill="black"/>
<path d="M30.3973 16.1297C30.2263 14.8761 29.2006 14.1191 27.9959 14.1191C26.7992 14.1191 25.8061 14.8517 25.5619 16.1297H30.3973ZM25.5375 17.6357C25.7084 19.0684 26.7341 19.8824 28.0366 19.8824C29.0622 19.8824 29.8519 19.4021 30.3158 18.6288H32.8149C32.237 20.6802 30.3973 21.9908 27.9796 21.9908C25.0572 21.9908 23.0059 19.9394 23.0059 17.017C23.0059 14.0947 25.1712 11.9863 28.0366 11.9863C30.9182 11.9863 33.0103 14.1109 33.0103 17.017C33.0103 17.2287 32.994 17.4403 32.9533 17.6357H25.5375Z" fill="black"/>
<path d="M48.5062 17.0008C48.5062 15.4378 47.3259 14.2331 45.8769 14.2331C44.4279 14.2331 43.2476 15.3971 43.2476 17.0008C43.2476 18.5881 44.4279 19.7685 45.8769 19.7685C47.3259 19.7685 48.5062 18.5718 48.5062 17.0008ZM40.8462 25.7841V12.1654H43.2232V13.419C43.9395 12.5317 45.0059 11.9863 46.2758 11.9863C48.8888 11.9863 50.9402 14.1354 50.9402 16.9763C50.9402 19.8173 48.8481 21.9826 46.2188 21.9826C44.9977 21.9826 43.9965 21.5023 43.2964 20.6883V25.776H40.8462V25.7841Z" fill="black"/>
<path d="M59.5144 17.0007C59.5144 15.3726 58.334 14.233 56.885 14.233C55.4361 14.233 54.2557 15.397 54.2557 17.0007C54.2557 18.588 55.4361 19.7684 56.885 19.7684C58.334 19.7684 59.5144 18.6287 59.5144 17.0007ZM59.5388 21.836V20.5824C58.8224 21.4534 57.7561 21.9907 56.4862 21.9907C53.8324 21.9907 51.8218 19.8661 51.8218 17.0007C51.8218 14.1597 53.9138 11.9944 56.5431 11.9944C57.7805 11.9944 58.8224 12.5398 59.5388 13.3864V12.1653H61.9157V21.836H59.5388Z" fill="black"/>
<path d="M36.5565 13.1097C36.5565 13.1097 37.1589 11.9863 38.6486 11.9863C39.2835 11.9863 39.6905 12.2061 39.6905 12.2061V14.6726C39.6905 14.6726 38.7951 14.1191 37.9729 14.2331C37.1507 14.347 36.6298 15.0959 36.6298 16.1053V21.828H34.1714V12.1654H36.5484V13.1097H36.5565Z" fill="black"/>
</svg>
