<svg width="100" height="34" viewBox="0 0 100 34" fill="none" xmlns="http://www.w3.org/2000/svg">
<path d="M82.5988 33.4883H17.4012C7.79007 33.4883 0 26.1017 0 16.9883C0 7.87494 7.79007 0.488312 17.4012 0.488312H82.5988C92.2099 0.488312 100 7.87494 100 16.9883C100.006 26.0957 92.2099 33.4883 82.5988 33.4883Z" fill="#B2FCE4"/>
<path d="M85.2356 13.0434L83.0478 11.8562L80.8284 10.6511C79.3614 9.85368 77.5277 10.855 77.5277 12.4618V12.7316C77.5277 12.8815 77.6099 13.0194 77.749 13.0913L78.7797 13.6489C79.0642 13.8048 79.4183 13.607 79.4183 13.2952V12.6536C79.4183 12.3359 79.7787 12.138 80.0696 12.2939L82.093 13.3971L84.1101 14.4943C84.4009 14.6502 84.4009 15.0519 84.1101 15.2078L82.093 16.305L80.0696 17.4082C79.7787 17.5641 79.4183 17.3662 79.4183 17.0484V16.7307C79.4183 15.1238 77.5846 14.1166 76.1176 14.92L73.8982 16.1251L71.7104 17.3123C70.2371 18.1157 70.2371 20.1362 71.7104 20.9396L73.8982 22.1268L76.1176 23.3319C77.5846 24.1293 79.4183 23.128 79.4183 21.5212V21.2514C79.4183 21.1015 79.3361 20.9636 79.197 20.8917L78.1663 20.3341C77.8818 20.1782 77.5277 20.376 77.5277 20.6878V21.3293C77.5277 21.6471 77.1673 21.845 76.8764 21.6891L74.853 20.5859L72.8359 19.4887C72.5451 19.3328 72.5451 18.9311 72.8359 18.7752L74.853 17.678L76.8764 16.5748C77.1673 16.4189 77.5277 16.6168 77.5277 16.9345V17.2523C77.5277 18.8591 79.3614 19.8664 80.8284 19.063L83.0478 17.8579L85.2356 16.6707C86.7089 15.8613 86.7089 13.8468 85.2356 13.0434Z" fill="black"/>
<path d="M70.8826 13.4388L65.7609 23.4695H63.6364L65.5523 19.7223L62.5361 13.4388H64.7176L66.6525 17.6478L68.7644 13.4388H70.8826Z" fill="black"/>
<path d="M19.6711 17.0002C19.6711 15.8011 18.7543 14.9617 17.6288 14.9617C16.5033 14.9617 15.5864 15.8191 15.5864 17.0002C15.5864 18.1694 16.5033 19.0388 17.6288 19.0388C18.7543 19.0388 19.6711 18.1994 19.6711 17.0002ZM19.6901 20.5617V19.6383C19.1337 20.2799 18.3053 20.6756 17.3189 20.6756C15.2576 20.6756 13.6958 19.1107 13.6958 17.0002C13.6958 14.9078 15.3208 13.3129 17.3632 13.3129C18.3243 13.3129 19.1337 13.7146 19.6901 14.3382V13.4388H21.5365V20.5617H19.6901Z" fill="black"/>
<path d="M30.5154 18.9789C29.8705 18.9789 29.6871 18.7511 29.6871 18.1515V14.9918H30.8758V13.4389H29.6871V11.7002H27.7965V13.4389H25.3558V12.7314C25.3558 12.1319 25.5961 11.9041 26.26 11.9041H26.6773V10.5251H25.7668C24.205 10.5251 23.4652 11.0107 23.4652 12.4916V13.4449H22.4155V14.9918H23.4652V20.5618H25.3558V14.9918H27.7965V18.4813C27.7965 19.9322 28.3845 20.5618 29.9147 20.5618H30.8885V18.9789H30.5154Z" fill="black"/>
<path d="M37.3063 16.3587C37.1735 15.4354 36.3768 14.8778 35.441 14.8778C34.5115 14.8778 33.7401 15.4174 33.5504 16.3587H37.3063ZM33.5314 17.4679C33.6642 18.5232 34.4609 19.1227 35.4726 19.1227C36.2693 19.1227 36.8827 18.769 37.2431 18.1994H39.1843C38.7353 19.7103 37.3063 20.6756 35.4284 20.6756C33.1584 20.6756 31.5649 19.1647 31.5649 17.0123C31.5649 14.8598 33.2469 13.3069 35.4726 13.3069C37.711 13.3069 39.336 14.8718 39.336 17.0123C39.336 17.1681 39.3234 17.324 39.2918 17.4679H33.5314Z" fill="black"/>
<path d="M51.3749 17.0003C51.3749 15.8491 50.458 14.9617 49.3325 14.9617C48.207 14.9617 47.2901 15.8191 47.2901 17.0003C47.2901 18.1694 48.207 19.0388 49.3325 19.0388C50.458 19.0388 51.3749 18.1574 51.3749 17.0003ZM45.4248 23.4696V13.4389H47.2711V14.3622C47.8276 13.7087 48.6559 13.3069 49.6423 13.3069C51.672 13.3069 53.2655 14.8898 53.2655 16.9823C53.2655 19.0748 51.6404 20.6696 49.5981 20.6696C48.6496 20.6696 47.8718 20.3158 47.3281 19.7163V23.4636H45.4248V23.4696Z" fill="black"/>
<path d="M59.9241 17.0002C59.9241 15.8011 59.0072 14.9617 57.8817 14.9617C56.7562 14.9617 55.8393 15.8191 55.8393 17.0002C55.8393 18.1694 56.7562 19.0388 57.8817 19.0388C59.0072 19.0388 59.9241 18.1994 59.9241 17.0002ZM59.943 20.5617V19.6383C59.3866 20.2799 58.5583 20.6756 57.5719 20.6756C55.5105 20.6756 53.9487 19.1107 53.9487 17.0002C53.9487 14.9078 55.5738 13.3129 57.6161 13.3129C58.5772 13.3129 59.3866 13.7146 59.943 14.3382V13.4388H61.7894V20.5617H59.943Z" fill="black"/>
<path d="M42.0929 14.1343C42.0929 14.1343 42.5608 13.3069 43.7179 13.3069C44.2111 13.3069 44.5273 13.4688 44.5273 13.4688V15.2855C44.5273 15.2855 43.8318 14.8778 43.1931 14.9617C42.5545 15.0457 42.1498 15.5973 42.1498 16.3407V20.5557H40.2402V13.4389H42.0866V14.1343H42.0929Z" fill="black"/>
</svg>
