<svg width="162" height="34" viewBox="0 0 162 34" fill="none" xmlns="http://www.w3.org/2000/svg">
<g clip-path="url(#clip0_5_14)">
<path fill-rule="evenodd" clip-rule="evenodd" d="M63.8542 26.7048C57.8921 31.4546 49.2483 33.9804 41.8046 33.9804C31.373 33.9804 21.9789 29.8177 14.8697 22.8884C14.3122 22.3438 14.8094 21.6008 15.4803 22.0221C23.1497 26.84 32.6353 29.7417 42.4307 29.7417C49.039 29.7417 56.3035 28.2608 62.9877 25.2001C63.9958 24.7394 64.8413 25.9174 63.8542 26.7048Z" fill="#F79C34"/>
<path fill-rule="evenodd" clip-rule="evenodd" d="M66.3357 23.6462C65.5725 22.5924 61.295 23.1469 59.3728 23.3956C58.7906 23.4715 58.7001 22.922 59.2247 22.5243C62.6377 19.9363 68.2305 20.6832 68.8803 21.5505C69.5348 22.4237 68.7076 28.4768 65.5104 31.3648C65.0177 31.8088 64.5498 31.572 64.7682 30.9859C65.4884 29.0452 67.0989 24.7019 66.3357 23.6462Z" fill="#F79C34"/>
<path fill-rule="evenodd" clip-rule="evenodd" d="M59.5083 4.24358V1.72958C59.5101 1.34676 59.777 1.0922 60.0987 1.09319L70.5385 1.0922C70.8722 1.0922 71.1409 1.35367 71.1409 1.72662V3.88247C71.1372 4.24457 70.8548 4.71619 70.3548 5.46506L64.9466 13.8003C66.9538 13.75 69.077 14.0746 70.9014 15.1807C71.3127 15.4303 71.4233 15.8003 71.4553 16.1624V18.8451C71.4553 19.2151 71.0806 19.6423 70.6857 19.4203C67.473 17.6029 63.2091 17.4046 59.6554 19.442C59.2926 19.6512 58.9133 19.2289 58.9133 18.8589V16.3084C58.9133 15.9009 58.9206 15.2024 59.3017 14.5808L65.5663 4.878L60.1115 4.87702C59.7779 4.87702 59.5101 4.62049 59.5083 4.24358ZM21.4271 19.9482H18.2509C17.9483 19.9275 17.707 19.6828 17.6824 19.369L17.6851 1.77201C17.6851 1.42076 17.9593 1.13956 18.2984 1.13956L21.2561 1.13858C21.5651 1.15535 21.8137 1.40793 21.8329 1.72958V4.02652H21.8932C22.6637 1.80457 24.1161 0.767593 26.073 0.767593C28.0591 0.767593 29.3049 1.80457 30.1942 4.02652C30.9647 1.80457 32.7141 0.767593 34.5815 0.767593C35.9159 0.767593 37.3683 1.36057 38.2576 2.69355C39.2658 4.1755 39.0592 6.32247 39.0592 8.21093L39.0555 19.3157C39.0555 19.666 38.7822 19.9482 38.4431 19.9482H35.2715C34.9516 19.9265 34.7012 19.6542 34.7012 19.3167L34.7003 9.98789C34.7003 9.2479 34.7597 7.39694 34.6107 6.69345C34.374 5.50749 33.6629 5.174 32.7443 5.174C31.9729 5.174 31.1722 5.72949 30.8459 6.61748C30.5196 7.50744 30.5498 8.98742 30.5498 9.98789V19.3157C30.5498 19.666 30.2756 19.9482 29.9374 19.9482H26.7649C26.4459 19.9265 26.1945 19.6542 26.1945 19.3167L26.1909 9.98789C26.1909 8.02544 26.4879 5.13848 24.2349 5.13848C21.9517 5.13848 22.0413 7.95144 22.0413 9.98789L22.0394 19.3157C22.0394 19.666 21.7652 19.9482 21.4271 19.9482ZM80.1567 4.36001C77.815 4.36001 77.6669 7.80245 77.6669 9.9504C77.6669 12.0984 77.6376 16.6903 80.1283 16.6903C82.5888 16.6903 82.7077 12.9873 82.7077 10.7289C82.7077 9.2479 82.6473 7.46995 82.2324 6.06298C81.8768 4.84051 81.1648 4.36001 80.1567 4.36001ZM80.1283 0.767593C84.8419 0.767593 87.391 5.13848 87.391 10.6924C87.391 16.0598 84.575 20.3192 80.1283 20.3192C75.5025 20.3192 72.9826 15.9493 72.9826 10.5069C72.9826 5.026 75.5318 0.767593 80.1283 0.767593ZM93.5048 19.9482H90.3396C90.0225 19.9265 89.7702 19.6542 89.7702 19.3167L89.7647 1.7138C89.7921 1.39116 90.0554 1.13956 90.3753 1.13956L93.3211 1.13858C93.599 1.15436 93.8275 1.35761 93.886 1.63092V4.32252H93.9454C94.8356 1.91507 96.0796 0.767593 98.2732 0.767593C99.6963 0.767593 101.09 1.32308 101.98 2.84154C102.809 4.24852 102.809 6.61748 102.809 8.32143V19.3947C102.775 19.7065 102.515 19.9482 102.201 19.9482H99.0172C98.7229 19.9285 98.4862 19.6946 98.4514 19.3947V9.84088C98.4514 7.91493 98.6598 5.1 96.4653 5.1C95.6948 5.1 94.9828 5.65549 94.6272 6.50697C94.1821 7.58144 94.1227 8.65492 94.1227 9.84088V19.3157C94.1172 19.666 93.843 19.9482 93.5048 19.9482ZM54.3871 19.9048C54.1778 20.108 53.8753 20.1218 53.6376 19.9847C52.5829 19.0385 52.3937 18.6014 51.8169 17.6996C50.0739 19.6167 48.8391 20.1919 46.5806 20.1919C43.9071 20.1919 41.8268 18.41 41.8268 14.8482C41.8268 12.0648 43.2243 10.1724 45.2141 9.24494C46.937 8.42799 49.3436 8.27999 51.1862 8.05701V7.61203C51.1862 6.79409 51.2457 5.83111 50.7996 5.12565C50.413 4.49419 49.6708 4.2347 49.0173 4.2347C47.8053 4.2347 46.7295 4.90464 46.4645 6.29287C46.4087 6.60169 46.2003 6.90854 45.9133 6.92433L42.834 6.5642C42.5745 6.50007 42.2856 6.27511 42.3597 5.8469C43.0589 1.87166 46.3475 0.632421 49.3363 0.598875H49.5721C51.1022 0.619594 53.0563 1.07247 54.2463 2.3048C55.7919 3.86372 55.642 5.94162 55.642 8.20599V13.5468C55.642 15.154 56.2608 15.8585 56.8412 16.7238C57.045 17.0366 57.0898 17.4066 56.8312 17.6355C56.1822 18.2225 55.0297 19.3029 54.3962 19.9127L54.3871 19.9048ZM51.1862 11.5458C51.1862 12.8818 51.2155 13.9947 50.5921 15.1826C50.0867 16.1466 49.2842 16.7406 48.393 16.7406C47.1756 16.7406 46.4627 15.7391 46.4627 14.2542C46.4627 11.3337 48.8884 10.8029 51.1862 10.8029V11.5458ZM12.7531 19.9048C12.5429 20.108 12.2394 20.1218 12.0027 19.9847C10.947 19.0385 10.7578 18.6014 10.182 17.6996C8.43808 19.6167 7.20417 20.1919 4.94565 20.1919C2.27218 20.1919 0.191895 18.41 0.191895 14.8482C0.191895 12.0648 1.58759 10.1724 3.57921 9.24494C5.30212 8.42799 7.7087 8.27999 9.55043 8.05701V7.61203C9.55043 6.79409 9.61075 5.83111 9.16471 5.12565C8.77809 4.49419 8.035 4.2347 7.3824 4.2347C6.17042 4.2347 5.09281 4.90464 4.82957 6.29287C4.77473 6.60169 4.56542 6.90854 4.27751 6.92433L1.19913 6.5642C0.938639 6.50007 0.649813 6.27511 0.724761 5.8469C1.42215 1.87166 4.71167 0.632421 7.70139 0.598875H7.9372C9.46725 0.619594 11.4214 1.07247 12.6114 2.3048C14.1561 3.86372 14.0071 5.94162 14.0071 8.20599V13.5468C14.0071 15.154 14.6259 15.8585 15.2063 16.7238C15.4083 17.0366 15.4549 17.4066 15.1963 17.6355C14.5473 18.2225 13.3938 19.3029 12.7604 19.9127L12.7531 19.9048ZM9.55043 11.5458C9.55043 12.8818 9.58059 13.9947 8.95632 15.1826C8.45179 16.1466 7.64929 16.7406 6.75722 16.7406C5.53976 16.7406 4.82683 15.7391 4.82683 14.2542C4.82683 11.3337 7.25352 10.8029 9.55043 10.8029V11.5458ZM146.226 26.2608V24.9683C146.226 24.6003 146.393 24.3467 146.749 24.3694C147.412 24.471 148.351 24.5726 149.017 24.4246C149.887 24.2293 150.512 23.5633 150.881 22.6506C151.401 21.366 151.745 20.33 151.963 19.6502L145.356 1.98118C145.244 1.68124 145.211 1.12476 145.766 1.12476H148.076C148.516 1.12476 148.695 1.42668 148.794 1.72268L153.584 16.0746L158.157 1.72268C158.25 1.42865 158.438 1.12476 158.875 1.12476H161.053C161.604 1.12476 161.573 1.68025 161.463 1.98118L154.909 20.2018C154.061 22.627 152.931 26.4897 150.386 27.1606C149.11 27.5208 147.501 27.3905 146.556 26.9633C146.317 26.8341 146.226 26.4887 146.226 26.2608ZM143.145 18.8717C143.145 19.2003 142.895 19.4697 142.589 19.4697H140.96C140.608 19.4697 140.368 19.1954 140.323 18.8717L140.159 17.6749C139.411 18.3587 138.492 18.9596 137.496 19.3779C135.58 20.181 133.372 20.3142 131.5 19.073C130.147 18.1762 129.428 16.4229 129.428 14.6143C129.428 13.2152 129.828 11.828 130.713 10.8206C131.895 9.44425 133.608 8.76839 135.676 8.76839C136.926 8.76839 138.714 8.92724 140.014 9.38603V6.97761C140.014 4.52873 139.059 3.46906 136.541 3.46906C134.616 3.46906 133.144 3.78281 131.094 4.47051C130.766 4.48235 130.574 4.213 130.574 3.88444V2.51101C130.574 2.18147 130.835 1.86278 131.117 1.76609C132.581 1.0774 134.653 0.648207 136.857 0.569275C139.73 0.569275 143.145 1.26881 143.145 6.03831V18.8717ZM140.014 15.3553V11.7214C138.921 11.3988 137.112 11.2646 136.412 11.2646C135.306 11.2646 134.095 11.5468 133.463 12.2819C132.99 12.8206 132.776 13.5941 132.776 14.342C132.776 15.3089 133.086 16.2788 133.81 16.7583C134.651 17.375 135.955 17.3 137.181 16.9241C138.359 16.563 139.465 15.9246 140.014 15.3553ZM119.129 3.52332C122.743 3.52332 123.727 6.59084 123.727 10.1033C123.748 12.4713 123.344 14.5828 122.208 15.7914C121.358 16.6962 120.409 16.9428 118.979 16.9428C117.707 16.9428 116.033 16.2265 114.783 15.229V5.18584C116.085 4.10644 117.745 3.52332 119.129 3.52332ZM114.229 26.8913H112.047C111.742 26.8913 111.493 26.6219 111.493 26.2934V1.75425C111.493 1.42569 111.742 1.15634 112.047 1.15634H113.717C114.068 1.15634 114.309 1.43063 114.353 1.75425L114.529 3.03986C116.093 1.54113 118.106 0.580128 120.025 0.580128C125.398 0.580128 127.165 5.35949 127.165 10.3293C127.165 15.6464 124.462 19.9186 119.891 19.9186C117.966 19.9186 116.167 19.152 114.783 17.82V26.2934C114.783 26.6219 114.533 26.8913 114.229 26.8913Z" fill="#333E47"/>
</g>
<defs>
<clipPath id="clip0_5_14">
<rect width="161.336" height="33.4111" fill="white" transform="translate(0.191895 0.569275)"/>
</clipPath>
</defs>
</svg>
