<svg width="77" height="24" viewBox="0 0 77 24" fill="currentColor" xmlns="http://www.w3.org/2000/svg">
    <path
        d="M13.0756 23.75C19.634 23.75 24.9506 18.4334 24.9506 11.875C24.9506 5.31662 19.634 0 13.0756 0C6.51724 0 1.20062 5.31662 1.20062 11.875C1.20062 18.4334 6.51724 23.75 13.0756 23.75Z"
        fill="#292929" />
    <path
        d="M15.1296 20.155C18.8741 20.3291 20.877 18.0651 20.877 15.0174C20.877 11.9697 17.655 11.0118 16.0875 10.4893C14.1717 9.87979 12.7784 9.4444 12.7784 8.39947C12.7784 7.52869 13.5622 7.00622 14.7813 7.00622C16.0004 7.00622 17.4808 7.52869 18.9612 8.39947L19.0483 8.48654L20.5287 5.78713L20.4416 5.70005C18.787 4.56804 16.6971 3.9585 14.7813 3.9585C11.5593 3.9585 9.29519 5.96129 9.29519 8.74778C9.29519 11.9697 12.5172 12.9275 14.0847 13.3629C16.0004 13.7983 17.3937 14.2337 17.3937 15.4528C17.3937 16.4106 16.5229 17.1943 15.0425 17.0202C12.7784 16.6719 8.85979 14.1466 5.89903 14.1466C3.37368 14.1466 1.54497 15.2786 0.5 17.2814L3.2866 18.7617C3.63492 18.0651 4.24449 17.2814 5.5507 17.2814C8.68563 17.2814 11.5593 20.0679 15.1296 20.155Z"
        fill="white" />
    <path
        d="M36.2286 20.5731C32.3778 20.5731 29.6172 17.5869 29.6172 13.8541C29.6172 10.1213 32.3778 7.08838 36.2286 7.08838C39.3139 7.08838 41.6337 8.83813 42.376 11.7311H38.8731C38.4324 10.8678 37.4117 10.098 36.2054 10.098C34.396 10.098 32.9345 11.801 32.9345 13.8774C32.9345 15.9071 34.396 17.5636 36.2054 17.5636C37.4117 17.5636 38.4556 16.817 38.8963 15.9071H42.3992C41.6569 18.8701 39.3371 20.5731 36.2286 20.5731Z"
        fill="#882A2B" />
    <path
        d="M55.4367 20.5732C51.8643 20.5732 49.7533 18.1935 49.7533 14.834V7.41504H53.0241V14.9273C53.0241 15.6505 53.2793 17.377 55.4367 17.377C56.875 17.377 57.9189 16.3504 57.9189 14.9273V7.41504H61.1897V14.834C61.2129 18.1002 58.9164 20.5732 55.4367 20.5732Z"
        fill="#882A2B" />
    <path
        d="M69.935 20.5724C66.061 20.5724 63.3469 17.5862 63.3469 13.8534V2.375H66.6642V8.65079C67.6385 7.62426 68.8911 7.15766 70.399 7.15766C73.7858 7.15766 76.5 10.1906 76.5 13.8767C76.5 17.5862 73.7858 20.5724 69.935 20.5724ZM69.935 10.1906C68.1256 10.1906 66.6642 11.847 66.6642 13.8767C66.6642 15.8831 68.1256 17.4929 69.935 17.4929C71.7444 17.4929 73.2059 15.9298 73.2059 13.8767C73.2059 11.777 71.7444 10.1906 69.935 10.1906Z"
        fill="#882A2B" />
    <path d="M47.1319 20.2691H45.4849H43.8379V13.8534V2.375H45.4849H47.1319V13.8534V20.2691Z" fill="#882A2B" />
</svg>