<svg version="1.0" xmlns="http://www.w3.org/2000/svg"
 width="100%" height="100%" viewBox="0 0 640.000000 480.000000"
 preserveAspectRatio="xMidYMid meet">

<g transform="translate(0.000000,480.000000) scale(0.100000,-0.100000)"
fill="#000000" stroke="none">
<path d="M2260 2395 l0 -665 945 0 945 0 0 665 0 665 -945 0 -945 0 0 -665z
m1720 -5 l0 -500 -775 0 -775 0 0 500 0 500 775 0 775 0 0 -500z" />
<path d="M3538 2734 c-77 -41 -74 -167 4 -210 39 -22 103 -17 136 11 43 36 58
77 43 125 -23 78 -111 114 -183 74z"/>
<path d="M2757 2528 c-207 -375 -217 -397 -217 -459 l0 -59 622 0 c613 0 622
0 603 19 -11 11 -119 105 -239 210 -142 123 -223 187 -230 181 -6 -5 -36 -54
-66 -109 -54 -98 -71 -115 -87 -87 -4 7 -78 87 -163 176 -85 89 -159 168 -163
176 -14 24 -25 16 -60 -48z"/>
</g>
</svg>
