<svg xmlns="http://www.w3.org/2000/svg" width="100%" height="100%" viewBox="0 0 40 40" id="like" color="#68b788">
    <title>like</title>
    <path
      d="M27.8003 5.00068C24.7988 4.98312 21.937 6.30891 20.0087 8.62685C18.0805 6.30013 15.2186 4.96556 12.2084 5.00068C6.57198 5.00068 2 9.60144 2 15.2734C2 25.0017 18.8657 34.493 19.5463 34.8617C19.8255 35.0461 20.1832 35.0461 20.4537 34.8617C21.1343 34.493 38 25.1334 38 15.2734C38.0087 9.60144 33.4367 5.00068 27.8003 5.00068ZM20.0087 33.0267C17.365 31.4726 3.82356 23.1667 3.82356 15.2734C3.82356 10.6111 7.57537 6.83571 12.2084 6.83571C15.0441 6.80059 17.6966 8.24052 19.2322 10.6463C19.5463 11.0765 20.1396 11.1731 20.5671 10.857C20.6457 10.7955 20.7242 10.7253 20.7765 10.6463C23.3156 6.74791 28.507 5.6504 32.3897 8.20540C34.763 9.76826 36.1939 12.4286 36.1852 15.2821C36.1852 23.2545 22.6524 31.5165 20.0087 33.0267Z"
      fill="currentColor" />
  </svg>