<svg width="252" height="52" viewBox="0 0 252 52" fill="none" xmlns="http://www.w3.org/2000/svg">
<path d="M25.704 31.2041H21.63V37.0001H15.036V31.2041H1.05V25.2821L13.146 7.26412H21.588V25.4921H25.704V31.2041ZM15.078 25.4921V14.4881H14.952L7.896 25.4921H15.078ZM37.6943 33.3041C37.6943 35.6141 35.7623 37.4201 33.4943 37.4201C31.1843 37.4201 29.2103 35.6561 29.2103 33.3461C29.2103 31.0781 31.1423 29.1881 33.4943 29.1881C35.7623 29.1881 37.6943 30.9941 37.6943 33.3041ZM64.1881 27.1721C64.1881 34.3961 58.5601 37.7981 52.7221 37.7981C47.3041 37.7981 42.8101 34.9421 41.4241 30.2381L47.8501 28.2641C48.4801 30.3221 50.3281 31.8341 52.6381 31.8341C55.0321 31.8341 57.0901 30.3641 57.0901 27.5081C57.0901 23.9801 53.8981 22.9721 51.0001 22.9721C48.9001 22.9721 45.8341 23.5181 43.7341 24.2741L44.4481 7.26412H62.6761V13.3121H50.7061L50.4541 18.0161C51.3361 17.8061 52.5541 17.7221 53.4361 17.7221C59.4001 17.7221 64.1881 20.9141 64.1881 27.1721ZM84.3265 6.63412L71.3485 39.1841L66.6025 37.6301L79.5805 4.99612L84.3265 6.63412ZM108.772 27.1721C108.772 34.3961 103.144 37.7981 97.3061 37.7981C91.8881 37.7981 87.3941 34.9421 86.0081 30.2381L92.4341 28.2641C93.0641 30.3221 94.9121 31.8341 97.2221 31.8341C99.6161 31.8341 101.674 30.3641 101.674 27.5081C101.674 23.9801 98.4821 22.9721 95.5841 22.9721C93.4841 22.9721 90.4181 23.5181 88.3181 24.2741L89.0321 7.26412H107.26V13.3121H95.2901L95.0381 18.0161C95.9201 17.8061 97.1381 17.7221 98.0201 17.7221C103.984 17.7221 108.772 20.9141 108.772 27.1721Z" fill="#292929"/>
<path d="M121.789 28.2866L117.623 24.8543C117.07 24.3376 116.849 23.5994 117.107 22.8613C117.328 22.1601 117.955 21.6803 118.692 21.6434L124.037 21.2743C124.148 21.2743 124.259 21.2005 124.295 21.0898L126.36 16.1073C126.655 15.443 127.281 15.0001 128.018 15.0001C128.756 15.0001 129.382 15.4061 129.677 16.1073L131.668 21.0898C131.705 21.2005 131.815 21.2743 131.926 21.2743L137.308 21.6434C138.045 21.6803 138.672 22.1601 138.893 22.8613C139.151 23.5994 138.93 24.3376 138.377 24.8173L134.211 28.2497C134.101 28.3235 134.064 28.4342 134.101 28.5449L135.354 33.7488C135.501 34.3024 135.354 34.856 135.022 35.2989C134.69 35.7049 134.174 35.9632 133.658 35.9632C133.327 35.9632 132.995 35.8525 132.7 35.668L128.129 32.863C128.055 32.7892 127.945 32.7892 127.834 32.863L123.3 35.7049C123.005 35.8894 122.673 36.0001 122.342 36.0001C121.789 36.0001 121.273 35.7418 120.941 35.2989C120.609 34.856 120.499 34.3024 120.646 33.7488L121.899 28.5818C121.899 28.4711 121.862 28.3604 121.789 28.2866Z" fill="#F2D96F"/>
<path d="M149.789 28.2866L145.623 24.8543C145.07 24.3376 144.849 23.5994 145.107 22.8613C145.328 22.1601 145.955 21.6803 146.692 21.6434L152.037 21.2743C152.148 21.2743 152.259 21.2005 152.295 21.0898L154.36 16.1073C154.655 15.443 155.281 15.0001 156.018 15.0001C156.756 15.0001 157.382 15.4061 157.677 16.1073L159.668 21.0898C159.705 21.2005 159.815 21.2743 159.926 21.2743L165.308 21.6434C166.045 21.6803 166.672 22.1601 166.893 22.8613C167.151 23.5994 166.93 24.3376 166.377 24.8173L162.211 28.2497C162.101 28.3235 162.064 28.4342 162.101 28.5449L163.354 33.7488C163.501 34.3024 163.354 34.856 163.022 35.2989C162.69 35.7049 162.174 35.9632 161.658 35.9632C161.327 35.9632 160.995 35.8525 160.7 35.668L156.129 32.863C156.055 32.7892 155.945 32.7892 155.834 32.863L151.3 35.7049C151.005 35.8894 150.673 36.0001 150.342 36.0001C149.789 36.0001 149.273 35.7418 148.941 35.2989C148.609 34.856 148.499 34.3024 148.646 33.7488L149.899 28.5818C149.899 28.4711 149.862 28.3604 149.789 28.2866Z" fill="#F2D96F"/>
<path d="M177.789 28.2866L173.623 24.8543C173.07 24.3376 172.849 23.5994 173.107 22.8613C173.328 22.1601 173.955 21.6803 174.692 21.6434L180.037 21.2743C180.148 21.2743 180.259 21.2005 180.295 21.0898L182.36 16.1073C182.655 15.443 183.281 15.0001 184.018 15.0001C184.756 15.0001 185.382 15.4061 185.677 16.1073L187.668 21.0898C187.705 21.2005 187.815 21.2743 187.926 21.2743L193.308 21.6434C194.045 21.6803 194.672 22.1601 194.893 22.8613C195.151 23.5994 194.93 24.3376 194.377 24.8173L190.211 28.2497C190.101 28.3235 190.064 28.4342 190.101 28.5449L191.354 33.7488C191.501 34.3024 191.354 34.856 191.022 35.2989C190.69 35.7049 190.174 35.9632 189.658 35.9632C189.327 35.9632 188.995 35.8525 188.7 35.668L184.129 32.863C184.055 32.7892 183.945 32.7892 183.834 32.863L179.3 35.7049C179.005 35.8894 178.673 36.0001 178.342 36.0001C177.789 36.0001 177.273 35.7418 176.941 35.2989C176.609 34.856 176.499 34.3024 176.646 33.7488L177.899 28.5818C177.899 28.4711 177.862 28.3604 177.789 28.2866Z" fill="#F2D96F"/>
<path d="M205.789 28.2866L201.623 24.8543C201.07 24.3376 200.849 23.5994 201.107 22.8613C201.328 22.1601 201.955 21.6803 202.692 21.6434L208.037 21.2743C208.148 21.2743 208.259 21.2005 208.295 21.0898L210.36 16.1073C210.655 15.443 211.281 15.0001 212.018 15.0001C212.756 15.0001 213.382 15.4061 213.677 16.1073L215.668 21.0898C215.705 21.2005 215.815 21.2743 215.926 21.2743L221.308 21.6434C222.045 21.6803 222.672 22.1601 222.893 22.8613C223.151 23.5994 222.93 24.3376 222.377 24.8173L218.211 28.2497C218.101 28.3235 218.064 28.4342 218.101 28.5449L219.354 33.7488C219.501 34.3024 219.354 34.856 219.022 35.2989C218.69 35.7049 218.174 35.9632 217.658 35.9632C217.327 35.9632 216.995 35.8525 216.7 35.668L212.129 32.863C212.055 32.7892 211.945 32.7892 211.834 32.863L207.3 35.7049C207.005 35.8894 206.673 36.0001 206.342 36.0001C205.789 36.0001 205.273 35.7418 204.941 35.2989C204.609 34.856 204.499 34.3024 204.646 33.7488L205.899 28.5818C205.899 28.4711 205.862 28.3604 205.789 28.2866Z" fill="#F2D96F"/>
<path fill-rule="evenodd" clip-rule="evenodd" d="M240 32.8077C240.049 32.8088 240.093 32.8273 240.129 32.863L244.7 35.668C244.995 35.8525 245.327 35.9632 245.658 35.9632C246.174 35.9632 246.69 35.7049 247.022 35.2989C247.354 34.856 247.501 34.3024 247.354 33.7488L246.101 28.5449C246.064 28.4342 246.101 28.3235 246.211 28.2497L250.377 24.8173C250.93 24.3376 251.151 23.5994 250.893 22.8613C250.672 22.1601 250.045 21.6803 249.308 21.6434L243.926 21.2743C243.815 21.2743 243.705 21.2005 243.668 21.0898L241.677 16.1073C241.382 15.4061 240.756 15.0001 240.018 15.0001C239.281 15.0001 238.655 15.443 238.36 16.1073L236.295 21.0898C236.259 21.2005 236.148 21.2743 236.037 21.2743L230.692 21.6434C229.955 21.6803 229.328 22.1601 229.107 22.8613C229.034 23.0703 229 23.2794 229 23.4834C229.001 23.9998 229.227 24.484 229.623 24.8543L233.789 28.2867C233.854 28.3524 233.891 28.4474 233.898 28.5456C233.899 28.5576 233.899 28.5697 233.899 28.5818C233.899 28.5819 233.899 28.5819 233.899 28.5819L232.646 33.7488C232.63 33.8077 232.618 33.8666 232.608 33.9254C232.583 34.0737 232.576 34.2212 232.587 34.3658C232.613 34.7021 232.734 35.0222 232.941 35.299C233.273 35.7419 233.789 36.0002 234.342 36.0002C234.673 36.0002 235.005 35.8895 235.3 35.705L239.834 32.8631C239.891 32.8251 239.948 32.8067 240 32.8078V32.8077ZM240 31.762V16.1076C240.007 16.1074 240.013 16.1073 240.018 16.1073C240.129 16.1073 240.498 16.1442 240.682 16.5502L242.746 21.5326C242.931 22.0124 243.41 22.3446 243.926 22.3815L249.271 22.7875C249.676 22.8244 249.824 23.1565 249.861 23.2673C249.897 23.378 249.971 23.7101 249.676 24.0054L245.474 27.4377C245.069 27.7699 244.884 28.3235 244.995 28.8402L246.248 34.0441C246.322 34.3393 246.211 34.5608 246.101 34.6715C245.99 34.8191 245.769 34.9298 245.585 34.9298C245.474 34.9298 245.363 34.8929 245.216 34.8191L240.608 31.9773C240.424 31.8543 240.214 31.7825 240 31.762Z" fill="#F2D96F"/>
</svg>
