<svg width="40" height="40" viewBox="0 0 40 40" fill="none" xmlns="http://www.w3.org/2000/svg" id="higher_discounts">
    <path d="M35.438 10.2564V13.9795C35.438 16.4103 33.8995 17.9487 31.4687 17.9487H26.2072V7.19481C26.2072 5.4871 27.6072 4.10248 29.3149 4.10248C30.9918 4.11786 32.5303 4.79479 33.638 5.90249C34.7457 7.02558 35.438 8.56405 35.438 10.2564Z" stroke="#882A2B" strokeWidth="2" strokeMiterlimit="10" strokeLinecap="round" strokeLinejoin="round"/>
    <path d="M4.6687 11.795V33.3336C4.6687 34.6105 6.11487 35.3336 7.13026 34.5644L9.76105 32.5951C10.3764 32.1336 11.238 32.1951 11.7918 32.749L14.3457 35.3182C14.9457 35.9182 15.9303 35.9182 16.5303 35.3182L19.115 32.7336C19.6534 32.1951 20.515 32.1336 21.115 32.5951L23.7458 34.5644C24.7612 35.3182 26.2073 34.5951 26.2073 33.3336V7.17955C26.2073 5.48723 27.592 4.1026 29.2843 4.1026H12.3611H10.8226C6.20718 4.1026 4.6687 6.85647 4.6687 10.2565V11.795Z" stroke="#882A2B" strokeWidth="2" strokeMiterlimit="10" strokeLinecap="round" strokeLinejoin="round"/>
    <path d="M11.2384 22.1487L19.6384 13.7487" stroke="#882A2B" strokeWidth="2" stroke-linecap="round" stroke-linejoin="round"/>
    <path d="M19.9381 21.7949H19.9692" stroke="#882A2B" strokeWidth="3.00857" stroke-linecap="round" stroke-linejoin="round"/>
    <path d="M11.1224 14.1025H11.1535" stroke="#882A2B" strokeWidth="3.00857" stroke-linecap="round" stroke-linejoin="round"/>
</svg>
