<svg width="40" height="40" viewBox="0 0 40 40" fill="none" xmlns="http://www.w3.org/2000/svg" id="priority_support">
    <path d="M27.386 14.6239H25.2612C24.6882 8.25684 20.8225 4 15.6197 4C9.89115 4 5.89081 9.05727 5.89081 16.2957C5.84246 19.3039 6.75856 22.2486 8.50495 24.6984C8.56489 24.7794 8.64161 24.8466 8.72988 24.8952C8.81814 24.9439 8.91587 24.9729 9.01639 24.9803C9.1169 24.9878 9.21783 24.9734 9.31229 24.9383C9.40675 24.9031 9.4925 24.848 9.5637 24.7766C10.2317 24.1069 11.0102 23.5574 11.8649 23.1521C11.9977 23.2649 12.1342 23.3723 12.2724 23.4741C12.1465 23.9262 11.9011 24.3361 11.5621 24.6606C11.2232 24.9852 10.8031 25.2125 10.3459 25.3188L8.68686 25.5807C7.37122 25.7684 6.16927 26.4296 5.30649 27.4405C4.44372 28.4513 3.97941 29.7422 4.0007 31.071V35.708C4.0007 35.8939 4.07443 36.0722 4.20572 36.2039C4.33702 36.3355 4.51517 36.4097 4.70108 36.4102H26.6056C26.7915 36.4097 26.9697 36.3355 27.101 36.2039C27.2323 36.0722 27.306 35.8939 27.306 35.708V32.7391L30.957 31.0764C32.7472 30.2609 34.2044 28.8573 35.0862 27.0988C35.968 25.3403 36.2213 23.333 35.8041 21.4106C35.3868 19.4881 34.3241 17.7665 32.7926 16.5318C31.2612 15.2971 29.3532 14.6238 27.386 14.6239ZM24.097 27.5854C22.6708 27.584 21.3034 27.0168 20.2949 26.0083C19.2864 24.9998 18.7192 23.6324 18.7177 22.2062C18.7197 20.5813 19.366 19.0236 20.5149 17.8746C21.6639 16.7257 23.2216 16.0793 24.8465 16.0774H27.3933C29.0285 16.0776 30.6144 16.6374 31.8873 17.6639C33.1602 18.6903 34.0434 20.1215 34.3901 21.7196C34.7368 23.3176 34.526 24.9861 33.7929 26.4478C33.0598 27.9094 31.8485 29.0761 30.3604 29.7539L27.366 31.1182V30.8472C27.3627 29.9819 27.0169 29.1531 26.4044 28.5419C25.7918 27.9307 24.9623 27.5869 24.097 27.5854ZM15.2358 24.6439C15.2697 24.6467 15.3038 24.6467 15.3377 24.6439H15.8835H15.9817C16.5243 24.5671 17.056 24.4273 17.5662 24.2273C17.7371 24.7717 17.9748 25.2929 18.2739 25.779L15.6506 28.2221L12.7163 25.4934C13.0639 25.112 13.3361 24.6682 13.5186 24.1854C14.0689 24.4115 14.6461 24.5656 15.2358 24.6439ZM22.5234 14.9896C22.5645 14.3141 22.5645 13.6367 22.5234 12.9612C22.5112 12.8064 22.448 12.6601 22.3436 12.5451C22.2392 12.4302 22.0996 12.3532 21.9467 12.3263C19.3799 11.8751 18.9106 9.82678 18.8924 9.74128C18.8646 9.60192 18.7951 9.47429 18.6931 9.37536C18.5911 9.27643 18.4614 9.21086 18.3213 9.18737C18.1811 9.16388 18.0371 9.18357 17.9084 9.24384C17.7798 9.30411 17.6724 9.4021 17.6008 9.5248C17.5898 9.54299 16.462 11.344 13.5222 12.2135C12.223 12.5335 10.8706 12.5738 9.55461 12.3318C9.45671 12.3118 9.35568 12.313 9.25828 12.3353C9.16088 12.3575 9.06936 12.4003 8.98981 12.4607C8.91025 12.5212 8.84451 12.5979 8.79698 12.6858C8.74944 12.7736 8.72121 12.8706 8.71416 12.9703C8.67232 13.5633 8.38306 18.7916 10.8771 22.0843C10.2803 22.4021 9.71874 22.7819 9.20169 23.2176C7.92636 21.1396 7.26596 18.7428 7.29702 16.3048C7.29702 9.88862 10.7207 5.40621 15.6233 5.40621C20.0384 5.40621 23.3402 9.13186 23.8678 14.6839C23.4106 14.7441 22.9599 14.8464 22.5216 14.9896H22.5234ZM10.0785 13.8271C11.3574 13.9753 12.6527 13.8853 13.8988 13.5615C15.4423 13.1491 16.853 12.3444 17.9937 11.2257C18.3353 11.8092 18.7897 12.3188 19.3304 12.7248C19.871 13.1308 20.4871 13.4252 21.1427 13.5906C21.1607 14.2692 21.14 14.9482 21.0808 15.6244C19.9223 16.2886 18.9592 17.2464 18.2885 18.4012C17.6179 19.556 17.2633 20.8671 17.2606 22.2025C17.2606 22.4008 17.2697 22.6064 17.2897 22.8156C16.8273 23.0268 16.3373 23.1713 15.8343 23.2449H15.385C10.4133 22.5045 10.0512 16.041 10.0767 13.8271H10.0785ZM16.1309 29.6938L19.1343 26.8942C19.7728 27.57 20.5423 28.1087 21.3958 28.4774C22.2494 28.8462 23.169 29.0372 24.0988 29.0389C24.5048 29.0413 24.8984 29.1794 25.2168 29.4312C25.5353 29.6831 25.7603 30.0342 25.8561 30.4288C25.8885 30.6413 25.9049 30.856 25.9052 31.071V35.004H5.39964V31.0673C5.39295 30.2358 5.63709 29.4217 6.10019 28.7311C6.56328 28.0405 7.22383 27.5056 7.99558 27.1961C8.28943 27.0861 8.59444 27.0086 8.90517 26.9651L10.6115 26.6959C10.9525 26.6227 11.2822 26.5046 11.5921 26.3448L15.1776 29.692C15.3096 29.8065 15.4783 29.8696 15.653 29.87C15.8277 29.8703 15.9967 29.8078 16.1291 29.6938H16.1309Z" fill="#882A2B"/>
</svg>
