<svg xmlns="http://www.w3.org/2000/svg" width="100%" height="100%">
    <title>Free Returns Up To 90 Days</title>
    <path fillRule="evenodd" clipRule="evenodd"
        d="M7.12903 24.3383C6.95517 24.8816 7.22876 25.4705 7.74191 25.6548L7.74192 25.6548C8.25447 25.8391 8.80997 25.5486 8.98385 25.0053C13.667 10.3681 28.7094 2.49925 42.5169 7.46367C53.5646 11.4359 60.8042 22.5632 60.4619 34.8084L56.7328 30.7889C56.3533 30.3794 55.7342 30.374 55.3487 30.7766C55.1557 30.9772 55.0573 31.242 55.0553 31.5081C55.0532 31.7737 55.1474 32.04 55.337 32.244L60.7689 38.0991C60.9617 38.3071 61.2162 38.4108 61.4706 38.4098C61.7271 38.4172 61.9861 38.3181 62.1838 38.1118L67.707 32.3534C68.0931 31.9514 68.0983 31.2949 67.7186 30.8859C67.5294 30.6815 67.2797 30.5775 67.0285 30.5753C66.778 30.5731 66.5267 30.6727 66.3342 30.8736L62.4179 34.9566C62.8214 21.7682 55.0383 9.77339 43.1461 5.49751C28.3163 0.165481 12.1588 8.61772 7.12903 24.3383ZM5.31347 34.074C4.92308 47.2499 12.7033 59.2301 24.5867 63.5029C39.4157 68.8346 55.5739 60.3822 60.6035 44.6621C60.7775 44.118 60.5033 43.5296 59.9908 43.3454C59.4777 43.1608 58.9228 43.451 58.7488 43.995C54.0658 58.6316 39.0227 66.5008 25.2156 61.5365C14.0118 57.5081 6.72495 46.1214 7.28939 33.673L11.2678 37.9617C11.6471 38.3708 12.2663 38.3765 12.6521 37.9737C12.845 37.7731 12.9431 37.5085 12.9452 37.2424C12.9473 36.9769 12.8534 36.7102 12.6637 36.5063L7.23164 30.6511C7.03602 30.4399 6.77656 30.3362 6.51822 30.3405C6.26536 30.3363 6.01109 30.4355 5.81628 30.6388L0.293184 36.3974C-0.0932235 36.7994 -0.0982397 37.4559 0.28148 37.8645C0.470773 38.069 0.72026 38.1733 0.971554 38.1754C1.22211 38.1777 1.47331 38.078 1.66576 37.8769L5.31347 34.074Z"
        fill="currentColor" />
    <path
        d="M25.9392 34.7002H21.968L26.9184 27.5466L26.8912 27.5194C26.3472 27.7642 25.4768 27.873 24.824 27.873C21.424 27.873 18.6768 25.2074 18.6768 21.6986C18.6768 17.6186 21.7504 14.953 25.6944 14.953C29.72 14.953 32.7392 17.8362 32.7392 21.5626C32.7392 23.7658 32.0048 25.2618 30.7536 27.2474L25.9392 34.7002ZM29.4208 21.481C29.4208 19.4682 27.9792 17.673 25.7216 17.673C23.5184 17.673 22.0224 19.2506 22.0224 21.5354C22.0224 23.7114 23.4912 25.289 25.6672 25.289C27.8704 25.289 29.4208 23.7386 29.4208 21.481ZM49.096 25.0714C49.096 31.3002 46.6752 35.1898 42.3232 35.1898C37.944 35.1898 35.496 31.3002 35.496 25.0714C35.496 18.8426 37.944 14.953 42.3232 14.953C46.6752 14.953 49.096 18.8426 49.096 25.0714ZM45.7504 25.0714C45.7504 22.3786 45.2336 17.673 42.3232 17.673C39.3856 17.673 38.8416 22.3786 38.8416 25.0714C38.8416 27.7642 39.3856 32.4154 42.3232 32.4154C45.2336 32.4154 45.7504 27.7642 45.7504 25.0714Z"
        fill="currentColor" />
    <path
        d="M19.8336 51.8999V41.0675H23.6739C26.5044 41.0675 29.6562 42.4139 29.6562 46.4837C29.6562 50.2781 26.5044 51.8999 23.6739 51.8999H19.8336ZM21.7614 50.2169H23.3679C25.3569 50.2169 27.5907 49.406 27.5907 46.4837C27.5907 43.3778 25.3569 42.7199 23.3679 42.7199H21.7614V50.2169ZM29.8285 51.8999L34.5409 41.0675H36.2086L40.8751 51.8999H38.6719L37.6621 49.4213H32.965L31.9858 51.8999H29.8285ZM33.6229 47.7689H36.9889L35.3212 43.3625L33.6229 47.7689ZM43.6518 51.8999V47.2028L39.582 41.0675H41.9382L44.6616 45.6269L47.4156 41.0675H49.6494L45.5796 47.2028V51.8999H43.6518Z"
        fill="currentColor" />
</svg>