<svg width="164" height="31" viewBox="0 0 164 31" fill="none" xmlns="http://www.w3.org/2000/svg">
<path fill-rule="evenodd" clip-rule="evenodd" d="M50.1431 8.16355C50.1425 11.979 50.1608 15.7949 50.127 19.6097C50.1196 20.4089 50.0028 21.2306 49.7949 22.0003C49.1414 24.4173 46.9909 25.8541 44.5226 25.6013C41.9981 25.3414 40.3413 23.7839 40.2245 21.1365C40.0572 17.3294 40.1134 13.5116 40.0779 9.69798C40.0699 8.86151 40.0767 8.02446 40.0767 7.13348H35.1979C35.1687 7.28623 35.1372 7.37325 35.1372 7.46027C35.14 12.3566 35.0822 17.2554 35.1933 22.1506C35.222 23.4299 35.6171 24.7684 36.117 25.9572C38.3632 31.2939 45.7236 31.796 49.3419 27.9823C49.5933 27.7171 49.8229 27.4294 50.0629 27.153C50.1299 27.1849 50.1975 27.2169 50.2645 27.2495V29.8956H55.0127V7.12815H50.143L50.1431 8.16355ZM31.0593 6.84971C28.5801 6.75736 26.6054 7.74422 25.0895 9.75402C24.9417 9.95 24.7888 10.1418 24.6382 10.3353C24.5763 10.3176 24.5156 10.2999 24.4543 10.2815V7.12321H19.7336V29.9315H24.6204C24.6204 29.5201 24.6204 29.1963 24.621 28.8719C24.6233 25.2075 24.5929 21.5436 24.6393 17.8809C24.6805 14.6718 26.2881 12.6826 29.2438 12.17C30.0508 12.0303 30.9006 12.1492 31.8055 12.1492C31.8055 10.5734 31.782 9.10756 31.817 7.64246C31.8319 7.04093 31.6011 6.86984 31.0593 6.84971H31.0593ZM9.63979 0.61881H4.65158V7.0686H0.676453V11.6524H4.67447C4.67447 12.0923 4.67391 12.419 4.67447 12.7453C4.67562 16.1125 4.63323 19.4804 4.70483 22.8452C4.72775 23.9067 4.90242 25.0232 5.27065 26.0088C6.54033 29.4116 11.2371 31.3214 14.6257 29.8953C14.7861 29.8284 15.0089 29.6354 15.0117 29.4969C15.0415 28.1608 15.0295 26.8246 15.0295 25.4702C14.4201 25.5299 13.9579 25.6157 13.4981 25.608C13.0073 25.6004 12.5119 25.5347 12.0291 25.4394C10.7491 25.1848 9.92959 24.2778 9.74974 22.9376C9.69363 22.5208 9.65696 22.0987 9.65583 21.679C9.6478 18.5835 9.64895 15.4873 9.65411 12.3907C9.65411 12.1639 9.70737 11.9371 9.74689 11.6257H15.0541V7.06329H9.63979V0.61881ZM158.395 0.618774V10.125C155.101 6.16276 149.827 5.90881 146.247 7.82924C140.688 10.8129 138.487 18.3442 141.486 24.1494C144.243 29.4879 149.651 31.6215 154.916 29.4489C156.332 28.8646 157.505 27.9334 158.618 26.7529V29.9349H163.324V0.618786L158.395 0.618774ZM154.686 25.0327C152.185 26.2091 149.735 25.9332 147.579 24.1087C144.895 21.8354 144.385 17.3197 146.39 14.1899C148.221 11.3293 151.936 10.3815 154.955 12.0036C157.141 13.1787 158.5 15.6639 158.5 18.8938C158.4 21.3962 157.353 23.7784 154.686 25.0327H154.686ZM65.8698 7.3227C60.8816 9.35027 58.0232 14.4159 58.7363 20.0968C59.2952 24.5409 61.5889 27.7595 65.5983 29.433C69.7304 31.1588 73.7353 30.7663 77.3576 27.8921C78.3707 27.0882 79.1645 26.0759 79.7589 24.8647C78.546 24.04 77.4137 23.271 76.2025 22.4475C75.34 24.0205 74.2078 25.195 72.5503 25.6627C70.9187 26.1227 69.2877 26.1517 67.6807 25.4916C65.261 24.497 63.7073 22.3736 63.7737 20.0376H80.5911C80.5911 18.9672 80.6289 18.0372 80.5854 17.1119C80.22 9.27807 72.9484 4.44622 65.8698 7.32271V7.3227ZM75.4706 16.0855H64.0304C64.2675 12.9455 67.0823 10.7605 70.4715 11.0133C73.3814 11.2305 75.6356 13.4913 75.4706 16.0855H75.4706ZM107.753 29.8941H112.604V7.11421H107.753V29.8941ZM136.736 13.7132C136.314 11.1385 135.224 8.97716 132.947 7.65762C129.565 5.69751 125.053 6.46243 122.385 9.39631C122.239 9.55676 122.073 9.69944 121.771 9.98948V7.12897H117.024V29.8947H121.909V28.8469C121.91 25.0315 121.887 21.216 121.927 17.4007C121.936 16.5434 122.061 15.659 122.302 14.8391C122.919 12.731 124.777 11.4411 127.033 11.437C129.354 11.431 130.992 12.57 131.623 14.8119C131.878 15.7171 131.913 16.7086 131.92 17.6629C131.952 21.418 131.934 25.1735 131.934 28.9291V29.9249H136.892C136.905 29.6171 136.923 29.4098 136.923 29.2021C136.923 24.726 136.929 20.2493 136.913 15.7727C136.911 15.0854 136.847 14.391 136.736 13.7132L136.736 13.7132ZM104.694 7.06675C102.687 7.06675 100.81 7.09048 98.9347 7.05259C98.334 7.04072 97.9096 7.21836 97.4881 7.66525C95.1166 10.183 92.7158 12.6724 90.3236 15.1688C90.0854 15.418 89.8322 15.6518 89.4084 16.0668V0.618774H84.5067V29.9166H89.4233V18.6846C89.8253 19.1482 90.055 19.4033 90.2743 19.6674C92.9231 22.8589 95.5833 26.0408 98.2057 29.2547C98.6433 29.7916 99.0888 29.9976 99.7566 29.9781C101.354 29.9307 102.954 29.9651 104.552 29.9592C104.757 29.958 104.961 29.9135 105.278 29.8757C101.729 25.669 98.275 21.5742 94.675 17.3065C97.9949 13.9132 101.286 10.5489 104.694 7.06676L104.694 7.06675Z" fill="#2A2A2A"/>
</svg>
