<svg width="164" height="32" viewBox="0 0 164 32" fill="none" xmlns="http://www.w3.org/2000/svg">
<path fill-rule="evenodd" clip-rule="evenodd" d="M50.1431 9.16351C50.1425 12.979 50.1608 16.7949 50.127 20.6097C50.1196 21.4089 50.0028 22.2306 49.7949 23.0002C49.1414 25.4173 46.9909 26.8541 44.5226 26.6013C41.9981 26.3414 40.3413 24.7839 40.2245 22.1365C40.0572 18.3293 40.1134 14.5116 40.0779 10.6979C40.0699 9.86147 40.0767 9.02442 40.0767 8.13344H35.1979C35.1687 8.2862 35.1372 8.37321 35.1372 8.46023C35.14 13.3566 35.0822 18.2553 35.1933 23.1506C35.222 24.4298 35.6171 25.7684 36.117 26.9571C38.3632 32.2939 45.7236 32.7959 49.3419 28.9823C49.5933 28.717 49.8229 28.4294 50.0629 28.1529C50.1299 28.1849 50.1975 28.2169 50.2645 28.2494V30.8956H55.0127V8.12812H50.143L50.1431 9.16351ZM31.0593 7.84967C28.5801 7.75733 26.6054 8.74419 25.0895 10.754C24.9417 10.95 24.7888 11.1418 24.6382 11.3353C24.5763 11.3176 24.5156 11.2998 24.4543 11.2815V8.12318H19.7336V30.9315H24.6204C24.6204 30.5201 24.6204 30.1963 24.621 29.8718C24.6233 26.2074 24.5929 22.5436 24.6393 18.8809C24.6805 15.6717 26.2881 13.6826 29.2438 13.1699C30.0508 13.0303 30.9006 13.1492 31.8055 13.1492C31.8055 11.5734 31.782 10.1075 31.817 8.64242C31.8319 8.0409 31.6011 7.86981 31.0593 7.84967H31.0593ZM9.63979 1.61877H4.65158V8.06856H0.676453V12.6524H4.67447C4.67447 13.0922 4.67391 13.419 4.67447 13.7452C4.67562 17.1124 4.63323 20.4803 4.70483 23.8452C4.72775 24.9066 4.90242 26.0232 5.27065 27.0088C6.54033 30.4116 11.2371 32.3213 14.6257 30.8952C14.7861 30.8283 15.0089 30.6354 15.0117 30.4969C15.0415 29.1607 15.0295 27.8246 15.0295 26.4701C14.4201 26.5299 13.9579 26.6157 13.4981 26.608C13.0073 26.6004 12.5119 26.5346 12.0291 26.4393C10.7491 26.1848 9.92959 25.2778 9.74974 23.9375C9.69363 23.5208 9.65696 23.0987 9.65583 22.679C9.6478 19.5834 9.64895 16.4873 9.65411 13.3906C9.65411 13.1639 9.70737 12.9371 9.74689 12.6257H15.0541V8.06325H9.63979V1.61877ZM158.395 1.61874V11.1249C155.101 7.16272 149.827 6.90878 146.247 8.8292C140.688 11.8129 138.487 19.3442 141.486 25.1493C144.243 30.4879 149.651 32.6215 154.916 30.4489C156.332 29.8645 157.505 28.9333 158.618 27.7529V30.9349H163.324V1.61875L158.395 1.61874ZM154.686 26.0327C152.185 27.2091 149.735 26.9332 147.579 25.1086C144.895 22.8354 144.385 18.3197 146.39 15.1898C148.221 12.3292 151.936 11.3814 154.955 13.0035C157.141 14.1787 158.5 16.6639 158.5 19.8937C158.4 22.3961 157.353 24.7783 154.686 26.0327H154.686ZM65.8698 8.32266C60.8816 10.3502 58.0232 15.4159 58.7363 21.0967C59.2952 25.5408 61.5889 28.7595 65.5983 30.433C69.7304 32.1587 73.7353 31.7662 77.3576 28.8921C78.3707 28.0881 79.1645 27.0758 79.7589 25.8647C78.546 25.04 77.4137 24.271 76.2024 23.4475C75.34 25.0205 74.2078 26.195 72.5503 26.6627C70.9187 27.1226 69.2877 27.1517 67.6807 26.4916C65.261 25.497 63.7073 23.3736 63.7737 21.0376H80.5911C80.5911 19.9672 80.6289 19.0372 80.5854 18.1119C80.22 10.278 72.9484 5.44618 65.8698 8.32268V8.32266ZM75.4706 17.0855H64.0304C64.2675 13.9455 67.0823 11.7605 70.4715 12.0132C73.3814 12.2304 75.6356 14.4912 75.4706 17.0855H75.4706ZM107.753 30.8941H112.604V8.11418H107.753V30.8941ZM136.736 14.7131C136.314 12.1385 135.224 9.97713 132.947 8.65759C129.565 6.69748 125.053 7.46239 122.385 10.3963C122.239 10.5567 122.073 10.6994 121.771 10.9894V8.12893H117.024V30.8947H121.909V29.8469C121.91 26.0314 121.887 22.216 121.927 18.4006C121.936 17.5434 122.061 16.659 122.302 15.8391C122.919 13.731 124.777 12.441 127.033 12.4369C129.354 12.431 130.992 13.57 131.623 15.8118C131.878 16.717 131.913 17.7086 131.92 18.6629C131.952 22.418 131.934 26.1735 131.934 29.9291V30.9249H136.892C136.905 30.6171 136.923 30.4098 136.923 30.202C136.923 25.7259 136.929 21.2493 136.913 16.7726C136.911 16.0854 136.847 15.391 136.736 14.7131L136.736 14.7131ZM104.694 8.06671C102.687 8.06671 100.81 8.09044 98.9347 8.05255C98.334 8.04068 97.9096 8.21832 97.4881 8.66522C95.1166 11.183 92.7158 13.6723 90.3236 16.1687C90.0854 16.418 89.8322 16.6518 89.4084 17.0668V1.61874H84.5067V30.9165H89.4233V19.6846C89.8253 20.1482 90.055 20.4032 90.2743 20.6673C92.9231 23.8588 95.5833 27.0407 98.2057 30.2547C98.6433 30.7916 99.0888 30.9976 99.7566 30.9781C101.354 30.9307 102.954 30.9651 104.552 30.9592C104.757 30.9579 104.961 30.9135 105.278 30.8757C101.73 26.669 98.275 22.5742 94.675 18.3064C97.9949 14.9131 101.286 11.5488 104.694 8.06672L104.694 8.06671Z" fill="#2A2A2A"/>
<ellipse cx="2.80886" cy="2.81975" rx="2.80886" ry="2.81975" transform="matrix(0.99932 -0.0368841 0.00150895 0.999999 107 0.207153)" fill="#2A2A2A"/>
</svg>
