<svg width="140" height="86" viewBox="0 0 140 86" fill="none" xmlns="http://www.w3.org/2000/svg">
<g clip-path="url(#clip0_227_18248)">
<path d="M19.4473 23.5777C18.5425 24.211 17.6342 24.6585 16.3871 24.6585C13.9313 24.6585 13.6658 22.965 13.6658 22.015V14.8281H12.4187V14.4358L13.6274 14.4185H13.6658V11.7476H13.6728C13.7462 11.7476 13.8125 11.7476 13.8859 11.7579C14.5671 11.8095 15.1749 12.1021 15.6291 12.5495C16.0972 13.0108 16.3976 13.6338 16.436 14.3291C16.436 14.3566 16.4395 14.3841 16.4395 14.4117V14.4185H16.4465V14.4633H19.1503L19.1678 16.2497H19.1398C17.987 15.2997 17.512 14.8109 16.6491 14.8109H16.4465V22.108C16.4465 22.5726 16.4465 23.8186 17.7705 23.8186C18.1862 23.8186 18.6962 23.6878 19.3005 23.354L19.4507 23.5777H19.4473Z" fill="#BFBFBF"/>
<path d="M30.6014 17.7504V24.4348H27.8068V17.4923C27.8068 16.8004 27.7893 15.0519 26.0496 15.0519C25.3265 15.0519 24.6523 15.341 23.8942 16.081C23.8838 16.0914 23.8698 16.1051 23.8593 16.1155V24.4382H21.0612V10.1367H21.386C22.6157 10.271 23.6078 11.1659 23.8453 12.3189C23.8523 12.3775 23.8593 12.4669 23.8628 12.5255V15.7403C24.7501 14.8316 25.7492 14.1948 27.2618 14.1948C29.3787 14.1948 30.6049 15.3135 30.6049 17.7504H30.6014Z" fill="#BFBFBF"/>
<path d="M35.824 20.7965C35.7646 20.972 35.7506 21.2095 35.824 21.5193C35.8415 21.6019 35.8659 21.6914 35.9008 21.7878C35.9113 21.8222 35.9218 21.8566 35.9358 21.891C35.9358 21.891 35.9358 21.8945 35.9358 21.8979C36.4703 23.0166 37.3645 23.557 38.4754 23.557C39.4955 23.557 40.5924 23.0716 41.4797 21.8807L41.7067 22.0115C40.6308 23.6327 39.2125 24.655 37.2493 24.655C34.5245 24.655 32.3936 22.6999 32.3936 19.5711C32.3936 16.7762 34.1193 14.8521 36.4179 14.3358C36.8301 14.2395 37.2632 14.1913 37.7034 14.1913C37.7453 14.1913 37.7872 14.1913 37.8292 14.1947C38.4021 14.1741 39.0553 14.2567 39.747 14.532C39.9007 14.594 40.0579 14.6628 40.2186 14.7454C42.0141 15.6782 42.6779 17.2099 41.9268 18.6177C40.8579 20.6313 37.8152 19.8671 36.4598 20.2492C36.4598 20.2492 36.4598 20.2492 36.4528 20.2492C36.2607 20.3043 36.1035 20.3834 35.9917 20.497C35.9742 20.5108 35.9637 20.5314 35.9498 20.5487C35.9078 20.6037 35.8694 20.6691 35.8415 20.7483C35.838 20.7621 35.831 20.7758 35.8275 20.7896L35.824 20.7965ZM36.5227 19.5023C36.5506 19.4885 36.582 19.4782 36.6135 19.4644C36.6449 19.4507 36.6799 19.4369 36.7148 19.4266C37.6999 19.0617 38.954 18.8104 39.5723 17.6539C39.7121 17.3889 39.7994 17.1239 39.8273 16.8657C40.0684 14.8728 38.6186 14.5389 38.1296 14.4839C38.1016 14.4804 38.0877 14.4804 38.0877 14.4804C38.0597 14.477 38.0318 14.4735 38.0073 14.4735C37.9759 14.4735 37.9549 14.4735 37.9514 14.4735C37.672 14.4735 37.4065 14.5252 37.1689 14.625C36.0476 15.0931 35.3803 16.6213 35.3803 18.9034C35.3803 19.4231 35.4153 19.8981 35.4816 20.3318C35.4921 20.4144 35.5061 20.497 35.5236 20.5796C35.534 20.6554 35.5515 20.7311 35.569 20.8034C35.569 20.7104 35.5795 19.9325 36.5261 19.5057L36.5227 19.5023Z" fill="#BFBFBF"/>
<path d="M74.2854 24.5689C74.2854 29.9866 69.4471 33.2806 60.9129 33.2806H48.2427V1.72778H61.0422C68.3886 1.72778 72.5666 4.24044 72.5666 8.88025C72.5666 13.2137 68.476 15.8159 63.6377 16.5077V16.5938C69.7964 16.9414 74.2819 19.4541 74.2854 24.5689ZM55.2363 16.6798H59.6344C63.2849 16.6798 65.2656 13.5579 65.2656 9.57209C65.2656 5.58626 63.4176 2.41962 59.0615 2.41962H55.2328V16.6798H55.2363ZM66.6734 25.2194C66.6734 20.5383 64.298 17.3751 60.2492 17.3751H55.2328V32.2858C55.893 32.5027 57.7829 32.5887 58.7087 32.5887C64.2945 32.5887 66.6699 29.8592 66.6699 25.2194H66.6734Z" fill="#BFBFBF"/>
<path d="M93.6139 33.3082C86.7705 35.4181 80.3393 32.5888 78.0791 25.4742C75.8329 18.4009 79.5952 12.1089 86.5644 9.95765C93.4078 7.8477 99.839 10.677 102.099 17.7916C104.345 24.8649 100.541 31.1707 93.6139 33.3082V33.3082ZM95.64 20.1012C93.5126 13.3996 90.0647 9.51363 86.4945 10.6151C82.7986 11.7544 82.4597 16.6282 84.5627 23.2472C86.6796 29.9075 90.1136 33.7522 93.6418 32.6645C97.3377 31.5252 97.7185 26.6376 95.6435 20.1012H95.64Z" fill="#BFBFBF"/>
<path d="M130.168 33.2979H123.614L123.698 30.1278C121.63 32.3858 119.213 33.8142 116.093 33.8142C110.417 33.8142 105.973 29.0057 105.973 22.1114C105.973 14.6595 111.252 9.45517 117.763 9.45517C120.142 9.45517 122.074 10.1436 123.614 11.362V0C125.578 0.013768 127.335 0.853615 128.536 2.17534C129.581 3.32497 130.088 4.85322 130.088 6.39867V23.2989L130.084 26.0353C130.084 28.1142 130.171 31.3807 130.171 33.2979H130.168ZM123.614 14.6113C123.597 14.5631 123.583 14.5115 123.565 14.4667C122.748 11.9437 120.97 10.147 118.598 10.147C114.857 10.147 112.831 14.4392 112.831 21.6364C112.831 29.2604 114.989 31.9108 118.374 31.9108C120.18 31.9108 121.85 31.126 123.611 29.0918V14.6078L123.614 14.6113Z" fill="#BFBFBF"/>
<path d="M85.1322 62.0558C82.2712 66.6921 77.5657 69.5972 71.5816 69.5972C62.5619 69.5972 56.2285 63.0952 56.2285 53.647C56.2285 43.3726 63.1802 37.0015 72.682 37.0015C77.8731 37.0015 82.2293 39.5589 84.6921 42.0715L79.2145 46.8938C77.4539 43.2074 76.6854 37.6933 72.5493 37.6933C66.6561 37.6933 63.8405 44.1952 63.8405 52.0843C63.8405 62.0523 68.3259 66.995 74.6173 66.995C77.7858 66.995 81.831 65.8247 84.6047 61.7494L85.1322 62.0523V62.0558Z" fill="#BFBFBF"/>
<path d="M103.8 69.1049C96.957 71.2149 90.5258 68.3855 88.2656 61.2709C86.0194 54.1976 89.7817 47.9056 96.7509 45.7544C103.594 43.6445 110.025 46.4738 112.286 53.5884C114.532 60.6617 110.728 66.9674 103.8 69.1049V69.1049ZM105.827 55.898C103.699 49.1964 100.251 45.3104 96.681 46.4118C92.9851 47.5511 92.6462 52.425 94.7492 59.0439C96.8662 65.7042 100.3 69.5489 103.825 68.4613C107.521 67.3219 107.902 62.4343 105.827 55.898V55.898Z" fill="#BFBFBF"/>
<path d="M139.244 53.4646V69.0224H132.781V52.8519C132.781 51.2479 132.732 47.176 128.641 47.176C126.93 47.176 125.344 47.8713 123.541 49.6474V69.0224H117.075V48.3773H118.312C120.991 51.5164 123.545 48.8248 123.545 48.8248C125.648 46.7492 127.897 45.1797 131.506 45.1797C136.431 45.1797 139.244 47.7818 139.244 53.4646V53.4646Z" fill="#BFBFBF"/>
<path d="M0.0663251 39.0151C0.0488585 38.7225 -0.0384744 38.4162 0.0244053 38.1374C0.579843 35.6316 2.33349 34.2066 4.6286 33.3186C6.73856 32.5028 8.88695 32.5785 11.0004 33.2738C13.7287 34.1687 16.415 35.191 19.1503 36.0515C20.4184 36.4508 21.7598 36.7055 23.0873 36.8432C25.351 37.0807 27.4295 36.3716 29.3892 35.3012C30.4337 34.7298 31.5341 34.3133 32.7253 34.1481C35.1218 33.8177 37.3295 34.3684 39.3452 35.6144C42.7791 37.7381 44.8367 40.8359 45.7869 44.6875C46.241 46.5221 46.3353 48.3945 46.3283 50.2635C46.3109 53.7916 46.2165 57.3196 46.1606 60.8477C46.1222 63.3638 46.1886 65.8661 46.7021 68.3478C47.8549 73.91 51.1771 77.7238 56.3576 80.0574C59.8195 81.6167 63.47 82.2052 67.2568 82.1502C71.5291 82.0848 75.6652 81.2036 79.7908 80.2123C82.3374 79.5997 84.8771 78.9319 87.4482 78.4363C91.2 77.7134 94.9448 77.741 98.5744 79.1247C101.397 80.202 103.489 82.0882 104.855 84.7489C104.946 84.9244 104.953 85.1378 105.013 85.3891C104.415 85.303 104.143 85.0415 103.923 84.6353C102.424 81.8335 99.9542 80.2812 96.957 79.3966C94.068 78.543 91.1371 78.4879 88.2202 79.0902C84.5103 79.8578 80.8283 80.7596 77.1359 81.5995C73.7683 82.3636 70.3693 82.9453 66.9005 82.9349C63.1137 82.9246 59.4178 82.3257 55.9594 80.7596C50.7055 78.3812 47.3903 74.4229 46.0803 68.8296C45.3432 65.6768 45.2454 62.5033 45.3816 59.2953C45.5074 56.3627 45.6856 53.4302 45.6821 50.501C45.6821 47.4617 45.2419 44.4637 43.897 41.6757C42.1992 38.158 39.422 35.8725 35.6073 34.8743C33.7454 34.3856 31.9638 34.8055 30.2975 35.697C28.9316 36.4301 27.5308 37.0703 26.0077 37.4214C24.0235 37.8827 22.0672 37.7174 20.1599 37.0875C17.7355 36.2856 15.3321 35.4147 12.9182 34.5749C10.9794 33.9003 8.99874 33.4115 6.92371 33.5905C4.6286 33.7901 2.73522 34.7745 1.42523 36.6745C1.08987 37.1633 0.953628 37.7828 0.716082 38.3404C0.607789 38.5883 0.478537 38.8292 0.35627 39.0701C0.261951 39.0529 0.167631 39.0323 0.0698184 39.0151H0.0663251Z" fill="#BFBFBF"/>
</g>
<defs>
<clipPath id="clip0_227_18248">
<rect width="139.244" height="85.3925" fill="white"/>
</clipPath>
</defs>
</svg>
