<svg width="360" height="87" viewBox="0 0 360 87" fill="none" xmlns="http://www.w3.org/2000/svg">
<path fill-rule="evenodd" clip-rule="evenodd" d="M68.8216 33.6104C68.8216 38.7535 68.8463 43.8904 68.8031 49.0336C68.7907 50.1215 68.6364 51.2033 68.34 52.2542C67.4508 55.4748 64.3202 57.5457 61.0043 57.1068C57.7008 57.0759 55.0394 54.393 55.027 51.092C54.7924 45.9613 54.8665 40.8182 54.8233 35.6812C54.8109 34.5561 54.8233 33.4249 54.8233 32.2257H48.0372C47.9939 32.3679 47.9692 32.5162 47.9507 32.6646C47.9507 39.2604 47.8766 45.8624 48.031 52.4582C48.1298 54.2323 48.5682 55.9755 49.3154 57.5889C52.4398 64.7782 62.6777 65.452 67.7101 60.3151C68.0559 59.9565 68.377 59.5671 68.7105 59.1962L68.9884 59.326V62.8928H75.5954V32.2195H68.8216V33.6104ZM42.2761 31.8424C39.0219 31.6446 35.8913 33.1158 33.971 35.7554C33.7672 36.0212 33.551 36.2747 33.3411 36.5405L33.0879 36.4663V32.2133H26.5179V62.9423H33.3164V61.5143C33.3164 56.5814 33.2794 51.6422 33.3411 46.7155C33.0262 42.8334 35.8728 39.4149 39.7444 39.0193C40.93 38.9142 42.1217 38.9081 43.3073 38.9946C43.3073 36.8743 43.2764 34.8962 43.3258 32.9242C43.3505 32.1021 43.0294 31.8672 42.2761 31.8424ZM12.4764 23.4478H5.52974V32.133H0.00326538V38.3146H5.56678V39.7858C5.56678 44.3231 5.51118 48.8605 5.60997 53.3916C5.6285 54.8505 5.89403 56.2908 6.40037 57.657C8.16637 62.2376 14.6993 64.8153 19.4169 62.8928C19.6392 62.8001 19.9479 62.5405 19.9541 62.355C19.9973 60.5561 19.9788 58.7511 19.9788 56.9275C19.2749 57.0264 18.5586 57.0883 17.8485 57.113C17.1631 57.0944 16.4777 57.0203 15.8046 56.8843C14.1004 56.6185 12.7975 55.2338 12.6308 53.5153C12.5505 52.9527 12.5073 52.3902 12.5011 51.8215C12.4887 47.6489 12.4887 43.4763 12.5011 39.3098C12.5258 38.9637 12.569 38.6175 12.6308 38.2775H20.0158V32.1268H12.4826L12.4764 23.4478ZM219.401 23.4478V36.2561C215.14 31.4715 208.181 30.1981 202.506 33.1653C194.689 37.4677 191.744 47.2409 195.887 55.1534C199.209 62.151 207.44 65.2975 214.572 62.2932C216.529 61.4649 218.283 60.2285 219.722 58.6584V62.9485H226.267V23.4539L219.401 23.4478ZM214.245 56.3341C211.003 57.9784 207.094 57.4839 204.359 55.0854C200.598 51.6484 199.894 45.9798 202.704 41.7269C205.347 37.851 210.478 36.5837 214.621 38.7782C217.9 40.676 219.808 44.2799 219.555 48.0631C219.586 51.636 217.499 54.8876 214.245 56.3341ZM90.699 32.4729C83.7647 35.1619 79.6337 42.3265 80.7761 49.6826C81.2701 55.3636 84.9873 60.2594 90.3223 62.2623C95.7315 64.7164 102.054 63.9189 106.679 60.1852C108.087 59.0973 109.23 57.7002 110.02 56.1054L105.074 52.8538C104.055 54.9432 102.215 56.5072 99.9921 57.1872C97.7692 57.8671 95.3857 57.7868 93.2183 56.9584C90.0383 55.9076 87.8586 52.9651 87.7845 49.6085H111.181C111.181 48.1681 111.23 46.9133 111.181 45.6646C110.977 37.5295 104.222 31.0945 96.0958 31.2984C94.2371 31.3479 92.4032 31.7435 90.699 32.4729ZM104.055 44.2799H88.1426C88.4699 40.0516 92.3909 37.103 97.1023 37.4492C101.147 37.7459 104.284 40.7935 104.055 44.2861V44.2799ZM148.958 62.8928H155.707V32.2009H148.958V62.8928ZM189.274 41.0963C188.909 37.6902 186.958 34.6612 184.001 32.9366C179.129 30.3403 173.133 31.2923 169.311 35.2794C169.107 35.4958 168.878 35.6874 168.459 36.0768V32.2257H161.858V62.8928H168.656V61.4834C168.656 56.3465 168.625 51.2033 168.681 46.0602C168.693 44.8919 168.866 43.7297 169.199 42.6108C170.107 39.7673 172.806 37.8881 175.782 38.0303C178.733 37.783 181.438 39.7055 182.167 42.5861C182.475 43.841 182.617 45.1329 182.58 46.4311C182.624 51.4877 182.599 56.5504 182.599 61.607V62.9485H189.496C189.515 62.5343 189.539 62.2561 189.539 61.9717C189.539 55.9385 189.552 49.9113 189.527 43.8781C189.515 42.9385 189.434 42.0112 189.274 41.0963ZM144.704 32.1515C141.913 32.1515 139.301 32.1824 136.695 32.133C135.936 32.0835 135.189 32.3864 134.682 32.9551C131.385 36.3488 128.044 39.6993 124.716 43.0621C124.389 43.3959 124.037 43.7112 123.444 44.2737V23.4478H116.621V62.9175H123.45V47.7911C124.006 48.4154 124.327 48.7678 124.636 49.1139C128.322 53.4102 132.021 57.7002 135.67 62.0274C136.177 62.7012 136.992 63.0721 137.825 63.0041C140.048 62.9422 142.271 62.9855 144.494 62.9794C144.778 62.9794 145.062 62.9175 145.5 62.8681L130.749 45.9366L144.704 32.1515Z" fill="#292929"/>
<path d="M152.331 29.1217C154.678 29.1217 156.58 27.2175 156.58 24.8687C156.58 22.5198 154.678 20.6157 152.331 20.6157C149.985 20.6157 148.083 22.5198 148.083 24.8687C148.083 27.2175 149.985 29.1217 152.331 29.1217Z" fill="#292929"/>
<path d="M268.419 47.0885C268.419 48.085 268.362 49.139 268.247 50.2505H243.066C243.257 53.355 244.311 55.7888 246.228 57.5519C248.183 59.2766 250.54 60.139 253.299 60.139C255.561 60.139 257.439 59.6215 258.933 58.5867C260.466 57.5135 261.54 56.0954 262.153 54.3324H267.787C266.944 57.3602 265.257 59.8323 262.728 61.7487C260.198 63.6267 257.055 64.5658 253.299 64.5658C250.31 64.5658 247.627 63.895 245.25 62.5536C242.913 61.2121 241.073 59.3149 239.731 56.862C238.39 54.3707 237.719 51.4962 237.719 48.2383C237.719 44.9805 238.371 42.1251 239.674 39.6722C240.977 37.2192 242.798 35.3412 245.136 34.0381C247.512 32.6966 250.233 32.0259 253.299 32.0259C256.289 32.0259 258.933 32.6775 261.233 33.9806C263.533 35.2837 265.296 37.0851 266.522 39.3847C267.787 41.646 268.419 44.214 268.419 47.0885ZM263.015 45.9962C263.015 44.0032 262.574 42.2976 261.693 40.8795C260.811 39.4231 259.604 38.3307 258.071 37.6025C256.576 36.836 254.909 36.4527 253.069 36.4527C250.425 36.4527 248.163 37.2959 246.285 38.9823C244.446 40.6687 243.392 43.0067 243.123 45.9962H263.015ZM280.557 21.5051V64.0483H275.325V21.5051H280.557ZM292.175 27.4266C291.179 27.4266 290.335 27.0817 289.646 26.3918C288.956 25.7019 288.611 24.8587 288.611 23.8622C288.611 22.8657 288.956 22.0225 289.646 21.3326C290.335 20.6427 291.179 20.2978 292.175 20.2978C293.133 20.2978 293.938 20.6427 294.59 21.3326C295.28 22.0225 295.625 22.8657 295.625 23.8622C295.625 24.8587 295.28 25.7019 294.59 26.3918C293.938 27.0817 293.133 27.4266 292.175 27.4266ZM294.705 32.5433V64.0483H289.473V32.5433H294.705ZM310.003 36.8551V55.4247C310.003 56.9578 310.329 58.0501 310.98 58.7017C311.632 59.3149 312.762 59.6215 314.372 59.6215H318.224V64.0483H313.51C310.597 64.0483 308.412 63.3776 306.956 62.0362C305.499 60.6947 304.771 58.4909 304.771 55.4247V36.8551H300.689V32.5433H304.771V24.6096H310.003V32.5433H318.224V36.8551H310.003ZM353.308 47.0885C353.308 48.085 353.251 49.139 353.136 50.2505H327.955C328.146 53.355 329.2 55.7888 331.117 57.5519C333.071 59.2766 335.429 60.139 338.188 60.139C340.449 60.139 342.327 59.6215 343.822 58.5867C345.355 57.5135 346.429 56.0954 347.042 54.3324H352.676C351.833 57.3602 350.146 59.8323 347.617 61.7487C345.087 63.6267 341.944 64.5658 338.188 64.5658C335.199 64.5658 332.516 63.895 330.139 62.5536C327.801 61.2121 325.962 59.3149 324.62 56.862C323.279 54.3707 322.608 51.4962 322.608 48.2383C322.608 44.9805 323.26 42.1251 324.563 39.6722C325.866 37.2192 327.686 35.3412 330.024 34.0381C332.401 32.6966 335.122 32.0259 338.188 32.0259C341.178 32.0259 343.822 32.6775 346.122 33.9806C348.422 35.2837 350.185 37.0851 351.411 39.3847C352.676 41.646 353.308 44.214 353.308 47.0885ZM347.904 45.9962C347.904 44.0032 347.463 42.2976 346.582 40.8795C345.7 39.4231 344.493 38.3307 342.96 37.6025C341.465 36.836 339.798 36.4527 337.958 36.4527C335.314 36.4527 333.052 37.2959 331.174 38.9823C329.335 40.6687 328.281 43.0067 328.012 45.9962H347.904Z" fill="#EB9F79"/>
</svg>
