<svg width="361" height="63" viewBox="0 0 361 63" fill="none" xmlns="http://www.w3.org/2000/svg">
<g clip-path="url(#clip0_482_18812)">
<path fill-rule="evenodd" clip-rule="evenodd" d="M68.8216 28.5689C68.8216 33.712 68.8463 38.8489 68.8031 43.9921C68.7907 45.08 68.6364 46.1618 68.34 47.2127C67.4508 50.4333 64.3202 52.5042 61.0043 52.0653C57.7008 52.0344 55.0394 49.3515 55.027 46.0505C54.7924 40.9198 54.8665 35.7766 54.8233 30.6397C54.8109 29.5146 54.8233 28.3834 54.8233 27.1842H48.0372C47.994 27.3264 47.9692 27.4747 47.9507 27.6231C47.9507 34.2189 47.8766 40.8209 48.031 47.4167C48.1298 49.1908 48.5682 50.934 49.3154 52.5474C52.4398 59.7367 62.6777 60.4105 67.7101 55.2736C68.0559 54.915 68.377 54.5256 68.7105 54.1547L68.9884 54.2845V57.8513H75.5954V27.178H68.8216V28.5689ZM42.2761 26.8009C39.0219 26.6031 35.8913 28.0743 33.971 30.7139C33.7672 30.9797 33.5511 31.2331 33.3411 31.499L33.0879 31.4248V27.1718H26.5179V57.9008H33.3164V56.4728C33.3164 51.5399 33.2794 46.6007 33.3411 41.674C33.0262 37.7919 35.8728 34.3734 39.7444 33.9778C40.93 33.8727 42.1217 33.8665 43.3073 33.9531C43.3073 31.8328 43.2764 29.8547 43.3258 27.8827C43.3505 27.0606 43.0294 26.8257 42.2761 26.8009ZM12.4764 18.4062H5.52974V27.0914H0.00327301V33.2731H5.56679V34.7443C5.56679 39.2816 5.51118 43.819 5.60998 48.3501C5.62851 49.809 5.89404 51.2493 6.40038 52.6155C8.16637 57.1961 14.6993 59.7738 19.4169 57.8513C19.6392 57.7586 19.9479 57.4989 19.9541 57.3135C19.9973 55.5146 19.9788 53.7096 19.9788 51.886C19.2749 51.9849 18.5586 52.0468 17.8485 52.0715C17.1631 52.0529 16.4777 51.9788 15.8046 51.8428C14.1004 51.577 12.7975 50.1923 12.6308 48.4738C12.5505 47.9112 12.5073 47.3487 12.5011 46.78C12.4888 42.6074 12.4888 38.4347 12.5011 34.2683C12.5258 33.9222 12.569 33.576 12.6308 33.236H20.0158V27.0853H12.4826L12.4764 18.4062ZM219.401 18.4062V31.2146C215.14 26.43 208.181 25.1566 202.506 28.1238C194.689 32.4262 191.744 42.1994 195.887 50.1119C199.209 57.1095 207.44 60.256 214.572 57.2517C216.529 56.4234 218.283 55.187 219.722 53.6169V57.9069H226.267V18.4124L219.401 18.4062ZM214.245 51.2926C211.003 52.9369 207.094 52.4424 204.359 50.0439C200.598 46.6069 199.894 40.9383 202.704 36.6854C205.347 32.8095 210.478 31.5422 214.621 33.7367C217.9 35.6345 219.808 39.2384 219.555 43.0215C219.586 46.5945 217.499 49.8461 214.245 51.2926ZM90.699 27.4314C83.7647 30.1204 79.6337 37.285 80.7761 44.6411C81.2701 50.3221 84.9873 55.2179 90.3223 57.2208C95.7315 59.6749 102.054 58.8774 106.679 55.1437C108.087 54.0558 109.23 52.6587 110.02 51.0639L105.074 47.8123C104.055 49.9017 102.215 51.4657 99.9921 52.1457C97.7692 52.8256 95.3857 52.7453 93.2184 51.9169C90.0383 50.8661 87.8586 47.9236 87.7845 44.567H111.181C111.181 43.1266 111.23 41.8718 111.181 40.6231C110.977 32.488 104.222 26.0529 96.0958 26.2569C94.2371 26.3064 92.4032 26.702 90.699 27.4314ZM104.055 39.2384H88.1426C88.4699 35.0101 92.3909 32.0615 97.1023 32.4077C101.147 32.7044 104.284 35.7519 104.055 39.2446V39.2384ZM148.958 57.8513H155.707V27.1594H148.958V57.8513ZM189.274 36.0548C188.909 32.6487 186.958 29.6197 184.001 27.8951C179.129 25.2988 173.133 26.2508 169.311 30.2379C169.107 30.4543 168.878 30.6459 168.459 31.0353V27.1842H161.858V57.8513H168.656V56.4419C168.656 51.305 168.625 46.1618 168.681 41.0187C168.693 39.8504 168.866 38.6882 169.199 37.5693C170.107 34.7258 172.806 32.8466 175.782 32.9888C178.733 32.7415 181.438 34.664 182.167 37.5446C182.475 38.7995 182.617 40.0914 182.58 41.3896C182.624 46.4462 182.599 51.5089 182.599 56.5655V57.9069H189.496C189.515 57.4928 189.539 57.2146 189.539 56.9302C189.539 50.897 189.552 44.8698 189.527 38.8366C189.515 37.897 189.434 36.9697 189.274 36.0548ZM144.704 27.11C141.913 27.11 139.301 27.1409 136.695 27.0914C135.936 27.042 135.189 27.3449 134.682 27.9136C131.385 31.3073 128.044 34.6578 124.716 38.0206C124.389 38.3544 124.037 38.6697 123.444 39.2322V18.4062H116.621V57.876H123.45V42.7496C124.006 43.3739 124.327 43.7263 124.636 44.0724C128.322 48.3687 132.021 52.6587 135.67 56.9859C136.177 57.6597 136.992 58.0306 137.825 57.9626C140.048 57.9007 142.271 57.944 144.494 57.9378C144.778 57.9378 145.062 57.876 145.501 57.8266L130.749 40.8951L144.704 27.11Z" fill="#292929"/>
<path d="M152.331 24.0802C154.678 24.0802 156.58 22.176 156.58 19.8272C156.58 17.4783 154.678 15.5742 152.331 15.5742C149.985 15.5742 148.083 17.4783 148.083 19.8272C148.083 22.176 149.985 24.0802 152.331 24.0802Z" fill="#292929"/>
<path d="M266.245 42.4426C266.245 43.3625 266.187 44.3207 266.072 45.3172H243.824C243.977 47.3102 244.609 48.8433 245.721 49.9164C246.871 50.9513 248.269 51.4687 249.918 51.4687C252.37 51.4687 254.076 50.4339 255.034 48.3642H265.498C264.961 50.4722 263.984 52.3694 262.566 54.0558C261.186 55.7422 259.442 57.0645 257.334 58.0227C255.226 58.9808 252.869 59.4599 250.262 59.4599C247.12 59.4599 244.322 58.7892 241.869 57.4477C239.416 56.1063 237.5 54.1899 236.12 51.6987C234.74 49.2074 234.05 46.2945 234.05 42.96C234.05 39.6256 234.721 36.7127 236.062 34.2214C237.442 31.7301 239.358 29.8138 241.811 28.4723C244.264 27.1309 247.081 26.4601 250.262 26.4601C253.367 26.4601 256.127 27.1117 258.541 28.4148C260.956 29.718 262.834 31.5768 264.175 33.9915C265.555 36.4061 266.245 39.2231 266.245 42.4426ZM256.184 39.8555C256.184 38.1691 255.609 36.8277 254.459 35.8312C253.31 34.8347 251.872 34.3364 250.148 34.3364C248.499 34.3364 247.1 34.8155 245.951 35.7737C244.839 36.7319 244.149 38.0925 243.881 39.8555H256.184ZM281.262 16.4567V59H271.431V16.4567H281.262ZM293.331 23.5856C291.606 23.5856 290.188 23.0873 289.076 22.0908C288.003 21.056 287.467 19.7912 287.467 18.2964C287.467 16.7633 288.003 15.4985 289.076 14.502C290.188 13.4672 291.606 12.9498 293.331 12.9498C295.017 12.9498 296.397 13.4672 297.47 14.502C298.582 15.4985 299.137 16.7633 299.137 18.2964C299.137 19.7912 298.582 21.056 297.47 22.0908C296.397 23.0873 295.017 23.5856 293.331 23.5856ZM298.218 26.9201V59H288.387V26.9201H298.218ZM323.222 50.6638V59H318.22C314.655 59 311.877 58.1376 309.884 56.4129C307.891 54.6499 306.894 51.7945 306.894 47.8468V35.0838H302.985V26.9201H306.894V19.1013H316.725V26.9201H323.164V35.0838H316.725V47.9617C316.725 48.9199 316.955 49.6098 317.415 50.0314C317.875 50.453 318.641 50.6638 319.715 50.6638H323.222ZM358.938 42.4426C358.938 43.3625 358.88 44.3207 358.765 45.3172H336.516C336.67 47.3102 337.302 48.8433 338.414 49.9164C339.563 50.9513 340.962 51.4687 342.61 51.4687C345.063 51.4687 346.769 50.4339 347.727 48.3642H358.19C357.654 50.4722 356.677 52.3694 355.258 54.0558C353.879 55.7422 352.135 57.0645 350.027 58.0227C347.919 58.9808 345.562 59.4599 342.955 59.4599C339.813 59.4599 337.015 58.7892 334.562 57.4477C332.109 56.1063 330.192 54.1899 328.813 51.6987C327.433 49.2074 326.743 46.2945 326.743 42.96C326.743 39.6256 327.414 36.7127 328.755 34.2214C330.135 31.7301 332.051 29.8138 334.504 28.4723C336.957 27.1309 339.774 26.4601 342.955 26.4601C346.06 26.4601 348.819 27.1117 351.234 28.4148C353.649 29.718 355.527 31.5768 356.868 33.9915C358.248 36.4061 358.938 39.2231 358.938 42.4426ZM348.877 39.8555C348.877 38.1691 348.302 36.8277 347.152 35.8312C346.002 34.8347 344.565 34.3364 342.84 34.3364C341.192 34.3364 339.793 34.8155 338.644 35.7737C337.532 36.7319 336.842 38.0925 336.574 39.8555H348.877Z" fill="#EB9F79"/>
</g>
<defs>
<clipPath id="clip0_482_18812">
<rect width="360.997" height="63" fill="white" transform="translate(0.00327301)"/>
</clipPath>
</defs>
</svg>
