<svg width="140" height="35" viewBox="0 0 140 35" fill="none" xmlns="http://www.w3.org/2000/svg">
<path fill-rule="evenodd" clip-rule="evenodd" d="M27.1563 13.7451C27.1563 15.7746 27.1661 17.8017 27.149 19.8313C27.1441 20.2606 27.0832 20.6874 26.9663 21.1021C26.6154 22.373 25.38 23.1902 24.0715 23.017C22.7679 23.0048 21.7177 21.9461 21.7129 20.6435C21.6203 18.6189 21.6495 16.5894 21.6325 14.5623C21.6276 14.1183 21.6325 13.6719 21.6325 13.1987H18.9546C18.9375 13.2548 18.9278 13.3134 18.9205 13.3719C18.9205 15.9747 18.8912 18.5799 18.9522 21.1826C18.9911 21.8827 19.1642 22.5706 19.459 23.2073C20.6919 26.0442 24.7319 26.3101 26.7177 24.283C26.8542 24.1415 26.9809 23.9879 27.1125 23.8415L27.2221 23.8927V25.3002H29.8293V13.1963H27.1563V13.7451ZM16.6812 13.0475C15.3971 12.9694 14.1617 13.55 13.4039 14.5916C13.3235 14.6965 13.2382 14.7965 13.1554 14.9014L13.0555 14.8721V13.1938H10.4629V25.3197H13.1457V24.7563C13.1457 22.8097 13.131 20.8606 13.1554 18.9165C13.0311 17.3846 14.1544 16.0357 15.6822 15.8795C16.15 15.8381 16.6203 15.8356 17.0881 15.8698C17.0881 15.0331 17.076 14.2525 17.0954 13.4744C17.1052 13.1499 16.9785 13.0572 16.6812 13.0475ZM4.92201 9.73486H2.18079V13.1621H0V15.6014H2.19541V16.182C2.19541 17.9725 2.17347 19.7629 2.21246 21.551C2.21977 22.1267 2.32455 22.695 2.52435 23.2341C3.22123 25.0417 5.7992 26.0589 7.66079 25.3002C7.74851 25.2636 7.87034 25.1612 7.87278 25.088C7.88983 24.3782 7.88252 23.6659 7.88252 22.9463C7.60474 22.9853 7.32209 23.0097 7.04187 23.0195C6.77141 23.0121 6.50094 22.9829 6.23535 22.9292C5.56284 22.8243 5.04872 22.2779 4.98293 21.5998C4.95125 21.3778 4.93419 21.1558 4.93175 20.9314C4.92688 19.2848 4.92688 17.6383 4.93175 15.9942C4.9415 15.8576 4.95856 15.721 4.98293 15.5868H7.89714V13.1597H4.92444L4.92201 9.73486ZM86.5762 9.73486V14.7891C84.8949 12.9011 82.1488 12.3986 79.9095 13.5695C76.8248 15.2673 75.6625 19.1238 77.2975 22.2462C78.6084 25.0075 81.8564 26.2491 84.6707 25.0636C85.4431 24.7367 86.1351 24.2489 86.7029 23.6293V25.3222H89.2857V9.7373L86.5762 9.73486ZM84.5416 22.7121C83.2624 23.361 81.72 23.1658 80.6405 22.2193C79.1566 20.8631 78.8788 18.6262 79.9875 16.948C81.0304 15.4185 83.0552 14.9184 84.6902 15.7844C85.9841 16.5333 86.737 17.9554 86.6371 19.4483C86.6493 20.8582 85.8257 22.1413 84.5416 22.7121ZM35.7893 13.2963C33.053 14.3574 31.4229 17.1846 31.8737 20.0874C32.0686 22.3291 33.5354 24.2611 35.6407 25.0514C37.7752 26.0198 40.2703 25.7052 42.0953 24.2318C42.6509 23.8025 43.1017 23.2512 43.4136 22.6218L41.4618 21.3388C41.0598 22.1632 40.3337 22.7804 39.4565 23.0487C38.5793 23.3171 37.6387 23.2853 36.7835 22.9585C35.5286 22.5438 34.6685 21.3827 34.6392 20.0581H43.8717C43.8717 19.4897 43.8912 18.9946 43.8717 18.5018C43.7913 15.2917 41.1256 12.7523 37.9189 12.8328C37.1855 12.8523 36.4618 13.0084 35.7893 13.2963ZM41.0598 17.9554H34.7806C34.9097 16.2869 36.457 15.1233 38.3161 15.26C39.9121 15.377 41.1499 16.5796 41.0598 17.9578V17.9554ZM58.779 25.3002H61.4422V13.1889H58.779V25.3002ZM74.6878 16.6991C74.544 15.3551 73.7741 14.1598 72.6069 13.4792C70.6844 12.4547 68.3184 12.8304 66.8102 14.4037C66.7298 14.4891 66.6396 14.5647 66.4739 14.7184V13.1987H63.8691V25.3002H66.5519V24.7441C66.5519 22.717 66.5397 20.6875 66.5616 18.6579C66.5665 18.1969 66.6347 17.7383 66.7663 17.2968C67.1245 16.1747 68.1893 15.4331 69.3638 15.4892C70.5285 15.3917 71.5957 16.1503 71.8832 17.287C72.0051 17.7822 72.0611 18.292 72.0465 18.8043C72.0636 20.7997 72.0538 22.7975 72.0538 24.7928V25.3222H74.7755C74.7828 25.1587 74.7926 25.049 74.7926 24.9368C74.7926 22.556 74.7975 20.1776 74.7877 17.7968C74.7828 17.4261 74.7512 17.0602 74.6878 16.6991ZM57.1002 13.1694C55.9988 13.1694 54.9681 13.1816 53.9398 13.1621C53.6401 13.1426 53.3453 13.2621 53.1455 13.4866C51.8443 14.8257 50.5261 16.1479 49.2128 17.4749C49.0836 17.6066 48.9447 17.731 48.7108 17.953V9.73486H46.0183V25.31H48.7133V19.3409C48.9326 19.5873 49.0593 19.7264 49.1811 19.863C50.6358 21.5583 52.0953 23.2512 53.5354 24.9587C53.7352 25.2246 54.0568 25.371 54.3858 25.3441C55.2629 25.3197 56.1401 25.3368 57.0173 25.3344C57.1294 25.3344 57.2415 25.31 57.4145 25.2905L51.5933 18.6091L57.1002 13.1694Z" fill="white"/>
<path d="M60.11 11.975C61.0359 11.975 61.7864 11.2237 61.7864 10.2968C61.7864 9.36991 61.0359 8.61853 60.11 8.61853C59.1841 8.61853 58.4336 9.36991 58.4336 10.2968C58.4336 11.2237 59.1841 11.975 60.11 11.975Z" fill="white"/>
<path d="M105.045 18.8101C105.045 19.2033 105.023 19.6192 104.977 20.0578H95.0406C95.1162 21.2829 95.5321 22.2433 96.2883 22.939C97.0596 23.6196 97.9898 23.9599 99.0787 23.9599C99.9711 23.9599 100.712 23.7557 101.302 23.3474C101.907 22.9239 102.33 22.3643 102.572 21.6686H104.796C104.463 22.8634 103.798 23.8389 102.799 24.5951C101.801 25.3362 100.561 25.7067 99.0787 25.7067C97.899 25.7067 96.8403 25.4421 95.9026 24.9127C94.9801 24.3834 94.2541 23.6347 93.7247 22.6668C93.1954 21.6837 92.9307 20.5494 92.9307 19.2638C92.9307 17.9782 93.1878 16.8515 93.7021 15.8835C94.2163 14.9156 94.9347 14.1745 95.8573 13.6603C96.795 13.1309 97.8688 12.8662 99.0787 12.8662C100.258 12.8662 101.302 13.1233 102.209 13.6376C103.117 14.1518 103.813 14.8626 104.297 15.7701C104.796 16.6624 105.045 17.6757 105.045 18.8101ZM102.913 18.379C102.913 17.5926 102.739 16.9195 102.391 16.3599C102.043 15.7852 101.567 15.3542 100.962 15.0668C100.372 14.7643 99.714 14.6131 98.988 14.6131C97.9444 14.6131 97.0521 14.9458 96.311 15.6113C95.585 16.2768 95.1691 17.1993 95.0632 18.379H102.913ZM109.835 8.71461V25.5026H107.77V8.71461H109.835ZM114.42 11.0513C114.026 11.0513 113.694 10.9152 113.421 10.643C113.149 10.3707 113.013 10.038 113.013 9.64476C113.013 9.25152 113.149 8.91879 113.421 8.64655C113.694 8.37432 114.026 8.2382 114.42 8.2382C114.798 8.2382 115.115 8.37432 115.372 8.64655C115.645 8.91879 115.781 9.25152 115.781 9.64476C115.781 10.038 115.645 10.3707 115.372 10.643C115.115 10.9152 114.798 11.0513 114.42 11.0513ZM115.418 13.0704V25.5026H113.353V13.0704H115.418ZM121.454 14.7719V22.0996C121.454 22.7046 121.583 23.1356 121.84 23.3927C122.097 23.6347 122.543 23.7557 123.179 23.7557H124.699V25.5026H122.838C121.689 25.5026 120.827 25.2379 120.252 24.7085C119.677 24.1792 119.39 23.3095 119.39 22.0996V14.7719H117.779V13.0704H119.39V9.93968H121.454V13.0704H124.699V14.7719H121.454ZM138.543 18.8101C138.543 19.2033 138.52 19.6192 138.475 20.0578H128.538C128.614 21.2829 129.03 22.2433 129.786 22.939C130.558 23.6196 131.488 23.9599 132.577 23.9599C133.469 23.9599 134.21 23.7557 134.8 23.3474C135.405 22.9239 135.828 22.3643 136.07 21.6686H138.294C137.961 22.8634 137.295 23.8389 136.297 24.5951C135.299 25.3362 134.059 25.7067 132.577 25.7067C131.397 25.7067 130.338 25.4421 129.401 24.9127C128.478 24.3834 127.752 23.6347 127.223 22.6668C126.693 21.6837 126.429 20.5494 126.429 19.2638C126.429 17.9782 126.686 16.8515 127.2 15.8835C127.714 14.9156 128.433 14.1745 129.355 13.6603C130.293 13.1309 131.367 12.8662 132.577 12.8662C133.756 12.8662 134.8 13.1233 135.707 13.6376C136.615 14.1518 137.311 14.8626 137.795 15.7701C138.294 16.6624 138.543 17.6757 138.543 18.8101ZM136.411 18.379C136.411 17.5926 136.237 16.9195 135.889 16.3599C135.541 15.7852 135.065 15.3542 134.46 15.0668C133.87 14.7643 133.212 14.6131 132.486 14.6131C131.442 14.6131 130.55 14.9458 129.809 15.6113C129.083 16.2768 128.667 17.1993 128.561 18.379H136.411Z" fill="#EB9F79"/>
</svg>
