<svg xmlns="http://www.w3.org/2000/svg" width="100%" height="100%">
    <title>Birthday Gifts</title>
    <path
        d="M27.1062 10.2051C27.2656 9.82027 27.4146 9.46443 27.5595 9.10444C28.286 7.31902 29.0145 5.5336 30.0949 3.92195C32.0032 1.07728 34.9133 0.187667 37.9807 0.816599C41.1701 1.47036 43.5628 4.02126 44.0574 7.108C44.37 9.05893 44.0119 10.8692 42.9791 12.5512C42.9005 12.6774 42.7287 12.8098 42.8052 12.9546C42.9005 13.1304 43.1178 13.0394 43.2813 13.0394C45.1234 13.0456 46.9654 13.0373 48.8096 13.0456C51.5168 13.058 53.5472 15.0814 53.5638 17.7771C53.57 18.8095 53.5803 19.8439 53.5617 20.8762C53.5265 22.7486 52.6386 24.1244 51.0035 24.9933C50.5854 25.2146 50.455 25.4526 50.4571 25.9056C50.4695 33.5314 50.4674 41.1573 50.4654 48.7831C50.4654 51.0816 49.1718 52.8029 46.982 53.4608C46.5805 53.5807 46.1727 53.6139 45.7567 53.6139C33.3072 53.6139 20.8577 53.618 8.40606 53.6097C5.71332 53.6097 3.68497 51.5595 3.6829 48.8472C3.67669 41.2379 3.67669 33.6308 3.68911 26.0215C3.68911 25.5043 3.56493 25.2167 3.06612 24.9478C1.47655 24.0892 0.615537 22.7217 0.582421 20.8907C0.563794 19.8418 0.572073 18.7908 0.580352 17.7399C0.601049 15.1041 2.63354 13.0622 5.26833 13.0456C7.14559 13.0332 9.02285 13.0456 10.9001 13.0394C11.0471 13.0394 11.2458 13.116 11.3327 12.9649C11.4238 12.8098 11.2499 12.6856 11.1733 12.5615C8.12872 7.65004 11.2333 1.26347 16.9583 0.661435C20.3361 0.305592 23.0661 1.8531 24.7446 5.04741C25.5229 6.52872 26.1748 8.06174 26.7896 9.61338C26.8641 9.79958 26.8992 10.0085 27.1062 10.2009V10.2051ZM20.8328 38.0023C20.8328 34.0425 20.8266 30.0827 20.8411 26.1229C20.8411 25.6553 20.719 25.5022 20.2347 25.5043C15.9813 25.5229 11.7259 25.5229 7.47261 25.5043C6.96345 25.5022 6.83926 25.6657 6.84133 26.1518C6.85582 33.5894 6.84961 41.0269 6.85168 48.4645C6.85168 49.8961 7.39396 50.4402 8.81794 50.4423C12.6076 50.4444 16.3953 50.4319 20.185 50.4547C20.7211 50.4588 20.8452 50.2913 20.8432 49.7803C20.8225 45.8556 20.8328 41.9289 20.8328 38.0043V38.0023ZM33.3072 37.965C33.3072 41.9248 33.3155 45.8846 33.2968 49.8444C33.2948 50.3285 33.4479 50.4526 33.9157 50.4506C37.722 50.434 41.5282 50.4423 45.3345 50.4402C46.7336 50.4402 47.2862 49.8899 47.2883 48.5017C47.2904 41.0476 47.2842 33.5914 47.3007 26.1374C47.3007 25.6305 47.1434 25.5022 46.655 25.5043C42.4348 25.5208 38.2166 25.5146 33.9964 25.5146C33.5397 25.5146 33.3106 25.7394 33.3092 26.1891C33.3092 30.1137 33.3092 34.0404 33.3092 37.965H33.3072ZM30.1343 33.3825C30.1343 27.8566 30.1301 22.3286 30.1425 16.8027C30.1425 16.3599 30.0308 16.2006 29.5651 16.2068C27.8948 16.2317 26.2245 16.2296 24.5542 16.2068C24.1175 16.2006 24.0016 16.3537 24.0016 16.7737C24.0099 27.809 24.0119 38.8463 23.9995 49.8816C23.9995 50.3575 24.1734 50.4547 24.6039 50.4506C26.2224 50.4299 27.841 50.4423 29.4616 50.4423C29.91 50.4423 30.135 50.2133 30.1363 49.7554C30.1363 44.2978 30.1363 38.8401 30.1363 33.3825H30.1343ZM12.8602 22.3431C15.3397 22.3431 17.8193 22.3369 20.2988 22.3493C20.6962 22.3513 20.8452 22.2438 20.8411 21.8238C20.8204 20.119 20.8245 18.4143 20.8411 16.7116C20.8452 16.3227 20.7045 16.211 20.3278 16.211C15.4018 16.2192 10.4779 16.213 5.55188 16.2213C4.36178 16.2213 3.7719 16.8192 3.75327 18.0005C3.74085 18.7929 3.74913 19.5853 3.7512 20.3756C3.75534 21.799 4.29762 22.3389 5.72988 22.341C8.10595 22.3431 10.482 22.341 12.8602 22.341V22.3431ZM41.2281 16.2172C38.7651 16.2172 36.3021 16.2234 33.8412 16.211C33.4438 16.2089 33.2948 16.3206 33.301 16.7365C33.3217 18.4412 33.3175 20.1459 33.301 21.8486C33.2968 22.2396 33.4396 22.3493 33.8143 22.3472C38.7403 22.3389 43.6642 22.3472 48.5902 22.3369C49.7782 22.3369 50.3702 21.7369 50.3867 20.5556C50.3971 19.7632 50.3909 18.9708 50.3888 18.1805C50.3847 16.7572 49.8424 16.2172 48.4081 16.2172C46.0134 16.2151 43.6207 16.2172 41.226 16.2172H41.2281ZM20.7935 13.0435C22.0974 13.0435 23.1654 13.0353 24.2313 13.0477C24.5729 13.0518 24.6722 12.9463 24.5335 12.6256C24.3969 12.3091 24.2789 11.9864 24.1465 11.6678C23.3186 9.66717 22.6107 7.61073 21.4206 5.77565C20.2388 3.95299 18.5168 3.57646 16.6519 4.00057C14.5594 4.47848 12.9616 6.54113 13.2306 8.96997C13.4562 11.0037 15.1803 12.7518 17.2108 12.9629C18.4837 13.0953 19.7566 12.9898 20.7914 13.0415L20.7935 13.0435ZM33.0402 13.0435C33.6942 13.0435 34.3483 13.0373 35.0023 13.0435C35.8281 13.0539 36.6581 13.0622 37.4653 12.8698C39.5764 12.367 41.1743 10.3168 40.9052 7.91071C40.6941 6.03219 39.3446 4.39572 37.4032 3.97988C35.5197 3.57646 33.8577 3.97161 32.6718 5.84599C31.3264 7.97278 30.5627 10.3602 29.5941 12.6546C29.4637 12.9649 29.5878 13.0456 29.888 13.0435C30.9373 13.0332 31.9888 13.0394 33.0381 13.0394L33.0402 13.0435Z"
        fill="none" />
</svg>