<svg xmlns="http://www.w3.org/2000/svg" width="100%" height="100%">
    <title>Exclusive Deals and Offers</title>
    <path fillRule="evenodd" clipRule="evenodd"
        d="M19.7346 59.8423L19.6339 59.9432C16.5094 61.0536 12.9819 60.2461 10.563 57.9243C8.24488 55.6025 7.43858 52.0694 8.54724 48.9401L8.64803 48.8391L3.50787 43.6908C2.90315 42.9842 2.5 42.1767 2.5 41.2681C2.5 40.2587 2.90315 39.3502 3.50787 38.6435L38.985 3.21136C39.6906 2.60568 40.4969 2.20189 41.5047 2.20189C42.5126 2.20189 43.3189 2.50473 44.0244 3.21136L48.5598 7.85489L48.7614 7.75394C51.785 5.43218 56.0181 5.53312 59.0417 7.85489L59.2433 7.95584L64.7866 2.40379C64.9882 2.10095 65.1898 2 65.4921 2C65.6937 2 65.9961 2 66.1976 2.10095C66.6008 2.50473 66.6008 3.11041 66.1976 3.5142L60.6543 9.06625L60.7551 9.26814C63.0732 12.3975 63.174 16.6372 60.8559 19.6656L60.7551 19.8675L65.3913 24.4101C65.9961 25.1167 66.3992 25.9243 66.3992 26.8328C66.5 27.8423 66.0969 28.7508 65.3913 29.4574L29.9142 64.9905C29.2087 65.5962 28.4024 66 27.4953 66C26.4874 66 25.5803 65.6972 24.8748 64.9905L19.7346 59.8423ZM4.81811 42.0757L10.4622 47.6278C10.7646 48.0315 10.8654 48.4353 10.6638 48.8391C9.55512 51.3628 10.1598 54.3912 12.0748 56.3091C13.9898 58.2271 17.0134 58.7319 19.5331 57.6214H19.6339H19.9362C20.1378 57.6214 20.4402 57.7224 20.6417 57.9243L26.185 63.5773C26.4874 63.8801 26.8906 63.9811 27.2937 63.9811C27.6968 63.9811 28.1 63.8801 28.4024 63.5773L64.1819 28.2461C64.3835 27.9432 64.585 27.5394 64.585 27.1356C64.585 26.7319 64.3835 26.3281 64.0811 26.0252L58.6386 20.776C58.437 20.5741 58.3362 20.2713 58.3362 20.0694C58.3362 19.8675 58.437 19.5647 58.6386 19.3628C60.7551 17.041 61.0575 13.6088 59.2433 10.9842L59.0417 10.7823L56.9252 12.9022L57.026 13.306C57.6307 14.7192 57.4291 16.2334 56.3205 17.3438C55.615 17.9495 54.8087 18.3533 53.9016 18.3533C52.8937 18.3533 51.9866 17.9495 51.2811 17.2429C50.6764 16.5363 50.2732 15.7287 50.2732 14.8202C50.1724 13.8107 50.5756 12.9022 51.2811 12.1956C52.3898 11.0852 54.0024 10.8833 55.3126 11.489L55.5142 11.5899L57.6307 9.47003L57.4291 9.26814C54.8087 7.4511 51.2811 7.75394 49.0638 9.97476C48.6606 10.3785 48.0559 10.3785 47.6528 9.97476L42.4118 4.52366C41.9079 3.91798 40.9 3.91798 40.2953 4.52366L4.81811 39.9558C4.21339 40.4606 4.21339 41.47 4.81811 42.0757ZM53.8008 16.1325C54.2039 16.1325 54.6071 16.0315 54.9094 15.7287C55.5142 15.123 55.5142 14.1136 54.8087 13.6088C54.3047 13.0032 53.2968 13.0032 52.6921 13.6088C52.0874 14.1136 52.0874 15.123 52.6921 15.7287C52.9945 15.9306 53.3976 16.1325 53.8008 16.1325ZM59.0417 27.3375L41.2024 9.46995C41.1016 9.26806 40.9 9.16711 40.4968 9.16711C40.2953 9.16711 39.9929 9.26806 39.7913 9.46995L26.5882 22.6939C26.185 23.0977 26.185 23.7034 26.5882 24.1072C26.9913 24.511 27.6968 24.511 27.9992 24.1072L40.5976 11.5898L57.026 28.0441L56.8244 28.246L28.3016 56.7129L11.8732 40.2586L20.8433 31.2744C21.2465 30.8706 21.2465 30.2649 20.8433 29.8611C20.6417 29.6592 20.4402 29.5583 20.1378 29.5583C19.8354 29.5583 19.6339 29.6592 19.4323 29.8611L9.6559 39.6529C9.25275 40.0567 9.25275 40.6624 9.6559 41.0662L27.3945 58.8327C27.7976 59.2365 28.5031 59.2365 28.8055 58.8327L59.0417 28.7507C59.4449 28.3469 59.4449 27.7412 59.0417 27.3375ZM30.8213 27.1356C30.8213 26.1262 31.2244 25.2176 31.9299 24.511C32.5347 23.8044 33.4417 23.4006 34.248 23.5016H34.3488C35.2559 23.5016 36.163 23.9053 36.8685 24.612C37.4732 25.3186 37.8764 26.1262 37.8764 27.0347C37.9772 28.0441 37.574 28.9527 36.8685 29.6593C36.163 30.265 35.3567 30.6687 34.4496 30.6687C33.4417 30.5678 32.5347 30.265 31.8291 29.5583C31.2244 28.8517 30.8213 28.0441 30.8213 27.1356ZM35.5583 28.0441C36.163 27.5394 36.163 26.5299 35.5583 25.9243C34.9535 25.3186 33.9457 25.3186 33.341 25.9243C32.7362 26.429 32.7362 27.4385 33.341 28.0441C33.6433 28.246 34.0465 28.4479 34.4496 28.4479C34.8528 28.4479 35.2559 28.347 35.5583 28.0441ZM23.7661 26.0253C24.0685 26.0253 24.2701 26.1262 24.4717 26.3281C24.8748 26.7319 24.8748 27.3376 24.4717 27.7414C24.0685 28.0442 23.4638 28.0442 23.0606 27.7414C22.6575 27.3376 22.6575 26.7319 23.0606 26.3281C23.2622 26.1262 23.4638 26.0253 23.7661 26.0253ZM31.9299 43.6909C32.6354 44.3976 33.5425 44.8013 34.4496 44.8013H34.5504C35.4575 44.8013 36.2638 44.3976 36.9693 43.7919C37.6748 43.0853 38.078 42.1767 38.078 41.1673C38.078 40.2588 37.6748 39.4512 37.0701 38.7446C36.4654 38.0379 35.5583 37.7351 34.6512 37.6342H34.5504C33.6433 37.6342 32.7362 38.0379 32.0307 38.6436C31.3252 39.3502 30.9221 40.2588 31.0228 41.2682C30.9221 42.2777 31.3252 43.0853 31.9299 43.6909ZM33.341 40.1578C33.9457 39.5521 34.9535 39.5521 35.4575 40.1578C35.7598 40.5616 35.9614 41.0663 35.8606 41.4701C35.8606 41.773 35.6591 42.1767 35.4575 42.3786C35.1551 42.6815 34.752 42.7824 34.3488 42.7824C33.9457 42.7824 33.5425 42.5805 33.2402 42.3786C32.9378 42.0758 32.837 41.672 32.837 41.2682C32.837 40.8644 33.0386 40.3597 33.341 40.1578ZM43.1173 31.3754H43.3189C43.4197 31.3754 43.5205 31.4006 43.6213 31.4258C43.722 31.4511 43.8228 31.4763 43.9236 31.4763C44.1252 31.5773 44.3268 31.7792 44.3268 32.082C44.4275 32.5867 44.1252 33.1924 43.5205 33.2933L25.7819 36.8265C25.4795 36.8265 25.1772 36.7255 24.9756 36.6246C24.774 36.5236 24.5724 36.3217 24.5724 36.0189C24.4716 35.817 24.5724 35.5142 24.6732 35.3123C24.8748 35.1104 25.0764 34.9085 25.3787 34.9085L43.1173 31.3754Z"
        fill="none" />
</svg>