<svg xmlns="http://www.w3.org/2000/svg" width="100%" height="100%" viewBox="0 0 85 30" fill="none" id="afterpay_logo">
  <path d="M70.162 29.5623H14.7811C6.61714 29.5623 0 22.9451 0 14.7811C0 6.61713 6.61714 0 14.7811 0H70.162C78.326 0 84.9432 6.61713 84.9432 14.7811C84.9485 22.9398 78.326 29.5623 70.162 29.5623Z" fill="#B2FCE4"/>
  <path d="M72.4014 11.247L70.543 10.1835L68.6578 9.10395C67.4117 8.3896 65.8541 9.28656 65.8541 10.726V10.9677C65.8541 11.102 65.9239 11.2255 66.0421 11.29L66.9176 11.7895C67.1592 11.9291 67.46 11.7519 67.46 11.4726V10.8979C67.46 10.6132 67.7662 10.436 68.0132 10.5756L69.732 11.5639L71.4453 12.5468C71.6924 12.6864 71.6924 13.0463 71.4453 13.1859L69.732 14.1688L68.0132 15.1571C67.7662 15.2968 67.46 15.1195 67.46 14.8349V14.5502C67.46 13.1108 65.9024 12.2084 64.6563 12.9281L62.7711 14.0077L60.9127 15.0712C59.6613 15.7909 59.6613 17.601 60.9127 18.3207L62.7711 19.3841L64.6563 20.4637C65.9024 21.1781 67.46 20.2811 67.46 18.8417V18.6C67.46 18.4657 67.3902 18.3422 67.272 18.2777L66.3966 17.7782C66.1549 17.6385 65.8541 17.8158 65.8541 18.0951V18.6698C65.8541 18.9545 65.5479 19.1317 65.3009 18.9921L63.5821 18.0038L61.8688 17.0209C61.6217 16.8812 61.6217 16.5214 61.8688 16.3817L63.5821 15.3988L65.3009 14.4105C65.5479 14.2709 65.8541 14.4481 65.8541 14.7328V15.0175C65.8541 16.4569 67.4117 17.3593 68.6578 16.6395L70.543 15.5599L72.4014 14.4965C73.6528 13.7714 73.6528 11.9667 72.4014 11.247Z" fill="black"/>
  <path d="M60.2094 11.6015L55.8589 20.5873H54.0542L55.6816 17.2304L53.1196 11.6015H54.9726L56.6162 15.372L58.4101 11.6015H60.2094Z" fill="black"/>
  <path d="M16.7094 14.7919C16.7094 13.7177 15.9306 12.9657 14.9746 12.9657C14.0185 12.9657 13.2397 13.7338 13.2397 14.7919C13.2397 15.8393 14.0185 16.6181 14.9746 16.6181C15.9306 16.6181 16.7094 15.8661 16.7094 14.7919ZM16.7255 17.9823V17.1552C16.2529 17.7299 15.5493 18.0844 14.7114 18.0844C12.9604 18.0844 11.6338 16.6825 11.6338 14.7919C11.6338 12.9174 13.0141 11.4887 14.749 11.4887C15.5654 11.4887 16.2529 11.8486 16.7255 12.4072V11.6015H18.2939V17.9823H16.7255Z" fill="black"/>
  <path d="M25.9204 16.5643C25.3725 16.5643 25.2167 16.3602 25.2167 15.8231V12.9926H26.2265V11.6015H25.2167V10.0439H23.6108V11.6015H21.5376V10.9677C21.5376 10.4306 21.7417 10.2265 22.3056 10.2265H22.6601V8.99115H21.8867C20.56 8.99115 19.9316 9.4262 19.9316 10.7529V11.6069H19.04V12.9926H19.9316V17.9823H21.5376V12.9926H23.6108V16.1185C23.6108 17.4183 24.1103 17.9823 25.4101 17.9823H26.2372V16.5643H25.9204Z" fill="black"/>
  <path d="M31.6894 14.2171C31.5766 13.39 30.8999 12.8905 30.105 12.8905C29.3154 12.8905 28.6601 13.3739 28.499 14.2171H31.6894ZM28.4829 15.2108C28.5957 16.1561 29.2724 16.6932 30.1318 16.6932C30.8086 16.6932 31.3296 16.3763 31.6357 15.8661H33.2846C32.9033 17.2196 31.6894 18.0843 30.0942 18.0843C28.166 18.0843 26.8125 16.7308 26.8125 14.8026C26.8125 12.8744 28.2412 11.4833 30.1318 11.4833C32.0332 11.4833 33.4135 12.8851 33.4135 14.8026C33.4135 14.9422 33.4028 15.0819 33.3759 15.2108H28.4829Z" fill="black"/>
  <path d="M43.6396 14.7918C43.6396 13.7606 42.8608 12.9657 41.9048 12.9657C40.9487 12.9657 40.1699 13.7337 40.1699 14.7918C40.1699 15.8392 40.9487 16.618 41.9048 16.618C42.8608 16.618 43.6396 15.8285 43.6396 14.7918ZM38.5854 20.5872V11.6014H40.1538V12.4286C40.6264 11.8431 41.3301 11.4833 42.1679 11.4833C43.892 11.4833 45.2456 12.9012 45.2456 14.7757C45.2456 16.6502 43.8652 18.0789 42.1303 18.0789C41.3247 18.0789 40.664 17.762 40.2021 17.2249V20.5818H38.5854V20.5872Z" fill="black"/>
  <path d="M50.9008 14.7919C50.9008 13.7177 50.122 12.9657 49.166 12.9657C48.2099 12.9657 47.4311 13.7338 47.4311 14.7919C47.4311 15.8393 48.2099 16.6181 49.166 16.6181C50.122 16.6181 50.9008 15.8661 50.9008 14.7919ZM50.917 17.9823V17.1552C50.4443 17.7299 49.7407 18.0844 48.9028 18.0844C47.1518 18.0844 45.8252 16.6825 45.8252 14.7919C45.8252 12.9174 47.2056 11.4887 48.9404 11.4887C49.7568 11.4887 50.4443 11.8486 50.917 12.4072V11.6015H52.4853V17.9823H50.917Z" fill="black"/>
  <path d="M35.7549 12.2245C35.7549 12.2245 36.1523 11.4833 37.1352 11.4833C37.5542 11.4833 37.8227 11.6283 37.8227 11.6283V13.2557C37.8227 13.2557 37.2319 12.8905 36.6894 12.9657C36.147 13.0409 35.8032 13.535 35.8032 14.201V17.9769H34.1812V11.6014H35.7495V12.2245H35.7549Z" fill="black"/>
</svg>