<svg width="100%" height="100%" viewBox="0 0 25 25" fill="none" xmlns="http://www.w3.org/2000/svg">
    <mask id="path-1-outside-1_3484_13873" maskUnits="userSpaceOnUse" x="-0.5" y="0.773926" width="26" height="22"
        fill="black">
        <rect fill="white" x="-0.5" y="0.773926" width="26" height="22" />
        <path fill-rule="evenodd" clip-rule="evenodd"
            d="M22.1855 13.3385C22.0786 13.3385 22.0074 13.3026 21.9362 13.2308L19.9777 11.2931C19.9065 11.2213 19.8709 11.1495 19.8709 11.0419C19.8709 10.9342 19.9065 10.8625 19.9777 10.7907C20.049 10.7189 20.1202 10.683 20.227 10.683C20.3338 10.683 20.405 10.7189 20.4763 10.7907L21.7938 12.1543V11.8313C21.7582 7.81231 19.23 4.25978 15.4911 2.96796C13.1053 2.14262 10.5772 2.32204 8.36944 3.43445C6.16173 4.54686 4.48814 6.44871 3.70475 8.81706C3.70475 8.88883 3.63354 8.9606 3.52671 9.03237C3.47231 9.08719 3.39712 9.07919 3.33291 9.07236C3.31306 9.07025 3.29427 9.06825 3.27745 9.06825C3.20624 9.06825 3.13502 8.99648 3.0638 8.88883C3.0094 8.834 3.01734 8.75824 3.02412 8.69352C3.02621 8.67353 3.0282 8.65458 3.0282 8.63764C3.84719 6.08987 5.6276 4.00859 8.04897 2.82442C10.4347 1.60436 13.1766 1.46082 15.7048 2.32204C19.7641 3.68564 22.5059 7.52523 22.5059 11.8672V12.1902L23.8947 10.7907C23.9659 10.7189 24.0371 10.683 24.1439 10.683C24.2507 10.683 24.322 10.7189 24.3932 10.7907C24.4644 10.8625 24.5 10.9342 24.5 11.0419C24.5 11.1495 24.4644 11.2213 24.3932 11.2931L22.4347 13.2308C22.3635 13.3026 22.2923 13.3385 22.1855 13.3385ZM12.3932 22.3453C11.2893 22.3453 10.2211 22.1659 9.18843 21.8071C5.12908 20.4076 2.38724 16.568 2.35163 12.1901V11.8672L1.06973 13.159C0.998516 13.2308 0.9273 13.2666 0.820475 13.2666C0.735946 13.2666 0.696008 13.2442 0.647735 13.217C0.635002 13.2099 0.621689 13.2024 0.606825 13.1949C0.535608 13.1231 0.5 13.0513 0.5 12.9437C0.5 12.836 0.535608 12.7643 0.571217 12.6925L2.52967 10.7548C2.60089 10.683 2.67211 10.6471 2.77893 10.6471C2.88576 10.6471 2.95697 10.683 3.02819 10.7548L4.95104 12.7284C5.02225 12.8002 5.05786 12.8719 5.05786 12.9796C5.05786 13.0872 5.02225 13.159 4.95104 13.2308C4.87982 13.3025 4.8086 13.3384 4.70178 13.3384C4.59495 13.3384 4.52374 13.3025 4.45252 13.2308L3.0638 11.7595V12.0825C3.02819 14.7738 4.13205 17.3574 6.0905 19.1516L6.30415 19.3669V9.71412C6.30415 9.67824 6.30415 9.60647 6.33976 9.57059L7.30119 7.99169C7.31899 7.97375 7.33679 7.94683 7.3546 7.91992C7.3724 7.89301 7.39021 7.86609 7.40801 7.84815C7.44362 7.77638 7.51484 7.7405 7.62166 7.7405H17.3427C17.4852 7.7405 17.592 7.84815 17.6632 8.02757L18.589 9.57059C18.589 9.58853 18.5979 9.61544 18.6068 9.64236C18.6157 9.66927 18.6246 9.69618 18.6246 9.71412V19.2234L18.8383 19.0081C19.9421 17.9316 20.7255 16.6398 21.1884 15.2403C21.224 15.1326 21.2952 15.0609 21.3665 15.025C21.4377 14.9891 21.5445 14.9891 21.6157 15.025H21.6513C21.7582 15.0609 21.8294 15.1326 21.865 15.2044C21.9006 15.312 21.9006 15.3838 21.865 15.4915C21.0816 18.0033 19.2656 20.0846 16.8442 21.3047C15.3843 21.9865 13.8887 22.3453 12.3932 22.3453ZM17.7344 9.39117L17.1291 8.38641H13.8531L14.0312 9.39117H17.7344ZM13.1409 8.38641H11.7522L11.5386 9.39117H13.3546L13.1409 8.38641ZM13.4614 10.0371H11.503V13.0513L12.3932 12.836H12.5L13.4614 13.0513V10.0371ZM11.0757 8.38641H7.7997L7.22997 9.39117H10.8976L11.0757 8.38641ZM10.8264 10.0371H6.98071H6.9451V19.8334L7.01632 19.8693C7.76409 20.4076 8.54748 20.8382 9.36647 21.0894C10.3279 21.4123 11.3605 21.5918 12.3576 21.5918C14.316 21.5918 16.2745 20.9817 17.8769 19.7617L17.9481 19.7258V10.0371H14.0312L13.9955 13.5178V13.5537C13.9599 13.6973 13.8175 13.769 13.6751 13.769H13.6039L12.4288 13.4461L11.2537 13.769H11.1825C11.0401 13.769 10.9332 13.6973 10.862 13.5178C10.8264 13.482 10.8264 10.0371 10.8264 10.0371Z" />
    </mask>
    <path fill-rule="evenodd" clip-rule="evenodd"
        d="M22.1855 13.3385C22.0786 13.3385 22.0074 13.3026 21.9362 13.2308L19.9777 11.2931C19.9065 11.2213 19.8709 11.1495 19.8709 11.0419C19.8709 10.9342 19.9065 10.8625 19.9777 10.7907C20.049 10.7189 20.1202 10.683 20.227 10.683C20.3338 10.683 20.405 10.7189 20.4763 10.7907L21.7938 12.1543V11.8313C21.7582 7.81231 19.23 4.25978 15.4911 2.96796C13.1053 2.14262 10.5772 2.32204 8.36944 3.43445C6.16173 4.54686 4.48814 6.44871 3.70475 8.81706C3.70475 8.88883 3.63354 8.9606 3.52671 9.03237C3.47231 9.08719 3.39712 9.07919 3.33291 9.07236C3.31306 9.07025 3.29427 9.06825 3.27745 9.06825C3.20624 9.06825 3.13502 8.99648 3.0638 8.88883C3.0094 8.834 3.01734 8.75824 3.02412 8.69352C3.02621 8.67353 3.0282 8.65458 3.0282 8.63764C3.84719 6.08987 5.6276 4.00859 8.04897 2.82442C10.4347 1.60436 13.1766 1.46082 15.7048 2.32204C19.7641 3.68564 22.5059 7.52523 22.5059 11.8672V12.1902L23.8947 10.7907C23.9659 10.7189 24.0371 10.683 24.1439 10.683C24.2507 10.683 24.322 10.7189 24.3932 10.7907C24.4644 10.8625 24.5 10.9342 24.5 11.0419C24.5 11.1495 24.4644 11.2213 24.3932 11.2931L22.4347 13.2308C22.3635 13.3026 22.2923 13.3385 22.1855 13.3385ZM12.3932 22.3453C11.2893 22.3453 10.2211 22.1659 9.18843 21.8071C5.12908 20.4076 2.38724 16.568 2.35163 12.1901V11.8672L1.06973 13.159C0.998516 13.2308 0.9273 13.2666 0.820475 13.2666C0.735946 13.2666 0.696008 13.2442 0.647735 13.217C0.635002 13.2099 0.621689 13.2024 0.606825 13.1949C0.535608 13.1231 0.5 13.0513 0.5 12.9437C0.5 12.836 0.535608 12.7643 0.571217 12.6925L2.52967 10.7548C2.60089 10.683 2.67211 10.6471 2.77893 10.6471C2.88576 10.6471 2.95697 10.683 3.02819 10.7548L4.95104 12.7284C5.02225 12.8002 5.05786 12.8719 5.05786 12.9796C5.05786 13.0872 5.02225 13.159 4.95104 13.2308C4.87982 13.3025 4.8086 13.3384 4.70178 13.3384C4.59495 13.3384 4.52374 13.3025 4.45252 13.2308L3.0638 11.7595V12.0825C3.02819 14.7738 4.13205 17.3574 6.0905 19.1516L6.30415 19.3669V9.71412C6.30415 9.67824 6.30415 9.60647 6.33976 9.57059L7.30119 7.99169C7.31899 7.97375 7.33679 7.94683 7.3546 7.91992C7.3724 7.89301 7.39021 7.86609 7.40801 7.84815C7.44362 7.77638 7.51484 7.7405 7.62166 7.7405H17.3427C17.4852 7.7405 17.592 7.84815 17.6632 8.02757L18.589 9.57059C18.589 9.58853 18.5979 9.61544 18.6068 9.64236C18.6157 9.66927 18.6246 9.69618 18.6246 9.71412V19.2234L18.8383 19.0081C19.9421 17.9316 20.7255 16.6398 21.1884 15.2403C21.224 15.1326 21.2952 15.0609 21.3665 15.025C21.4377 14.9891 21.5445 14.9891 21.6157 15.025H21.6513C21.7582 15.0609 21.8294 15.1326 21.865 15.2044C21.9006 15.312 21.9006 15.3838 21.865 15.4915C21.0816 18.0033 19.2656 20.0846 16.8442 21.3047C15.3843 21.9865 13.8887 22.3453 12.3932 22.3453ZM17.7344 9.39117L17.1291 8.38641H13.8531L14.0312 9.39117H17.7344ZM13.1409 8.38641H11.7522L11.5386 9.39117H13.3546L13.1409 8.38641ZM13.4614 10.0371H11.503V13.0513L12.3932 12.836H12.5L13.4614 13.0513V10.0371ZM11.0757 8.38641H7.7997L7.22997 9.39117H10.8976L11.0757 8.38641ZM10.8264 10.0371H6.98071H6.9451V19.8334L7.01632 19.8693C7.76409 20.4076 8.54748 20.8382 9.36647 21.0894C10.3279 21.4123 11.3605 21.5918 12.3576 21.5918C14.316 21.5918 16.2745 20.9817 17.8769 19.7617L17.9481 19.7258V10.0371H14.0312L13.9955 13.5178V13.5537C13.9599 13.6973 13.8175 13.769 13.6751 13.769H13.6039L12.4288 13.4461L11.2537 13.769H11.1825C11.0401 13.769 10.9332 13.6973 10.862 13.5178C10.8264 13.482 10.8264 10.0371 10.8264 10.0371Z"
        fill="currentColor" />
    <path
        d="M21.9362 13.2308L22.0782 13.0899L22.0769 13.0886L21.9362 13.2308ZM19.9777 11.2931L19.8358 11.4339L19.8371 11.4352L19.9777 11.2931ZM20.4763 10.7907L20.6201 10.6517L20.6182 10.6498L20.4763 10.7907ZM21.7938 12.1543L21.6499 12.2933L21.9938 12.6491V12.1543H21.7938ZM21.7938 11.8313H21.9938L21.9938 11.8296L21.7938 11.8313ZM15.4911 2.96796L15.4257 3.15697L15.4258 3.15699L15.4911 2.96796ZM8.36944 3.43445L8.27945 3.25584H8.27945L8.36944 3.43445ZM3.70475 8.81706L3.51487 8.75425L3.50475 8.78484V8.81706H3.70475ZM3.52671 9.03237L3.41518 8.86635L3.39872 8.87741L3.38475 8.89149L3.52671 9.03237ZM3.33291 9.07236L3.35407 8.87348L3.35406 8.87348L3.33291 9.07236ZM3.0638 8.88883L3.23061 8.77848L3.2197 8.76199L3.20577 8.74796L3.0638 8.88883ZM3.02412 8.69352L2.82521 8.67268L3.02412 8.69352ZM3.0282 8.63764L2.83779 8.57644L2.8282 8.60629V8.63764H3.0282ZM8.04897 2.82442L8.13685 3.00411L8.14003 3.00249L8.04897 2.82442ZM15.7048 2.32204L15.6403 2.51136L15.6411 2.51163L15.7048 2.32204ZM22.5059 12.1902H22.3059V12.6757L22.6479 12.331L22.5059 12.1902ZM23.8947 10.7907L23.7527 10.6498L23.8947 10.7907ZM24.3932 11.2931L24.5338 11.4352L24.5351 11.4339L24.3932 11.2931ZM22.4347 13.2308L22.294 13.0886L22.2928 13.0899L22.4347 13.2308ZM9.18843 21.8071L9.25408 21.6181L9.25361 21.618L9.18843 21.8071ZM2.35163 12.1901H2.15163L2.15164 12.1918L2.35163 12.1901ZM2.35163 11.8672H2.55163V11.3817L2.20967 11.7263L2.35163 11.8672ZM1.06973 13.159L0.927767 13.0181L0.927766 13.0181L1.06973 13.159ZM0.647735 13.217L0.745799 13.0427L0.745795 13.0427L0.647735 13.217ZM0.606825 13.1949L0.464859 13.3358L0.487777 13.3588L0.516834 13.3735L0.606825 13.1949ZM0.571217 12.6925L0.430549 12.5503L0.406865 12.5738L0.392057 12.6036L0.571217 12.6925ZM2.52967 10.7548L2.67035 10.8969L2.67164 10.8956L2.52967 10.7548ZM3.02819 10.7548L3.17145 10.6152L3.17015 10.6139L3.02819 10.7548ZM4.95104 12.7284L4.80778 12.868L4.80907 12.8693L4.95104 12.7284ZM4.95104 13.2308L4.80907 13.0899L4.80907 13.0899L4.95104 13.2308ZM4.45252 13.2308L4.30703 13.3681L4.31056 13.3716L4.45252 13.2308ZM3.0638 11.7595L3.20924 11.6222L2.8638 11.2563V11.7595H3.0638ZM3.0638 12.0825L3.2638 12.0851V12.0825H3.0638ZM6.0905 19.1516L6.23263 19.0106L6.22561 19.0042L6.0905 19.1516ZM6.30415 19.3669L6.16219 19.5078L6.50415 19.8524V19.3669H6.30415ZM6.33976 9.57059L6.48173 9.71146L6.49833 9.69473L6.51058 9.6746L6.33976 9.57059ZM7.30119 7.99169L7.15922 7.85081L7.14262 7.86754L7.13036 7.88767L7.30119 7.99169ZM7.3546 7.91992L7.5214 8.03027L7.5214 8.03027L7.3546 7.91992ZM7.40801 7.84815L7.54998 7.98903L7.57278 7.96604L7.58717 7.93704L7.40801 7.84815ZM17.6632 8.02757L17.4773 8.10136L17.4833 8.1165L17.4917 8.13047L17.6632 8.02757ZM18.589 9.57059H18.789V9.51519L18.7605 9.46769L18.589 9.57059ZM18.6068 9.64236L18.7967 9.57955L18.7967 9.57954L18.6068 9.64236ZM18.6246 19.2234H18.4246V19.7089L18.7666 19.3643L18.6246 19.2234ZM18.8383 19.0081L18.6986 18.8649L18.6963 18.8672L18.8383 19.0081ZM21.1884 15.2403L20.9985 15.1775V15.1775L21.1884 15.2403ZM21.3665 15.025L21.4565 15.2036L21.4565 15.2036L21.3665 15.025ZM21.6157 15.025L21.5257 15.2036L21.5682 15.225H21.6157V15.025ZM21.6513 15.025L21.715 14.8354L21.684 14.825H21.6513V15.025ZM21.865 15.2044L22.0549 15.1416L22.0504 15.1282L22.0441 15.1155L21.865 15.2044ZM21.865 15.4915L21.6751 15.4286L21.6741 15.4319L21.865 15.4915ZM16.8442 21.3047L16.9289 21.486L16.9342 21.4833L16.8442 21.3047ZM17.1291 8.38641L17.3004 8.2832L17.2421 8.18641H17.1291V8.38641ZM17.7344 9.39117V9.59117H18.0884L17.9057 9.28796L17.7344 9.39117ZM13.8531 8.38641V8.18641H13.6146L13.6562 8.42131L13.8531 8.38641ZM14.0312 9.39117L13.8342 9.42606L13.8635 9.59117H14.0312V9.39117ZM11.7522 8.38641V8.18641H11.5903L11.5566 8.34481L11.7522 8.38641ZM13.1409 8.38641L13.3366 8.34481L13.3029 8.18641H13.1409V8.38641ZM11.5386 9.39117L11.3429 9.34957L11.2916 9.59117H11.5386V9.39117ZM13.3546 9.39117V9.59117H13.6016L13.5502 9.34957L13.3546 9.39117ZM11.503 10.0371V9.83708H11.303V10.0371H11.503ZM13.4614 10.0371H13.6614V9.83708H13.4614V10.0371ZM11.503 13.0513H11.303V13.3055L11.55 13.2457L11.503 13.0513ZM12.3932 12.836V12.636H12.3693L12.3462 12.6416L12.3932 12.836ZM12.5 12.836L12.5437 12.6409L12.5221 12.636H12.5V12.836ZM13.4614 13.0513L13.4177 13.2465L13.6614 13.3011V13.0513H13.4614ZM7.7997 8.38641V8.18641H7.68319L7.62573 8.28776L7.7997 8.38641ZM11.0757 8.38641L11.2726 8.42131L11.3142 8.18641H11.0757V8.38641ZM7.22997 9.39117L7.05599 9.29252L6.88665 9.59117H7.22997V9.39117ZM10.8976 9.39117V9.59117H11.0653L11.0946 9.42606L10.8976 9.39117ZM10.8264 10.0371H11.0264V9.83708H10.8264V10.0371ZM6.9451 10.0371V9.83708H6.7451V10.0371H6.9451ZM6.9451 19.8334H6.7451V19.9566L6.8551 20.012L6.9451 19.8334ZM7.01632 19.8693L7.13316 19.707L7.12038 19.6978L7.10632 19.6907L7.01632 19.8693ZM9.36647 21.0894L9.43018 20.8997L9.42511 20.8982L9.36647 21.0894ZM17.8769 19.7617L17.7869 19.5831L17.7704 19.5914L17.7557 19.6025L17.8769 19.7617ZM17.9481 19.7258L18.0381 19.9044L18.1481 19.849V19.7258H17.9481ZM17.9481 10.0371H18.1481V9.83708H17.9481V10.0371ZM14.0312 10.0371V9.83708H13.8332L13.8312 10.035L14.0312 10.0371ZM13.9955 13.5178L13.7955 13.5158V13.5178H13.9955ZM13.9955 13.5537L14.1897 13.6019L14.1955 13.5782V13.5537H13.9955ZM13.6039 13.769L13.5509 13.9619L13.5769 13.969H13.6039V13.769ZM12.4288 13.4461L12.4818 13.2532L12.4288 13.2387L12.3758 13.2532L12.4288 13.4461ZM11.2537 13.769V13.969H11.2807L11.3067 13.9619L11.2537 13.769ZM10.862 13.5178L11.0479 13.4441L11.0328 13.406L11.004 13.377L10.862 13.5178ZM21.7942 13.3717C21.8416 13.4194 21.8969 13.4633 21.9657 13.4941C22.0354 13.5253 22.1085 13.5385 22.1855 13.5385V13.1385C22.1556 13.1385 22.1397 13.1337 22.1292 13.129C22.1179 13.1239 22.102 13.114 22.0782 13.0899L21.7942 13.3717ZM19.8371 11.4352L21.7955 13.373L22.0769 13.0886L20.1184 11.1509L19.8371 11.4352ZM19.6709 11.0419C19.6709 11.1188 19.6839 11.1919 19.7146 11.2616C19.745 11.3305 19.7884 11.3862 19.8358 11.4339L20.1197 11.1522C20.0959 11.1282 20.0858 11.1121 20.0806 11.1002C20.0758 11.0892 20.0709 11.0726 20.0709 11.0419H19.6709ZM19.8358 10.6498C19.7884 10.6976 19.745 10.7532 19.7146 10.8221C19.6839 10.8919 19.6709 10.9649 19.6709 11.0419H20.0709C20.0709 11.0112 20.0758 10.9945 20.0806 10.9835C20.0858 10.9717 20.0959 10.9556 20.1197 10.9316L19.8358 10.6498ZM20.227 10.483C20.1501 10.483 20.077 10.4962 20.0073 10.5274C19.9385 10.5582 19.8831 10.6021 19.8358 10.6498L20.1197 10.9316C20.1436 10.9075 20.1594 10.8976 20.1708 10.8925C20.1812 10.8878 20.1971 10.883 20.227 10.883V10.483ZM20.6182 10.6498C20.5709 10.6021 20.5155 10.5582 20.4467 10.5274C20.377 10.4962 20.304 10.483 20.227 10.483V10.883C20.2569 10.883 20.2728 10.8878 20.2832 10.8925C20.2946 10.8976 20.3104 10.9075 20.3343 10.9316L20.6182 10.6498ZM21.9376 12.0153L20.6201 10.6517L20.3324 10.9297L21.6499 12.2933L21.9376 12.0153ZM21.5938 11.8313V12.1543H21.9938V11.8313H21.5938ZM15.4258 3.15699C19.0831 4.42062 21.5589 7.89699 21.5938 11.8331L21.9938 11.8296C21.9574 7.72763 19.3769 4.09894 15.5564 2.77892L15.4258 3.15699ZM8.45944 3.61306C10.6189 2.52497 13.091 2.3493 15.4257 3.15697L15.5565 2.77895C13.1197 1.93595 10.5354 2.11912 8.27945 3.25584L8.45944 3.61306ZM3.89464 8.87987C4.66099 6.563 6.29793 4.70218 8.45944 3.61306L8.27945 3.25584C6.02553 4.39153 4.31528 6.33442 3.51487 8.75425L3.89464 8.87987ZM3.63825 9.19838C3.69808 9.15818 3.75902 9.11088 3.80681 9.05584C3.85352 9.00204 3.90475 8.92096 3.90475 8.81706H3.50475C3.50475 8.78493 3.52038 8.77562 3.50478 8.79359C3.49025 8.81032 3.46217 8.83479 3.41518 8.86635L3.63825 9.19838ZM3.31175 9.27124C3.356 9.27595 3.53616 9.30679 3.66868 9.17324L3.38475 8.89149C3.3897 8.8865 3.39608 8.88221 3.40251 8.8794C3.40834 8.87686 3.41155 8.87669 3.40987 8.87689C3.40787 8.87712 3.40275 8.87746 3.39271 8.87696C3.38223 8.87643 3.37096 8.87528 3.35407 8.87348L3.31175 9.27124ZM3.27745 9.26825C3.28156 9.26825 3.28908 9.26883 3.31175 9.27124L3.35406 8.87348C3.33705 8.87167 3.30697 8.86825 3.27745 8.86825V9.26825ZM2.897 8.99918C2.93683 9.05938 2.98372 9.12074 3.03835 9.16892C3.0916 9.21587 3.17277 9.26825 3.27745 9.26825V8.86825C3.31092 8.86825 3.32087 8.88474 3.30291 8.8689C3.28632 8.85428 3.262 8.82593 3.23061 8.77848L2.897 8.99918ZM2.82521 8.67268C2.82053 8.71731 2.79012 8.89697 2.92184 9.0297L3.20577 8.74796C3.21071 8.75294 3.21482 8.7592 3.21745 8.76532C3.21982 8.77083 3.2199 8.77367 3.21966 8.77162C3.21938 8.76927 3.21905 8.76384 3.21956 8.75355C3.22009 8.74285 3.22125 8.73136 3.22303 8.71436L2.82521 8.67268ZM2.8282 8.63764C2.8282 8.64207 2.82759 8.64991 2.82521 8.67268L3.22303 8.71436C3.22483 8.69714 3.2282 8.6671 3.2282 8.63764H2.8282ZM7.9611 2.64475C5.49026 3.85313 3.67322 5.97753 2.83779 8.57644L3.2186 8.69885C4.02115 6.20222 5.76494 4.16406 8.13683 3.00408L7.9611 2.64475ZM15.7692 2.13273C13.1926 1.25501 10.3944 1.40033 7.95791 2.64635L8.14003 3.00249C10.475 1.8084 13.1605 1.66664 15.6403 2.51136L15.7692 2.13273ZM22.7059 11.8672C22.7059 7.44063 19.9105 3.52382 15.7684 2.13245L15.6411 2.51163C19.6177 3.84745 22.3059 7.60984 22.3059 11.8672H22.7059ZM22.7059 12.1902V11.8672H22.3059V12.1902H22.7059ZM23.7527 10.6498L22.364 12.0493L22.6479 12.331L24.0366 10.9316L23.7527 10.6498ZM24.1439 10.483C24.067 10.483 23.9939 10.4962 23.9242 10.5274C23.8554 10.5582 23.8 10.6021 23.7527 10.6498L24.0366 10.9316C24.0605 10.9075 24.0764 10.8976 24.0877 10.8925C24.0981 10.8878 24.114 10.883 24.1439 10.883V10.483ZM24.5351 10.6498C24.4878 10.6021 24.4324 10.5582 24.3637 10.5274C24.294 10.4962 24.2209 10.483 24.1439 10.483V10.883C24.1738 10.883 24.1897 10.8878 24.2001 10.8925C24.2115 10.8976 24.2273 10.9075 24.2512 10.9316L24.5351 10.6498ZM24.7 11.0419C24.7 10.9649 24.687 10.8919 24.6563 10.8221C24.6259 10.7532 24.5825 10.6976 24.5351 10.6498L24.2512 10.9316C24.275 10.9556 24.2851 10.9717 24.2903 10.9835C24.2952 10.9945 24.3 11.0112 24.3 11.0419H24.7ZM24.5351 11.4339C24.5825 11.3862 24.6259 11.3305 24.6563 11.2616C24.687 11.1919 24.7 11.1188 24.7 11.0419H24.3C24.3 11.0726 24.2952 11.0892 24.2903 11.1002C24.2851 11.112 24.275 11.1282 24.2512 11.1522L24.5351 11.4339ZM22.5754 13.373L24.5338 11.4352L24.2525 11.1509L22.2941 13.0886L22.5754 13.373ZM22.1855 13.5385C22.2624 13.5385 22.3355 13.5253 22.4052 13.4941C22.474 13.4633 22.5293 13.4194 22.5767 13.3717L22.2928 13.0899C22.2689 13.114 22.253 13.1239 22.2417 13.129C22.2313 13.1337 22.2153 13.1385 22.1855 13.1385V13.5385ZM9.12278 21.996C10.1767 22.3622 11.2672 22.5453 12.3932 22.5453V22.1453C11.3114 22.1453 10.2654 21.9696 9.25408 21.6181L9.12278 21.996ZM2.15164 12.1918C2.18792 16.6528 4.98229 20.5685 9.12324 21.9961L9.25361 21.618C5.27587 20.2466 2.58656 16.4832 2.55163 12.1885L2.15164 12.1918ZM2.15163 11.8672V12.1901H2.55163V11.8672H2.15163ZM1.2117 13.2999L2.4936 12.008L2.20967 11.7263L0.927767 13.0181L1.2117 13.2999ZM0.820475 13.4666C0.897423 13.4666 0.970511 13.4535 1.04021 13.4223C1.10899 13.3915 1.16435 13.3476 1.2117 13.2999L0.927766 13.0181C0.903899 13.0422 0.88804 13.0521 0.876705 13.0572C0.866284 13.0619 0.850351 13.0666 0.820475 13.0666V13.4666ZM0.549671 13.3913C0.571933 13.4039 0.609478 13.4256 0.656301 13.4414C0.70609 13.4583 0.759207 13.4666 0.820475 13.4666V13.0666C0.797214 13.0666 0.788098 13.0638 0.784718 13.0626C0.778371 13.0605 0.771811 13.0573 0.745799 13.0427L0.549671 13.3913ZM0.516834 13.3735C0.52704 13.3786 0.536573 13.384 0.549676 13.3913L0.745795 13.0427C0.733431 13.0358 0.716338 13.0261 0.696816 13.0163L0.516834 13.3735ZM0.3 12.9437C0.3 13.0207 0.312958 13.0937 0.343713 13.1634C0.374104 13.2324 0.41747 13.288 0.464859 13.3358L0.74879 13.054C0.724963 13.03 0.714917 13.0139 0.7097 13.002C0.704846 12.991 0.7 12.9744 0.7 12.9437H0.3ZM0.392057 12.6036C0.355643 12.677 0.3 12.7855 0.3 12.9437H0.7C0.7 12.8866 0.715574 12.8515 0.750376 12.7814L0.392057 12.6036ZM2.38901 10.6126L0.430549 12.5503L0.711884 12.8347L2.67034 10.8969L2.38901 10.6126ZM2.77893 10.4471C2.70198 10.4471 2.6289 10.4603 2.5592 10.4915C2.49041 10.5223 2.43506 10.5662 2.38771 10.6139L2.67164 10.8956C2.69551 10.8716 2.71137 10.8616 2.7227 10.8566C2.73312 10.8519 2.74906 10.8471 2.77893 10.8471V10.4471ZM3.17015 10.6139C3.12281 10.5662 3.06745 10.5223 2.99867 10.4915C2.92897 10.4603 2.85588 10.4471 2.77893 10.4471V10.8471C2.80881 10.8471 2.82474 10.8519 2.83516 10.8566C2.8465 10.8616 2.86236 10.8716 2.88622 10.8956L3.17015 10.6139ZM5.09429 12.5888L3.17144 10.6152L2.88494 10.8943L4.80779 12.868L5.09429 12.5888ZM5.25786 12.9796C5.25786 12.9026 5.2449 12.8296 5.21415 12.7598C5.18376 12.6909 5.14039 12.6353 5.093 12.5875L4.80907 12.8693C4.8329 12.8933 4.84295 12.9094 4.84816 12.9212C4.85302 12.9322 4.85786 12.9489 4.85786 12.9796H5.25786ZM5.093 13.3716C5.14039 13.3239 5.18376 13.2682 5.21415 13.1993C5.2449 13.1296 5.25786 13.0565 5.25786 12.9796H4.85786C4.85786 13.0103 4.85302 13.0269 4.84816 13.0379C4.84295 13.0497 4.8329 13.0659 4.80907 13.0899L5.093 13.3716ZM4.70178 13.5384C4.77873 13.5384 4.85182 13.5252 4.92151 13.494C4.9903 13.4632 5.04566 13.4194 5.093 13.3716L4.80907 13.0899C4.7852 13.1139 4.76934 13.1239 4.75801 13.129C4.74759 13.1336 4.73166 13.1384 4.70178 13.1384V13.5384ZM4.31056 13.3716C4.3579 13.4194 4.41326 13.4632 4.48205 13.494C4.55174 13.5252 4.62483 13.5384 4.70178 13.5384V13.1384C4.6719 13.1384 4.65597 13.1336 4.64555 13.129C4.63421 13.1239 4.61836 13.1139 4.59449 13.0899L4.31056 13.3716ZM2.91836 11.8968L4.30708 13.368L4.59796 13.0935L3.20924 11.6222L2.91836 11.8968ZM3.2638 12.0825V11.7595H2.8638V12.0825H3.2638ZM6.22561 19.0042C4.30996 17.2492 3.22891 14.7205 3.26378 12.0851L2.86382 12.0798C2.82747 14.8271 3.95414 17.4657 5.9554 19.2991L6.22561 19.0042ZM6.44612 19.2261L6.23247 19.0108L5.94854 19.2925L6.16219 19.5078L6.44612 19.2261ZM6.10415 9.71412V19.3669H6.50415V9.71412H6.10415ZM6.1978 9.42971C6.13595 9.49204 6.11799 9.56916 6.11128 9.60972C6.1038 9.65497 6.10415 9.69733 6.10415 9.71412H6.50415C6.50415 9.70497 6.50418 9.6979 6.50451 9.69062C6.50483 9.68338 6.50538 9.67827 6.50592 9.67499C6.50652 9.67137 6.50661 9.67311 6.50449 9.67833C6.50238 9.68352 6.49616 9.69692 6.48173 9.71146L6.1978 9.42971ZM7.13036 7.88767L6.16894 9.46657L6.51058 9.6746L7.47201 8.0957L7.13036 7.88767ZM7.1878 7.80957C7.17842 7.82374 7.17181 7.83369 7.16572 7.84213C7.15939 7.85089 7.15749 7.85256 7.15922 7.85081L7.44315 8.13256C7.47794 8.09751 7.5074 8.05144 7.5214 8.03027L7.1878 7.80957ZM7.26605 7.70728C7.23126 7.74233 7.2018 7.7884 7.18779 7.80957L7.5214 8.03027C7.53078 8.0161 7.53739 8.00615 7.54348 7.99771C7.54981 7.98895 7.55171 7.98728 7.54998 7.98903L7.26605 7.70728ZM7.62166 7.5405C7.46853 7.5405 7.30966 7.59639 7.22885 7.75926L7.58717 7.93704C7.58718 7.93702 7.5869 7.93759 7.5862 7.93857C7.5855 7.93956 7.58455 7.94073 7.58336 7.94193C7.58077 7.94454 7.57856 7.9458 7.57812 7.94602C7.57799 7.94609 7.58937 7.9405 7.62166 7.9405V7.5405ZM17.3427 7.5405H7.62166V7.9405H17.3427V7.5405ZM17.8491 7.95379C17.7673 7.74765 17.6098 7.5405 17.3427 7.5405V7.9405C17.3582 7.9405 17.3733 7.94457 17.394 7.96366C17.4182 7.98604 17.4485 8.02865 17.4773 8.10136L17.8491 7.95379ZM18.7605 9.46769L17.8347 7.92467L17.4917 8.13047L18.4175 9.67349L18.7605 9.46769ZM18.7967 9.57954C18.7944 9.57259 18.7926 9.56709 18.791 9.56192C18.7893 9.55682 18.7883 9.5533 18.7876 9.55086C18.7869 9.54828 18.7871 9.54841 18.7874 9.55052C18.7877 9.55168 18.788 9.55391 18.7883 9.55701C18.7887 9.56007 18.789 9.56471 18.789 9.57059H18.389C18.389 9.6071 18.3972 9.63934 18.4015 9.65535C18.4066 9.67403 18.4129 9.69299 18.4169 9.70517L18.7967 9.57954ZM18.8246 9.71412C18.8246 9.67761 18.8165 9.64538 18.8121 9.62936C18.8071 9.61068 18.8007 9.59173 18.7967 9.57955L18.4169 9.70516C18.4192 9.71211 18.4211 9.71762 18.4227 9.72278C18.4243 9.72789 18.4253 9.73141 18.426 9.73385C18.4267 9.73643 18.4266 9.7363 18.4262 9.73419C18.426 9.73303 18.4256 9.7308 18.4253 9.7277C18.425 9.72464 18.4246 9.72 18.4246 9.71412H18.8246ZM18.8246 19.2234V9.71412H18.4246V19.2234H18.8246ZM18.6963 18.8672L18.4827 19.0825L18.7666 19.3643L18.9802 19.149L18.6963 18.8672ZM20.9985 15.1775C20.5453 16.5476 19.7787 17.8116 18.6986 18.8649L18.9779 19.1513C20.1055 18.0516 20.9057 16.7319 21.3783 15.3031L20.9985 15.1775ZM21.2765 14.8464C21.1588 14.9057 21.0511 15.0186 20.9985 15.1775L21.3783 15.3031C21.397 15.2466 21.4317 15.216 21.4565 15.2036L21.2765 14.8464ZM21.7057 14.8464C21.6366 14.8115 21.5599 14.7981 21.4911 14.7981C21.4223 14.7981 21.3456 14.8115 21.2765 14.8464L21.4565 15.2036C21.4564 15.2036 21.4573 15.2032 21.4592 15.2025C21.4611 15.2019 21.4636 15.2011 21.4669 15.2004C21.4737 15.199 21.482 15.1981 21.4911 15.1981C21.5002 15.1981 21.5085 15.199 21.5152 15.2004C21.5185 15.2011 21.5211 15.2019 21.523 15.2025C21.5249 15.2032 21.5257 15.2036 21.5257 15.2036L21.7057 14.8464ZM21.6513 14.825H21.6157V15.225H21.6513V14.825ZM22.0441 15.1155C21.9856 14.9976 21.8737 14.8887 21.715 14.8354L21.5876 15.2146C21.6426 15.233 21.6731 15.2676 21.6858 15.2933L22.0441 15.1155ZM22.0549 15.5543C22.0769 15.4877 22.0917 15.4208 22.0917 15.3479C22.0917 15.275 22.0769 15.2081 22.0549 15.1416L21.6751 15.2672C21.6887 15.3083 21.6917 15.3311 21.6917 15.3479C21.6917 15.3647 21.6887 15.3876 21.6751 15.4287L22.0549 15.5543ZM16.9342 21.4833C19.4012 20.2402 21.2555 18.1175 22.0559 15.551L21.6741 15.4319C20.9077 17.8892 19.13 19.929 16.7542 21.1261L16.9342 21.4833ZM12.3932 22.5453C13.9213 22.5453 15.4456 22.1786 16.9288 21.4859L16.7596 21.1235C15.3229 21.7944 13.8561 22.1453 12.3932 22.1453V22.5453ZM16.9578 8.48962L17.5631 9.49438L17.9057 9.28796L17.3004 8.2832L16.9578 8.48962ZM13.8531 8.58641H17.1291V8.18641H13.8531V8.58641ZM14.2281 9.35627L14.05 8.35152L13.6562 8.42131L13.8342 9.42606L14.2281 9.35627ZM17.7344 9.19117H14.0312V9.59117H17.7344V9.19117ZM11.7522 8.58641H13.1409V8.18641H11.7522V8.58641ZM11.7342 9.43277L11.9479 8.42801L11.5566 8.34481L11.3429 9.34957L11.7342 9.43277ZM13.3546 9.19117H11.5386V9.59117H13.3546V9.19117ZM12.9453 8.42801L13.159 9.43277L13.5502 9.34957L13.3366 8.34481L12.9453 8.42801ZM11.503 10.2371H13.4614V9.83708H11.503V10.2371ZM11.703 13.0513V10.0371H11.303V13.0513H11.703ZM12.3462 12.6416L11.4559 12.8569L11.55 13.2457L12.4402 13.0304L12.3462 12.6416ZM12.5 12.636H12.3932V13.036H12.5V12.636ZM13.5051 12.8562L12.5437 12.6409L12.4563 13.0312L13.4177 13.2465L13.5051 12.8562ZM13.2614 10.0371V13.0513H13.6614V10.0371H13.2614ZM7.7997 8.58641H11.0757V8.18641H7.7997V8.58641ZM7.40395 9.48982L7.97368 8.48506L7.62573 8.28776L7.05599 9.29252L7.40395 9.48982ZM10.8976 9.19117H7.22997V9.59117H10.8976V9.19117ZM10.8787 8.35152L10.7007 9.35627L11.0946 9.42606L11.2726 8.42131L10.8787 8.35152ZM6.98071 10.2371H10.8264V9.83708H6.98071V10.2371ZM6.9451 10.2371H6.98071V9.83708H6.9451V10.2371ZM7.1451 19.8334V10.0371H6.7451V19.8334H7.1451ZM7.10632 19.6907L7.0351 19.6548L6.8551 20.012L6.92632 20.0479L7.10632 19.6907ZM9.42511 20.8982C8.63273 20.6551 7.86891 20.2366 7.13316 19.707L6.89948 20.0316C7.65928 20.5786 8.46222 21.0212 9.30782 21.2806L9.42511 20.8982ZM12.3576 21.3918C11.3837 21.3918 10.3726 21.2164 9.43015 20.8998L9.30278 21.279C10.2832 21.6083 11.3373 21.7918 12.3576 21.7918V21.3918ZM17.7557 19.6025C16.1903 20.7944 14.2751 21.3918 12.3576 21.3918V21.7918C14.3569 21.7918 16.3586 21.169 17.998 19.9208L17.7557 19.6025ZM17.8581 19.5472L17.7869 19.5831L17.9668 19.9403L18.0381 19.9044L17.8581 19.5472ZM17.7481 10.0371V19.7258H18.1481V10.0371H17.7481ZM14.0312 10.2371H17.9481V9.83708H14.0312V10.2371ZM14.1955 13.5199L14.2311 10.0391L13.8312 10.035L13.7956 13.5158L14.1955 13.5199ZM14.1955 13.5537V13.5178H13.7955V13.5537H14.1955ZM13.6751 13.969C13.8701 13.969 14.1237 13.8678 14.1897 13.6019L13.8014 13.5056C13.7978 13.5203 13.7894 13.5332 13.77 13.5452C13.7481 13.5588 13.7145 13.569 13.6751 13.569V13.969ZM13.6039 13.969H13.6751V13.569H13.6039V13.969ZM12.3758 13.6389L13.5509 13.9619L13.6569 13.5762L12.4818 13.2532L12.3758 13.6389ZM11.3067 13.9619L12.4818 13.6389L12.3758 13.2532L11.2007 13.5762L11.3067 13.9619ZM11.1825 13.969H11.2537V13.569H11.1825V13.969ZM10.6761 13.5916C10.7206 13.7036 10.7837 13.8013 10.875 13.8703C10.9688 13.9412 11.0756 13.969 11.1825 13.969V13.569C11.147 13.569 11.1291 13.5609 11.1161 13.5512C11.1006 13.5394 11.0747 13.5115 11.0479 13.4441L10.6761 13.5916ZM10.8264 10.0371C10.6264 10.0371 10.6264 10.0371 10.6264 10.0371C10.6264 10.0371 10.6264 10.0372 10.6264 10.0372C10.6264 10.0373 10.6264 10.0375 10.6264 10.0377C10.6264 10.0381 10.6264 10.0388 10.6264 10.0396C10.6264 10.0413 10.6264 10.0437 10.6264 10.047C10.6264 10.0535 10.6264 10.0632 10.6264 10.0758C10.6264 10.1011 10.6264 10.1382 10.6265 10.1853C10.6265 10.2796 10.6267 10.4144 10.627 10.5762C10.6275 10.8999 10.6286 11.3319 10.6309 11.765C10.6331 12.198 10.6364 12.6328 10.6415 12.9619C10.644 13.1262 10.6469 13.2653 10.6504 13.3649C10.6521 13.4144 10.654 13.4562 10.6563 13.4872C10.6573 13.5022 10.6587 13.518 10.6607 13.532C10.6616 13.5386 10.6632 13.5493 10.6661 13.5613C10.6675 13.5671 10.6703 13.5776 10.6752 13.5899C10.678 13.5971 10.6904 13.6288 10.7201 13.6587L11.004 13.377C11.0331 13.4063 11.0449 13.437 11.0472 13.4429C11.0515 13.4538 11.0537 13.4625 11.0546 13.4661C11.0557 13.4704 11.0563 13.4735 11.0565 13.4749C11.0567 13.4757 11.0568 13.4764 11.0568 13.4767C11.0569 13.4771 11.0569 13.4773 11.0569 13.4774C11.0569 13.4774 11.0569 13.477 11.0567 13.476C11.0566 13.4751 11.0565 13.4738 11.0563 13.4721C11.056 13.4687 11.0556 13.4642 11.0552 13.4585C11.0535 13.435 11.0518 13.3991 11.0501 13.351C11.0468 13.2554 11.0439 13.1195 11.0414 12.9558C11.0364 12.6288 11.0331 12.1957 11.0309 11.763C11.0286 11.3304 11.0275 10.8989 11.027 10.5756C11.0267 10.4139 11.0265 10.2792 11.0265 10.185C11.0264 10.1379 11.0264 10.1009 11.0264 10.0757C11.0264 10.0631 11.0264 10.0534 11.0264 10.0469C11.0264 10.0437 11.0264 10.0412 11.0264 10.0396C11.0264 10.0387 11.0264 10.0381 11.0264 10.0377C11.0264 10.0375 11.0264 10.0373 11.0264 10.0372C11.0264 10.0372 11.0264 10.0371 11.0264 10.0371C11.0264 10.0371 11.0264 10.0371 10.8264 10.0371Z"
        fill="currentColor" mask="url(#path-1-outside-1_3484_13873)" />
</svg>