<svg width="100%" height="100%" viewBox="0 0 25 24" fill="currentColor" xmlns="http://www.w3.org/2000/svg" id="box">
    <path d="M22.8632 11.5253C22.8632 12.891 22.8828 14.2567 22.8571 15.623C22.8326 16.9006 22.3605 18.0278 21.4198 18.884C20.8694 19.3843 20.1856 19.7403 19.5526 20.147C18.1256 21.0664 16.6936 21.9812 15.2568 22.8912C14.578 23.3247 13.8272 23.6334 13.0397 23.8025C12.4532 23.9291 11.8911 23.8123 11.3273 23.6386C10.2264 23.298 9.32243 22.6124 8.37201 22.0069C6.86992 21.0503 5.36784 20.0938 3.87554 19.122C3.20278 18.6834 2.80402 18.0168 2.50434 17.2914C2.24646 16.6591 2.11915 15.9811 2.13004 15.2982C2.14716 12.6998 2.14716 10.1011 2.13004 7.50219C2.12453 6.57011 2.497 5.90041 3.29208 5.40685C5.86079 3.81302 8.40076 2.17578 10.9762 0.595404C11.9945 -0.0296505 13.088 0.0058215 14.1039 0.635768C16.7136 2.25406 19.3074 3.90538 21.9097 5.53712C22.5525 5.94078 22.8547 6.52791 22.8565 7.2759C22.8602 8.69236 22.8565 10.1088 22.8565 11.5253H22.8632ZM11.7621 22.2717C11.7713 22.0882 11.7804 21.9873 11.7804 21.8888C11.7804 18.8109 11.7784 15.7325 11.7743 12.6537C11.7679 12.4212 11.7147 12.1924 11.6178 11.9809C11.3615 11.4024 10.8991 10.9956 10.3793 10.6648C8.48944 9.46359 6.59348 8.27077 4.69141 7.0863C4.48907 6.9699 4.2703 6.88475 4.04251 6.83371C3.78197 6.76705 3.63335 6.88509 3.59604 7.15174C3.58512 7.26331 3.58185 7.3755 3.58625 7.48751C3.58625 10.148 3.57463 12.8084 3.59787 15.4689C3.60154 15.897 3.71591 16.3325 3.8523 16.7404C4.11223 17.5171 4.72994 17.9636 5.40515 18.385C7.12618 19.4528 8.81603 20.5702 10.5291 21.6509C10.9022 21.8864 11.3169 22.0503 11.7621 22.2717ZM13.2073 22.2717C13.6629 22.0509 14.0635 21.8998 14.4213 21.6754C16.2213 20.5421 17.9961 19.3684 19.8034 18.2504C20.8988 17.5734 21.3978 16.6168 21.3978 15.3594C21.3978 12.7299 21.3978 10.1001 21.3978 7.46978C21.4035 7.35777 21.4002 7.24549 21.388 7.13401C21.3471 6.88386 21.2095 6.73769 20.9416 6.81781C20.7254 6.87238 20.5172 6.9546 20.322 7.06245C19.0132 7.86772 17.7085 8.68095 16.4078 9.50212C15.7191 9.93574 15.0238 10.3614 14.3614 10.833C13.5938 11.3791 13.1663 12.077 13.1847 13.0989C13.2373 15.993 13.203 18.8883 13.203 21.7836L13.2073 22.2717ZM19.5857 5.80133C19.4578 5.71143 19.363 5.63926 19.2627 5.57627C18.4193 5.04601 17.5674 4.5286 16.7344 3.98121C16.494 3.82342 16.3313 3.8277 16.0916 3.98121C14.7039 4.86864 13.3033 5.7365 11.9083 6.61109C11.0594 7.14685 10.2068 7.68445 9.31509 8.24773C10.416 9.02201 11.6526 9.56878 12.463 10.633C12.8079 10.3113 13.1009 9.95654 13.4678 9.7119C14.7693 8.84281 16.0977 8.0092 17.4145 7.16703C18.1246 6.71384 18.8395 6.26982 19.5857 5.80133ZM5.38802 5.77565C5.48649 5.84781 5.54765 5.89797 5.61431 5.94078C6.27729 6.35911 6.94821 6.76399 7.59956 7.19823C7.84787 7.36397 8.02768 7.35724 8.27782 7.19823C9.99336 6.10713 11.7205 5.02827 13.4446 3.94635C13.9675 3.61854 14.4892 3.28888 15.0525 2.93416C14.4715 2.5672 13.932 2.23082 13.3945 1.88955C12.7926 1.50791 12.1969 1.5073 11.5915 1.88955C10.1542 2.79512 8.7145 3.69703 7.27236 4.59526L5.38802 5.77565Z" fill="currentColor"/>
</svg>
