<svg xmlns="http://www.w3.org/2000/svg" width="100%" height="100%" viewBox="0 0 36 36" id="clock">
  <title>Clock</title>
  <path
    d="M18 0C8.05645 0 0 8.05645 0 18C0 27.9435 8.05645 36 18 36C27.9435 36 36 27.9435 36 18C36 8.05645 27.9435 0 18 0ZM33.6774 18C33.6774 26.6153 26.7024 33.6774 18 33.6774C9.38468 33.6774 2.32258 26.7024 2.32258 18C2.32258 9.38468 9.29758 2.32258 18 2.32258C26.6153 2.32258 33.6774 9.29758 33.6774 18ZM22.8702 24.4089L16.9766 20.1266C16.7516 19.9597 16.621 19.6984 16.621 19.4226V7.83871C16.621 7.35968 17.0129 6.96774 17.4919 6.96774H18.5081C18.9871 6.96774 19.379 7.35968 19.379 7.83871V18.4573L24.496 22.1806C24.8879 22.4637 24.9677 23.0081 24.6847 23.4L24.0895 24.2202C23.8064 24.6048 23.2621 24.6919 22.8702 24.4089Z"
    fill="currentColor" />
</svg>