<svg xmlns="http://www.w3.org/2000/svg" width="100%" height="100%" viewBox="0 0 60 61" fill="none" id="cruelty_free">
<title>Cruelty Free</title>
<path d="M10.0687 14.665C9.91963 14.1591 9.91059 13.6548 10.0386 13.1504C10.168 12.6475 10.427 12.1928 10.8169 11.7878C11.2731 11.3136 11.7941 11.0155 12.3797 10.892C12.9654 10.7701 13.542 10.8438 14.1066 11.1149L13.1656 12.0935C12.869 11.9956 12.586 11.9866 12.315 12.0649C12.044 12.1432 11.7986 12.2982 11.5758 12.5301C11.3379 12.777 11.1843 13.0525 11.1151 13.3567C11.0458 13.6608 11.0639 13.9664 11.1723 14.2766C11.2792 14.5867 11.4749 14.8773 11.7579 15.1498C12.038 15.4193 12.3346 15.6015 12.6507 15.6993C12.9669 15.7972 13.274 15.8047 13.5752 15.7234C13.8763 15.6421 14.1443 15.478 14.3821 15.2311C14.6035 14.9992 14.748 14.7463 14.8142 14.4708C14.8805 14.1953 14.8594 13.9107 14.7495 13.6186L15.6905 12.64C15.9871 13.1986 16.0865 13.7707 15.9856 14.3579C15.8862 14.9435 15.6062 15.4765 15.147 15.9538C14.757 16.3588 14.3129 16.6358 13.8161 16.7848C13.3177 16.9339 12.8148 16.9444 12.3045 16.818C11.7956 16.6915 11.3319 16.4265 10.9148 16.0245C10.4978 15.624 10.2147 15.1694 10.0657 14.6635L10.0687 14.665Z" fill="#9AB898"/>
<path d="M21.0574 11.6208L18.8337 10.207L18.3429 10.4675L19.4209 12.4925L18.379 13.0465L15.6133 7.8523L17.563 6.81345C17.965 6.59966 18.3444 6.48825 18.7027 6.47922C19.061 6.47018 19.3742 6.54847 19.6437 6.71258C19.9132 6.87819 20.127 7.11005 20.2851 7.40665C20.4673 7.74842 20.532 8.11126 20.4808 8.49217C20.4296 8.87308 20.2354 9.22087 19.8981 9.53252L22.2619 10.9764L21.0559 11.6177L21.0574 11.6208ZM17.9258 9.68609L18.7961 9.22237C19.0791 9.07182 19.2538 8.89115 19.32 8.68037C19.3863 8.46959 19.3546 8.24375 19.2252 7.99985C19.0987 7.76197 18.9301 7.61442 18.7223 7.5557C18.513 7.49849 18.2676 7.54516 17.9846 7.69572L17.1143 8.15944L17.9258 9.68459V9.68609Z" fill="#9AB898"/>
<path d="M23.8014 4.42865L24.4925 8.00439C24.5678 8.39584 24.7289 8.67588 24.9728 8.84299C25.2167 9.01011 25.5238 9.05829 25.8942 8.98753C26.2691 8.91526 26.5386 8.75567 26.7027 8.50876C26.8668 8.26184 26.9104 7.94266 26.8352 7.55121L26.1426 3.97547L27.3094 3.74963L27.999 7.31785C28.0938 7.80866 28.0682 8.24528 27.9207 8.62469C27.7746 9.0056 27.5398 9.31574 27.2161 9.55513C26.8939 9.79452 26.513 9.95712 26.0779 10.0414C25.6473 10.1242 25.2408 10.1152 24.8568 10.0113C24.4729 9.90743 24.1462 9.70719 23.8767 9.40608C23.6072 9.10647 23.425 8.7105 23.3302 8.21969L22.6406 4.65147L23.7999 4.42714L23.8014 4.42865Z" fill="#9AB898"/>
<path d="M31.8099 4.7342L31.6774 6.20364L33.6512 6.3813L33.5669 7.31325L31.5931 7.13559L31.4531 8.68935L33.6783 8.88959L33.5925 9.84713L30.1914 9.54L30.7214 3.67126L34.1225 3.9784L34.0351 4.93595L31.8099 4.73571V4.7342Z" fill="#9AB898"/>
<path d="M36.7175 9.7433L38.5558 10.3606L38.2577 11.2474L35.3008 10.2537L37.1752 4.67554L38.2939 5.05193L36.7175 9.7433Z" fill="#9AB898"/>
<path d="M46.0876 9.03266L45.5772 9.83663L44.2538 8.99502L41.61 13.1594L40.6133 12.5271L43.2571 8.36418L41.9337 7.52407L42.4441 6.72009L46.0876 9.03416V9.03266Z" fill="#9AB898"/>
<path d="M51.5744 14.552L47.3859 15.618L45.8562 16.9805L45.0703 16.0998L46.6 14.7372L48.1342 10.6932L49.0209 11.6884L47.8541 14.4225L50.6982 13.5719L51.5729 14.5535L51.5744 14.552Z" fill="#9AB898"/>
<path d="M25.7204 50.3741L25.332 51.5545L22.8689 50.743L22.4488 52.0182L24.2916 52.625L23.9137 53.7707L22.0709 53.164L21.2654 55.6105L19.793 55.1257L21.7848 49.0793L25.7204 50.3756V50.3741Z" fill="#9AB898"/>
<path d="M30.3124 57.0785L29.0372 54.65L28.6653 54.6424L28.6171 57.0453L27.0664 57.0137L27.1929 50.6497L29.7945 50.7008C30.2959 50.7114 30.7219 50.8077 31.0727 50.9899C31.4235 51.1721 31.6825 51.4175 31.8511 51.7261C32.0197 52.0348 32.101 52.3766 32.0935 52.7514C32.0845 53.1745 31.958 53.5494 31.7126 53.8776C31.4672 54.2058 31.1104 54.4347 30.6421 54.5642L32.0604 57.1131L30.3109 57.0785H30.3124ZM28.6864 53.5449L29.647 53.5644C29.9315 53.5705 30.1453 53.5042 30.2898 53.3687C30.4344 53.2332 30.5097 53.0375 30.5142 52.7831C30.5187 52.5407 30.4509 52.3495 30.3124 52.2079C30.1739 52.0664 29.9616 51.9926 29.6771 51.9866L28.7165 51.967L28.6849 53.5449H28.6864Z" fill="#9AB898"/>
<path d="M35.6003 51.2129L35.9511 52.4519L37.949 51.8859L38.2757 53.0376L36.2778 53.6037L36.6587 54.9467L38.9186 54.3068L39.2574 55.5022L35.5055 56.5652L33.7695 50.4405L37.5214 49.3776L37.8602 50.573L35.6003 51.2129Z" fill="#9AB898"/>
<path d="M41.0787 48.9047L41.7562 49.9992L43.5222 48.9077L44.1515 49.9255L42.3855 51.017L43.1202 52.2049L45.1181 50.9703L45.7715 52.0272L42.4548 54.0763L39.1094 48.6608L42.4262 46.6117L43.0796 47.6686L41.0817 48.9032L41.0787 48.9047Z" fill="#9AB898"/>
<path d="M30.0013 58.6277C45.6386 58.6277 58.3152 45.9511 58.3152 30.3138C58.3152 14.6765 45.6386 2 30.0013 2C14.364 2 1.6875 14.6765 1.6875 30.3138C1.6875 45.9511 14.364 58.6277 30.0013 58.6277Z" stroke="#9AB898" stroke-width="1.59085" stroke-miterlimit="10"/>
<path d="M30.0012 48.8581C40.2429 48.8581 48.5454 40.5556 48.5454 30.3139C48.5454 20.0723 40.2429 11.7698 30.0012 11.7698C19.7595 11.7698 11.457 20.0723 11.457 30.3139C11.457 40.5556 19.7595 48.8581 30.0012 48.8581Z" stroke="#9AB898" stroke-width="1.59085" stroke-miterlimit="10"/>
<mask id="mask0_6507_39964" style="mask-type:luminance" maskUnits="userSpaceOnUse" x="17" y="16" width="26" height="28">
<path d="M42.049 16.7577H17.9492V43.8701H42.049V16.7577Z" fill="white"/>
</mask>
<g mask="url(#mask0_6507_39964)">
<path d="M26.9448 16.7575C28.6552 17.3025 29.7 19.0204 29.4576 20.8677C29.3492 21.6898 29.1279 22.4637 28.6085 23.1336C27.5365 24.5142 25.7645 24.5248 24.6834 23.1547C23.4594 21.6055 23.5106 19.1634 24.7888 17.6624C25.1984 17.1806 25.7313 16.9141 26.3336 16.7545L26.9448 16.7575ZM28.7636 20.3288C28.7485 19.5489 28.5332 18.6982 27.8677 18.0162C27.1285 17.2589 26.1604 17.2589 25.4121 18.0056C24.2002 19.2101 24.1987 21.735 25.4121 22.9424C26.1649 23.6952 27.258 23.6576 27.9566 22.8431C28.5392 22.1595 28.7636 21.3495 28.7636 20.3288Z" fill="#9AB898"/>
<path d="M33.9634 16.7576C35.6753 17.3026 36.7186 19.028 36.4777 20.8753C36.3724 21.6748 36.1525 22.423 35.6632 23.0795C34.5732 24.5414 32.7304 24.5399 31.6433 23.0795C30.4961 21.5348 30.5503 19.2147 31.7578 17.7287C32.1763 17.2153 32.7228 16.9262 33.3507 16.7606L33.9619 16.7576H33.9634ZM31.5289 20.6495C31.5229 21.4535 31.812 22.2333 32.3404 22.8446C33.0405 23.6606 34.1275 23.6983 34.8848 22.944C36.0908 21.744 36.0878 19.2056 34.8773 18.0042C34.1426 17.2725 33.1851 17.2619 32.4488 17.9936C31.7638 18.6742 31.5319 19.5308 31.5319 20.6495H31.5289Z" fill="#9AB898"/>
<path d="M42.0487 24.4555C41.9267 25.2234 41.6933 25.94 41.1679 26.5468C40.0959 27.7874 38.3359 27.4953 37.7502 25.9656C37.2624 24.6874 37.4386 23.4889 38.2591 22.4004C39.2648 21.0695 40.9722 21.2426 41.7189 22.7331C41.8966 23.087 41.9493 23.4739 42.0487 23.8503V24.454V24.4555ZM38.1808 24.4977C38.1763 25.1029 38.2877 25.5531 38.5045 25.9731C38.5843 26.1342 38.7003 26.2758 38.8433 26.3872C38.9863 26.4986 39.1519 26.5769 39.3296 26.616C39.5072 26.6552 39.6909 26.6552 39.8686 26.616C40.0462 26.5769 40.2119 26.4971 40.3534 26.3842C41.341 25.6028 41.6452 23.9135 40.9902 22.8461C40.519 22.0797 39.6337 21.9743 38.9938 22.6187C38.4955 23.1231 38.2049 23.7931 38.1808 24.4992V24.4977Z" fill="#9AB898"/>
<path d="M29.9848 29.7988C30.2061 29.436 30.3672 29.1183 30.5765 28.8398C31.8231 27.1912 33.4973 26.3556 35.5659 26.5875C37.7852 26.8359 39.2772 28.1382 40.0812 30.1722C40.7496 31.8705 40.6171 33.5432 39.7273 35.1542C38.7803 36.8705 37.4268 38.2481 35.9875 39.549C34.2847 41.0861 32.4313 42.4321 30.5087 43.6878C30.1368 43.9302 29.8598 43.9317 29.4834 43.6833C26.9736 42.0181 24.5677 40.237 22.481 38.0614C21.4512 36.9895 20.5237 35.8437 19.9411 34.4646C18.6704 31.4595 20.2844 27.6639 23.6102 26.7305C25.9092 26.0861 28.5394 27.1852 29.7093 29.2854C29.7906 29.4405 29.8719 29.5911 29.9848 29.7973V29.7988ZM39.7575 32.3583C39.7996 31.5363 39.6114 30.7865 39.2847 30.0653C38.2549 27.7949 35.6879 26.6642 33.422 27.5104C31.8818 28.0855 30.9032 29.2026 30.4048 30.7428C30.3341 30.9581 30.2994 31.2216 30.0119 31.2337C29.6957 31.2472 29.652 30.9687 29.5798 30.7413C29.4623 30.3695 29.3058 30.0096 29.113 29.6694C27.877 27.4893 25.2001 26.6236 23.0064 27.6956C20.5478 28.897 19.4969 31.9804 20.6954 34.4782C21.3081 35.7459 22.2009 36.8043 23.1811 37.795C25.1293 39.7627 27.338 41.4098 29.637 42.9485C29.92 43.1382 30.1112 43.1157 30.3792 42.935C31.8999 41.9263 33.3633 40.8362 34.7635 39.6694C36.2389 38.4273 37.6346 37.1099 38.7096 35.499C39.3494 34.5399 39.8192 33.5176 39.759 32.3568L39.7575 32.3583Z" fill="#9AB898"/>
<path d="M22.4737 24.6076C22.4963 25.3182 22.2705 26.0153 21.8339 26.5814C21.1503 27.4697 19.976 27.5916 19.1088 26.8765C17.8381 25.8256 17.5625 23.6892 18.5276 22.3538C19.2217 21.3932 20.3479 21.2125 21.2828 21.9488C22.1455 22.6232 22.4496 23.5597 22.4737 24.6091V24.6076ZM18.6466 24.2402C18.6872 25.0141 18.8754 25.7443 19.4882 26.3059C20.1009 26.8675 20.8703 26.7877 21.3626 26.1177C22.1094 25.1014 21.873 23.3038 20.8869 22.5058C20.3373 22.0602 19.6538 22.1159 19.1931 22.6504C18.8016 23.1035 18.6767 23.6485 18.6481 24.2402H18.6466Z" fill="#9AB898"/>
<path d="M22.0001 33.784C21.9459 33.784 21.8932 33.7675 21.848 33.7374C21.8028 33.7073 21.7697 33.6636 21.7501 33.6139C21.3226 32.5163 21.4445 31.4188 22.1055 30.3483C22.4036 29.856 22.8176 29.4435 23.3144 29.1469C23.8113 28.8503 24.3744 28.6801 24.954 28.65C25.0248 28.65 25.0925 28.6786 25.1437 28.7283C25.1934 28.778 25.222 28.8458 25.222 28.915C25.222 28.9843 25.1934 29.052 25.1437 29.1017C25.094 29.1514 25.0248 29.18 24.954 29.18C24.4662 29.2101 23.9935 29.3561 23.5764 29.6091C23.1594 29.8605 22.8101 30.2098 22.5617 30.6253C21.9895 31.5452 21.8856 32.4877 22.2485 33.4257C22.2635 33.4664 22.2696 33.5085 22.2635 33.5522C22.259 33.5943 22.2425 33.635 22.2184 33.6711C22.1943 33.7073 22.1612 33.7359 22.122 33.7554C22.0844 33.775 22.0407 33.7855 21.9971 33.787H21.9986L22.0001 33.784Z" fill="#9AB898"/>
</g>
</svg>