<svg xmlns="http://www.w3.org/2000/svg" width="100%" height="100%" viewBox="0 0 36 48" fill="none" testId="drop_v2"
    id="drop_v2">
    <title>Drop V2</title>
    <g clip-path="url(#clip0_5269_12976)">
        <path
            d="M35.1119 30.4937C35.0999 29.5794 35.0398 28.665 34.8774 27.7623C34.2642 24.3379 32.8634 21.1814 31.2342 18.1239C28.5949 13.1678 25.3665 8.57283 21.7353 4.25154C20.7192 3.04019 19.6792 1.85213 18.4708 0.803838C18.1281 0.512646 17.8636 0.500998 17.5209 0.803838C16.9317 1.31633 16.3786 1.85795 15.8616 2.42869C12.074 6.59272 8.80952 11.112 5.97788 15.9283C4.24042 18.8752 2.7254 21.921 1.73342 25.1882C0.0801303 30.6568 0.789543 35.7818 4.22839 40.4641C8.17826 45.8395 15.597 48.8038 22.5409 46.7655C26.8575 45.4959 30.2121 43.0091 32.5749 39.2819C34.2823 36.5913 35.0879 33.6444 35.1059 30.4879L35.1119 30.4937Z"
            stroke="#333333" stroke-width="1.16477" stroke-linecap="round" stroke-linejoin="round" />
        <path d="M5.80469 32.7646C5.80469 32.7646 6.65238 40.5511 14.4379 41.9488" stroke="#333333"
            stroke-width="1.16477" stroke-linecap="round" stroke-linejoin="round" />
    </g>
    <defs>
        <clipPath id="clip0_5269_12976">
            <rect width="35.4286" height="48" fill="white" transform="translate(0.285156)" />
        </clipPath>
    </defs>
</svg>