<svg xmlns="http://www.w3.org/2000/svg" width="100%" height="100%">
  <title>ErrorCross</title>
  <g>
    <path fillRule="evenodd" clipRule="evenodd"
      d="M16.5649 13.7595L3.24133 0.43581C2.66025 -0.14527 1.71818 -0.14527 1.13801 0.43581L0.43581 1.13693C-0.14527 1.7182 -0.14527 2.66028 0.43581 3.24046L13.7594 16.5642C14.3406 17.1453 15.2827 17.1453 15.8629 16.5642L16.564 15.8631C17.1462 15.2829 17.1462 14.3406 16.5649 13.7596V13.7595Z"
      fill="currentColor" />
    <path fillRule="evenodd" clipRule="evenodd"
      d="M13.7595 0.436691L0.43581 13.7602C-0.14527 14.3413 -0.14527 15.2836 0.43581 15.8637L1.13693 16.5648C1.7182 17.1459 2.66028 17.1459 3.24046 16.5648L16.5651 3.2422C17.1464 2.66112 17.1464 1.71905 16.5651 1.13888L15.864 0.437771C15.2829 -0.144399 14.3408 -0.144399 13.7596 0.436681L13.7595 0.436691Z"
      fill="currentColor" />
  </g>
</svg>