<svg xmlns="http://www.w3.org/2000/svg" width="100%" height="100%" viewBox="0 0 38 48" fill="none" testId="few_drops"
    id="few_drops">
    <title>Few Drops</title>
    <g clip-path="url(#clip0_5269_12796)">
        <path
            d="M25.6949 38.2517C25.6893 37.7576 25.6556 37.2578 25.5713 36.7693C25.2513 34.9106 24.5157 33.1979 23.6565 31.5358C22.2695 28.846 20.5681 26.3528 18.6588 24.0056C18.1254 23.3486 17.5751 22.7028 16.9405 22.1357C16.7609 21.9784 16.6205 21.9728 16.4408 22.1357C16.1319 22.4108 15.8399 22.7084 15.5648 23.0173C13.5713 25.2803 11.8587 27.7342 10.365 30.3453C9.44967 31.9457 8.65229 33.6022 8.13568 35.3767C7.2653 38.3472 7.64153 41.1324 9.44967 43.6705C11.5274 46.5905 15.43 48.2021 19.08 47.0903C21.3542 46.3996 23.1174 45.0519 24.3584 43.0304C25.2569 41.5704 25.678 39.97 25.6893 38.2573L25.6949 38.2517Z"
            stroke="currentColor" stroke-width="1.07628" stroke-linecap="round" stroke-linejoin="round" />
        <path d="M10.2754 39.4868C10.2754 39.4868 10.719 43.7152 14.8182 44.4732" stroke="currentColor"
            stroke-width="1.07628" stroke-linecap="round" stroke-linejoin="round" />
        <path
            d="M36.6783 16.4135C36.6783 16.0092 36.6502 15.6048 36.5772 15.2062C36.3133 13.69 35.7124 12.2918 35.0161 10.9385C33.8818 8.74289 32.5005 6.71014 30.9394 4.7953C30.5014 4.26184 30.0578 3.734 29.5412 3.26793C29.3952 3.13877 29.2829 3.13316 29.1369 3.26793C28.8842 3.49254 28.6483 3.734 28.4237 3.98669C26.8009 5.82853 25.4027 7.8332 24.1841 9.96142C23.4373 11.2642 22.7915 12.6175 22.3648 14.0606C21.6572 16.4808 21.9604 18.7494 23.4373 20.8271C25.1331 23.208 28.3114 24.522 31.2932 23.6179C33.1462 23.0564 34.5838 21.9558 35.5945 20.3049C36.3245 19.1144 36.6727 17.8061 36.6783 16.4135Z"
            stroke="currentColor" stroke-width="1.07628" stroke-linecap="round" stroke-linejoin="round" />
        <path d="M24.1055 17.4243C24.1055 17.4243 24.4705 20.8721 27.806 21.4898" stroke="currentColor"
            stroke-width="1.07628" stroke-linecap="round" stroke-linejoin="round" />
        <path
            d="M13.7627 11.7866C13.7627 11.4441 13.7347 11.1015 13.6785 10.759C13.4539 9.47308 12.9485 8.28824 12.3533 7.14271C11.3931 5.28403 10.2195 3.56012 8.89985 1.93728C8.52923 1.48244 8.153 1.03321 7.71501 0.645754C7.59147 0.533447 7.49601 0.533447 7.37247 0.645754C7.15909 0.836676 6.95694 1.03883 6.76601 1.25783C5.39025 2.81889 4.20541 4.51473 3.17219 6.32287C2.54327 7.42909 1.98735 8.57463 1.62797 9.79877C1.02713 11.8484 1.28543 13.7744 2.53766 15.532C3.97519 17.548 6.67055 18.6654 9.19184 17.8961C10.7641 17.4188 11.9827 16.4867 12.8418 15.0884C13.4595 14.0777 13.7571 12.9714 13.7627 11.7866Z"
            stroke="currentColor" stroke-width="1.07628" stroke-linecap="round" stroke-linejoin="round" />
        <path d="M3.10547 12.6401C3.10547 12.6401 3.41431 15.5657 6.24445 16.088" stroke="currentColor"
            stroke-width="1.07628" stroke-linecap="round" stroke-linejoin="round" />
    </g>
    <defs>
        <clipPath id="clip0_5269_12796">
            <rect width="36.4829" height="48" fill="white" transform="translate(0.757812)" />
        </clipPath>
    </defs>
</svg>