<svg xmlns="http://www.w3.org/2000/svg" width="100%" height="100%">
  <title>flag usa</title>
  <path
    d="M35.2582 9.34185H35.2326H7.27418V9.03514C8.34852 8.72844 9.14149 7.73163 9.14149 6.55591C9.14149 5.15016 7.99041 4 6.55795 4C5.15108 4.02556 4 5.17572 4 6.58147C4 7.73163 4.79297 8.72844 5.84173 9.0607V35.2843C5.84173 35.6677 6.17426 36 6.55795 36C6.94165 36 7.27418 35.6677 7.27418 35.2843V31.7827L35.2838 31.885C35.6675 31.885 36 31.5527 36 31.1693V10.0575C35.9744 9.64856 35.6675 9.34185 35.2582 9.34185ZM7.27418 28.869H34.5675V30.4792L7.27418 30.3514V28.869ZM20.1918 21.4058H7.27418V10.7476H20.2174V21.4058H20.1918ZM34.5675 27.4377H7.27418V25.8275H31.6771H34.5675V27.4377ZM34.5675 24.4217H31.6771H7.27418V22.8115H34.5675V24.4217ZM34.5675 12.3578H21.6243V10.7476H34.5675V12.3578ZM21.6243 13.7636H34.5675V15.3738H21.6243V13.7636ZM21.6243 16.7796H34.5675V18.3898H21.6243V16.7796ZM21.6243 19.7955H34.5675V21.4058H21.6243V19.7955ZM6.55795 5.45687C7.19744 5.45687 7.70903 5.96805 7.70903 6.58147C7.70903 7.22045 7.19744 7.70607 6.55795 7.70607C5.94404 7.70607 5.43245 7.22045 5.43245 6.58147C5.43245 5.96805 5.94404 5.45687 6.55795 5.45687Z"
    fill="currentColor" />
  <path
    d="M8.7323 12.8179C9.17024 12.8179 9.52526 12.4632 9.52526 12.0256C9.52526 11.588 9.17024 11.2332 8.7323 11.2332C8.29435 11.2332 7.93933 11.588 7.93933 12.0256C7.93933 12.4632 8.29435 12.8179 8.7323 12.8179Z"
    fill="currentColor" />
  <path
    d="M12.032 12.8179C12.4699 12.8179 12.8249 12.4632 12.8249 12.0256C12.8249 11.588 12.4699 11.2332 12.032 11.2332C11.594 11.2332 11.239 11.588 11.239 12.0256C11.239 12.4632 11.594 12.8179 12.032 12.8179Z"
    fill="currentColor" />
  <path
    d="M15.3317 12.8434C15.7696 12.8434 16.1246 12.4887 16.1246 12.0511C16.1246 11.6135 15.7696 11.2588 15.3317 11.2588C14.8937 11.2588 14.5387 11.6135 14.5387 12.0511C14.5387 12.4887 14.8937 12.8434 15.3317 12.8434Z"
    fill="currentColor" />
  <path
    d="M18.6316 12.8434C19.0695 12.8434 19.4246 12.4887 19.4246 12.0511C19.4246 11.6135 19.0695 11.2588 18.6316 11.2588C18.1936 11.2588 17.8386 11.6135 17.8386 12.0511C17.8386 12.4887 18.1936 12.8434 18.6316 12.8434Z"
    fill="currentColor" />
  <path
    d="M10.4462 14.8626C10.8841 14.8626 11.2391 14.5079 11.2391 14.0703C11.2391 13.6327 10.8841 13.278 10.4462 13.278C10.0082 13.278 9.6532 13.6327 9.6532 14.0703C9.6532 14.5079 10.0082 14.8626 10.4462 14.8626Z"
    fill="currentColor" />
  <path
    d="M13.7458 14.8626C14.1838 14.8626 14.5388 14.5079 14.5388 14.0703C14.5388 13.6327 14.1838 13.278 13.7458 13.278C13.3079 13.278 12.9529 13.6327 12.9529 14.0703C12.9529 14.5079 13.3079 14.8626 13.7458 14.8626Z"
    fill="currentColor" />
  <path
    d="M17.0455 14.8626C17.4835 14.8626 17.8385 14.5079 17.8385 14.0703C17.8385 13.6327 17.4835 13.278 17.0455 13.278C16.6076 13.278 16.2526 13.6327 16.2526 14.0703C16.2526 14.5079 16.6076 14.8626 17.0455 14.8626Z"
    fill="currentColor" />
  <path
    d="M10.4462 18.9521C10.8841 18.9521 11.2391 18.5973 11.2391 18.1597C11.2391 17.7222 10.8841 17.3674 10.4462 17.3674C10.0082 17.3674 9.6532 17.7222 9.6532 18.1597C9.6532 18.5973 10.0082 18.9521 10.4462 18.9521Z"
    fill="currentColor" />
  <path
    d="M13.7458 18.9776C14.1838 18.9776 14.5388 18.6229 14.5388 18.1853C14.5388 17.7477 14.1838 17.393 13.7458 17.393C13.3079 17.393 12.9529 17.7477 12.9529 18.1853C12.9529 18.6229 13.3079 18.9776 13.7458 18.9776Z"
    fill="currentColor" />
  <path
    d="M17.0455 18.9776C17.4835 18.9776 17.8385 18.6229 17.8385 18.1853C17.8385 17.7477 17.4835 17.393 17.0455 17.393C16.6076 17.393 16.2526 17.7477 16.2526 18.1853C16.2526 18.6229 16.6076 18.9776 17.0455 18.9776Z"
    fill="currentColor" />
  <path
    d="M8.7323 16.8307C9.17024 16.8307 9.52526 16.4759 9.52526 16.0383C9.52526 15.6007 9.17024 15.246 8.7323 15.246C8.29435 15.246 7.93933 15.6007 7.93933 16.0383C7.93933 16.4759 8.29435 16.8307 8.7323 16.8307Z"
    fill="currentColor" />
  <path
    d="M12.032 16.8307C12.4699 16.8307 12.8249 16.4759 12.8249 16.0383C12.8249 15.6007 12.4699 15.246 12.032 15.246C11.594 15.246 11.239 15.6007 11.239 16.0383C11.239 16.4759 11.594 16.8307 12.032 16.8307Z"
    fill="currentColor" />
  <path
    d="M15.3317 16.8307C15.7696 16.8307 16.1246 16.4759 16.1246 16.0383C16.1246 15.6007 15.7696 15.246 15.3317 15.246C14.8937 15.246 14.5387 15.6007 14.5387 16.0383C14.5387 16.4759 14.8937 16.8307 15.3317 16.8307Z"
    fill="currentColor" />
  <path
    d="M18.6316 16.8307C19.0695 16.8307 19.4246 16.4759 19.4246 16.0383C19.4246 15.6007 19.0695 15.246 18.6316 15.246C18.1936 15.246 17.8386 15.6007 17.8386 16.0383C17.8386 16.4759 18.1936 16.8307 18.6316 16.8307Z"
    fill="currentColor" />
  <path
    d="M8.7323 20.8179C9.17024 20.8179 9.52526 20.4631 9.52526 20.0256C9.52526 19.588 9.17024 19.2332 8.7323 19.2332C8.29435 19.2332 7.93933 19.588 7.93933 20.0256C7.93933 20.4631 8.29435 20.8179 8.7323 20.8179Z"
    fill="currentColor" />
  <path
    d="M12.032 20.8179C12.4699 20.8179 12.8249 20.4631 12.8249 20.0256C12.8249 19.588 12.4699 19.2332 12.032 19.2332C11.594 19.2332 11.239 19.588 11.239 20.0256C11.239 20.4631 11.594 20.8179 12.032 20.8179Z"
    fill="currentColor" />
  <path
    d="M15.3317 20.8435C15.7696 20.8435 16.1246 20.4887 16.1246 20.0511C16.1246 19.6135 15.7696 19.2588 15.3317 19.2588C14.8937 19.2588 14.5387 19.6135 14.5387 20.0511C14.5387 20.4887 14.8937 20.8435 15.3317 20.8435Z"
    fill="currentColor" />
  <path
    d="M18.6316 20.8435C19.0695 20.8435 19.4246 20.4887 19.4246 20.0511C19.4246 19.6135 19.0695 19.2588 18.6316 19.2588C18.1936 19.2588 17.8386 19.6135 17.8386 20.0511C17.8386 20.4887 18.1936 20.8435 18.6316 20.8435Z"
    fill="currentColor" />
</svg>