<svg xmlns="http://www.w3.org/2000/svg" width="100%" height="100%" viewBox="0 0 20 18" fill="none"
    id="free_shipping_v2">
    <title>free shipping v2</title>
    <g clip-path="url(#clip0_52_1838)">
        <path
            d="M4.83842 12.5964C4.47708 12.5965 4.12387 12.7037 3.82346 12.9045C3.52305 13.1053 3.28892 13.3907 3.15069 13.7245C3.01246 14.0584 2.97633 14.4257 3.04686 14.7801C3.1174 15.1345 3.29144 15.46 3.54697 15.7155C3.8025 15.971 4.12805 16.145 4.48245 16.2155C4.83686 16.2859 5.2042 16.2497 5.53803 16.1114C5.87186 15.9731 6.15718 15.739 6.35793 15.4385C6.55867 15.1381 6.66582 14.7848 6.66582 14.4235C6.6543 13.9425 6.45806 13.4844 6.11781 13.1442C5.77757 12.804 5.31942 12.6079 4.83842 12.5964Z"
            stroke="#457A41" stroke-width="1.25" stroke-miterlimit="10" />
        <path
            d="M15.6665 12.5962C15.3052 12.5963 14.952 12.7035 14.6516 12.9043C14.3512 13.1051 14.117 13.3904 13.9788 13.7243C13.8406 14.0582 13.8044 14.4255 13.875 14.7799C13.9455 15.1343 14.1196 15.4598 14.3751 15.7153C14.6306 15.9708 14.9562 16.1447 15.3106 16.2152C15.665 16.2857 16.0323 16.2495 16.3661 16.1112C16.7 15.9729 16.9853 15.7387 17.186 15.4383C17.3868 15.1378 17.4939 14.7846 17.4939 14.4233C17.4824 13.9423 17.2862 13.4841 16.9459 13.144C16.6057 12.8038 16.1475 12.6076 15.6665 12.5962Z"
            stroke="#457A41" stroke-width="1.25" stroke-miterlimit="10" />
        <path
            d="M1.88849 1.25H11.588C11.9159 1.25 12.2303 1.38024 12.4621 1.61206C12.6939 1.84388 12.8242 2.1583 12.8242 2.48615V12.5962H1.88849C1.56065 12.5962 1.24623 12.466 1.0144 12.2341C0.782581 12.0023 0.652344 11.6879 0.652344 11.36V2.48615C0.652344 2.1583 0.782581 1.84388 1.0144 1.61206C1.24623 1.38024 1.56065 1.25 1.88849 1.25Z"
            stroke="#457A41" stroke-width="1.25" stroke-miterlimit="10" />
        <path
            d="M12.8242 12.596H18.0046C18.2275 12.596 18.4413 12.5075 18.5989 12.3499C18.7565 12.1922 18.8451 11.9785 18.8451 11.7556V9.23306C18.8452 9.06612 18.7955 8.90293 18.7024 8.76436L16.2062 5.04829C16.1293 4.93387 16.0254 4.84012 15.9037 4.77529C15.782 4.71046 15.6463 4.67654 15.5084 4.67651H13.6647C13.4418 4.67651 13.228 4.76506 13.0704 4.92269C12.9128 5.08031 12.8242 5.29409 12.8242 5.517V12.596Z"
            stroke="#457A41" stroke-width="1.25" stroke-miterlimit="10" />
    </g>
    <defs>
        <clipPath id="clip0_52_1838">
            <rect width="20" height="17" fill="white" transform="translate(0 0.5)" />
        </clipPath>
    </defs>
</svg>