<svg xmlns="http://www.w3.org/2000/svg" width="100%" height="100%" testId="hours">
  <title>Hours</title>
  <path
    d="M15 16.3977C15.8476 16.3976 16.6758 16.651 17.3783 17.1253C18.0808 17.5996 18.6254 18.2731 18.9422 19.0593C19.259 19.8454 19.3335 20.7084 19.1561 21.5372C18.9787 22.366 18.5575 23.1229 17.9467 23.7105L15.2408 26.3143H19.25V29.1477H10.75V26.7053L15.9817 21.6691C16.1506 21.5068 16.2765 21.3052 16.3483 21.0824C16.4202 20.8595 16.4357 20.6223 16.3934 20.392C16.3511 20.1617 16.2524 19.9455 16.1061 19.7627C15.9598 19.5798 15.7705 19.4361 15.5551 19.3444C15.3396 19.2526 15.1048 19.2157 14.8716 19.2369C14.6385 19.2581 14.4142 19.3368 14.2188 19.4659C14.0235 19.5951 13.8632 19.7706 13.7523 19.9768C13.6414 20.183 13.5833 20.4135 13.5833 20.6477H10.75C10.75 19.5205 11.1978 18.4395 11.9948 17.6425C12.7918 16.8454 13.8728 16.3977 15 16.3977ZM23.5 16.3977V22.0643H26.3333V16.3977H29.1667V29.1477H26.3333V24.8977H20.6667V16.3977H23.5ZM3.66666 14.981C3.66492 16.6804 4.04609 18.3584 4.78186 19.8903C5.51763 21.4221 6.5891 22.7686 7.91666 23.8295V27.2522C5.76221 26.0091 3.97321 24.2205 2.72973 22.0663C1.48626 19.9121 0.832177 17.4683 0.83333 14.981H3.66666ZM15 0.814337C22.3454 0.814337 28.3861 6.40592 29.0958 13.5643H26.2455C25.9695 11.3756 25.0608 9.31505 23.6308 7.63524C22.2008 5.95543 20.3117 4.7294 18.1952 4.1075C16.0786 3.48561 13.8266 3.49486 11.7152 4.13413C9.60381 4.77341 7.72487 6.01491 6.30875 7.70642L9.33333 10.731H0.83333V2.231L4.29991 5.69617C5.62858 4.16218 7.27192 2.93221 9.11824 2.08984C10.9646 1.24747 12.9706 0.812445 15 0.814337Z"
    fill="currentColor" />
</svg>