<svg xmlns="http://www.w3.org/2000/svg" width="100%" height="100%" viewBox="0 0 18 14">
  <title>LightBulb</title>
  <path fillRule="evenodd" clipRule="evenodd"
    d="M6.98637 11.9815C6.98671 12.1398 7.03367 12.2945 7.12139 12.4263L7.55212 13.0734C7.68386 13.2727 7.98462 13.4331 8.22316 13.4331H9.77733C10.0159 13.4331 10.3166 13.2727 10.4484 13.0734L10.8789 12.4263C10.9607 12.2917 11.0075 12.1388 11.0151 11.9815V11.0157H6.98485L6.98637 11.9815ZM8.98614 0.53701C6.41659 0.54482 4.56669 2.62771 4.56669 4.97031C4.56519 6.04361 4.95533 7.08058 5.66393 7.88672C6.08006 8.36154 6.73094 9.35324 6.97906 10.19C6.97906 10.1971 6.98082 10.2034 6.98183 10.2097H11.0182C11.0182 10.2034 11.0199 10.1971 11.0209 10.19C11.269 9.35323 11.9199 8.36154 12.3361 7.88672C13.0447 7.08058 13.4348 6.04361 13.4333 4.97031C13.4333 2.51764 11.4411 0.5292 8.98614 0.53701ZM9 2.95517C7.88759 2.95642 6.98611 3.8579 6.98486 4.97031C6.98486 5.1929 6.80442 5.37334 6.58183 5.37334C6.35924 5.37334 6.1788 5.1929 6.1788 4.97031C6.18047 3.4129 7.44258 2.15078 8.99999 2.14912C9.22257 2.14912 9.40302 2.32956 9.40302 2.55215C9.40302 2.77474 9.22258 2.95518 8.99999 2.95518L9 2.95517ZM3.76064 5.37334C3.76064 5.03946 3.48998 4.7688 3.1561 4.7688H1.54399C1.21011 4.7688 0.939453 5.03946 0.939453 5.37334C0.939453 5.70722 1.21011 5.97788 1.54399 5.97788H3.1561C3.48998 5.97788 3.76064 5.70722 3.76064 5.37334ZM16.456 4.7688H14.8439C14.51 4.7688 14.2394 5.03946 14.2394 5.37334C14.2394 5.70722 14.51 5.97788 14.8439 5.97788H16.456C16.7899 5.97788 17.0605 5.70722 17.0605 5.37334C17.0605 5.03946 16.7899 4.7688 16.456 4.7688ZM4.24125 1.92796L2.84526 1.12191C2.55618 0.95486 2.18644 1.05389 2.01947 1.34302C1.8525 1.63215 1.95154 2.00189 2.24067 2.16886L3.63671 2.97483C3.92579 3.14188 4.29553 3.04285 4.4625 2.75372C4.62947 2.46459 4.53043 2.09485 4.2413 1.92788L4.24125 1.92796ZM15.7593 8.57791L14.3633 7.77186C14.0742 7.6048 13.7045 7.70384 13.5375 7.99297C13.3705 8.2821 13.4696 8.65184 13.7587 8.81881L15.1547 9.62478C15.4438 9.79183 15.8136 9.6928 15.9805 9.40367C16.1475 9.11454 16.0485 8.7448 15.7593 8.57783L15.7593 8.57791ZM3.63671 7.77185L2.24072 8.5779C1.95154 8.74478 1.8525 9.11452 2.01947 9.40365C2.18644 9.69278 2.55618 9.79182 2.84531 9.62485L4.24125 8.81871C4.53043 8.65183 4.62947 8.28209 4.4625 7.99296C4.29553 7.70383 3.92579 7.6048 3.63666 7.77176L3.63671 7.77185ZM14.0615 3.05593C14.1677 3.05613 14.272 3.02814 14.3638 2.97482L15.7598 2.16877C16.049 2.00189 16.148 1.63215 15.981 1.34302C15.8141 1.05389 15.4443 0.95485 15.1552 1.12182L13.7593 1.92796C13.5224 2.06482 13.407 2.34366 13.4778 2.60787C13.5486 2.87209 13.788 3.05584 14.0615 3.05593H14.0615Z"
    fill="currentColor" />
</svg>