<svg xmlns="http://www.w3.org/2000/svg" width="100%" height="100%" testId="moon">
  <title>Moon"</title>
  <path
    d="M26.7898 16.5663C26.1658 18.7997 24.9679 20.8307 23.3153 22.4574C21.6627 24.0841 19.613 25.2497 17.3701 25.8384C15.1272 26.4271 12.7692 26.4182 10.5308 25.8128C8.29235 25.2073 6.25144 24.0263 4.61108 22.3873C2.97072 20.7483 1.78809 18.7083 1.18081 16.4704C0.573532 14.2324 0.562783 11.8745 1.14963 9.63107C1.73648 7.38768 2.90047 5.33703 4.52582 3.68312C6.15117 2.0292 8.18123 0.829661 10.4141 0.203818C10.5776 0.151142 10.7517 0.139459 10.9208 0.169795C11.09 0.200131 11.2491 0.271558 11.3842 0.377797C11.5193 0.484036 11.6262 0.621834 11.6956 0.779079C11.765 0.936323 11.7946 1.1082 11.782 1.2796C11.7817 1.36091 11.7682 1.44163 11.7422 1.51866C11.2153 3.42047 11.2023 5.42802 11.7045 7.33649C12.2067 9.24497 13.2062 10.9861 14.601 12.3822C15.9957 13.7783 17.7359 14.7795 19.6438 15.2835C21.5518 15.7876 23.5594 15.7765 25.4617 15.2515L25.7539 15.1983C25.985 15.1965 26.2105 15.2692 26.3971 15.4055C26.5837 15.5419 26.7214 15.7347 26.7898 15.9554C26.8566 16.1535 26.8566 16.3681 26.7898 16.5663Z"
    fill="none" />
</svg>