<svg width="100%" height="100%" viewBox="0 0 25 25" fill="none" xmlns="http://www.w3.org/2000/svg">
    <path
        d="M4.5 11.0596V19.0596C4.5 19.59 4.71071 20.0987 5.08579 20.4738C5.46086 20.8489 5.96957 21.0596 6.5 21.0596H18.5C19.0304 21.0596 19.5391 20.8489 19.9142 20.4738C20.2893 20.0987 20.5 19.59 20.5 19.0596V11.0596"
        stroke="currentColor" stroke-width="1.3" stroke-linecap="round" stroke-linejoin="round" />
    <path
        d="M12.5 5.55957C12.5 4.63131 12.1313 3.74107 11.4749 3.0847C10.8185 2.42832 9.92826 2.05957 9 2.05957C8.33696 2.05957 7.70107 2.32296 7.23223 2.7918C6.76339 3.26064 6.5 3.89653 6.5 4.55957C6.5 5.22261 6.76339 5.8585 7.23223 6.32734C7.70107 6.79618 8.33696 7.05957 9 7.05957H12.5M12.5 5.55957V7.05957M12.5 5.55957C12.5 4.63131 12.8687 3.74107 13.5251 3.0847C14.1815 2.42832 15.0717 2.05957 16 2.05957C16.663 2.05957 17.2989 2.32296 17.7678 2.7918C18.2366 3.26064 18.5 3.89653 18.5 4.55957C18.5 4.88787 18.4353 5.21296 18.3097 5.51628C18.1841 5.81959 17.9999 6.09519 17.7678 6.32734C17.5356 6.55948 17.26 6.74363 16.9567 6.86927C16.6534 6.99491 16.3283 7.05957 16 7.05957H12.5"
        stroke="currentColor" stroke-width="1.3" stroke-linejoin="round" />
    <path d="M12.5 11.0596V21.0596M3.5 7.05957H21.5V11.0596H3.5V7.05957Z" stroke="currentColor" stroke-width="1.3"
        stroke-linecap="round" stroke-linejoin="round" />
</svg>