<svg xmlns="http://www.w3.org/2000/svg" width="100%" height="100%" testId="newClock">
  <title>NewClock</title>
  <path
    d="M12.9375 6.62501V12.3891L7.94377 15.2711C7.74305 15.3889 7.58654 15.5693 7.49829 15.7846C7.41004 15.9999 7.39492 16.2383 7.45525 16.463C7.51559 16.6878 7.64804 16.8865 7.83227 17.0287C8.0165 17.1708 8.24231 17.2486 8.47502 17.25C8.66269 17.2553 8.84768 17.2044 9.00627 17.1039L14.5313 13.9164H14.5578L14.611 13.8898L14.6508 13.85L14.6906 13.8234L14.7305 13.7836L14.757 13.757C14.7836 13.7438 14.7969 13.7172 14.8102 13.7039L14.8367 13.6774L14.8633 13.6242L14.8899 13.5844L14.9164 13.5445C14.9247 13.5384 14.9314 13.5303 14.936 13.5211C14.9406 13.5119 14.943 13.5017 14.943 13.4914L14.9695 13.4516C14.9695 13.4383 14.9828 13.425 14.9828 13.3984C14.9876 13.3931 14.9913 13.3867 14.9936 13.3799C14.9959 13.373 14.9967 13.3658 14.9961 13.3586L15.0227 13.3055C15.0221 13.2983 15.0229 13.291 15.0252 13.2842C15.0275 13.2773 15.0311 13.271 15.036 13.2656C15.036 13.2391 15.036 13.2258 15.0492 13.2125V13.1594C15.0492 13.1328 15.0625 13.1195 15.0625 13.1063V6.62501C15.0625 6.34321 14.9506 6.07296 14.7513 5.8737C14.5521 5.67445 14.2818 5.56251 14 5.56251C13.7182 5.56251 13.448 5.67445 13.2487 5.8737C13.0495 6.07296 12.9375 6.34321 12.9375 6.62501ZM0.825016 2.9461C1.01968 2.86729 1.23333 2.84794 1.43899 2.89049C1.64464 2.93304 1.83307 3.03558 1.98048 3.18516L3.8797 5.08438L4.98205 3.98204C6.76543 2.19958 9.03728 0.985927 11.5104 0.494506C13.9834 0.00308466 16.5467 0.255967 18.8761 1.22118C21.2054 2.18639 23.1963 3.8206 24.597 5.91718C25.9977 8.01376 26.7453 10.4786 26.7453 13C26.7453 15.5214 25.9977 17.9863 24.597 20.0828C23.1963 22.1794 21.2054 23.8136 18.8761 24.7788C16.5467 25.744 13.9834 25.9969 11.5104 25.5055C9.03728 25.0141 6.76543 23.8004 4.98205 22.018C4.78335 21.8188 4.67176 21.5489 4.67176 21.2676C4.67176 20.9862 4.78335 20.7164 4.98205 20.5172C5.07977 20.4172 5.19649 20.3377 5.32535 20.2835C5.45422 20.2292 5.59262 20.2013 5.73244 20.2013C5.87225 20.2013 6.01066 20.2292 6.13952 20.2835C6.26839 20.3377 6.38511 20.4172 6.48283 20.5172C7.96923 22.0019 9.86245 23.0127 11.9232 23.4217C13.9839 23.8307 16.1196 23.6196 18.0604 22.8151C20.0012 22.0106 21.6599 20.6487 22.8268 18.9017C23.9938 17.1547 24.6167 15.1009 24.6167 13C24.6167 10.8991 23.9938 8.84532 22.8268 7.0983C21.6599 5.35128 20.0012 3.98945 18.0604 3.18492C16.1196 2.38039 13.9839 2.16929 11.9232 2.5783C9.86245 2.98731 7.96923 3.99807 6.48283 5.48282L5.38049 6.58516L7.29298 8.49766C7.43935 8.64698 7.5384 8.83617 7.57774 9.04152C7.61707 9.24688 7.59495 9.45928 7.51413 9.65211C7.4333 9.84495 7.29738 10.0097 7.12338 10.1256C6.94938 10.2415 6.74504 10.3036 6.53595 10.3039H1.22345C0.941662 10.3039 0.67141 10.192 0.472153 9.99271C0.272894 9.79346 0.160954 9.5232 0.160954 9.24141V3.92891C0.164816 3.71844 0.229593 3.5136 0.347448 3.33917C0.465303 3.16474 0.631184 3.02821 0.825016 2.9461Z"
    fill="none" />
</svg>