<svg width="100%" height="100%" viewBox="0 0 25 25" fill="none" xmlns="http://www.w3.org/2000/svg">
    <path
        d="M10.1337 14.1559C9.78232 14.1773 9.47756 14.207 9.21791 14.2444C8.88598 14.2922 8.55584 14.3737 8.22704 14.4896C7.91652 14.5991 7.66278 14.7385 7.45742 14.902C7.24583 15.0705 7.03545 15.297 6.82976 15.591C6.63179 15.8739 6.44771 16.2292 6.28249 16.6649L10.1337 14.1559ZM10.1337 14.1559C10.4273 14.6298 10.7972 15.045 11.2409 15.3996C11.6668 15.7399 12.1325 16.0028 12.6359 16.1869L12.6406 16.5144L12.6406 16.5172C12.6666 17.8983 12.2514 18.9731 11.4266 19.8001C10.6003 20.6285 9.5152 21.0595 8.11335 21.0595C7.31027 21.0595 6.62345 20.9082 6.03857 20.6222C5.44316 20.3311 4.97771 19.9392 4.62835 19.4476C4.25931 18.9283 3.97848 18.3376 3.78853 17.6702C3.70148 17.3644 3.63384 17.046 3.58603 16.7146C3.61185 16.7327 3.63736 16.7506 3.66256 16.7681C3.88092 16.92 4.11008 17.0615 4.34979 17.1928C4.47626 17.2621 4.6008 17.3221 4.71987 17.3661C4.8319 17.4075 4.97618 17.4488 5.13145 17.4488C5.36878 17.4488 5.61496 17.3945 5.83347 17.2477C6.05365 17.0997 6.19698 16.8905 6.28241 16.6651L10.1337 14.1559ZM21.1397 3.40706L21.5373 2.95769L21.1397 3.40706C21.3868 3.62565 21.5004 3.87827 21.5004 4.2059C21.5004 4.52117 21.3848 4.96127 21.0854 5.54689C19.9022 7.78593 18.9008 9.56608 18.0801 10.8919C17.2481 12.2359 16.6319 13.0623 16.2229 13.4402L16.2229 13.4402L16.2197 13.4431C15.6254 14.0001 14.9889 14.2559 14.2917 14.2559C13.5567 14.2559 12.9357 13.9939 12.3981 13.445C11.8584 12.894 11.5987 12.2598 11.5987 11.513C11.5987 10.7626 11.8602 10.1682 12.3893 9.68544C12.3895 9.68527 12.3897 9.6851 12.3898 9.68493L19.2319 3.48258L19.2337 3.48087C19.56 3.18256 19.8846 3.05947 20.2233 3.05947C20.5772 3.05947 20.8738 3.17182 21.1397 3.40706Z"
        stroke="currentColor" stroke-width="1.2" />
</svg>