<svg xmlns="http://www.w3.org/2000/svg" width="100%" height="100%" viewBox="0 0 60 61" fill="none" id="ph_formula">
<title>PH Formula</title>
<path d="M2.22266 35.7242C3.21847 34.8351 4.46324 34.4261 5.70802 34.2305C13.2122 33.0213 19.8984 34.764 25.5177 39.992C27.4915 41.8236 28.843 44.1175 29.6965 46.6782C29.7499 46.856 29.821 47.0161 29.8744 47.1939C29.8744 47.2295 29.9099 47.2472 29.9455 47.2828C30.1055 47.2472 30.1055 47.0872 30.1411 46.9805C31.9905 41.3968 35.8493 37.7692 41.184 35.582C44.616 34.1771 48.1903 33.6081 51.889 33.8571C53.6495 33.9638 55.3566 34.355 56.9392 35.1374C57.5261 35.4219 57.775 35.8131 57.775 36.4889C57.8106 38.9073 56.9392 41.0234 55.6945 42.9972C52.0491 48.7765 46.8388 52.2441 40.0637 53.2577C36.934 53.7378 33.8398 53.4177 30.799 52.582C30.2478 52.4397 29.7499 52.4219 29.2164 52.582C27.1714 53.1688 25.0909 53.4889 22.9748 53.4711C15.5773 53.3644 9.63794 50.288 5.21011 44.3843C3.76973 42.4638 2.75613 40.3476 2.276 38.0004V35.7242H2.22266ZM42.1798 41.0234C43.6202 40.241 44.9894 39.6008 46.412 39.0851C47.1767 38.8006 47.9591 38.5872 48.7593 38.4271C49.1505 38.356 49.5062 38.4271 49.6129 38.8717C49.7196 39.3163 49.4884 39.583 49.0438 39.6897C48.6882 39.7786 48.3325 39.8497 47.9947 39.9564C45.3806 40.7033 43.0156 41.9836 40.7394 43.4062C39.0679 44.4376 37.4852 45.5935 35.9737 46.8916C36.1871 47.0338 36.4183 47.0516 36.6139 47.0516C38.9612 47.105 41.3085 47.1939 43.6024 46.5715C44.1359 46.4292 44.5271 46.6249 44.5982 47.0338C44.6693 47.514 44.3493 47.7096 43.958 47.8163C43.8869 47.8341 43.8158 47.8518 43.7447 47.8696C41.0239 48.5098 38.2854 48.5098 35.5114 48.2431C35.0668 48.2075 34.6223 48.0474 34.2133 48.4031C33.2886 49.2211 32.4706 50.128 31.6704 51.0527C31.4392 51.3194 31.5103 51.4261 31.8304 51.4972C34.9246 52.2263 38.0365 52.3864 41.1662 51.7462C45.9497 50.7682 49.8618 48.3142 52.956 44.5799C54.752 42.4104 56.1212 40.0098 56.4591 37.1468C56.5302 36.6133 56.4058 36.311 55.8901 36.0976C54.6275 35.582 53.2938 35.2974 51.9424 35.2085C47.7991 34.9418 43.8158 35.6175 40.0815 37.4847C35.0668 40.0098 31.9193 43.9575 30.8524 49.5234C30.8168 49.6656 30.7279 49.8079 30.8524 50.0035C33.1463 47.3895 35.7248 45.1845 38.57 43.264C39.4947 42.6416 40.2237 41.9836 40.7039 40.9345C41.3085 39.6008 42.3399 38.5694 43.6024 37.787C43.9581 37.5736 44.2781 37.6092 44.5093 37.9292C44.7583 38.2671 44.6516 38.5872 44.3493 38.8361C44.2248 38.9428 44.0825 39.014 43.958 39.1207C43.3001 39.6186 42.7133 40.1876 42.1976 40.9878L42.1798 41.0234ZM23.9528 46.9094C23.9528 46.9094 23.8995 46.8027 23.8461 46.7849C21.0009 44.4376 17.9423 42.446 14.5815 40.9167C13.39 40.3832 12.163 39.9564 10.8827 39.6897C10.4381 39.6008 10.207 39.334 10.2959 38.8717C10.4026 38.4271 10.7582 38.3738 11.1494 38.4094C11.2384 38.4094 11.3273 38.4449 11.4162 38.4627C13.4434 38.9073 15.3283 39.743 17.1421 40.7033C17.3022 40.7922 17.4622 40.8633 17.6223 40.9523C17.1243 40.1343 16.502 39.4941 15.7551 38.9784C15.275 38.6583 15.1683 38.2849 15.3994 37.947C15.6484 37.5914 15.9863 37.5736 16.4842 37.9115C17.889 38.8539 18.9026 40.1343 19.5783 41.6635C19.7739 42.1259 20.0762 42.4282 20.4852 42.6949C23.3838 44.5799 26.0511 46.7493 28.4162 49.2922C28.6296 49.5234 28.843 49.7546 29.0919 50.0391C29.1097 49.9146 29.1275 49.8613 29.1275 49.8257C28.3451 45.4868 26.2823 41.8947 22.6902 39.2807C18.6892 36.3644 14.1725 35.1374 9.2645 35.1907C7.6463 35.2085 6.06366 35.3863 4.53437 35.9376C3.18291 36.4177 3.34295 36.3822 3.50299 37.538C3.53856 37.7336 3.53856 37.9292 3.5919 38.1248C4.08981 40.4899 5.22789 42.5705 6.77496 44.3843C12.3942 51.0527 19.5072 53.4 28.025 51.5506C28.5051 51.4439 28.434 51.2839 28.185 50.9993C27.4737 50.1813 26.7446 49.3811 25.9622 48.6343C25.6244 48.3142 25.2687 48.1541 24.8064 48.2075C24.184 48.2786 23.5438 48.332 22.9214 48.3675C20.5919 48.5098 18.2624 48.4031 15.9863 47.8163C15.4706 47.674 15.2216 47.3361 15.3461 46.9805C15.5239 46.5004 15.8974 46.447 16.3241 46.5715C18.6181 47.1939 20.9654 47.105 23.3126 47.0516C23.526 47.0516 23.7394 47.0338 23.935 46.9094H23.9528Z" fill="#9AB898"/>
<path d="M30.0337 37.378C24.8946 37.378 20.7157 33.5904 20.1466 28.5402C19.951 26.7975 20.2356 25.1615 20.8935 23.5789C22.5295 19.6311 24.5745 15.8968 26.655 12.1803C27.5086 10.6688 28.3799 9.17507 29.269 7.68135C29.678 6.97005 30.2293 6.97005 30.6205 7.66356C33.4479 12.6426 36.3109 17.604 38.6759 22.8142C39.3872 24.3791 39.8674 25.9973 39.814 27.7222C39.6362 32.9502 35.7063 36.7734 31.2073 37.2891C30.7805 37.3425 30.3538 37.3958 30.0159 37.378H30.0337ZM30.1582 36.0621C30.4071 36.0621 30.8517 36.0621 31.2962 35.991C36.8799 35.0485 40.0452 29.287 37.8224 24.0945C35.6707 19.0621 32.8967 14.332 30.2293 9.56629C29.9626 9.08616 29.8203 9.3529 29.6602 9.63742C27.2063 13.8696 24.7879 18.1196 22.7607 22.583C22.0494 24.1657 21.3914 25.7483 21.4092 27.5443C21.4625 32.31 25.1791 36.0621 30.1582 36.0799V36.0621Z" fill="#9AB898"/>
</svg>