<svg xmlns="http://www.w3.org/2000/svg" width="100%" height="100%" fill="currentColor">
  <title>play mini</title>
  <path
    d="M26.5973 19.1975L18.5425 13.1907C18.2469 12.9709 17.8545 12.9378 17.5305 13.1086C17.204 13.2781 17 13.6224 17 13.9945V26.0042C17 26.3803 17.204 26.7232 17.5305 26.8927C17.6686 26.9642 17.8197 27 17.972 27C18.1708 27 18.3721 26.9351 18.5425 26.8067L26.5973 20.8052C26.8515 20.6131 27 20.3165 27 20.0013C27.0013 19.6809 26.849 19.3856 26.5973 19.1975Z"
    fill="#292929" />
  <path
    d="M20 2C10.0589 2 2 10.0589 2 20C2 29.9411 10.0589 38 20 38C29.9411 38 38 29.9411 38 20C38 10.0589 29.9411 2 20 2Z"
    stroke="#292929" strokeWidth="2" />
</svg>