<svg xmlns="http://www.w3.org/2000/svg" width="100%" height="100%" viewBox="0 0 32 32" fill="currentColor">
  <title>plus</title>
  <path
    d="M31.3333 14H18V0.666667C18 0.298333 17.7017 0 17.3333 0H14.6667C14.2983 0 14 0.298333 14 0.666667V14H0.666667C0.298333 14 0 14.2983 0 14.6667V17.3333C0 17.7017 0.298333 18 0.666667 18H14V31.3333C14 31.7017 14.2983 32 14.6667 32H17.3333C17.7017 32 18 31.7017 18 31.3333V18H31.3333C31.7017 18 32 17.7017 32 17.3333V14.6667C32 14.2983 31.7017 14 31.3333 14Z"
    fill="currentColor" />
</svg>