<svg xmlns="http://www.w3.org/2000/svg" width="100%" height="100%" viewBox="0 0 38 16">
  <title>rule</title>
  <path
    d="M35.8889 0H32.7222V5.5C32.7222 5.77625 32.486 6 32.1944 6H31.1389C30.8473 6 30.6111 5.77625 30.6111 5.5V0H26.3889V5.5C26.3889 5.77625 26.1527 6 25.8611 6H24.8056C24.514 6 24.2778 5.77625 24.2778 5.5V0H20.0556V5.5C20.0556 5.77625 19.8194 6 19.5278 6H18.4722C18.1806 6 17.9444 5.77625 17.9444 5.5V0H13.7222V5.5C13.7222 5.77625 13.486 6 13.1944 6H12.1389C11.8473 6 11.6111 5.77625 11.6111 5.5V0H7.38889V5.5C7.38889 5.77625 7.15271 6 6.86111 6H5.80556C5.51396 6 5.27778 5.77625 5.27778 5.5V0H2.11111C0.945382 0 0 0.895625 0 2V14C0 15.1044 0.945382 16 2.11111 16H35.8889C37.0546 16 38 15.1044 38 14V2C38 0.895625 37.0546 0 35.8889 0Z"
    fill="currentColor" />
</svg>