<svg xmlns="http://www.w3.org/2000/svg" width="100%" height="100%" viewBox="0 0 62 62" fill="none" id="shine_heart">
<title>Shine Heart</title>
<path d="M30.6809 24.6686C31.0495 24.0595 31.3177 23.5262 31.6663 23.0586C33.7423 20.2911 36.5304 18.8884 39.9753 19.2776C43.671 19.6946 46.1557 21.8809 47.4946 25.2954C48.6079 28.1464 48.3872 30.9544 46.9054 33.6587C45.3284 36.54 43.0743 38.8526 40.6774 41.0363C37.8417 43.6168 34.7552 45.8764 31.5534 47.9842C30.9341 48.3912 30.4728 48.3937 29.846 47.9766C25.6664 45.1813 21.6598 42.1913 18.1847 38.5392C16.4697 36.7397 14.9252 34.8163 13.9549 32.5012C11.8388 27.4564 14.5266 21.0847 20.0651 19.5177C23.8937 18.436 28.2739 20.281 30.2221 23.8068C30.3575 24.0671 30.4929 24.3198 30.6809 24.6661V24.6686ZM46.9556 28.9653C47.0258 27.5853 46.7124 26.3266 46.1683 25.116C44.4533 21.3046 40.1784 19.4065 36.405 20.8269C33.8401 21.7924 32.2103 23.6678 31.3804 26.2533C31.2626 26.6147 31.2049 27.057 30.726 27.0773C30.1995 27.1 30.1268 26.6324 30.0064 26.2508C29.8109 25.6265 29.5501 25.0225 29.2292 24.4513C27.1707 20.7915 22.7128 19.3383 19.0597 21.1378C14.9654 23.1547 13.2153 28.3309 15.2111 32.5239C16.2315 34.652 17.7183 36.4288 19.3506 38.0918C22.595 41.3952 26.2731 44.1602 30.1017 46.7433C30.5731 47.0617 30.8915 47.0238 31.3378 46.7205C33.8701 45.0271 36.3072 43.1973 38.639 41.2385C41.0961 39.1534 43.4203 36.9419 45.2105 34.2375C46.2761 32.6275 47.0584 30.9114 46.9581 28.9627L46.9556 28.9653Z" fill="#9AB898" stroke="#9AB898" stroke-width="0.644319"/>
<path d="M31 10.9397V1.31396" stroke="#9AB898" stroke-width="1.1791" stroke-miterlimit="3.52509" stroke-linecap="round" stroke-linejoin="round"/>
<path d="M31 61.3142V51.6885" stroke="#9AB898" stroke-width="1.1791" stroke-miterlimit="3.52509" stroke-linecap="round" stroke-linejoin="round"/>
<path d="M51.5354 31.4749L61.1611 31.4749" stroke="#9AB898" stroke-width="1.1791" stroke-miterlimit="3.52509" stroke-linecap="round" stroke-linejoin="round"/>
<path d="M0.839132 31.4749L10.4648 31.4749" stroke="#9AB898" stroke-width="1.1791" stroke-miterlimit="3.52509" stroke-linecap="round" stroke-linejoin="round"/>
<path d="M45.5004 16.8019L49.9287 12.2234" stroke="#9AB898" stroke-width="1.1791" stroke-miterlimit="3.52509" stroke-linecap="round" stroke-linejoin="round"/>
<path d="M12.0692 50.4052L16.4976 45.8064" stroke="#9AB898" stroke-width="1.1791" stroke-miterlimit="3.52509" stroke-linecap="round" stroke-linejoin="round"/>
<path d="M45.5004 45.8062L49.9287 50.4048" stroke="#9AB898" stroke-width="1.1791" stroke-miterlimit="3.52509" stroke-linecap="round" stroke-linejoin="round"/>
<path d="M12.0692 12.2232L16.4976 16.812" stroke="#9AB898" stroke-width="1.1791" stroke-miterlimit="3.52509" stroke-linecap="round" stroke-linejoin="round"/>
<path d="M39.6447 12.7047L43.7119 3.95215" stroke="#9AB898" stroke-width="1.1791" stroke-miterlimit="3.52509" stroke-linecap="round" stroke-linejoin="round"/>
<path d="M18.2897 58.6556L22.3569 49.9031" stroke="#9AB898" stroke-width="1.1791" stroke-miterlimit="3.52509" stroke-linecap="round" stroke-linejoin="round"/>
<path d="M49.6005 39.9467L58.353 44.0139" stroke="#9AB898" stroke-width="1.1791" stroke-miterlimit="3.52509" stroke-linecap="round" stroke-linejoin="round"/>
<path d="M3.64882 18.6037L12.4014 22.6709" stroke="#9AB898" stroke-width="1.1791" stroke-miterlimit="3.52509" stroke-linecap="round" stroke-linejoin="round"/>
<path d="M23.1942 12.3402L19.52 3.41553" stroke="#9AB898" stroke-width="1.1791" stroke-miterlimit="3.52509" stroke-linecap="round" stroke-linejoin="round"/>
<path d="M42.4847 59.1942L38.8105 50.2695" stroke="#9AB898" stroke-width="1.1791" stroke-miterlimit="3.52509" stroke-linecap="round" stroke-linejoin="round"/>
<path d="M49.9655 23.4979L58.8901 19.8237" stroke="#9AB898" stroke-width="1.1791" stroke-miterlimit="3.52509" stroke-linecap="round" stroke-linejoin="round"/>
<path d="M3.11977 42.7909L12.0444 39.1167" stroke="#9AB898" stroke-width="1.1791" stroke-miterlimit="3.52509" stroke-linecap="round" stroke-linejoin="round"/>
</svg>