<svg xmlns="http://www.w3.org/2000/svg" width="100%" height="100%" viewBox="0 0 40 40" id="shipping_empty">
  <title>Shipping empty</title>
  <path fill-rule="evenodd" clip-rule="evenodd"
    d="M36.5585 17.0681L38.769 19.9111C38.9306 20.1163 39.0187 20.3728 38.9967 20.6366V28.3085C38.9967 28.9607 38.4679 29.4882 37.8143 29.4882H33.9588C33.4227 31.5107 31.5721 32.9981 29.3837 32.9981C27.1952 32.9981 25.3519 31.5033 24.8085 29.4882H17.7732C17.2371 31.5107 15.3864 32.9981 13.198 32.9981C11.0095 32.9981 9.16625 31.5033 8.62281 29.4882H5.53843C4.88483 29.4882 4.35608 28.9607 4.35608 28.3085C4.35608 27.6564 4.88483 27.1288 5.53843 27.1288H8.60813C9.12219 25.0771 10.9875 23.5456 13.2053 23.5456C15.4231 23.5456 17.2885 25.0697 17.8025 27.1288H24.8011C25.3152 25.0771 27.1805 23.5456 29.3983 23.5456C31.6162 23.5456 33.4815 25.0697 33.9955 27.1288H36.6466V21.0323L34.9209 18.812H25.7044C25.0508 18.812 24.5221 18.2844 24.5221 17.6323V9.35947H5.95703C5.30343 9.35947 4.77468 8.83189 4.77468 8.17974C4.77468 7.52758 5.30343 7 5.95703 7H25.7118C26.3654 7 26.8941 7.52758 26.8941 8.17974V9.35947H31.9466C32.3946 9.35947 32.8059 9.61593 33.0041 10.0116L36.5585 17.0681ZM31.2196 11.7263H26.8941V16.4525H33.599L31.2196 11.7263ZM10.8333 28.2792C10.8333 29.5835 11.8981 30.646 13.2053 30.646C14.5125 30.646 15.5774 29.5835 15.5774 28.2792C15.5774 26.9749 14.5125 25.9124 13.2053 25.9124C11.8981 25.9124 10.8333 26.9749 10.8333 28.2792ZM27.0263 28.2792C27.0263 29.5835 28.0912 30.646 29.3983 30.646C30.7055 30.646 31.7704 29.5835 31.7704 28.2792C31.7704 26.9749 30.7055 25.9124 29.3983 25.9124C28.0912 25.9124 27.0263 26.9749 27.0263 28.2792ZM9.57019 21.1495C10.2238 21.1495 10.7525 21.6771 10.7525 22.3292C10.7525 22.9814 10.2238 23.509 9.57019 23.509H4.12111C3.46751 23.509 2.93876 22.9814 2.93876 22.3292C2.93876 21.6771 3.46751 21.1495 4.12111 21.1495H9.57019ZM13.4771 17.6763C13.4771 17.0241 12.9483 16.4965 12.2947 16.4965H2.18235C1.52875 16.4965 1 17.0241 1 17.6763C1 18.3284 1.52875 18.856 2.18235 18.856H12.2947C12.9483 18.8633 13.4771 18.3357 13.4771 17.6763ZM14.2335 14.2103H4.12111C3.46751 14.2103 2.93876 13.6827 2.93876 13.0306C2.93876 12.3784 3.46751 11.8508 4.12111 11.8508H14.2335C14.8871 11.8508 15.4158 12.3784 15.4158 13.0306C15.4158 13.6827 14.8871 14.2103 14.2335 14.2103Z"
    fill="currentColor" />
</svg>