<svg xmlns="http://www.w3.org/2000/svg" width="100%" height="100%" viewBox="0 0 40 40">
  <title>Shipping</title>
  <path
    d="M38.7573 19.8505L36.5475 17.0208L32.9942 9.99748C32.796 9.60365 32.3849 9.34839 31.9371 9.34839H26.8861V8.17419C26.8861 7.52511 26.3575 7 25.7041 7H5.95551C5.30212 7 4.77353 7.52511 4.77353 8.17419C4.77353 8.18878 4.77353 8.20337 4.77353 8.21795C4.77353 8.22525 4.77353 8.22525 4.77353 8.23254V10.0558C4.77353 10.6976 5.30212 11.2227 5.94817 11.2227H14.3835C15.0076 11.2227 15.7197 11.7259 15.7197 12.3459V12.4261C15.7197 13.046 15.0076 13.5492 14.3835 13.5492H4.77353V13.5784H4.24494C3.6356 13.5784 2.97486 13.9576 2.97486 14.7526C2.9822 15.5257 3.6356 15.9705 4.24494 15.9705H11.8728C12.5115 15.9705 13.0401 16.4592 13.0401 17.1812C13.0401 17.7865 12.4894 18.2971 11.8801 18.2971H2.10122C1.49188 18.2971 1 18.8732 1 19.4712C1 20.0766 1.49188 20.6892 2.10122 20.6892H8.89211C9.50879 20.6892 10.0007 21.1778 10.0007 21.7832C10.0007 22.3885 9.50879 23.0813 8.89945 23.0813H3.59155C2.99689 23.0813 2.49032 23.5335 2.46096 24.1243C2.43159 24.7515 2.93815 25.2693 3.56218 25.2693H5.36085V28.5512C5.36085 29.1565 5.85273 29.6452 6.46207 29.6452H8.26074C8.65718 31.5778 10.3751 33 12.394 33C14.4129 33 16.1382 31.5778 16.5273 29.6452H27.7084C28.1048 31.5778 29.8227 33 31.8416 33C33.8605 33 35.5858 31.5778 35.9749 29.6452H37.8983C38.5077 29.6452 38.9996 29.1565 38.9996 28.5512V28.223V21.9947V20.5725C39.0069 20.31 38.9188 20.0547 38.7573 19.8505ZM13.8182 30.2286C12.5702 31.4684 10.4412 30.6224 10.3751 28.894C10.309 27.1874 12.2105 26.1736 13.5907 27.1947C14.6038 27.9459 14.6772 29.3753 13.8182 30.2286ZM26.8861 16.6196V11.7041H31.2102L33.699 16.6196H26.8861ZM33.2732 30.2286C32.0252 31.4684 29.8961 30.6224 29.83 28.894C29.764 27.1874 31.6654 26.1736 33.0456 27.1947C34.0588 27.9459 34.1322 29.3753 33.2732 30.2286Z"
    fill="currentColor" />
</svg>