<svg width="100%" height="100%" viewBox="0 0 32 31" fill="currentColor" xmlns="http://www.w3.org/2000/svg" id="size_with_stars">
<g id="Frame 427323326">
<g id="Group">
<path id="Vector" fill-rule="evenodd" clip-rule="evenodd" d="M31.6964 12.6964C30.9286 12.6964 30.3036 12.0714 30.3036 11.3036C30.3036 11.125 30.1607 11 30 11C29.8393 11 29.6964 11.1429 29.6964 11.3036C29.6964 12.0714 29.0714 12.6964 28.3036 12.6964C28.125 12.6964 28 12.8393 28 13C28 13.1786 28.1429 13.3036 28.3036 13.3036C29.0714 13.3036 29.6964 13.9286 29.6964 14.6964C29.6964 14.875 29.8393 15 30 15C30.1607 15 30.3036 14.8571 30.3036 14.6964C30.3036 13.9286 30.9286 13.3036 31.6964 13.3036C31.875 13.3036 32 13.1607 32 13C32 12.8393 31.8571 12.6964 31.6964 12.6964ZM29.9821 13.6429C29.8214 13.3929 29.6071 13.1786 29.3571 13.0179C29.6071 12.8571 29.8214 12.6429 29.9821 12.3929C30.1429 12.6429 30.3571 12.8571 30.6071 13.0179C30.3571 13.1607 30.1429 13.3929 29.9821 13.6429Z" fill="#292929"/>
<path id="Vector_2" fill-rule="evenodd" clip-rule="evenodd" d="M27.6201 6.12341C26.0911 6.12341 24.868 4.87841 24.868 3.37131C24.868 3.15289 24.6933 3 24.4967 3C24.2783 3 24.1254 3.17474 24.1254 3.37131C24.1254 4.87841 22.9022 6.12341 21.3733 6.12341C21.1548 6.12341 21.002 6.29815 21.002 6.49472C21.002 6.6913 21.1767 6.86604 21.3733 6.86604C22.9022 6.86604 24.1254 8.11103 24.1254 9.61813C24.1254 9.83655 24.3001 9.98945 24.4967 9.98945C24.7151 9.98945 24.868 9.81471 24.868 9.61813C24.868 8.11103 26.0911 6.86604 27.6201 6.86604C27.8385 6.86604 27.9914 6.6913 27.9914 6.49472C27.9914 6.29815 27.8385 6.12341 27.6201 6.12341ZM24.4967 8.04551C24.169 7.39025 23.623 6.8442 22.9459 6.49472C23.6012 6.16709 24.1472 5.62104 24.4967 4.94394C24.8243 5.5992 25.3704 6.14525 26.0475 6.49472C25.3704 6.82235 24.8243 7.3684 24.4967 8.04551Z" fill="#292929"/>
<path id="Vector_3" fill-rule="evenodd" clip-rule="evenodd" d="M4.62054 23.1205C3.66071 23.1205 2.87946 22.3393 2.87946 21.3795C2.87946 21.1563 2.70089 21 2.5 21C2.29911 21 2.12054 21.1786 2.12054 21.3795C2.12054 22.3393 1.33929 23.1205 0.379464 23.1205C0.15625 23.1205 0 23.2991 0 23.5C0 23.7232 0.178571 23.8795 0.379464 23.8795C1.33929 23.8795 2.12054 24.6607 2.12054 25.6205C2.12054 25.8437 2.29911 26 2.5 26C2.70089 26 2.87946 25.8214 2.87946 25.6205C2.87946 24.6607 3.66071 23.8795 4.62054 23.8795C4.84375 23.8795 5 23.7009 5 23.5C5 23.2991 4.82143 23.1205 4.62054 23.1205ZM2.47768 24.3036C2.27679 23.9911 2.00893 23.7232 1.69643 23.5223C2.00893 23.3214 2.27679 23.0536 2.47768 22.7411C2.67857 23.0536 2.94643 23.3214 3.25893 23.5223C2.94643 23.7009 2.67857 23.9911 2.47768 24.3036Z" fill="#292929"/>
<path id="Union" fill-rule="evenodd" clip-rule="evenodd" d="M7.70503 11L7.70809 11H10.8809L10.8839 11L10.887 11H14.0628L14.0659 11L14.069 11H17.2433L17.2463 11L17.2494 11H20.4227L20.4257 11L20.4288 11H23.6031C23.6041 11 23.6052 11 23.6062 11C23.6072 11 23.6082 11 23.6092 11H25.8765C26.5036 11 27.012 11.5084 27.012 12.1355V21.2198C27.012 21.847 26.5036 22.3554 25.8765 22.3554H5.43681C4.80967 22.3554 4.30127 21.847 4.30127 21.2198V12.1355C4.30127 11.5084 4.80967 11 5.43681 11H7.70197L7.70503 11ZM23.0384 12.1355V17.2454C23.0384 17.559 23.2926 17.8132 23.6062 17.8132C23.9198 17.8132 24.174 17.559 24.174 17.2454V12.1355H25.8765V21.2198H5.43681V12.1355H7.13726V14.9744C7.13726 15.2879 7.39146 15.5421 7.70503 15.5421C8.0186 15.5421 8.2728 15.2879 8.2728 14.9744V12.1355H10.3162V17.2454C10.3162 17.559 10.5704 17.8132 10.8839 17.8132C11.1975 17.8132 11.4517 17.559 11.4517 17.2454V12.1355H13.4981V14.9744C13.4981 15.2879 13.7523 15.5421 14.0659 15.5421C14.3795 15.5421 14.6337 15.2879 14.6337 14.9744V12.1355H16.6786V17.2454C16.6786 17.559 16.9328 17.8132 17.2463 17.8132C17.5599 17.8132 17.8141 17.559 17.8141 17.2454V12.1355H19.858V14.9744C19.858 15.2879 20.1122 15.5421 20.4257 15.5421C20.7393 15.5421 20.9935 15.2879 20.9935 14.9744V12.1355H23.0384Z" fill="#292929"/>
</g>
</g>
</svg>
