<svg xmlns="http://www.w3.org/2000/svg" width="100%" height="100%" viewBox="0 0 40 40" id="size_empty">
  <title>size empty</title>
  <path fill-rule="evenodd" clip-rule="evenodd"
    d="M27.4001 12H23.799V21C23.799 21.5523 23.3512 22 22.799 22C22.2467 22 21.799 21.5523 21.799 21V12H18.1977V17C18.1977 17.5523 17.75 18 17.1977 18C16.6454 18 16.1977 17.5523 16.1977 17V12H12.5931V21C12.5931 21.5523 12.1454 22 11.5931 22C11.0408 22 10.5931 21.5523 10.5931 21V12H6.99524V17C6.99524 17.5523 6.54752 18 5.99524 18C5.44295 18 4.99524 17.5523 4.99524 17V12H2V28H38V12H35.0013V21C35.0013 21.5523 34.5536 22 34.0013 22C33.4491 22 33.0013 21.5523 33.0013 21V12H29.4001V17C29.4001 17.5523 28.9524 18 28.4001 18C27.8479 18 27.4001 17.5523 27.4001 17V12ZM34.0013 10H28.4001H22.799H17.1977H11.5931H5.99524H2C0.895431 10 0 10.8954 0 12V28C0 29.1046 0.895431 30 2 30H38C39.1046 30 40 29.1046 40 28V12C40 10.8954 39.1046 10 38 10H34.0013Z"
    fill="currentColor" />
</svg>