<svg xmlns="http://www.w3.org/2000/svg" width="100%" height="100%" viewBox="0 0 56 47" fill="none" id="skin_appearance">
<title>Skin Appearance</title>
<path d="M1.66455 22.4578C2.94922 21.4586 7.06014 19.5459 13.2265 19.8884C20.9345 20.3167 19.6499 22.4578 27.7861 22.4578C35.9223 22.4578 35.4941 19.8884 42.7738 19.8884C48.5976 19.8884 52.9084 21.6013 54.3358 22.4578" stroke="currentColor" stroke-width="1.95784" stroke-linecap="round"/>
<path d="M1.66455 27.637C2.94922 26.6378 7.06014 24.7251 13.2265 25.0676C20.9345 25.4959 19.6499 27.637 27.7861 27.637C35.9223 27.637 35.4941 25.0676 42.7738 25.0676C48.5976 25.0676 52.9084 26.7805 54.3358 27.637" stroke="currentColor" stroke-width="1.95784" stroke-linecap="round"/>
<path d="M28.9085 31.186C28.5262 30.8037 27.9064 30.8037 27.5241 31.186L21.2943 37.4158C20.912 37.7981 20.912 38.4179 21.2943 38.8002C21.6766 39.1825 22.2964 39.1825 22.6787 38.8002L28.2163 33.2626L33.7539 38.8002C34.1362 39.1825 34.756 39.1825 35.1383 38.8002C35.5206 38.4179 35.5206 37.7981 35.1383 37.4158L28.9085 31.186ZM27.2374 45.5813C27.2374 46.1219 27.6757 46.5602 28.2163 46.5602C28.757 46.5602 29.1952 46.1219 29.1952 45.5813L27.2374 45.5813ZM27.2374 31.8782L27.2374 45.5813L29.1952 45.5813L29.1952 31.8782L27.2374 31.8782Z" fill="currentColor"/>
<path d="M42.5095 15.4417C42.8917 15.824 43.5116 15.824 43.8939 15.4417L50.1237 9.21187C50.506 8.82958 50.506 8.20977 50.1237 7.82747C49.7414 7.44518 49.1216 7.44518 48.7393 7.82747L43.2017 13.3651L37.6641 7.82747C37.2818 7.44518 36.6619 7.44518 36.2797 7.82747C35.8974 8.20976 35.8974 8.82958 36.2797 9.21187L42.5095 15.4417ZM44.1806 1.04639C44.1806 0.505745 43.7423 0.0674675 43.2017 0.0674674C42.661 0.0674673 42.2227 0.505744 42.2227 1.04639L44.1806 1.04639ZM44.1806 14.7495L44.1806 1.04639L42.2227 1.04639L42.2227 14.7495L44.1806 14.7495Z" fill="currentColor"/>
<path d="M12.5339 15.4417C12.9162 15.824 13.536 15.824 13.9183 15.4417L20.1481 9.21187C20.5304 8.82958 20.5304 8.20977 20.1481 7.82747C19.7658 7.44518 19.146 7.44518 18.7637 7.82747L13.2261 13.3651L7.68847 7.82747C7.30618 7.44518 6.68636 7.44518 6.30407 7.82747C5.92178 8.20976 5.92178 8.82958 6.30407 9.21187L12.5339 15.4417ZM14.205 1.04639C14.205 0.505745 13.7667 0.0674675 13.2261 0.0674674C12.6854 0.0674673 12.2472 0.505744 12.2472 1.04639L14.205 1.04639ZM14.205 14.7495L14.205 1.04639L12.2472 1.04639L12.2472 14.7495L14.205 14.7495Z" fill="currentColor"/>
</svg>