<svg xmlns="http://www.w3.org/2000/svg" width="100%" height="100%" testId="stars">
  <title>Stars</title>
  <path
    d="M0 22.5354C1.2487 22.4788 2.3053 22.0073 3.16978 21.121C4.03427 20.2347 4.47612 19.1786 4.47612 17.9529C4.47612 19.1786 4.89875 20.2347 5.76324 21.121C6.62773 22.0073 7.68432 22.4788 8.93302 22.5354C7.68432 22.5919 6.62773 23.0634 5.76324 23.9497C5.34529 24.3675 5.01623 24.8629 4.79525 25.4068C4.57427 25.9507 4.46578 26.5324 4.47612 27.1179C4.47612 25.8921 4.05348 24.836 3.16978 23.9497C2.3053 23.0634 1.2487 22.5919 0 22.5354ZM4.47612 8.95757C6.89668 8.84442 8.95223 7.92038 10.6428 6.18544C12.3333 4.4505 13.1786 2.39497 13.1786 0C13.1786 2.39497 14.0239 4.4505 15.7144 6.18544C17.405 7.92038 19.4605 8.82556 21.9003 8.95757C20.3058 9.033 18.8458 9.46674 17.501 10.2965C16.1755 11.1074 15.1189 12.2012 14.3313 13.5589C13.5628 14.9167 13.1786 16.3688 13.1786 17.9529C13.1786 15.5579 12.3333 13.4835 10.6428 11.7486C8.95223 9.99476 6.89668 9.07072 4.47612 8.95757ZM10.8541 29.2677C12.6791 29.1922 14.2352 28.4945 15.5031 27.1933C16.771 25.8921 17.405 24.3457 17.405 22.5354C17.405 24.3457 18.0389 25.8921 19.3069 27.1933C20.5748 28.4945 22.1116 29.1922 23.9367 29.2677C22.1116 29.3431 20.5748 30.0409 19.3069 31.3421C18.0389 32.6433 17.405 34.1896 17.405 36C17.405 34.1896 16.771 32.6433 15.5031 31.3421C14.2913 30.0779 12.6212 29.3327 10.8541 29.2677ZM23.9367 20.329C25.7617 20.2535 27.2985 19.5558 28.5665 18.2546C29.8344 16.9534 30.4491 15.407 30.4491 13.5778C30.4491 15.3882 31.0831 16.9345 32.351 18.2357C33.6189 19.5369 35.175 20.2347 37 20.3101C35.175 20.3855 33.6189 21.0833 32.351 22.3845C31.0831 23.6857 30.4491 25.2321 30.4491 27.0424C30.4491 25.2321 29.8152 23.6857 28.5665 22.3845C27.2985 21.1021 25.7617 20.4044 23.9367 20.329Z"
    fill="currentColor" />
</svg>