<svg xmlns="http://www.w3.org/2000/svg" width="100%" height="100%" testId="star-empty">
  <title>Star empty</title>
  <path
    d="M36.0538 12.058L25.6766 10.5605L21.0385 1.2523C20.2075 -0.406871 17.7996 -0.427962 16.9615 1.2523L12.3234 10.5605L1.9462 12.058C0.0852673 12.3251 -0.660526 14.596 0.689004 15.8966L8.19665 23.1379L6.42096 33.3671C6.10133 35.2161 8.0688 36.6011 9.71665 35.7363L19 30.9064L28.2833 35.7363C29.9312 36.594 31.8987 35.2161 31.579 33.3671L29.8033 23.1379L37.311 15.8966C38.6605 14.596 37.9147 12.3251 36.0538 12.058ZM26.1454 21.9568L27.8288 31.6868L19 27.096L10.1712 31.6868L11.8546 21.9568L4.70918 15.067L14.5821 13.6469L19 4.78858L23.4179 13.6469L33.2908 15.067L26.1454 21.9568Z"
    fill="currentColor" />
</svg>