<svg xmlns="http://www.w3.org/2000/svg" width="100%" height="100%" testId="star-half">
  <title>Star half</title>
  <path
    d="M36.0538 12.0593L25.677 10.5609L21.0397 1.25227C20.6229 0.420469 19.8097 0 18.9966 0C18.1884 0 17.3809 0.414844 16.9626 1.25227L12.3239 10.5602L1.94638 12.0572C0.0853893 12.3244 -0.660423 14.5948 0.688703 15.8955L8.19574 23.1377L6.41912 33.3668C6.16674 34.8279 7.34288 36 8.6601 36C9.00961 36 9.36905 35.9177 9.71431 35.7363L18.998 30.9073L28.2809 35.7377C28.6255 35.917 28.9842 35.9986 29.3323 35.9986C30.6509 35.9986 31.8292 34.8307 31.5768 33.3689L29.8023 23.1391L37.3108 15.8984C38.6606 14.5976 37.9148 12.3265 36.0538 12.0593ZM27.4231 20.7218L26.1385 21.9607L26.4419 23.7101L27.8258 31.687L20.5853 27.919L18.9987 27.0935L19.0008 4.79109L22.6186 12.0537L23.4112 13.6448L25.1842 13.9008L33.2825 15.0701L27.4231 20.7218Z"
    fill="none" />
</svg>