<svg xmlns="http://www.w3.org/2000/svg" width="100%" height="100%" viewBox="0 0 40 40" id="stopwatch">
  <title>stop watch</title>
  <path
    d="M25.3333 1H14.6667V4.61905H25.3333V1ZM18.2222 24.5238H21.7778V13.6667H18.2222V24.5238ZM32.4444 12.581L35.1111 10.0476C34.2222 9.14286 33.3333 8.2381 32.4444 7.51429L29.9556 10.0476C27.2889 7.87619 23.7333 6.42857 20 6.42857C11.1111 6.42857 4 13.6667 4 22.7143C4 31.7619 11.1111 39 20 39C28.8889 39 36 31.7619 36 22.7143C36 18.9143 34.7556 15.2952 32.4444 12.581ZM20 35.381C13.0667 35.381 7.55556 29.7714 7.55556 22.7143C7.55556 15.6571 13.0667 10.0476 20 10.0476C26.9333 10.0476 32.4444 15.6571 32.4444 22.7143C32.4444 29.7714 26.9333 35.381 20 35.381Z"
    fill="currentColor" />
</svg>