<svg width="100%" height="100%" viewBox="0 0 40 40" id="stopwatch" id="tape_measure" fill="currentColor" xmlns="http://www.w3.org/2000/svg">
<rect width="22" height="22" rx="4" fill="#D4605B"/>
<path d="M6 9.55636C6 10.3535 7.27857 10.9999 8.85714 10.9999V9.55636C8.85714 8.84636 8.85714 8.49065 8.57357 8.27422C8.28929 8.05779 8.00786 8.13851 7.445 8.30065C6.58214 8.54994 6 9.01779 6 9.55636Z" stroke="white" stroke-linecap="round" stroke-linejoin="round"/>
<path d="M13.8569 8.5C13.8569 9.88071 11.6184 11 8.85693 11C6.09551 11 3.85693 9.88071 3.85693 8.5C3.85693 7.11929 6.09551 6 8.85693 6C11.6184 6 13.8569 7.11929 13.8569 8.5Z" stroke="white" stroke-linecap="round" stroke-linejoin="round"/>
<path d="M3.85693 8.8573V13.6194C3.85693 14.9337 6.0955 16.0002 8.85693 16.0002H16.7141C17.3876 16.0002 17.7241 16.0002 17.9334 15.7909C18.1426 15.5816 18.1426 15.2452 18.1426 14.5716V12.4287C18.1426 11.7552 18.1426 11.4187 17.9334 11.2094C17.7241 11.0002 17.3876 11.0002 16.7141 11.0002H8.85693M15.2855 16.0002V14.5716M12.4284 16.0002V14.5716M9.57122 16.0002V14.5716M6.71408 15.643V14.2144" stroke="white" stroke-linecap="round" stroke-linejoin="round"/>
</svg>
