<svg xmlns="http://www.w3.org/2000/svg" width="100%" height="100%" viewBox="0 0 54 55" fill="none" id="wrinkle_free_face">
<title>Wrinkle Free Face</title>
<path d="M25.2477 0.59167C27.379 0.563712 29.336 0.91211 31.1662 1.84117C34.134 3.34874 35.4416 5.79183 34.934 9.0758C34.8244 9.78765 34.99 10.1791 35.5405 10.607C38.5707 12.9662 40.0417 16.0739 39.9729 19.932C39.9428 21.5837 39.8439 23.2225 39.5987 24.8548C39.5191 25.3795 39.5879 25.8139 39.8912 26.2699C41.6611 28.9366 40.831 32.7647 38.0911 34.4615C37.4761 34.8422 37.0717 35.2787 36.8115 35.954C35.8739 38.3821 34.6394 40.6316 32.7189 42.4445C32.4824 42.6682 32.2737 42.9005 32.2974 43.2704C32.4243 45.3177 32.6566 47.3436 33.6157 49.2039C34.2566 50.4491 35.1943 51.4018 36.4481 52.0513C37.0373 52.3567 37.6503 52.7739 37.2029 53.5546C36.7728 54.3051 36.1147 54.0427 35.5104 53.7201C32.3985 52.0513 31.1769 49.1974 30.6264 45.9242C30.5898 45.7135 30.5683 45.4984 30.5533 45.2833C30.4995 44.5177 30.3038 44.2338 29.4307 44.6145C26.6714 45.8145 23.852 45.8081 21.0885 44.6016C20.3056 44.2596 20.0927 44.464 20.0067 45.2102C19.7572 47.3307 19.2239 49.3587 17.9787 51.1459C17.1808 52.2921 16.1313 53.1352 14.9141 53.7847C14.327 54.0987 13.7097 54.2234 13.3269 53.5244C12.9635 52.8599 13.4065 52.4212 13.9485 52.1416C16.9744 50.5846 17.7292 47.7737 18.1529 44.7328C18.3292 43.4618 18.0325 42.5392 17.0819 41.6123C15.4689 40.0402 14.5334 37.9949 13.714 35.9175C13.4839 35.3325 13.1893 34.8744 12.6043 34.5497C9.6193 32.898 8.83433 28.3366 10.7011 26.2376C11.0839 25.8075 11.0129 25.3257 10.9376 24.8182C10.5978 22.545 10.3828 20.246 10.6731 17.9664C11.0559 14.9598 12.5162 12.491 14.9463 10.6479C15.5227 10.2113 15.7313 9.8113 15.6109 9.03708C15.1012 5.76172 16.4281 3.32293 19.4088 1.82397C21.2734 0.886303 23.267 0.544357 25.2477 0.59167ZM25.4176 43.5994C27.5059 43.5005 29.4952 42.8252 31.1619 41.3026C32.9813 39.6423 34.1727 37.5734 35.0222 35.3045C35.4244 34.2292 35.9384 33.4185 37.0352 32.8421C38.5858 32.027 39.0697 30.4463 38.9041 28.7925C38.7406 27.1538 37.5191 26.5365 36.0222 26.2161C31.6866 25.2849 28.0306 23.1493 25.0864 19.8202C24.7853 19.4804 24.5359 19.1062 24.1359 19.7621C21.7638 23.659 18.2432 25.7903 13.7829 26.5086C12.5162 26.7129 11.7032 27.7065 11.5936 28.956C11.4409 30.7087 12.3936 32.4206 14.0237 33.141C14.6453 33.4163 14.9679 33.8185 15.1829 34.4335C15.8604 36.3691 16.7356 38.2079 18.0088 39.8359C19.8605 42.2037 22.2498 43.5241 25.4155 43.6016L25.4176 43.5994ZM12.428 20.0396C12.5205 21.1686 12.6301 22.487 12.7398 23.8074C12.7914 24.4203 13.0366 24.6376 13.7184 24.5429C17.1378 24.0741 19.8153 22.4009 21.9121 19.7062C22.9036 18.4331 23.4928 17.1943 22.267 15.6781C21.8046 15.1082 21.2992 14.1684 22.338 13.6609C23.3208 13.1791 23.581 14.1577 23.9294 14.7964C26.7316 19.9406 30.9597 23.1816 36.7061 24.4311C37.4395 24.5902 37.7879 24.4246 37.8352 23.6676C37.8933 22.7751 37.9406 21.8805 38.0395 20.9923C38.5148 16.7513 36.6223 13.0501 32.8071 11.1232C28.265 8.83063 23.5509 8.72525 18.869 10.592C14.7571 12.2307 12.5033 15.319 12.428 20.0417V20.0396ZM25.508 2.44549C23.0928 2.44979 20.7766 3.07562 19.4174 4.01758C18.0497 4.96384 17.3701 6.26281 17.3722 7.93168C17.3722 8.75536 17.6238 8.99837 18.4798 8.68223C23.0176 6.99831 27.5768 7.00046 32.1125 8.69944C32.9125 8.99837 33.134 8.75321 33.1705 7.98759C33.263 6.07786 32.1619 4.39178 30.149 3.46057C28.5941 2.74227 26.9338 2.52936 25.508 2.44979V2.44549Z" fill="currentColor"/>
<path d="M53.6856 24.784C53.6362 25.2399 53.3695 25.5496 52.9738 25.6571C50.7114 26.2765 50.049 28.0916 49.6103 30.0852C49.5866 30.1906 49.5629 30.2938 49.535 30.3992C49.3801 30.9949 49.2597 31.6681 48.4511 31.6336C47.7156 31.6035 47.593 30.9734 47.4704 30.4078C47.2489 29.3884 46.9822 28.3819 46.4639 27.4744C45.9435 26.5647 45.1176 26.012 44.1284 25.6937C43.6939 25.5539 43.352 25.2915 43.3219 24.7969C43.2918 24.2979 43.5929 23.9689 44.0337 23.8399C46.1607 23.2205 46.922 21.5624 47.3392 19.6075C47.4962 18.8698 47.4575 17.8418 48.5479 17.8784C49.5608 17.915 49.4576 18.9214 49.6253 19.6139C50.092 21.5387 50.8383 23.2226 52.9652 23.8399C53.4082 23.9689 53.6835 24.3001 53.6856 24.7861V24.784ZM50.3028 24.5087C50.092 24.3474 49.7694 24.1689 49.5393 23.9087C49.1887 23.5087 48.9436 22.7409 48.5801 22.6936C47.9995 22.6183 47.9693 23.5409 47.5134 23.8614C46.6833 24.4485 46.6295 24.9732 47.479 25.6292C47.8833 25.941 48.1177 26.7969 48.4511 26.8098C49.0016 26.8292 49.1049 25.9905 49.492 25.584C49.7543 25.3087 50.1372 25.1195 50.3028 24.5108V24.5087Z" fill="currentColor"/>
<path d="M5.50822 49.7179C4.91251 49.6835 4.66089 49.2921 4.5297 48.7609C4.31679 47.892 4.10818 47.0253 3.77054 46.1909C3.32751 45.1005 2.58771 44.3371 1.49305 43.907C0.964001 43.7005 0.333874 43.5629 0.314519 42.836C0.293013 42.1026 0.901633 41.9176 1.44359 41.7305C3.0931 41.1563 3.69957 39.7864 4.21786 38.2831C4.50819 37.4444 4.15334 36.0013 5.46091 35.9712C6.81364 35.939 6.47384 37.3949 6.73837 38.2294C7.27387 39.9154 8.04378 41.3284 9.87825 41.8703C10.3148 41.9994 10.6439 42.2832 10.6654 42.78C10.6847 43.2295 10.4288 43.565 10.0309 43.6811C7.66743 44.3693 6.95773 46.264 6.52976 48.3845C6.40933 48.9802 6.3104 49.6168 5.50822 49.7179ZM7.27172 42.5671C7.14913 42.4811 6.87601 42.3542 6.69536 42.1478C6.28029 41.6746 5.9448 40.7993 5.51037 40.7563C4.94262 40.6983 4.86519 41.7499 4.33184 42.1091C3.6544 42.5628 3.6501 42.9456 4.28453 43.4876C4.75551 43.8897 5.05015 44.8253 5.48027 44.8618C6.03512 44.9091 6.1534 43.9027 6.64804 43.4919C6.88031 43.2983 7.2072 43.1542 7.27172 42.5693V42.5671Z" fill="currentColor"/>
<path d="M25.1653 40.2895C24.0663 40.3303 22.9566 40.1196 21.9802 39.44C21.5114 39.1131 21.1609 38.6787 21.5157 38.0851C21.8577 37.5109 22.3609 37.5388 22.9093 37.8292C24.4728 38.6593 26.0513 38.6658 27.6191 37.8399C28.1611 37.5539 28.66 37.4937 29.0213 38.0636C29.3934 38.6507 29.0514 39.0959 28.5933 39.4314C27.5955 40.1626 26.4363 40.3131 25.1674 40.2895H25.1653Z" fill="currentColor"/>
<path d="M19.9224 31.6338C18.5331 31.6381 17.4879 30.8897 16.29 30.6746C15.9309 30.6101 15.7459 30.2079 15.7997 29.8122C15.8578 29.3757 16.1395 29.1004 16.5696 29.0273C17.2191 28.9176 17.8385 28.9864 18.4406 29.3111C19.3181 29.7843 20.2149 29.8101 21.0988 29.2767C21.6343 28.9541 22.2149 28.7928 22.5956 29.4423C22.9935 30.1219 22.5633 30.5821 22.0171 30.9542C21.344 31.4123 20.5826 31.5779 19.9246 31.6338H19.9224Z" fill="currentColor"/>
<path d="M30.5169 31.6273C29.775 31.5564 28.9169 31.3327 28.2158 30.7133C27.79 30.337 27.6437 29.8703 27.9878 29.3778C28.3083 28.9197 28.79 28.8918 29.2266 29.1692C30.2825 29.838 31.3126 29.7821 32.375 29.1993C32.5858 29.0832 32.8482 29.0122 33.089 29.0015C33.7665 28.9735 34.5816 28.8681 34.7214 29.7864C34.8547 30.666 34.1127 30.7133 33.4611 30.8854C32.5363 31.1306 31.689 31.6639 30.5191 31.6273H30.5169Z" fill="currentColor"/>
</svg>