<svg xmlns="http://www.w3.org/2000/svg" width="100%" height="100%" fill="currentColor">
  <title>Klarna</title>
  <path
    d="M43.3909 0H4.60907C2.06355 0 0 2.47626 0 5.53088V26.4691C0 29.5237 2.06355 32 4.60907 32H43.3909C45.9365 32 48 29.5237 48 26.4691V5.53088C48 2.47626 45.9365 0 43.3909 0Z"
    fill="#FFB3C7" />
  <path
    d="M42.8613 17.6644C42.711 17.6649 42.5623 17.6951 42.4237 17.7531C42.2851 17.8111 42.1594 17.8959 42.0536 18.0025C41.9478 18.1092 41.8642 18.2356 41.8074 18.3746C41.7506 18.5135 41.7218 18.6623 41.7226 18.8124C41.7218 18.9626 41.7506 19.1114 41.8074 19.2503C41.8642 19.3893 41.9478 19.5157 42.0536 19.6224C42.1594 19.729 42.2851 19.8138 42.4237 19.8718C42.5623 19.9298 42.711 19.96 42.8613 19.9605C43.4894 19.9605 44 19.4462 44 18.8124C44.0008 18.6623 43.972 18.5135 43.9152 18.3746C43.8584 18.2356 43.7748 18.1092 43.669 18.0025C43.5632 17.8959 43.4375 17.8111 43.2989 17.7531C43.1603 17.6951 43.0116 17.6649 42.8613 17.6644ZM39.1141 16.7777C39.1141 15.9092 38.3782 15.206 37.4702 15.206C36.5623 15.206 35.8263 15.9103 35.8263 16.7777C35.8263 17.6452 36.5633 18.3483 37.4713 18.3483C38.3792 18.3483 39.1141 17.6452 39.1141 16.7777ZM39.1205 13.7229H40.9343V19.8314H39.1205V19.4409C38.5918 19.8055 37.9643 20.0005 37.3217 20C35.5561 20 34.1247 18.5574 34.1247 16.7777C34.1247 14.998 35.5561 13.5554 37.3217 13.5554C37.9894 13.5554 38.6078 13.7614 39.1205 14.1145V13.7229ZM24.6019 14.5189V13.724H22.7443V19.8314H24.6062V16.9794C24.6062 16.017 25.6402 15.5005 26.358 15.5005H26.3794V13.724C25.6423 13.724 24.9662 14.042 24.6019 14.5189ZM19.9746 16.7777C19.9746 15.9092 19.2386 15.206 18.3306 15.206C17.4227 15.206 16.6867 15.9103 16.6867 16.7777C16.6867 17.6452 17.4238 18.3483 18.3317 18.3483C19.2397 18.3483 19.9746 17.6452 19.9746 16.7777ZM19.981 13.7229H21.7958V19.8314H19.981V19.4409C19.4683 19.793 18.8498 20 18.1822 20C16.4165 20 14.9851 18.5574 14.9851 16.7777C14.9851 14.998 16.4165 13.5554 18.1822 13.5554C18.8498 13.5554 19.4683 13.7614 19.981 14.1145V13.7229ZM30.9009 13.5597C30.1767 13.5597 29.4909 13.7859 29.0316 14.4111V13.724H27.2253V19.8314H29.0541V16.6219C29.0541 15.6937 29.6715 15.2381 30.416 15.2381C31.2128 15.2381 31.6722 15.7182 31.6722 16.6091V19.8314H33.4838V15.9476C33.4838 14.5264 32.3622 13.5597 30.9009 13.5597ZM12.3425 19.8314H14.2417V11.0021H12.3425V19.8314ZM4 19.8336H6.01137V11H4.00107L4 19.8336ZM11.035 11C11.035 12.912 10.2958 14.6918 8.9777 16.0138L11.7571 19.8336H9.27358L6.25385 15.683L7.03362 15.094C7.66841 14.6171 8.18273 13.9985 8.5355 13.2877C8.88827 12.5768 9.0697 11.7934 9.06529 11H11.0329H11.035Z"
    fill="#0A0B09" />
</svg>