<svg xmlns="http://www.w3.org/2000/svg" width="24" height="24" viewBox="0 0 24 24" fill="none" id="payment_methods">
  <path d="M2 8.57155V16.343C2 17.623 2 18.263 2.24222 18.7521C2.45527 19.1822 2.79521 19.5318 3.21333 19.751C3.68778 20.0001 4.31 20.0001 5.55222 20.0001H18.4478C19.69 20.0001 20.3111 20.0001 20.7856 19.751C21.2044 19.5316 21.5444 19.1818 21.7578 18.7521C22 18.263 22 17.6253 22 16.3476V8.57155M2 8.57155V7.65726C2 6.37726 2 5.73727 2.24222 5.24812C2.45556 4.81726 2.79444 4.46869 3.21333 4.24926C3.68889 4.00012 4.31111 4.00012 5.55556 4.00012H18.4444C19.6889 4.00012 20.3111 4.00012 20.7856 4.24926C21.2044 4.46869 21.5444 4.81726 21.7578 5.24812C22 5.73612 22 6.37612 22 7.65384V8.57155M2 8.57155H22M5.33333 15.4287H9.77778" stroke="#292929" stroke-width="1.5" stroke-linecap="round" stroke-linejoin="round"/>
</svg>