<svg width="149" height="20" viewBox="0 0 149 20" fill="none" xmlns="http://www.w3.org/2000/svg">
<path d="M149 -1.38283e-05C149 11.0457 140.046 20 129 20L2.6226e-06 20L8.74148e-07 -8.02285e-07L149 -1.38283e-05V-1.38283e-05Z" fill="#EB9F79"/>
<path d="M44.256 4.89273H46.4514L44.3817 13H42.1291L40.6883 8.08304L39.2475 13H36.9491L34.8794 4.89273H37.1435L38.2527 9.75252L39.682 4.89273H41.7403L43.1697 9.69534L44.256 4.89273ZM47.5807 13V4.89273H49.7648V13H47.5807ZM56.4957 13L53.6827 8.18595V13H51.5673V4.89273H54.0372L56.5643 9.29513V4.89273H58.6911V13H56.4957ZM64.3199 6.91669V13H62.1702V6.91669H59.8375V4.89273H66.6641V6.91669H64.3199ZM67.8038 13V4.89273H72.9952V6.74517H69.9306V8.02586H72.7207V9.80969H69.9306V11.1133H73.018V13H67.8038ZM74.5374 13V4.89273H77.9564C79.603 4.89273 80.6778 5.99047 80.6778 7.49986C80.6778 8.5976 80.0832 9.40947 79.1799 9.76395L80.7121 13H78.3909L77.1102 10.0613H76.6642V13H74.5374ZM77.5561 8.41465C78.1965 8.41465 78.5281 8.04873 78.5281 7.53417C78.5281 7.0196 78.1965 6.66512 77.5561 6.66512H76.6642V8.41465H77.5561ZM87.4097 6.44786C86.8723 6.44786 86.4949 6.79091 86.4949 7.19112C86.4949 7.52273 86.7008 7.7743 87.1925 7.86578L88.2102 8.06017C89.7767 8.36891 90.5772 9.29513 90.5772 10.5415C90.5772 11.8451 89.4565 13.1715 87.4898 13.1715C85.2142 13.1715 84.2651 11.7193 84.1737 10.5873L86.1176 10.2556C86.1519 10.8731 86.5978 11.4334 87.4898 11.4334C88.0729 11.4334 88.4274 11.1133 88.4274 10.7016C88.4274 10.3471 88.1873 10.0841 87.6842 9.99265L86.6779 9.79826C85.2257 9.52382 84.4024 8.63191 84.4024 7.36265C84.4024 5.84182 85.7745 4.72121 87.4212 4.72121C89.468 4.72121 90.3027 5.9333 90.4514 6.97386L88.5303 7.32834C88.4732 6.96243 88.2102 6.44786 87.4097 6.44786ZM96.3879 11.4677H93.6092L93.1176 13H90.9449L93.7922 4.89273H96.3307L99.1666 13H96.8796L96.3879 11.4677ZM94.1696 9.71821H95.839L95.0157 7.11108L94.1696 9.71821ZM100.176 13V4.89273H102.303V10.976H105.391V13H100.176ZM106.519 13V4.89273H111.71V6.74517H108.646V8.02586H111.436V9.80969H108.646V11.1133H111.733V13H106.519Z" fill="#292929"/>
</svg>
