<svg width="20" height="20" viewBox="0 0 20 20" fill="none" xmlns="http://www.w3.org/2000/svg">
<g clip-path="url(#clip0_48_7056)">
<path d="M17.7778 2.77783H2.22222C2.10815 2.77783 1.9963 2.78617 1.88667 2.80283L1.88444 3.77728L0.367778 3.77505C0.127785 4.13852 -0.000105345 4.5645 6.51086e-08 5.00005V15.0001C6.51086e-08 15.5894 0.234126 16.1547 0.650874 16.5714C1.06762 16.9882 1.63285 17.2223 2.22222 17.2223H17.7778C18.3671 17.2223 18.9324 16.9882 19.3491 16.5714C19.7659 16.1547 20 15.5894 20 15.0001V5.00005C20 4.41068 19.7659 3.84545 19.3491 3.42871C18.9324 3.01196 18.3671 2.77783 17.7778 2.77783Z" fill="#00247D"/>
<path d="M5.00016 14.4572L4.32128 15.0845L4.3885 14.1622L3.47461 14.0228L4.23739 13.5006L3.77683 12.6989L4.66072 12.97L5.00016 12.1095L5.34017 12.97L6.22405 12.6989L5.76294 13.5006L6.52628 14.0228L5.61239 14.1622L5.67961 15.0845L5.00016 14.4572ZM15.5279 5.31223L15.0841 5.72223L15.1279 5.1189L14.5296 5.02779L15.0291 4.68612L14.7279 4.16168L15.3057 4.3389L15.5279 3.77612L15.7507 4.3389L16.3291 4.16168L16.0274 4.68612L16.5263 5.02779L15.9285 5.1189L15.9724 5.72223L15.5279 5.31223ZM13.3057 8.64557L12.8618 9.05612L12.9057 8.45279L12.3074 8.36168L12.8068 8.01946L12.5057 7.49501L13.0835 7.67223L13.3057 7.10946L13.5285 7.67223L14.1068 7.49501L13.8052 8.01946L14.3041 8.36168L13.7063 8.45279L13.7502 9.05612L13.3057 8.64557ZM18.3057 7.53446L17.8618 7.94501L17.9057 7.34168L17.3074 7.25057L17.8068 6.90835L17.5057 6.3839L18.0835 6.56112L18.3057 5.99835L18.5285 6.56112L19.1068 6.3839L18.8052 6.90835L19.3041 7.25057L18.7063 7.34168L18.7502 7.94501L18.3057 7.53446ZM15.5279 15.3122L15.0841 15.7228L15.1279 15.1195L14.5296 15.0283L15.0291 14.6861L14.7279 14.1617L15.3057 14.3389L15.5279 13.7761L15.7507 14.3389L16.3291 14.1617L16.0274 14.6861L16.5263 15.0283L15.9285 15.1195L15.9724 15.7228L15.5279 15.3122ZM17.2224 8.8889L17.3857 9.22001L17.7507 9.27279L17.4868 9.53001L17.5491 9.8939L17.2224 9.72223L16.8957 9.8939L16.9579 9.53001L16.6941 9.27279L17.0591 9.22001L17.2224 8.8889Z" fill="white"/>
<path d="M10.5556 10.0001V2.77783H2.22222C2.04444 2.77783 1.88667 2.80283 1.88667 2.80283L1.88444 3.77728L0.367778 3.77505C0.367778 3.77505 0.344445 3.80783 0.297222 3.88894C0.102356 4.22681 -0.000151588 4.61002 1.68255e-07 5.00005V10.0001H10.5556Z" fill="#00247D"/>
<path d="M10.5556 2.77783H9.26056L6.66667 4.59394V2.77783H3.88889V4.20505L1.88667 2.80283C1.55268 2.85268 1.23477 2.97913 0.957778 3.17228L3.57 5.00005H2.60556L0.537222 3.55061C0.476059 3.62177 0.419464 3.69674 0.367778 3.77505L2.11833 5.00005H0V7.77783H2.15833L0 9.3145V10.0001H1.85111L3.88889 8.57339V10.0001H6.66667V8.18394L9.26 10.0001H10.5556V8.87283L8.99167 7.77783H10.5556V5.00005H8.99222L10.5556 3.90505V2.77783Z" fill="#EEEEEE"/>
<path d="M6.11111 2.77783H4.44444V5.55561H0V7.22228H4.44444V10.0001H6.11111V7.22228H10.5556V5.55561H6.11111V2.77783Z" fill="#CF1B2B"/>
<path d="M10.556 2.77783H9.74432L6.66709 4.93283V5.00005H7.53987L10.556 2.88783V2.77783ZM0.958203 3.17228C0.802473 3.27996 0.661143 3.4071 0.537648 3.55061L2.60598 5.00005H3.56987L0.958203 3.17228ZM3.57654 7.77783L0.408203 10.0001H1.36765L3.88931 8.2345V7.77783H3.57654ZM10.556 9.89005V9.21228L8.50765 7.77783H7.53931L10.556 9.89005Z" fill="#CF1B2B"/>
</g>
<defs>
<clipPath id="clip0_48_7056">
<rect width="20" height="20" fill="white"/>
</clipPath>
</defs>
</svg>
