<svg width="20" height="16" viewBox="0 0 20 16" fill="none" xmlns="http://www.w3.org/2000/svg">
<g clip-path="url(#clip0_48_7038)">
<path fill-rule="evenodd" clip-rule="evenodd" d="M0 0.5V15.5H20V0.5H0Z" fill="#2E42A5"/>
<mask id="mask0_48_7038" style="mask-type:luminance" maskUnits="userSpaceOnUse" x="0" y="0" width="20" height="16">
<path fill-rule="evenodd" clip-rule="evenodd" d="M0 0.5V15.5H20V0.5H0Z" fill="white"/>
</mask>
<g mask="url(#mask0_48_7038)">
<path d="M-2.22656 14.4281L2.17469 16.29L20.0997 2.52375L22.4216 -0.242505L17.7153 -0.86438L10.4041 5.0675L4.51906 9.065L-2.22656 14.4281Z" fill="white"/>
<path d="M-1.625 15.7325L0.618125 16.8125L21.5875 -0.49939H18.4394L-1.625 15.7325Z" fill="#F50100"/>
<path d="M22.2272 14.4281L17.826 16.29L-0.0990233 2.52375L-2.4209 -0.242505L2.28535 -0.86438L9.5966 5.0675L15.4816 9.065L22.2272 14.4281Z" fill="white"/>
<path d="M22.0773 15.3643L19.8348 16.4443L10.9061 9.03185L8.25859 8.20435L-2.64453 -0.233154H0.504219L11.4005 8.00435L14.2948 8.99685L22.0773 15.3643Z" fill="#F50100"/>
<path fill-rule="evenodd" clip-rule="evenodd" d="M12.3613 -0.75H7.63883V5.5H-1.23242V10.5H7.63883V16.75H12.3613V10.5H21.2676V5.5H12.3613V-0.75Z" fill="#F50100"/>
<mask id="mask1_48_7038" style="mask-type:luminance" maskUnits="userSpaceOnUse" x="-2" y="-1" width="24" height="18">
<path fill-rule="evenodd" clip-rule="evenodd" d="M12.3613 -0.75H7.63883V5.5H-1.23242V10.5H7.63883V16.75H12.3613V10.5H21.2676V5.5H12.3613V-0.75Z" fill="white"/>
</mask>
<g mask="url(#mask1_48_7038)">
<path d="M7.63883 -0.75V-2H6.38883V-0.75H7.63883ZM12.3613 -0.75H13.6113V-2H12.3613V-0.75ZM7.63883 5.5V6.75H8.88883V5.5H7.63883ZM-1.23242 5.5V4.25H-2.48242V5.5H-1.23242ZM-1.23242 10.5H-2.48242V11.75H-1.23242V10.5ZM7.63883 10.5H8.88883V9.25H7.63883V10.5ZM7.63883 16.75H6.38883V18H7.63883V16.75ZM12.3613 16.75V18H13.6113V16.75H12.3613ZM12.3613 10.5V9.25H11.1113V10.5H12.3613ZM21.2676 10.5V11.75H22.5176V10.5H21.2676ZM21.2676 5.5H22.5176V4.25H21.2676V5.5ZM12.3613 5.5H11.1113V6.75H12.3613V5.5ZM7.63883 0.5H12.3613V-2H7.63883V0.5ZM8.88883 5.5V-0.75H6.38883V5.5H8.88883ZM-1.23242 6.75H7.63883V4.25H-1.23242V6.75ZM0.0175781 10.5V5.5H-2.48242V10.5H0.0175781ZM7.63883 9.25H-1.23242V11.75H7.63883V9.25ZM8.88883 16.75V10.5H6.38883V16.75H8.88883ZM12.3613 15.5H7.63883V18H12.3613V15.5ZM11.1113 10.5V16.75H13.6113V10.5H11.1113ZM21.2676 9.25H12.3613V11.75H21.2676V9.25ZM20.0176 5.5V10.5H22.5176V5.5H20.0176ZM12.3613 6.75H21.2676V4.25H12.3613V6.75ZM11.1113 -0.75V5.5H13.6113V-0.75H11.1113Z" fill="white"/>
</g>
</g>
</g>
<defs>
<clipPath id="clip0_48_7038">
<rect y="0.5" width="20" height="15" rx="3" fill="white"/>
</clipPath>
</defs>
</svg>
