<svg width="20" height="20" viewBox="0 0 20 20" fill="none" xmlns="http://www.w3.org/2000/svg">
<g clip-path="url(#clip0_48_7031)">
<path d="M19.6917 3.88894C19.3067 3.22728 18.5983 2.77783 17.7778 2.77783H10V3.88894H19.6917ZM0 13.8889H20V15.0001H0V13.8889ZM10 9.4445H20V10.5556H10V9.4445ZM10 7.22228H20V8.33339H10V7.22228ZM0 11.6667H20V12.7778H0V11.6667ZM2.22222 17.2223H17.7778C18.5983 17.2223 19.3067 16.7728 19.6917 16.1112H0.308333C0.693333 16.7728 1.40167 17.2223 2.22222 17.2223ZM10 5.00005H20V6.11117H10V5.00005Z" fill="#B22334"/>
<path d="M0.0377778 15.3773C0.047037 15.4291 0.057963 15.4804 0.0705556 15.5311C0.0853704 15.5867 0.102407 15.6415 0.121667 15.6956C0.171111 15.8395 0.231111 15.9784 0.306667 16.1084L0.308333 16.1111H19.6917L19.6928 16.1089C19.7681 15.9783 19.8299 15.8404 19.8772 15.6972C19.9133 15.5928 19.9415 15.4859 19.9617 15.3773C19.9844 15.255 20 15.1295 20 15H0C0 15.1295 0.0155556 15.2545 0.0377778 15.3773ZM0 12.7778H20V13.8889H0V12.7778ZM0 10.5556V11.6667H20V10.5556H10H0ZM10 8.33336H20V9.44447H10V8.33336ZM10 6.11114H20V7.22225H10V6.11114ZM0.0711111 4.46892C0.085 4.41225 0.104444 4.35836 0.122222 4.30392C0.103053 4.35823 0.0860033 4.41327 0.0711111 4.46892ZM10 5.00003H20C20 4.87058 19.9844 4.74503 19.9617 4.62225C19.9422 4.51342 19.9138 4.40638 19.8767 4.30225C19.8292 4.15853 19.7672 4.02003 19.6917 3.88892H10V5.00003Z" fill="#EEEEEE"/>
<path d="M10 2.77783H2.22222C1.63285 2.77783 1.06762 3.01196 0.650874 3.42871C0.234126 3.84545 0 4.41068 0 5.00005L0 10.5556H10V2.77783Z" fill="#3C3B6E"/>
<path d="M1.11133 4.29225L1.45466 4.54169L1.32355 4.94447L1.66633 4.69558L2.00966 4.94447L1.87855 4.54169L2.22188 4.29225H1.79744L1.66633 3.88892L1.53577 4.29225H1.11133ZM2.22244 5.40336L2.56577 5.65281L2.43466 6.05558L2.77744 5.80669L3.12077 6.05558L2.98966 5.65281L3.33299 5.40336H2.90855L2.77744 5.00003L2.64688 5.40336H2.22244ZM4.44466 5.40336L4.788 5.65281L4.65688 6.05558L4.99966 5.80669L5.343 6.05558L5.21188 5.65281L5.55522 5.40336H5.13077L4.99966 5.00003L4.86911 5.40336H4.44466ZM6.66688 5.40336L7.01022 5.65281L6.87911 6.05558L7.22188 5.80669L7.56522 6.05558L7.43411 5.65281L7.77744 5.40336H7.353L7.22188 5.00003L7.09133 5.40336H6.66688ZM2.22244 7.62558L2.56577 7.87503L2.43466 8.2778L2.77744 8.02892L3.12077 8.2778L2.98966 7.87503L3.33299 7.62558H2.90855L2.77744 7.22225L2.64688 7.62558H2.22244ZM4.44466 7.62558L4.788 7.87503L4.65688 8.2778L4.99966 8.02892L5.343 8.2778L5.21188 7.87503L5.55522 7.62558H5.13077L4.99966 7.22225L4.86911 7.62558H4.44466ZM6.66688 7.62558L7.01022 7.87503L6.87911 8.2778L7.22188 8.02892L7.56522 8.2778L7.43411 7.87503L7.77744 7.62558H7.353L7.22188 7.22225L7.09133 7.62558H6.66688ZM3.33355 4.29225L3.67688 4.54169L3.54577 4.94447L3.88855 4.69558L4.23188 4.94447L4.10077 4.54169L4.44411 4.29225H4.01966L3.88855 3.88892L3.75799 4.29225H3.33355ZM5.55577 4.29225L5.89911 4.54169L5.76799 4.94447L6.11077 4.69558L6.45411 4.94447L6.323 4.54169L6.66633 4.29225H6.24188L6.11077 3.88892L5.98022 4.29225H5.55577ZM7.778 4.29225L8.12133 4.54169L7.99022 4.94447L8.333 4.69558L8.67633 4.94447L8.54522 4.54169L8.88855 4.29225H8.46411L8.333 3.88892L8.20244 4.29225H7.778ZM1.11133 6.51447L1.45466 6.76392L1.32355 7.16669L1.66633 6.9178L2.00966 7.16669L1.87855 6.76392L2.22188 6.51447H1.79744L1.66633 6.11114L1.53577 6.51447H1.11133ZM3.54577 7.16669L3.88855 6.9178L4.23188 7.16669L4.10077 6.76392L4.44411 6.51447H4.01966L3.88855 6.11114L3.75799 6.51447H3.33355L3.67688 6.76392L3.54577 7.16669ZM5.55577 6.51447L5.89911 6.76392L5.76799 7.16669L6.11077 6.9178L6.45411 7.16669L6.323 6.76392L6.66633 6.51447H6.24188L6.11077 6.11114L5.98022 6.51447H5.55577ZM7.778 6.51447L8.12133 6.76392L7.99022 7.16669L8.333 6.9178L8.67633 7.16669L8.54522 6.76392L8.88855 6.51447H8.46411L8.333 6.11114L8.20244 6.51447H7.778ZM1.11133 8.73669L1.45466 8.98614L1.32355 9.38892L1.66633 9.14003L2.00966 9.38892L1.87855 8.98614L2.22188 8.73669H1.79744L1.66633 8.33336L1.53577 8.73669H1.11133ZM3.54577 9.38892L3.88855 9.14003L4.23188 9.38892L4.10077 8.98614L4.44411 8.73669H4.01966L3.88855 8.33336L3.75799 8.73669H3.33355L3.67688 8.98614L3.54577 9.38892ZM5.55577 8.73669L5.89911 8.98614L5.76799 9.38892L6.11077 9.14003L6.45411 9.38892L6.323 8.98614L6.66633 8.73669H6.24188L6.11077 8.33336L5.98022 8.73669H5.55577ZM7.778 8.73669L8.12133 8.98614L7.99022 9.38892L8.333 9.14003L8.67633 9.38892L8.54522 8.98614L8.88855 8.73669H8.46411L8.333 8.33336L8.20244 8.73669H7.778Z" fill="white"/>
</g>
<defs>
<clipPath id="clip0_48_7031">
<rect width="20" height="20" fill="white"/>
</clipPath>
</defs>
</svg>
