<svg width="98" height="22" viewBox="0 0 98 22" fill="none" xmlns="http://www.w3.org/2000/svg">
<rect width="98" height="22" fill="#C64844"/>
<path d="M15.876 15H13.848L12.168 9.252H12.132L10.452 15H8.412L6 6.504H8.208L9.552 12.156H9.588L11.1 6.504H13.236L14.76 12.156H14.796L16.164 6.504H18.3L15.876 15ZM19.6607 15V6.504H21.7247V15H19.6607ZM29.361 15L25.941 9.444H25.905L25.953 15H23.961V6.504H26.301L29.709 12.048H29.745L29.697 6.504H31.689V15H29.361ZM37.5575 8.256V15H35.5055V8.256H33.1055V6.504H39.9575V8.256H37.5575ZM41.3741 15V6.504H47.0861V8.244H43.3541V9.84H46.8821V11.484H43.3541V13.248H47.3021V15H41.3741ZM53.6912 15L51.8552 11.628H51.1592V15H49.1432V6.504H52.3832C52.7912 6.504 53.1872 6.548 53.5712 6.636C53.9632 6.716 54.3112 6.856 54.6152 7.056C54.9272 7.256 55.1752 7.52 55.3592 7.848C55.5432 8.176 55.6352 8.584 55.6352 9.072C55.6352 9.648 55.4792 10.132 55.1672 10.524C54.8552 10.916 54.4232 11.196 53.8712 11.364L56.0912 15H53.6912ZM53.6072 9.108C53.6072 8.908 53.5632 8.748 53.4752 8.628C53.3952 8.5 53.2872 8.404 53.1512 8.34C53.0232 8.268 52.8752 8.22 52.7072 8.196C52.5472 8.172 52.3912 8.16 52.2392 8.16H51.1472V10.14H52.1192C52.2872 10.14 52.4592 10.128 52.6352 10.104C52.8112 10.072 52.9712 10.02 53.1152 9.948C53.2592 9.876 53.3752 9.772 53.4632 9.636C53.5592 9.5 53.6072 9.324 53.6072 9.108ZM65.5482 8.712C65.3722 8.488 65.1402 8.312 64.8522 8.184C64.5722 8.048 64.3002 7.98 64.0362 7.98C63.9002 7.98 63.7602 7.992 63.6162 8.016C63.4802 8.04 63.3562 8.088 63.2442 8.16C63.1322 8.224 63.0362 8.312 62.9562 8.424C62.8842 8.528 62.8482 8.664 62.8482 8.832C62.8482 8.976 62.8762 9.096 62.9322 9.192C62.9962 9.288 63.0842 9.372 63.1962 9.444C63.3162 9.516 63.4562 9.584 63.6162 9.648C63.7762 9.704 63.9562 9.764 64.1562 9.828C64.4442 9.924 64.7442 10.032 65.0562 10.152C65.3682 10.264 65.6522 10.416 65.9082 10.608C66.1642 10.8 66.3762 11.04 66.5442 11.328C66.7122 11.608 66.7962 11.96 66.7962 12.384C66.7962 12.872 66.7042 13.296 66.5202 13.656C66.3442 14.008 66.1042 14.3 65.8002 14.532C65.4962 14.764 65.1482 14.936 64.7562 15.048C64.3642 15.16 63.9602 15.216 63.5442 15.216C62.9362 15.216 62.3482 15.112 61.7802 14.904C61.2122 14.688 60.7402 14.384 60.3642 13.992L61.7082 12.624C61.9162 12.88 62.1882 13.096 62.5242 13.272C62.8682 13.44 63.2082 13.524 63.5442 13.524C63.6962 13.524 63.8442 13.508 63.9882 13.476C64.1322 13.444 64.2562 13.392 64.3602 13.32C64.4722 13.248 64.5602 13.152 64.6242 13.032C64.6882 12.912 64.7202 12.768 64.7202 12.6C64.7202 12.44 64.6802 12.304 64.6002 12.192C64.5202 12.08 64.4042 11.98 64.2522 11.892C64.1082 11.796 63.9242 11.712 63.7002 11.64C63.4842 11.56 63.2362 11.476 62.9562 11.388C62.6842 11.3 62.4162 11.196 62.1522 11.076C61.8962 10.956 61.6642 10.804 61.4562 10.62C61.2562 10.428 61.0922 10.2 60.9642 9.936C60.8442 9.664 60.7842 9.336 60.7842 8.952C60.7842 8.48 60.8802 8.076 61.0722 7.74C61.2642 7.404 61.5162 7.128 61.8282 6.912C62.1402 6.696 62.4922 6.54 62.8842 6.444C63.2762 6.34 63.6722 6.288 64.0722 6.288C64.5522 6.288 65.0402 6.376 65.5362 6.552C66.0402 6.728 66.4802 6.988 66.8562 7.332L65.5482 8.712ZM74.3901 15L73.7301 13.332H70.4421L69.8181 15H67.5861L71.1501 6.504H73.1421L76.6701 15H74.3901ZM72.1101 8.772L71.0301 11.688H73.1661L72.1101 8.772ZM77.8522 15V6.504H79.9162V13.212H83.2043V15H77.8522ZM84.6487 15V6.504H90.3607V8.244H86.6287V9.84H90.1567V11.484H86.6287V13.248H90.5767V15H84.6487Z" fill="white"/>
</svg>
