<svg width="148" height="22" viewBox="0 0 148 22" fill="none" xmlns="http://www.w3.org/2000/svg">
<rect width="148" height="22" fill="#C64844"/>
<path d="M12.636 15L11.976 13.332H8.688L8.064 15H5.832L9.396 6.504H11.388L14.916 15H12.636ZM10.356 8.772L9.276 11.688H11.412L10.356 8.772ZM23.0872 11.796C23.0872 12.308 22.9992 12.776 22.8232 13.2C22.6553 13.616 22.4113 13.976 22.0912 14.28C21.7712 14.576 21.3832 14.808 20.9272 14.976C20.4792 15.144 19.9792 15.228 19.4272 15.228C18.8672 15.228 18.3632 15.144 17.9152 14.976C17.4672 14.808 17.0872 14.576 16.7752 14.28C16.4632 13.976 16.2232 13.616 16.0552 13.2C15.8872 12.776 15.8032 12.308 15.8032 11.796V6.504H17.8432V11.628C17.8432 11.86 17.8712 12.08 17.9272 12.288C17.9912 12.496 18.0832 12.684 18.2032 12.852C18.3312 13.012 18.4952 13.14 18.6952 13.236C18.9032 13.332 19.1512 13.38 19.4392 13.38C19.7272 13.38 19.9712 13.332 20.1712 13.236C20.3792 13.14 20.5472 13.012 20.6752 12.852C20.8032 12.684 20.8952 12.496 20.9512 12.288C21.0072 12.08 21.0352 11.86 21.0352 11.628V6.504H23.0872V11.796ZM29.7146 8.712C29.5386 8.488 29.3066 8.312 29.0186 8.184C28.7386 8.048 28.4666 7.98 28.2026 7.98C28.0666 7.98 27.9266 7.992 27.7826 8.016C27.6466 8.04 27.5226 8.088 27.4106 8.16C27.2986 8.224 27.2026 8.312 27.1226 8.424C27.0506 8.528 27.0146 8.664 27.0146 8.832C27.0146 8.976 27.0426 9.096 27.0986 9.192C27.1626 9.288 27.2506 9.372 27.3626 9.444C27.4826 9.516 27.6226 9.584 27.7826 9.648C27.9426 9.704 28.1226 9.764 28.3226 9.828C28.6106 9.924 28.9106 10.032 29.2226 10.152C29.5346 10.264 29.8186 10.416 30.0746 10.608C30.3306 10.8 30.5426 11.04 30.7106 11.328C30.8786 11.608 30.9626 11.96 30.9626 12.384C30.9626 12.872 30.8706 13.296 30.6866 13.656C30.5106 14.008 30.2706 14.3 29.9666 14.532C29.6626 14.764 29.3146 14.936 28.9226 15.048C28.5306 15.16 28.1266 15.216 27.7106 15.216C27.1026 15.216 26.5146 15.112 25.9466 14.904C25.3786 14.688 24.9066 14.384 24.5306 13.992L25.8746 12.624C26.0826 12.88 26.3546 13.096 26.6906 13.272C27.0346 13.44 27.3746 13.524 27.7106 13.524C27.8626 13.524 28.0106 13.508 28.1546 13.476C28.2986 13.444 28.4226 13.392 28.5266 13.32C28.6386 13.248 28.7266 13.152 28.7906 13.032C28.8546 12.912 28.8866 12.768 28.8866 12.6C28.8866 12.44 28.8466 12.304 28.7666 12.192C28.6866 12.08 28.5706 11.98 28.4186 11.892C28.2746 11.796 28.0906 11.712 27.8666 11.64C27.6506 11.56 27.4026 11.476 27.1226 11.388C26.8506 11.3 26.5826 11.196 26.3186 11.076C26.0626 10.956 25.8306 10.804 25.6226 10.62C25.4226 10.428 25.2586 10.2 25.1306 9.936C25.0106 9.664 24.9506 9.336 24.9506 8.952C24.9506 8.48 25.0466 8.076 25.2386 7.74C25.4306 7.404 25.6826 7.128 25.9946 6.912C26.3066 6.696 26.6586 6.54 27.0506 6.444C27.4426 6.34 27.8386 6.288 28.2386 6.288C28.7186 6.288 29.2066 6.376 29.7026 6.552C30.2066 6.728 30.6466 6.988 31.0226 7.332L29.7146 8.712ZM36.2801 8.256V15H34.2281V8.256H31.8281V6.504H38.6801V8.256H36.2801ZM44.6448 15L42.8088 11.628H42.1128V15H40.0968V6.504H43.3368C43.7448 6.504 44.1408 6.548 44.5248 6.636C44.9168 6.716 45.2648 6.856 45.5688 7.056C45.8808 7.256 46.1288 7.52 46.3128 7.848C46.4968 8.176 46.5888 8.584 46.5888 9.072C46.5888 9.648 46.4328 10.132 46.1208 10.524C45.8088 10.916 45.3768 11.196 44.8248 11.364L47.0448 15H44.6448ZM44.5608 9.108C44.5608 8.908 44.5168 8.748 44.4288 8.628C44.3488 8.5 44.2408 8.404 44.1048 8.34C43.9768 8.268 43.8288 8.22 43.6608 8.196C43.5008 8.172 43.3448 8.16 43.1928 8.16H42.1008V10.14H43.0728C43.2408 10.14 43.4128 10.128 43.5888 10.104C43.7648 10.072 43.9248 10.02 44.0688 9.948C44.2128 9.876 44.3288 9.772 44.4168 9.636C44.5128 9.5 44.5608 9.324 44.5608 9.108ZM54.2938 15L53.6338 13.332H50.3458L49.7218 15H47.4898L51.0538 6.504H53.0458L56.5738 15H54.2938ZM52.0138 8.772L50.9338 11.688H53.0698L52.0138 8.772ZM57.756 15V6.504H59.82V13.212H63.108V15H57.756ZM64.5524 15V6.504H66.6164V15H64.5524ZM74.6127 15L73.9527 13.332H70.6647L70.0407 15H67.8087L71.3727 6.504H73.3647L76.8927 15H74.6127ZM72.3327 8.772L71.2527 11.688H73.3887L72.3327 8.772ZM89.276 10.728C89.276 11.472 89.136 12.116 88.856 12.66C88.584 13.196 88.22 13.64 87.764 13.992C87.316 14.336 86.808 14.592 86.24 14.76C85.672 14.92 85.096 15 84.512 15H81.344V6.504H84.416C85.016 6.504 85.608 6.576 86.192 6.72C86.776 6.856 87.296 7.088 87.752 7.416C88.208 7.736 88.576 8.168 88.856 8.712C89.136 9.256 89.276 9.928 89.276 10.728ZM87.14 10.728C87.14 10.248 87.06 9.852 86.9 9.54C86.748 9.22 86.54 8.968 86.276 8.784C86.02 8.592 85.724 8.456 85.388 8.376C85.06 8.296 84.72 8.256 84.368 8.256H83.348V13.224H84.32C84.688 13.224 85.04 13.184 85.376 13.104C85.72 13.016 86.02 12.876 86.276 12.684C86.54 12.492 86.748 12.236 86.9 11.916C87.06 11.596 87.14 11.2 87.14 10.728ZM96.584 15L95.924 13.332H92.636L92.012 15H89.78L93.344 6.504H95.336L98.864 15H96.584ZM94.304 8.772L93.224 11.688H95.36L94.304 8.772ZM103.459 11.4V15H101.407V11.4L98.2153 6.504H100.699L102.511 9.648L104.323 6.504H106.723L103.459 11.4ZM115.514 8.712C115.338 8.488 115.106 8.312 114.818 8.184C114.538 8.048 114.266 7.98 114.002 7.98C113.866 7.98 113.726 7.992 113.582 8.016C113.446 8.04 113.322 8.088 113.21 8.16C113.098 8.224 113.002 8.312 112.922 8.424C112.85 8.528 112.814 8.664 112.814 8.832C112.814 8.976 112.842 9.096 112.898 9.192C112.962 9.288 113.05 9.372 113.162 9.444C113.282 9.516 113.422 9.584 113.582 9.648C113.742 9.704 113.922 9.764 114.122 9.828C114.41 9.924 114.71 10.032 115.022 10.152C115.334 10.264 115.618 10.416 115.874 10.608C116.13 10.8 116.342 11.04 116.51 11.328C116.678 11.608 116.762 11.96 116.762 12.384C116.762 12.872 116.67 13.296 116.486 13.656C116.31 14.008 116.07 14.3 115.766 14.532C115.462 14.764 115.114 14.936 114.722 15.048C114.33 15.16 113.926 15.216 113.51 15.216C112.902 15.216 112.314 15.112 111.746 14.904C111.178 14.688 110.706 14.384 110.33 13.992L111.674 12.624C111.882 12.88 112.154 13.096 112.49 13.272C112.834 13.44 113.174 13.524 113.51 13.524C113.662 13.524 113.81 13.508 113.954 13.476C114.098 13.444 114.222 13.392 114.326 13.32C114.438 13.248 114.526 13.152 114.59 13.032C114.654 12.912 114.686 12.768 114.686 12.6C114.686 12.44 114.646 12.304 114.566 12.192C114.486 12.08 114.37 11.98 114.218 11.892C114.074 11.796 113.89 11.712 113.666 11.64C113.45 11.56 113.202 11.476 112.922 11.388C112.65 11.3 112.382 11.196 112.118 11.076C111.862 10.956 111.63 10.804 111.422 10.62C111.222 10.428 111.058 10.2 110.93 9.936C110.81 9.664 110.75 9.336 110.75 8.952C110.75 8.48 110.846 8.076 111.038 7.74C111.23 7.404 111.482 7.128 111.794 6.912C112.106 6.696 112.458 6.54 112.85 6.444C113.242 6.34 113.638 6.288 114.038 6.288C114.518 6.288 115.006 6.376 115.502 6.552C116.006 6.728 116.446 6.988 116.822 7.332L115.514 8.712ZM124.356 15L123.696 13.332H120.408L119.784 15H117.552L121.116 6.504H123.108L126.636 15H124.356ZM122.076 8.772L120.996 11.688H123.132L122.076 8.772ZM127.818 15V6.504H129.882V13.212H133.17V15H127.818ZM134.614 15V6.504H140.326V8.244H136.594V9.84H140.122V11.484H136.594V13.248H140.542V15H134.614Z" fill="white"/>
</svg>
