<svg width="104" height="22" viewBox="0 0 104 22" fill="none" xmlns="http://www.w3.org/2000/svg">
<rect width="104" height="22" fill="#C64844"/>
<path d="M11.364 8.712C11.188 8.488 10.956 8.312 10.668 8.184C10.388 8.048 10.116 7.98 9.852 7.98C9.716 7.98 9.576 7.992 9.432 8.016C9.296 8.04 9.172 8.088 9.06 8.16C8.948 8.224 8.852 8.312 8.772 8.424C8.7 8.528 8.664 8.664 8.664 8.832C8.664 8.976 8.692 9.096 8.748 9.192C8.812 9.288 8.9 9.372 9.012 9.444C9.132 9.516 9.272 9.584 9.432 9.648C9.592 9.704 9.772 9.764 9.972 9.828C10.26 9.924 10.56 10.032 10.872 10.152C11.184 10.264 11.468 10.416 11.724 10.608C11.98 10.8 12.192 11.04 12.36 11.328C12.528 11.608 12.612 11.96 12.612 12.384C12.612 12.872 12.52 13.296 12.336 13.656C12.16 14.008 11.92 14.3 11.616 14.532C11.312 14.764 10.964 14.936 10.572 15.048C10.18 15.16 9.776 15.216 9.36 15.216C8.752 15.216 8.164 15.112 7.596 14.904C7.028 14.688 6.556 14.384 6.18 13.992L7.524 12.624C7.732 12.88 8.004 13.096 8.34 13.272C8.684 13.44 9.024 13.524 9.36 13.524C9.512 13.524 9.66 13.508 9.804 13.476C9.948 13.444 10.072 13.392 10.176 13.32C10.288 13.248 10.376 13.152 10.44 13.032C10.504 12.912 10.536 12.768 10.536 12.6C10.536 12.44 10.496 12.304 10.416 12.192C10.336 12.08 10.22 11.98 10.068 11.892C9.924 11.796 9.74 11.712 9.516 11.64C9.3 11.56 9.052 11.476 8.772 11.388C8.5 11.3 8.232 11.196 7.968 11.076C7.712 10.956 7.48 10.804 7.272 10.62C7.072 10.428 6.908 10.2 6.78 9.936C6.66 9.664 6.6 9.336 6.6 8.952C6.6 8.48 6.696 8.076 6.888 7.74C7.08 7.404 7.332 7.128 7.644 6.912C7.956 6.696 8.308 6.54 8.7 6.444C9.092 6.34 9.488 6.288 9.888 6.288C10.368 6.288 10.856 6.376 11.352 6.552C11.856 6.728 12.296 6.988 12.672 7.332L11.364 8.712ZM21.6458 11.796C21.6458 12.308 21.5578 12.776 21.3818 13.2C21.2138 13.616 20.9698 13.976 20.6498 14.28C20.3298 14.576 19.9418 14.808 19.4858 14.976C19.0378 15.144 18.5378 15.228 17.9858 15.228C17.4258 15.228 16.9218 15.144 16.4738 14.976C16.0258 14.808 15.6458 14.576 15.3338 14.28C15.0218 13.976 14.7818 13.616 14.6138 13.2C14.4458 12.776 14.3618 12.308 14.3618 11.796V6.504H16.4018V11.628C16.4018 11.86 16.4298 12.08 16.4858 12.288C16.5498 12.496 16.6418 12.684 16.7618 12.852C16.8898 13.012 17.0538 13.14 17.2538 13.236C17.4618 13.332 17.7098 13.38 17.9978 13.38C18.2858 13.38 18.5298 13.332 18.7298 13.236C18.9378 13.14 19.1058 13.012 19.2338 12.852C19.3618 12.684 19.4538 12.496 19.5098 12.288C19.5658 12.08 19.5938 11.86 19.5938 11.628V6.504H21.6458V11.796ZM31.4892 15L31.5372 8.988H31.5012L29.2932 15H27.8532L25.7052 8.988H25.6692L25.7172 15H23.7852V6.504H26.7012L28.6332 11.952H28.6812L30.5292 6.504H33.4932V15H31.4892ZM43.4302 15L43.4782 8.988H43.4422L41.2342 15H39.7942L37.6462 8.988H37.6102L37.6582 15H35.7262V6.504H38.6422L40.5742 11.952H40.6222L42.4702 6.504H45.4342V15H43.4302ZM47.6671 15V6.504H53.3791V8.244H49.6471V9.84H53.1751V11.484H49.6471V13.248H53.5951V15H47.6671ZM59.9842 15L58.1482 11.628H57.4522V15H55.4362V6.504H58.6762C59.0842 6.504 59.4802 6.548 59.8642 6.636C60.2562 6.716 60.6042 6.856 60.9082 7.056C61.2202 7.256 61.4682 7.52 61.6522 7.848C61.8362 8.176 61.9282 8.584 61.9282 9.072C61.9282 9.648 61.7722 10.132 61.4602 10.524C61.1482 10.916 60.7162 11.196 60.1642 11.364L62.3842 15H59.9842ZM59.9002 9.108C59.9002 8.908 59.8562 8.748 59.7682 8.628C59.6882 8.5 59.5802 8.404 59.4442 8.34C59.3162 8.268 59.1682 8.22 59.0002 8.196C58.8402 8.172 58.6842 8.16 58.5322 8.16H57.4402V10.14H58.4122C58.5802 10.14 58.7522 10.128 58.9282 10.104C59.1042 10.072 59.2642 10.02 59.4082 9.948C59.5522 9.876 59.6682 9.772 59.7562 9.636C59.8522 9.5 59.9002 9.324 59.9002 9.108ZM71.8412 8.712C71.6652 8.488 71.4332 8.312 71.1452 8.184C70.8652 8.048 70.5932 7.98 70.3292 7.98C70.1932 7.98 70.0532 7.992 69.9092 8.016C69.7732 8.04 69.6492 8.088 69.5372 8.16C69.4252 8.224 69.3292 8.312 69.2492 8.424C69.1772 8.528 69.1412 8.664 69.1412 8.832C69.1412 8.976 69.1692 9.096 69.2252 9.192C69.2892 9.288 69.3772 9.372 69.4892 9.444C69.6092 9.516 69.7492 9.584 69.9092 9.648C70.0692 9.704 70.2492 9.764 70.4492 9.828C70.7372 9.924 71.0372 10.032 71.3492 10.152C71.6612 10.264 71.9452 10.416 72.2012 10.608C72.4572 10.8 72.6692 11.04 72.8372 11.328C73.0052 11.608 73.0892 11.96 73.0892 12.384C73.0892 12.872 72.9972 13.296 72.8132 13.656C72.6372 14.008 72.3972 14.3 72.0932 14.532C71.7892 14.764 71.4412 14.936 71.0492 15.048C70.6572 15.16 70.2532 15.216 69.8372 15.216C69.2292 15.216 68.6412 15.112 68.0732 14.904C67.5052 14.688 67.0332 14.384 66.6572 13.992L68.0012 12.624C68.2092 12.88 68.4812 13.096 68.8172 13.272C69.1612 13.44 69.5012 13.524 69.8372 13.524C69.9892 13.524 70.1372 13.508 70.2812 13.476C70.4252 13.444 70.5492 13.392 70.6532 13.32C70.7652 13.248 70.8532 13.152 70.9172 13.032C70.9812 12.912 71.0132 12.768 71.0132 12.6C71.0132 12.44 70.9732 12.304 70.8932 12.192C70.8132 12.08 70.6972 11.98 70.5452 11.892C70.4012 11.796 70.2172 11.712 69.9932 11.64C69.7772 11.56 69.5292 11.476 69.2492 11.388C68.9772 11.3 68.7092 11.196 68.4452 11.076C68.1892 10.956 67.9572 10.804 67.7492 10.62C67.5492 10.428 67.3852 10.2 67.2572 9.936C67.1372 9.664 67.0772 9.336 67.0772 8.952C67.0772 8.48 67.1732 8.076 67.3652 7.74C67.5572 7.404 67.8092 7.128 68.1212 6.912C68.4332 6.696 68.7852 6.54 69.1772 6.444C69.5692 6.34 69.9652 6.288 70.3652 6.288C70.8452 6.288 71.3332 6.376 71.8292 6.552C72.3332 6.728 72.7732 6.988 73.1492 7.332L71.8412 8.712ZM80.683 15L80.023 13.332H76.735L76.111 15H73.879L77.443 6.504H79.435L82.963 15H80.683ZM78.403 8.772L77.323 11.688H79.459L78.403 8.772ZM84.1452 15V6.504H86.2092V13.212H89.4972V15H84.1452ZM90.9416 15V6.504H96.6536V8.244H92.9216V9.84H96.4496V11.484H92.9216V13.248H96.8696V15H90.9416Z" fill="white"/>
</svg>
