<svg width="137" height="22" viewBox="0 0 137 22" fill="none" xmlns="http://www.w3.org/2000/svg">
<rect width="137" height="22" fill="#C64844"/>
<path d="M11.364 8.712C11.188 8.488 10.956 8.312 10.668 8.184C10.388 8.048 10.116 7.98 9.852 7.98C9.716 7.98 9.576 7.992 9.432 8.016C9.296 8.04 9.172 8.088 9.06 8.16C8.948 8.224 8.852 8.312 8.772 8.424C8.7 8.528 8.664 8.664 8.664 8.832C8.664 8.976 8.692 9.096 8.748 9.192C8.812 9.288 8.9 9.372 9.012 9.444C9.132 9.516 9.272 9.584 9.432 9.648C9.592 9.704 9.772 9.764 9.972 9.828C10.26 9.924 10.56 10.032 10.872 10.152C11.184 10.264 11.468 10.416 11.724 10.608C11.98 10.8 12.192 11.04 12.36 11.328C12.528 11.608 12.612 11.96 12.612 12.384C12.612 12.872 12.52 13.296 12.336 13.656C12.16 14.008 11.92 14.3 11.616 14.532C11.312 14.764 10.964 14.936 10.572 15.048C10.18 15.16 9.776 15.216 9.36 15.216C8.752 15.216 8.164 15.112 7.596 14.904C7.028 14.688 6.556 14.384 6.18 13.992L7.524 12.624C7.732 12.88 8.004 13.096 8.34 13.272C8.684 13.44 9.024 13.524 9.36 13.524C9.512 13.524 9.66 13.508 9.804 13.476C9.948 13.444 10.072 13.392 10.176 13.32C10.288 13.248 10.376 13.152 10.44 13.032C10.504 12.912 10.536 12.768 10.536 12.6C10.536 12.44 10.496 12.304 10.416 12.192C10.336 12.08 10.22 11.98 10.068 11.892C9.924 11.796 9.74 11.712 9.516 11.64C9.3 11.56 9.052 11.476 8.772 11.388C8.5 11.3 8.232 11.196 7.968 11.076C7.712 10.956 7.48 10.804 7.272 10.62C7.072 10.428 6.908 10.2 6.78 9.936C6.66 9.664 6.6 9.336 6.6 8.952C6.6 8.48 6.696 8.076 6.888 7.74C7.08 7.404 7.332 7.128 7.644 6.912C7.956 6.696 8.308 6.54 8.7 6.444C9.092 6.34 9.488 6.288 9.888 6.288C10.368 6.288 10.856 6.376 11.352 6.552C11.856 6.728 12.296 6.988 12.672 7.332L11.364 8.712ZM14.4458 15V6.504H20.1578V8.244H16.4258V9.84H19.9538V11.484H16.4258V13.248H20.3738V15H14.4458ZM29.9189 15L29.9669 8.988H29.9309L27.7229 15H26.2829L24.1349 8.988H24.0989L24.1469 15H22.2149V6.504H25.1309L27.0629 11.952H27.1109L28.9589 6.504H31.9229V15H29.9189ZM34.1558 15V6.504H36.2198V15H34.1558ZM38.0122 12.636V11.076H41.0602V12.636H38.0122ZM48.6102 15L47.9502 13.332H44.6622L44.0382 15H41.8062L45.3702 6.504H47.3622L50.8902 15H48.6102ZM46.3302 8.772L45.2502 11.688H47.3862L46.3302 8.772ZM57.4724 15L54.0524 9.444H54.0164L54.0644 15H52.0724V6.504H54.4124L57.8204 12.048H57.8564L57.8084 6.504H59.8004V15H57.4724ZM67.4329 15L64.0129 9.444H63.9769L64.0249 15H62.0329V6.504H64.3729L67.7809 12.048H67.8169L67.7689 6.504H69.7609V15H67.4329ZM79.1933 11.796C79.1933 12.308 79.1053 12.776 78.9293 13.2C78.7613 13.616 78.5173 13.976 78.1973 14.28C77.8773 14.576 77.4893 14.808 77.0333 14.976C76.5853 15.144 76.0853 15.228 75.5333 15.228C74.9733 15.228 74.4693 15.144 74.0213 14.976C73.5733 14.808 73.1933 14.576 72.8813 14.28C72.5693 13.976 72.3293 13.616 72.1613 13.2C71.9933 12.776 71.9093 12.308 71.9093 11.796V6.504H73.9493V11.628C73.9493 11.86 73.9773 12.08 74.0333 12.288C74.0973 12.496 74.1893 12.684 74.3093 12.852C74.4373 13.012 74.6013 13.14 74.8013 13.236C75.0093 13.332 75.2573 13.38 75.5453 13.38C75.8333 13.38 76.0773 13.332 76.2773 13.236C76.4853 13.14 76.6533 13.012 76.7813 12.852C76.9093 12.684 77.0013 12.496 77.0573 12.288C77.1133 12.08 77.1413 11.86 77.1413 11.628V6.504H79.1933V11.796ZM86.8818 15L86.2218 13.332H82.9338L82.3098 15H80.0778L83.6418 6.504H85.6338L89.1618 15H86.8818ZM84.6018 8.772L83.5218 11.688H85.6578L84.6018 8.772ZM90.344 15V6.504H92.408V13.212H95.696V15H90.344ZM104.815 8.712C104.639 8.488 104.407 8.312 104.119 8.184C103.839 8.048 103.567 7.98 103.303 7.98C103.167 7.98 103.027 7.992 102.883 8.016C102.747 8.04 102.623 8.088 102.511 8.16C102.399 8.224 102.303 8.312 102.223 8.424C102.151 8.528 102.115 8.664 102.115 8.832C102.115 8.976 102.143 9.096 102.199 9.192C102.263 9.288 102.351 9.372 102.463 9.444C102.583 9.516 102.723 9.584 102.883 9.648C103.043 9.704 103.223 9.764 103.423 9.828C103.711 9.924 104.011 10.032 104.323 10.152C104.635 10.264 104.919 10.416 105.175 10.608C105.431 10.8 105.643 11.04 105.811 11.328C105.979 11.608 106.063 11.96 106.063 12.384C106.063 12.872 105.971 13.296 105.787 13.656C105.611 14.008 105.371 14.3 105.067 14.532C104.763 14.764 104.415 14.936 104.023 15.048C103.631 15.16 103.227 15.216 102.811 15.216C102.203 15.216 101.615 15.112 101.047 14.904C100.479 14.688 100.007 14.384 99.6314 13.992L100.975 12.624C101.183 12.88 101.455 13.096 101.791 13.272C102.135 13.44 102.475 13.524 102.811 13.524C102.963 13.524 103.111 13.508 103.255 13.476C103.399 13.444 103.523 13.392 103.627 13.32C103.739 13.248 103.827 13.152 103.891 13.032C103.955 12.912 103.987 12.768 103.987 12.6C103.987 12.44 103.947 12.304 103.867 12.192C103.787 12.08 103.671 11.98 103.519 11.892C103.375 11.796 103.191 11.712 102.967 11.64C102.751 11.56 102.503 11.476 102.223 11.388C101.951 11.3 101.683 11.196 101.419 11.076C101.163 10.956 100.931 10.804 100.723 10.62C100.523 10.428 100.359 10.2 100.231 9.936C100.111 9.664 100.051 9.336 100.051 8.952C100.051 8.48 100.147 8.076 100.339 7.74C100.531 7.404 100.783 7.128 101.095 6.912C101.407 6.696 101.759 6.54 102.151 6.444C102.543 6.34 102.939 6.288 103.339 6.288C103.819 6.288 104.307 6.376 104.803 6.552C105.307 6.728 105.747 6.988 106.123 7.332L104.815 8.712ZM113.657 15L112.997 13.332H109.709L109.085 15H106.853L110.417 6.504H112.409L115.937 15H113.657ZM111.377 8.772L110.297 11.688H112.433L111.377 8.772ZM117.119 15V6.504H119.183V13.212H122.471V15H117.119ZM123.916 15V6.504H129.628V8.244H125.896V9.84H129.424V11.484H125.896V13.248H129.844V15H123.916Z" fill="white"/>
</svg>
