<svg width="260" height="34" viewBox="0 0 260 34" fill="none" xmlns="http://www.w3.org/2000/svg">
<path d="M147.046 8.42794C148.698 8.42794 150.04 7.09048 150.04 5.4376C150.04 3.78473 148.698 2.44727 147.046 2.44727C145.393 2.44727 144.051 3.78473 144.051 5.4376C144.051 7.09048 145.393 8.42794 147.046 8.42794Z" fill="#292929"/>
<path d="M63.2246 27.1605H59.1004L59.1323 25.0565C58.7969 26.0027 56.5372 27.6516 53.8463 27.6516C49.3548 27.6516 45.7217 23.6871 45.7217 18.8043C45.7217 13.9216 49.3269 9.86523 54.4891 9.86523C59.6513 9.86523 63.1966 13.8936 63.1966 18.8043V27.1645H63.2285L63.2246 27.1605ZM54.4891 13.9216C52.0777 13.9216 50.0894 16.0256 50.0894 18.8323C50.0894 21.639 52.0737 23.5913 54.4891 23.5913C56.9045 23.5913 58.8568 21.4873 58.8568 18.8323C58.8568 16.1773 56.9005 13.9216 54.4891 13.9216Z" fill="#292929"/>
<path d="M141.668 27.1605H137.3V17.1554C137.3 16.1773 136.965 13.8297 133.911 13.9216C132.17 13.9815 130.797 15.4467 130.797 17.1874V27.1645H126.461V17.1594C126.461 16.2132 126.153 13.9256 123.283 13.9256C121.327 13.9256 119.985 15.2391 119.985 17.1594V27.1645H115.617V17.4629C115.617 13.1311 118.612 9.86523 123.283 9.86523C125.602 9.86523 127.467 10.7795 128.689 12.2767C129.97 10.7835 131.895 9.86523 134.094 9.86523C138.861 9.86523 141.672 13.0073 141.672 17.4629V27.1645L141.668 27.1605Z" fill="#292929"/>
<path d="M160.025 9.89313C164.792 9.89313 167.599 13.0033 167.599 17.4588V27.1605H163.231V17.367C163.231 16.3889 162.896 13.9495 159.841 13.9495C158.101 13.9495 156.727 15.6902 156.727 17.4269V27.1884H152.36V17.4548C152.392 13.123 155.414 9.88916 160.025 9.88916V9.89313Z" fill="#292929"/>
<path d="M70.4628 33.5046V25.4798C71.2892 26.3661 73.0579 27.6477 75.5013 27.6477C79.9928 27.6477 83.566 23.6512 83.566 18.7405C83.566 13.8298 79.9608 9.86133 74.8585 9.86133C69.7561 9.86133 66.0911 13.8578 66.0911 18.7405V33.4766L70.4588 33.5086L70.4628 33.5046ZM74.8625 23.5913C72.451 23.5913 70.4628 21.4554 70.4628 18.7405C70.4628 16.0257 72.447 13.9216 74.8625 13.9216C77.2779 13.9216 79.2302 15.9977 79.2302 18.7405C79.2302 21.4833 77.2739 23.5913 74.8625 23.5913Z" fill="#292929"/>
<path d="M43.4898 27.1605H39.1221V17.3989C39.1221 16.4208 38.8147 13.9535 35.976 13.9535C34.0197 13.9535 32.6783 15.4786 32.6783 17.3989V27.1605H28.3105V3.76074H32.6783V11.9053C33.5327 10.5918 35.3372 9.89313 36.8025 9.89313C40.9586 9.89313 43.4938 12.9154 43.4938 17.367V27.1605H43.4898Z" fill="#292929"/>
<path d="M179.117 27.4961C173.647 28.0151 170.322 25.0247 170.322 20.3576V5.98877H174.689V10.3805H179.117V14.4368H174.689V20.4175C174.689 22.797 176.462 23.6833 179.117 23.5595V27.4961Z" fill="#292929"/>
<path d="M102.722 20.3855C102.782 19.8984 102.845 19.072 102.845 18.7366C102.845 13.2151 98.8131 9.85742 94.4773 9.85742C89.6504 9.85742 85.7698 13.8858 85.7698 18.7965C85.7698 23.7072 89.7702 27.6118 95.1161 27.6118C97.6193 27.6118 100.43 26.7255 101.927 25.1724L99.7873 22.0304C98.9009 22.8528 97.7711 23.5874 95.4195 23.5874C91.6027 23.5874 90.5328 21.2399 90.4409 20.3536H102.722V20.3855ZM90.3491 17.1835C90.5926 15.6584 91.9381 13.9177 94.3216 13.9177C97.0724 13.9177 98.354 15.7782 98.5057 17.2115L90.3491 17.1796V17.1835Z" fill="#292929"/>
<path d="M149.214 27.1606H144.878V10.3804H149.214V27.1606Z" fill="#292929"/>
<path d="M114.176 13.9218C111.397 13.4347 109.565 14.9 109.565 17.3074V27.1608H105.197V17.3354C105.197 12.5165 108.526 9.15884 114.176 9.86151V13.9178V13.9218Z" fill="#292929"/>
<path d="M18.505 28.1668C23.272 28.3504 25.8671 25.4838 25.8671 21.5752C25.8671 17.6666 21.7748 16.4489 19.7586 15.7782C17.3472 14.9558 15.4827 14.4966 15.4827 13.1232C15.4827 12.0253 16.4608 11.3226 18.0498 11.3226C19.6388 11.3226 21.5313 11.9934 23.4277 13.1512L23.5514 13.243L25.4439 9.82547L25.352 9.73365C23.244 8.3323 20.5571 7.50586 18.1417 7.50586C13.9855 7.50586 11.087 10.0371 11.087 13.6382C11.087 17.7585 15.2432 19.0081 17.2593 19.4952C19.7027 20.0741 21.4754 20.653 21.4754 22.1501C21.4754 23.3718 20.3455 24.4059 18.513 24.1344C15.6424 23.7392 10.572 20.4733 6.87499 20.4733C3.66906 20.4733 1.31351 21.8787 0 24.5017L3.57324 26.3302C4.00043 25.416 4.73504 24.5017 6.41586 24.5017C10.2326 24.5017 13.9296 28.0111 18.513 28.1628L18.505 28.1668Z" fill="#292929"/>
<path d="M191.765 27.556C186.694 27.556 183.057 23.6514 183.057 18.7687C183.057 13.8859 186.69 9.92139 191.765 9.92139C195.825 9.92139 198.883 12.2091 199.862 15.9939H195.25C194.671 14.864 193.326 13.8579 191.737 13.8579C189.353 13.8579 187.429 16.0857 187.429 18.8006C187.429 21.5154 189.353 23.6195 191.737 23.6195C193.326 23.6195 194.699 22.6413 195.278 21.4516H199.89C198.911 25.3242 195.857 27.552 191.765 27.552V27.556Z" fill="#882A2B"/>
<path d="M217.057 27.5561C212.354 27.5561 209.575 24.446 209.575 20.0503V10.3486H213.883V20.174C213.883 21.1202 214.219 23.376 217.061 23.376C218.958 23.376 220.331 22.0345 220.331 20.174V10.3486H224.639V20.0503C224.671 24.3222 221.644 27.5561 217.061 27.5561H217.057Z" fill="#882A2B"/>
<path d="M236.149 27.5558C231.047 27.5558 227.474 23.6512 227.474 18.7684V3.75684H231.841V11.9653C233.123 10.6238 234.772 10.013 236.76 10.013C241.219 10.013 244.793 13.9775 244.793 18.8004C244.793 23.6232 241.219 27.5558 236.149 27.5558ZM236.149 13.9815C233.766 13.9815 231.841 16.1494 231.841 18.8004C231.841 21.4513 233.766 23.5274 236.149 23.5274C238.533 23.5274 240.457 21.4833 240.457 18.8004C240.457 16.1174 238.533 13.9815 236.149 13.9815Z" fill="#882A2B"/>
<path d="M206.122 27.1605H201.786V3.76074H206.122V27.1605Z" fill="#882A2B"/>
<path d="M250.171 9.67768H246.761C245.603 9.67768 244.661 8.73945 244.661 7.57765C244.661 6.41984 245.599 5.47762 246.761 5.47762H250.171V2.10003C250.171 0.942221 251.109 0 252.271 0H252.391C253.548 0 254.491 0.938228 254.491 2.10003V5.47762H257.9C259.058 5.47762 260 6.41585 260 7.57765C260 8.73546 259.062 9.67768 257.9 9.67768H254.491V13.0553C254.491 14.2131 253.552 15.1553 252.391 15.1553H252.271C251.113 15.1553 250.171 14.2171 250.171 13.0553V9.67768Z" fill="#882A2B"/>
</svg>
