<svg xmlns="http://www.w3.org/2000/svg" fill="none" viewBox="0 0 162 28" height="28" width="162">
<path fill="#292929" d="M161.288 22.579C156.362 23.055 153.369 20.3474 153.369 16.1558V3.18066H157.295V7.13705H161.288V10.791H157.295V16.1838C157.295 18.3258 158.891 19.1266 161.288 19.009V22.579Z"></path>
<path fill="#292929" d="M144.098 6.69775C148.38 6.69775 150.908 9.51454 150.908 13.5297V22.2713H146.982V13.4401C146.982 12.5609 146.677 10.3489 143.942 10.3489C142.362 10.3489 141.125 11.9057 141.125 13.4849V22.2713H137.199V13.5297C137.202 9.63214 139.938 6.69775 144.098 6.69775Z"></path>
<path fill="#292929" d="M132.398 5.40958C133.891 5.40958 135.102 4.1986 135.102 2.70479C135.102 1.21098 133.891 0 132.398 0C130.904 0 129.693 1.21098 129.693 2.70479C129.693 4.1986 130.904 5.40958 132.398 5.40958Z"></path>
<path fill="#292929" d="M134.36 22.2711H130.434V7.13721H134.36V22.2711Z"></path>
<path fill="#292929" d="M127.565 22.2714H123.639V13.2666C123.639 12.3874 123.331 10.2706 120.598 10.3546C119.022 10.405 117.781 11.7322 117.781 13.3086V22.2686H113.856V13.2666C113.856 12.4042 113.587 10.3518 111.003 10.3518C109.247 10.3518 108.029 11.5418 108.029 13.2666V22.2714H104.103V13.5298C104.103 9.63504 106.808 6.68945 111.003 6.68945C113.083 6.68945 114.78 7.52105 115.88 8.85944C117.039 7.52105 118.764 6.68945 120.758 6.68945C125.039 6.68945 127.567 9.51464 127.567 13.5298V22.2714H127.565Z"></path>
<path fill="#292929" d="M102.793 10.3457C100.296 9.90053 98.6296 11.2389 98.6296 13.4089V22.2709H94.704V13.4089C94.704 9.06614 97.7084 6.03375 102.793 6.65815V10.3457Z"></path>
<path fill="#292929" d="M92.4953 16.1839C92.5569 15.7387 92.5989 15.0051 92.5989 14.6971C92.5989 9.72711 88.9813 6.70312 85.0753 6.70312C80.7353 6.70312 77.2241 10.3319 77.2241 14.7615C77.2241 19.1911 80.8221 22.7191 85.6297 22.7191C87.8893 22.7191 90.4289 21.9295 91.7505 20.5155L89.8381 17.6903C89.0317 18.4379 88.0265 19.0847 85.8901 19.0847C82.4601 19.0847 81.4801 16.9539 81.3989 16.1839H92.4953ZM81.3569 13.2971C81.5781 11.9139 82.7961 10.3599 84.9269 10.3599C87.3965 10.3599 88.5613 12.0399 88.7069 13.3419L81.3569 13.2971Z"></path>
<path fill="#292929" d="M63.4586 28.0002V20.7678C64.2118 21.577 65.7938 22.7166 68.003 22.7166C72.0461 22.7166 75.2577 19.1186 75.2577 14.689C75.2577 10.2874 72.0153 6.68945 67.4066 6.68945C62.767 6.68945 59.5274 10.2874 59.5274 14.689L59.5358 27.9778L63.4586 28.0002ZM67.4066 19.057C65.2366 19.057 63.453 17.125 63.453 14.6862C63.453 12.3062 65.2366 10.349 67.4066 10.349C69.5766 10.349 71.3321 12.2166 71.3321 14.6862C71.3321 17.1866 69.5766 19.057 67.4066 19.057Z"></path>
<path fill="#292929" d="M56.9269 22.2825H53.2113L53.2533 20.3729C52.9425 21.2185 50.9041 22.7137 48.5017 22.7137C44.4586 22.7137 41.1994 19.1465 41.1994 14.7449C41.1994 10.3153 44.4418 6.68652 49.0785 6.68652C53.6873 6.68652 56.9297 10.3153 56.9297 14.7449V22.2825H56.9269ZM49.0757 10.3517C46.9057 10.3517 45.1222 12.2501 45.1222 14.7785C45.1222 17.2173 46.9057 19.0597 49.0757 19.0597C51.2457 19.0597 53.0013 17.1585 53.0013 14.7785C53.0013 12.3397 51.2485 10.3517 49.0757 10.3517Z"></path>
<path fill="#292929" d="M39.1637 22.2796H35.2381V13.468C35.2381 12.5776 34.9553 10.3712 32.4073 10.3712C30.6601 10.3712 29.4281 11.7488 29.4281 13.468V22.2796H25.5025V1.19287H29.4281V8.54004C30.1981 7.35845 31.8193 6.72285 33.1465 6.72285C36.8817 6.72285 39.1665 9.43884 39.1665 13.468V22.2796H39.1637Z"></path>
<path fill="#292929" d="M16.6683 23.198C20.9551 23.3548 23.2903 20.776 23.2903 17.2564C23.2903 13.7452 19.5915 12.6308 17.7799 12.0204C15.5987 11.2868 13.9411 10.8584 13.9411 9.63204C13.9411 8.63245 14.8259 8.01085 16.2483 8.01085C17.6259 8.01085 19.3955 8.60725 21.1007 9.64884L21.2211 9.72164L22.9375 6.63606L22.8311 6.56606C20.9299 5.30606 18.5079 4.55566 16.3463 4.55566C12.6083 4.55566 9.99876 6.83486 9.99876 10.0968C9.99876 13.7956 13.7451 14.9436 15.5427 15.3636C17.7351 15.8788 19.3479 16.4024 19.3479 17.7548C19.3479 18.8524 18.3175 19.7904 16.6655 19.5524C14.0895 19.1828 9.50596 16.2484 6.19077 16.2484C3.29559 16.2456 1.1788 17.5196 0 19.8884L3.21999 21.5404C3.61758 20.7172 4.27278 19.88 5.78198 19.88C9.22316 19.8828 12.5327 23.044 16.6683 23.198Z"></path>
</svg>
