<svg xmlns="http://www.w3.org/2000/svg" width="100%" height="100%" viewBox="0 0 40 41" testId="" id="beauty_products">
<title>Beauty Products</title>
<path d="M29.1473 15.112C29.1473 15.112 29.9175 28.0768 30.0041 30.0645C30.0907 32.0521 31.5586 32.0521 31.5586 32.0521H35.2288C36.6109 32.0521 36.7404 29.8658 36.7404 29.8658C36.7404 29.8658 37.9063 8.30339 37.9929 7.45857C38.0796 6.61375 37.3452 6.5144 37.3452 6.5144H29.5296C28.5799 6.5144 28.7524 7.7566 28.7524 7.7566L29.0496 13.1371L29.1481 15.112H29.1473Z" stroke="#9AB898" stroke-width="0.7" stroke-linecap="round" stroke-linejoin="round"/>
<path d="M28.8376 8.57202H37.8056" stroke="#9AB898" stroke-width="0.7" stroke-linecap="round" stroke-linejoin="round"/>
<path d="M31.6693 32.2135V36.2342C31.6693 36.2342 31.6232 37.1442 32.3615 37.1442H34.4422C34.4422 37.1442 35.07 37.1116 35.07 36.2811V32.0514" stroke="#9AB898" stroke-width="0.7" stroke-linecap="round" stroke-linejoin="round"/>
<path d="M26.3343 20.0807V17.9802C26.3343 17.9802 26.4329 16.5552 24.8497 16.5552H20.3904C20.3904 16.5552 19.0441 16.606 19.0441 17.9055V20.3334" stroke="#457A41" stroke-width="0.7" stroke-linecap="round" stroke-linejoin="round"/>
<path d="M25.2177 16.5075V15.5784C25.2177 15.5784 25.2861 14.1455 24.1885 14.1455H21.0953C21.0953 14.1455 20.1615 14.1972 20.1615 15.5037V16.5568" stroke="#457A41" stroke-width="0.7" stroke-linecap="round" stroke-linejoin="round"/>
<path d="M18.7291 26.7487V20.4272H26.6321" stroke="#457A41" stroke-width="0.7" stroke-linecap="round" stroke-linejoin="round"/>
<path d="M26.6536 20.4473V34.4889C26.6536 36.8915 25.1905 36.986 25.1905 36.986H20.3425C18.5805 36.986 18.7292 34.3514 18.7292 34.3514V26.3268" stroke="#457A41" stroke-width="0.7" stroke-linecap="round" stroke-linejoin="round"/>
<path d="M21.3504 13.9954V12.3765C21.3504 12.3765 21.2455 11.2408 22.1285 10.9889C23.0114 10.7369 24.314 10.3292 24.314 10.3292C24.314 10.3292 24.9252 10.7989 24.3991 11.2829C23.8738 11.7661 23.7474 11.7033 23.7474 12.1238C23.7474 12.5442 24.2099 12.5863 24.2099 12.9646V14.0161" stroke="#457A41" stroke-width="0.7" stroke-linecap="round" stroke-linejoin="round"/>
<path d="M3.22777 13.2015C3.22777 13.2015 4.57567 28.1985 4.72747 30.4977C4.87847 32.7969 7.4487 32.7969 7.4487 32.7969H13.8735C16.2919 32.7969 16.5192 30.268 16.5192 30.268C16.5192 30.268 18.5601 5.32472 18.7111 4.34797C18.8621 3.37122 17.577 3.25598 17.577 3.25598H3.89537C2.23275 3.25519 2.53475 4.6921 2.53475 4.6921L3.01796 11.0128L3.22777 13.2015Z" stroke="#9AB898" stroke-width="0.7" stroke-linecap="round" stroke-linejoin="round"/>
<path d="M2.68481 5.63623H18.3835" stroke="#9AB898" stroke-width="0.7" stroke-linecap="round" stroke-linejoin="round"/>
<path d="M5.34158 32.316V36.0585C5.34158 36.0585 5.19932 37.1116 7.49059 37.1116H13.9471C13.9471 37.1116 15.8959 37.0734 15.8959 36.1134V32.1293" stroke="#9AB898" stroke-width="0.7" stroke-linecap="round" stroke-linejoin="round"/>
<path d="M8.44128 36.9486C8.44128 36.9486 8.91098 35.6254 10.6181 35.6254C12.3252 35.6254 12.7949 36.9486 12.7949 36.9486" stroke="#9AB898" stroke-width="0.7" stroke-linecap="round" stroke-linejoin="round"/>
</svg>