<svg xmlns="http://www.w3.org/2000/svg" width="100%" height="100%" viewBox="0 0 26 28" id="calendar">
    <title>Calendar</title>
    <path
        d="M7.58333 12.8705H9.75V15.1291H7.58333V12.8705ZM22.75 7.22384V23.0344C22.75 24.2766 21.775 25.293 20.5833 25.293H5.41667C4.21417 25.293 3.25 24.2766 3.25 23.0344L3.26083 7.22384C3.26083 5.98158 4.21417 4.96519 5.41667 4.96519H6.5V2.70654H8.66667V4.96519H17.3333V2.70654H19.5V4.96519H20.5833C21.775 4.96519 22.75 5.98158 22.75 7.22384ZM5.41667 9.48249H20.5833V7.22384H5.41667V9.48249ZM20.5833 23.0344V11.7411H5.41667V23.0344H20.5833ZM16.25 15.1291H18.4167V12.8705H16.25V15.1291ZM11.9167 15.1291H14.0833V12.8705H11.9167V15.1291Z"
        fill="currentColor" />
</svg>