<svg xmlns="http://www.w3.org/2000/svg" width="100%" height="100%" viewBox="0 0 36 36" fill="none" id="cart">
    <g id="Large / Navigation / Cart">
        <path id="Vector"
            d="M8.84273 22.7568C9.36814 23.015 9.92745 23.1399 10.5122 23.1399C16.5798 23.1399 22.639 23.1483 28.7066 23.1316C30.7066 23.1233 32.3421 21.5573 32.376 19.5914C32.4184 17.0508 32.393 14.5185 32.3845 11.9779C32.3845 11.4948 32.0625 11.1449 31.5625 11.07C29.9862 10.8534 28.4015 10.6451 26.8253 10.4286C24.4271 10.1037 22.0288 9.77884 19.6391 9.45398C17.0713 9.10412 14.5036 8.75427 11.9443 8.40441C10.8427 8.25448 9.74101 8.10454 8.61392 7.9546C8.61392 7.82132 8.61392 7.70471 8.61392 7.59642C8.61392 6.73011 8.61392 5.87214 8.61392 5.00583C8.61392 4.34777 8.46986 4.13952 7.84276 3.8813C7.41056 3.69804 6.9699 3.52311 6.5377 3.34819C5.35977 2.84839 4.18183 2.35693 2.99542 1.85714C2.96153 1.84048 2.92763 1.83215 2.89373 1.82382C2.73272 1.78217 2.52086 1.7905 2.309 1.88213C2.06324 1.98209 1.78359 2.28196 1.80054 2.75677C1.81749 3.24823 2.14799 3.48146 2.57171 3.65639C3.85981 4.18117 5.14791 4.73094 6.43601 5.2474C6.64787 5.33069 6.78346 5.53894 6.78346 5.76385C6.77499 12.1612 6.77499 18.5502 6.77499 24.9475C6.77499 25.0558 6.77499 25.1641 6.78346 25.2724C6.91058 26.7301 7.64784 27.788 9.00374 28.4044C9.31729 28.546 9.65627 28.6293 9.98677 28.7293C8.92747 30.7201 9.74949 32.4527 10.7918 33.3274C12.0376 34.3603 13.8172 34.4769 15.1815 33.6023C15.851 33.1691 16.3425 32.5777 16.6222 31.8363C17.0205 30.7868 16.8934 29.7705 16.3849 28.7793H24.5457C24.2322 29.3457 24.0627 29.9205 24.0627 30.5285C24.0796 32.0779 24.8169 33.2024 26.2236 33.8688C27.5372 34.4852 29.1388 34.2187 30.2066 33.2524C31.3167 32.2445 31.7065 30.7451 31.215 29.3873C30.6642 27.8546 29.2998 26.9467 27.5372 26.9384C21.978 26.9384 16.4103 26.9384 10.8512 26.9384C10.6986 26.9384 10.5545 26.9384 10.402 26.93C9.44441 26.8801 8.66477 26.2137 8.60545 25.2724C8.54613 24.4144 8.59697 23.5481 8.59697 22.6651C8.70714 22.7068 8.77493 22.7235 8.84273 22.7568ZM27.8338 28.7459C28.8507 28.7793 29.6473 29.6039 29.6303 30.5952C29.6134 31.6031 28.7575 32.4028 27.7321 32.3778C26.7236 32.3528 25.8931 31.5198 25.9101 30.5452C25.927 29.529 26.7999 28.7126 27.8338 28.7459ZM13.2409 28.7459C14.2748 28.7709 15.0799 29.5956 15.0544 30.6118C15.029 31.6281 14.1816 32.4194 13.1562 32.3861C12.1393 32.3528 11.3427 31.5364 11.3596 30.5369C11.3681 29.5206 12.2155 28.721 13.2409 28.7459ZM8.60545 9.93711C8.60545 9.89546 8.61392 9.85381 8.6224 9.77051C9.56305 9.89546 10.4783 10.0204 11.385 10.1454C13.8002 10.4702 16.2239 10.8034 18.6391 11.1283C21.1983 11.4781 23.7491 11.8197 26.3084 12.1612C27.6304 12.3444 28.9608 12.5194 30.2829 12.7026C30.4269 12.7193 30.554 12.7276 30.554 12.9275C30.5456 15.1266 30.571 17.334 30.5286 19.5331C30.5032 20.641 29.6981 21.324 28.5541 21.349C28.1982 21.3574 27.8507 21.349 27.4948 21.349C21.9102 21.349 16.3256 21.349 10.7495 21.349C9.90202 21.349 9.20713 21.0741 8.81731 20.2995C8.69019 20.0412 8.61392 19.733 8.61392 19.4498C8.60545 16.2845 8.60545 13.1108 8.60545 9.93711Z"
            fill="currentColor" />
    </g>
</svg>