<svg xmlns="http://www.w3.org/2000/svg" width="100%" height="100%" viewBox="0 0 68 60" id="community">
  <title>Community</title>
  <path xmlns="http://www.w3.org/2000/svg"
    d="M66.6849 15.3168L66.5676 14.7516C66.3684 13.9024 66.1021 13.0703 65.7713 12.2632L65.6859 12.0464L64.4595 9.62202C63.3674 7.9379 62.052 6.40962 60.5492 5.07895L59.1273 3.98051C57.2262 2.72811 55.1245 1.81073 52.9135 1.26818L52.6149 1.22197L50.8375 0.926925L50.6882 0.909145C47.7424 0.720098 44.7969 1.28278 42.1282 2.54436C40.0507 3.53582 38.1516 4.86432 36.508 6.47599C36.0637 6.90968 35.6264 7.34692 35.1856 7.78772C34.7448 8.22852 34.2827 8.69064 33.8277 9.13855L33.7992 9.17411C33.7397 9.28797 33.6525 9.38505 33.5456 9.45647C33.4388 9.52789 33.3158 9.57136 33.1878 9.5829C33.0683 9.58658 32.9497 9.56135 32.842 9.50937C32.7343 9.45738 32.6407 9.38018 32.5693 9.28431C32.0833 8.88659 31.6326 8.44772 31.222 7.97258C30.8452 7.64553 30.4612 7.28293 30.0951 6.93101L29.9885 6.83147C29.1831 6.00737 28.2998 5.2633 27.3508 4.60971L26.8282 4.25423L26.391 3.95563L24.7344 3.09181C22.7926 2.2912 20.7336 1.81098 18.6379 1.66988C17.2342 1.65347 15.8315 1.74975 14.4433 1.95782C12.5363 2.40195 10.7082 3.13436 9.02217 4.12981C5.62863 6.22586 3.08505 9.4538 1.84071 13.2434C0.596375 17.033 0.731345 21.1405 2.2218 24.8402L2.27513 24.9824C2.35486 25.2187 2.45106 25.4492 2.56305 25.672C3.42742 27.3586 4.5261 28.9145 5.82639 30.2933C6.24941 30.7376 6.73996 31.2211 7.36917 31.8183L9.72246 34.0294C10.7889 35.0318 11.8553 36.0307 12.9218 37.0225C13.0857 37.1577 13.1936 37.3489 13.2245 37.5591C13.2554 37.7693 13.207 37.9835 13.0889 38.1601C12.6247 39.0568 12.381 40.0511 12.3779 41.0608V41.1248C12.3774 41.508 12.4288 41.8895 12.5308 42.2588C12.8585 43.5672 13.6506 44.7118 14.7596 45.4795C15.0534 45.6686 15.3585 45.8396 15.6732 45.9914L15.7088 46.0091L15.9043 46.1087L16.0678 46.194C16.1396 46.2058 16.2091 46.2286 16.274 46.2615L16.5903 46.3326C16.8735 46.4038 17.1627 46.4478 17.4542 46.4641C18.2896 46.4961 18.4247 47.0329 18.4424 47.2604V47.4097C18.4499 47.6022 18.4737 47.7936 18.5135 47.9821C18.8223 49.4739 19.6912 50.7906 20.9414 51.6613L21.1121 51.7786C21.7758 52.1917 22.5095 52.4796 23.277 52.6282C23.4974 52.6744 23.7213 52.7135 23.9453 52.7526H24.0519C24.2099 52.75 24.3646 52.7987 24.4927 52.8913C24.5953 52.9782 24.6764 53.0875 24.7301 53.2107C24.7837 53.334 24.8083 53.4679 24.802 53.6022C24.8668 54.8145 25.3177 55.9742 26.0889 56.9118C26.9064 57.8891 28.0047 58.5915 29.2349 58.9238C29.3842 58.9664 29.537 59.0091 29.697 59.0482L30.1058 59.1015C31.115 59.1742 32.1271 59.0066 33.0589 58.6124C33.9908 58.2181 34.8159 57.6085 35.4665 56.8336C36.2059 56.016 36.995 55.2481 37.7557 54.5051L37.9797 54.2847C38.257 54.011 38.5378 53.7373 38.8151 53.4565L39.2132 53.0619L39.59 53.4778C39.7607 53.6662 39.9455 53.8333 40.1126 54.0252C41.2143 55.1237 42.633 55.8486 44.1687 56.0977C46.3833 56.183 48.118 55.4223 49.444 53.7658C50.1576 52.8986 50.5903 51.8348 50.6846 50.7157C50.7379 50.0047 51.097 49.6813 51.8115 49.6493C54.6554 49.4964 57.1224 47.0436 57.3392 44.1784V44.0931C57.3266 43.966 57.3418 43.8378 57.3836 43.7172C57.4255 43.5965 57.493 43.4865 57.5816 43.3945C57.6702 43.3026 57.7777 43.2309 57.8966 43.1846C58.0156 43.1383 58.1432 43.1184 58.2706 43.1262C59.0252 43.0884 59.7649 42.9022 60.4474 42.5783C61.13 42.2544 61.742 41.7992 62.2485 41.2386C62.8122 40.6292 63.2462 39.9117 63.5242 39.1295C63.8023 38.3473 63.9185 37.5168 63.8659 36.6884C63.8501 36.499 63.8193 36.3112 63.7735 36.1267L63.6171 35.5331C63.3979 34.693 63.0029 33.9091 62.4582 33.2331C62.2726 33.0121 62.0718 32.8042 61.8574 32.611C61.7431 32.5267 61.6468 32.4203 61.5742 32.2982C61.5015 32.1761 61.454 32.0408 61.4344 31.9001C61.4374 31.7508 61.4705 31.6037 61.5315 31.4676C61.5926 31.3314 61.6805 31.2089 61.7899 31.1073C64.0071 28.8033 65.616 25.9838 66.4716 22.9028C66.6244 22.3412 66.7524 21.7475 66.859 21.2356C66.9806 20.6834 67.0414 20.1196 67.0403 19.5542V18.765C67.0429 17.6063 66.9238 16.4506 66.6849 15.3168ZM14.6068 34.719C13.8958 34.0081 13.1422 33.2971 12.4206 32.5861L11.8944 32.0849C11.5271 31.7389 11.1634 31.3905 10.8031 31.0398L9.38121 29.7138C7.97705 28.5088 6.40579 26.998 5.43177 24.9646C5.35711 24.8082 5.27538 24.6589 5.19718 24.506C4.85408 23.8848 4.60037 23.2182 4.44356 22.526C3.87312 20.7535 3.6793 18.8813 3.87458 17.0296C4.06986 15.1778 4.64991 13.3872 5.57753 11.7727C6.80085 9.43815 8.71188 7.53581 11.052 6.32314C13.4657 4.90121 16.1673 4.3431 19.2991 4.63104C20.1195 4.6856 20.9284 4.8543 21.7022 5.13227C22.4239 5.28322 23.1165 5.54971 23.7533 5.92144C24.9976 6.43977 26.1362 7.18199 27.1126 8.11122C27.5961 8.54846 28.0582 9.01414 28.5025 9.46205L28.7088 9.66821L29.1246 10.0841C29.6159 10.4835 30.0704 10.9261 30.4826 11.4065C31.9792 12.7716 33.4757 14.2255 35.0434 15.8358L37.3078 18.0149C38.225 18.8965 39.1208 19.7603 39.9917 20.6242C40.4508 21.0515 40.7452 21.6265 40.8236 22.2487C40.8363 22.2869 40.8458 22.3262 40.852 22.366C41.0054 22.9384 41.0005 23.5417 40.8377 24.1114C40.675 24.6812 40.3604 25.196 39.9277 25.6009C39.5254 26.0472 39.0108 26.3776 38.4375 26.5577C37.8643 26.7377 37.2533 26.7608 36.668 26.6247H36.6218C35.8825 26.538 35.1995 26.1871 34.6986 25.6365C34.1547 25.1104 33.4402 24.4136 32.7435 23.6813C32.3287 23.2598 31.8485 22.9081 31.3215 22.6398C30.611 22.4292 29.8608 22.389 29.1318 22.5224C28.3591 22.7841 27.6664 23.2394 27.1197 23.8448C25.4608 25.5156 23.8019 27.1816 22.143 28.8429L20.49 30.4959C19.0681 31.9178 17.6817 33.3078 16.2775 34.7226C16.1769 34.8467 16.0517 34.9487 15.9098 35.0221C15.7678 35.0955 15.6123 35.1388 15.4528 35.1492C15.29 35.1385 15.1311 35.0948 14.9857 35.0209C14.8403 34.947 14.7113 34.8443 14.6068 34.719ZM47.0552 52.1128C46.742 52.4729 46.3569 52.7635 45.9247 52.9659C45.5171 53.151 45.0749 53.248 44.6272 53.2503C43.9826 53.2538 43.3558 53.0382 42.8498 52.6389C41.7324 51.7149 40.6998 50.693 39.7642 49.5853C39.6706 49.4685 39.5984 49.3361 39.5509 49.1942C39.5509 49.1551 39.5296 49.1303 39.5189 49.1089C39.2129 48.5134 39.1119 47.8337 39.2314 47.1749C39.351 46.5162 39.6844 45.9152 40.1801 45.4652C40.6481 44.9912 41.2606 44.6864 41.9209 44.5989C42.5813 44.5113 43.252 44.646 43.8274 44.9818C44.2842 45.1973 44.6855 45.5147 45.0005 45.9096C45.1071 46.0269 45.2138 46.1442 45.3275 46.2651C46.0029 46.9014 46.5397 47.4382 47.0161 47.9643C47.5353 48.5279 47.827 49.264 47.8349 50.0303C47.8428 50.7966 47.5663 51.5386 47.0587 52.1128H47.0552ZM53.4823 45.8705C53.1831 46.1711 52.8297 46.4123 52.4407 46.5815C52.061 46.7395 51.654 46.8216 51.2428 46.8232C50.4859 46.8227 49.7576 46.5342 49.2058 46.0162C48.4735 45.3337 47.7839 44.6121 47.0943 43.9118L46.1984 42.9946C45.6665 42.5374 45.1698 42.0407 44.7125 41.5087L44.4175 41.2243L44.1615 40.9826C43.8061 40.6271 43.4506 40.2965 43.0951 39.9162C42.5414 39.3265 42.237 38.5456 42.2457 37.7367C42.2543 36.9278 42.5752 36.1535 43.1413 35.5757C43.4108 35.2766 43.7366 35.0334 44.1001 34.8603C44.4636 34.6871 44.8577 34.5872 45.2598 34.5664C45.6619 34.5456 46.0641 34.6043 46.4436 34.7391C46.823 34.8738 47.1721 35.082 47.4711 35.3518C47.8941 35.7286 48.2745 36.1232 48.6868 36.564L48.8219 36.7062L49.1987 37.0936C49.7265 37.5431 50.2174 38.034 50.6668 38.5618L50.706 38.5973L51.5555 39.4256C52.2167 40.0655 52.9775 40.7906 53.66 41.5336C54.2066 42.1346 54.4944 42.9268 54.4612 43.7385C54.4279 44.5503 54.0762 45.3162 53.4823 45.8705ZM60.0444 39.3474C59.748 39.6497 59.3954 39.8912 59.0065 40.0584C58.6221 40.2175 58.2103 40.2996 57.7943 40.3001C57.0394 40.3031 56.3116 40.0198 55.7574 39.5074C55.0464 38.8319 54.3354 38.1139 53.6458 37.4171L53.2619 37.0225C53.0592 36.8128 52.8531 36.6031 52.6469 36.3969L52.4905 36.2583C51.9807 35.8826 51.5866 35.3715 51.3529 34.783C51.0802 34.2326 50.989 33.6098 51.0925 33.0043C51.196 32.3988 51.4888 31.8417 51.9288 31.413C52.3308 30.9386 52.8717 30.6023 53.4751 30.4518C54.0785 30.3013 54.7139 30.344 55.2917 30.5741C56.0453 30.7625 56.5501 31.3384 56.9589 31.797C57.0122 31.8609 57.0726 31.9249 57.1295 31.9889L57.5667 32.419L58.0431 32.8847L58.1213 32.9594C58.8074 33.6277 59.5183 34.3138 60.1831 35.0247C60.7375 35.6172 61.0343 36.4055 61.0083 37.2165C60.9823 38.0275 60.6357 38.7951 60.0444 39.3509V39.3474ZM63.0198 24.1506C62.9742 24.2587 62.9144 24.3603 62.8421 24.4527L62.8172 24.4847C62.348 25.9315 61.4628 27.0975 60.5208 28.267L60.3822 28.4234C59.5112 29.401 59.1167 29.7565 57.9898 28.7789C57.8627 28.6664 57.7258 28.5653 57.581 28.4768C55.6116 27.3215 53.6707 27.1899 51.6906 28.0786C51.0028 28.377 50.3825 28.8114 49.8669 29.3557C49.3513 29.9 48.9511 30.543 48.6904 31.246C48.6408 31.4108 48.5591 31.5642 48.4499 31.6972C48.3407 31.8302 48.2061 31.9403 48.054 32.0209C47.8948 32.0777 47.7256 32.1013 47.5569 32.0903C47.3882 32.0793 47.2235 32.0339 47.0729 31.9569C46.8349 31.8749 46.5898 31.8154 46.3406 31.7792L45.9852 31.7081C45.0942 31.6928 44.2061 31.8127 43.351 32.0636C42.5364 32.3969 41.7967 32.8897 41.1752 33.513C40.5538 34.1363 40.0632 34.8775 39.7322 35.693C39.4819 36.5543 39.362 37.4482 39.3768 38.3449C39.5058 39.3094 39.8416 40.2347 40.3614 41.0573C40.4411 41.1528 40.4944 41.2675 40.5159 41.3901C40.5374 41.5126 40.5264 41.6386 40.484 41.7556C40.4415 41.8725 40.3691 41.9763 40.274 42.0565C40.1789 42.1367 40.0644 42.1905 39.942 42.2126C39.9279 42.2157 39.9134 42.2157 39.8993 42.2126C37.3647 43.5065 36.1703 45.5719 36.3445 48.3517C36.3922 48.8189 36.4923 49.2792 36.6431 49.7239C36.6751 49.827 36.7035 49.9301 36.732 50.0332C37.1408 50.5593 37.0874 51.1316 36.5364 51.6471C35.6477 52.5038 34.759 53.4245 33.9699 54.1959L33.4473 54.7149L32.9319 55.2374C32.6639 55.5321 32.3382 55.7685 31.9749 55.9318C31.6116 56.0951 31.2186 56.1818 30.8203 56.1866H30.6675C30.0778 56.2014 29.4971 56.0403 28.9995 55.7237C28.5018 55.4072 28.1098 54.9495 27.8733 54.4092C27.6192 53.8526 27.5402 53.2319 27.6469 52.6294C27.7535 52.027 28.0408 51.4711 28.4706 51.0357C29.2704 50.2109 30.0809 49.404 30.8452 48.6468C31.0798 48.4157 31.3109 48.1811 31.5562 47.9358L31.9116 47.5804C32.8039 46.6845 32.8394 46.0909 32.0645 45.1524C31.6521 44.868 31.1829 44.8183 30.4648 44.9782C30.1093 45.3337 29.7716 45.6679 29.4303 46.0162L29.1709 46.2757C28.2821 47.1609 27.365 48.078 26.4514 48.9667C25.882 49.5414 25.1076 49.8663 24.2986 49.8699C23.4896 49.8736 22.7123 49.5557 22.1377 48.9863C21.563 48.4168 21.2381 47.6424 21.2345 46.8334C21.2308 46.0245 21.5487 45.2472 22.1181 44.6725C23.2805 43.4603 24.4359 42.3015 25.5556 41.2315C26.2666 40.556 26.423 39.9304 26.0675 39.1448C25.7802 38.775 25.3612 38.5305 24.898 38.4622C24.6503 38.4795 24.4085 38.5456 24.1864 38.6566C23.9644 38.7676 23.7665 38.9214 23.604 39.1092C22.6798 40.0512 21.2934 41.459 19.8821 42.8169C19.4131 43.2739 18.7957 43.5476 18.1421 43.5884C17.4885 43.6291 16.8419 43.4341 16.3198 43.0389C15.7976 42.6436 15.4345 42.0742 15.2963 41.4341C15.1581 40.794 15.254 40.1255 15.5666 39.55C15.7131 39.3018 15.8911 39.0736 16.0962 38.8711L20.7175 34.2498C23.5613 31.4059 26.4052 28.5621 29.249 25.7182C30.0133 24.9539 30.6035 25.5298 30.8239 25.7467C31.0443 25.9635 31.2469 26.1697 31.4531 26.383L31.6237 26.5607C32.3124 27.3259 33.0771 28.019 33.9059 28.6296C34.5331 28.9513 35.1904 29.2109 35.8682 29.4046L35.9748 29.4366C36.9287 29.575 37.8995 29.5461 38.8435 29.3513C40.4303 28.9938 41.8213 28.0454 42.7339 26.699C43.6464 25.3526 44.012 23.7093 43.7563 22.103C43.7341 21.9713 43.7211 21.8383 43.7172 21.7048V21.616C43.7061 21.5845 43.6966 21.5524 43.6888 21.52C43.4767 20.8349 43.2018 20.1709 42.8676 19.5364C42.146 18.6417 41.3505 17.8093 40.4894 17.048L40.2903 16.8596C39.91 16.5041 39.5225 16.1487 39.1493 15.7541C39.0604 15.6652 38.9751 15.5728 38.8862 15.4804L38.6302 15.2066C38.0951 14.757 37.5937 14.2687 37.1301 13.7456L36.5791 13.2266C36.3374 12.9991 36.0956 12.768 35.8433 12.5476C35.7409 12.4726 35.656 12.3762 35.5946 12.2651C35.5332 12.154 35.4968 12.0308 35.4878 11.9042C35.4932 11.7787 35.5248 11.6556 35.5805 11.543C35.6362 11.4304 35.7148 11.3306 35.8113 11.2501C36.3267 10.7595 36.8351 10.2405 37.3221 9.73931L37.386 9.67177C38.2881 8.70659 39.2549 7.80396 40.2797 6.97012C41.922 5.65209 43.8526 4.74098 45.914 4.31111C46.9505 4.00034 48.0328 3.87047 49.1134 3.92719C51.778 3.81739 54.4161 4.4936 56.6994 5.87168C57.3438 6.19525 57.9416 6.60418 58.4768 7.08742C60.2419 8.41668 61.6461 10.1667 62.5613 12.1779C62.9557 12.8273 63.2369 13.5389 63.3931 14.2824C64.4344 17.5143 64.3022 21.01 63.0198 24.1541V24.1506Z"
    fill="currentColor" />
</svg>