<svg xmlns="http://www.w3.org/2000/svg" width="100%" height="100%" viewBox="0 0 40 40" fill="none" testId="" id="contact" >
<title>Contact</title>
<path d="M10.9 8.33346C11 9.81679 11.25 11.2668 11.65 12.6501L9.65 14.6501C8.96667 12.6501 8.53333 10.5335 8.38333 8.33346H10.9ZM27.3333 28.3668C28.75 28.7668 30.2 29.0168 31.6667 29.1168V31.6001C29.4667 31.4501 27.35 31.0168 25.3333 30.3501L27.3333 28.3668ZM12.5 5.00012H6.66667C5.75 5.00012 5 5.75012 5 6.66679C5 22.3168 17.6833 35.0001 33.3333 35.0001C34.25 35.0001 35 34.2501 35 33.3335V27.5168C35 26.6001 34.25 25.8501 33.3333 25.8501C31.2667 25.8501 29.25 25.5168 27.3833 24.9001C27.2167 24.8335 27.0333 24.8168 26.8667 24.8168C26.4333 24.8168 26.0167 24.9835 25.6833 25.3001L22.0167 28.9668C17.3 26.5501 13.4333 22.7001 11.0333 17.9835L14.7 14.3168C15.1667 13.8501 15.3 13.2001 15.1167 12.6168C14.5 10.7501 14.1667 8.75012 14.1667 6.66679C14.1667 5.75012 13.4167 5.00012 12.5 5.00012Z" fill="currentColor"/>
</svg>