<svg xmlns="http://www.w3.org/2000/svg" width="100%" height="100%" viewBox="0 0 65 56" id="free_shipping">
  <title>Free Shipping</title>
  <path
    d="M62.9346 0.099998H17.3476C16.9811 0.100936 16.6299 0.246929 16.3708 0.506055C16.1117 0.765182 15.9657 1.11637 15.9647 1.48283V26.6616L15.5382 26.7363C13.1063 27.1534 10.8893 28.3873 9.25324 30.2342L9.09683 30.4048H7.36563V28.0018C7.36469 27.6356 7.21859 27.2848 6.95936 27.0263C6.70013 26.7677 6.34894 26.6225 5.98281 26.6225H2.07251C1.71835 26.6405 1.38463 26.7938 1.14032 27.0509C0.896007 27.3079 0.759778 27.6489 0.759778 28.0035C0.759778 28.3582 0.896007 28.6992 1.14032 28.9563C1.38463 29.2133 1.71835 29.3666 2.07251 29.3846H4.60709V53.1379H2.07251C1.70576 53.1379 1.35404 53.2836 1.09471 53.5429C0.835383 53.8022 0.689697 54.154 0.689697 54.5207C0.689697 54.8875 0.835383 55.2392 1.09471 55.4985C1.35404 55.7579 1.70576 55.9035 2.07251 55.9035H5.98281C6.34926 55.9026 6.70045 55.7566 6.95958 55.4975C7.2187 55.2384 7.3647 54.8872 7.36563 54.5207V52.1141H9.55542L9.63005 52.139C14.3615 53.6356 17.1805 54.5456 18.8726 55.0895C21.4001 55.9035 21.4143 55.9071 21.6311 55.9035H47.6595C48.4862 55.9015 49.3003 55.7016 50.034 55.3206C50.7676 54.9396 51.3993 54.3885 51.8764 53.7134C52.3535 53.0383 52.6621 52.2588 52.7763 51.44C52.8906 50.6213 52.8072 49.7871 52.5332 49.0072L52.2914 48.3247H62.9559C63.322 48.3247 63.6732 48.1795 63.9324 47.9209C64.1917 47.6623 64.3378 47.3115 64.3387 46.9454V1.48283C64.3383 1.29956 64.3015 1.1182 64.2305 0.949236C64.1595 0.780276 64.0557 0.627067 63.9251 0.498472C63.7946 0.369877 63.6398 0.26845 63.4697 0.200053C63.2997 0.131657 63.1178 0.0976479 62.9346 0.099998ZM35.7793 2.86565H44.3784V8.3223H35.7793V2.86565ZM47.656 53.1379H21.8586L21.7875 53.113C17.0596 51.6164 14.2371 50.7064 12.545 50.1625C10.0175 49.3485 10.0104 49.3591 9.78647 49.3484H7.36563V33.1705H9.7687C9.98543 33.1712 10.1993 33.121 10.3932 33.0241C10.587 32.9272 10.7554 32.7862 10.8849 32.6124C11.6326 31.6016 12.607 30.7803 13.7296 30.2143C14.8523 29.6483 16.0921 29.3535 17.3493 29.3535C18.6066 29.3535 19.8464 29.6483 20.9691 30.2143C22.0917 30.7803 23.0661 31.6016 23.8138 32.6124C23.9416 32.7865 24.1086 32.9281 24.3013 33.0256C24.494 33.1232 24.7069 33.174 24.9229 33.174H34.3929C34.709 33.174 35.0219 33.2363 35.3139 33.3572C35.6059 33.4782 35.8712 33.6554 36.0947 33.8789C36.3181 34.1024 36.4954 34.3677 36.6163 34.6597C36.7373 34.9517 36.7995 35.2646 36.7995 35.5806C36.7995 35.8967 36.7373 36.2096 36.6163 36.5016C36.4954 36.7936 36.3181 37.0589 36.0947 37.2824C35.8712 37.5059 35.6059 37.6831 35.3139 37.8041C35.0219 37.925 34.709 37.9873 34.3929 37.9873H23.0175C22.6504 37.9873 22.2983 38.1328 22.0384 38.3921C21.7785 38.6513 21.6321 39.003 21.6311 39.3701C21.6339 41.7457 22.5792 44.0231 24.2593 45.7026C25.9394 47.3821 28.2172 48.3263 30.5928 48.3282H47.656C48.2942 48.3282 48.9064 48.5818 49.3577 49.0331C49.809 49.4844 50.0626 50.0966 50.0626 50.7348C50.0626 51.3731 49.809 51.9852 49.3577 52.4366C48.9064 52.8879 48.2942 53.1415 47.656 53.1415V53.1379ZM61.5517 45.559H30.607C29.3268 45.557 28.0786 45.1594 27.033 44.4206C25.9875 43.6818 25.1959 42.6379 24.7665 41.4319L24.5247 40.7493H34.3929C35.7647 40.7493 37.0803 40.2044 38.0503 39.2344C39.0203 38.2644 39.5652 36.9489 39.5652 35.5771C39.5652 34.2053 39.0203 32.8897 38.0503 31.9198C37.0803 30.9498 35.7647 30.4048 34.3929 30.4048H25.5948L25.4419 30.2342C23.8043 28.3872 21.5863 27.1534 19.1534 26.7363L18.7304 26.6616V2.86565H33.0137V9.69089C33.0137 10.057 33.1589 10.4082 33.4174 10.6674C33.676 10.9267 34.0268 11.0728 34.3929 11.0737H45.7683C46.1351 11.0737 46.4868 10.928 46.7461 10.6687C47.0055 10.4094 47.1512 10.0576 47.1512 9.69089V2.86565H61.5588L61.5517 45.559Z"
    fill="currentColor" />
  <path
    d="M25.2109 18.6313V20.0248H28.3213C28.5986 20.0406 28.8593 20.162 29.05 20.3639C29.2407 20.5658 29.347 20.833 29.347 21.1107C29.347 21.3885 29.2407 21.6557 29.05 21.8576C28.8593 22.0595 28.5986 22.1809 28.3213 22.1968H25.2109V24.4399C25.2196 24.5991 25.1959 24.7585 25.141 24.9082C25.0861 25.058 25.0012 25.1949 24.8916 25.3108C24.7819 25.4266 24.6498 25.5189 24.5034 25.5819C24.3569 25.645 24.199 25.6775 24.0396 25.6775C23.8801 25.6775 23.7222 25.645 23.5757 25.5819C23.4293 25.5189 23.2972 25.4266 23.1875 25.3108C23.0779 25.1949 22.9931 25.058 22.9382 24.9082C22.8833 24.7585 22.8595 24.5991 22.8682 24.4399V17.6182C22.8668 17.4637 22.8962 17.3105 22.9546 17.1676C23.0131 17.0246 23.0994 16.8947 23.2087 16.7855C23.3179 16.6763 23.4478 16.5899 23.5907 16.5314C23.7337 16.473 23.8869 16.4436 24.0413 16.445H28.8759C29.0237 16.4366 29.1717 16.4584 29.3108 16.5092C29.45 16.5599 29.5773 16.6385 29.6849 16.7402C29.7926 16.8419 29.8784 16.9645 29.937 17.1005C29.9956 17.2365 30.0258 17.383 30.0258 17.5311C30.0258 17.6791 29.9956 17.8256 29.937 17.9616C29.8784 18.0976 29.7926 18.2202 29.6849 18.3219C29.5773 18.4236 29.45 18.5022 29.3108 18.5529C29.1717 18.6037 29.0237 18.6255 28.8759 18.6171L25.2109 18.6313Z"
    fill="currentColor" />
  <path
    d="M37.8056 22.275L38.0544 22.115C38.4837 21.8369 38.8313 21.4498 39.0618 20.9932C39.2923 20.5366 39.3973 20.027 39.3661 19.5164C39.3807 19.1199 39.3158 18.7244 39.1754 18.3533C39.035 17.9821 38.8219 17.6427 38.5485 17.3551C38.1833 17.0246 37.7561 16.77 37.2918 16.6058C36.8274 16.4417 36.335 16.3713 35.8433 16.3989H32.843C32.6827 16.3974 32.5237 16.428 32.3753 16.4888C32.2269 16.5496 32.0921 16.6395 31.9789 16.753C31.8657 16.8666 31.7763 17.0016 31.7159 17.1502C31.6555 17.2987 31.6254 17.4578 31.6273 17.6182V24.4256C31.6273 24.7481 31.7554 25.0573 31.9834 25.2853C32.2114 25.5133 32.5206 25.6414 32.843 25.6414C33.1655 25.6414 33.4747 25.5133 33.7027 25.2853C33.9307 25.0573 34.0588 24.7481 34.0588 24.4256V22.8046H35.1821L36.9595 25.0477C37.0885 25.2325 37.2604 25.3833 37.4603 25.4873C37.6602 25.5913 37.8823 25.6454 38.1077 25.6449C38.4138 25.6468 38.7083 25.5275 38.9268 25.3131C39.1452 25.0986 39.2699 24.8064 39.2737 24.5003C39.2683 24.1673 39.1419 23.8476 38.9182 23.6009L37.8056 22.275ZM36.9062 19.6409C36.9062 19.9288 36.7924 20.5936 35.7189 20.5936H34.0588V18.6491H35.6798C36.4938 18.6491 36.9062 18.9726 36.9062 19.616V19.6409Z"
    fill="currentColor" />
  <path
    d="M48.4488 24.4647C48.4469 24.7592 48.3284 25.0409 48.1191 25.2481C47.9099 25.4554 47.6271 25.5712 47.3326 25.5703H42.4731C42.3131 25.5717 42.1544 25.5412 42.0062 25.4806C41.8581 25.42 41.7235 25.3305 41.6103 25.2173C41.4971 25.1042 41.4076 24.9696 41.347 24.8214C41.2864 24.6733 41.256 24.5146 41.2574 24.3545V17.6004C41.2555 17.44 41.2856 17.2809 41.346 17.1324C41.4064 16.9838 41.4958 16.8488 41.609 16.7352C41.7223 16.6217 41.857 16.5319 42.0054 16.471C42.1538 16.4102 42.3128 16.3796 42.4731 16.3811H47.2615C47.5566 16.3811 47.8396 16.4983 48.0482 16.7069C48.2569 16.9156 48.3741 17.1986 48.3741 17.4937C48.3741 17.7888 48.2569 18.0718 48.0482 18.2805C47.8396 18.4892 47.5566 18.6064 47.2615 18.6064H43.6782V19.8257H46.7034C46.8546 19.8171 47.0059 19.8395 47.1481 19.8915C47.2903 19.9434 47.4204 20.0239 47.5305 20.1279C47.6405 20.2319 47.7282 20.3572 47.7881 20.4963C47.848 20.6353 47.8789 20.7851 47.8789 20.9366C47.8789 21.088 47.848 21.2378 47.7881 21.3768C47.7282 21.5159 47.6405 21.6412 47.5305 21.7452C47.4204 21.8492 47.2903 21.9297 47.1481 21.9816C47.0059 22.0336 46.8546 22.056 46.7034 22.0474H43.6782V23.3272H47.3219C47.4711 23.3262 47.6189 23.3551 47.7568 23.412C47.8946 23.469 48.0197 23.5529 48.1247 23.6589C48.2297 23.7648 48.3124 23.8907 48.3681 24.0291C48.4237 24.1675 48.4512 24.3156 48.4488 24.4647Z"
    fill="currentColor" />
  <path
    d="M57.414 24.4647C57.4121 24.7592 57.2936 25.0409 57.0843 25.2481C56.8751 25.4554 56.5923 25.5712 56.2978 25.5703H51.449C51.2884 25.5727 51.1289 25.5429 50.9799 25.4827C50.8309 25.4225 50.6955 25.3332 50.5816 25.2199C50.4676 25.1066 50.3775 24.9717 50.3165 24.8231C50.2554 24.6745 50.2247 24.5152 50.2262 24.3545V17.6004C50.2243 17.44 50.2544 17.2809 50.3148 17.1324C50.3751 16.9838 50.4646 16.8488 50.5778 16.7352C50.691 16.6217 50.8258 16.5319 50.9742 16.471C51.1225 16.4102 51.2815 16.3796 51.4419 16.3811H56.2302C56.5253 16.3811 56.8083 16.4983 57.017 16.7069C57.2257 16.9156 57.3429 17.1986 57.3429 17.4937C57.3429 17.7888 57.2257 18.0718 57.017 18.2805C56.8083 18.4892 56.5253 18.6064 56.2302 18.6064H52.6541V19.8257H55.6792C55.8304 19.8171 55.9817 19.8395 56.1239 19.8915C56.2662 19.9434 56.3963 20.0239 56.5063 20.1279C56.6164 20.2319 56.704 20.3572 56.7639 20.4963C56.8238 20.6353 56.8548 20.7851 56.8548 20.9366C56.8548 21.088 56.8238 21.2378 56.7639 21.3769C56.704 21.5159 56.6164 21.6413 56.5063 21.7452C56.3963 21.8492 56.2662 21.9297 56.1239 21.9817C55.9817 22.0336 55.8304 22.056 55.6792 22.0474H52.6541V23.3272H56.2978C56.446 23.3276 56.5927 23.3575 56.7293 23.4151C56.8659 23.4727 56.9898 23.5568 57.0936 23.6627C57.1975 23.7685 57.2792 23.8939 57.3342 24.0316C57.3892 24.1693 57.4163 24.3165 57.414 24.4647Z"
    fill="currentColor" />
</svg>