<svg xmlns="http://www.w3.org/2000/svg" width="100%" height="100%" viewBox="0 0 58 64" testId="" id="profile">
  <title>profile</title>
  <path fill-rule="evenodd" clip-rule="evenodd"
    d="M29.0731 34.3109H28.7792C24.7719 34.2474 21.526 32.9015 19.1217 30.3366C13.9389 24.7878 14.7404 15.3536 14.8472 14.249C15.1945 7.29076 18.6942 3.97673 21.5795 2.42764C24.438 0.878554 27.4034 0.65 28.9262 0.65H29.1532C31.8916 0.700789 34.3627 1.31027 36.4999 2.47843C39.3318 4.02752 42.7914 7.31616 43.1387 14.249C43.2589 15.3409 44.047 24.7751 38.8642 30.3366C36.4599 32.9015 33.214 34.2474 29.2067 34.3109H29.0731ZM19.0816 14.5791V14.6299C19.0812 14.634 19.0807 14.6395 19.0801 14.6464C19.0339 15.1575 18.294 23.3477 22.2741 27.6321C23.8903 29.3716 26.0543 30.2224 28.8994 30.2477H29.033C31.8782 30.2224 34.0421 29.3589 35.6584 27.6321C36.8339 26.375 38.3433 23.9625 38.8242 19.5565C39.1047 17.0043 38.9177 14.9092 38.891 14.6426C38.8776 14.5791 38.8776 14.5156 38.8776 14.4775C38.704 10.808 37.4483 8.1161 35.1375 6.49083C33.1472 5.08141 30.7294 4.75128 29.0597 4.71318H28.9128C27.3633 4.71318 25.0925 4.99253 23.1022 6.28767C20.6311 7.90024 19.2819 10.6556 19.0949 14.4902C19.0949 14.5112 19.0909 14.5283 19.0873 14.5437C19.0843 14.5563 19.0816 14.5677 19.0816 14.5791ZM57.044 50.3732V50.4113C57.0574 50.843 57.1108 54.4491 56.3628 56.2775C56.2158 56.6584 55.922 57.0013 55.5346 57.2298C54.4793 57.8647 44.8218 63.35 29.0197 63.35C12.4428 63.35 2.5849 57.2933 2.4914 57.2298C2.11738 57.0013 1.82352 56.6711 1.66322 56.2775C0.901839 54.4364 0.941912 50.8049 0.95527 50.3986V50.3478V50.3224C0.968628 50.2335 0.968628 50.1447 0.968628 50.0431V50.0177L0.970126 49.9765C1.06428 47.389 1.28135 41.4238 7.31351 39.4788C7.36694 39.4534 7.40701 39.4407 7.4738 39.428C13.4847 37.9932 18.5072 34.7172 18.5606 34.6792C19.5357 34.0316 20.8849 34.2601 21.5661 35.1744C21.9 35.6188 22.0203 36.1521 21.9268 36.6854C21.8199 37.2186 21.5127 37.6885 21.0318 38.0059L20.965 38.044C19.5892 38.9201 14.6201 41.8786 8.62255 43.3388C5.69723 44.3292 5.36329 47.2496 5.26979 50.1573C5.26979 50.1813 5.26681 50.2081 5.26367 50.2364C5.26015 50.2681 5.25643 50.3016 5.25643 50.3351V50.4621C5.24307 51.5414 5.32322 53.192 5.51022 54.1824C7.98139 55.4776 16.3566 59.2868 29.0063 59.2868C41.7094 59.2868 50.0312 55.4776 52.489 54.1951C52.676 53.2301 52.7562 51.643 52.7428 50.5002C52.7295 50.3859 52.7295 50.2716 52.7295 50.1573C52.636 47.2623 52.302 44.3419 49.3767 43.3515C42.5777 41.7135 37.1945 38.171 36.9675 38.0186C36.4866 37.7012 36.166 37.2313 36.0725 36.6981C35.979 36.1648 36.0992 35.6315 36.4332 35.1871C37.1278 34.2728 38.4635 34.0443 39.4386 34.6919C39.4921 34.7299 44.5279 38.0059 50.5255 39.4407L50.5522 39.4534C50.5589 39.4534 50.5689 39.4566 50.5789 39.4597C50.5889 39.4629 50.5989 39.4661 50.6056 39.4661C50.619 39.4724 50.6323 39.4756 50.6457 39.4788C50.659 39.482 50.6724 39.4851 50.6858 39.4915C56.7501 41.4469 56.9505 47.4655 57.0306 50.0431V50.0558V50.2081C57.044 50.2589 57.044 50.3224 57.044 50.3732Z"
    fill="currentColor" />
</svg>