<svg xmlns="http://www.w3.org/2000/svg" width="100%" height="100%" viewBox="0 0 50 51" testId="" id="skin_type">
<title>Skin Type</title>
<path d="M16.0001 13.5C15.8335 15.3333 14.6001 19.3 11.0001 20.5C9.66679 20.5 7.00012 21.3 7.00012 24.5C7.00012 27.7 9.66679 29.5 11.0001 30C11.6668 34.6667 15.4001 44 25.0001 44C34.6001 44 38.6668 34.6667 39.5001 30C40.6668 29.3333 43.0001 27.4 43.0001 25C43.0001 22 42.5001 21 39.5001 21C36.5001 21 37.0001 17.5 33.5001 16.5C30.0001 15.5 27.0001 17.5 23.5001 15C20.0001 12.5 19.0001 9 19.0001 7" stroke="#58745D" stroke-linecap="round" stroke-linejoin="round"/>
<path d="M36.5 6.5C39.3333 8 43.5 12.5 41.5 21" stroke="#58745D" stroke-linecap="round" stroke-linejoin="round"/>
<path d="M21 25.5C19.6667 26 16.6 26.5 15 24.5L13.5 25.5" stroke="#58745D" stroke-linecap="round" stroke-linejoin="round"/>
<path d="M30 25.5C31.3333 26 34.4 26.5 36 24.5L37.5 25.5" stroke="#58745D" stroke-linecap="round" stroke-linejoin="round"/>
<path d="M20 35C21.5 36.5 25.6 38.6 30 35" stroke="#58745D" stroke-linecap="round" stroke-linejoin="round"/>
<path d="M3.75 39.3406C7.37319 39.3406 8.27899 35.1135 8.27899 33C8.27899 38.2613 11.335 39.3347 13.0093 39.3431C13.0624 39.3414 13.1161 39.3406 13.1703 39.3406C13.1182 39.3425 13.0645 39.3434 13.0093 39.3431C9.37179 39.4583 8.3385 43.4764 8.27899 45.5C8.27899 40.8623 5.25966 39.4614 3.75 39.3406Z" fill="white" stroke="#9AB898" stroke-width="0.724638" stroke-linejoin="round"/>
<path d="M12.5 45.7849C14.8057 45.7849 15.3821 43.095 15.3821 41.75C15.3821 45.0981 17.3268 45.7812 18.3923 45.7865C18.4261 45.7855 18.4602 45.7849 18.4947 45.7849C18.4616 45.7861 18.4274 45.7867 18.3923 45.7865C16.0775 45.8598 15.42 48.4168 15.3821 49.7045C15.3821 46.7533 13.4607 45.8618 12.5 45.7849Z" fill="white" stroke="#9AB898" stroke-width="0.461133" stroke-linejoin="round"/>
<path d="M40 14.1274C42.7871 14.1274 43.4838 10.8758 43.4838 9.25C43.4838 13.2971 45.8346 14.1229 47.1225 14.1293C47.1634 14.128 47.2047 14.1274 47.2464 14.1274C47.2063 14.1289 47.165 14.1295 47.1225 14.1293C44.3245 14.2179 43.5296 17.3088 43.4838 18.8654C43.4838 15.2979 41.1613 14.2203 40 14.1274Z" fill="white" stroke="#9AB898" stroke-width="0.557414" stroke-linejoin="round"/>
</svg>