<svg xmlns="http://www.w3.org/2000/svg" width="100%" height="100%">
    <title>chevron right variant</title>
    <path
        d="M17.635 6.24942C17.3066 5.91686 16.8139 5.91686 16.4854 6.24942C16.1569 6.58199 16.1569 7.08083 16.4854 7.41339L20.208 11.127H1.82117C1.38321 11.1824 1 11.5704 1 12.0139C1 12.4573 1.38321 12.8453 1.82117 12.8453H20.208L16.4854 16.6143C16.1569 16.9469 16.1569 17.4457 16.4854 17.7783C16.6496 17.9446 16.8686 18 17.0876 18C17.3066 18 17.5255 17.9446 17.6898 17.7783L22.781 12.6236C22.9453 12.4573 23 12.2356 23 12.0139C23 11.7921 22.8905 11.5704 22.781 11.4042L17.635 6.24942Z"
        fill="none" />
</svg>