<svg xmlns="http://www.w3.org/2000/svg" width="100%" height="100%">
    <title>circle chevron up</title>
    <path fillRule="evenodd" clipRule="evenodd"
        d="M20 38C29.9411 38 38 29.9411 38 20C38 10.0589 29.9411 2 20 2C10.0589 2 2 10.0589 2 20C2 29.9411 10.0589 38 20 38ZM28.6476 23.6061C29.1175 23.1487 29.1175 22.3863 28.6476 21.9288L20.9202 14.3558C20.6592 14.1525 20.3459 14 20.0326 14C19.6671 14 19.3539 14.1525 19.145 14.3558L11.3655 21.9288C11.1044 22.183 11 22.4879 11 22.7929C11 23.0978 11.1044 23.4028 11.3655 23.6569C11.8354 24.1144 12.6186 24.1144 13.0885 23.6569C15.0203 21.8272 16.8999 19.9975 18.7796 18.1677C18.8057 18.1677 19.1189 17.8501 19.4322 17.5324C19.7455 17.2147 20.0587 16.8971 20.0848 16.8971C20.1109 16.8971 20.4112 17.202 20.7114 17.507C21.0116 17.8119 21.3118 18.1169 21.3379 18.1169C22.2778 19.0318 23.2045 19.9467 24.1313 20.8615C25.058 21.7764 25.9848 22.6912 26.9246 23.6061C27.3945 24.0635 28.1777 24.0635 28.6476 23.6061Z"
        fill="none" />
</svg>