<svg xmlns="http://www.w3.org/2000/svg" width="100%" height="100%">
    <title>circle line right</title>
    <path fillRule="evenodd" clipRule="evenodd"
        d="M2 20C2 29.9411 10.0589 38 20 38C29.9411 38 38 29.9411 38 20C38 10.0589 29.9411 2 20 2C10.0589 2 2 10.0589 2 20ZM26.4555 18.9738H11.1077C10.4195 18.9738 9.93772 19.602 10.0065 20.2301C10.1442 20.7186 10.5571 21.0676 11.0389 21.0676H26.3867L22.3949 25.1854C22.0508 25.5344 21.982 26.0927 22.2573 26.5114C22.4637 26.8604 22.8079 27 23.152 27C23.4273 27 23.7026 26.9302 23.909 26.7208L29.6903 20.7884C30.1032 20.3697 30.1032 19.7415 29.6903 19.3228L23.909 13.3206C23.4961 12.8321 22.6702 12.9019 22.3261 13.53C22.0508 13.9487 22.1196 14.5071 22.4637 14.8561L26.4555 18.9738Z"
        fill="none" />
</svg>