<svg xmlns="http://www.w3.org/2000/svg" width="100%" height="100%" fill="currentColor">
  <title>BodConMobileLabel</title>
  <rect width="345" height="62" fill="#FBFF44" />
  <g clipPath="url(#clip0_246_7592)">
    <path
      d="M151.331 23.8356C150.993 24.0729 150.654 24.2406 150.188 24.2406C149.271 24.2406 149.172 23.606 149.172 23.25V20.5568H148.706V20.4097L149.157 20.4033H149.172V19.4023H149.174C149.202 19.4023 149.227 19.4023 149.254 19.4062C149.508 19.4256 149.735 19.5352 149.905 19.7029C150.08 19.8757 150.192 20.1092 150.206 20.3697C150.206 20.3801 150.208 20.3904 150.208 20.4007V20.4033H150.21V20.42H151.22L151.226 21.0895H151.216C150.786 20.7335 150.608 20.5503 150.286 20.5503H150.21V23.2848C150.21 23.4589 150.21 23.9259 150.705 23.9259C150.86 23.9259 151.05 23.8768 151.276 23.7517L151.332 23.8356H151.331Z"
      fill="#142541" />
    <path
      d="M155.496 21.6517V24.1566H154.453V21.555C154.453 21.2957 154.446 20.6405 153.796 20.6405C153.526 20.6405 153.275 20.7488 152.992 21.0262C152.988 21.03 152.982 21.0352 152.979 21.0391V24.1579H151.934V18.7986H152.055C152.514 18.8489 152.885 19.1843 152.973 19.6164C152.976 19.6383 152.979 19.6718 152.98 19.6937V20.8985C153.311 20.5579 153.684 20.3193 154.249 20.3193C155.04 20.3193 155.498 20.7385 155.498 21.6517H155.496Z"
      fill="#142541" />
    <path
      d="M157.447 22.7933C157.424 22.8591 157.419 22.9481 157.447 23.0642C157.453 23.0952 157.462 23.1287 157.475 23.1648C157.479 23.1777 157.483 23.1906 157.488 23.2035C157.488 23.2035 157.488 23.2048 157.488 23.2061C157.688 23.6253 158.022 23.8278 158.437 23.8278C158.818 23.8278 159.227 23.6459 159.559 23.1996L159.644 23.2487C159.242 23.8562 158.712 24.2393 157.979 24.2393C156.961 24.2393 156.166 23.5066 156.166 22.3342C156.166 21.2868 156.81 20.5658 157.668 20.3723C157.822 20.3362 157.984 20.3181 158.148 20.3181C158.164 20.3181 158.18 20.3181 158.195 20.3194C158.409 20.3117 158.653 20.3426 158.912 20.4458C158.969 20.469 159.028 20.4948 159.088 20.5258C159.758 20.8753 160.006 21.4493 159.726 21.9769C159.327 22.7314 158.19 22.4451 157.684 22.5883C157.684 22.5883 157.684 22.5883 157.681 22.5883C157.61 22.6089 157.551 22.6386 157.509 22.6811C157.503 22.6863 157.499 22.694 157.494 22.7005C157.478 22.7211 157.464 22.7456 157.453 22.7753C157.452 22.7804 157.449 22.7856 157.448 22.7908L157.447 22.7933ZM157.708 22.3084C157.718 22.3032 157.73 22.2993 157.741 22.2942C157.753 22.289 157.766 22.2839 157.779 22.28C158.147 22.1433 158.616 22.0491 158.846 21.6157C158.899 21.5164 158.931 21.4171 158.942 21.3203C159.032 20.5735 158.49 20.4484 158.308 20.4278C158.297 20.4265 158.292 20.4265 158.292 20.4265C158.282 20.4252 158.271 20.4239 158.262 20.4239C158.25 20.4239 158.242 20.4239 158.241 20.4239C158.137 20.4239 158.038 20.4432 157.949 20.4806C157.53 20.6561 157.281 21.2288 157.281 22.0839C157.281 22.2787 157.294 22.4567 157.319 22.6192C157.323 22.6502 157.328 22.6811 157.334 22.7121C157.338 22.7405 157.345 22.7688 157.351 22.7959C157.351 22.7611 157.355 22.4696 157.709 22.3097L157.708 22.3084Z"
      fill="#142541" />
    <path
      d="M171.81 24.2069C171.81 26.2372 170.003 27.4716 166.816 27.4716H162.084V15.6475H166.864C169.608 15.6475 171.168 16.5891 171.168 18.3278C171.168 19.9517 169.64 20.9268 167.834 21.1861V21.2183C170.134 21.3486 171.809 22.2902 171.81 24.2069ZM164.696 21.2506H166.339C167.702 21.2506 168.442 20.0807 168.442 18.587C168.442 17.0934 167.751 15.9067 166.125 15.9067H164.695V21.2506H164.696ZM168.967 24.4507C168.967 22.6965 168.08 21.5111 166.568 21.5111H164.695V27.0988C164.941 27.1801 165.647 27.2123 165.993 27.2123C168.079 27.2123 168.966 26.1894 168.966 24.4507H168.967Z"
      fill="#142541" />
    <path
      d="M179.028 27.482C176.472 28.2726 174.071 27.2124 173.227 24.5463C172.388 21.8956 173.793 19.5378 176.395 18.7316C178.951 17.9409 181.353 19.0012 182.197 21.6673C183.036 24.318 181.615 26.681 179.028 27.482ZM179.785 22.5328C178.99 20.0214 177.703 18.5652 176.369 18.978C174.989 19.4049 174.863 21.2313 175.648 23.7117C176.439 26.2076 177.721 27.6484 179.039 27.2408C180.419 26.8138 180.561 24.9822 179.786 22.5328H179.785Z"
      fill="#142541" />
    <path
      d="M192.679 27.4781H190.232L190.263 26.2901C189.491 27.1362 188.588 27.6715 187.423 27.6715C185.303 27.6715 183.644 25.8696 183.644 23.286C183.644 20.4935 185.615 18.5432 188.047 18.5432C188.935 18.5432 189.656 18.8012 190.232 19.2578V15C190.965 15.0052 191.621 15.3199 192.07 15.8152C192.46 16.246 192.649 16.8187 192.649 17.3978V23.731L192.648 24.7565C192.648 25.5355 192.68 26.7596 192.68 27.4781H192.679ZM190.232 20.4754C190.225 20.4574 190.22 20.438 190.213 20.4213C189.908 19.4758 189.244 18.8025 188.358 18.8025C186.961 18.8025 186.205 20.4109 186.205 23.108C186.205 25.9651 187.011 26.9582 188.275 26.9582C188.949 26.9582 189.573 26.6642 190.23 25.9018V20.4741L190.232 20.4754Z"
      fill="#142541" />
    <path
      d="M175.861 38.2548C174.792 39.9923 173.035 41.0809 170.8 41.0809C167.432 41.0809 165.067 38.6444 165.067 35.1037C165.067 31.2535 167.663 28.866 171.211 28.866C173.15 28.866 174.777 29.8243 175.696 30.7659L173.651 32.573C172.993 31.1916 172.706 29.1252 171.162 29.1252C168.961 29.1252 167.909 31.5618 167.909 34.5181C167.909 38.2535 169.584 40.1058 171.934 40.1058C173.117 40.1058 174.628 39.6672 175.664 38.14L175.861 38.2535V38.2548Z"
      fill="#142541" />
    <path
      d="M182.832 40.8965C180.277 41.6872 177.875 40.6269 177.031 37.9608C176.192 35.3102 177.597 32.9523 180.2 32.1461C182.755 31.3555 185.157 32.4157 186.001 35.0819C186.84 37.7325 185.419 40.0955 182.832 40.8965ZM183.589 35.9473C182.794 33.436 181.507 31.9798 180.173 32.3925C178.793 32.8194 178.667 34.6459 179.452 37.1263C180.243 39.6221 181.525 41.0629 182.841 40.6553C184.222 40.2284 184.364 38.3968 183.589 35.9473Z"
      fill="#142541" />
    <path
      d="M196.068 35.0353V40.8655H193.655V34.8058C193.655 34.2047 193.637 32.6788 192.109 32.6788C191.47 32.6788 190.877 32.9393 190.204 33.6049V40.8655H187.79V33.1289H188.251C189.252 34.3053 190.206 33.2966 190.206 33.2966C190.991 32.5188 191.831 31.9307 193.179 31.9307C195.018 31.9307 196.068 32.9058 196.068 35.0353Z"
      fill="#142541" />
    <path
      d="M148.817 29.4898C148.811 29.3793 148.782 29.2637 148.803 29.1584C148.985 28.2122 149.558 27.6742 150.309 27.3389C150.999 27.0309 151.702 27.0595 152.393 27.322C153.286 27.6599 154.165 28.0459 155.059 28.3708C155.474 28.5216 155.913 28.6177 156.347 28.6697C157.088 28.7594 157.768 28.4917 158.409 28.0875C158.751 27.8717 159.111 27.7145 159.5 27.6521C160.284 27.5273 161.006 27.7353 161.666 28.2057C162.789 29.0076 163.462 30.1773 163.773 31.6316C163.922 32.3243 163.952 33.0313 163.95 33.737C163.944 35.0692 163.914 36.4013 163.895 37.7335C163.883 38.6835 163.904 39.6283 164.072 40.5654C164.449 42.6656 165.536 44.1056 167.231 44.9868C168.363 45.5755 169.558 45.7978 170.796 45.777C172.194 45.7523 173.547 45.4196 174.896 45.0453C175.73 44.8139 176.56 44.5618 177.401 44.3747C178.629 44.1017 179.854 44.1121 181.041 44.6346C181.964 45.0414 182.649 45.7536 183.096 46.7582C183.125 46.8245 183.128 46.9051 183.147 47C182.952 46.9675 182.863 46.8687 182.791 46.7153C182.3 45.6574 181.492 45.0713 180.512 44.7373C179.567 44.415 178.608 44.3942 177.654 44.6216C176.44 44.9114 175.236 45.2519 174.028 45.569C172.926 45.8576 171.814 46.0772 170.68 46.0733C169.441 46.0694 168.232 45.8433 167.101 45.2519C165.382 44.3539 164.297 42.8593 163.869 40.7473C163.628 39.5569 163.596 38.3586 163.64 37.1473C163.682 36.04 163.74 34.9327 163.739 33.8267C163.739 32.6791 163.595 31.5471 163.155 30.4944C162.599 29.1662 161.691 28.3032 160.443 27.9263C159.834 27.7418 159.251 27.9003 158.706 28.2369C158.259 28.5138 157.801 28.7555 157.303 28.8881C156.654 29.0622 156.014 28.9998 155.39 28.762C154.597 28.4592 153.81 28.1304 153.021 27.8133C152.387 27.5585 151.739 27.374 151.06 27.4416C150.309 27.5169 149.69 27.8886 149.261 28.606C149.151 28.7906 149.107 29.0245 149.029 29.2351C148.994 29.3286 148.951 29.4196 148.911 29.5106C148.881 29.5041 148.85 29.4963 148.818 29.4898H148.817Z"
      fill="#142541" />
  </g>
  <defs>
    <clipPath id="clip0_246_7592">
      <rect width="52" height="32" fill="white" transform="translate(146.5 15)" />
    </clipPath>
  </defs>
</svg>