<svg xmlns="http://www.w3.org/2000/svg" width="100%" height="100%" viewBox="0 0 695 62" fill="none" id="bod_con_label">
  <title>BodConLabel</title>
  <rect width="773" height="62" fill="#FBFF44" />
  <g clipPath="url(#clip0_246_8374)">
    <path
      d="M365.331 23.8356C364.993 24.0729 364.654 24.2406 364.188 24.2406C363.271 24.2406 363.172 23.606 363.172 23.25V20.5568H362.706V20.4097L363.157 20.4033H363.172V19.4023H363.174C363.202 19.4023 363.227 19.4023 363.254 19.4062C363.508 19.4256 363.735 19.5352 363.905 19.7029C364.08 19.8757 364.192 20.1092 364.206 20.3697C364.206 20.3801 364.208 20.3904 364.208 20.4007V20.4033H364.21V20.42H365.22L365.227 21.0895H365.216C364.786 20.7335 364.608 20.5503 364.286 20.5503H364.21V23.2848C364.21 23.4589 364.21 23.9259 364.705 23.9259C364.86 23.9259 365.05 23.8768 365.276 23.7517L365.332 23.8356H365.331Z"
      fill="#142541" />
    <path
      d="M369.496 21.652V24.1569H368.453V21.5552C368.453 21.296 368.446 20.6407 367.797 20.6407C367.526 20.6407 367.275 20.7491 366.992 21.0264C366.988 21.0303 366.982 21.0354 366.979 21.0393V24.1582H365.934V18.7988H366.055C366.514 18.8491 366.885 19.1845 366.973 19.6166C366.976 19.6385 366.979 19.6721 366.98 19.694V20.8987C367.311 20.5582 367.684 20.3196 368.249 20.3196C369.04 20.3196 369.498 20.7388 369.498 21.652H369.496Z"
      fill="#142541" />
    <path
      d="M371.447 22.7936C371.425 22.8594 371.419 22.9484 371.447 23.0645C371.453 23.0954 371.462 23.129 371.475 23.1651C371.479 23.178 371.483 23.1909 371.488 23.2038C371.488 23.2038 371.488 23.2051 371.488 23.2063C371.688 23.6255 372.022 23.8281 372.437 23.8281C372.818 23.8281 373.227 23.6462 373.559 23.1999L373.644 23.2489C373.242 23.8564 372.712 24.2395 371.979 24.2395C370.961 24.2395 370.166 23.5069 370.166 22.3344C370.166 21.287 370.81 20.566 371.668 20.3725C371.822 20.3364 371.984 20.3184 372.149 20.3184C372.164 20.3184 372.18 20.3184 372.196 20.3196C372.409 20.3119 372.653 20.3429 372.912 20.4461C372.969 20.4693 373.028 20.4951 373.088 20.526C373.758 20.8756 374.006 21.4496 373.726 21.9771C373.327 22.7317 372.19 22.4453 371.684 22.5885C371.684 22.5885 371.684 22.5885 371.682 22.5885C371.61 22.6091 371.551 22.6388 371.509 22.6814C371.503 22.6865 371.499 22.6943 371.494 22.7007C371.478 22.7214 371.464 22.7459 371.453 22.7755C371.452 22.7807 371.449 22.7859 371.448 22.791L371.447 22.7936ZM371.708 22.3086C371.718 22.3034 371.73 22.2996 371.742 22.2944C371.753 22.2893 371.766 22.2841 371.779 22.2802C372.147 22.1435 372.616 22.0493 372.847 21.616C372.899 21.5166 372.931 21.4173 372.942 21.3206C373.032 20.5738 372.49 20.4486 372.308 20.428C372.297 20.4267 372.292 20.4267 372.292 20.4267C372.282 20.4254 372.271 20.4241 372.262 20.4241C372.25 20.4241 372.242 20.4241 372.241 20.4241C372.137 20.4241 372.038 20.4435 371.949 20.4809C371.53 20.6563 371.281 21.229 371.281 22.0842C371.281 22.2789 371.294 22.4569 371.319 22.6195C371.323 22.6504 371.328 22.6814 371.335 22.7123C371.338 22.7407 371.345 22.7691 371.351 22.7962C371.351 22.7613 371.355 22.4698 371.709 22.3099L371.708 22.3086Z"
      fill="#142541" />
    <path
      d="M385.81 24.2069C385.81 26.2372 384.003 27.4716 380.816 27.4716H376.084V15.6475H380.864C383.608 15.6475 385.168 16.5891 385.168 18.3278C385.168 19.9517 383.64 20.9268 381.834 21.1861V21.2183C384.134 21.3486 385.809 22.2902 385.81 24.2069ZM378.696 21.2506H380.339C381.702 21.2506 382.442 20.0807 382.442 18.587C382.442 17.0934 381.751 15.9067 380.125 15.9067H378.695V21.2506H378.696ZM382.967 24.4507C382.967 22.6965 382.08 21.5111 380.568 21.5111H378.695V27.0988C378.941 27.1801 379.647 27.2123 379.993 27.2123C382.079 27.2123 382.966 26.1894 382.966 24.4507H382.967Z"
      fill="#142541" />
    <path
      d="M393.028 27.4817C390.472 28.2724 388.071 27.2121 387.227 24.546C386.388 21.8954 387.793 19.5375 390.396 18.7313C392.951 17.9407 395.353 19.0009 396.197 21.6671C397.036 24.3177 395.615 26.6807 393.028 27.4817V27.4817ZM393.785 22.5325C392.99 20.0212 391.703 18.565 390.369 18.9777C388.989 19.4047 388.863 21.2311 389.648 23.7115C390.439 26.2073 391.721 27.6481 393.039 27.2405C394.419 26.8136 394.561 24.982 393.786 22.5325H393.785Z"
      fill="#142541" />
    <path
      d="M406.679 27.4781H404.232L404.263 26.2901C403.491 27.1362 402.588 27.6715 401.423 27.6715C399.303 27.6715 397.644 25.8696 397.644 23.286C397.644 20.4935 399.615 18.5432 402.047 18.5432C402.935 18.5432 403.656 18.8012 404.232 19.2578V15C404.965 15.0052 405.621 15.3199 406.07 15.8152C406.46 16.246 406.649 16.8187 406.649 17.3978V23.731L406.648 24.7565C406.648 25.5355 406.68 26.7596 406.68 27.4781H406.679ZM404.232 20.4754C404.225 20.4574 404.22 20.438 404.214 20.4213C403.908 19.4758 403.244 18.8025 402.358 18.8025C400.961 18.8025 400.205 20.4109 400.205 23.108C400.205 25.9651 401.011 26.9582 402.275 26.9582C402.949 26.9582 403.573 26.6642 404.23 25.9018V20.4741L404.232 20.4754Z"
      fill="#142541" />
    <path
      d="M389.861 38.2546C388.792 39.992 387.035 41.0806 384.8 41.0806C381.432 41.0806 379.067 38.6441 379.067 35.1035C379.067 31.2532 381.663 28.8657 385.211 28.8657C387.15 28.8657 388.777 29.8241 389.696 30.7657L387.651 32.5728C386.993 31.1913 386.706 29.125 385.162 29.125C382.961 29.125 381.909 31.5615 381.909 34.5179C381.909 38.2533 383.584 40.1055 385.934 40.1055C387.117 40.1055 388.628 39.667 389.664 38.1398L389.861 38.2533V38.2546Z"
      fill="#142541" />
    <path
      d="M396.832 40.8963C394.277 41.687 391.875 40.6267 391.031 37.9606C390.192 35.3099 391.597 32.9521 394.2 32.1459C396.755 31.3552 399.157 32.4155 400.001 35.0816C400.84 37.7323 399.419 40.0953 396.832 40.8963V40.8963ZM397.589 35.9471C396.794 33.4358 395.507 31.9795 394.174 32.3923C392.793 32.8192 392.667 34.6456 393.452 37.126C394.243 39.6219 395.525 41.0627 396.841 40.6551C398.222 40.2281 398.364 38.3965 397.589 35.9471V35.9471Z"
      fill="#142541" />
    <path
      d="M410.068 35.0349V40.865H407.655V34.8053C407.655 34.2042 407.637 32.6783 406.109 32.6783C405.47 32.6783 404.878 32.9388 404.204 33.6044V40.865H401.79V33.1285H402.251C403.252 34.3048 404.206 33.2961 404.206 33.2961C404.991 32.5184 405.831 31.9302 407.179 31.9302C409.018 31.9302 410.068 32.9053 410.068 35.0349V35.0349Z"
      fill="#142541" />
    <path
      d="M362.817 29.49C362.811 29.3796 362.782 29.2639 362.803 29.1586C362.985 28.2125 363.558 27.6744 364.309 27.3391C364.999 27.0311 365.702 27.0597 366.394 27.3222C367.286 27.6601 368.165 28.0461 369.06 28.371C369.474 28.5218 369.913 28.618 370.347 28.67C371.088 28.7596 371.768 28.4919 372.409 28.0877C372.751 27.872 373.111 27.7147 373.5 27.6523C374.284 27.5276 375.006 27.7355 375.666 28.206C376.789 29.0079 377.462 30.1776 377.773 31.6319C377.922 32.3246 377.952 33.0316 377.95 33.7373C377.944 35.0694 377.914 36.4016 377.895 37.7337C377.883 38.6837 377.904 39.6286 378.072 40.5656C378.45 42.6659 379.536 44.1059 381.231 44.987C382.363 45.5758 383.558 45.798 384.796 45.7772C386.194 45.7525 387.547 45.4198 388.897 45.0455C389.73 44.8142 390.56 44.5621 391.401 44.3749C392.629 44.102 393.854 44.1124 395.041 44.6348C395.964 45.0416 396.649 45.7538 397.096 46.7585C397.125 46.8247 397.128 46.9053 397.147 47.0002C396.952 46.9677 396.863 46.8689 396.791 46.7156C396.3 45.6577 395.492 45.0715 394.512 44.7375C393.567 44.4152 392.608 44.3944 391.654 44.6218C390.44 44.9117 389.236 45.2522 388.028 45.5693C386.926 45.8578 385.815 46.0774 384.68 46.0735C383.441 46.0696 382.232 45.8435 381.101 45.2522C379.382 44.3541 378.298 42.8595 377.869 40.7476C377.628 39.5571 377.596 38.3588 377.64 37.1476C377.682 36.0403 377.74 34.933 377.739 33.827C377.739 32.6794 377.595 31.5474 377.155 30.4947C376.599 29.1664 375.691 28.3035 374.443 27.9266C373.834 27.742 373.251 27.9006 372.706 28.2372C372.259 28.514 371.801 28.7557 371.303 28.8883C370.654 29.0625 370.014 29.0001 369.39 28.7622C368.597 28.4594 367.811 28.1306 367.021 27.8135C366.387 27.5588 365.739 27.3742 365.06 27.4418C364.309 27.5172 363.69 27.8889 363.261 28.6063C363.152 28.7908 363.107 29.0248 363.029 29.2353C362.994 29.3289 362.952 29.4199 362.912 29.5108C362.881 29.5043 362.85 29.4965 362.818 29.49H362.817Z"
      fill="#142541" />
  </g>
  <defs>
    <clipPath id="clip0_246_8374">
      <rect width="52" height="32" fill="white" transform="translate(360.5 15)" />
    </clipPath>
  </defs>
</svg>