<svg xmlns="http://www.w3.org/2000/svg" width="100%" height="100%" testId="">
  <title>call us</title>
  <mask id="path-1-outside-1_785_584" maskUnits="userSpaceOnUse" x="0" y="0" width="36" height="38" fill="black">
    <rect fill="white" width="36" height="38" />
    <path
      d="M18.0299 37H20.3603C21.6749 37 22.8102 36.1711 23.1687 34.9276C23.2285 34.8092 23.2882 34.6908 23.4675 34.6908C24.1845 34.5724 25.3199 34.3355 26.5149 33.6842C28.0685 32.7368 29.9807 30.7829 30.2794 26.9934C30.2794 26.8158 30.4587 26.6974 30.638 26.6382C33.0879 26.5197 35 24.4474 35 22.0197V19.8289C34.9402 17.3421 32.9684 15.2697 30.5782 15.1513C30.3989 15.1513 30.2197 14.9737 30.2197 14.7961V13.3158C30.2197 10.0592 29.0844 7.03947 26.9332 4.73026C24.7821 2.30263 21.7944 1 18.5079 1H17.3128C14.0264 1 11.1582 2.24342 9.00703 4.61184C6.85589 6.92105 5.72056 9.94079 5.72056 13.1974V14.6184C5.72056 14.7961 5.60105 14.9737 5.36204 14.9737C2.91213 15.0921 1 17.1645 1 19.5921V21.7829C1 24.3882 3.09139 26.4605 5.72056 26.4605H8.529C8.82777 26.4605 9.12654 26.1645 9.12654 25.8684V15.5658C9.12654 15.2697 8.88752 14.9737 8.529 14.9737H7.21441C7.03515 14.9737 6.85589 14.7961 6.85589 14.6184V13.1974C6.85589 6.92105 11.3374 2.125 17.3128 2.125H18.5079C24.4833 2.125 28.9648 6.86184 28.9648 13.1974V14.6184C28.9648 14.7961 28.7856 14.9737 28.6063 14.9737H27.2917C26.993 14.9737 26.6942 15.2697 26.6942 15.5658V26.0461C26.6942 26.3421 26.9332 26.6382 27.2917 26.6382H28.6063C28.7258 26.6382 28.7856 26.6974 28.8453 26.7566C28.9051 26.8158 28.9648 26.9342 28.9648 27.0526C28.5466 32.3816 24.6626 33.3289 23.4675 33.5066C23.2882 33.5066 23.109 33.4474 23.0492 33.2697C22.6309 32.0855 21.5554 31.3158 20.3005 31.3158H18.0896C17.2531 31.3158 16.4763 31.6711 15.9385 32.2632C15.4007 32.8553 15.1019 33.5658 15.1617 34.3355C15.2214 35.8158 16.4763 37 18.0299 37ZM7.57294 16.0987C7.7522 16.0987 7.93146 16.2171 7.93146 16.3947V25.0395C7.93146 25.2171 7.7522 25.3947 7.57294 25.3947H5.72056C3.74868 25.3947 2.13533 23.7961 2.13533 21.8421V19.6513C2.13533 17.6974 3.74868 16.0987 5.72056 16.0987H7.57294ZM28.3076 25.3355C28.1283 25.3355 27.949 25.2171 27.949 25.0395V16.5C27.949 16.3224 28.1283 16.1447 28.3076 16.1447H30.1599C32.1318 16.1447 33.7452 17.6382 33.7452 19.5921V21.7829C33.7452 23.7368 32.1318 25.3355 30.1599 25.3355H28.3076ZM17.8506 32.3224H20.3603C21.3761 32.3224 22.0931 33.2697 22.0931 34.2237C22.0931 34.6908 21.9736 35.1118 21.6749 35.4671C21.3761 35.8224 20.8981 36 20.3603 36H17.8506C17 36 16.1094 35.1711 16.1094 34.2237C16.1094 33.2171 16.8946 32.3224 17.8506 32.3224Z" />
  </mask>
  <path
    d="M18.0299 37H20.3603C21.6749 37 22.8102 36.1711 23.1687 34.9276C23.2285 34.8092 23.2882 34.6908 23.4675 34.6908C24.1845 34.5724 25.3199 34.3355 26.5149 33.6842C28.0685 32.7368 29.9807 30.7829 30.2794 26.9934C30.2794 26.8158 30.4587 26.6974 30.638 26.6382C33.0879 26.5197 35 24.4474 35 22.0197V19.8289C34.9402 17.3421 32.9684 15.2697 30.5782 15.1513C30.3989 15.1513 30.2197 14.9737 30.2197 14.7961V13.3158C30.2197 10.0592 29.0844 7.03947 26.9332 4.73026C24.7821 2.30263 21.7944 1 18.5079 1H17.3128C14.0264 1 11.1582 2.24342 9.00703 4.61184C6.85589 6.92105 5.72056 9.94079 5.72056 13.1974V14.6184C5.72056 14.7961 5.60105 14.9737 5.36204 14.9737C2.91213 15.0921 1 17.1645 1 19.5921V21.7829C1 24.3882 3.09139 26.4605 5.72056 26.4605H8.529C8.82777 26.4605 9.12654 26.1645 9.12654 25.8684V15.5658C9.12654 15.2697 8.88752 14.9737 8.529 14.9737H7.21441C7.03515 14.9737 6.85589 14.7961 6.85589 14.6184V13.1974C6.85589 6.92105 11.3374 2.125 17.3128 2.125H18.5079C24.4833 2.125 28.9648 6.86184 28.9648 13.1974V14.6184C28.9648 14.7961 28.7856 14.9737 28.6063 14.9737H27.2917C26.993 14.9737 26.6942 15.2697 26.6942 15.5658V26.0461C26.6942 26.3421 26.9332 26.6382 27.2917 26.6382H28.6063C28.7258 26.6382 28.7856 26.6974 28.8453 26.7566C28.9051 26.8158 28.9648 26.9342 28.9648 27.0526C28.5466 32.3816 24.6626 33.3289 23.4675 33.5066C23.2882 33.5066 23.109 33.4474 23.0492 33.2697C22.6309 32.0855 21.5554 31.3158 20.3005 31.3158H18.0896C17.2531 31.3158 16.4763 31.6711 15.9385 32.2632C15.4007 32.8553 15.1019 33.5658 15.1617 34.3355C15.2214 35.8158 16.4763 37 18.0299 37ZM7.57294 16.0987C7.7522 16.0987 7.93146 16.2171 7.93146 16.3947V25.0395C7.93146 25.2171 7.7522 25.3947 7.57294 25.3947H5.72056C3.74868 25.3947 2.13533 23.7961 2.13533 21.8421V19.6513C2.13533 17.6974 3.74868 16.0987 5.72056 16.0987H7.57294ZM28.3076 25.3355C28.1283 25.3355 27.949 25.2171 27.949 25.0395V16.5C27.949 16.3224 28.1283 16.1447 28.3076 16.1447H30.1599C32.1318 16.1447 33.7452 17.6382 33.7452 19.5921V21.7829C33.7452 23.7368 32.1318 25.3355 30.1599 25.3355H28.3076ZM17.8506 32.3224H20.3603C21.3761 32.3224 22.0931 33.2697 22.0931 34.2237C22.0931 34.6908 21.9736 35.1118 21.6749 35.4671C21.3761 35.8224 20.8981 36 20.3603 36H17.8506C17 36 16.1094 35.1711 16.1094 34.2237C16.1094 33.2171 16.8946 32.3224 17.8506 32.3224Z"
    fill="none" />
  <path
    d="M23.1687 34.9276L22.7223 34.7024L22.7013 34.7442L22.6883 34.7891L23.1687 34.9276ZM23.4675 34.6908V35.1908H23.5085L23.549 35.1841L23.4675 34.6908ZM26.5149 33.6842L26.7542 34.1232L26.7649 34.1174L26.7753 34.1111L26.5149 33.6842ZM30.2794 26.9934L30.7779 27.0327L30.7794 27.0131V26.9934H30.2794ZM30.638 26.6382L30.6138 26.1387L30.5458 26.142L30.4811 26.1634L30.638 26.6382ZM35 19.8289H35.5001L35.4999 19.8169L35 19.8289ZM30.5782 15.1513L30.6029 14.6519L30.5906 14.6513H30.5782V15.1513ZM26.9332 4.73026L26.5589 5.06197L26.5674 5.07107L26.9332 4.73026ZM9.00703 4.61184L9.37291 4.95268L9.37715 4.94801L9.00703 4.61184ZM5.36204 14.9737V14.4737H5.34996L5.3379 14.4743L5.36204 14.9737ZM28.9648 27.0526L29.4633 27.0918L29.4648 27.0722V27.0526H28.9648ZM23.4675 33.5066V34.0066H23.5044L23.541 34.0011L23.4675 33.5066ZM23.0492 33.2697L23.5232 33.1103L23.5207 33.1032L23.0492 33.2697ZM15.1617 34.3355L15.6613 34.3154L15.6609 34.3061L15.6602 34.2968L15.1617 34.3355ZM16.1094 34.2237H15.6094H16.1094ZM18.0299 37.5H20.3603V36.5H18.0299V37.5ZM20.3603 37.5C21.8886 37.5 23.2264 36.5322 23.6491 35.0662L22.6883 34.7891C22.394 35.8099 21.4611 36.5 20.3603 36.5V37.5ZM23.6151 35.1529C23.6316 35.1201 23.638 35.1081 23.6431 35.0996C23.6471 35.093 23.6416 35.1038 23.6252 35.12C23.6067 35.1383 23.5788 35.1593 23.5425 35.1741C23.5068 35.1886 23.4789 35.1908 23.4675 35.1908V34.1908C23.2482 34.1908 23.0613 34.2709 22.9214 34.4096C22.8084 34.5216 22.7443 34.6589 22.7223 34.7024L23.6151 35.1529ZM23.549 35.1841C24.2895 35.0618 25.4879 34.8134 26.7542 34.1232L26.2757 33.2452C25.1518 33.8577 24.0796 34.0829 23.386 34.1975L23.549 35.1841ZM26.7753 34.1111C28.446 33.0923 30.4648 31.0039 30.7779 27.0327L29.781 26.9541C29.4965 30.5619 27.6911 32.3814 26.2546 33.2573L26.7753 34.1111ZM30.7794 26.9934C30.7794 27.0366 30.7677 27.0758 30.7521 27.1054C30.7377 27.1325 30.7236 27.1451 30.722 27.1466C30.7203 27.1481 30.7252 27.1435 30.7399 27.1357C30.7542 27.1282 30.7729 27.1202 30.7948 27.1129L30.4811 26.1634C30.3516 26.2062 30.1949 26.2782 30.061 26.3962C29.9229 26.5178 29.7794 26.7182 29.7794 26.9934H30.7794ZM30.6621 27.1376C33.3858 27.0059 35.5 24.7068 35.5 22.0197H34.5C34.5 24.188 32.79 26.0336 30.6138 26.1387L30.6621 27.1376ZM35.5 22.0197V19.8289H34.5V22.0197H35.5ZM35.4999 19.8169C35.4341 17.0814 33.2676 14.784 30.6029 14.6519L30.5535 15.6507C32.6691 15.7555 34.4464 17.6028 34.5001 19.841L35.4999 19.8169ZM30.5782 14.6513C30.6158 14.6513 30.6423 14.6605 30.6564 14.667C30.6705 14.6735 30.6787 14.6802 30.6837 14.6851C30.6886 14.69 30.6958 14.6986 30.7028 14.7135C30.7099 14.7284 30.7197 14.7564 30.7197 14.7961H29.7197C29.7197 15.0491 29.8422 15.2591 29.9798 15.3955C30.1176 15.5321 30.3276 15.6513 30.5782 15.6513V14.6513ZM30.7197 14.7961V13.3158H29.7197V14.7961H30.7197ZM30.7197 13.3158C30.7197 9.94069 29.5417 6.79687 27.2991 4.38945L26.5674 5.07107C28.627 7.28207 29.7197 10.1777 29.7197 13.3158H30.7197ZM27.3074 4.39866C25.0578 1.85985 21.9319 0.5 18.5079 0.5V1.5C21.6568 1.5 24.5064 2.74541 26.559 5.06186L27.3074 4.39866ZM18.5079 0.5H17.3128V1.5H18.5079V0.5ZM17.3128 0.5C13.8904 0.5 10.8861 1.79926 8.63691 4.27567L9.37715 4.94801C11.4302 2.68758 14.1623 1.5 17.3128 1.5V0.5ZM8.64118 4.27103C6.39855 6.67845 5.22056 9.82226 5.22056 13.1974H6.22056C6.22056 10.0593 7.31323 7.16365 9.37288 4.95265L8.64118 4.27103ZM5.22056 13.1974V14.6184H6.22056V13.1974H5.22056ZM5.22056 14.6184C5.22056 14.5995 5.22643 14.5648 5.25874 14.5288C5.27572 14.5099 5.29706 14.4944 5.32002 14.4844C5.3429 14.4745 5.35895 14.4737 5.36204 14.4737V15.4737C5.61564 15.4737 5.84336 15.3746 6.00312 15.1965C6.15494 15.0273 6.22056 14.815 6.22056 14.6184H5.22056ZM5.3379 14.4743C2.61424 14.6059 0.5 16.9051 0.5 19.5921H1.5C1.5 17.4239 3.21002 15.5783 5.38618 15.4731L5.3379 14.4743ZM0.5 19.5921V21.7829H1.5V19.5921H0.5ZM0.5 21.7829C0.5 24.6686 2.81956 26.9605 5.72056 26.9605V25.9605C3.36321 25.9605 1.5 24.1077 1.5 21.7829H0.5ZM5.72056 26.9605H8.529V25.9605H5.72056V26.9605ZM8.529 26.9605C8.83939 26.9605 9.10908 26.8117 9.29174 26.6307C9.47412 26.4499 9.62654 26.1807 9.62654 25.8684H8.62654C8.62654 25.8584 8.62888 25.86 8.62284 25.8728C8.61679 25.8857 8.60534 25.903 8.58787 25.9203C8.57043 25.9376 8.55251 25.9494 8.53855 25.9558C8.52461 25.9623 8.52125 25.9605 8.529 25.9605V26.9605ZM9.62654 25.8684V15.5658H8.62654V25.8684H9.62654ZM9.62654 15.5658C9.62654 15.0222 9.19144 14.4737 8.529 14.4737V15.4737C8.54862 15.4737 8.56157 15.4775 8.57047 15.4814C8.58 15.4857 8.58944 15.4922 8.59825 15.5015C8.61838 15.5229 8.62654 15.5494 8.62654 15.5658H9.62654ZM8.529 14.4737H7.21441V15.4737H8.529V14.4737ZM7.21441 14.4737C7.25204 14.4737 7.27855 14.4828 7.29263 14.4893C7.30668 14.4958 7.3149 14.5026 7.31986 14.5075C7.3248 14.5124 7.33203 14.5209 7.33904 14.5358C7.34608 14.5508 7.35589 14.5788 7.35589 14.6184H6.35589C6.35589 14.8715 6.47842 15.0815 6.61599 15.2178C6.75384 15.3544 6.96377 15.4737 7.21441 15.4737V14.4737ZM7.35589 14.6184V13.1974H6.35589V14.6184H7.35589ZM7.35589 13.1974C7.35589 7.16832 11.6416 2.625 17.3128 2.625V1.625C11.0333 1.625 6.35589 6.67379 6.35589 13.1974H7.35589ZM17.3128 2.625H18.5079V1.625H17.3128V2.625ZM18.5079 2.625C24.1809 2.625 28.4648 7.11092 28.4648 13.1974H29.4648C29.4648 6.61277 24.7858 1.625 18.5079 1.625V2.625ZM28.4648 13.1974V14.6184H29.4648V13.1974H28.4648ZM28.4648 14.6184C28.4648 14.5788 28.4747 14.5508 28.4817 14.5358C28.4887 14.5209 28.4959 14.5124 28.5009 14.5075C28.5058 14.5026 28.5141 14.4958 28.5281 14.4893C28.5422 14.4828 28.5687 14.4737 28.6063 14.4737V15.4737C28.857 15.4737 29.0669 15.3544 29.2047 15.2178C29.3423 15.0815 29.4648 14.8715 29.4648 14.6184H28.4648ZM28.6063 14.4737H27.2917V15.4737H28.6063V14.4737ZM27.2917 14.4737C26.9813 14.4737 26.7117 14.6225 26.529 14.8036C26.3466 14.9843 26.1942 15.2535 26.1942 15.5658H27.1942C27.1942 15.5758 27.1919 15.5742 27.1979 15.5614C27.204 15.5486 27.2154 15.5312 27.2329 15.5139C27.2503 15.4966 27.2682 15.4849 27.2822 15.4784C27.2961 15.472 27.2995 15.4737 27.2917 15.4737V14.4737ZM26.1942 15.5658V26.0461H27.1942V15.5658H26.1942ZM26.1942 26.0461C26.1942 26.5896 26.6293 27.1382 27.2917 27.1382V26.1382C27.2721 26.1382 27.2592 26.1344 27.2503 26.1304C27.2407 26.1262 27.2313 26.1197 27.2225 26.1103C27.2024 26.0889 27.1942 26.0624 27.1942 26.0461H26.1942ZM27.2917 27.1382H28.6063V26.1382H27.2917V27.1382ZM28.6063 27.1382C28.5941 27.1382 28.5751 27.1365 28.552 27.1301C28.5287 27.1237 28.5085 27.1144 28.4927 27.1049C28.4779 27.0961 28.4699 27.089 28.4705 27.0895C28.4727 27.0914 28.4766 27.0951 28.4934 27.1117L29.1973 26.4014C29.1316 26.3364 28.9439 26.1382 28.6063 26.1382V27.1382ZM28.4934 27.1117C28.4799 27.0983 28.4734 27.0889 28.4716 27.086C28.4693 27.0826 28.4687 27.081 28.4686 27.0809C28.4685 27.0806 28.4678 27.0792 28.4671 27.0758C28.4663 27.0725 28.4648 27.0647 28.4648 27.0526H29.4648C29.4648 26.7914 29.3449 26.5477 29.1973 26.4014L28.4934 27.1117ZM28.4664 27.0135C28.2677 29.5442 27.257 30.9831 26.1978 31.8188C25.1212 32.6682 23.9483 32.9296 23.394 33.012L23.541 34.0011C24.1817 33.9059 25.5484 33.6049 26.8172 32.6039C28.1033 31.5892 29.2437 29.8901 29.4633 27.0918L28.4664 27.0135ZM23.4675 33.0066C23.4495 33.0066 23.437 33.005 23.4301 33.0037C23.4229 33.0023 23.4259 33.002 23.4355 33.0067C23.4459 33.0119 23.4641 33.0231 23.483 33.0437C23.5027 33.0651 23.516 33.0891 23.5231 33.1103L22.5753 33.4292C22.7412 33.9223 23.222 34.0066 23.4675 34.0066V33.0066ZM23.5207 33.1032C23.0327 31.7217 21.77 30.8158 20.3005 30.8158V31.8158C21.3408 31.8158 22.2292 32.4494 22.5778 33.4363L23.5207 33.1032ZM20.3005 30.8158H18.0896V31.8158H20.3005V30.8158ZM18.0896 30.8158C17.1108 30.8158 16.2 31.2316 15.5684 31.927L16.3086 32.5993C16.7526 32.1105 17.3954 31.8158 18.0896 31.8158V30.8158ZM15.5684 31.927C14.9578 32.5992 14.5907 33.4403 14.6632 34.3742L15.6602 34.2968C15.6132 33.6913 15.8436 33.1113 16.3086 32.5993L15.5684 31.927ZM14.6621 34.3557C14.7332 36.1171 16.2212 37.5 18.0299 37.5V36.5C16.7313 36.5 15.7097 35.5145 15.6613 34.3154L14.6621 34.3557ZM7.57294 16.5987C7.55877 16.5987 7.53955 16.5957 7.5142 16.5761C7.48351 16.5525 7.43146 16.49 7.43146 16.3947H8.43146C8.43146 16.1219 8.28977 15.9113 8.12464 15.7841C7.96484 15.6609 7.76636 15.5987 7.57294 15.5987V16.5987ZM7.43146 16.3947V25.0395H8.43146V16.3947H7.43146ZM7.43146 25.0395C7.43146 24.9999 7.44127 24.9718 7.4483 24.9569C7.45532 24.942 7.46254 24.9335 7.46748 24.9286C7.47245 24.9236 7.48067 24.9169 7.49472 24.9104C7.50879 24.9039 7.53531 24.8947 7.57294 24.8947V25.8947C7.82358 25.8947 8.03351 25.7755 8.17136 25.6389C8.30892 25.5026 8.43146 25.2925 8.43146 25.0395H7.43146ZM7.57294 24.8947H5.72056V25.8947H7.57294V24.8947ZM5.72056 24.8947C4.02051 24.8947 2.63533 23.5156 2.63533 21.8421H1.63533C1.63533 24.0765 3.47686 25.8947 5.72056 25.8947V24.8947ZM2.63533 21.8421V19.6513H1.63533V21.8421H2.63533ZM2.63533 19.6513C2.63533 17.9778 4.02051 16.5987 5.72056 16.5987V15.5987C3.47686 15.5987 1.63533 17.4169 1.63533 19.6513H2.63533ZM5.72056 16.5987H7.57294V15.5987H5.72056V16.5987ZM28.3076 24.8355C28.3217 24.8355 28.3409 24.8385 28.3663 24.8581C28.397 24.8817 28.449 24.9443 28.449 25.0395H27.449C27.449 25.3123 27.5907 25.5229 27.7559 25.6501C27.9157 25.7733 28.1141 25.8355 28.3076 25.8355V24.8355ZM28.449 25.0395V16.5H27.449V25.0395H28.449ZM28.449 16.5C28.449 16.5396 28.4392 16.5677 28.4322 16.5826C28.4252 16.5975 28.4179 16.606 28.413 16.6109C28.408 16.6158 28.3998 16.6226 28.3858 16.6291C28.3717 16.6356 28.3452 16.6447 28.3076 16.6447V15.6447C28.0569 15.6447 27.847 15.764 27.7091 15.9006C27.5716 16.0369 27.449 16.2469 27.449 16.5H28.449ZM28.3076 16.6447H30.1599V15.6447H28.3076V16.6447ZM30.1599 16.6447C31.8799 16.6447 33.2452 17.938 33.2452 19.5921H34.2452C34.2452 17.3384 32.3837 15.6447 30.1599 15.6447V16.6447ZM33.2452 19.5921V21.7829H34.2452V19.5921H33.2452ZM33.2452 21.7829C33.2452 23.4564 31.86 24.8355 30.1599 24.8355V25.8355C32.4036 25.8355 34.2452 24.0173 34.2452 21.7829H33.2452ZM30.1599 24.8355H28.3076V25.8355H30.1599V24.8355ZM17.8506 32.8224H20.3603V31.8224H17.8506V32.8224ZM20.3603 32.8224C21.0319 32.8224 21.5931 33.4725 21.5931 34.2237H22.5931C22.5931 33.067 21.7203 31.8224 20.3603 31.8224V32.8224ZM21.5931 34.2237C21.5931 34.6007 21.4991 34.8993 21.2922 35.1453L22.0575 35.7889C22.4482 35.3244 22.5931 34.7809 22.5931 34.2237H21.5931ZM21.2922 35.1453C21.1143 35.3568 20.7961 35.5 20.3603 35.5V36.5C21 36.5 21.6379 36.2879 22.0575 35.7889L21.2922 35.1453ZM20.3603 35.5H17.8506V36.5H20.3603V35.5ZM17.8506 35.5C17.5827 35.5 17.2681 35.3645 17.0128 35.1118C16.76 34.8615 16.6094 34.5397 16.6094 34.2237H15.6094C15.6094 34.855 15.9041 35.4214 16.3093 35.8224C16.7119 36.221 17.2679 36.5 17.8506 36.5V35.5ZM16.6094 34.2237C16.6094 33.4443 17.2172 32.8224 17.8506 32.8224V31.8224C16.5719 31.8224 15.6094 32.9899 15.6094 34.2237H16.6094Z"
    fill="none" mask="url(#path-1-outside-1_785_584)" />
</svg>