<svg xmlns="http://www.w3.org/2000/svg" width="100%" height="100%" viewBox="0 0 40 35" testId="">
  <title>chat</title>
  <path
    d="M0.000703461 9.32233C0.241755 8.39551 0.667639 7.59131 1.42593 6.99627C2.08302 6.48295 2.88488 6.20272 3.71065 6.19784C4.21454 6.18558 4.67275 6.64646 4.71351 7.13908C4.76059 7.71248 4.44646 8.17481 3.92149 8.3068C2.24396 8.72873 2.0528 8.97973 2.0528 10.7591C2.0528 15.4458 2.0528 20.134 2.0528 24.8236C2.0528 26.1219 2.68272 26.771 3.94256 26.771C4.47597 26.771 5.01008 26.771 5.54349 26.771C6.34606 26.776 6.79864 27.2319 6.80497 28.062C6.8141 29.1966 6.80497 30.3318 6.80848 31.4671C6.80848 31.545 6.81761 31.6236 6.82253 31.7008C6.96309 31.7347 6.98769 31.6193 7.0404 31.5565C8.21193 30.1616 9.38766 28.7689 10.5479 27.3631C10.8937 26.9448 11.295 26.7587 11.8368 26.7602C16.6768 26.7732 21.5162 26.7674 26.3562 26.7688C27.1482 26.7688 27.6212 27.2175 27.5853 27.9286C27.5729 28.1639 27.4826 28.3879 27.3292 28.5632C27.1758 28.7386 26.9686 28.855 26.742 28.8929C26.4714 28.9314 26.1985 28.9497 25.9254 28.9478C21.4627 28.9506 17.0001 28.949 12.5375 28.9427C12.1517 28.9427 11.8945 29.0603 11.6408 29.3668C10.2521 31.0464 8.84887 32.713 7.43114 34.3666C6.81551 35.0878 6.03613 35.1873 5.34109 34.6947C4.80065 34.3117 4.68048 33.7282 4.67627 33.108C4.66713 31.8934 4.65869 30.678 4.68118 29.4627C4.68891 29.0516 4.55047 28.9326 4.16324 28.942C2.77666 28.978 1.57703 28.5547 0.702775 27.379C0.35701 26.9131 0.168666 26.3757 0 25.8283L0.000703461 9.32233Z"
    fill="currentColor" />
  <path
    d="M23.8795 0.00296154C27.9766 0.00296154 32.074 0.00296154 36.1717 0.00296154C37.9827 0.00296154 39.3567 1.06898 39.8802 2.8476C39.9629 3.14269 40.0027 3.44867 39.9983 3.75567C39.9983 8.82899 40.0039 13.9016 39.9941 18.9742C39.9941 20.9937 38.3777 22.6627 36.4057 22.7247C36.1848 22.7388 35.9632 22.7388 35.7423 22.7247C35.405 22.6923 35.2848 22.8185 35.2897 23.1748C35.3073 24.4009 35.2953 25.6314 35.2967 26.8597C35.3067 27.167 35.2639 27.4736 35.1702 27.7656C34.7718 28.8785 33.4133 29.1418 32.5946 28.2445C32.0071 27.6026 31.4645 26.9189 30.9037 26.2517C30.0027 25.1813 29.0976 24.1139 28.2071 23.0334C28.0097 22.7933 27.7904 22.7226 27.4959 22.7233C22.1886 22.73 16.8812 22.73 11.5739 22.7233C9.74666 22.7233 8.33268 21.6465 7.84284 19.9104C7.74654 19.5635 7.69921 19.2043 7.70229 18.8437C7.70229 13.8511 7.70346 8.85832 7.70581 3.8653C7.70581 1.68277 9.33694 0.0108975 11.4692 0.00512743C15.6064 -0.00497018 19.7429 0.00296154 23.8795 0.00296154ZM33.161 25.6365V25.3112C33.161 24.1362 33.154 22.9613 33.1645 21.7871C33.1708 21.0392 33.6157 20.5978 34.3382 20.5927C34.9004 20.5891 35.457 20.5927 36.0157 20.5927C37.2582 20.5833 37.9174 19.9039 37.9174 18.6309C37.9174 13.7855 37.9174 8.93983 37.9174 4.09394C37.9174 2.82019 37.2561 2.13933 36.0136 2.13861H11.7039C10.4389 2.13861 9.78391 2.8137 9.7832 4.11774C9.7832 8.92372 9.7832 13.7292 9.7832 18.5342C9.7832 19.9515 10.4052 20.5941 11.7798 20.5941C17.2427 20.5941 22.7054 20.592 28.1678 20.5877C28.6808 20.5877 29.068 20.7571 29.3892 21.1574C29.7863 21.6522 30.2016 22.1304 30.6099 22.6151C31.4315 23.5917 32.2593 24.5683 33.161 25.6365Z"
    fill="currentColor" />
  <path
    d="M18.6348 11.7321C18.6334 11.3953 18.7612 11.0716 18.9906 10.8308C19.2199 10.5901 19.5324 10.4516 19.8604 10.4453C20.5245 10.4453 21.1029 11.0447 21.098 11.7313C21.0933 12.0616 20.9638 12.377 20.7369 12.6112C20.5099 12.8453 20.2032 12.9798 19.8815 12.9863C19.719 12.9895 19.5575 12.9594 19.4065 12.8978C19.2554 12.8362 19.1179 12.7443 19.0018 12.6276C18.8857 12.5108 18.7935 12.3715 18.7305 12.2177C18.6675 12.064 18.6349 11.8989 18.6348 11.7321Z"
    fill="currentColor" />
  <path
    d="M29.0667 11.7176C29.0684 11.8844 29.0377 12.0499 28.9765 12.2044C28.9152 12.3589 28.8247 12.4993 28.71 12.6175C28.5953 12.7358 28.4589 12.8294 28.3086 12.8929C28.1584 12.9565 27.9973 12.9887 27.8348 12.9878C27.5129 12.9843 27.2048 12.8531 26.9752 12.6215C26.7456 12.3899 26.6124 12.076 26.6035 11.7458C26.6044 11.409 26.7323 11.0857 26.9604 10.8436C27.1885 10.6016 27.4991 10.4596 27.827 10.4475C28.4947 10.4345 29.0646 11.0194 29.0667 11.7176Z"
    fill="currentColor" />
  <path
    d="M25.0829 11.7313C25.0752 12.0613 24.942 12.3752 24.7119 12.6058C24.4818 12.8364 24.1729 12.9655 23.8512 12.9655C23.5296 12.9655 23.2207 12.8364 22.9906 12.6058C22.7604 12.3752 22.6273 12.0613 22.6196 11.7313C22.6208 11.3944 22.7502 11.0713 22.9803 10.8309C23.2103 10.5906 23.5227 10.4519 23.8509 10.4446C24.5178 10.4446 25.0864 11.0382 25.0829 11.7313Z"
    fill="currentColor" />
</svg>