<svg xmlns="http://www.w3.org/2000/svg" width="22" height="18" viewBox="0 0 22 18" fill="none" id="coupons">
  <path d="M7.18463 13.0019L14.877 5.30954M1 15.3096C0.999999 15.7171 1.16166 16.1079 1.44952 16.3963C1.73737 16.6848 2.12789 16.8472 2.53539 16.848H19.4647C19.8721 16.8472 20.2627 16.6848 20.5505 16.3963C20.8384 16.1079 21 15.7171 21 15.3096V12.9453C21 12.4938 20.6876 12.1124 20.2934 11.8924C19.9214 11.6849 19.5932 11.4023 19.3311 11.0597C18.9129 10.5131 18.6864 9.84396 18.6864 9.1557C18.6864 8.46744 18.9129 7.79833 19.3311 7.25167C19.5932 6.90907 19.9214 6.62651 20.2934 6.41896C20.6876 6.19898 21 5.81763 21 5.36613V3.00184C21 2.59435 20.8384 2.2035 20.5505 1.91507C20.2627 1.62664 19.8721 1.46419 19.4647 1.46338H2.53539C2.12789 1.46419 1.73737 1.62664 1.44952 1.91507C1.16166 2.2035 0.999999 2.59435 1 3.00184V5.35393C1 5.80825 1.31615 6.19123 1.71415 6.41033C2.08902 6.6167 2.4201 6.89901 2.68471 7.24221C3.10744 7.79051 3.33671 8.46336 3.33671 9.1557C3.33671 9.84804 3.10744 10.5209 2.68471 11.0692C2.4201 11.4124 2.08902 11.6947 1.71415 11.9011C1.31615 12.1202 1 12.5032 1 12.9575V15.3096Z" stroke="#292929" stroke-width="1.3" stroke-linecap="round" stroke-linejoin="round"/>
  <path d="M8.95735 5.07525L8.49773 5.53487L8.95735 5.07525C8.69119 4.8091 8.33021 4.65957 7.9538 4.65957C7.5774 4.65957 7.21641 4.8091 6.95025 5.07525C6.6841 5.34141 6.53457 5.7024 6.53457 6.0788C6.53457 6.45521 6.6841 6.81619 6.95025 7.08235L7.40987 6.62273L6.95025 7.08235C7.21641 7.34851 7.5774 7.49803 7.9538 7.49803C8.33021 7.49803 8.69119 7.34851 8.95735 7.08235L8.49773 6.62273L8.95735 7.08235C9.22351 6.81619 9.37303 6.45521 9.37303 6.0788C9.37303 5.7024 9.22351 5.34141 8.95735 5.07525ZM14.1077 13.6519C14.4841 13.6519 14.8451 13.5024 15.1112 13.2362C15.3774 12.9701 15.5269 12.6091 15.5269 12.2327C15.5269 11.8563 15.3774 11.4953 15.1112 11.2291C14.8451 10.963 14.4841 10.8134 14.1077 10.8134C13.7313 10.8134 13.3703 10.963 13.1041 11.2291C12.838 11.4953 12.6884 11.8563 12.6884 12.2327C12.6884 12.6091 12.838 12.9701 13.1041 13.2362C13.3703 13.5024 13.7313 13.6519 14.1077 13.6519Z" stroke="#292929" stroke-width="1.3" stroke-linecap="round" stroke-linejoin="round"/>
</svg>