<svg xmlns="http://www.w3.org/2000/svg" width="100%" height="100%" testId="">
  <title>email</title>
  <path
    d="M19.9968 39.9694C14.6725 39.9694 9.34672 39.9103 4.02327 39.9993C2.03326 40.0331 -0.0306767 38.795 0.0078649 36.1002C0.0330349 34.365 0.0125853 32.6283 0.0125853 30.8924C0.0125853 25.7444 0.0235969 20.5956 0 15.4476C0 14.6629 0.229675 14.1198 0.915557 13.6618C2.21968 12.7912 3.45851 11.8261 4.7351 10.9156C4.86124 10.8358 4.96311 10.7245 5.03007 10.5932C5.09704 10.4619 5.12664 10.3155 5.1158 10.1692C5.10007 9.04159 5.10636 7.91395 5.11108 6.78632C5.11108 5.94251 5.39897 5.65715 6.25868 5.65485C7.98912 5.65025 9.72742 5.64795 11.4618 5.65485C11.7801 5.66587 12.0923 5.5679 12.3443 5.37793C14.6196 3.71282 16.9006 2.05384 19.1874 0.401002C19.9189 -0.131364 20.088 -0.135966 20.8392 0.401002C23.1202 2.03338 25.3989 3.66986 27.6752 5.31042C27.986 5.54753 28.3717 5.67175 28.7662 5.66176C30.4093 5.64488 32.0524 5.65255 33.6955 5.65562C34.6245 5.65562 34.8998 5.9241 34.9029 6.82007C34.9029 7.8733 34.9187 8.92729 34.8951 9.98051C34.8872 10.3495 35.0201 10.5804 35.3214 10.7913C36.7034 11.7632 38.0649 12.762 39.4493 13.7308C39.6211 13.8407 39.7617 13.9911 39.858 14.1681C39.9543 14.3451 40.0031 14.5431 39.9998 14.7434C39.9998 14.906 39.9998 15.0694 39.9998 15.2328C39.9998 22.1019 39.9998 28.9713 39.9998 35.8409C39.9998 36.3456 39.9841 36.8504 39.8583 37.3421C39.6717 38.0923 39.2314 38.7594 38.6085 39.2357C37.9857 39.7121 37.2165 39.97 36.4249 39.9679C30.9499 39.9709 25.4739 39.9715 19.9968 39.9694ZM2.87331 38.2718C3.34132 38.472 3.74561 38.4843 4.15305 38.4843H35.8672C36.0041 38.4843 36.1418 38.4881 36.2778 38.4789C37.615 38.3884 38.4134 37.583 38.4141 36.2927C38.4173 29.6619 38.4173 23.0309 38.4141 16.3996C38.4141 16.2745 38.4873 16.1027 38.3473 16.0314C38.2073 15.96 38.1019 16.1127 37.9925 16.1848C33.9779 18.7055 29.9641 21.2282 25.9511 23.753L7.85461 35.1329C6.22092 36.16 4.58723 37.1918 2.87331 38.2718ZM20.0031 7.20439C15.7446 7.20439 11.4859 7.20311 7.22694 7.20055C6.89579 7.20055 6.69207 7.2274 6.69443 7.64547C6.71016 10.7752 6.70545 13.905 6.69837 17.0347C6.68961 17.1516 6.71579 17.2684 6.77372 17.3711C6.83166 17.4737 6.91887 17.5578 7.02479 17.6131C11.2649 20.2013 15.5016 22.7956 19.7349 25.3961C20.0117 25.5664 20.2107 25.5495 20.4734 25.38C24.6092 22.7719 28.7499 20.1678 32.8956 17.5679C33.2024 17.3761 33.3141 17.1628 33.3125 16.8107C33.2999 13.8145 33.3054 10.8182 33.3054 7.8219C33.3054 7.20822 33.3054 7.20822 32.688 7.20822L20.0031 7.20439ZM1.592 26.4946C1.592 29.698 1.592 32.9014 1.592 36.1048C1.58647 36.2677 1.58963 36.4308 1.60144 36.5934C1.65965 37.1365 1.721 37.1634 2.18586 36.8703L18.1688 26.8168C18.6289 26.5268 18.6313 26.523 18.1688 26.2407C12.8003 22.9524 7.43039 19.6659 2.05922 16.3812C1.93652 16.3045 1.81224 16.138 1.66594 16.2109C1.51964 16.2838 1.59672 16.4809 1.59672 16.6205C1.59148 19.9129 1.5899 23.2042 1.592 26.4946ZM25.3981 5.62417C25.3538 5.572 25.3063 5.52256 25.2557 5.47612C23.615 4.29939 21.9695 3.12727 20.335 1.9421C20.0715 1.75109 19.8874 1.80095 19.6507 1.97508C18.2427 3.0099 16.8246 4.03398 15.4111 5.06189C15.1854 5.22528 14.9628 5.3925 14.6466 5.6257L25.3981 5.62417ZM34.8998 14.3115V15.914C34.8998 16.1142 34.947 16.2577 35.1877 16.1073C35.9821 15.6118 36.7752 15.1142 37.567 14.6145C37.7172 14.521 37.7456 14.4266 37.5827 14.3077C36.7852 13.7385 35.9894 13.1673 35.1955 12.594C34.9784 12.4406 34.8998 12.5257 34.8998 12.7536C34.9008 13.2716 34.9008 13.7909 34.8998 14.3115V14.3115ZM5.10951 12.5518C4.15777 13.2422 3.30042 13.8712 2.4352 14.4956C2.24485 14.6337 2.31328 14.7258 2.47688 14.8217C3.25165 15.2904 4.02563 15.7598 4.79331 16.2385C5.04265 16.3919 5.10794 16.3152 5.10794 16.0605C5.10794 15.2305 5.10794 14.4005 5.10794 13.5705L5.10951 12.5518Z"
    fill="currentColor" />
  <path
    d="M23.0601 15.5573C23.0601 16.1792 23.0601 16.801 23.0601 17.4229C23.0601 17.6024 23.0758 17.7765 23.1859 17.9322C23.4297 18.2759 23.8655 18.282 24.0826 17.923C24.4913 17.2521 24.686 16.4777 24.6418 15.6985C24.505 13.3151 23.053 11.7625 20.6304 11.326C18.2668 10.9033 15.745 12.7513 15.4029 15.0648C15.0489 17.4559 16.8643 19.9528 19.4143 20.2911C20.1915 20.3939 20.9434 20.2711 21.6726 20.0011C21.7819 19.9612 21.8881 19.9113 21.9974 19.8715C22.4324 19.7119 22.784 19.807 22.9413 20.1261C23.0986 20.4452 22.9869 20.7943 22.6078 21.0398C22.0572 21.3949 21.4224 21.4946 20.7916 21.566C17.5612 21.935 14.8751 20.0602 14.1664 16.9634C13.3138 13.2407 16.4474 9.68671 20.3386 9.96747C23.2402 10.1777 25.4984 12.1706 25.931 14.9881C26.1324 16.2991 25.9106 17.574 25.135 18.7024C24.7323 19.2877 24.1723 19.6521 23.4132 19.5025C22.7777 19.3782 22.2405 19.0637 21.9542 18.4646C21.833 18.2107 21.7339 18.2092 21.4972 18.3396C20.3645 18.9625 19.2382 18.9018 18.2023 18.1524C17.1663 17.4029 16.7801 16.3451 17.0649 15.1239C17.3559 13.8789 18.2085 13.1218 19.4906 12.8832C20.1498 12.7534 20.8347 12.8596 21.4201 13.1824C21.5617 13.2591 21.6812 13.3419 21.8134 13.1448C21.9974 12.8617 22.2853 12.7889 22.5999 12.8878C22.9303 12.9921 23.0459 13.2714 23.0514 13.5782C23.0632 14.2379 23.0514 14.8984 23.0514 15.5581L23.0601 15.5573ZM19.9854 17.426C20.433 17.4247 20.862 17.2509 21.1787 16.9423C21.4954 16.6338 21.6741 16.2156 21.6757 15.779C21.671 14.8999 20.8962 14.142 20.0035 14.1435C19.1107 14.1451 18.3336 14.903 18.3336 15.7813C18.3336 16.6596 19.0911 17.4244 19.9854 17.426Z"
    fill="currentColor" />
</svg>