<svg xmlns="http://www.w3.org/2000/svg" width="100%" height="100%" viewBox="0 0 64 64" testId="">
  <title>fit guarantee</title>
  <g clipPath="url(#clip0_26_485)">
    <rect width="64" height="64" rx="32" fill="#F5BAB0" />
    <path d="M0 30L18 43L41.5 32L69.5 35L85 30V72H0V30Z" fill="#FE9D8C" />
    <g clipPath="url(#clip1_26_485)">
      <path
        d="M13.553 20.6118V22.9647H35.9059V40.6118H28.6636C28.1389 38.5894 26.32 37.0824 24.1412 37.0824C21.9624 37.0824 20.1436 38.5894 19.6189 40.6118H18.2589V34.7294H15.9059V42.9647H19.6189C20.1436 44.9871 21.9624 46.4941 24.1412 46.4941C26.32 46.4941 28.1389 44.9871 28.6636 42.9647H38.4424C38.9671 44.9871 40.7859 46.4941 42.9647 46.4941C45.1436 46.4941 46.9624 44.9871 47.4871 42.9647H51.2V33.3694L51.1259 33.1847L48.773 26.1259L48.5177 25.3176H38.2589V20.6118H13.553ZM14.7294 25.3176V27.6706H25.3177V25.3176H14.7294ZM38.2589 27.6706H46.8247L48.8471 33.7V40.6118H47.4871C46.9624 38.5894 45.1436 37.0824 42.9647 37.0824C40.7859 37.0824 38.9671 38.5894 38.4424 40.6118H38.2589V27.6706ZM15.9059 30.0235V32.3765H22.9647V30.0235H15.9059ZM24.1412 39.4353C25.4553 39.4353 26.4942 40.4741 26.4942 41.7882C26.4942 43.1024 25.4553 44.1412 24.1412 44.1412C22.8271 44.1412 21.7883 43.1024 21.7883 41.7882C21.7883 40.4741 22.8271 39.4353 24.1412 39.4353ZM42.9647 39.4353C44.2789 39.4353 45.3177 40.4741 45.3177 41.7882C45.3177 43.1024 44.2789 44.1412 42.9647 44.1412C41.6506 44.1412 40.6118 43.1024 40.6118 41.7882C40.6118 40.4741 41.6506 39.4353 42.9647 39.4353Z"
        fill="currentColor" />
    </g>
  </g>
  <defs>
    <clipPath id="clip0_26_485">
      <rect width="64" height="64" rx="32" fill="white" />
    </clipPath>
    <clipPath id="clip1_26_485">
      <rect width="37.6471" height="37.6471" fill="white" transform="translate(13.553 13.5529)" />
    </clipPath>
  </defs>
</svg>