<svg xmlns="http://www.w3.org/2000/svg" width="100%" height="100%" viewBox="0 0 18 18" id="fit_predictor">
  <title>fit predictor</title>
  <path
    d="M9.125 0C4 0 0 3.97241 0 8.93793C0 13.9034 4 18 9 18C14 18 18 14.0276 18 9.06207C18 4.09655 14.125 0 9.125 0ZM13.125 4.84138C12.125 4.84138 12 3.6 11.625 3.6C11.375 3.6 11 6.2069 11 6.2069H13.625L13.25 7.44828H10.75C9.75 12.1655 9.125 15.5172 5.75 15.5172C3.375 15.5172 3.625 13.2828 5 13.1586C6.5 13.0345 6.25 14.4 6.5 14.4C7.125 14.4 8.375 7.57241 8.375 7.44828H5.875L6.25 6.2069H8.625C9.75 1.11724 13.75 2.35862 14.125 3.22759C14.625 4.34483 13.625 4.96552 13.125 4.84138Z"
    fill="currentColor" />
</svg>