<svg width="100%" height="100%" viewBox="0 0 28 20" fill="none" xmlns="http://www.w3.org/2000/svg" id="flag_uk">
<g clip-path="url(#clip0_20_4901)">
<path d="M16.6251 19.625H23.6251C24.49 19.625 25.225 19.4299 25.8353 19.0899L16.6251 13.5958V19.625ZM27.8513 16.2169C27.9511 15.7719 28.0018 15.3008 28.0018 14.8121V12.6246H21.8287L27.8496 16.2169M0.153184 3.76956C0.0493714 4.23501 -0.00199029 4.71062 5.89765e-05 5.1875V7.375H6.19681L0.153184 3.76956ZM11.3751 0.375H4.37506C3.51625 0.375 2.78606 0.5675 2.17837 0.902625L11.3751 6.38888V0.375ZM2.20637 19.1114C2.80837 19.4369 3.52893 19.625 4.37506 19.625H11.3751V13.6418L2.20637 19.1114ZM5.89765e-05 12.625V14.8125C5.89765e-05 15.3161 0.053434 15.8013 0.158871 16.2576L6.24843 12.625H5.89765e-05ZM25.8629 0.924063C25.2477 0.574938 24.5027 0.375 23.6251 0.375H16.6251V6.43481L25.8629 0.924063ZM28.0001 7.375V5.1875C28.0001 4.70888 27.9506 4.24731 27.8548 3.81069L21.8803 7.375H28.0001Z" fill="#2E3192"/>
<path d="M21.8803 7.375L27.8547 3.81069C27.5809 2.55769 26.9141 1.52038 25.8628 0.924063L16.625 6.43481V0.375H15.75V8.25H28V7.375H21.8803ZM0 11.75V12.625H6.24837L0.158813 16.2576C0.448 17.5066 1.13488 18.5321 2.20631 19.1114L11.375 13.6418V19.625H12.25V11.75H0ZM28 11.75H15.75V19.625H16.625V13.5958L25.8352 19.0904C26.8944 18.5006 27.5695 17.469 27.8495 16.2178L21.8286 12.625H28V11.75ZM11.375 0.375V6.38888L2.17831 0.902625C1.11519 1.48888 0.43575 2.51875 0.152688 3.76956L6.19675 7.375H0V8.25H12.25V0.375H11.375Z" fill="#E6E7E8"/>
<path d="M15.75 8.25V0.375H12.25V8.25H0V11.75H12.25V19.625H15.75V11.75H28V8.25H15.75Z" fill="#BE1E2D"/>
<path d="M9.5979 7.37508L0.826024 2.13864C0.637462 2.41864 0.486087 2.72664 0.360962 3.05477L7.60027 7.37508H9.59659M27.6019 17.0395L20.2462 12.6251H18.2092L27.0961 17.9709C27.3017 17.6826 27.4716 17.3704 27.6019 17.0412M26.5646 1.42114L16.6115 7.37508L18.6323 7.37639L27.2208 2.23446C27.0292 1.88577 26.8271 1.66089 26.5646 1.42114ZM0.793212 17.8204C0.990031 18.1201 1.22687 18.3915 1.49715 18.6271L11.4026 12.6251H9.40627L0.793212 17.8204Z" fill="#BE1E2D"/>
</g>
<defs>
<clipPath id="clip0_20_4901">
<rect width="28.0018" height="19.25" fill="white" transform="translate(0 0.375)"/>
</clipPath>
</defs>
</svg>
