<svg width="100%" height="100%" viewBox="0 0 28 20" fill="none" xmlns="http://www.w3.org/2000/svg" id="flag_aus">
<g clip-path="url(#clip0_18_4895)">
<path d="M24.8889 0H3.11111C2.95141 0 2.79481 0.0115385 2.64133 0.0346154L2.63822 1.38385L0.514889 1.38077C0.178899 1.88403 -0.000147483 2.47385 9.1152e-08 3.07692V16.9231C9.1152e-08 17.7391 0.327777 18.5218 0.911223 19.0988C1.49467 19.6758 2.28599 20 3.11111 20H24.8889C25.714 20 26.5053 19.6758 27.0888 19.0988C27.6722 18.5218 28 17.7391 28 16.9231V3.07692C28 2.26087 27.6722 1.47824 27.0888 0.90121C26.5053 0.324175 25.714 0 24.8889 0Z" fill="#00247D"/>
<path d="M7.00004 16.1716L6.04959 17.04L6.1437 15.7631L4.86426 15.57L5.93215 14.8469L5.28737 13.7369L6.52481 14.1123L7.00004 12.9208L7.47604 14.1123L8.71348 13.7369L8.06792 14.8469L9.13659 15.57L7.85715 15.7631L7.95126 17.04L7.00004 16.1716ZM21.7389 3.50925L21.1175 4.07694L21.1789 3.24155L20.3413 3.1154L21.0405 2.64232L20.6189 1.91617L21.4278 2.16156L21.7389 1.38232L22.0508 2.16156L22.8605 1.91617L22.4381 2.64232L23.1366 3.1154L22.2997 3.24155L22.3611 4.07694L21.7389 3.50925ZM18.6278 8.12463L18.0064 8.69309L18.0678 7.85771L17.2301 7.73155L17.9294 7.25771L17.5078 6.53156L18.3167 6.77694L18.6278 5.99771L18.9397 6.77694L19.7494 6.53156L19.327 7.25771L20.0255 7.73155L19.1886 7.85771L19.25 8.69309L18.6278 8.12463ZM25.6278 6.58617L25.0064 7.15463L25.0678 6.31925L24.2301 6.19309L24.9294 5.71925L24.5078 4.99309L25.3167 5.23848L25.6278 4.45925L25.9397 5.23848L26.7494 4.99309L26.327 5.71925L27.0255 6.19309L26.1886 6.31925L26.25 7.15463L25.6278 6.58617ZM21.7389 17.3554L21.1175 17.9239L21.1789 17.0885L20.3413 16.9623L21.0405 16.4885L20.6189 15.7623L21.4278 16.0077L21.7389 15.2285L22.0508 16.0077L22.8605 15.7623L22.4381 16.4885L23.1366 16.9623L22.2997 17.0885L22.3611 17.9239L21.7389 17.3554ZM24.1111 8.46156L24.3398 8.92002L24.8508 8.99309L24.4814 9.34925L24.5685 9.85309L24.1111 9.6154L23.6538 9.85309L23.7409 9.34925L23.3715 8.99309L23.8825 8.92002L24.1111 8.46156Z" fill="white"/>
<path d="M14.7778 10V0H3.11111C2.86222 0 2.64133 0.0346154 2.64133 0.0346154L2.63822 1.38385L0.514889 1.38077C0.514889 1.38077 0.482222 1.42615 0.416111 1.53846C0.143299 2.00628 -0.000212223 2.53687 2.35556e-07 3.07692V10H14.7778Z" fill="#00247D"/>
<path d="M14.7778 0H12.9648L9.33333 2.51462V0H5.44444V1.97615L2.64133 0.0346154C2.17376 0.103638 1.72867 0.278716 1.34089 0.546154L4.998 3.07692H3.64778L0.752111 1.07C0.666482 1.16853 0.58725 1.27233 0.514889 1.38077L2.96567 3.07692H0V6.92308H3.02167L0 9.05077V10H2.59156L5.44444 8.02462V10H9.33333V7.48538L12.964 10H14.7778V8.43923L12.5883 6.92308H14.7778V3.07692H12.5891L14.7778 1.56077V0Z" fill="#EEEEEE"/>
<path d="M8.55556 0H6.22222V3.84615H0V6.15385H6.22222V10H8.55556V6.15385H14.7778V3.84615H8.55556V0Z" fill="#CF1B2B"/>
<path d="M14.7778 0H13.6415L9.33337 2.98385V3.07692H10.5553L14.7778 0.152308V0ZM1.34092 0.546154C1.1229 0.69525 0.925039 0.871291 0.752145 1.07L3.64781 3.07692H4.99726L1.34092 0.546154ZM5.00659 6.92308L0.570923 10H1.91414L5.44448 7.55538V6.92308H5.00659ZM14.7778 9.84769V8.90923L11.9101 6.92308H10.5545L14.7778 9.84769Z" fill="#CF1B2B"/>
</g>
<defs>
<clipPath id="clip0_18_4895">
<rect width="28" height="20" fill="white"/>
</clipPath>
</defs>
</svg>
