<svg width="100%" height="100%" viewBox="0 0 28 20" fill="none" xmlns="http://www.w3.org/2000/svg" id="flag_usa">
<g clip-path="url(#clip0_18_4887)">
<path d="M27.5683 1.53846C27.0293 0.622308 26.0377 0 24.8889 0H14V1.53846H27.5683ZM0 15.3846H28V16.9231H0V15.3846ZM14 9.23077H28V10.7692H14V9.23077ZM14 6.15385H28V7.69231H14V6.15385ZM0 12.3077H28V13.8462H0V12.3077ZM3.11111 20H24.8889C26.0377 20 27.0293 19.3777 27.5683 18.4615H0.431667C0.970667 19.3777 1.96233 20 3.11111 20ZM14 3.07692H28V4.61538H14V3.07692Z" fill="#B22334"/>
<path d="M0.0528889 17.4455C0.0658519 17.5173 0.0811482 17.5883 0.0987778 17.6586C0.119519 17.7355 0.14337 17.8114 0.170333 17.8863C0.239556 18.0855 0.323556 18.2778 0.429333 18.4578L0.431667 18.4617H27.5683L27.5699 18.4586C27.6753 18.2777 27.7618 18.0867 27.8281 17.8886C27.8786 17.744 27.9181 17.5959 27.9463 17.4455C27.9782 17.2763 28 17.1024 28 16.9232H0C0 17.1024 0.0217778 17.2755 0.0528889 17.4455ZM0 13.8463H28V15.3847H0V13.8463ZM0 10.7693V12.3078H28V10.7693H14H0ZM14 7.69242H28V9.23088H14V7.69242ZM14 4.6155H28V6.15396H14V4.6155ZM0.0995556 2.34165C0.119 2.26319 0.146222 2.18857 0.171111 2.11319C0.144275 2.1884 0.120405 2.26461 0.0995556 2.34165ZM14 3.07704H28C28 2.89781 27.9782 2.72396 27.9463 2.55396C27.9191 2.40327 27.8793 2.25507 27.8273 2.11088C27.7609 1.91189 27.6741 1.72012 27.5683 1.53857H14V3.07704Z" fill="#EEEEEE"/>
<path d="M14 0H3.11111C2.28599 0 1.49467 0.324175 0.911223 0.90121C0.327777 1.47824 0 2.26087 0 3.07692L0 10.7692H14V0Z" fill="#3C3B6E"/>
<path d="M1.5564 2.09704L2.03706 2.44242L1.85351 3.00011L2.3334 2.6555L2.81406 3.00011L2.63051 2.44242L3.11117 2.09704H2.51695L2.3334 1.53857L2.15062 2.09704H1.5564ZM3.11195 3.6355L3.59262 3.98088L3.40906 4.53857L3.88895 4.19396L4.36962 4.53857L4.18606 3.98088L4.66673 3.6355H4.07251L3.88895 3.07704L3.70617 3.6355H3.11195ZM6.22306 3.6355L6.70373 3.98088L6.52017 4.53857L7.00006 4.19396L7.48073 4.53857L7.29717 3.98088L7.77784 3.6355H7.18362L7.00006 3.07704L6.81729 3.6355H6.22306ZM9.33417 3.6355L9.81484 3.98088L9.63128 4.53857L10.1112 4.19396L10.5918 4.53857L10.4083 3.98088L10.889 3.6355H10.2947L10.1112 3.07704L9.9284 3.6355H9.33417ZM3.11195 6.71242L3.59262 7.0578L3.40906 7.6155L3.88895 7.27088L4.36962 7.6155L4.18606 7.0578L4.66673 6.71242H4.07251L3.88895 6.15396L3.70617 6.71242H3.11195ZM6.22306 6.71242L6.70373 7.0578L6.52017 7.6155L7.00006 7.27088L7.48073 7.6155L7.29717 7.0578L7.77784 6.71242H7.18362L7.00006 6.15396L6.81729 6.71242H6.22306ZM9.33417 6.71242L9.81484 7.0578L9.63128 7.6155L10.1112 7.27088L10.5918 7.6155L10.4083 7.0578L10.889 6.71242H10.2947L10.1112 6.15396L9.9284 6.71242H9.33417ZM4.66751 2.09704L5.14817 2.44242L4.96462 3.00011L5.44451 2.6555L5.92517 3.00011L5.74162 2.44242L6.22229 2.09704H5.62806L5.44451 1.53857L5.26173 2.09704H4.66751ZM7.77862 2.09704L8.25928 2.44242L8.07573 3.00011L8.55562 2.6555L9.03629 3.00011L8.85273 2.44242L9.3334 2.09704H8.73917L8.55562 1.53857L8.37284 2.09704H7.77862ZM10.8897 2.09704L11.3704 2.44242L11.1868 3.00011L11.6667 2.6555L12.1474 3.00011L11.9638 2.44242L12.4445 2.09704H11.8503L11.6667 1.53857L11.484 2.09704H10.8897ZM1.5564 5.17396L2.03706 5.51934L1.85351 6.07704L2.3334 5.73242L2.81406 6.07704L2.63051 5.51934L3.11117 5.17396H2.51695L2.3334 4.6155L2.15062 5.17396H1.5564ZM4.96462 6.07704L5.44451 5.73242L5.92517 6.07704L5.74162 5.51934L6.22229 5.17396H5.62806L5.44451 4.6155L5.26173 5.17396H4.66751L5.14817 5.51934L4.96462 6.07704ZM7.77862 5.17396L8.25928 5.51934L8.07573 6.07704L8.55562 5.73242L9.03629 6.07704L8.85273 5.51934L9.3334 5.17396H8.73917L8.55562 4.6155L8.37284 5.17396H7.77862ZM10.8897 5.17396L11.3704 5.51934L11.1868 6.07704L11.6667 5.73242L12.1474 6.07704L11.9638 5.51934L12.4445 5.17396H11.8503L11.6667 4.6155L11.484 5.17396H10.8897ZM1.5564 8.25088L2.03706 8.59627L1.85351 9.15396L2.3334 8.80934L2.81406 9.15396L2.63051 8.59627L3.11117 8.25088H2.51695L2.3334 7.69242L2.15062 8.25088H1.5564ZM4.96462 9.15396L5.44451 8.80934L5.92517 9.15396L5.74162 8.59627L6.22229 8.25088H5.62806L5.44451 7.69242L5.26173 8.25088H4.66751L5.14817 8.59627L4.96462 9.15396ZM7.77862 8.25088L8.25928 8.59627L8.07573 9.15396L8.55562 8.80934L9.03629 9.15396L8.85273 8.59627L9.3334 8.25088H8.73917L8.55562 7.69242L8.37284 8.25088H7.77862ZM10.8897 8.25088L11.3704 8.59627L11.1868 9.15396L11.6667 8.80934L12.1474 9.15396L11.9638 8.59627L12.4445 8.25088H11.8503L11.6667 7.69242L11.484 8.25088H10.8897Z" fill="white"/>
</g>
<defs>
<clipPath id="clip0_18_4887">
<rect width="28" height="20" fill="white"/>
</clipPath>
</defs>
</svg>
