<svg xmlns="http://www.w3.org/2000/svg" width="100%" height="100%" viewBox="0 0 20 20" fill="none" id="flag_sg">
  <g clip-path="url(#clip0_130_3992)">
    <path d="M20 15.0001C20 15.5894 19.7659 16.1547 19.3491 16.5714C18.9324 16.9882 18.3671 17.2223 17.7778 17.2223H2.22222C1.63285 17.2223 1.06762 16.9882 0.650874 16.5714C0.234126 16.1547 0 15.5894 0 15.0001V5.00005C0 4.41068 0.234126 3.84545 0.650874 3.42871C1.06762 3.01196 1.63285 2.77783 2.22222 2.77783H17.7778C18.3671 2.77783 18.9324 3.01196 19.3491 3.42871C19.7659 3.84545 20 4.41068 20 5.00005V15.0001Z" fill="#EEEEEE"/>
    <path d="M20 10.0001V5.00005C20 4.41068 19.7659 3.84545 19.3491 3.42871C18.9324 3.01196 18.3671 2.77783 17.7778 2.77783H2.22222C1.63285 2.77783 1.06762 3.01196 0.650874 3.42871C0.234126 3.84545 0 4.41068 0 5.00005L0 10.0001H20Z" fill="#ED2939"/>
    <path d="M3.33317 6.38893C3.33317 4.95282 4.23539 3.75115 5.44984 3.42449C5.21178 3.365 4.96743 3.33441 4.72206 3.33337C3.91168 3.33337 3.13448 3.6553 2.56146 4.22833C1.98843 4.80135 1.6665 5.57855 1.6665 6.38893C1.6665 7.19931 1.98843 7.97651 2.56146 8.54953C3.13448 9.12256 3.91168 9.44449 4.72206 9.44449C4.97317 9.44449 5.21595 9.41115 5.44984 9.35337C4.23539 9.02671 3.33317 7.82504 3.33317 6.38893Z" fill="white"/>
    <path d="M6.66668 3.88892L6.79168 4.2728H7.19501L6.86835 4.51003L6.99335 4.89392L6.66668 4.65669L6.34001 4.89392L6.46501 4.51003L6.13835 4.2728H6.54168L6.66668 3.88892ZM5.55557 7.77781L5.68057 8.16169H6.0839L5.75724 8.39892L5.88224 8.7828L5.55557 8.54558L5.2289 8.7828L5.3539 8.39892L5.02724 8.16169H5.43057L5.55557 7.77781ZM7.77779 7.77781L7.90279 8.16169H8.30612L7.97946 8.39892L8.10446 8.7828L7.77779 8.54558L7.45112 8.7828L7.57612 8.39892L7.24946 8.16169H7.65279L7.77779 7.77781ZM5.00001 5.55558L5.12501 5.93947H5.52835L5.20168 6.17669L5.32668 6.56058L5.00001 6.32336L4.67335 6.56058L4.79835 6.17669L4.47168 5.93947H4.87501L5.00001 5.55558ZM8.33335 5.55558L8.45835 5.93947H8.86168L8.53501 6.17669L8.66001 6.56058L8.33335 6.32336L8.00668 6.56058L8.13168 6.17669L7.80501 5.93947H8.20835L8.33335 5.55558Z" fill="#EEEEEE"/>
  </g>
  <defs>
    <clipPath id="clip0_130_3992">
      <rect width="20" height="20" fill="white"/>
    </clipPath>
  </defs>
</svg>