<svg xmlns="http://www.w3.org/2000/svg" fill="none" viewBox="0 2.72 20.04 14.6" style="max-height: 500px" width="100%" height="100%" id="flag_sg">
<g clip-path="url(#clip0_4_46)">
<path fill="#EEEEEE" d="M20 15C20 15.5894 19.7659 16.1546 19.3491 16.5713C18.9324 16.9881 18.3671 17.2222 17.7778 17.2222H2.22222C1.63285 17.2222 1.06762 16.9881 0.650874 16.5713C0.234126 16.1546 0 15.5894 0 15V4.99999C0 4.41062 0.234126 3.84539 0.650874 3.42864C1.06762 3.0119 1.63285 2.77777 2.22222 2.77777H17.7778C18.3671 2.77777 18.9324 3.0119 19.3491 3.42864C19.7659 3.84539 20 4.41062 20 4.99999V15Z"/>
<path fill="#ED2939" d="M20 9.99999V4.99999C20 4.41062 19.7659 3.84539 19.3491 3.42864C18.9324 3.0119 18.3671 2.77777 17.7778 2.77777H2.22222C1.63285 2.77777 1.06762 3.0119 0.650874 3.42864C0.234126 3.84539 0 4.41062 0 4.99999L0 9.99999H20Z"/>
<path fill="white" d="M3.33332 6.38888C3.33332 4.95277 4.23555 3.75111 5.44999 3.42444C5.21194 3.36496 4.96758 3.33437 4.72221 3.33333C3.91183 3.33333 3.13464 3.65525 2.56161 4.22828C1.98858 4.80131 1.66666 5.5785 1.66666 6.38888C1.66666 7.19927 1.98858 7.97646 2.56161 8.54949C3.13464 9.12252 3.91183 9.44444 4.72221 9.44444C4.97332 9.44444 5.2161 9.41111 5.44999 9.35333C4.23555 9.02666 3.33332 7.825 3.33332 6.38888Z"/>
<path fill="#EEEEEE" d="M6.66668 3.88889L6.79168 4.27277H7.19501L6.86835 4.51L6.99335 4.89389L6.66668 4.65666L6.34001 4.89389L6.46501 4.51L6.13835 4.27277H6.54168L6.66668 3.88889ZM5.55557 7.77777L5.68057 8.16166H6.0839L5.75724 8.39889L5.88224 8.78277L5.55557 8.54555L5.2289 8.78277L5.3539 8.39889L5.02724 8.16166H5.43057L5.55557 7.77777ZM7.77779 7.77777L7.90279 8.16166H8.30612L7.97946 8.39889L8.10446 8.78277L7.77779 8.54555L7.45112 8.78277L7.57612 8.39889L7.24946 8.16166H7.65279L7.77779 7.77777ZM5.00001 5.55555L5.12501 5.93944H5.52835L5.20168 6.17666L5.32668 6.56055L5.00001 6.32333L4.67335 6.56055L4.79835 6.17666L4.47168 5.93944H4.87501L5.00001 5.55555ZM8.33335 5.55555L8.45835 5.93944H8.86168L8.53501 6.17666L8.66001 6.56055L8.33335 6.32333L8.00668 6.56055L8.13168 6.17666L7.80501 5.93944H8.20835L8.33335 5.55555Z"/>
</g>
<defs>
<clipPath id="clip0_4_46">
<rect fill="white" height="20" width="20"/>
</clipPath>
</defs>
</svg>