<svg xmlns="http://www.w3.org/2000/svg" fill="none" viewBox="0 2.4480000000000004 18.036 13.104" style="max-height: 500px" width="100%" height="100%" id="flag_nz">
<g clip-path="url(#clip0_2_11)">
<path fill="#00247D" d="M16 2.5H2C1.89733 2.5 1.79667 2.5075 1.698 2.5225L1.696 3.3995L0.331 3.3975C0.115007 3.72462 -9.48107e-05 4.108 5.85977e-08 4.5V13.5C5.85977e-08 14.0304 0.210714 14.5391 0.585787 14.9142C0.960859 15.2893 1.46957 15.5 2 15.5H16C16.5304 15.5 17.0391 15.2893 17.4142 14.9142C17.7893 14.5391 18 14.0304 18 13.5V4.5C18 3.96957 17.7893 3.46086 17.4142 3.08579C17.0391 2.71071 16.5304 2.5 16 2.5Z"/>
<path fill="#EEEDED" d="M14.597 4.75H13.9655L13.8685 4.46L13.75 4.107L13.6315 4.46L13.5345 4.75H12.903L13.1705 4.9715L13.4065 5.1665L13.307 5.46L13.1735 5.851L13.5015 5.599L13.75 5.4075L13.9985 5.599L14.3265 5.851L14.193 5.46L14.0935 5.1665L14.3295 4.9715L14.597 4.75Z"/>
<path fill="#CF1B2B" d="M13.75 4.5L13.6245 4.875H13.25L13.5525 5.1255L13.425 5.5L13.75 5.25L14.075 5.5L13.9475 5.1255L14.25 4.875H13.8755L13.75 4.5Z"/>
<path fill="#EEEDED" d="M14.597 12.875H13.9655L13.8685 12.585L13.75 12.232L13.6315 12.585L13.5345 12.875H12.903L13.1705 13.0965L13.4065 13.2915L13.307 13.585L13.1735 13.976L13.5015 13.724L13.75 13.5325L13.9985 13.724L14.3265 13.976L14.193 13.585L14.0935 13.2915L14.3295 13.0965L14.597 12.875Z"/>
<path fill="#CF1B2B" d="M13.75 12.625L13.6245 13H13.25L13.5525 13.2505L13.425 13.625L13.75 13.375L14.075 13.625L13.9475 13.2505L14.25 13H13.8755L13.75 12.625Z"/>
<path fill="#EEEDED" d="M16.597 6.75H15.9655L15.8685 6.46L15.75 6.107L15.6315 6.46L15.5345 6.75H14.903L15.1705 6.9715L15.4065 7.1665L15.307 7.46L15.1735 7.851L15.5015 7.599L15.75 7.4075L15.9985 7.599L16.3265 7.851L16.193 7.46L16.0935 7.1665L16.3295 6.9715L16.597 6.75Z"/>
<path fill="#CF1B2B" d="M15.75 6.5L15.6245 6.875H15.25L15.5525 7.1255L15.425 7.5L15.75 7.25L16.075 7.5L15.9475 7.1255L16.25 6.875H15.8755L15.75 6.5Z"/>
<path fill="#EEEDED" d="M12.597 7.75H11.9655L11.8685 7.46L11.75 7.107L11.6315 7.46L11.5345 7.75H10.903L11.1705 7.9715L11.4065 8.1665L11.307 8.46L11.1735 8.851L11.5015 8.599L11.75 8.4075L11.9985 8.599L12.3265 8.851L12.193 8.46L12.0935 8.1665L12.3295 7.9715L12.597 7.75Z"/>
<path fill="#CF1B2B" d="M11.75 7.5L11.6245 7.875H11.25L11.5525 8.1255L11.425 8.5L11.75 8.25L12.075 8.5L11.9475 8.1255L12.25 7.875H11.8755L11.75 7.5Z"/>
<path fill="#00247D" d="M9.5 9V2.5H2C1.84 2.5 1.698 2.5225 1.698 2.5225L1.696 3.3995L0.331 3.3975C0.331 3.3975 0.31 3.427 0.2675 3.5C0.0921205 3.80408 -0.000136429 4.14897 1.51429e-07 4.5V9H9.5Z"/>
<path fill="#EEEEEE" d="M9.5 2.5H8.3345L6 4.1345V2.5H3.5V3.7845L1.698 2.5225C1.39742 2.56736 1.11129 2.68117 0.862 2.855L3.213 4.5H2.345L0.4835 3.1955C0.428453 3.25955 0.377518 3.32701 0.331 3.3975L1.9065 4.5H0V7H1.9425L0 8.383V9H1.666L3.5 7.716V9H6V7.3655L8.334 9H9.5V7.9855L8.0925 7H9.5V4.5H8.093L9.5 3.5145V2.5Z"/>
<path fill="#CF1B2B" d="M5.5 2.5H4V5H0V6.5H4V9H5.5V6.5H9.5V5H5.5V2.5Z"/>
<path fill="#CF1B2B" d="M9.5 2.5H8.7695L6 4.4395V4.5H6.7855L9.5 2.599V2.5ZM0.862004 2.855C0.721848 2.95191 0.594651 3.06634 0.483504 3.1955L2.345 4.5H3.2125L0.862004 2.855ZM3.2185 7L0.367004 9H1.2305L3.5 7.411V7H3.2185ZM9.5 8.901V8.291L7.6565 7H6.785L9.5 8.901Z"/>
</g>
<defs>
<clipPath id="clip0_2_11">
<rect fill="white" height="20" width="20"/>
</clipPath>
</defs>
</svg>