<svg xmlns="http://www.w3.org/2000/svg" width="100%" height="100%" viewBox="0 0 20 20" fill="none" id="flag_nz">
  <g clip-path="url(#clip0_130_3953)">
    <path d="M17.7778 2.77783H2.22222C2.10815 2.77783 1.9963 2.78617 1.88667 2.80283L1.88444 3.77728L0.367778 3.77505C0.127785 4.13852 -0.000105345 4.5645 6.51086e-08 5.00005V15.0001C6.51086e-08 15.5894 0.234126 16.1547 0.650874 16.5714C1.06762 16.9882 1.63285 17.2223 2.22222 17.2223H17.7778C18.3671 17.2223 18.9324 16.9882 19.3491 16.5714C19.7659 16.1547 20 15.5894 20 15.0001V5.00005C20 4.41068 19.7659 3.84545 19.3491 3.42871C18.9324 3.01196 18.3671 2.77783 17.7778 2.77783Z" fill="#00247D"/>
    <path d="M16.2186 5.2778H15.517L15.4092 4.95558L15.2775 4.56335L15.1459 4.95558L15.0381 5.2778H14.3364L14.6336 5.52391L14.8959 5.74058L14.7853 6.06669L14.637 6.50113L15.0014 6.22113L15.2775 6.00835L15.5536 6.22113L15.9181 6.50113L15.7698 6.06669L15.6592 5.74058L15.9214 5.52391L16.2186 5.2778Z" fill="#EEEDED"/>
    <path d="M15.2777 5L15.1383 5.41667H14.7222L15.0583 5.695L14.9166 6.11111L15.2777 5.83333L15.6388 6.11111L15.4972 5.695L15.8333 5.41667H15.4172L15.2777 5Z" fill="#CF1B2B"/>
    <path d="M16.2186 14.3055H15.517L15.4092 13.9833L15.2775 13.5911L15.1459 13.9833L15.0381 14.3055H14.3364L14.6336 14.5516L14.8959 14.7683L14.7853 15.0944L14.637 15.5288L15.0014 15.2488L15.2775 15.0361L15.5536 15.2488L15.9181 15.5288L15.7698 15.0944L15.6592 14.7683L15.9214 14.5516L16.2186 14.3055Z" fill="#EEEDED"/>
    <path d="M15.2777 14.0278L15.1383 14.4445H14.7222L15.0583 14.7228L14.9166 15.1389L15.2777 14.8612L15.6388 15.1389L15.4972 14.7228L15.8333 14.4445H15.4172L15.2777 14.0278Z" fill="#CF1B2B"/>
    <path d="M18.4413 7.49997H17.7396L17.6319 7.17774L17.5002 6.78552L17.3685 7.17774L17.2607 7.49997H16.5591L16.8563 7.74608L17.1185 7.96274L17.008 8.28886L16.8596 8.7233L17.2241 8.4433L17.5002 8.23052L17.7763 8.4433L18.1407 8.7233L17.9924 8.28886L17.8819 7.96274L18.1441 7.74608L18.4413 7.49997Z" fill="#EEEDED"/>
    <path d="M17.4999 7.22217L17.3604 7.63883H16.9443L17.2804 7.91717L17.1388 8.33328L17.4999 8.0555L17.861 8.33328L17.7193 7.91717L18.0554 7.63883H17.6393L17.4999 7.22217Z" fill="#CF1B2B"/>
    <path d="M13.9965 8.61105H13.2948L13.187 8.28883L13.0554 7.89661L12.9237 8.28883L12.8159 8.61105H12.1143L12.4115 8.85716L12.6737 9.07383L12.5631 9.39994L12.4148 9.83438L12.7793 9.55438L13.0554 9.34161L13.3315 9.55438L13.6959 9.83438L13.5476 9.39994L13.437 9.07383L13.6993 8.85716L13.9965 8.61105Z" fill="#EEEDED"/>
    <path d="M13.0556 8.33337L12.9161 8.75004H12.5L12.8361 9.02837L12.6944 9.44449L13.0556 9.16671L13.4167 9.44449L13.275 9.02837L13.6111 8.75004H13.195L13.0556 8.33337Z" fill="#CF1B2B"/>
    <path d="M10.5556 10.0001V2.77783H2.22222C2.04444 2.77783 1.88667 2.80283 1.88667 2.80283L1.88444 3.77728L0.367778 3.77505C0.367778 3.77505 0.344445 3.80783 0.297222 3.88894C0.102356 4.22681 -0.000151588 4.61002 1.68255e-07 5.00005V10.0001H10.5556Z" fill="#00247D"/>
    <path d="M10.5556 2.77783H9.26056L6.66667 4.59394V2.77783H3.88889V4.20505L1.88667 2.80283C1.55268 2.85268 1.23477 2.97913 0.957778 3.17228L3.57 5.00005H2.60556L0.537222 3.55061C0.476059 3.62177 0.419464 3.69674 0.367778 3.77505L2.11833 5.00005H0V7.77783H2.15833L0 9.3145V10.0001H1.85111L3.88889 8.57339V10.0001H6.66667V8.18394L9.26 10.0001H10.5556V8.87283L8.99167 7.77783H10.5556V5.00005H8.99222L10.5556 3.90505V2.77783Z" fill="#EEEEEE"/>
    <path d="M6.11111 2.77783H4.44444V5.55561H0V7.22228H4.44444V10.0001H6.11111V7.22228H10.5556V5.55561H6.11111V2.77783Z" fill="#CF1B2B"/>
    <path d="M10.5555 2.77783H9.74383L6.6666 4.93283V5.00005H7.53938L10.5555 2.88783V2.77783ZM0.957715 3.17228C0.801985 3.27996 0.660655 3.4071 0.537159 3.55061L2.60549 5.00005H3.56938L0.957715 3.17228ZM3.57605 7.77783L0.407715 10.0001H1.36716L3.88883 8.2345V7.77783H3.57605ZM10.5555 9.89005V9.21228L8.50716 7.77783H7.53883L10.5555 9.89005Z" fill="#CF1B2B"/>
  </g>
  <defs>
    <clipPath id="clip0_130_3953">
      <rect width="20" height="20" fill="white"/>
    </clipPath>
  </defs>
</svg>