<svg xmlns="http://www.w3.org/2000/svg" fill="none" viewBox="0 2.72 20.04 14.559999999999999" style="max-height: 500px" width="100%" height="100%" id="flag_canada">
<g clip-path="url(#clip0_130_3851)">
<path fill="#D52B1E" d="M2.22222 2.77783C1.63285 2.77783 1.06762 3.01196 0.650874 3.42871C0.234126 3.84545 0 4.41068 0 5.00005L0 15.0001C0 15.5894 0.234126 16.1547 0.650874 16.5714C1.06762 16.9882 1.63285 17.2223 2.22222 17.2223H5.55556V2.77783H2.22222ZM17.7778 2.77783H14.4444V17.2223H17.7778C18.3671 17.2223 18.9324 16.9882 19.3491 16.5714C19.7659 16.1547 20 15.5894 20 15.0001V5.00005C20 4.41068 19.7659 3.84545 19.3491 3.42871C18.9324 3.01196 18.3671 2.77783 17.7778 2.77783Z"/>
<path fill="#EEEEEE" d="M5.55566 2.77783H14.4446V17.2223H5.55566V2.77783Z"/>
<path fill="#D52B1E" d="M10.3416 12.285C11.0071 12.3622 11.6038 12.4317 12.2688 12.5078L12.0994 11.9511C12.0869 11.9032 12.0886 11.8527 12.1043 11.8058C12.12 11.7588 12.1489 11.7175 12.1877 11.6867L14.1205 10.1122L13.7205 9.92389C13.5444 9.86112 13.5927 9.76167 13.6566 9.52278L13.9516 8.44723L12.8288 8.68445C12.7194 8.70112 12.6466 8.63167 12.6299 8.56501L12.4849 8.05889L11.5971 9.05556C11.471 9.21556 11.2155 9.21556 11.2949 8.84667L11.6744 6.82778L11.1649 7.09167C11.0221 7.17167 10.8794 7.18501 10.7999 7.04223L10.0971 5.72778L9.39435 7.04223C9.31435 7.18501 9.17158 7.17167 9.0288 7.09167L8.51991 6.82778L8.89935 8.84667C8.97935 9.21556 8.72324 9.21556 8.59713 9.05556L7.70935 8.05945L7.56491 8.56556C7.54824 8.63223 7.47491 8.70167 7.36546 8.68501L6.24269 8.44778L6.53769 9.52334C6.60046 9.76223 6.64935 9.86167 6.47324 9.92445L6.07324 10.1128L8.00602 11.6872C8.08269 11.7467 8.12158 11.8539 8.0938 11.9517L7.92435 12.5083L9.85213 12.2856C9.91102 12.2856 9.94991 12.3183 9.94935 12.3861L9.83046 14.4439H10.3616L10.2432 12.3861C10.2444 12.3178 10.2827 12.285 10.3416 12.285Z"/>
</g>
<defs>
<clipPath id="clip0_130_3851">
<rect fill="white" height="20" width="20"/>
</clipPath>
</defs>
</svg>