<svg xmlns="http://www.w3.org/2000/svg" width="100%" height="100%" viewBox="0 0 74 64" testId="">
  <title>FreeExchange</title>
  <path fillRule="evenodd" clipRule="evenodd"
    d="M8.59647 21.2669C8.04293 21.0952 7.74791 20.5466 7.93541 20.0405C13.3606 5.39513 30.7883 -2.47898 46.7839 2.48832C60.0268 6.60087 68.5455 18.3782 67.5004 31.1306C67.457 31.6626 66.9488 32.0625 66.3665 32.0228C65.7924 31.9865 65.3499 31.518 65.3928 30.9848C66.3668 19.1138 58.4346 8.14887 46.1052 4.32001C31.2122 -0.304849 14.9874 7.02574 9.93592 20.6618C9.74838 21.1679 9.14927 21.4385 8.59647 21.2669ZM60.4147 28.714C60.4166 28.4662 60.5122 28.2194 60.6998 28.0326C61.0747 27.6575 61.6765 27.6626 62.0456 28.0441L66.6742 32.8249L71.3804 28.1232C71.5675 27.9361 71.8119 27.8433 72.0554 27.8454C72.2996 27.8474 72.5423 27.9442 72.7262 28.1347C73.0955 28.5158 73.0904 29.1273 72.7149 29.5019L67.3454 34.8664C67.1506 35.0611 66.8948 35.1533 66.6422 35.1437C66.398 35.1422 66.1544 35.0456 65.9694 34.8542L60.6885 29.3996C60.5041 29.2096 60.4125 28.9615 60.4147 28.714Z"
    fill="currentColor" />
  <path
    d="M7.93541 20.0405L8.40427 20.2142L8.40427 20.2142L7.93541 20.0405ZM8.59647 21.2669L8.74476 20.7894L8.74459 20.7893L8.59647 21.2669ZM46.7839 2.48832L46.9322 2.01082L46.9322 2.01082L46.7839 2.48832ZM67.5004 31.1306L67.002 31.0897L67.002 31.0899L67.5004 31.1306ZM66.3665 32.0228L66.4005 31.5239L66.398 31.5237L66.3665 32.0228ZM65.3928 30.9848L64.8945 30.9439L64.8944 30.9447L65.3928 30.9848ZM46.1052 4.32001L46.2535 3.84251L46.2535 3.84251L46.1052 4.32001ZM9.93592 20.6618L10.4048 20.8355L10.4048 20.8355L9.93592 20.6618ZM60.6998 28.0326L61.0526 28.3868L61.0534 28.3861L60.6998 28.0326ZM60.4147 28.714L60.9147 28.7184L60.9147 28.7179L60.4147 28.714ZM62.0456 28.0441L61.6862 28.3917L61.6863 28.3919L62.0456 28.0441ZM66.6742 32.8249L66.315 33.1727C66.4081 33.2689 66.5361 33.3238 66.67 33.3249C66.804 33.326 66.9328 33.2733 67.0276 33.1786L66.6742 32.8249ZM71.3804 28.1232L71.7338 28.477L71.7342 28.4766L71.3804 28.1232ZM72.0554 27.8454L72.0511 28.3454L72.0512 28.3454L72.0554 27.8454ZM72.7262 28.1347L72.3666 28.4821L72.3672 28.4827L72.7262 28.1347ZM72.7149 29.5019L72.3618 29.1479L72.3615 29.1481L72.7149 29.5019ZM67.3454 34.8664L66.992 34.5126L66.9918 34.5128L67.3454 34.8664ZM66.6422 35.1437L66.6612 34.6441C66.6559 34.6439 66.6506 34.6438 66.6453 34.6437L66.6422 35.1437ZM65.9694 34.8542L66.3288 34.5066L66.3286 34.5064L65.9694 34.8542ZM60.6885 29.3996L61.0477 29.0519L61.0474 29.0515L60.6885 29.3996ZM7.46655 19.8668C7.16736 20.6743 7.65526 21.4984 8.44834 21.7444L8.74459 20.7893C8.43061 20.6919 8.32845 20.4188 8.40427 20.2142L7.46655 19.8668ZM46.9322 2.01082C30.7123 -3.02612 12.9944 4.94426 7.46654 19.8668L8.40427 20.2142C13.7268 5.846 30.8642 -1.93184 46.6356 2.96583L46.9322 2.01082ZM67.9987 31.1714C69.0652 18.1587 60.3719 6.1845 46.9322 2.01082L46.6356 2.96583C59.6816 7.01724 68.0258 18.5977 67.002 31.0897L67.9987 31.1714ZM66.3325 32.5216C67.1457 32.5771 67.9298 32.016 67.9987 31.1712L67.002 31.0899C66.9841 31.3092 66.7519 31.5479 66.4005 31.5239L66.3325 32.5216ZM64.8944 30.9447C64.8261 31.7944 65.5214 32.4703 66.335 32.5218L66.398 31.5237C66.0633 31.5026 65.8738 31.2416 65.8912 31.0249L64.8944 30.9447ZM45.9569 4.79752C58.0895 8.56526 65.8471 19.3334 64.8945 30.9439L65.8911 31.0257C66.8865 18.8943 58.7797 7.73249 46.2535 3.84251L45.9569 4.79752ZM10.4048 20.8355C15.3535 7.4766 31.2882 0.242288 45.9569 4.79752L46.2535 3.84251C31.1363 -0.851986 14.6212 6.57487 9.46705 20.4881L10.4048 20.8355ZM8.44818 21.7444C9.22516 21.9857 10.1145 21.6189 10.4048 20.8355L9.46707 20.4881C9.38224 20.717 9.07339 20.8914 8.74476 20.7894L8.44818 21.7444ZM60.3469 27.6783C60.0619 27.9622 59.9176 28.3368 59.9147 28.7101L60.9147 28.7179C60.9156 28.5956 60.9625 28.4766 61.0526 28.3868L60.3469 27.6783ZM62.405 27.6964C61.8418 27.1143 60.9188 27.1063 60.3462 27.6791L61.0534 28.3861C61.2306 28.2088 61.5113 28.2109 61.6862 28.3917L62.405 27.6964ZM67.0334 32.4771L62.4048 27.6963L61.6863 28.3919L66.315 33.1727L67.0334 32.4771ZM67.0276 33.1786L71.7338 28.477L71.0271 27.7695L66.3208 32.4712L67.0276 33.1786ZM71.7342 28.4766C71.8236 28.3871 71.9378 28.3444 72.0511 28.3454L72.0597 27.3454C71.686 27.3422 71.3113 27.485 71.0267 27.7698L71.7342 28.4766ZM72.0512 28.3454C72.1653 28.3463 72.2787 28.391 72.3666 28.4821L73.0859 27.7873C72.8059 27.4975 72.4338 27.3485 72.0595 27.3454L72.0512 28.3454ZM72.3672 28.4827C72.5464 28.6676 72.5437 28.9664 72.3618 29.1479L73.068 29.8558C73.6372 29.2881 73.6447 28.364 73.0853 27.7867L72.3672 28.4827ZM72.3615 29.1481L66.992 34.5126L67.6987 35.2201L73.0683 29.8556L72.3615 29.1481ZM66.9918 34.5128C66.8985 34.6061 66.779 34.6486 66.6612 34.6441L66.6232 35.6433C67.0107 35.6581 67.4028 35.516 67.6989 35.2199L66.9918 34.5128ZM65.61 35.2018C65.8912 35.4926 66.2645 35.6414 66.6391 35.6437L66.6453 34.6437C66.5316 34.643 66.4177 34.5985 66.3288 34.5066L65.61 35.2018ZM60.3293 29.7474L65.6101 35.202L66.3286 34.5064L61.0477 29.0519L60.3293 29.7474ZM59.9147 28.7096C59.9114 29.083 60.0499 29.4594 60.3296 29.7478L61.0474 29.0515C60.9584 28.9597 60.9136 28.8399 60.9147 28.7184L59.9147 28.7096Z"
    fill="currentColor" />
  <path fillRule="evenodd" clipRule="evenodd"
    d="M1.27369 35.6338C1.45768 35.8243 1.70024 35.9214 1.94456 35.9234L1.94457 35.9234C2.18813 35.9255 2.43237 35.8326 2.61949 35.6453L7.32592 30.9434L11.9543 35.7243C12.323 36.1055 12.925 36.1108 13.3 35.7355C13.4876 35.5486 13.583 35.3021 13.585 35.0543L13.585 35.0542C13.587 34.8068 13.4958 34.5584 13.3114 34.3684L8.03028 28.9138C7.84013 28.717 7.58795 28.6204 7.33686 28.6244C7.09109 28.6205 6.84397 28.713 6.65462 28.9022L1.28502 34.2669C0.90936 34.6415 0.904491 35.253 1.27369 35.6338ZM26.9556 61.5119C13.7122 57.3991 5.19346 45.6211 6.23856 32.869C6.28194 32.3369 6.79007 31.9371 7.37218 31.9768C7.94756 32.0187 8.38995 32.4817 8.34613 33.0148C7.37218 44.8857 15.3041 55.8509 27.634 59.68C42.5264 64.3048 58.7521 56.9738 63.8033 43.3384C63.991 42.8316 64.5895 42.5612 65.143 42.7331C65.6957 42.9049 65.9915 43.4529 65.8037 43.9598C60.3788 58.6046 42.9504 66.479 26.9556 61.5119Z"
    fill="currentColor" />
  <path
    d="M13.3 35.7355L12.9471 35.3813L12.9464 35.3821L13.3 35.7355ZM13.585 35.0543L13.2397 34.6926C13.1419 34.786 13.0861 34.915 13.085 35.0502L13.585 35.0543ZM11.9543 35.7243L12.3137 35.3766L12.3135 35.3765L11.9543 35.7243ZM7.32592 30.9434L7.68515 30.5957C7.59197 30.4994 7.46406 30.4446 7.33009 30.4435C7.19613 30.4423 7.06732 30.495 6.97254 30.5897L7.32592 30.9434ZM2.61949 35.6453L2.26611 35.2916L2.26576 35.2919L2.61949 35.6453ZM1.94457 35.9234L1.58784 36.2737C1.68082 36.3684 1.80762 36.4222 1.94031 36.4234L1.94457 35.9234ZM1.94456 35.9234L2.30128 35.573C2.20828 35.4783 2.08143 35.4245 1.9487 35.4234L1.94456 35.9234ZM1.27369 35.6338L1.63338 35.2865L1.63264 35.2857L1.27369 35.6338ZM1.28502 34.2669L1.63806 34.621L1.63841 34.6206L1.28502 34.2669ZM6.65462 28.9022L7.00801 29.256L7.00812 29.2558L6.65462 28.9022ZM7.33686 28.6244L7.32893 29.1243C7.33421 29.1244 7.3395 29.1244 7.34478 29.1243L7.33686 28.6244ZM8.03028 28.9138L7.67077 29.2613L7.67106 29.2616L8.03028 28.9138ZM13.3114 34.3684L12.9521 34.7162L12.9525 34.7166L13.3114 34.3684ZM13.585 35.0542L13.9302 35.4159C14.028 35.3226 14.0839 35.1936 14.085 35.0584L13.585 35.0542ZM6.23856 32.869L6.73689 32.9099L6.73691 32.9097L6.23856 32.869ZM26.9556 61.5119L26.8073 61.9894H26.8073L26.9556 61.5119ZM7.37218 31.9768L7.40854 31.4781L7.40619 31.4779L7.37218 31.9768ZM8.34613 33.0148L7.84781 32.9738L7.84781 32.9739L8.34613 33.0148ZM27.634 59.68L27.4857 60.1575L27.634 59.68ZM63.8033 43.3384L63.3344 43.1646L63.3344 43.1647L63.8033 43.3384ZM65.143 42.7331L65.2913 42.2556L65.2913 42.2556L65.143 42.7331ZM65.8037 43.9598L65.3349 43.7861L65.3349 43.7861L65.8037 43.9598ZM13.653 36.0897C13.9381 35.8056 14.082 35.4314 14.085 35.0583L13.085 35.0502C13.084 35.1728 13.0372 35.2916 12.9471 35.3813L13.653 36.0897ZM11.5949 36.0719C12.1577 36.6537 13.0809 36.6621 13.6537 36.089L12.9464 35.3821C12.7691 35.5595 12.4883 35.5572 12.3137 35.3766L11.5949 36.0719ZM6.96669 31.2912L11.595 36.072L12.3135 35.3765L7.68515 30.5957L6.96669 31.2912ZM6.97254 30.5897L2.26611 35.2916L2.97287 35.999L7.6793 31.2972L6.97254 30.5897ZM2.26576 35.2919C2.17604 35.3817 2.0619 35.4244 1.94883 35.4234L1.94031 36.4234C2.31435 36.4266 2.68871 36.2835 2.97322 35.9987L2.26576 35.2919ZM2.30129 35.573L2.30128 35.573L1.58783 36.2737L1.58784 36.2737L2.30129 35.573ZM1.9487 35.4234C1.83485 35.4225 1.72158 35.3778 1.63338 35.2865L0.914 35.9811C1.19378 36.2708 1.56564 36.4203 1.94042 36.4234L1.9487 35.4234ZM1.63264 35.2857C1.45363 35.1011 1.45618 34.8023 1.63806 34.621L0.931985 33.9129C0.36254 34.4806 0.355351 35.405 0.914738 35.9818L1.63264 35.2857ZM1.63841 34.6206L7.00801 29.256L6.30123 28.5485L0.931629 33.9132L1.63841 34.6206ZM7.00812 29.2558C7.09895 29.165 7.21446 29.1225 7.32893 29.1243L7.34478 28.1244C6.96772 28.1185 6.58898 28.2609 6.30112 28.5486L7.00812 29.2558ZM8.3898 28.5663C8.10065 28.2671 7.71414 28.1183 7.32893 28.1244L7.34478 29.1243C7.46177 29.1225 7.5796 29.1669 7.67077 29.2613L8.3898 28.5663ZM13.6706 34.0206L8.3895 28.566L7.67106 29.2616L12.9521 34.7162L13.6706 34.0206ZM14.085 35.0584C14.088 34.6859 13.9504 34.309 13.6702 34.0202L12.9525 34.7166C13.0411 34.8078 13.086 34.9278 13.085 35.0501L14.085 35.0584ZM13.9302 35.4159L13.9302 35.4159L13.2398 34.6926L13.2397 34.6926L13.9302 35.4159ZM5.74023 32.8282C4.6738 45.8406 13.3671 57.8155 26.8073 61.9894L27.1039 61.0344C14.0574 56.9828 5.71313 45.4017 6.73689 32.9099L5.74023 32.8282ZM7.40619 31.4779C6.59311 31.4225 5.80909 31.9835 5.74021 32.8284L6.73691 32.9097C6.75479 32.6903 6.98702 32.4517 7.33818 32.4756L7.40619 31.4779ZM8.84445 33.0557C8.9147 32.2011 8.21432 31.5369 7.40854 31.4781L7.33582 32.4755C7.68079 32.5006 7.86519 32.7623 7.84781 32.9738L8.84445 33.0557ZM27.7823 59.2025C15.6492 55.4345 7.89187 44.6661 8.84446 33.0556L7.84781 32.9739C6.85249 45.1052 14.959 56.2673 27.4857 60.1575L27.7823 59.2025ZM63.3344 43.1647C58.3859 56.523 42.4505 63.7577 27.7823 59.2025L27.4857 60.1575C42.6024 64.8519 59.1183 57.4247 64.2721 43.5121L63.3344 43.1647ZM65.2913 42.2556C64.5135 42.0141 63.6249 42.3808 63.3344 43.1646L64.2721 43.5121C64.3572 43.2825 64.6654 43.1084 64.9947 43.2106L65.2913 42.2556ZM66.2726 44.1335C66.5722 43.3248 66.083 42.5016 65.2913 42.2556L64.9946 43.2106C65.3084 43.3081 65.4108 43.5811 65.3349 43.7861L66.2726 44.1335ZM26.8073 61.9894C43.0263 67.0261 60.745 59.0555 66.2726 44.1334L65.3349 43.7861C60.0126 58.1538 42.8745 65.9318 27.1039 61.0344L26.8073 61.9894Z"
    fill="currentColor" />
  <path fillRule="evenodd" clipRule="evenodd"
    d="M47.9632 31.3914C47.7335 30.7381 47.4441 30.1295 47.1207 29.4506L46.1354 27.2246C45.2914 25.0511 44.7376 22.8493 44.4777 20.6422C42.1383 21.4556 39.609 21.8802 37.053 21.8802C34.5099 21.8802 31.9933 21.46 29.6638 20.6546C29.4033 22.8585 28.8498 25.0566 28.0069 27.2262L27.0213 29.4523C26.6981 30.1301 26.409 30.7379 26.1768 31.3904C29.4729 32.6506 32.601 35.1287 35.4418 37.3793C35.9963 37.8186 36.5398 38.2492 37.0715 38.6604C37.6003 38.2514 38.1416 37.8225 38.6943 37.3846C41.5302 35.1377 44.6672 32.6522 47.9632 31.3914ZM29.7752 19.4756C29.8305 18.6939 29.8488 17.912 29.8301 17.1309V16.3354L29.8275 16.3331C29.8288 16.3155 29.8301 16.2978 29.8301 16.2798C29.8301 15.8896 29.5189 15.5732 29.1349 15.5732C28.751 15.5732 28.4397 15.8896 28.4397 16.2798C28.4397 16.2813 28.4398 16.2829 28.4399 16.2844C28.44 16.2857 28.4401 16.287 28.4401 16.2883C28.4281 16.3472 28.4221 16.4077 28.4254 16.4689C28.7378 22.2563 26.9499 26.2385 25.6801 29.0667C25.2372 30.0532 24.8573 30.8992 24.6516 31.6325C23.2133 36.7448 25.5597 43.348 28.8473 47.6688C28.9778 47.8403 29.1791 47.9407 29.3924 47.9407L29.3942 47.9392C29.3981 47.9394 29.4019 47.9396 29.4057 47.9399C29.4118 47.9403 29.4178 47.9407 29.424 47.9407C29.811 47.9407 30.1247 47.6219 30.1247 47.2286C30.1247 47.0555 30.0639 46.897 29.9629 46.7735C28.9104 45.4316 27.0124 42.7016 26.184 39.148C25.5718 36.5225 25.6381 34.2615 25.8047 32.7448C28.8539 33.9345 31.7721 36.2468 34.5444 38.4435C35.1645 38.9348 35.7772 39.4203 36.3825 39.8862V45.4161L36.3868 45.4163C36.4241 45.7672 36.7163 46.0405 37.0715 46.0405C37.4521 46.0405 37.7605 45.7269 37.7605 45.3402C37.7605 45.3345 37.7602 45.329 37.7598 45.3234C37.7596 45.3195 37.7593 45.3156 37.7592 45.3117C37.7599 45.2944 37.7605 45.2768 37.7605 45.2578V39.8863C38.3691 39.4177 38.9837 38.931 39.6043 38.4394C42.3847 36.237 45.2874 33.9378 48.3274 32.749C49.1415 37.1462 47.0373 42.8931 44.458 46.4716C44.3504 46.5968 44.2847 46.7602 44.2847 46.9394C44.2847 47.3327 44.5984 47.6516 44.9855 47.6516C45.1931 47.6516 45.3791 47.5593 45.5074 47.4135L45.5076 47.4136L45.5088 47.4118C45.5454 47.37 45.5776 47.3242 45.6038 47.2744C45.7684 47.0328 46.0143 46.6611 46.1286 46.4855C48.8384 42.3258 50.7501 36.2264 49.4864 31.6384C49.2814 30.8911 48.8958 30.0321 48.4461 29.0302C47.18 26.2095 45.4052 22.2556 45.7176 16.4689C45.7214 16.3988 45.7147 16.3294 45.6984 16.2626C45.6893 15.8804 45.3823 15.5733 45.004 15.5733C44.6201 15.5733 44.3088 15.8896 44.3088 16.2798C44.3088 16.3192 44.3128 16.3576 44.3189 16.3953L44.3128 16.4011V17.1309C44.2942 17.9075 44.3123 18.685 44.3668 19.4623C42.0769 20.3041 39.5796 20.7444 37.053 20.7444C34.5396 20.7444 32.0552 20.3087 29.7752 19.4756Z"
    fill="currentColor" />
  <path
    d="M47.1207 29.4506L46.6633 29.653L46.6693 29.6657L47.1207 29.4506ZM47.9632 31.3914L48.1418 31.8584C48.3948 31.7616 48.5247 31.481 48.4349 31.2255L47.9632 31.3914ZM46.1354 27.2246L45.6693 27.4056C45.6721 27.4128 45.675 27.4199 45.6782 27.427L46.1354 27.2246ZM44.4777 20.6422L44.9743 20.5838C44.9565 20.4332 44.8715 20.2989 44.7431 20.2185C44.6146 20.138 44.4566 20.1202 44.3135 20.17L44.4777 20.6422ZM29.6638 20.6546L29.8272 20.1821C29.6842 20.1326 29.5264 20.1506 29.3982 20.231C29.27 20.3114 29.1851 20.4456 29.1673 20.5959L29.6638 20.6546ZM28.0069 27.2262L28.4641 27.4286C28.4672 27.4216 28.4702 27.4144 28.473 27.4072L28.0069 27.2262ZM27.0213 29.4523L27.4728 29.6676L27.4784 29.6548L27.0213 29.4523ZM26.1768 31.3904L25.7058 31.2228C25.6147 31.4787 25.7446 31.7605 25.9983 31.8574L26.1768 31.3904ZM35.4418 37.3793L35.7523 36.9874V36.9874L35.4418 37.3793ZM37.0715 38.6604L36.7656 39.0559C36.9458 39.1952 37.1973 39.1952 37.3774 39.0559L37.0715 38.6604ZM38.6943 37.3846L39.0048 37.7765L38.6943 37.3846ZM29.7752 19.4756L29.2764 19.4403C29.2607 19.6627 29.3942 19.8687 29.6036 19.9452L29.7752 19.4756ZM29.8301 17.1309H29.3299L29.3302 17.1429L29.8301 17.1309ZM29.8301 16.3354H30.3301C30.3301 16.1916 30.2681 16.0547 30.1601 15.9598L29.8301 16.3354ZM29.8275 16.3331L29.3289 16.2957C29.3171 16.4523 29.3796 16.6052 29.4975 16.7088L29.8275 16.3331ZM28.4399 16.2844L28.9384 16.2452L28.9383 16.245L28.4399 16.2844ZM28.4401 16.2883L28.93 16.3885C28.9375 16.3518 28.9409 16.3143 28.94 16.2768L28.4401 16.2883ZM28.4254 16.4689L27.9261 16.4958L27.9261 16.4959L28.4254 16.4689ZM25.6801 29.0667L25.224 28.8619L25.6801 29.0667ZM24.6516 31.6325L25.133 31.7679L25.1331 31.7675L24.6516 31.6325ZM28.8473 47.6688L28.4494 47.9716L28.4495 47.9717L28.8473 47.6688ZM29.3924 47.9407V48.4407C29.5122 48.4407 29.628 48.3977 29.7188 48.3196L29.3924 47.9407ZM29.3942 47.9392L29.415 47.4396C29.2882 47.4344 29.1641 47.4775 29.0679 47.5604L29.3942 47.9392ZM29.4057 47.9399L29.3707 48.4387L29.3708 48.4387L29.4057 47.9399ZM29.9629 46.7735L29.5693 47.0822L29.5759 47.0902L29.9629 46.7735ZM26.184 39.148L26.6709 39.0345L26.6709 39.0345L26.184 39.148ZM25.8047 32.7448L25.9864 32.279C25.8415 32.2225 25.6786 32.2366 25.5456 32.3171C25.4126 32.3977 25.3246 32.5356 25.3076 32.6902L25.8047 32.7448ZM34.5444 38.4435L34.8549 38.0516L34.5444 38.4435ZM36.3825 39.8862H36.8825C36.8825 39.7311 36.8105 39.5847 36.6875 39.49L36.3825 39.8862ZM36.3825 45.4161H35.8825C35.8825 45.6858 36.0963 45.9069 36.3658 45.9159L36.3825 45.4161ZM36.3868 45.4163L36.884 45.3635C36.8577 45.1155 36.6527 44.9249 36.4035 44.9166L36.3868 45.4163ZM37.7598 45.3234L38.2588 45.291L38.2588 45.291L37.7598 45.3234ZM37.7592 45.3117L37.2597 45.2899C37.2591 45.3026 37.259 45.3154 37.2595 45.3282L37.7592 45.3117ZM37.7605 39.8863L37.4555 39.4901C37.3326 39.5847 37.2605 39.7311 37.2605 39.8863H37.7605ZM39.6043 38.4394L39.2939 38.0474L39.6043 38.4394ZM48.3274 32.749L48.819 32.658C48.7919 32.5113 48.7007 32.3845 48.5704 32.312C48.4401 32.2396 48.2842 32.229 48.1453 32.2833L48.3274 32.749ZM44.458 46.4716L44.8372 46.7975C44.8465 46.7867 44.8553 46.7755 44.8636 46.764L44.458 46.4716ZM45.5074 47.4135L45.7839 46.9969C45.5756 46.8586 45.2972 46.8955 45.132 47.0832L45.5074 47.4135ZM45.5076 47.4136L45.2311 47.8302C45.3419 47.9037 45.4774 47.9301 45.6076 47.9035C45.7379 47.8769 45.8522 47.7995 45.9253 47.6885L45.5076 47.4136ZM45.5088 47.4118L45.1326 47.0825C45.1175 47.0997 45.1037 47.1179 45.0911 47.137L45.5088 47.4118ZM45.6038 47.2744L45.1906 46.9928C45.1799 47.0085 45.1701 47.0248 45.1613 47.0416L45.6038 47.2744ZM46.1286 46.4855L45.7097 46.2126V46.2126L46.1286 46.4855ZM49.4864 31.6384L49.0042 31.7707L49.0044 31.7712L49.4864 31.6384ZM48.4461 29.0302L47.9899 29.2349L48.4461 29.0302ZM45.7176 16.4689L46.2169 16.4959L46.2169 16.4958L45.7176 16.4689ZM45.6984 16.2626L45.1985 16.2744C45.1994 16.3103 45.2041 16.3459 45.2126 16.3807L45.6984 16.2626ZM44.3189 16.3953L44.6625 16.7585C44.7829 16.6446 44.8391 16.4785 44.8124 16.3149L44.3189 16.3953ZM44.3128 16.4011L43.9692 16.0379C43.8694 16.1323 43.8128 16.2637 43.8128 16.4011H44.3128ZM44.3128 17.1309L44.8128 17.1429V17.1309H44.3128ZM44.3668 19.4623L44.5393 19.9316C44.7482 19.8548 44.8812 19.6492 44.8656 19.4273L44.3668 19.4623ZM46.6693 29.6657C46.9946 30.3484 47.2721 30.9332 47.4915 31.5573L48.4349 31.2255C48.1949 30.543 47.8937 29.9105 47.572 29.2355L46.6693 29.6657ZM45.6782 27.427L46.6634 29.653L47.5779 29.2482L46.5926 27.0222L45.6782 27.427ZM43.9811 20.7007C44.2462 22.9516 44.8107 25.1945 45.6693 27.4056L46.6015 27.0436C45.7721 24.9077 45.229 22.747 44.9743 20.5838L43.9811 20.7007ZM37.053 22.3802C39.6636 22.3802 42.2486 21.9467 44.6419 21.1145L44.3135 20.17C42.028 20.9646 39.5543 21.3802 37.053 21.3802V22.3802ZM29.5005 21.1272C31.8836 21.9511 34.4555 22.3802 37.053 22.3802V21.3802C34.5643 21.3802 32.103 20.9688 29.8272 20.1821L29.5005 21.1272ZM28.473 27.4072C29.3304 25.2001 29.8947 22.9609 30.1604 20.7133L29.1673 20.5959C28.912 22.756 28.3691 24.9131 27.5408 27.0451L28.473 27.4072ZM27.4784 29.6548L28.4641 27.4286L27.5497 27.0238L26.5641 29.2499L27.4784 29.6548ZM26.6479 31.558C26.8701 30.9338 27.1477 30.349 27.4726 29.6675L26.5699 29.2372C26.2486 29.9113 25.948 30.542 25.7058 31.2228L26.6479 31.558ZM35.7523 36.9874C32.9263 34.7485 29.7368 32.2162 26.3554 30.9234L25.9983 31.8574C29.209 33.085 32.2757 35.5089 35.1313 37.7712L35.7523 36.9874ZM37.3774 38.2648C36.8484 37.8558 36.3072 37.427 35.7523 36.9874L35.1313 37.7712C35.6853 38.2101 36.2312 38.6426 36.7656 39.0559L37.3774 38.2648ZM38.3838 36.9927C37.8306 37.431 37.2917 37.858 36.7656 38.2649L37.3774 39.0559C37.9089 38.6448 38.4525 38.2141 39.0048 37.7765L38.3838 36.9927ZM47.7845 30.9244C44.4033 32.2178 41.2049 34.7575 38.3838 36.9927L39.0048 37.7765C41.8556 35.5178 44.9311 33.0866 48.1418 31.8584L47.7845 30.9244ZM30.274 19.5108C30.3303 18.7135 30.3491 17.9158 30.3299 17.1189L29.3302 17.1429C29.3486 17.9081 29.3306 18.6743 29.2764 19.4403L30.274 19.5108ZM30.3301 17.1309V16.3354H29.3301V17.1309H30.3301ZM30.1601 15.9598L30.1574 15.9575L29.4975 16.7088L29.5001 16.7111L30.1601 15.9598ZM30.3261 16.3705C30.3272 16.3553 30.3301 16.3194 30.3301 16.2798H29.3301C29.3301 16.2768 29.3302 16.276 29.33 16.2788C29.3299 16.2822 29.3296 16.2864 29.3289 16.2957L30.3261 16.3705ZM30.3301 16.2798C30.3301 15.6211 29.8026 15.0732 29.1349 15.0732V16.0732C29.2351 16.0732 29.3301 16.1581 29.3301 16.2798H30.3301ZM29.1349 15.0732C28.4672 15.0732 27.9397 15.6211 27.9397 16.2798H28.9397C28.9397 16.1581 29.0347 16.0732 29.1349 16.0732V15.0732ZM27.9397 16.2798C27.9397 16.2933 27.9402 16.3044 27.9406 16.3116C27.9408 16.3152 27.941 16.3182 27.9412 16.3201C27.9413 16.322 27.9414 16.3236 27.9415 16.3238L28.9383 16.245C28.9382 16.2434 28.9386 16.2476 28.9389 16.2526C28.9392 16.2582 28.9397 16.2678 28.9397 16.2798H27.9397ZM27.9414 16.3237C27.9415 16.3249 27.9413 16.3221 27.9411 16.3186C27.9408 16.3148 27.9405 16.3081 27.9403 16.2998L28.94 16.2768C28.9398 16.2672 28.9393 16.2592 28.939 16.2541C28.9387 16.2494 28.9384 16.2452 28.9384 16.2452L27.9414 16.3237ZM27.9503 16.1881C27.9314 16.2805 27.9201 16.3844 27.9261 16.4958L28.9247 16.442C28.9241 16.431 28.9248 16.4138 28.93 16.3885L27.9503 16.1881ZM27.9261 16.4959C28.2317 22.1567 26.4883 26.0458 25.224 28.8619L26.1362 29.2715C27.4114 26.4313 29.2439 22.3559 28.9246 16.4419L27.9261 16.4959ZM25.224 28.8619C24.7864 29.8365 24.3882 30.7205 24.1702 31.4974L25.1331 31.7675C25.3265 31.078 25.688 30.2699 26.1362 29.2715L25.224 28.8619ZM24.1703 31.4971C23.4181 34.1709 23.6628 37.1996 24.4969 40.0863C25.3321 42.9766 26.769 45.763 28.4494 47.9716L29.2452 47.3661C27.638 45.2538 26.2579 42.5782 25.4576 39.8087C24.6562 37.0355 24.4469 34.2064 25.133 31.7679L24.1703 31.4971ZM28.4495 47.9717C28.6734 48.2658 29.0211 48.4407 29.3924 48.4407V47.4407C29.3372 47.4407 29.2823 47.4148 29.2452 47.366L28.4495 47.9717ZM29.7188 48.3196L29.7205 48.318L29.0679 47.5604L29.0661 47.5619L29.7188 48.3196ZM29.3734 48.4388C29.3708 48.4387 29.369 48.4385 29.3686 48.4385C29.3684 48.4385 29.3686 48.4385 29.3707 48.4387L29.4406 47.4411C29.4379 47.4409 29.4271 47.4401 29.415 47.4396L29.3734 48.4388ZM29.3708 48.4387C29.3742 48.4389 29.3975 48.4407 29.424 48.4407V47.4407C29.4321 47.4407 29.4382 47.441 29.4409 47.4412C29.4429 47.4413 29.4443 47.4414 29.4405 47.4411L29.3708 48.4387ZM29.424 48.4407C30.0948 48.4407 30.6247 47.8903 30.6247 47.2286H29.6247C29.6247 47.3534 29.5273 47.4407 29.424 47.4407V48.4407ZM30.6247 47.2286C30.6247 46.9364 30.5216 46.6668 30.3498 46.4569L29.5759 47.0902C29.6062 47.1272 29.6247 47.1747 29.6247 47.2286H30.6247ZM30.3563 46.465C29.3231 45.1477 27.4753 42.4853 26.6709 39.0345L25.697 39.2615C26.5494 42.9179 28.4977 45.7156 29.5694 47.0821L30.3563 46.465ZM26.6709 39.0345C26.075 36.4786 26.1394 34.277 26.3017 32.7994L25.3076 32.6902C25.1368 34.2461 25.0687 36.5664 25.697 39.2615L26.6709 39.0345ZM25.6229 33.2106C28.5887 34.3678 31.4463 36.6266 34.2339 38.8354L34.8549 38.0516C32.0979 35.867 29.1191 33.5013 25.9864 32.279L25.6229 33.2106ZM34.2339 38.8354C34.8534 39.3263 35.469 39.8141 36.0775 40.2825L36.6875 39.49C36.0855 39.0266 35.4755 38.5433 34.8549 38.0516L34.2339 38.8354ZM35.8825 39.8862V45.4161H36.8825V39.8862H35.8825ZM36.3658 45.9159L36.3701 45.916L36.4035 44.9166L36.3992 44.9164L36.3658 45.9159ZM35.8896 45.4691C35.9529 46.0648 36.4513 46.5405 37.0715 46.5405V45.5405C36.9814 45.5405 36.8953 45.4695 36.884 45.3635L35.8896 45.4691ZM37.0715 46.5405C37.7358 46.5405 38.2605 45.9954 38.2605 45.3402H37.2605C37.2605 45.4584 37.1683 45.5405 37.0715 45.5405V46.5405ZM38.2605 45.3402C38.2605 45.3157 38.259 45.2941 38.2588 45.291L37.2609 45.3558C37.2611 45.3592 37.261 45.3579 37.2609 45.356C37.2608 45.3535 37.2605 45.3478 37.2605 45.3402H38.2605ZM38.2588 45.291C38.2586 45.2887 38.2586 45.2888 38.2586 45.2892C38.2587 45.2898 38.2588 45.292 38.2589 45.2953L37.2595 45.3282C37.2599 45.3414 37.2607 45.3533 37.2609 45.3558L38.2588 45.291ZM38.2587 45.3336C38.2596 45.313 38.2605 45.2873 38.2605 45.2578H37.2605C37.2605 45.2664 37.2603 45.2758 37.2597 45.2899L38.2587 45.3336ZM38.2605 45.2578V39.8863H37.2605V45.2578H38.2605ZM38.0655 40.2825C38.6774 39.8115 39.2946 39.3225 39.9148 38.8313L39.2939 38.0474C38.6727 38.5394 38.0609 39.024 37.4555 39.4901L38.0655 40.2825ZM39.9148 38.8313C42.7104 36.6169 45.5527 34.3709 48.5095 33.2147L48.1453 32.2833C45.0221 33.5047 42.059 35.8572 39.2939 38.0474L39.9148 38.8313ZM47.8358 32.84C48.2232 34.9325 47.9199 37.3826 47.1872 39.7706C46.4559 42.1543 45.3088 44.4361 44.0524 46.1792L44.8636 46.764C46.1865 44.9286 47.3812 42.5477 48.1432 40.064C48.904 37.5846 49.2458 34.9626 48.819 32.658L47.8358 32.84ZM44.0788 46.1457C43.8965 46.3578 43.7847 46.6357 43.7847 46.9394H44.7847C44.7847 46.8847 44.8042 46.8358 44.8372 46.7975L44.0788 46.1457ZM43.7847 46.9394C43.7847 47.6013 44.3147 48.1516 44.9855 48.1516V47.1516C44.8821 47.1516 44.7847 47.0642 44.7847 46.9394H43.7847ZM44.9855 48.1516C45.3455 48.1516 45.6654 47.9907 45.8827 47.7438L45.132 47.0832C45.0927 47.1278 45.0407 47.1516 44.9855 47.1516V48.1516ZM45.2309 47.8301L45.2311 47.8302L45.7841 46.997L45.7839 46.9969L45.2309 47.8301ZM45.9253 47.6885L45.9265 47.6866L45.0911 47.137L45.0899 47.1388L45.9253 47.6885ZM45.885 47.7411C45.9452 47.6724 46.0003 47.5946 46.0463 47.5072L45.1613 47.0416C45.1548 47.0538 45.1456 47.0676 45.1326 47.0825L45.885 47.7411ZM46.0169 47.556C46.1841 47.3107 46.4319 46.9359 46.5476 46.7584L45.7097 46.2126C45.5966 46.3862 45.3527 46.7549 45.1906 46.9928L46.0169 47.556ZM46.5476 46.7584C47.9317 44.6337 49.1099 42.0181 49.7825 39.3445C50.4539 36.6754 50.6308 33.9104 49.9685 31.5056L49.0044 31.7712C49.6057 33.9544 49.4586 36.5331 48.8127 39.1006C48.1679 41.6636 47.0354 44.1776 45.7097 46.2126L46.5476 46.7584ZM49.9686 31.5061C49.7511 30.7133 49.3465 29.8151 48.9023 28.8254L47.9899 29.2349C48.4452 30.2492 48.8117 31.0688 49.0042 31.7707L49.9686 31.5061ZM48.9023 28.8254C47.6418 26.0173 45.9113 22.1563 46.2169 16.4959L45.2184 16.442C44.8991 22.3549 46.7182 26.4017 47.9899 29.2349L48.9023 28.8254ZM46.2169 16.4958C46.2234 16.3759 46.2118 16.2576 46.1842 16.1444L45.2126 16.3807C45.2176 16.4012 45.2195 16.4218 45.2184 16.442L46.2169 16.4958ZM46.1983 16.2507C46.183 15.6058 45.6625 15.0733 45.004 15.0733V16.0733C45.1021 16.0733 45.1957 16.1549 45.1985 16.2744L46.1983 16.2507ZM45.004 15.0733C44.3364 15.0733 43.8088 15.6211 43.8088 16.2798H44.8088C44.8088 16.1581 44.9038 16.0733 45.004 16.0733V15.0733ZM43.8088 16.2798C43.8088 16.3529 43.8162 16.4191 43.8254 16.4757L44.8124 16.3149C44.8094 16.2962 44.8088 16.2855 44.8088 16.2798H43.8088ZM43.9753 16.0321L43.9692 16.0379L44.6564 16.7643L44.6625 16.7585L43.9753 16.0321ZM43.8128 16.4011V17.1309H44.8128V16.4011H43.8128ZM43.8129 17.1189C43.794 17.9113 43.8124 18.7044 43.868 19.4973L44.8656 19.4273C44.8121 18.6655 44.7944 17.9037 44.8127 17.1429L43.8129 17.1189ZM44.1943 18.993C41.9612 19.8139 39.5224 20.2444 37.053 20.2444V21.2444C39.6369 21.2444 42.1927 20.7942 44.5393 19.9316L44.1943 18.993ZM37.053 20.2444C34.5966 20.2444 32.1704 19.8185 29.9468 19.0059L29.6036 19.9452C31.9401 20.799 34.4827 21.2444 37.053 21.2444V20.2444Z"
    fill="currentColor" />
</svg>