<svg xmlns="http://www.w3.org/2000/svg" width="100%" height="100%" viewBox="0 0 24 19" id="get_discount">
  <title>Get Discount</title>
  <path
    d="M22.1671 15.0206C23.3117 13.8704 24 12.428 24 10.8571C24 7.46344 20.8146 4.65967 16.6592 4.15879C16.6592 4.15922 16.6596 4.15964 16.6596 4.16007C15.3488 1.71636 12.2642 0 8.66673 0C3.88009 0 0.000102776 3.03788 0.000102776 6.78571C0.000102776 8.35661 0.688433 9.799 1.83301 10.9492C1.19551 12.2529 0.277185 13.2618 0.262185 13.2771C-0.000730551 13.5608 -0.0732302 13.9781 0.0780191 14.3369C0.152353 14.5125 0.275574 14.6621 0.432473 14.7673C0.589373 14.8724 0.773084 14.9285 0.960932 14.9286C3.19176 14.9286 4.98883 14.0702 6.17633 13.2839C6.55466 13.3725 6.94507 13.44 7.34299 13.4883C8.6559 15.929 11.7388 17.6429 15.3334 17.6429C16.1996 17.6429 17.0346 17.5406 17.8238 17.3553C19.0113 18.1416 20.8083 19 23.0392 19C23.4233 19 23.7704 18.7667 23.9217 18.4079C24.0733 18.0492 24.0004 17.6318 23.7375 17.3481C23.7229 17.3328 22.8046 16.3243 22.1671 15.0206ZM6.47591 11.9615L5.92424 11.8322L5.44966 12.1464C4.61342 12.7003 3.34592 13.3445 1.79635 13.5235C2.16176 13.0443 2.63676 12.3525 3.02717 11.554L3.45717 10.6739L2.77009 9.98348C2.11468 9.32484 1.33343 8.23574 1.33343 6.78571C1.33343 3.79237 4.623 1.35714 8.66673 1.35714C12.7105 1.35714 16 3.79237 16 6.78571C16 9.77906 12.7105 12.2143 8.66673 12.2143C7.92799 12.2143 7.19091 12.129 6.47591 11.9615ZM18.5509 16.2174L18.0763 15.9032L17.5246 16.0325C16.8059 16.2009 16.0708 16.2858 15.3334 16.2857C12.6192 16.2857 10.2501 15.1856 8.98215 13.5591C13.6213 13.4281 17.3334 10.45 17.3334 6.78571C17.3334 6.38493 17.2804 5.99433 17.195 5.61263C20.3384 6.22504 22.6667 8.34091 22.6667 10.8571C22.6667 12.3072 21.8854 13.3963 21.2304 14.0545L20.5433 14.7449L20.9733 15.625C21.3642 16.4248 21.8404 17.1174 22.2038 17.5945C20.6542 17.4155 19.3871 16.7713 18.5509 16.2174ZM9.72423 6.4002L7.99257 5.87134C7.81674 5.81748 7.69299 5.63299 7.69299 5.42263C7.69299 5.1669 7.87382 4.95866 8.09548 4.95866H9.17631C9.33881 4.95866 9.49506 5.00446 9.63298 5.09013C9.76506 5.17199 9.93756 5.13891 10.0496 5.03076L10.5263 4.56975C10.6734 4.42725 10.6671 4.17873 10.5038 4.05616C10.163 3.80042 9.75506 3.64987 9.33381 3.61848V3.05357C9.33381 2.86612 9.18465 2.71429 9.00048 2.71429H8.33382C8.14965 2.71429 8.00049 2.86612 8.00049 3.05357V3.62187C7.09007 3.67658 6.35966 4.45397 6.35966 5.42263C6.35966 6.22759 6.87382 6.94687 7.60965 7.17123L9.34131 7.70009C9.51715 7.75395 9.6409 7.93844 9.6409 8.14879C9.6409 8.40453 9.46006 8.61277 9.2384 8.61277H8.15757C7.99507 8.61277 7.83882 8.56696 7.7009 8.48129C7.56882 8.39902 7.39632 8.43252 7.28424 8.54067L6.80757 9.00167C6.66049 9.14417 6.66674 9.3927 6.83007 9.51527C7.17091 9.771 7.57882 9.92156 8.00007 9.95295V10.5179C8.00007 10.7053 8.14923 10.8571 8.3334 10.8571H9.00006C9.18423 10.8571 9.3334 10.7053 9.3334 10.5179V9.94955C10.2438 9.89484 10.9742 9.11745 10.9742 8.14879C10.9742 7.34384 10.4596 6.62455 9.72423 6.4002Z"
    fill="#292929" />
</svg>