<svg xmlns="http://www.w3.org/2000/svg" width="100%" height="100%" viewBox="0 0 69 59" testId="">
  <title>HasselFreeReturns</title>
  <path
    d="M25.3481 56.678C13.1891 52.5539 5.36791 40.7436 6.32743 27.9565C6.36726 27.4229 6.83378 27.022 7.36823 27.0618C7.89649 27.1039 8.30266 27.5681 8.26243 28.1026C7.36823 40.0061 14.6506 51.0015 25.9709 54.8411C39.644 59.4786 54.5411 52.1275 59.1786 38.4546C59.351 37.9464 59.9004 37.6753 60.4086 37.8477C60.9161 38.0199 61.1877 38.5695 61.0153 39.0777C56.0345 53.7628 40.0332 61.6587 25.3481 56.678Z"
    fill="currentColor" stroke="currentColor" />
  <path
    d="M8.66568 21.3225C8.15747 21.1503 7.8866 20.6002 8.05875 20.0927C13.0397 5.4072 29.0403 -2.48853 43.7262 2.49241C55.8847 6.61625 63.7059 18.4259 62.7464 31.2133C62.7065 31.7468 62.24 32.1477 61.7053 32.1079C61.1782 32.0715 60.772 31.6018 60.8114 31.0671C61.7056 19.1636 54.4229 8.1685 43.1031 4.32913C29.4296 -0.308431 14.5333 7.04228 9.89545 20.7158C9.72327 21.2233 9.17322 21.4947 8.66568 21.3225Z"
    fill="currentColor" stroke="currentColor" />
  <path
    d="M55.5201 26.7901C55.522 26.5416 55.6194 26.2941 55.8105 26.1067C56.1923 25.7307 56.8054 25.7357 57.1813 26.1183L62.5605 31.5879C62.9366 31.9699 62.9315 32.5831 62.5489 32.9587C62.1672 33.3347 61.554 33.3297 61.1781 32.9471L55.799 27.4776C55.6112 27.287 55.5178 27.0382 55.5201 26.7901V26.7901Z"
    fill="currentColor" stroke="currentColor" />
  <path
    d="M67.3777 25.919C67.6264 25.921 67.8736 26.0181 68.061 26.2091C68.4372 26.5912 68.432 27.2044 68.0495 27.58L62.58 32.9592C62.1978 33.3354 61.5847 33.3302 61.209 32.9479C60.8327 32.5658 60.838 31.9527 61.2203 31.577L66.6902 26.1976C66.8806 26.0099 67.1297 25.9169 67.3777 25.919Z"
    fill="currentColor" stroke="currentColor" />
  <path
    d="M13.8191 32.1476C13.817 32.3961 13.7199 32.6433 13.5288 32.8307C13.1468 33.207 12.5336 33.2017 12.158 32.8194L6.77887 27.3496C6.40254 26.9678 6.40788 26.3544 6.79018 25.9787C7.17223 25.6026 7.78542 25.6077 8.16103 25.9902L13.5404 31.4598C13.7282 31.6504 13.8212 31.8995 13.8191 32.1476L13.8191 32.1476Z"
    fill="currentColor" stroke="currentColor" />
  <path
    d="M1.96213 33.0191C1.71327 33.0171 1.46619 32.9198 1.27878 32.7287C0.902714 32.3469 0.907674 31.7337 1.29032 31.3581L6.75983 25.9787C7.14194 25.6026 7.75507 25.6077 8.13076 25.9902C8.50681 26.3721 8.50178 26.9852 8.11919 27.3611L2.64962 32.7402C2.45902 32.9281 2.21023 33.0212 1.96214 33.0191L1.96213 33.0191Z"
    fill="currentColor" stroke="currentColor" />
  <path
    d="M36.0712 27.9047H32.4633C31.1957 27.9047 29.9323 26.8917 29.7146 25.6428C29.4143 23.9182 30.7492 22.4072 32.421 22.4072H38.9189C39.5788 22.4072 40.16 21.9208 40.222 21.2639C40.2928 20.5144 39.6988 19.8782 38.9632 19.8782H35.5435V17.3573C35.5435 16.7092 35.0914 16.1287 34.4525 16.0195C33.6274 15.8786 32.9046 16.5198 32.9046 17.3223V19.8782H32.3768C29.4189 19.8782 27 22.2913 27 25.2657C27 28.2295 29.4081 30.6533 32.3768 30.6533H36.0578C37.6424 30.6533 38.9278 31.9512 38.8196 33.5322C38.7235 34.929 37.552 36.0409 36.1319 36.0409H29.5068C28.8584 36.0409 28.2778 36.4933 28.169 37.1326C28.0287 37.9576 28.6686 38.6798 29.4691 38.6798H32.9046V41.2449C32.9046 41.8931 33.3563 42.4733 33.9955 42.5828C34.8206 42.7237 35.5435 42.0823 35.5435 41.28V38.6798H36.104H36.1371C39.0619 38.6467 41.4368 36.2451 41.4368 33.2922C41.4477 30.3176 39.0399 27.9047 36.0712 27.9047Z"
    fill="currentColor" />
</svg>