<svg xmlns="http://www.w3.org/2000/svg" width="24" height="25" viewBox="0 0 24 25" fill="none" id="help_center">
  <path d="M12 15.8816C11.3141 15.8816 10.7581 16.4376 10.7581 17.1235C10.7581 17.8094 11.3141 18.3654 12 18.3654C12.6859 18.3654 13.2419 17.8094 13.2419 17.1235C13.2419 16.4376 12.6859 15.8816 12 15.8816ZM12.3402 14.8171H11.6305C11.3366 14.8171 11.0983 14.5787 11.0983 14.2848V14.2679C11.0983 11.1478 14.5331 11.4461 14.5331 9.50383C14.5331 8.61602 13.7453 7.72028 11.9854 7.72028C10.6927 7.72028 10.022 8.14826 9.35907 8.99291C9.18573 9.21379 8.86877 9.25881 8.63839 9.09829L8.05583 8.69245C7.80634 8.51862 7.75156 8.17035 7.93852 7.93056C8.87999 6.72291 9.99702 5.94608 11.9854 5.94608C14.306 5.94608 16.3073 7.26569 16.3073 9.50383C16.3073 12.494 12.8725 12.3358 12.8725 14.2679V14.2848C12.8725 14.5787 12.6341 14.8171 12.3402 14.8171ZM12 2.57512C17.2614 2.57512 21.5806 6.83651 21.5806 12.1558C21.5806 17.4469 17.2955 21.7364 12 21.7364C6.71095 21.7364 2.41935 17.4534 2.41935 12.1558C2.41935 6.86853 6.70412 2.57512 12 2.57512ZM12 1.15576C5.92529 1.15576 1 6.08283 1 12.1558C1 18.2322 5.92529 23.1558 12 23.1558C18.0747 23.1558 23 18.2322 23 12.1558C23 6.08283 18.0747 1.15576 12 1.15576Z" fill="#292929"/>
</svg>