<svg width="100%" height="100%" viewBox="0 0 25 25" xmlns="http://www.w3.org/2000/svg" testId="lock" id="lock">
<path fill-rule="evenodd" clip-rule="evenodd" d="M19.4214 11.0812H20.5143C21.721 11.0812 22.7 12.0386 22.7 13.2187V21.7687C22.7 22.9488 21.721 23.9062 20.5143 23.9062H4.48572C3.27902 23.9062 2.3 22.9488 2.3 21.7687V13.2187C2.3 12.0386 3.27902 11.0812 4.48572 11.0812H5.57857V7.87495C5.57857 4.14323 8.68411 1.1062 12.5 1.1062C16.3159 1.1062 19.4214 4.14323 19.4214 7.87495V11.0812ZM8.62143 7.87495V11.0812H16.3786V7.87495C16.3786 6.10706 14.9 4.0687 12.5 4.0687C10.1 4.0687 8.62143 6.10706 8.62143 7.87495ZM12.5 19.7062C11.8357 19.7062 11.3 19.2062 11.3 18.5862V16.0262C11.3 15.4062 11.8357 14.9062 12.5 14.9062C13.1643 14.9062 13.7 15.4062 13.7 16.0262V18.5862C13.7 19.2062 13.1643 19.7062 12.5 19.7062Z" fill="currentColor"/>
</svg>
