<svg xmlns="http://www.w3.org/2000/svg" width="100%" height="100%" viewBox="0 0 121 60" id="mcAfee">
  <title>McAfee</title>
  <path
    d="M18.2355 14.8201C22.8916 16.9796 27.5054 19.0967 32.0768 21.2562C32.0345 23.331 32.0345 25.4482 32.0768 27.523C29.3678 26.295 26.6588 24.9824 23.9498 23.7121C23.9921 28.0311 23.9498 32.3924 23.9498 36.7114C26.6588 37.9817 29.3678 39.2096 32.0768 40.5223C32.0345 42.5971 31.9921 44.7142 32.1191 46.789C27.5054 44.6719 22.8916 42.47 18.2355 40.3529C18.2355 31.8419 18.2779 23.331 18.2355 14.8201Z"
    fill="#C01717" />
  <path
    d="M45.8757 14.8201H45.9604C45.9604 23.331 46.0027 31.8843 45.9604 40.3952C41.3466 42.5124 36.7328 44.6719 32.1614 46.789C32.0768 44.7142 32.0768 42.5971 32.1191 40.5223C34.8281 39.252 37.5794 37.9817 40.2884 36.7114C40.2884 32.3924 40.2884 28.0311 40.2884 23.7121C37.5794 24.9824 34.8704 26.295 32.1191 27.4806C32.0768 25.4058 32.0768 23.2887 32.1191 21.2139C36.6905 19.0967 41.3043 17.0219 45.8757 14.8201Z"
    fill="#75150D" />
  <path
    d="M50.1932 16.8518C51.844 18.0798 53.4524 19.3077 55.1032 20.5356C56.754 19.3077 58.3625 18.0374 60.0133 16.8518C60.0133 20.6627 60.0133 24.4312 60.0133 28.2421C59.1667 28.2421 58.3625 28.2421 57.5159 28.2421C57.5159 26.0826 57.5159 23.9231 57.5159 21.7636C56.7117 22.3564 55.9075 22.9492 55.1032 23.542C54.299 22.9492 53.4948 22.3564 52.6905 21.7636C52.6905 23.9231 52.6905 26.0826 52.6905 28.2421C51.844 28.2421 51.0397 28.2421 50.1932 28.2421C50.1932 24.4312 50.1932 20.6203 50.1932 16.8518Z"
    fill="#B91E23" />
  <path
    d="M72.7963 16.8942C73.5582 16.8942 74.3625 16.8942 75.1244 16.8942C76.6905 20.6627 78.2566 24.4312 79.8228 28.1997C78.9339 28.1997 78.0873 28.1997 77.1984 28.1997C76.9445 27.5646 76.6905 26.9295 76.4365 26.252C75.1244 26.252 73.8545 26.252 72.5424 26.252C72.2884 26.8871 72.0344 27.5223 71.7805 28.1574C70.8916 28.1574 70.045 28.1574 69.1561 28.1574C70.5953 24.897 72.0344 21.6366 73.4736 18.3338C73.2196 17.9104 73.008 17.4023 72.7963 16.8942ZM74.4471 21.3825C74.1085 22.2717 73.7275 23.1186 73.3889 24.0078C74.1085 24.0078 74.7857 24.0078 75.5053 24.0078C75.1667 23.1186 74.8281 22.2717 74.4471 21.3825Z"
    fill="#B91E23" />
  <path
    d="M82.9127 17.1058C83.8863 16.8094 84.9445 16.8941 85.8334 17.2752C85.5371 17.995 85.1984 18.6725 84.9022 19.35C84.4789 19.1807 83.9286 18.9689 83.5053 19.2653C82.9974 19.6888 83.209 20.4086 83.1667 21.0014C83.6746 21.0014 84.1826 21.0014 84.6482 21.0014C84.6482 21.7212 84.6482 22.4411 84.6482 23.1609C84.1402 23.1609 83.6746 23.1609 83.1667 23.1609C83.1667 24.8546 83.1667 26.5483 83.1667 28.2421C82.4048 28.2421 81.6429 28.2421 80.881 28.2421C80.881 26.5483 80.881 24.8546 80.881 23.1609C80.5424 23.1609 80.2037 23.1609 79.8651 23.1609C79.8651 22.4411 79.8651 21.7212 79.8651 21.0437C80.2037 21.0437 80.5424 21.0437 80.881 21.0437C80.881 20.3239 80.8387 19.5194 81.135 18.8419C81.4313 17.9951 82.1085 17.3599 82.9127 17.1058Z"
    fill="#B91E23" />
  <path
    d="M63.5265 20.0282C64.7117 19.5625 66.1085 19.5201 67.2937 20.0706C68.098 20.4517 68.6906 21.1292 69.1985 21.849C68.5636 22.2301 67.9286 22.6112 67.2937 22.9923C66.9128 22.3148 66.2355 21.722 65.4313 21.7643C64.2461 21.6796 63.1456 22.7805 63.2302 23.9661C63.1879 25.1517 64.2461 26.168 65.4313 26.1256C66.2355 26.168 66.9128 25.5752 67.2937 24.8977C67.9286 25.2788 68.5636 25.6599 69.1985 26.041C68.7329 26.8031 68.098 27.4383 67.3361 27.777C65.7699 28.5392 63.7382 28.3275 62.426 27.1419C61.3678 26.2103 60.8175 24.686 61.0292 23.2887C61.2408 21.849 62.2144 20.5787 63.5265 20.0282Z"
    fill="#B91E23" />
  <path
    d="M86.2567 21.3831C87.6112 19.5624 90.4895 19.1813 92.2673 20.5786C93.6218 21.5102 94.1297 23.2462 94.0027 24.8129C91.9287 24.8129 89.8123 24.8129 87.7382 24.8129C88.0768 25.7868 89.1773 26.4219 90.1932 26.2102C90.7011 26.1255 91.0821 25.8291 91.4631 25.4904C92.098 25.8291 92.7329 26.1679 93.3255 26.5066C92.6482 27.2265 91.844 27.8193 90.9128 28.0733C89.2197 28.5391 87.2303 27.9463 86.172 26.5066C85.0715 25.0246 85.1139 22.8228 86.2567 21.3831ZM87.8228 22.9075C89.0504 22.9075 90.2355 22.9075 91.4631 22.9075C91.1244 22.23 90.4895 21.6795 89.6853 21.7219C88.881 21.6372 88.1191 22.1876 87.8228 22.9075Z"
    fill="#B91E23" />
  <path
    d="M95.3996 21.7219C96.5002 19.9435 98.9975 19.2237 100.86 20.1552C101.918 20.6634 102.807 21.5949 103.146 22.7382C103.357 23.4157 103.4 24.1355 103.4 24.8553C101.326 24.8553 99.2092 24.8553 97.1351 24.8553C97.4737 25.7869 98.4472 26.422 99.4631 26.2526C100.013 26.2103 100.479 25.8716 100.86 25.5328C101.495 25.8716 102.087 26.2103 102.722 26.549C101.96 27.4382 100.902 28.0734 99.7171 28.2428C98.2779 28.4121 96.7118 27.904 95.7806 26.7608C94.5531 25.3634 94.4261 23.2039 95.3996 21.7219ZM97.1774 22.9075C98.4049 22.9075 99.5901 22.9075 100.818 22.9075C100.479 22.1877 99.7171 21.6373 98.8705 21.6796C98.1086 21.7219 97.4737 22.2301 97.1774 22.9075Z"
    fill="#B91E23" />
  <path
    d="M55.6958 32.5617C54.8916 32.2653 54.4683 32.1383 53.6641 32.1383C52.7752 32.1383 51.8016 32.4347 51.8016 33.5356C51.8016 35.5681 56.4577 35.06 56.4577 38.5321C56.4577 40.7763 54.68 41.6231 52.5212 41.6231C51.7593 41.6231 51.0397 41.4114 50.3202 41.1997L50.4895 39.8024C50.9974 40.0141 51.9286 40.3105 52.7329 40.3105C53.6218 40.3105 54.8493 39.8447 54.8493 38.6168C54.8493 36.2879 50.1932 36.9231 50.1932 33.6627C50.1932 31.8419 51.717 30.8257 53.6641 30.8257C54.3837 30.8257 55.2302 30.9527 55.9921 31.2068L55.6958 32.5617Z"
    fill="#66676A" />
  <path
    d="M58.5741 30.9949H64.627V32.3075H60.0979V35.3562H64.2037V36.6688H60.0979V40.141H64.627V41.4536H58.5741V30.9949Z"
    fill="#66676A" />
  <path
    d="M73.9392 32.6887C73.2196 32.3077 72.5001 32.1383 71.6958 32.1383C69.1985 32.1383 67.5477 33.8743 67.5477 36.2032C67.5477 38.6591 69.3678 40.2681 71.6112 40.2681C72.4154 40.2681 73.389 40.0988 73.9815 39.76L74.0662 41.1997C73.2196 41.5384 72.2461 41.5808 71.6112 41.5808C68.1826 41.5808 65.9392 39.4213 65.9392 36.1185C65.9392 32.8581 68.3519 30.741 71.6112 30.741C72.4577 30.741 73.262 30.868 74.0239 31.1644L73.9392 32.6887Z"
    fill="#66676A" />
  <path
    d="M83.7171 37.1346C83.7171 40.0563 82.1933 41.6653 79.5266 41.6653C76.8599 41.6653 75.3361 40.0986 75.3361 37.1346V30.9949H76.8599V36.9652C76.8599 38.9977 77.5372 40.3527 79.4843 40.3527C81.516 40.3527 82.1086 38.9977 82.1086 36.9652V30.9949H83.6324V37.1346H83.7171Z"
    fill="#66676A" />
  <path
    d="M86.172 30.9949H88.7963C90.9551 30.9949 92.9868 31.3336 92.9868 33.8319C92.9868 35.1021 92.0133 36.0337 90.7434 36.2031V36.2454C91.209 36.4148 91.463 36.6265 91.8016 37.304L93.8757 41.4536H92.1403L90.4895 37.8121C90.0239 36.7959 89.4736 36.7959 88.7117 36.7959H87.7805V41.4536H86.2567V30.9949H86.172ZM87.6958 35.5256H89.008C90.4895 35.5256 91.336 34.9328 91.336 33.9165C91.336 32.9427 90.5741 32.3922 89.1773 32.3922H87.6958V35.5256Z"
    fill="#66676A" />
  <path
    d="M95.6535 30.9949H101.664V32.3075H97.135V35.3562H101.241V36.6688H97.135V40.141H101.664V41.4536H95.6111V30.9949H95.6535Z"
    fill="#66676A" />
  <path d="M104.034 33.1115V31.4607H103.442V31.1221H105.008V31.4607H104.415V33.1115H104.034Z" fill="#66676A" />
  <path
    d="M105.262 33.1114V31.1643H105.854L106.193 32.5188L106.532 31.1643H107.124V33.1114H106.743V31.5453L106.362 33.1114H105.981L105.601 31.5453V33.1114H105.262Z"
    fill="#66676A" />
</svg>