<svg xmlns="http://www.w3.org/2000/svg" width="100%" height="100%" viewBox="0 0 24 24" fill="currentColor" id="megafone">
  <path d="M15.0223 3.82801C15.0005 3.90956 14.9949 3.99462 15.0059 4.07832C15.017 4.16202 15.0444 4.24272 15.0866 4.31583C15.1288 4.38894 15.1851 4.45301 15.252 4.50439C15.319 4.55577 15.3955 4.59346 15.477 4.6153C15.5586 4.63713 15.6436 4.64269 15.7273 4.63166C15.811 4.62063 15.8917 4.59322 15.9648 4.55099C16.0379 4.50877 16.102 4.45256 16.1534 4.38557C16.2048 4.31859 16.2425 4.24213 16.2643 4.16058L16.8189 2.09058C16.8407 2.00898 16.8463 1.92387 16.8352 1.84012C16.8242 1.75636 16.7967 1.67561 16.7545 1.60246C16.7122 1.52932 16.6559 1.46521 16.5889 1.41381C16.5219 1.3624 16.4453 1.32471 16.3637 1.30287C16.2821 1.28103 16.197 1.27548 16.1133 1.28654C16.0295 1.29759 15.9488 1.32504 15.8756 1.3673C15.7279 1.45266 15.6201 1.5932 15.576 1.75801L15.0223 3.82801ZM21.24 2.76001C21.3604 2.88055 21.428 3.04394 21.428 3.2143C21.428 3.38466 21.3604 3.54805 21.24 3.66858L19.0972 5.81144C19.0379 5.87287 18.967 5.92187 18.8886 5.9556C18.8102 5.98933 18.7258 6.0071 18.6404 6.00788C18.5551 6.00867 18.4704 5.99244 18.3914 5.96016C18.3124 5.92787 18.2406 5.88017 18.1802 5.81984C18.1198 5.75951 18.0721 5.68775 18.0397 5.60876C18.0073 5.52978 17.991 5.44513 17.9917 5.35977C17.9924 5.27442 18.0101 5.19005 18.0438 5.11161C18.0774 5.03316 18.1264 4.9622 18.1877 4.90287L20.3306 2.76001C20.4511 2.63963 20.6145 2.57201 20.7849 2.57201C20.9552 2.57201 21.1186 2.63963 21.2392 2.76001M8.72488 20.3177C9.25265 21.1973 10.093 21.8452 11.0778 22.1319C12.0626 22.4187 13.1194 22.3231 14.0368 21.8644C14.9542 21.4057 15.6647 20.6176 16.0262 19.6577C16.3877 18.6978 16.3736 17.6368 15.9866 16.6869L19.2669 15.0472C19.6009 14.8801 19.8905 14.6361 20.1118 14.3353C20.333 14.0344 20.4796 13.6852 20.5395 13.3166C20.5993 12.9479 20.5707 12.5703 20.456 12.2149C20.3413 11.8595 20.1438 11.5364 19.8797 11.2723L12.7286 4.11944C12.4645 3.85539 12.1414 3.65787 11.786 3.54317C11.4306 3.42847 11.053 3.39987 10.6843 3.45972C10.3157 3.51957 9.96652 3.66616 9.66564 3.88742C9.36476 4.10867 9.12076 4.39825 8.95374 4.7323L2.82088 16.9972C2.59981 17.4397 2.52356 17.9406 2.60293 18.4288C2.68231 18.9171 2.9133 19.368 3.26317 19.7177L4.28317 20.7377C4.63298 21.0875 5.08395 21.3183 5.57221 21.3975C6.06048 21.4767 6.5613 21.4003 7.00374 21.1792L8.72488 20.3177ZM9.88117 19.74L14.8312 17.2646C15.0654 17.9071 15.0551 18.6134 14.8022 19.2488C14.5493 19.8843 14.0715 20.4045 13.4598 20.7103C12.848 21.0162 12.1452 21.0863 11.4851 20.9074C10.825 20.7285 10.2547 20.3129 9.88117 19.74ZM10.1015 5.30744C10.1774 5.15557 10.2883 5.02392 10.4251 4.92333C10.5618 4.82274 10.7206 4.7561 10.8881 4.72889C11.0557 4.70168 11.2274 4.7147 11.389 4.76685C11.5505 4.81901 11.6974 4.90881 11.8175 5.02887L18.9695 12.1809C19.0895 12.3009 19.1793 12.4478 19.2315 12.6094C19.2836 12.7709 19.2966 12.9426 19.2694 13.1102C19.2422 13.2778 19.1756 13.4365 19.075 13.5733C18.9744 13.71 18.8428 13.821 18.6909 13.8969L6.4286 20.0297C6.22747 20.1303 5.99978 20.1651 5.77779 20.1291C5.5558 20.0931 5.35077 19.9882 5.19174 19.8292L4.17174 18.8092C4.01273 18.6501 3.9078 18.4451 3.8718 18.2231C3.8358 18.0011 3.87057 17.7734 3.97117 17.5723L10.1015 5.30744ZM19.2857 8.35887C19.2857 8.18837 19.3535 8.02486 19.474 7.9043C19.5946 7.78374 19.7581 7.71601 19.9286 7.71601H22.0715C22.242 7.71601 22.4055 7.78374 22.526 7.9043C22.6466 8.02486 22.7143 8.18837 22.7143 8.35887C22.7143 8.52937 22.6466 8.69288 22.526 8.81344C22.4055 8.934 22.242 9.00173 22.0715 9.00173H19.9286C19.7581 9.00173 19.5946 8.934 19.474 8.81344C19.3535 8.69288 19.2857 8.52937 19.2857 8.35887Z" fill="#292929"/>
</svg>