<svg xmlns="http://www.w3.org/2000/svg" width="100%" height="100%" viewBox="0 0 90 113">
  <title>Shapermint Logo</title>
  <path
    d="M34.1406 97.8281C35.2068 97.8281 36.249 97.512 37.1355 96.9196C38.022 96.3273 38.7129 95.4854 39.1209 94.5004C39.5289 93.5154 39.6357 92.4315 39.4277 91.3858C39.2197 90.3402 38.7063 89.3796 37.9524 88.6258C37.1985 87.8719 36.238 87.3585 35.1923 87.1505C34.1466 86.9425 33.0627 87.0492 32.0777 87.4572C31.0927 87.8652 30.2508 88.5561 29.6585 89.4426C29.0662 90.3291 28.75 91.3713 28.75 92.4375C28.75 93.8672 29.3179 95.2383 30.3289 96.2492C31.3398 97.2602 32.7109 97.8281 34.1406 97.8281ZM34.1406 90.6406C34.496 90.6406 34.8434 90.746 35.1389 90.9435C35.4344 91.1409 35.6647 91.4215 35.8007 91.7499C35.9367 92.0782 35.9723 92.4395 35.903 92.7881C35.8336 93.1366 35.6625 93.4568 35.4112 93.7081C35.1599 93.9594 34.8397 94.1305 34.4912 94.1999C34.1426 94.2692 33.7813 94.2336 33.453 94.0976C33.1247 93.9616 32.844 93.7313 32.6466 93.4358C32.4491 93.1403 32.3438 92.7929 32.3438 92.4375C32.3438 91.9609 32.5331 91.5039 32.87 91.1669C33.207 90.8299 33.6641 90.6406 34.1406 90.6406Z"
    fill="currentColor" />
  <path d="M25.1562 7.98438H43.125V11.5781H25.1562V7.98438Z" fill="currentColor" />
  <path
    d="M50.3125 38.5312H53.9062V34.9375H48.5156C48.0391 34.9375 47.582 35.1268 47.245 35.4638C46.9081 35.8008 46.7188 36.2578 46.7188 36.7344V42.125H50.3125V38.5312Z"
    fill="currentColor" />
  <path
    d="M79.0625 42.125H82.6562V36.7344C82.6562 36.2578 82.4669 35.8008 82.13 35.4638C81.793 35.1268 81.3359 34.9375 80.8594 34.9375H75.4688V38.5312H79.0625V42.125Z"
    fill="currentColor" />
  <path
    d="M48.5156 70.875H53.9062V67.2812H50.3125V63.6875H46.7188V69.0781C46.7188 69.5547 46.9081 70.0117 47.245 70.3487C47.582 70.6857 48.0391 70.875 48.5156 70.875Z"
    fill="currentColor" />
  <path
    d="M79.0625 67.2812H75.4688V70.875H80.8594C81.3359 70.875 81.793 70.6857 82.13 70.3487C82.4669 70.0117 82.6562 69.5547 82.6562 69.0781V63.6875H79.0625V67.2812Z"
    fill="currentColor" />
  <path
    d="M52.1094 42.125V49.3125C52.1094 49.7891 52.2987 50.2461 52.6357 50.5831C52.9726 50.9201 53.4297 51.1094 53.9062 51.1094H61.0938C61.5703 51.1094 62.0274 50.9201 62.3643 50.5831C62.7013 50.2461 62.8906 49.7891 62.8906 49.3125V42.125C62.8906 41.6484 62.7013 41.1914 62.3643 40.8544C62.0274 40.5174 61.5703 40.3281 61.0938 40.3281H53.9062C53.4297 40.3281 52.9726 40.5174 52.6357 40.8544C52.2987 41.1914 52.1094 41.6484 52.1094 42.125ZM55.7031 43.9219H59.2969V47.5156H55.7031V43.9219Z"
    fill="currentColor" />
  <path
    d="M68.2812 65.4844H75.4688C75.9453 65.4844 76.4024 65.2951 76.7393 64.9581C77.0763 64.6211 77.2656 64.1641 77.2656 63.6875V56.5C77.2656 56.0234 77.0763 55.5664 76.7393 55.2294C76.4024 54.8924 75.9453 54.7031 75.4688 54.7031H68.2812C67.8047 54.7031 67.3476 54.8924 67.0107 55.2294C66.6737 55.5664 66.4844 56.0234 66.4844 56.5V63.6875C66.4844 64.1641 66.6737 64.6211 67.0107 64.9581C67.3476 65.2951 67.8047 65.4844 68.2812 65.4844ZM70.0781 58.2969H73.6719V61.8906H70.0781V58.2969Z"
    fill="currentColor" />
  <path
    d="M68.2812 51.1094H77.2656V47.5156H70.0781V40.3281H66.4844V49.3125C66.4844 49.7891 66.6737 50.2461 67.0107 50.5831C67.3476 50.9201 67.8047 51.1094 68.2812 51.1094Z"
    fill="currentColor" />
  <path d="M71.875 42.125H75.4688V45.7188H71.875V42.125Z" fill="currentColor" />
  <path
    d="M61.0938 54.7031H52.1094V58.2969H59.2969V65.4844H62.8906V56.5C62.8906 56.0234 62.7013 55.5664 62.3643 55.2294C62.0274 54.8924 61.5703 54.7031 61.0938 54.7031Z"
    fill="currentColor" />
  <path d="M53.9062 60.0938H57.5V63.6875H53.9062V60.0938Z" fill="currentColor" />
  <path
    d="M88.0469 27.75H68.2812V13.375C68.2774 10.0402 66.951 6.84316 64.593 4.48512C62.235 2.12709 59.0379 0.80068 55.7031 0.796875H12.5781C9.24337 0.80068 6.04628 2.12709 3.68825 4.48512C1.33022 6.84316 0.00380463 10.0402 0 13.375V99.625C0.00380463 102.96 1.33022 106.157 3.68825 108.515C6.04628 110.873 9.24337 112.199 12.5781 112.203H55.7031C59.0379 112.199 62.235 110.873 64.593 108.515C66.951 106.157 68.2774 102.96 68.2812 99.625V78.0625H88.0469C88.5234 78.0625 88.9805 77.8732 89.3175 77.5362C89.6544 77.1992 89.8438 76.7422 89.8438 76.2656V29.5469C89.8438 29.0703 89.6544 28.6133 89.3175 28.2763C88.9805 27.9393 88.5234 27.75 88.0469 27.75ZM64.6875 99.625C64.6846 102.007 63.7372 104.29 62.0529 105.975C60.3686 107.659 58.0851 108.607 55.7031 108.609H12.5781C10.1962 108.607 7.91264 107.659 6.22836 105.975C4.54408 104.29 3.5966 102.007 3.59375 99.625V13.375C3.5966 10.9931 4.54408 8.70952 6.22836 7.02524C7.91264 5.34096 10.1962 4.39348 12.5781 4.39062H55.7031C58.0851 4.39348 60.3686 5.34096 62.0529 7.02524C63.7372 8.70952 64.6846 10.9931 64.6875 13.375V27.75H61.0938V15.1719C61.0938 13.2656 60.3365 11.4375 58.9886 10.0895C57.6407 8.74163 55.8125 7.98438 53.9062 7.98438H48.5156C48.0391 7.98438 47.582 8.17369 47.245 8.51067C46.9081 8.84765 46.7188 9.30469 46.7188 9.78125V13.375C46.7188 13.8516 46.5294 14.3086 46.1925 14.6456C45.8555 14.9826 45.3984 15.1719 44.9219 15.1719H23.3594C22.8828 15.1719 22.4258 14.9826 22.0888 14.6456C21.7518 14.3086 21.5625 13.8516 21.5625 13.375V9.78125C21.5625 9.30469 21.3732 8.84765 21.0362 8.51067C20.6992 8.17369 20.2422 7.98438 19.7656 7.98438H14.375C12.4688 7.98438 10.6406 8.74163 9.29267 10.0895C7.94475 11.4375 7.1875 13.2656 7.1875 15.1719V97.8281C7.1875 99.7344 7.94475 101.563 9.29267 102.91C10.6406 104.258 12.4688 105.016 14.375 105.016H53.9062C55.8125 105.016 57.6407 104.258 58.9886 102.91C60.3365 101.563 61.0938 99.7344 61.0938 97.8281V78.0625H64.6875V99.625ZM22.8437 54.6277L39.5312 59.6338V76.2656C39.5312 76.7422 39.7206 77.1992 40.0575 77.5362C40.3945 77.8732 40.8516 78.0625 41.3281 78.0625H57.5V97.8281C57.5 98.7812 57.1214 99.6953 56.4474 100.369C55.7735 101.043 54.8594 101.422 53.9062 101.422H14.375C13.4219 101.422 12.5078 101.043 11.8338 100.369C11.1599 99.6953 10.7812 98.7812 10.7812 97.8281V15.1719C10.7812 14.2188 11.1599 13.3047 11.8338 12.6307C12.5078 11.9568 13.4219 11.5781 14.375 11.5781H17.9688V13.375C17.9688 14.8047 18.5367 16.1758 19.5476 17.1867C20.5586 18.1977 21.9297 18.7656 23.3594 18.7656H44.9219C46.3516 18.7656 47.7227 18.1977 48.7336 17.1867C49.7446 16.1758 50.3125 14.8047 50.3125 13.375V11.5781H53.9062C54.8594 11.5781 55.7735 11.9568 56.4474 12.6307C57.1214 13.3047 57.5 14.2188 57.5 15.1719V27.75H41.3281C40.8516 27.75 40.3945 27.9393 40.0575 28.2763C39.7206 28.6133 39.5312 29.0703 39.5312 29.5469V46.1787L22.8437 51.1848C22.4733 51.2957 22.1485 51.5231 21.9177 51.8332C21.6868 52.1433 21.5621 52.5196 21.5621 52.9062C21.5621 53.2929 21.6868 53.6692 21.9177 53.9793C22.1485 54.2894 22.4733 54.5168 22.8437 54.6277ZM86.25 74.4688H43.125V58.2969C43.125 57.9103 43.0004 57.534 42.7696 57.2239C42.5388 56.9138 42.2141 56.6864 41.8438 56.5755L29.6125 52.9062L41.8438 49.237C42.2141 49.1261 42.5388 48.8987 42.7696 48.5886C43.0004 48.2785 43.125 47.9022 43.125 47.5156V31.3438H86.25V74.4688Z"
    fill="currentColor" />
</svg>