<svg xmlns="http://www.w3.org/2000/svg" width="100%" height="100%" viewBox="0 0 88 30">
  <title>Revel Beauty</title>
  <path
    d="M8.27676 7.52491C8.63953 7.09253 8.91083 6.59284 9.07467 6.05531C9.23593 5.53265 9.31913 4.98959 9.32166 4.44325C9.3305 3.81439 9.21299 3.19003 8.9759 2.60624C8.75077 2.07153 8.40664 1.59363 7.96899 1.20788C7.48864 0.801078 6.92862 0.496086 6.32374 0.311873C5.60101 0.0951999 4.84864 -0.00975986 4.09336 0.000712973H0.0429688V13.1821H2.67611V8.99074H4.42773L7.25085 13.1821H10.3172L7.20526 8.39092C7.61438 8.1712 7.97788 7.87741 8.27676 7.52491V7.52491ZM6.49853 5.14805C6.42596 5.37681 6.31555 5.59216 6.17177 5.78538C6.00613 5.99952 5.79123 6.17172 5.54482 6.28775C5.23142 6.42792 4.8894 6.49462 4.54552 6.48268H2.67611V2.50878H4.57592C4.95629 2.48982 5.33501 2.56998 5.67402 2.74121C5.92557 2.87457 6.13568 3.07282 6.28195 3.3148C6.40781 3.52195 6.49651 3.74897 6.54413 3.98587C6.58206 4.16607 6.60367 4.34923 6.60871 4.53321C6.60179 4.74228 6.56469 4.94931 6.49853 5.14805V5.14805Z"
    fill="#292929" />
  <path
    d="M22.3914 7.82883H28.1289V5.32077H22.3914V2.50904H28.8736V0.000976562H19.7583V13.1824H29.1282V10.6743H22.3914V7.82883Z"
    fill="#292929" />
  <path d="M47.047 0.000976562L44.1821 7.43144L41.1272 0.000976562H37.9697L44.0681 13.7935L50.1665 0.000976562H47.047Z"
    fill="#292929" />
  <path
    d="M69.1043 10.6743H62.3675V7.82883H68.105V5.32077H62.3675V2.50904H68.8497V0.000976562H59.7344V13.1824H69.1043V10.6743Z"
    fill="#292929" />
  <path d="M81.7191 0.000976562H79.0859V13.1824H87.9999V10.6743H81.7191V0.000976562Z" fill="#292929" />
  <path
    d="M4.49116 24.9836C4.29497 24.8828 4.08868 24.8024 3.87563 24.7437C4.05771 24.6734 4.2311 24.5828 4.39239 24.4737C4.72387 24.2412 4.98625 23.9253 5.15232 23.559C5.33 23.1717 5.41947 22.7507 5.41447 22.3256C5.41447 21.4183 5.14091 20.7623 4.59376 20.3574C3.90893 19.9142 3.09728 19.7011 2.27978 19.75H0V29.9173H2.68256C3.09507 29.9208 3.5059 29.8652 3.90223 29.7523C4.27712 29.65 4.62994 29.481 4.94332 29.2537C5.24766 29.0297 5.49593 28.7398 5.66906 28.4064C5.85458 28.0349 5.94586 27.6245 5.93504 27.2105C5.95154 26.7411 5.81867 26.2783 5.55508 25.8871C5.28199 25.5034 4.91633 25.1929 4.49116 24.9836ZM0.725742 20.4211H2.32159C2.93685 20.39 3.54585 20.5557 4.05802 20.8935C4.28553 21.0833 4.4631 21.3246 4.57558 21.5969C4.68806 21.8691 4.73209 22.1641 4.70394 22.4568C4.72018 22.9842 4.54804 23.5003 4.2176 23.9151C4.01504 24.1262 3.76636 24.2889 3.49049 24.3909C3.21462 24.4929 2.91881 24.5315 2.62556 24.5037H0.725742V20.4211ZM4.87873 28.3727C4.63966 28.6811 4.31688 28.9164 3.94782 29.0512C3.54013 29.2035 3.10701 29.2785 2.67115 29.2724H0.725742V25.1785H2.62556C3.04112 25.1775 3.45375 25.2473 3.84525 25.3848C4.22807 25.5143 4.56903 25.742 4.83314 26.0446C5.10374 26.3839 5.23892 26.8094 5.2131 27.2405C5.23079 27.6439 5.11327 28.0418 4.87873 28.3727V28.3727Z"
    fill="#292929" />
  <path
    d="M16.0874 25.1345H21.1675V24.4597H16.0874V20.422H21.7336V19.751H15.373V29.9182H21.9388V29.2471H16.0874V25.1345Z"
    fill="#292929" />
  <path
    d="M34.8998 19.3047L30.5454 29.918H31.2635L32.6314 26.544H37.191L38.536 29.918H39.334L34.9758 19.3047H34.8998ZM32.8898 25.8954L34.915 20.898L36.9098 25.8954H32.8898Z"
    fill="#292929" />
  <path
    d="M54.7332 26.4806C54.7451 27.0157 54.614 27.5445 54.3533 28.0139C54.1166 28.4336 53.765 28.7792 53.3387 29.0111C52.8851 29.2483 52.3779 29.3683 51.8645 29.3598C51.3583 29.3686 50.8585 29.2485 50.413 29.0111C49.9887 28.778 49.6386 28.4326 49.4023 28.0139C49.1416 27.5445 49.0105 27.0157 49.0224 26.4806V19.7324H48.3118V26.5068C48.2943 27.1612 48.4544 27.8084 48.7754 28.3813C49.0722 28.8946 49.5129 29.3124 50.0445 29.5847C50.6064 29.8584 51.2246 30.0008 51.8512 30.0008C52.4779 30.0008 53.096 29.8584 53.6579 29.5847C54.1919 29.3118 54.6361 28.8943 54.9384 28.3813C55.2619 27.809 55.4246 27.1619 55.4096 26.5068V19.7512H54.7142L54.7332 26.4806Z"
    fill="#292929" />
  <path d="M64.6211 20.422H67.6266V29.9182H68.3371V20.422H71.373V19.751H64.6211V20.422Z" fill="#292929" />
  <path
    d="M83.7946 25.5019L80.4472 19.751H79.5732L83.4223 26.2967V29.9182H84.1328V26.2967L87.9818 19.751H87.1231L83.7946 25.5019Z"
    fill="#292929" />
</svg>