<svg xmlns="http://www.w3.org/2000/svg" width="100%" height="100%" viewBox="0 0 204 35" id="shapermint">
  <title>Shapermint</title>
  <path
    d="M167.389 6.74999C169.252 6.74999 170.762 5.23895 170.762 3.37499C170.762 1.51104 169.252 0 167.389 0C165.525 0 164.015 1.51104 164.015 3.37499C164.015 5.23895 165.525 6.74999 167.389 6.74999Z"
    fill="#292929" />
  <path
    d="M71.7943 27.8751H67.0458V25.4637C66.6588 26.527 64.0919 28.3751 61.0478 28.3751C55.914 28.3751 51.8008 23.8688 51.8008 18.3751C51.8008 12.8561 55.9156 8.37512 61.7975 8.37512C67.6537 8.37512 71.7943 12.8561 71.7943 18.3751V27.8751ZM61.6726 12.9574C58.9122 12.9574 56.6742 15.2359 56.6742 18.3751C56.6742 21.4131 58.9122 23.8181 61.6726 23.8181C64.433 23.8181 66.7959 21.3371 66.7959 18.3751C66.7959 15.3371 64.433 12.9574 61.6726 12.9574Z"
    fill="#292929" />
  <path
    d="M161.267 27.8751H156.297V16.6017C156.297 15.5099 155.911 12.8439 152.435 12.9708C150.426 13.0216 148.856 14.6974 148.856 16.6778V27.8751H143.886V16.6017C143.886 15.5353 143.551 12.9454 140.255 12.9454C138.041 12.9454 136.496 14.4435 136.496 16.6017V27.8751H131.526V16.9318C131.526 12.0568 134.951 8.37512 140.281 8.37512C142.933 8.37512 145.07 9.41614 146.461 11.0919C147.929 9.41614 150.117 8.37512 152.641 8.37512C158.074 8.37512 161.267 11.9044 161.267 16.9318V27.8751Z"
    fill="#292929" />
  <path
    d="M182.26 8.37512C187.689 8.37512 190.88 11.9044 190.88 16.9318V27.8751H185.914V16.8048C185.914 15.713 185.528 12.9454 182.054 12.9454C180.047 12.9454 178.477 14.9005 178.477 16.8556V27.8497H173.511V16.9064C173.511 12.0568 176.959 8.37512 182.26 8.37512Z"
    fill="#292929" />
  <path
    d="M80.0468 35.0001V25.9644C81.0013 26.9796 83.0136 28.401 85.8256 28.401C90.9594 28.401 95.0355 23.9085 95.0355 18.3753C95.0355 12.8676 90.9078 8.37512 85.0516 8.37512C79.1697 8.37512 75.042 12.8676 75.042 18.3753V35.0001H80.0468ZM85.0774 23.8323C82.317 23.8323 80.0468 21.4211 80.0468 18.3753C80.0468 15.4057 82.317 12.9438 85.0774 12.9438C87.8378 12.9438 90.0564 15.2788 90.0564 18.3753C90.0564 21.4972 87.8378 23.8323 85.0774 23.8323Z"
    fill="#292929" />
  <path
    d="M49.2774 27.875H44.3321V16.8473C44.3321 15.7293 43.9734 12.9596 40.7705 12.9596C38.5669 12.9596 37.0039 14.6875 37.0039 16.8473V27.875H32.0586V1.5H37.0039V10.6982C37.9775 9.22446 40.0274 8.41136 41.6929 8.41136C46.4076 8.41136 49.303 11.8162 49.303 16.8473V27.875H49.2774Z"
    fill="#292929" />
  <path
    d="M204 27.8097C197.771 28.3921 194.003 25.024 194.003 19.8072V3.625H198.95V8.56323H204V13.1216H198.95V19.8579C198.95 22.5169 200.975 23.5299 204 23.3779V27.8097Z"
    fill="#292929" />
  <path
    d="M116.902 20.2129C116.979 19.6552 117.031 18.7427 117.031 18.3624C117.031 12.1521 112.453 8.37512 107.49 8.37512C101.986 8.37512 97.5371 12.9125 97.5371 18.4385C97.5371 23.9645 102.089 28.3751 108.184 28.3751C111.039 28.3751 114.253 27.3865 115.925 25.6121L113.507 22.0887C112.479 23.0266 111.219 23.8377 108.518 23.8377C104.172 23.8377 102.938 21.1761 102.835 20.2129H116.902ZM102.809 16.6134C103.092 14.8897 104.635 12.9379 107.335 12.9379C110.473 12.9379 111.939 15.0418 112.119 16.6641L102.809 16.6134Z"
    fill="#292929" />
  <path d="M169.886 27.875H164.888V8.875H169.886V27.875Z" fill="#292929" />
  <path
    d="M129.899 12.9691C126.732 12.4105 124.621 14.0864 124.621 16.8035V27.875H119.652V16.8035C119.652 11.3693 123.463 7.58573 129.899 8.34753V12.9691Z"
    fill="#292929" />
  <path
    d="M21.174 29.1575C26.6159 29.3607 29.5818 26.1339 29.5818 21.713C29.5818 17.3175 24.8879 15.9201 22.5925 15.1579C19.8329 14.2432 17.7181 13.7096 17.7181 12.1598C17.7181 10.9148 18.8529 10.1271 20.6582 10.1271C22.412 10.1271 24.6558 10.864 26.8222 12.1852L26.9769 12.2868L29.1691 8.42483L29.0402 8.34861C26.6159 6.77333 23.5468 5.83325 20.813 5.83325C16.0675 5.83325 12.7405 8.67891 12.7405 12.7695C12.7405 17.3937 17.5118 18.842 19.7814 19.3755C22.5667 20.0107 24.6042 20.6713 24.6042 22.3736C24.6042 23.7456 23.2889 24.9144 21.1998 24.6349C17.8986 24.1267 12.07 20.4426 7.86612 20.4426C4.17807 20.4426 1.49585 22.0433 0 25.016L4.1007 27.074C4.61651 26.0323 5.44181 24.9906 7.35031 24.9906C11.7089 24.9906 15.9128 28.9542 21.174 29.1575Z"
    fill="#292929" />
</svg>