<svg xmlns="http://www.w3.org/2000/svg" width="100%" height="100%" viewBox="0 0 121 120">
  <title>Shapermint Logo"<title>
      <path fillRule="evenodd" clipRule="evenodd"
        d="M120.548 60C120.548 93.1371 93.6849 120 60.5479 120C40.0675 120 21.9837 109.739 11.1573 94.0769C11.1745 94.0425 11.191 94.0068 11.2065 93.9698C12.9467 90.3807 15.7745 86.7553 22.3364 86.7553C29.6678 86.7376 36.8521 90.0069 44.3795 93.4323C52.2625 97.0195 60.5217 100.778 69.7201 101.112C88.3545 101.801 98.5056 90.562 98.5056 75.2629C98.5056 60.4732 83.4255 55.4532 75.2996 52.7482C75.0397 52.6617 74.7868 52.5775 74.5418 52.4955C73.674 52.2029 72.8251 51.9216 71.9988 51.6478C63.8169 48.9364 57.8651 46.9641 57.8651 42.0907C57.8651 37.7402 61.708 35.0574 67.9074 35.0574C73.8893 35.0574 81.5751 37.6677 89.0071 42.1632L89.5147 42.4894L96.9829 29.0755L96.5116 28.7855C88.2458 23.3475 77.7322 20.0846 68.3062 20.0846C52.0645 20.0846 40.7171 29.9819 40.7171 44.1571C40.7171 60.2538 56.995 65.2206 64.8258 67.0695C74.3606 69.3172 81.3576 71.6012 81.3576 77.4743C81.3576 82.2598 76.8983 86.3203 69.6838 85.3051C65.0023 84.6385 58.7949 82.0218 52.1041 79.2013C42.7845 75.2726 32.5271 70.9487 24.1491 70.9487C15.5901 70.9487 8.61613 73.5015 3.40844 78.3583C1.5509 72.5722 0.547852 66.4032 0.547852 60C0.547852 26.8629 27.4108 0 60.5479 0C93.6849 0 120.548 26.8629 120.548 60Z"
        fill="currentColor" />
</svg>