<svg xmlns="http://www.w3.org/2000/svg" width="100%" height="100%" fill="currentColor">
  <title>ShapermintClubIcon</title>
  <g clipPath="url(#clip0_246_7947)">
    <path
      d="M193.143 5.00589C194.528 5.00589 195.65 3.88529 195.65 2.50295C195.65 1.12061 194.528 0 193.143 0C191.759 0 190.636 1.12061 190.636 2.50295C190.636 3.88529 191.759 5.00589 193.143 5.00589Z"
      fill="#292929" />
    <path
      d="M122.951 20.6874H119.498L119.523 18.9251C119.242 19.7169 117.349 21.096 115.098 21.096C111.338 21.096 108.293 17.7758 108.293 13.6894C108.293 9.57737 111.312 6.20605 115.635 6.20605C119.932 6.20605 122.925 9.57737 122.925 13.6894V20.6874H122.951ZM115.635 9.60291C113.614 9.60291 111.951 11.3652 111.951 13.7149C111.951 15.988 113.614 17.6992 115.635 17.6992C117.656 17.6992 119.293 15.9369 119.293 13.7149C119.293 11.4673 117.656 9.60291 115.635 9.60291Z"
      fill="#292929" />
    <path
      d="M188.641 20.6879H184.983V12.3107C184.983 11.4934 184.702 9.52678 182.144 9.6034C180.686 9.65448 179.534 10.8804 179.534 12.3362V20.6879H175.902V12.3107C175.902 11.5189 175.646 9.6034 173.242 9.6034C171.605 9.6034 170.479 10.7016 170.479 12.3107V20.6879H166.821V12.5661C166.821 8.93935 169.328 6.20654 173.242 6.20654C175.186 6.20654 176.746 6.97275 177.769 8.22423C178.844 6.97275 180.455 6.20654 182.297 6.20654C186.288 6.20654 188.641 8.83719 188.641 12.5661V20.6879Z"
      fill="#292929" />
    <path
      d="M204.015 6.23193C208.005 6.23193 210.359 8.83704 210.359 12.5659V20.6877H206.701V12.4893C206.701 11.672 206.419 9.62879 203.861 9.62879C202.403 9.62879 201.252 11.0846 201.252 12.5404V20.7133H197.594V12.5659C197.62 8.9392 200.152 6.23193 204.015 6.23193Z"
      fill="#292929" />
    <path
      d="M129.013 26.0003V19.2832C129.704 20.0238 131.188 21.0965 133.234 21.0965C136.994 21.0965 139.987 17.7507 139.987 13.6388C139.987 9.55232 136.969 6.20654 132.697 6.20654C128.374 6.20654 125.355 9.55232 125.355 13.6388V25.9747L129.013 26.0003ZM132.697 17.6997C130.676 17.6997 129.013 15.9118 129.013 13.6388C129.013 11.4423 130.676 9.6034 132.697 9.6034C134.718 9.6034 136.355 11.3401 136.355 13.6388C136.355 15.9629 134.718 17.6997 132.697 17.6997Z"
      fill="#292929" />
    <path
      d="M106.426 20.687H102.768V12.5142C102.768 11.6969 102.512 9.62811 100.133 9.62811C98.4962 9.62811 97.3706 10.9051 97.3706 12.5142V20.687H93.7126V1.09766H97.3706V7.91691C98.0869 6.81868 99.5961 6.23125 100.824 6.23125C104.303 6.23125 106.426 8.75974 106.426 12.4886V20.687Z"
      fill="#292929" />
    <path
      d="M220.002 20.9683C215.424 21.4025 212.635 18.8995 212.635 14.9919V2.9624H216.293V6.6402H220.002V10.0371H216.293V15.043C216.293 17.0351 217.777 17.7758 220.002 17.6736V20.9683Z"
      fill="#292929" />
    <path
      d="M156.026 15.0179C156.077 14.6093 156.128 13.9197 156.128 13.6388C156.128 9.01597 152.752 6.20654 149.119 6.20654C145.078 6.20654 141.829 9.57786 141.829 13.6898C141.829 17.8018 145.18 21.071 149.657 21.071C151.754 21.071 154.108 20.3303 155.361 19.0278L153.57 16.3971C152.829 17.0867 151.882 17.6997 149.912 17.6997C146.715 17.6997 145.82 15.7331 145.743 14.9924H156.026V15.0179ZM145.666 12.3362C145.871 11.0592 146.996 9.6034 148.992 9.6034C151.294 9.6034 152.368 11.1614 152.496 12.3617L145.666 12.3362Z"
      fill="#292929" />
    <path d="M194.959 20.6878H193.143H191.327V13.6642V6.64062H193.143H194.959V13.6642V20.6878Z" fill="#292929" />
    <path
      d="M165.619 9.60342C163.291 9.19477 161.756 10.4207 161.756 12.4384V20.6879H158.098V12.4639C158.098 8.42856 160.886 5.61913 165.619 6.20656V9.60342Z"
      fill="#292929" />
    <path
      d="M85.5016 21.5305C89.4921 21.6838 91.6665 19.283 91.6665 16.0138C91.6665 12.7447 88.2387 11.723 86.5504 11.1612C84.5296 10.4716 82.9692 10.0885 82.9692 8.93916C82.9692 8.01971 83.7877 7.43228 85.1179 7.43228C86.3969 7.43228 88.0341 7.99417 89.62 8.9647L89.7224 9.04132L91.3083 6.18081L91.2316 6.10419C89.4666 4.92933 87.2155 4.23975 85.1947 4.23975C81.7157 4.23975 79.2856 6.35959 79.2856 9.37334C79.2856 12.8213 82.7645 13.8684 84.4528 14.2771C86.4993 14.7623 87.9829 15.2476 87.9829 16.4991C87.9829 17.5207 87.0364 18.3891 85.5016 18.1592C83.0971 17.8272 78.8508 15.0944 75.7556 15.0944C73.0696 15.0944 71.1 16.2692 70 18.4657L72.9929 19.9981C73.351 19.2319 73.9649 18.4657 75.3718 18.4657C78.5694 18.4657 81.6646 21.4028 85.5016 21.5305Z"
      fill="#292929" />
    <path
      d="M230.593 21.0201C226.347 21.0201 223.302 17.7509 223.302 13.6645C223.302 9.57805 226.347 6.25781 230.593 6.25781C233.995 6.25781 236.553 8.17333 237.372 11.3403H233.509C233.023 10.3953 231.897 9.55251 230.567 9.55251C228.572 9.55251 226.96 11.4169 226.96 13.69C226.96 15.912 228.572 17.7254 230.567 17.7254C231.897 17.7254 233.049 16.9081 233.535 15.912H237.397C236.579 19.1556 234.021 21.0201 230.593 21.0201Z"
      fill="#882A2B" />
    <path
      d="M251.773 21.0199C247.834 21.0199 245.506 18.4148 245.506 14.737V6.61523H249.113V14.8392C249.113 15.6309 249.395 17.5209 251.773 17.5209C253.359 17.5209 254.511 16.3972 254.511 14.8392V6.61523H258.117V14.737C258.143 18.3127 255.611 21.0199 251.773 21.0199Z"
      fill="#882A2B" />
    <path
      d="M267.761 21.0191C263.489 21.0191 260.496 17.7499 260.496 13.6635V1.09766H264.154V7.96799C265.229 6.84422 266.61 6.33341 268.273 6.33341C272.007 6.33341 275 9.65365 275 13.689C275 17.7499 272.007 21.0191 267.761 21.0191ZM267.761 9.65365C265.766 9.65365 264.154 11.467 264.154 13.689C264.154 15.8855 265.766 17.6478 267.761 17.6478C269.756 17.6478 271.368 15.9366 271.368 13.689C271.368 11.3904 269.756 9.65365 267.761 9.65365Z"
      fill="#882A2B" />
    <path d="M242.616 20.687H240.799H238.983V13.6635V1.09766H240.799H242.616V13.6635V20.687Z" fill="#882A2B" />
  </g>
  <defs>
    <clipPath id="clip0_246_7947">
      <rect width="205" height="26" fill="white" transform="translate(70)" />
    </clipPath>
  </defs>
</svg>