<svg xmlns="http://www.w3.org/2000/svg" width="100%" height="100%" viewBox="0 0 86 26" fill="none"
  id="shapermint_club_icon2">
  <title>ShapermintClubIcon2</title>
  <g>
    <path
      d="M14.9977 26C22.1774 26 27.9977 20.1797 27.9977 13C27.9977 5.8203 22.1774 0 14.9977 0C7.81804 0 1.99774 5.8203 1.99774 13C1.99774 20.1797 7.81804 26 14.9977 26Z"
      fill="#292929" />
    <path
      d="M17.0591 22.0644C21.17 22.255 23.3689 19.7765 23.3689 16.4401C23.3689 13.1036 19.8316 12.055 18.1107 11.483C16.0075 10.8158 14.4778 10.3391 14.4778 9.19519C14.4778 8.24192 15.3382 7.66995 16.6767 7.66995C18.0151 7.66995 19.6404 8.24192 21.2657 9.19519L21.3613 9.29052L22.9865 6.33537L22.8909 6.24004C21.0744 5.00079 18.78 4.3335 16.6767 4.3335C13.1394 4.3335 10.6537 6.52602 10.6537 9.5765C10.6537 13.1036 14.191 14.1522 15.9119 14.6288C18.0151 15.1055 19.5448 15.5821 19.5448 16.9167C19.5448 17.9653 18.5888 18.8232 16.9635 18.6326C14.4778 18.2513 10.1757 15.4868 6.92515 15.4868C4.15265 15.4868 2.14498 16.726 0.997742 18.9186L4.05705 20.5391C4.43946 19.7765 5.10869 18.9186 6.54274 18.9186C9.98446 18.9186 13.1394 21.969 17.0591 22.0644Z"
      fill="white" />
  </g>
  <path
    d="M40.6664 21.4508C36.4269 21.4508 33.3877 18.1816 33.3877 14.0952C33.3877 10.0087 36.4269 6.68848 40.6664 6.68848C44.0631 6.68848 46.617 8.604 47.4343 11.771H43.5779C43.0926 10.826 41.9689 9.98317 40.6409 9.98317C38.6488 9.98317 37.0398 11.8476 37.0398 14.1207C37.0398 16.3427 38.6488 18.1561 40.6409 18.1561C41.9689 18.1561 43.1181 17.3388 43.6034 16.3427H47.4598C46.6425 19.5863 44.0886 21.4508 40.6664 21.4508Z"
    fill="#882A2B" />
  <path
    d="M61.8127 21.4511C57.8797 21.4511 55.5556 18.846 55.5556 15.1682V7.04639H59.1567V15.2704C59.1567 16.0621 59.4376 17.9521 61.8127 17.9521C63.3961 17.9521 64.5454 16.8283 64.5454 15.2704V7.04639H68.1464V15.1682C68.172 18.7438 65.6436 21.4511 61.8127 21.4511Z"
    fill="#882A2B" />
  <path
    d="M77.7746 21.4507C73.5096 21.4507 70.5215 18.1816 70.5215 14.0951V1.5293H74.1736V8.39963C75.2463 7.27586 76.6254 6.76505 78.2854 6.76505C82.0141 6.76505 85.0022 10.0853 85.0022 14.1207C85.0022 18.1816 82.0141 21.4507 77.7746 21.4507ZM77.7746 10.0853C75.7826 10.0853 74.1736 11.8986 74.1736 14.1207C74.1736 16.3171 75.7826 18.0794 77.7746 18.0794C79.7667 18.0794 81.3757 16.3682 81.3757 14.1207C81.3757 11.822 79.7667 10.0853 77.7746 10.0853Z"
    fill="#882A2B" />
  <path d="M52.6702 21.1187H50.857H49.0437V14.0951V1.5293H50.857H52.6702V14.0951V21.1187Z" fill="#882A2B" />
  <defs>
    <clipPath id="clip0_246_7947">
      <rect width="205" height="26" fill="white" transform="translate(70)" />
    </clipPath>
  </defs>
</svg>