<svg xmlns="http://www.w3.org/2000/svg" width="100%" height="100%" fill="none">
  <title>ShapermintClubMobileLabel</title>
  <path d="M0 0H345V42C345 53.0457 336.046 62 325 62H20C8.9543 62 0 53.0457 0 42V0Z" fill="#FDF1EF" />
  <g clipPath="url(#clip0_246_7477)">
    <path
      d="M196.567 21.1611C198.181 21.1611 199.49 19.7819 199.49 18.0806C199.49 16.3792 198.181 15 196.567 15C194.953 15 193.644 16.3792 193.644 18.0806C193.644 19.7819 194.953 21.1611 196.567 21.1611Z"
      fill="#292929" />
    <path
      d="M114.733 40.4616H110.707L110.737 38.2926C110.409 39.2671 108.202 40.9646 105.577 40.9646C101.193 40.9646 97.6446 36.8781 97.6446 31.8486C97.6446 26.7877 101.164 22.6384 106.204 22.6384C111.214 22.6384 114.703 26.7877 114.703 31.8486V40.4616H114.733ZM106.204 26.8192C103.848 26.8192 101.909 28.9881 101.909 31.8801C101.909 34.6777 103.848 36.7838 106.204 36.7838C108.56 36.7838 110.468 34.6148 110.468 31.8801C110.468 29.1139 108.56 26.8192 106.204 26.8192Z"
      fill="#292929" />
    <path
      d="M191.318 40.4616H187.053V30.1512C187.053 29.1453 186.725 26.7249 183.743 26.8192C182.043 26.882 180.701 28.3909 180.701 30.1826V40.4616H176.466V30.1512C176.466 29.1767 176.168 26.8192 173.365 26.8192C171.456 26.8192 170.144 28.1708 170.144 30.1512V40.4616H165.879V30.4655C165.879 26.0019 168.802 22.6384 173.365 22.6384C175.631 22.6384 177.45 23.5815 178.643 25.1217C179.896 23.5815 181.775 22.6384 183.922 22.6384C188.574 22.6384 191.318 25.8762 191.318 30.4655V40.4616Z"
      fill="#292929" />
    <path
      d="M209.241 22.6699C213.894 22.6699 216.638 25.8762 216.638 30.4656V40.4617H212.373V30.3713C212.373 29.3654 212.045 26.8507 209.063 26.8507C207.363 26.8507 206.021 28.6424 206.021 30.4342V40.4931H201.756V30.4656C201.786 26.0019 204.738 22.6699 209.241 22.6699Z"
      fill="#292929" />
    <path
      d="M121.801 46.9999V38.7327C122.606 39.6443 124.336 40.9646 126.722 40.9646C131.106 40.9646 134.595 36.8467 134.595 31.7858C134.595 26.7563 131.076 22.6384 126.095 22.6384C121.055 22.6384 117.536 26.7563 117.536 31.7858V46.9685L121.801 46.9999ZM126.095 36.7838C123.739 36.7838 121.801 34.5834 121.801 31.7858C121.801 29.0824 123.739 26.8192 126.095 26.8192C128.451 26.8192 130.36 28.9567 130.36 31.7858C130.36 34.6463 128.451 36.7838 126.095 36.7838Z"
      fill="#292929" />
    <path
      d="M95.4675 40.4609H91.2029V30.402C91.2029 29.3961 90.9046 26.8499 88.1311 26.8499C86.2224 26.8499 84.9102 28.4216 84.9102 30.402V40.4609H80.6456V16.3509H84.9102V24.7438C85.7453 23.3921 87.5048 22.6692 88.9363 22.6692C92.9922 22.6692 95.4675 25.7811 95.4675 30.3705V40.4609Z"
      fill="#292929" />
    <path
      d="M227.881 40.8068C222.543 41.3412 219.292 38.2606 219.292 33.4512V18.6457H223.557V23.1722H227.881V27.353H223.557V33.5141C223.557 35.9659 225.286 36.8775 227.881 36.7518V40.8068Z"
      fill="#292929" />
    <path
      d="M153.294 33.4832C153.354 32.9803 153.413 32.1315 153.413 31.7858C153.413 26.0962 149.477 22.6384 145.242 22.6384C140.53 22.6384 136.742 26.7877 136.742 31.8486C136.742 36.9095 140.649 40.9331 145.868 40.9331C148.313 40.9331 151.057 40.0215 152.518 38.4184L150.431 35.1807C149.566 36.0294 148.463 36.7838 146.166 36.7838C142.438 36.7838 141.395 34.3634 141.305 33.4518H153.294V33.4832ZM141.216 30.1826C141.454 28.6109 142.766 26.8192 145.093 26.8192C147.777 26.8192 149.029 28.7367 149.178 30.2141L141.216 30.1826Z"
      fill="#292929" />
    <path d="M198.684 40.4616H196.567H194.449V31.8173V23.1729H196.567H198.684V31.8173V40.4616Z" fill="#292929" />
    <path
      d="M164.477 26.8192C161.764 26.3163 159.974 27.8251 159.974 30.3084V40.4617H155.71V30.3399C155.71 25.3733 158.96 21.9155 164.477 22.6385V26.8192Z"
      fill="#292929" />
    <path
      d="M71.0726 41.499C75.725 41.6876 78.2599 38.7328 78.2599 34.7092C78.2599 30.6857 74.2637 29.4283 72.2954 28.7367C69.9394 27.888 68.1202 27.4165 68.1202 26.002C68.1202 24.8703 69.0745 24.1474 70.6253 24.1474C72.1164 24.1474 74.0251 24.8389 75.8741 26.0334L75.9934 26.1277L77.8424 22.6071L77.7529 22.5128C75.6952 21.0668 73.0708 20.2181 70.7148 20.2181C66.6588 20.2181 63.8257 22.8271 63.8257 26.5364C63.8257 30.78 67.8816 32.0688 69.8499 32.5717C72.2357 33.169 73.9654 33.7662 73.9654 35.3065C73.9654 36.5639 72.862 37.6326 71.0726 37.3497C68.2693 36.9411 63.3187 33.5776 59.7101 33.5776C56.5787 33.5776 54.2824 35.0236 53 37.7269L56.4893 39.613C56.9068 38.67 57.6225 37.7269 59.2628 37.7269C62.9906 37.7269 66.5992 41.3419 71.0726 41.499Z"
      fill="#292929" />
    <path
      d="M240.228 40.8703C235.277 40.8703 231.728 36.8467 231.728 31.8173C231.728 26.7878 235.277 22.7014 240.228 22.7014C244.194 22.7014 247.176 25.0589 248.131 28.9568H243.628C243.061 27.7937 241.749 26.7564 240.198 26.7564C237.872 26.7564 235.993 29.0511 235.993 31.8487C235.993 34.5835 237.872 36.8153 240.198 36.8153C241.749 36.8153 243.091 35.8094 243.657 34.5835H248.161C247.206 38.5756 244.224 40.8703 240.228 40.8703Z"
      fill="#882A2B" />
    <path
      d="M264.921 40.8703C260.328 40.8703 257.614 37.664 257.614 33.1375V23.1414H261.82V33.2632C261.82 34.2377 262.148 36.5638 264.921 36.5638C266.77 36.5638 268.112 35.1807 268.112 33.2632V23.1414H272.317V33.1375C272.347 37.5383 269.394 40.8703 264.921 40.8703Z"
      fill="#882A2B" />
    <path
      d="M283.56 40.8693C278.58 40.8693 275.091 36.8457 275.091 31.8163V16.3506H279.355V24.8064C280.608 23.4233 282.218 22.7947 284.157 22.7947C288.511 22.7947 292 26.8811 292 31.8477C292 36.8457 288.511 40.8693 283.56 40.8693ZM283.56 26.8811C281.234 26.8811 279.355 29.1129 279.355 31.8477C279.355 34.551 281.234 36.72 283.56 36.72C285.886 36.72 287.765 34.6139 287.765 31.8477C287.765 29.0186 285.886 26.8811 283.56 26.8811Z"
      fill="#882A2B" />
    <path d="M254.244 40.4607H252.127H250.01V31.8163V16.3506H252.127H254.244V31.8163V40.4607Z" fill="#882A2B" />
  </g>
  <defs>
    <clipPath id="clip0_246_7477">
      <rect width="239" height="32" fill="white" transform="translate(53 15)" />
    </clipPath>
  </defs>
</svg>