<svg xmlns="http://www.w3.org/2000/svg" width="100%" height="100%" fill="none">
  <title>ShapermintClubLabel</title>
  <rect width="740" height="60" transform="translate(-22.4999)" fill="#FDF1EF" />
  <g clipPath="url(#clip0_246_8254)">
    <path
      d="M371.063 20.776C372.644 20.776 373.925 19.483 373.925 17.888C373.925 16.293 372.644 15 371.063 15C369.483 15 368.202 16.293 368.202 17.888C368.202 19.483 369.483 20.776 371.063 20.776Z"
      fill="#292929" />
    <path
      d="M290.942 38.8704H287L287.029 36.837C286.708 37.7505 284.547 39.3419 281.978 39.3419C277.685 39.3419 274.211 35.5108 274.211 30.7957C274.211 26.0511 277.656 22.1611 282.591 22.1611C287.496 22.1611 290.912 26.0511 290.912 30.7957V38.8704H290.942ZM282.591 26.0806C280.284 26.0806 278.386 28.114 278.386 30.8252C278.386 33.448 280.284 35.4224 282.591 35.4224C284.897 35.4224 286.766 33.389 286.766 30.8252C286.766 28.2319 284.897 26.0806 282.591 26.0806Z"
      fill="#292929" />
    <path
      d="M365.924 38.8704H361.749V29.2044C361.749 28.2613 361.428 25.9922 358.508 26.0806C356.844 26.1395 355.53 27.5541 355.53 29.2338V38.8704H351.383V29.2044C351.383 28.2908 351.091 26.0806 348.347 26.0806C346.478 26.0806 345.193 27.3478 345.193 29.2044V38.8704H341.018V29.4991C341.018 25.3144 343.879 22.1611 348.347 22.1611C350.566 22.1611 352.347 23.0452 353.515 24.4892C354.741 23.0452 356.581 22.1611 358.683 22.1611C363.238 22.1611 365.924 25.1965 365.924 29.4991V38.8704Z"
      fill="#292929" />
    <path
      d="M383.473 22.1909C388.028 22.1909 390.714 25.1968 390.714 29.4994V38.8707H386.539V29.411C386.539 28.4679 386.218 26.1104 383.298 26.1104C381.633 26.1104 380.319 27.7901 380.319 29.4699V38.9001H376.144V29.4994C376.173 25.3147 379.064 22.1909 383.473 22.1909Z"
      fill="#292929" />
    <path
      d="M297.862 45V37.2495C298.65 38.1042 300.344 39.3419 302.679 39.3419C306.972 39.3419 310.388 35.4814 310.388 30.7368C310.388 26.0216 306.942 22.1611 302.066 22.1611C297.132 22.1611 293.686 26.0216 293.686 30.7368V44.9706L297.862 45ZM302.066 35.4224C299.76 35.4224 297.862 33.3596 297.862 30.7368C297.862 28.2024 299.76 26.0806 302.066 26.0806C304.373 26.0806 306.242 28.0845 306.242 30.7368C306.242 33.4185 304.373 35.4224 302.066 35.4224Z"
      fill="#292929" />
    <path
      d="M272.079 38.8697H267.904V29.4395C267.904 28.4965 267.612 26.1094 264.896 26.1094C263.027 26.1094 261.743 27.5829 261.743 29.4395V38.8697H257.567V16.2666H261.743V24.135C262.56 22.8678 264.283 22.19 265.685 22.19C269.656 22.19 272.079 25.1075 272.079 29.41V38.8697Z"
      fill="#292929" />
    <path
      d="M401.722 39.194C396.496 39.695 393.313 36.807 393.313 32.2981V18.418H397.488V22.6616H401.722V26.581H397.488V32.3571C397.488 34.6557 399.182 35.5103 401.722 35.3924V39.194Z"
      fill="#292929" />
    <path
      d="M328.696 32.3281C328.754 31.8566 328.813 31.0609 328.813 30.7368C328.813 25.4028 324.958 22.1611 320.812 22.1611C316.199 22.1611 312.49 26.0511 312.49 30.7957C312.49 35.5403 316.315 39.3124 321.425 39.3124C323.819 39.3124 326.506 38.4578 327.937 36.9548L325.893 33.9195C325.046 34.7152 323.965 35.4224 321.717 35.4224C318.067 35.4224 317.045 33.1533 316.958 32.2987H328.696V32.3281ZM316.87 29.2338C317.104 27.7603 318.388 26.0806 320.666 26.0806C323.294 26.0806 324.52 27.8782 324.666 29.2633L316.87 29.2338Z"
      fill="#292929" />
    <path d="M373.136 38.8704H371.063H368.99V30.7662V22.6621H371.063H373.136V30.7662V38.8704Z" fill="#292929" />
    <path
      d="M339.645 26.0808C336.988 25.6093 335.236 27.0239 335.236 29.3519V38.8706H331.061V29.3814C331.061 24.7252 334.243 21.4836 339.645 22.1614V26.0808V26.0808Z"
      fill="#292929" />
    <path
      d="M248.195 39.843C252.75 40.0198 255.232 37.2497 255.232 33.4776C255.232 29.7055 251.319 28.5267 249.392 27.8783C247.085 27.0827 245.304 26.6406 245.304 25.3145C245.304 24.2536 246.238 23.5758 247.757 23.5758C249.217 23.5758 251.085 24.2241 252.896 25.344L253.012 25.4324L254.823 22.1318L254.735 22.0434C252.72 20.6878 250.151 19.8921 247.844 19.8921C243.873 19.8921 241.099 22.3381 241.099 25.8155C241.099 29.7939 245.07 31.0021 246.997 31.4736C249.333 32.0335 251.027 32.5935 251.027 34.0375C251.027 35.2163 249.947 36.2182 248.195 35.953C245.45 35.5699 240.603 32.4167 237.07 32.4167C234.004 32.4167 231.756 33.7723 230.5 36.3066L233.916 38.0748C234.325 37.1907 235.026 36.3066 236.632 36.3066C240.282 36.3066 243.815 39.6956 248.195 39.843Z"
      fill="#292929" />
    <path
      d="M413.811 39.2531C408.964 39.2531 405.489 35.481 405.489 30.7659C405.489 26.0508 408.964 22.2197 413.811 22.2197C417.694 22.2197 420.614 24.4299 421.549 28.0842H417.14C416.585 26.9938 415.3 26.0213 413.782 26.0213C411.504 26.0213 409.665 28.1726 409.665 30.7954C409.665 33.3592 411.504 35.4516 413.782 35.4516C415.3 35.4516 416.614 34.5085 417.169 33.3592H421.578C420.643 37.1018 417.724 39.2531 413.811 39.2531Z"
      fill="#882A2B" />
    <path
      d="M437.988 39.2531C433.491 39.2531 430.834 36.2473 430.834 32.0036V22.6323H434.951V32.1215C434.951 33.0351 435.272 35.2158 437.988 35.2158C439.798 35.2158 441.112 33.9192 441.112 32.1215V22.6323H445.229V32.0036C445.258 36.1294 442.367 39.2531 437.988 39.2531Z"
      fill="#882A2B" />
    <path
      d="M456.237 39.2524C451.361 39.2524 447.944 35.4803 447.944 30.7651V16.2661H452.12V24.1934C453.346 22.8968 454.923 22.3074 456.821 22.3074C461.084 22.3074 464.5 26.1384 464.5 30.7946C464.5 35.4803 461.084 39.2524 456.237 39.2524ZM456.237 26.1384C453.959 26.1384 452.12 28.2308 452.12 30.7946C452.12 33.329 453.959 35.3624 456.237 35.3624C458.514 35.3624 460.354 33.3879 460.354 30.7946C460.354 28.1423 458.514 26.1384 456.237 26.1384Z"
      fill="#882A2B" />
    <path d="M427.534 38.8692H425.461H423.388V30.7651V16.2661H425.461H427.534V30.7651V38.8692Z" fill="#882A2B" />
  </g>
  <defs>
    <clipPath id="clip0_246_8254">
      <rect width="234" height="30" fill="white" transform="translate(230.5 15)" />
    </clipPath>
  </defs>
</svg>