<svg xmlns="http://www.w3.org/2000/svg" width="100%" height="100%" viewBox="0 0 235 30" id="shm_club">
  <title>ShapermintClub</title>
  <path
    d="M140.564 5.77603C142.144 5.77603 143.425 4.48302 143.425 2.88802C143.425 1.29301 142.144 0 140.564 0C138.983 0 137.702 1.29301 137.702 2.88802C137.702 4.48302 138.983 5.77603 140.564 5.77603Z"
    fill="#292929" />
  <path
    d="M60.4419 23.8704H56.5001L56.5293 21.837C56.2081 22.7505 54.0474 24.3419 51.4779 24.3419C47.1856 24.3419 43.7109 20.5108 43.7109 15.7957C43.7109 11.0511 47.1564 7.16113 52.091 7.16113C56.9965 7.16113 60.4127 11.0511 60.4127 15.7957V23.8704H60.4419ZM52.091 11.0806C49.7843 11.0806 47.8864 13.114 47.8864 15.8252C47.8864 18.448 49.7843 20.4224 52.091 20.4224C54.3977 20.4224 56.2665 18.389 56.2665 15.8252C56.2665 13.2319 54.3977 11.0806 52.091 11.0806Z"
    fill="#292929" />
  <path
    d="M135.425 23.8704H131.249V14.2044C131.249 13.2613 130.928 10.9922 128.008 11.0806C126.344 11.1395 125.03 12.5541 125.03 14.2338V23.8704H120.884V14.2044C120.884 13.2908 120.592 11.0806 117.847 11.0806C115.978 11.0806 114.694 12.3478 114.694 14.2044V23.8704H110.518V14.4991C110.518 10.3144 113.38 7.16113 117.847 7.16113C120.066 7.16113 121.847 8.04522 123.015 9.48923C124.242 8.04522 126.081 7.16113 128.183 7.16113C132.738 7.16113 135.425 10.1965 135.425 14.4991V23.8704Z"
    fill="#292929" />
  <path
    d="M152.973 7.19043C157.528 7.19043 160.214 10.1963 160.214 14.4989V23.8702H156.039V14.4105C156.039 13.4674 155.718 11.1099 152.798 11.1099C151.133 11.1099 149.819 12.7896 149.819 14.4694V23.8997H145.644V14.4989C145.673 10.3142 148.564 7.19043 152.973 7.19043Z"
    fill="#292929" />
  <path
    d="M67.362 30V22.2495C68.1503 23.1042 69.8439 24.3419 72.1798 24.3419C76.472 24.3419 79.8883 20.4814 79.8883 15.7368C79.8883 11.0216 76.4428 7.16113 71.5666 7.16113C66.632 7.16113 63.1865 11.0216 63.1865 15.7368V29.9706L67.362 30ZM71.5666 20.4224C69.2599 20.4224 67.362 18.3596 67.362 15.7368C67.362 13.2024 69.2599 11.0806 71.5666 11.0806C73.8733 11.0806 75.742 13.0845 75.742 15.7368C75.742 18.4185 73.8733 20.4224 71.5666 20.4224Z"
    fill="#292929" />
  <path
    d="M41.5792 23.8697H37.4038V14.4395C37.4038 13.4965 37.1118 11.1094 34.3963 11.1094C32.5276 11.1094 31.2428 12.5829 31.2428 14.4395V23.8697H27.0674V1.2666H31.2428V9.13497C32.0604 7.86778 33.7831 7.18998 35.1847 7.18998C39.1557 7.18998 41.5792 10.1075 41.5792 14.41V23.8697Z"
    fill="#292929" />
  <path
    d="M171.222 24.194C165.996 24.695 162.813 21.807 162.813 17.2981V3.41797H166.988V7.66158H171.222V11.581H166.988V17.3571C166.988 19.6557 168.682 20.5103 171.222 20.3924V24.194Z"
    fill="#292929" />
  <path
    d="M98.1957 17.3281C98.254 16.8566 98.3125 16.0609 98.3125 15.7368C98.3125 10.4028 94.4582 7.16113 90.3119 7.16113C85.6985 7.16113 81.9902 11.0511 81.9902 15.7957C81.9902 20.5403 85.8153 24.3124 90.9251 24.3124C93.3194 24.3124 96.0057 23.4578 97.4365 21.9548L95.3926 18.9195C94.5458 19.7152 93.4654 20.4224 91.2171 20.4224C87.5672 20.4224 86.5453 18.1533 86.4577 17.2987H98.1957V17.3281ZM86.3701 14.2338C86.6037 12.7603 87.8884 11.0806 90.1659 11.0806C92.7938 11.0806 94.0202 12.8782 94.1662 14.2633L86.3701 14.2338Z"
    fill="#292929" />
  <path d="M142.636 23.8704H140.563H138.49V15.7662V7.66211H140.563H142.636V15.7662V23.8704Z" fill="#292929" />
  <path
    d="M109.145 11.0803C106.488 10.6088 104.736 12.0234 104.736 14.3515V23.8701H100.561V14.3809C100.561 9.72474 103.744 6.48309 109.145 7.16089V11.0803Z"
    fill="#292929" />
  <path
    d="M17.6945 24.8425C22.2496 25.0193 24.7315 22.2492 24.7315 18.4771C24.7315 14.705 20.8188 13.5262 18.8917 12.8779C16.585 12.0822 14.8038 11.6401 14.8038 10.314C14.8038 9.2531 15.7382 8.5753 17.2566 8.5753C18.7165 8.5753 20.5852 9.22363 22.3956 10.3435L22.5124 10.4319L24.3227 7.13129L24.2351 7.04288C22.2204 5.68728 19.6509 4.8916 17.3441 4.8916C13.3731 4.8916 10.5992 7.33757 10.5992 10.815C10.5992 14.7934 14.5703 16.0016 16.4974 16.4731C18.8333 17.0331 20.5268 17.593 20.5268 19.037C20.5268 20.2158 19.4465 21.2177 17.6945 20.9525C14.9498 20.5694 10.1028 17.4162 6.56975 17.4162C3.50387 17.4162 1.25555 18.7718 0 21.3061L3.41627 23.0743C3.82506 22.1902 4.52583 21.3061 6.13177 21.3061C9.78163 21.3061 13.3147 24.6951 17.6945 24.8425Z"
    fill="#292929" />
  <path
    d="M183.311 24.2541C178.464 24.2541 174.989 20.482 174.989 15.7669C174.989 11.0517 178.464 7.2207 183.311 7.2207C187.194 7.2207 190.114 9.43092 191.049 13.0851H186.64C186.085 11.9948 184.8 11.0223 183.282 11.0223C181.004 11.0223 179.165 13.1736 179.165 15.7963C179.165 18.3602 181.004 20.4525 183.282 20.4525C184.8 20.4525 186.114 19.5095 186.669 18.3602H191.078C190.144 22.1028 187.224 24.2541 183.311 24.2541Z"
    fill="#882A2B" />
  <path
    d="M207.488 24.2536C202.991 24.2536 200.334 21.2477 200.334 17.0041V7.63281H204.451V17.122C204.451 18.0356 204.772 20.2163 207.488 20.2163C209.298 20.2163 210.612 18.9196 210.612 17.122V7.63281H214.729V17.0041C214.758 21.1299 211.868 24.2536 207.488 24.2536Z"
    fill="#882A2B" />
  <path
    d="M225.737 24.2529C220.861 24.2529 217.444 20.4808 217.444 15.7656V1.2666H221.62V9.19391C222.846 7.89725 224.423 7.30786 226.321 7.30786C230.584 7.30786 234 11.1389 234 15.7951C234 20.4807 230.584 24.2529 225.737 24.2529ZM225.737 11.1389C223.459 11.1389 221.62 13.2312 221.62 15.7951C221.62 18.3295 223.459 20.3629 225.737 20.3629C228.014 20.3629 229.854 18.3884 229.854 15.7951C229.854 13.1428 228.014 11.1389 225.737 11.1389Z"
    fill="#882A2B" />
  <path d="M197.034 23.8697H194.961H192.888V15.7656V1.2666H194.961H197.034V15.7656V23.8697Z" fill="#882A2B" />
</svg>