<svg xmlns="http://www.w3.org/2000/svg" width="100%" height="100%" viewBox="0 0 49 69" testId="" id="shop_now">
  <title>ShopNow</title>
  <path fillRule="evenodd" clipRule="evenodd"
    d="M48.9347 54.0017L45.4105 13.594C45.347 12.7942 44.6878 12.1882 43.8892 12.1882H36.4602C36.4474 5.4685 31.0723 0 24.4673 0C17.8623 0 12.4873 5.46851 12.4744 12.1882H5.04547C4.25964 12.1882 3.6001 12.7942 3.52414 13.594L0 54.0017V54.1431C0 58.6446 4.06915 62.3074 9.06436 62.3074H39.8702C44.8651 62.3074 48.9347 58.6446 48.9347 54.1431L48.9347 54.0017ZM24.4693 3.23352C29.401 3.23352 33.4071 7.3051 33.4196 12.3168H15.519C15.5319 7.3051 19.5379 3.23352 24.4693 3.23352H24.4693ZM39.9209 59.215H9.0133C5.71746 59.215 3.02972 56.9829 2.99194 54.2086L6.3891 15.2804H12.4237V20.6704C12.4237 21.4296 12.945 22.11 13.6816 22.238C14.633 22.4028 15.4664 21.6519 15.4664 20.7121V15.2804H33.4682V20.6704C33.4682 21.4296 33.9894 22.11 34.726 22.238C35.6774 22.4028 36.5108 21.652 36.5108 20.7121V15.2804H42.5451L45.9427 54.2216C45.9048 56.9829 43.2171 59.215 39.9209 59.215V59.215Z"
    fill="#3A3A3A" />
  <path fillRule="evenodd" clipRule="evenodd"
    d="M29.4842 27.3302C27.7942 27.3302 26.1969 27.9076 24.9087 28.9584C23.6207 27.8972 22.0129 27.3201 20.323 27.3201C18.3961 27.3201 16.5824 28.0721 15.212 29.443C13.8416 30.8133 13.0891 32.6271 13.0891 34.5644C13.0891 36.4913 13.8416 38.3151 15.212 39.6754L23.3838 47.8473C23.7856 48.2491 24.3317 48.4757 24.9087 48.4757C25.4858 48.4757 26.0217 48.2491 26.4337 47.8473L34.5952 39.6859C35.9659 38.3151 36.718 36.5017 36.718 34.5644C36.718 32.6271 35.9659 30.8133 34.5952 29.443C33.2352 28.0825 31.4215 27.3302 29.4842 27.3302V27.3302ZM32.8434 37.9445L24.9087 45.879L16.9742 37.9236C16.0776 37.027 15.5725 35.8215 15.5725 34.5541C15.5725 33.2864 16.0673 32.0811 16.9639 31.1843C17.8605 30.288 19.0557 29.7932 20.323 29.7932C21.6009 29.7932 22.7964 30.288 23.693 31.1947L24.033 31.5346C24.2699 31.7719 24.5791 31.8955 24.9087 31.8955C25.2385 31.8955 25.5476 31.7615 25.7845 31.5346L26.1145 31.205C27.0107 30.2982 28.2166 29.8036 29.4843 29.8036C30.7512 29.8036 31.9471 30.2982 32.8538 31.1947C33.7505 32.0911 34.2451 33.2969 34.2451 34.5645C34.2451 35.842 33.7505 37.0376 32.8434 37.9445L32.8434 37.9445Z"
    fill="#3A3A3A" />
</svg>