<svg xmlns="http://www.w3.org/2000/svg" width="100%" height="100%" viewBox="0 0 115 115">
  <title>Shapermint Logo</title>
  <path
    d="M24.955 11.5C26.0135 11.5 26.8717 10.6419 26.8717 9.58335C26.8717 8.52481 26.0135 7.66669 24.955 7.66669C23.8965 7.66669 23.0383 8.52481 23.0383 9.58335C23.0383 10.6419 23.8965 11.5 24.955 11.5Z"
    fill="currentColor" />
  <path
    d="M17.2883 11.5C18.3469 11.5 19.205 10.6419 19.205 9.58335C19.205 8.52481 18.3469 7.66669 17.2883 7.66669C16.2298 7.66669 15.3717 8.52481 15.3717 9.58335C15.3717 10.6419 16.2298 11.5 17.2883 11.5Z"
    fill="currentColor" />
  <path
    d="M9.62165 11.5C10.6802 11.5 11.5383 10.6419 11.5383 9.58335C11.5383 8.52481 10.6802 7.66669 9.62165 7.66669C8.56311 7.66669 7.70499 8.52481 7.70499 9.58335C7.70499 10.6419 8.56311 11.5 9.62165 11.5Z"
    fill="currentColor" />
  <path
    d="M105.417 0H9.58333C4.29323 0.00633673 0.00633673 4.29323 0 9.58333V105.417C0.00633673 110.707 4.29323 114.994 9.58333 115H105.417C110.707 114.994 114.994 110.707 115 105.417V9.58333C114.994 4.29323 110.707 0.00633673 105.417 0ZM9.58333 3.83333H105.417C108.592 3.83333 111.167 6.4077 111.167 9.58333V15.3333H3.83333V9.58333C3.83333 6.4077 6.4077 3.83333 9.58333 3.83333ZM105.417 111.167H9.58333C6.4077 111.167 3.83333 108.592 3.83333 105.417V19.1667H111.167V105.417C111.167 108.592 108.592 111.167 105.417 111.167Z"
    fill="currentColor" />
  <path
    d="M101.583 11.4999C101.583 12.5585 102.441 13.4166 103.5 13.4166C104.559 13.4166 105.417 12.5585 105.417 11.4999C106.475 11.4999 107.333 10.6418 107.333 9.58327C107.333 8.52473 106.475 7.66661 105.417 7.66661C105.417 6.60806 104.559 5.74994 103.5 5.74994C102.441 5.74994 101.583 6.60806 101.583 7.66661C100.525 7.66661 99.6667 8.52473 99.6667 9.58327C99.6667 10.6418 100.525 11.4999 101.583 11.4999Z"
    fill="currentColor" />
  <path
    d="M90.0833 11.5H93.9167C94.9752 11.5 95.8333 10.6419 95.8333 9.58335C95.8333 8.52481 94.9752 7.66669 93.9167 7.66669H90.0833C89.0248 7.66669 88.1667 8.52481 88.1667 9.58335C88.1667 10.6419 89.0248 11.5 90.0833 11.5Z"
    fill="currentColor" />
  <path
    d="M13.4167 40.25H67.0833C69.2004 40.25 70.9167 38.5337 70.9167 36.4166V28.75C70.9167 26.6329 69.2004 24.9166 67.0833 24.9166H13.4167C11.2996 24.9166 9.58334 26.6329 9.58334 28.75V36.4166C9.58334 38.5337 11.2996 40.25 13.4167 40.25ZM13.4167 28.75H67.0833V36.4166H13.4167V28.75Z"
    fill="currentColor" />
  <path
    d="M70.9167 46C70.9167 44.9415 70.0585 44.0834 69 44.0834H13.4167C12.3581 44.0834 11.5 44.9415 11.5 46C11.5 47.0586 12.3581 47.9167 13.4167 47.9167H69C70.0585 47.9167 70.9167 47.0586 70.9167 46Z"
    fill="currentColor" />
  <path
    d="M65.1667 53.6667C65.1667 52.6081 64.3085 51.75 63.25 51.75H13.4167C12.3581 51.75 11.5 52.6081 11.5 53.6667C11.5 54.7252 12.3581 55.5833 13.4167 55.5833H63.25C64.3085 55.5833 65.1667 54.7252 65.1667 53.6667Z"
    fill="currentColor" />
  <path
    d="M61.3333 61.3333C61.3333 60.2748 60.4752 59.4167 59.4167 59.4167H13.4167C12.3581 59.4167 11.5 60.2748 11.5 61.3333C11.5 62.3919 12.3581 63.25 13.4167 63.25H59.4167C60.4752 63.25 61.3333 62.3919 61.3333 61.3333Z"
    fill="currentColor" />
  <path
    d="M13.4167 67.0834C12.3581 67.0834 11.5 67.9415 11.5 69C11.5 70.0586 12.3581 70.9167 13.4167 70.9167H55.5833C56.6419 70.9167 57.5 70.0586 57.5 69C57.5 67.9415 56.6419 67.0834 55.5833 67.0834H13.4167Z"
    fill="currentColor" />
  <path
    d="M101.583 76.6667H84.0363C112.671 22.5745 101.553 43.5812 104.525 37.9653C106.502 34.2219 105.076 29.5845 101.336 27.6L97.9417 25.8079C94.2024 23.8356 89.5723 25.2624 87.5917 28.9972C57.1723 86.4647 63.618 74.2708 62.3492 76.6667H13.4167C11.2996 76.6667 9.58334 78.3829 9.58334 80.5V103.5C9.58334 105.617 11.2996 107.333 13.4167 107.333H101.583C103.7 107.333 105.417 105.617 105.417 103.5V80.5C105.417 78.3829 103.7 76.6667 101.583 76.6667ZM83.7986 44.3421L87.1873 46.1361L69.1802 80.1512C67.9293 79.7115 66.6333 79.4126 65.3162 79.2599L83.7986 44.3421ZM87.3866 37.5667L97.5449 42.9467L95.7509 46.3354L85.5926 40.9553L87.3866 37.5667ZM64.0665 82.938C65.8316 83.0783 67.5562 83.5402 69.1553 84.3008C70.6816 85.1943 72.0314 86.3597 73.1381 87.7393L62.5964 96.6767L64.0665 82.938ZM75.4784 84.64C74.6108 83.6365 73.6344 82.7327 72.5669 81.9452L90.5836 47.9301L93.9723 49.7222C91.425 54.5004 78.0084 79.8598 75.4784 84.64ZM96.1534 29.1966L99.5421 30.9906C101.41 31.9809 102.123 34.2959 101.137 36.1656L99.3428 39.5542L89.1844 34.1742L90.9765 30.7855C91.9689 28.9191 94.2849 28.2083 96.1534 29.1966ZM101.583 103.5H13.4167V80.5H60.4747C59.7617 87.1508 61.5959 69.9986 58.788 96.2723C58.6216 97.8311 59.4212 99.3342 60.807 100.067C62.1927 100.801 63.8852 100.616 65.0804 99.6015C74.6389 91.5036 77.4123 89.1173 77.2033 89.3032C77.4985 89.0407 77.0117 89.9492 82.0065 80.5H101.583V103.5Z"
    fill="currentColor" />
  <path
    d="M21.0833 95.8333H17.25C16.1914 95.8333 15.3333 96.6914 15.3333 97.75C15.3333 98.8085 16.1914 99.6666 17.25 99.6666H21.0833C22.1419 99.6666 23 98.8085 23 97.75C23 96.6914 22.1419 95.8333 21.0833 95.8333Z"
    fill="currentColor" />
  <path
    d="M32.5833 95.8333H28.75C27.6914 95.8333 26.8333 96.6914 26.8333 97.75C26.8333 98.8085 27.6914 99.6666 28.75 99.6666H32.5833C33.6419 99.6666 34.5 98.8085 34.5 97.75C34.5 96.6914 33.6419 95.8333 32.5833 95.8333Z"
    fill="currentColor" />
  <path
    d="M44.0833 95.8333H40.25C39.1915 95.8333 38.3333 96.6914 38.3333 97.75C38.3333 98.8085 39.1915 99.6666 40.25 99.6666H44.0833C45.1419 99.6666 46 98.8085 46 97.75C46 96.6914 45.1419 95.8333 44.0833 95.8333Z"
    fill="currentColor" />
  <path
    d="M53.6667 95.8333H51.75C50.6915 95.8333 49.8333 96.6914 49.8333 97.75C49.8333 98.8085 50.6915 99.6666 51.75 99.6666H53.6667C54.7252 99.6666 55.5833 98.8085 55.5833 97.75C55.5833 96.6914 54.7252 95.8333 53.6667 95.8333Z"
    fill="currentColor" />
  <path
    d="M74.75 95.8333H72.8333C71.7748 95.8333 70.9167 96.6914 70.9167 97.75C70.9167 98.8085 71.7748 99.6666 72.8333 99.6666H74.75C75.8085 99.6666 76.6667 98.8085 76.6667 97.75C76.6667 96.6914 75.8085 95.8333 74.75 95.8333Z"
    fill="currentColor" />
  <path
    d="M80.5 97.75C80.5 98.8085 81.3581 99.6666 82.4167 99.6666H86.25C87.3086 99.6666 88.1667 98.8085 88.1667 97.75C88.1667 96.6914 87.3086 95.8333 86.25 95.8333H82.4167C81.3581 95.8333 80.5 96.6914 80.5 97.75Z"
    fill="currentColor" />
  <path
    d="M93.9167 99.6666H97.75C98.8086 99.6666 99.6667 98.8085 99.6667 97.75C99.6667 96.6914 98.8086 95.8333 97.75 95.8333H93.9167C92.8581 95.8333 92 96.6914 92 97.75C92 98.8085 92.8581 99.6666 93.9167 99.6666Z"
    fill="currentColor" />
</svg>