<svg xmlns="http://www.w3.org/2000/svg" width="100%" height="100%" viewBox="0 0 100 71" testId="" id="sixty_days_tsd">
  <title>SixtyDaysTSD</title>
  <circle cx="50.0201" cy="35.1485" r="33.0396" fill="#BFB371"></circle>
  <path
    d="M4.29949 30.7295L93.568 18.1387L90.0589 30.3426L90.0372 30.4181L90.079 30.4846L96.8266 41.2419L7.55807 53.8327L12.4593 41.4477L12.4961 41.3548L12.4351 41.2757L4.29949 30.7295Z"
    fill="url(#paint0_linear_5461_891)" stroke="white" stroke-width="0.351485"></path>
  <path
    d="M22.7634 33.9789C23.0709 33.4934 23.4928 33.1283 24.0328 32.8838C23.8987 32.7974 23.6984 32.7363 23.4285 32.6985C23.1585 32.6626 22.8921 32.6626 22.6257 32.7021C21.7837 32.8244 21.006 33.3297 20.2962 34.2145C19.5864 35.0992 19.0018 36.2321 18.5441 37.6132C18.0864 38.9943 17.7878 40.4599 17.6484 42.0136C18.056 40.967 18.6102 40.1775 19.3111 39.6416C20.0119 39.1076 20.7986 38.7767 21.671 38.649C22.7205 38.4962 23.6001 38.6526 24.3081 39.1184C25.0161 39.5841 25.4505 40.3753 25.6114 41.4903C25.7759 42.6358 25.6114 43.7903 25.1144 44.9555C24.6174 46.1208 23.8451 47.126 22.7974 47.9694C21.7479 48.8128 20.5143 49.3379 19.0947 49.5447C16.3736 49.9403 14.8093 48.7103 14.3981 45.8547C14.1478 44.1139 14.3283 42.2276 14.9416 40.1955C15.5548 38.1635 16.5059 36.403 17.7932 34.9176C19.0822 33.4322 20.5608 32.5673 22.2324 32.3245C23.1639 32.1896 24.0095 32.2669 24.7676 32.5583C25.5256 32.8496 25.9583 33.3603 26.0638 34.0886C26.146 34.6532 26.0119 35.1783 25.6669 35.6603C25.3218 36.144 24.8087 36.4335 24.1275 36.5324C23.6538 36.6008 23.264 36.545 22.9583 36.3616C22.6526 36.1782 22.4702 35.8779 22.4094 35.4625C22.3361 34.9572 22.4541 34.4626 22.7616 33.9771L22.7634 33.9789ZM18.9177 40.5408C18.3653 41.1594 17.9148 42.1017 17.5697 43.3677C17.5393 44.4196 17.5983 45.4519 17.7431 46.4625C17.8915 47.4893 18.0935 48.1924 18.3528 48.5719C18.612 48.9513 18.9839 49.1059 19.472 49.0358C20.2265 48.9261 20.8361 48.4244 21.3045 47.5271C21.7711 46.6315 22.0876 45.5957 22.2503 44.4179C22.413 43.24 22.4327 42.2276 22.3111 41.3806C22.2092 40.6667 22.0036 40.1578 21.6961 39.8538C21.3886 39.5499 21.0203 39.4277 20.5912 39.4906C20.0298 39.5733 19.472 39.924 18.9195 40.5426L18.9177 40.5408Z"
    fill="white"></path>
  <path
    d="M37.0698 31.2204C37.8385 31.8788 38.3324 32.9749 38.5548 34.5089C38.807 36.246 38.6599 38.0653 38.1135 39.9618C37.5671 41.8599 36.7125 43.4849 35.5479 44.835C34.3834 46.1869 33.0629 46.9696 31.5849 47.1832C30.4554 47.3461 29.5132 47.0992 28.7602 46.439C28.0072 45.7789 27.5186 44.6809 27.2962 43.147C27.0475 41.4239 27.1911 39.6098 27.7287 37.7064C28.2663 35.8029 29.1104 34.1762 30.261 32.8261C31.4115 31.4778 32.725 30.695 34.203 30.4814C35.3465 30.3151 36.3027 30.562 37.0715 31.2186L37.0698 31.2204ZM31.8599 33.073C31.2452 34.3968 30.8179 36.0674 30.578 38.0828C30.338 40.0983 30.3661 42.1349 30.6638 44.1924C30.7986 45.1187 30.972 45.7859 31.1856 46.1904C31.3993 46.5949 31.6655 46.7752 31.9842 46.7297C32.6934 46.6264 33.3554 45.9137 33.9701 44.5899C34.5848 43.266 35.0156 41.5955 35.2625 39.5783C35.5112 37.561 35.4849 35.5245 35.1872 33.467C35.0523 32.5407 34.8755 31.8753 34.6548 31.4708C34.4342 31.0663 34.1645 30.8877 33.8457 30.9332C33.1365 31.0365 32.4745 31.7492 31.8599 33.073Z"
    fill="white"></path>
  <path
    d="M59.6723 37.1611C59.0874 38.8422 58.0594 40.2991 56.5901 41.5318C55.1191 42.7646 53.24 43.5473 50.9529 43.8783L49.8847 44.0114C49.0406 44.1042 48.2998 44.197 47.6623 44.288C46.2579 44.4912 45.1739 44.6698 44.4138 44.8256V44.3826C44.9042 44.2828 45.2684 44.1707 45.5101 44.0464C45.75 43.9221 45.9286 43.7242 46.0442 43.4475C46.1598 43.1726 46.2509 42.7558 46.3174 42.199L47.6046 31.0131C47.6641 30.6051 47.6764 30.2864 47.6431 30.0535C47.5976 29.7348 47.4575 29.5177 47.228 29.4038C46.9969 29.29 46.6116 29.2638 46.074 29.3268V28.882C46.7342 28.8312 47.6939 28.7139 48.953 28.5318L49.6482 28.432C51.163 28.1693 52.2383 27.9907 52.8758 27.8979C55.0052 27.5897 56.6934 27.7928 57.9438 28.5055C59.1924 29.22 59.942 30.4317 60.1889 32.139C60.4305 33.8043 60.2589 35.4783 59.674 37.1594L59.6723 37.1611ZM54.5166 41.3882C55.4536 40.2028 56.0928 38.7616 56.4307 37.0631C56.7687 35.3663 56.8143 33.6625 56.5673 31.9534C56.3712 30.5928 55.9404 29.6087 55.2749 29.0028C54.6112 28.397 53.6708 28.1816 52.4537 28.3567C52.0772 28.411 51.8057 28.4985 51.6376 28.6194C51.4695 28.7402 51.3469 28.9311 51.2664 29.1937C51.1858 29.4564 51.114 29.8801 51.051 30.4667L49.7778 41.7402C49.7113 42.4004 49.6885 42.8101 49.7113 42.9695C49.7463 43.2164 49.8549 43.3775 50.037 43.4545C50.2174 43.5316 50.5046 43.5421 50.8951 43.486C52.3731 43.2724 53.5797 42.572 54.5166 41.3865V41.3882Z"
    fill="white"></path>
  <path
    d="M73.1726 39.8663C73.4073 40.0537 73.6559 40.136 73.9186 40.1132L73.8941 40.5598C73.1498 40.6228 72.0956 40.7541 70.7349 40.9502C69.2568 41.1639 68.1746 41.3425 67.4846 41.4878L67.5091 41.0413C67.9977 40.9415 68.3725 40.8242 68.6334 40.6893C68.8943 40.5563 69.0642 40.3531 69.1448 40.0835C69.2236 39.8138 69.2131 39.4338 69.1132 38.9453L68.4022 35.4116L63.709 36.091L62.1906 39.0836C61.8211 39.8015 61.667 40.3724 61.7283 40.7909C61.7791 41.1376 61.9717 41.374 62.3062 41.4948C62.6425 41.6157 63.1083 41.6489 63.7072 41.5911L63.6617 42.0412C62.4393 42.1743 61.4937 42.2881 60.8282 42.3844C60.2923 42.4614 59.7967 42.556 59.3379 42.6663L59.3624 42.2198C59.7249 42.0639 60.0594 41.7943 60.3659 41.409C60.6723 41.0255 61.0453 40.4092 61.4849 39.5616L68.6982 25.4987C68.8313 25.4952 69.0204 25.4742 69.2656 25.4392C69.5265 25.4006 69.7069 25.3674 69.805 25.3394L72.6525 38.877C72.7646 39.348 72.9379 39.679 73.1726 39.8663ZM68.3182 34.9791L67.2027 29.2635L63.9506 35.6112L68.3182 34.9791Z"
    fill="white"></path>
  <path
    d="M88.7548 22.5872C89.1681 22.8902 89.4133 23.3087 89.4921 23.8445C89.5727 24.3943 89.4536 24.8846 89.1401 25.3154C88.8249 25.7462 88.3783 26.0018 87.7987 26.0859C87.3206 26.1542 86.9336 26.0894 86.6393 25.888C86.3434 25.6866 86.1665 25.3837 86.1087 24.9774C86.0544 24.4977 86.1525 24.0581 86.4064 23.6589C86.6586 23.2596 87.0141 22.9532 87.4712 22.7396C87.3906 22.6923 87.2628 22.6818 87.0894 22.7063C86.6551 22.7693 86.2436 22.9987 85.8583 23.3945C85.2734 23.9531 84.664 24.9529 84.03 26.3976C83.3961 27.8422 82.8865 29.5828 82.5012 31.6193L81.9706 36.6869C81.9338 37.0477 81.932 37.3436 81.9653 37.5747C82.0196 37.9512 82.179 38.1876 82.4452 38.2822C82.7096 38.3767 83.1562 38.3942 83.7831 38.3329L83.7376 38.783C82.9057 38.8583 81.6571 39.0176 79.9917 39.2593C78.4278 39.4852 77.265 39.676 76.5032 39.8301L76.5488 39.3801C77.0654 39.275 77.4489 39.1612 77.6958 39.0369C77.9445 38.9126 78.1284 38.7112 78.2527 38.4345C78.3753 38.1578 78.4629 37.7428 78.5154 37.1877L79.0128 32.3477C78.4944 30.397 77.9322 28.7633 77.3281 27.4465C76.7239 26.1297 76.1092 25.515 75.4875 25.6061C75.2406 25.6411 75.055 25.7584 74.9271 25.9528C74.7993 26.1472 74.703 26.4221 74.6347 26.7706L74.3773 28.2047L73.8992 28.273L74.2004 26.5219C74.3562 25.6569 74.6645 25.0055 75.1268 24.5694C75.5873 24.1334 76.188 23.862 76.927 23.7552C77.8692 23.6186 78.6537 23.8042 79.2807 24.312C79.9076 24.8199 80.4347 25.5938 80.8585 26.634C81.2823 27.6741 81.7289 29.0995 82.1982 30.9101C82.4784 29.4795 82.8444 28.1767 83.2963 27.0034C83.7481 25.8302 84.2594 24.8234 84.8338 23.9863C85.5291 22.969 86.3189 22.3964 87.2032 22.2685C87.8267 22.1792 88.3433 22.2843 88.7583 22.5872H88.7548Z"
    fill="white"></path>
  <path
    d="M25.2097 19.0444L29.5936 21.2735L29.0497 22.341L26.4218 21.0033L28.5515 23.321L28.1126 24.1826L24.9759 23.8298L27.6107 25.1695L27.0668 26.237L22.6846 24.008L23.3259 22.7465L26.9867 23.0598L24.5721 20.299L25.2097 19.0444Z"
    fill="white"></path>
  <path
    d="M30.955 19.1901C30.5373 19.3288 30.1087 19.353 29.6726 19.2595C29.2348 19.166 28.8386 18.9568 28.484 18.6336C28.1293 18.3104 27.8873 17.934 27.7577 17.508C27.6282 17.082 27.6144 16.6556 27.7164 16.2252C27.8183 15.7965 28.0254 15.4108 28.3375 15.0697C28.6496 14.7287 29.0154 14.488 29.4331 14.3494C29.8525 14.2108 30.2776 14.1881 30.7101 14.2832C31.1426 14.3783 31.537 14.5875 31.8916 14.9124C32.2462 15.2373 32.49 15.612 32.623 16.0381C32.7562 16.4625 32.7717 16.8908 32.6716 17.3178C32.5714 17.7448 32.3662 18.1288 32.0541 18.4699C31.7419 18.811 31.3761 19.0516 30.9585 19.1903L30.955 19.1901ZM31.5918 16.7717C31.5572 16.4215 31.383 16.1006 31.0656 15.8105C30.7447 15.5167 30.409 15.3713 30.0585 15.3691C29.708 15.3685 29.4006 15.5117 29.1361 15.8022C28.8681 16.0943 28.7496 16.4153 28.7808 16.7619C28.8102 17.1084 28.9879 17.4312 29.3121 17.7268C29.6329 18.0206 29.9686 18.1677 30.3191 18.1682C30.6696 18.1688 30.9789 18.0239 31.247 17.7301C31.5114 17.4414 31.6281 17.1202 31.5936 16.77L31.5918 16.7717Z"
    fill="white"></path>
  <path
    d="M38.3547 13.3898L37.3545 14.0493L34.0136 12.6189L35.6822 15.1524L34.682 15.8119L31.9763 11.7053L32.9765 11.0458L36.3256 12.4889L34.6488 9.94456L35.6489 9.28506L38.3546 13.3916L38.3547 13.3898Z"
    fill="white"></path>
  <path
    d="M39.3695 8.66151L39.7306 9.58786L41.2254 9.00499L41.5612 9.86719L40.0664 10.4501L40.4594 11.4548L42.1501 10.796L42.4985 11.6903L39.6925 12.7848L37.9039 8.20456L40.7099 7.11006L41.0584 8.00433L39.3677 8.66319L39.3695 8.66151Z"
    fill="white"></path>
  <path
    d="M47.1462 5.72265L46.025 9.25487L46.3003 10.8559L45.1192 11.0592L44.8439 9.4582L42.6093 6.50165L43.9492 6.27163L45.2369 8.14079L45.8204 5.9515L47.1461 5.7244L47.1462 5.72265Z"
    fill="white"></path>
  <path
    d="M55.2053 9.02463C55.3459 9.26882 55.3963 9.53205 55.3548 9.8125C55.2977 10.2185 55.1098 10.5226 54.7913 10.7197C54.4728 10.9186 54.0601 10.9803 53.5513 10.9083L51.2826 10.588L51.972 5.71991L54.1641 6.03002C54.659 6.09965 55.0306 6.26756 55.2772 6.53368C55.5255 6.79987 55.6206 7.1263 55.5659 7.51485C55.526 7.80237 55.4166 8.02917 55.2396 8.19708C55.0627 8.36499 54.8445 8.4681 54.5835 8.50808C54.8562 8.60879 55.0629 8.78036 55.2035 9.02456L55.2053 9.02463ZM53.9597 9.8527C54.0803 9.77709 54.1538 9.65395 54.1784 9.48322C54.203 9.31249 54.1651 9.17071 54.0647 9.05612C53.9642 8.94329 53.8164 8.87231 53.6178 8.84478L52.757 8.72315L52.6054 9.7982L53.4784 9.92209C53.677 9.94962 53.8375 9.92649 53.958 9.85263L53.9597 9.8527ZM52.8806 7.85725L53.6577 7.96664C53.8512 7.99395 54.0063 7.97235 54.1231 7.90184C54.24 7.83133 54.3098 7.7133 54.3325 7.546C54.357 7.37877 54.3222 7.24588 54.2301 7.14215C54.1379 7.04018 53.9951 6.97466 53.8017 6.94735L53.0245 6.83796L52.8806 7.85725Z"
    fill="white"></path>
  <path
    d="M59.5778 11.7316L57.8646 11.0751L57.2797 11.7817L56.1082 11.3334L59.5291 7.37794L60.8247 7.87515L60.7268 13.1026L59.5433 12.6486L59.5813 11.7318L59.5778 11.7316ZM59.6201 10.7572L59.6954 8.85878L58.4882 10.3246L59.62 10.759L59.6201 10.7572Z"
    fill="white"></path>
  <path
    d="M63.9323 10.6155C64.3223 10.4232 64.7322 10.3455 65.1617 10.3862C65.5912 10.425 66.0019 10.5806 66.3938 10.8527C66.8724 11.1863 67.1954 11.5975 67.3609 12.0864C67.5263 12.577 67.5159 13.0795 67.3262 13.5974L66.2444 12.8462C66.2817 12.6217 66.2553 12.4138 66.1686 12.2226C66.0819 12.0315 65.9448 11.8716 65.7574 11.7411C65.4542 11.5305 65.1361 11.4665 64.8015 11.5472C64.4669 11.6279 64.1774 11.8455 63.9331 12.1981C63.6871 12.5507 63.5868 12.8988 63.6287 13.2406C63.6706 13.5823 63.8432 13.8576 64.1447 14.0682C64.332 14.1986 64.5306 14.2717 64.7403 14.2857C64.9501 14.2997 65.1519 14.2502 65.3512 14.1376L66.433 14.8888C66.015 15.2465 65.5463 15.4321 65.0304 15.4457C64.5146 15.4593 64.0164 15.3002 63.5376 14.9683C63.1458 14.6962 62.8563 14.3669 62.6691 13.9771C62.4819 13.589 62.4096 13.1794 62.452 12.7483C62.4944 12.3172 62.6554 11.9032 62.9313 11.5046C63.2073 11.1059 63.5421 10.8096 63.9304 10.6172L63.9323 10.6155Z"
    fill="white"></path>
  <path
    d="M68.325 19.3016L68.8482 16.6225L67.2248 18.0658L66.4295 17.1705L70.104 13.9021L70.9011 14.7975L69.2886 16.2307L71.9895 16.0222L72.9256 17.074L69.8579 17.2516L69.298 20.3935L68.3251 19.2998L68.325 19.3016Z"
    fill="white"></path>
  <path
    d="M32.9916 54.4571C33.0433 54.276 33.039 54.0939 32.9805 53.9143C32.9219 53.733 32.8092 53.5647 32.6476 53.4041C32.3653 53.1296 32.05 53.0009 31.6983 53.0198C31.3483 53.0387 31.0213 53.2043 30.7209 53.5132C30.3997 53.8434 30.2381 54.1872 30.2343 54.5462C30.2323 54.9053 30.3876 55.2376 30.7001 55.5432C30.9149 55.7521 31.1478 55.875 31.4023 55.91C31.6567 55.9449 31.9169 55.894 32.183 55.7572L31.0769 54.6781L31.7037 54.0354L33.5999 55.8846L32.809 56.6942C32.5327 56.8487 32.2258 56.944 31.8883 56.9802C31.5508 57.0164 31.2069 56.9757 30.8568 56.8597C30.5066 56.7438 30.1815 56.5399 29.8832 56.2481C29.5299 55.9028 29.2899 55.5191 29.1649 55.0935C29.0381 54.6697 29.0322 54.2443 29.1471 53.8171C29.2603 53.3917 29.4895 53.0015 29.8349 52.6482C30.1802 52.2949 30.5639 52.0549 30.9895 51.9299C31.4134 51.8049 31.8389 51.7972 32.2661 51.9121C32.6915 52.0252 33.0817 52.2545 33.4351 52.5998C33.863 53.0177 34.1233 53.4729 34.2142 53.9672C34.3052 54.4615 34.2207 54.9373 33.9574 55.398L32.9951 54.4588L32.9916 54.4571Z"
    fill="white"></path>
  <path
    d="M37.2595 55.7146L35.749 58.2959C35.5984 58.5537 35.5457 58.7891 35.5907 59.0039C35.6357 59.2169 35.7818 59.3953 36.0272 59.5389C36.2727 59.6826 36.5027 59.7232 36.7155 59.6607C36.9283 59.5982 37.1099 59.4381 37.2605 59.1803L38.771 56.5989L39.8216 57.213L38.3145 59.7873C38.0887 60.1722 37.8159 60.451 37.4959 60.62C37.1761 60.7908 36.839 60.8621 36.4831 60.8355C36.1272 60.809 35.7806 60.6964 35.4399 60.498C35.0991 60.2997 34.8347 60.0547 34.6433 59.7649C34.4518 59.4751 34.358 59.1506 34.36 58.7916C34.3603 58.4326 34.4742 58.0597 34.7 57.6748L36.2071 55.1005L37.2578 55.7146L37.2595 55.7146Z"
    fill="white"></path>
  <path
    d="M43.0748 62.6612L41.2846 62.138L40.7506 62.902L39.5266 62.5443L42.665 58.2555L44.0173 58.6517L44.3504 63.9569L43.1141 63.5958L43.0749 62.6647L43.0748 62.6612ZM43.0383 61.6723L42.9571 59.7418L41.8565 61.3262L43.0383 61.6723Z"
    fill="white"></path>
  <path
    d="M49.3076 64.4079L48.3612 62.472L48.0703 62.4585L47.9774 64.3424L46.7611 64.2823L47.0068 59.2896L49.0486 59.3907C49.443 59.4097 49.7734 59.4962 50.0452 59.6465C50.3153 59.7969 50.5142 59.9955 50.6402 60.2424C50.7663 60.4894 50.8226 60.7583 50.8074 61.0527C50.791 61.3839 50.683 61.6761 50.4833 61.9276C50.2837 62.179 49.9988 62.3511 49.627 62.4421L50.6817 64.4764L49.3094 64.4079L49.3076 64.4079ZM48.1126 61.5981L48.8662 61.6349C49.0888 61.6458 49.258 61.5996 49.3757 61.4964C49.4916 61.3932 49.556 61.2417 49.5655 61.042C49.5751 60.8527 49.5257 60.701 49.4208 60.5851C49.3141 60.471 49.1504 60.4085 48.9278 60.3976L48.1742 60.3608L48.1126 61.5981Z"
    fill="white"></path>
  <path
    d="M56.1745 62.8748L54.3403 63.2191L54.2095 64.142L52.9571 64.3766L53.8158 59.1319L55.201 58.8727L57.8989 63.4532L56.6324 63.6897L56.1762 62.8765L56.1745 62.8748ZM55.693 62.0094L54.7466 60.3238L54.4807 62.2346L55.6913 62.0076L55.693 62.0094Z"
    fill="white"></path>
  <path
    d="M64.3137 60.7753L63.2087 61.2881L60.0625 59.3512L61.3607 62.1474L60.2574 62.6601L58.1504 58.1275L59.2537 57.6148L62.4053 59.5655L61.1 56.7572L62.205 56.2445L64.312 60.7771L64.3137 60.7753Z"
    fill="white"></path>
  <path
    d="M66.3668 53.1235L66.9695 53.8909L65.9283 54.7092L68.4138 57.8707L67.4557 58.623L64.9702 55.4599L63.929 56.2782L63.3264 55.5108L66.3651 53.1218L66.3668 53.1235Z"
    fill="white"></path>
  <path
    d="M68.8547 51.8492L69.624 52.5057L70.6821 51.2669L71.3964 51.8769L70.3366 53.1157L71.1714 53.8274L72.3691 52.4255L73.11 53.0596L71.1213 55.3867L67.3211 52.142L69.3098 49.8132L70.0507 50.4473L68.853 51.8492L68.8547 51.8492Z"
    fill="white"></path>
  <path
    d="M71.6533 47.9416L72.5342 48.4389L73.3358 47.0197L74.1549 47.4812L73.3533 48.9003L74.3083 49.4387L75.2159 47.8324L76.065 48.3127L74.5591 50.978L70.2077 48.5203L71.7136 45.855L72.5627 46.3353L71.655 47.9398L71.6533 47.9416Z"
    fill="white"></path>
  <defs>
    <linearGradient id="paint0_linear_5461_891" x1="8.72097" y1="54.1287" x2="97.1195" y2="41.2995"
      gradientUnits="userSpaceOnUse">
      <stop stop-color="#BFB26F"></stop>
      <stop offset="0.516182" stop-color="#D3CCA4"></stop>
      <stop offset="1" stop-color="#BFB26F"></stop>
    </linearGradient>
  </defs>
</svg>