<svg xmlns="http://www.w3.org/2000/svg" width="100%" height="100%" viewBox="0 0 170 30">
  <title>The Spa Dr</title>
  <path
    d="M168.751 7.51185C168.844 7.40143 168.892 7.26385 168.892 7.0973C168.892 6.89817 168.826 6.74068 168.696 6.62301C168.565 6.50715 168.39 6.44922 168.169 6.44922H167.233V8.59259H167.666V7.74538H167.898L168.452 8.59259L168.965 8.58173L168.36 7.72366C168.528 7.69107 168.658 7.61866 168.753 7.50824L168.751 7.51185ZM167.664 7.38695V6.83843H168.137C168.231 6.83843 168.309 6.86015 168.369 6.9036C168.43 6.94705 168.461 7.01584 168.461 7.10816C168.461 7.20049 168.43 7.27109 168.369 7.31816C168.309 7.36523 168.232 7.38876 168.137 7.38876H167.664V7.38695Z"
    fill="white" />
  <path
    d="M0 7.87059H0.217347C0.27214 7.62801 0.896784 6.09289 2.5552 6.09289H5.65285C6.35968 6.09289 6.44004 6.49659 6.46744 7.38544V22.0668C6.41265 23.2254 5.87019 24.0599 5.65285 24.1143V24.3297H9.45733V24.1143C9.23998 24.0599 8.64274 23.1711 8.64274 21.9329V7.8724C8.64274 6.63236 8.64274 6.0947 9.45733 6.0947H12.555C14.2134 6.0947 14.838 7.62983 14.8928 7.8724H15.1102V5.47559H0V7.8724V7.87059Z"
    fill="white" />
  <path
    d="M29.6781 5.6871C29.9229 5.74141 30.4927 6.63026 30.4927 7.86849V14.5756H20.0016V7.86849C20.0016 6.62845 20.5733 5.7396 20.8162 5.6871V5.47168H17.0117V5.6871C17.2565 5.74141 17.8263 6.63026 17.8263 7.86849V21.929C17.8263 23.169 17.2546 24.0578 17.0117 24.1103V24.3258H20.8162V24.1103C20.5715 24.056 20.0016 23.1672 20.0016 21.929V15.1947H30.4927V21.929C30.4927 23.169 29.9229 24.0578 29.6781 24.1103V24.3258H33.4826V24.1103C33.2379 24.056 32.668 23.1672 32.668 21.929V7.86849C32.668 6.62845 33.2379 5.7396 33.4826 5.6871V5.47168H29.6781V5.6871Z"
    fill="white" />
  <path
    d="M45.6843 23.7106H39.4598C38.6452 23.7106 38.6452 23.1711 38.6452 21.9329V15.1986H43.646C45.3044 15.1986 45.9838 16.3029 45.9838 16.3029H46.2012V13.4481H45.9838C45.9838 13.4481 45.3044 14.5795 43.646 14.5795H38.6452V7.8724C38.6452 6.63236 38.6452 6.0947 39.4598 6.0947H45.3847C47.0432 6.0947 47.6678 7.62983 47.7226 7.8724H47.9399V5.47559H35.6553V5.69101C35.9 5.74532 36.4699 6.63417 36.4699 7.8724V21.9329C36.4699 23.1729 35.9 24.0618 35.6553 24.1143V24.3297H48.2395V21.9329H48.0221C47.9673 22.1754 47.3427 23.7106 45.6843 23.7106Z"
    fill="white" />
  <path
    d="M136.077 5.47154H130.234V5.68696C130.479 5.74127 131.049 6.63012 131.049 7.86835V21.9288C131.049 23.1689 130.477 24.0577 130.234 24.1102V24.3256H136.077C141.485 24.2713 145.861 20.2579 145.861 14.8977C145.861 9.53743 141.485 5.52404 136.077 5.46973V5.47154ZM135.94 23.7083H134.037C133.222 23.7083 133.222 23.1689 133.222 21.9306V7.87016C133.222 6.63012 133.222 6.09246 134.037 6.09246H135.94C140.344 6.09246 143.524 10.1602 143.524 14.9013C143.524 19.6424 140.344 23.7101 135.94 23.7101V23.7083Z"
    fill="white" />
  <path
    d="M156.378 15.4118C159.748 14.8723 161.434 12.6909 161.434 10.5077C161.434 7.97516 159.178 5.46973 154.64 5.46973H148.442V5.68515C148.687 5.73946 149.257 6.62831 149.257 7.86654V21.927C149.257 23.167 148.687 24.0559 148.442 24.1084V24.3238H152.247V24.1084C152.002 24.0541 151.432 23.1652 151.432 21.927V15.5421H153.226C159.123 15.5693 155.889 24.3238 163.772 24.3238L163.744 23.8658C159.75 23.8387 161.788 17.2655 156.378 15.4082V15.4118ZM153.933 14.9266H151.432V7.87016C151.432 6.63012 151.432 6.09246 152.247 6.09246H153.933C157.385 6.09246 159.096 8.30101 159.096 10.5096C159.096 12.7181 157.385 14.9266 153.933 14.9266Z"
    fill="white" />
  <path
    d="M165.809 22.0664C165.129 22.0664 164.585 22.5787 164.585 23.2521C164.585 23.9256 165.129 24.465 165.809 24.465C166.488 24.465 167.005 23.9256 167.005 23.2521C167.005 22.5787 166.488 22.0664 165.809 22.0664Z"
    fill="white" />
  <path
    d="M169.742 6.53224C169.57 6.22631 169.337 5.98735 169.037 5.81356C168.738 5.64159 168.398 5.55469 168.016 5.55469C167.634 5.55469 167.291 5.64159 166.99 5.81356C166.688 5.98735 166.451 6.22631 166.281 6.53224C166.109 6.83818 166.023 7.18032 166.023 7.55867C166.023 7.93702 166.109 8.27916 166.281 8.58148C166.453 8.8838 166.688 9.12094 166.99 9.29473C167.291 9.46852 167.634 9.55361 168.016 9.55361C168.398 9.55361 168.739 9.46671 169.037 9.29473C169.335 9.12094 169.57 8.8838 169.742 8.58148C169.914 8.27916 170 7.93883 170 7.55867C170 7.17851 169.914 6.83818 169.742 6.53224ZM169.189 8.75708C168.889 9.07026 168.5 9.22594 168.016 9.22594C167.532 9.22594 167.132 9.07026 166.834 8.75708C166.537 8.4439 166.387 8.04564 166.387 7.56048C166.387 7.07533 166.537 6.67706 166.834 6.36388C167.132 6.05071 167.527 5.89502 168.016 5.89502C168.506 5.89502 168.889 6.05071 169.189 6.36388C169.486 6.67706 169.636 7.07533 169.636 7.56048C169.636 8.04564 169.486 8.4439 169.189 8.75708Z"
    fill="white" />
  <path
    d="M56.6869 6.82755C56.6869 2.93725 60.0274 0.951375 63.7424 0.951375C66.7908 0.951375 70.2975 3.26854 70.2975 6.49627H70.5478L72.8016 4.26238C70.714 1.40757 67.2072 0.000976562 63.7844 0.000976562C59.1087 0.000976562 54.7253 2.64942 54.7253 7.90467C54.7253 18.2088 72.3011 15.8916 72.3011 23.4224C72.3011 27.1878 68.2099 29.132 63.8684 29.132C60.2777 29.132 56.8129 26.7732 56.8129 22.4702H56.2704L54.0166 25.8627C56.1042 28.6759 59.9872 30.001 63.8283 30.001C69.2565 30.001 74.5568 27.3525 74.5568 22.4702C74.5568 11.7533 56.6887 14.4018 56.6887 6.82936L56.6869 6.82755Z"
    fill="white" />
  <path
    d="M88.4161 0.538086H78.7305V0.869371C79.1067 0.952644 79.9834 2.31759 79.9834 4.22201V25.8223C79.9834 27.7249 79.1067 29.0917 78.7305 29.1749V29.5062H84.5751V29.1749C84.1988 29.0917 83.3222 27.7267 83.3222 25.8223V18.7875H88.4161C95.2634 18.7875 98.6862 14.2365 98.6862 9.642C98.6862 5.0475 95.2634 0.538086 88.4161 0.538086ZM87.3312 17.8353H83.324V4.01383C83.324 2.27596 83.366 1.4903 84.5769 1.4903H87.333C92.469 1.4903 95.0571 5.58697 95.0571 9.642C95.0571 13.697 92.469 17.8353 87.333 17.8353H87.3312Z"
    fill="white" />
  <path
    d="M122.565 25.7789L111.25 0.538086H110.208L98.4763 26.6478C97.8078 27.9711 96.8891 29.0899 96.3887 29.1713V29.5026H99.8534V29.1713C99.227 29.0881 99.0608 27.7647 99.8534 25.9852L101.733 21.8053L102.149 20.8114L102.467 20.1018C104.304 20.281 106.173 20.5924 108.001 20.987C111.566 21.7817 115.132 22.9041 118.344 24.6565L118.89 25.9001V25.8585C119.725 27.7213 119.267 29.0862 118.64 29.1695V29.5008H125.069V29.1695C124.443 29.0862 123.274 27.3484 122.565 25.777V25.7789ZM102.997 18.9215L109.373 4.67458L116.929 21.5156L117.347 22.3846L118.078 24.05C113.524 21.3346 108.061 19.7995 102.997 18.9215Z"
    fill="white" />
</svg>