<svg xmlns="http://www.w3.org/2000/svg" width="100%" height="100%" viewBox="0 0 102 40" id="the_bod_con">
  <title>The Bod Con</title>
  <g clip-path="url(#clip0_926_4742)">
    <path
      d="M2.56209 6.09134C2.13354 6.38801 1.70332 6.59761 1.11261 6.59761C-0.0506205 6.59761 -0.176375 5.80435 -0.176375 5.35935V1.99283H-0.76709V1.80902L-0.194576 1.80096H-0.176375V0.549805H-0.173066C-0.138318 0.549805 -0.106879 0.549804 -0.072131 0.554641C0.250528 0.578826 0.53844 0.715873 0.753546 0.925475C0.975271 1.14153 1.11757 1.43336 1.13577 1.75904C1.13577 1.77194 1.13743 1.78484 1.13743 1.79774V1.80096H1.14074V1.82192H2.42145L2.42972 2.65872H2.41648C1.87044 2.21372 1.64541 1.98477 1.23671 1.98477H1.14074V5.40288C1.14074 5.62055 1.14074 6.2042 1.76785 6.2042C1.96476 6.2042 2.20634 6.14294 2.4926 5.98654L2.56375 6.09134H2.56209Z"
      fill="#142541" />
    <path
      d="M7.84555 3.36137V6.49249H6.52182V3.24045C6.52182 2.91637 6.51354 2.09731 5.68952 2.09731C5.347 2.09731 5.02765 2.23275 4.66859 2.5794C4.66363 2.58423 4.65701 2.59068 4.65205 2.59552V6.4941H3.32666V-0.205078H3.48054C4.06299 -0.142198 4.53291 0.277005 4.64543 0.817132C4.64874 0.844541 4.65205 0.886461 4.6537 0.91387V2.41978C5.07398 1.99412 5.54722 1.69585 6.26369 1.69585C7.26641 1.69585 7.8472 2.21985 7.8472 3.36137H7.84555Z"
      fill="#142541" />
    <path
      d="M10.3192 4.78837C10.2911 4.8706 10.2845 4.98185 10.3192 5.12696C10.3275 5.16566 10.3391 5.20758 10.3556 5.25272C10.3606 5.26884 10.3655 5.28497 10.3722 5.30109C10.3722 5.30109 10.3722 5.3027 10.3722 5.30432C10.6253 5.82832 11.0489 6.08145 11.5751 6.08145C12.0583 6.08145 12.5778 5.85412 12.9981 5.29625L13.1057 5.35752C12.596 6.11692 11.9242 6.59578 10.9943 6.59578C9.70368 6.59578 8.69434 5.67999 8.69434 4.21439C8.69434 2.90519 9.51174 2.0039 10.6005 1.76205C10.7958 1.71691 11.0009 1.69434 11.2094 1.69434C11.2293 1.69434 11.2491 1.69434 11.269 1.69595C11.5404 1.68627 11.8498 1.72497 12.1774 1.85396C12.2502 1.88298 12.3247 1.91522 12.4008 1.95392C13.2513 2.39086 13.5657 3.10834 13.2099 3.76778C12.7036 4.71098 11.2624 4.35305 10.6204 4.53202C10.6204 4.53202 10.6204 4.53202 10.6171 4.53202C10.526 4.55781 10.4516 4.5949 10.3986 4.6481C10.3904 4.65455 10.3854 4.66423 10.3788 4.67229C10.3589 4.69808 10.3407 4.72872 10.3275 4.7658C10.3258 4.77225 10.3225 4.7787 10.3209 4.78515L10.3192 4.78837ZM10.6501 4.18214C10.6634 4.17569 10.6783 4.17086 10.6932 4.16441C10.7081 4.15796 10.7246 4.15151 10.7412 4.14667C11.2078 3.97577 11.8018 3.85807 12.0947 3.31633C12.1609 3.19218 12.2022 3.06803 12.2155 2.94711C12.3296 2.01357 11.6429 1.85718 11.4113 1.83138C11.3981 1.82977 11.3914 1.82977 11.3914 1.82977C11.3782 1.82816 11.365 1.82655 11.3534 1.82655C11.3385 1.82655 11.3286 1.82655 11.3269 1.82655C11.1945 1.82655 11.0688 1.85073 10.9563 1.89749C10.4251 2.11676 10.1091 2.83263 10.1091 3.9016C10.1091 4.14506 10.1256 4.36756 10.1571 4.57071C10.162 4.60941 10.1686 4.6481 10.1769 4.6868C10.1819 4.72227 10.1902 4.75774 10.1984 4.7916C10.1984 4.74807 10.2034 4.38368 10.6518 4.18375L10.6501 4.18214Z"
      fill="#142541" />
    <path
      d="M33.9058 26.5558C33.9058 29.0936 31.6141 30.6366 27.5718 30.6366H21.5703V15.8564H27.633C31.1128 15.8564 33.0917 17.0334 33.0917 19.2068C33.0917 21.2368 31.1541 22.4557 28.8624 22.7797V22.82C31.7796 22.9829 33.9042 24.1599 33.9058 26.5558ZM24.8829 22.8604H26.9662C28.6953 22.8604 29.6335 21.398 29.6335 19.5309C29.6335 17.6639 28.7582 16.1805 26.6948 16.1805H24.8813V22.8604H24.8829ZM30.3003 26.8605C30.3003 24.6678 29.1751 23.186 27.2574 23.186H24.8813V30.1706C25.194 30.2722 26.0892 30.3125 26.5277 30.3125C29.1735 30.3125 30.2987 29.0339 30.2987 26.8605H30.3003Z"
      fill="#142541" />
    <path
      d="M43.0609 30.6493C39.8194 31.6376 36.7732 30.3123 35.7026 26.9796C34.6387 23.6663 36.4207 20.719 39.7218 19.7113C42.9633 18.723 46.0095 20.0483 47.0801 23.3809C48.144 26.6943 46.3421 29.648 43.0609 30.6493ZM44.0206 24.4628C43.0129 21.3236 41.3798 19.5033 39.6887 20.0193C37.9381 20.5529 37.7776 22.836 38.7737 25.9365C39.7764 29.0563 41.4029 30.8573 43.0741 30.3478C44.8248 29.8141 45.0051 27.5246 44.0223 24.4628H44.0206Z"
      fill="#142541" />
    <path
      d="M60.3752 30.6444H57.2711L57.3108 29.1595C56.3312 30.2172 55.1862 30.8863 53.7086 30.8863C51.0198 30.8863 48.915 28.6339 48.915 25.4044C48.915 21.9137 51.4152 19.4759 54.4995 19.4759C55.6264 19.4759 56.5414 19.7984 57.2711 20.3691V15.0469C58.201 15.0533 59.0333 15.4467 59.6025 16.0659C60.0973 16.6044 60.3372 17.3202 60.3372 18.0442V25.9607L60.3355 27.2424C60.3355 28.2163 60.3769 29.7464 60.3769 30.6444H60.3752ZM57.2711 21.8912C57.2628 21.8686 57.2562 21.8444 57.2479 21.8234C56.8607 20.6416 56.0185 19.8 54.895 19.8C53.1229 19.8 52.1631 21.8105 52.1631 25.1819C52.1631 28.7532 53.1857 29.9947 54.7891 29.9947C55.6446 29.9947 56.4355 29.6271 57.2694 28.6742V21.8896L57.2711 21.8912Z"
      fill="#142541" />
    <path
      d="M75.8552 27.1921C74.5001 29.3639 72.2712 30.7247 69.4368 30.7247C65.1645 30.7247 62.1646 27.679 62.1646 23.2532C62.1646 18.4405 65.4573 15.4561 69.958 15.4561C72.4168 15.4561 74.4802 16.654 75.6467 17.831L73.0522 20.0899C72.2183 18.3631 71.8543 15.7801 69.8951 15.7801C67.1037 15.7801 65.7701 18.8258 65.7701 22.5212C65.7701 27.1905 67.8947 29.5058 70.8747 29.5058C72.3755 29.5058 74.2916 28.9576 75.6054 27.0486L75.8552 27.1905V27.1921Z"
      fill="#142541" />
    <path
      d="M84.6976 30.494C81.4561 31.4823 78.4099 30.157 77.3393 26.8244C76.2754 23.511 78.0575 20.5637 81.3585 19.556C84.6 18.5677 87.6462 19.893 88.7168 23.2257C89.7807 26.539 87.9788 29.4927 84.6976 30.494ZM85.6573 24.3075C84.6496 21.1683 83.0165 19.348 81.3254 19.864C79.5748 20.3977 79.4143 22.6807 80.4104 25.7812C81.4131 28.901 83.0396 30.702 84.7092 30.1925C86.4598 29.6588 86.6402 27.3693 85.6573 24.3075Z"
      fill="#142541" />
    <path
      d="M101.486 23.168V30.4556H98.4247V22.881C98.4247 22.1296 98.4015 20.2223 96.4639 20.2223C95.6532 20.2223 94.9019 20.5479 94.0481 21.3799V30.4556H90.9854V20.785H91.5711C92.8402 22.2554 94.0498 20.9946 94.0498 20.9946C95.0459 20.0223 96.1115 19.2871 97.8208 19.2871C100.154 19.2871 101.486 20.506 101.486 23.168Z"
      fill="#142541" />
    <path
      d="M-0.626612 13.1591C-0.633859 13.021 -0.670094 12.8764 -0.644005 12.7448C-0.413547 11.5621 0.314062 10.8896 1.26633 10.4704C2.14178 10.0854 3.03318 10.1211 3.91007 10.4493C5.04207 10.8717 6.15668 11.3542 7.29157 11.7603C7.81771 11.9488 8.37429 12.069 8.92507 12.134C9.86429 12.2461 10.7267 11.9114 11.5398 11.4062C11.9732 11.1365 12.4298 10.9399 12.924 10.8619C13.9183 10.706 14.8344 10.9659 15.6707 11.554C17.0955 12.5563 17.9492 14.0185 18.3434 15.8363C18.5318 16.7022 18.571 17.586 18.5681 18.4681C18.5608 20.1333 18.5217 21.7985 18.4985 23.4636C18.4825 24.6512 18.5101 25.8323 18.7232 27.0036C19.2015 29.6288 20.5799 31.4289 22.7294 32.5303C24.1657 33.2662 25.6804 33.544 27.2515 33.518C29.0242 33.4872 30.7403 33.0713 32.4521 32.6034C33.5087 32.3142 34.5624 31.9991 35.6292 31.7651C37.1859 31.424 38.7397 31.437 40.2456 32.0901C41.4167 32.5985 42.2849 33.4888 42.8517 34.7446C42.8893 34.8274 42.8922 34.9282 42.9169 35.0468C42.669 35.0061 42.556 34.8827 42.4647 34.691C41.8429 33.3686 40.8181 32.6359 39.5745 32.2184C38.3758 31.8155 37.1598 31.7895 35.9495 32.0738C34.4102 32.4361 32.8825 32.8617 31.3505 33.2581C29.9533 33.6188 28.543 33.8933 27.1037 33.8884C25.5325 33.8836 23.999 33.6009 22.5641 32.8617C20.3842 31.7392 19.0087 29.8709 18.4652 27.231C18.1593 25.7429 18.1187 24.2451 18.1753 22.731C18.2275 21.3468 18.3014 19.9627 18.2999 18.5802C18.2999 17.1457 18.1173 15.7307 17.5593 14.4148C16.8549 12.7545 15.7026 11.6758 14.1198 11.2047C13.3473 10.974 12.608 11.1722 11.9167 11.593C11.35 11.939 10.7687 12.2412 10.1368 12.4069C9.31351 12.6246 8.50184 12.5466 7.71045 12.2493C6.70456 11.8708 5.70736 11.4598 4.70581 11.0634C3.90138 10.745 3.07956 10.5143 2.2186 10.5988C1.26633 10.693 0.480746 11.1576 -0.062787 12.0544C-0.201931 12.285 -0.258459 12.5775 -0.357019 12.8406C-0.401951 12.9576 -0.45558 13.0713 -0.50631 13.1851C-0.545444 13.1769 -0.584578 13.1672 -0.625162 13.1591H-0.626612Z"
      fill="#142541" />
  </g>
  <defs>
    <clip-path id="clip0_926_4742">
      <rect width="102" height="40" fill="white" transform="translate(0 0.000976562)" />
    </clip-path>
  </defs>
</svg>