<svg width="151" height="95" viewBox="0 0 151 95" fill="none" xmlns="http://www.w3.org/2000/svg">
<g clip-path="url(#clip0_1179_2563)">
<path d="M21.0893 26.2305C20.1081 26.9351 19.1232 27.4329 17.7707 27.4329C15.1076 27.4329 14.8197 25.5489 14.8197 24.492V16.4965H13.4673V16.06L14.778 16.0408H14.8197V13.0693H14.8273C14.9068 13.0693 14.9788 13.0693 15.0584 13.0808C15.7971 13.1383 16.4562 13.4637 16.9487 13.9616C17.4563 14.4747 17.7821 15.1678 17.8238 15.9413C17.8238 15.9719 17.8276 16.0025 17.8276 16.0332V16.0408H17.8351V16.0906H20.7673L20.7862 18.078H20.7559C19.5058 17.0211 18.9906 16.4774 18.0549 16.4774H17.8351V24.5954C17.8351 25.1123 17.8351 26.4985 19.2709 26.4985C19.7217 26.4985 20.2748 26.353 20.9302 25.9816L21.0931 26.2305H21.0893Z" fill="#142541"/>
<path d="M33.1851 19.7477V27.1841H30.1545V19.4605C30.1545 18.6908 30.1355 16.7455 28.249 16.7455C27.4648 16.7455 26.7337 17.0672 25.9116 17.8905C25.9003 17.902 25.8851 17.9173 25.8738 17.9288V27.1879H22.8394V11.2773H23.1917C24.5251 11.4267 25.601 12.4223 25.8586 13.7051C25.8662 13.7702 25.8737 13.8697 25.8775 13.9348V17.5114C26.8398 16.5004 27.9232 15.792 29.5635 15.792C31.8592 15.792 33.1889 17.0365 33.1889 19.7477H33.1851Z" fill="#142541"/>
<path d="M38.8485 23.1364C38.7841 23.3317 38.7689 23.5959 38.8485 23.9406C38.8674 24.0325 38.8939 24.132 38.9318 24.2393C38.9432 24.2775 38.9546 24.3158 38.9697 24.3541C38.9697 24.3541 38.9697 24.358 38.9697 24.3618C39.5493 25.6063 40.5191 26.2075 41.7238 26.2075C42.8299 26.2075 44.0195 25.6676 44.9817 24.3426L45.2279 24.4882C44.0611 26.2917 42.5231 27.429 40.3941 27.429C37.4393 27.429 35.1284 25.254 35.1284 21.7732C35.1284 18.6639 36.9998 16.5233 39.4925 15.9489C39.9395 15.8417 40.4093 15.7881 40.8866 15.7881C40.932 15.7881 40.9775 15.7881 41.0229 15.7919C41.6442 15.7689 42.3526 15.8608 43.1027 16.1672C43.2694 16.2361 43.4399 16.3127 43.6141 16.4046C45.5613 17.4423 46.2811 19.1463 45.4666 20.7125C44.3074 22.9526 41.0078 22.1025 39.538 22.5276C39.538 22.5276 39.538 22.5276 39.5304 22.5276C39.322 22.5888 39.1515 22.6769 39.0303 22.8033C39.0114 22.8186 39 22.8416 38.9849 22.8607C38.9394 22.922 38.8977 22.9947 38.8674 23.0828C38.8636 23.0981 38.8561 23.1135 38.8523 23.1288L38.8485 23.1364ZM39.6061 21.6966C39.6364 21.6813 39.6705 21.6698 39.7046 21.6545C39.7387 21.6392 39.7766 21.6239 39.8145 21.6124C40.8828 21.2065 42.2428 20.9269 42.9133 19.6403C43.0648 19.3455 43.1595 19.0506 43.1898 18.7634C43.4512 16.5463 41.8791 16.1748 41.3487 16.1136C41.3184 16.1097 41.3033 16.1097 41.3033 16.1097C41.273 16.1059 41.2427 16.1021 41.2162 16.1021C41.1821 16.1021 41.1593 16.1021 41.1555 16.1021C40.8525 16.1021 40.5646 16.1595 40.307 16.2706C39.0909 16.7914 38.3674 18.4915 38.3674 21.0303C38.3674 21.6086 38.4053 22.137 38.4772 22.6195C38.4886 22.7114 38.5038 22.8033 38.5227 22.8952C38.5341 22.9794 38.553 23.0637 38.5719 23.1441C38.5719 23.0407 38.5833 22.1753 39.6099 21.7005L39.6061 21.6966Z" fill="#142541"/>
<path d="M80.5574 27.3333C80.5574 33.3605 75.3106 37.0252 66.0559 37.0252H52.3159V1.92236H66.1961C74.1628 1.92236 78.6936 4.71772 78.6936 9.87956C78.6936 14.7006 74.2575 17.5955 69.0108 18.3652V18.4609C75.6895 18.8477 80.5536 21.643 80.5574 27.3333ZM59.9 18.5566H64.6694C68.6282 18.5566 70.7761 15.0835 70.7761 10.6492C70.7761 6.21496 68.7721 2.69204 64.0482 2.69204H59.8962V18.5566H59.9ZM72.3028 28.057C72.3028 22.8492 69.7268 19.3302 65.3362 19.3302H59.8962V35.9185C60.6122 36.1597 62.6616 36.2555 63.6655 36.2555C69.723 36.2555 72.299 33.2189 72.299 28.057H72.3028Z" fill="#142541"/>
<path d="M101.518 37.0558C94.0967 39.4031 87.1225 36.2555 84.6715 28.3404C82.2357 20.4713 86.3156 13.4714 93.8732 11.0781C101.294 8.7308 108.269 11.8785 110.72 19.7935C113.155 27.6626 109.03 34.6778 101.518 37.0558ZM103.715 22.363C101.408 14.9074 97.669 10.5842 93.7974 11.8095C89.7894 13.077 89.422 18.4992 91.7025 25.8629C93.9982 33.2725 97.7221 37.5498 101.548 36.3397C105.556 35.0723 105.969 29.6347 103.719 22.363H103.715Z" fill="#142541"/>
<path d="M141.158 37.0442H134.052L134.143 33.5175C131.9 36.0295 129.278 37.6186 125.895 37.6186C119.74 37.6186 114.921 32.2691 114.921 24.5991C114.921 16.3088 120.645 10.519 127.706 10.519C130.286 10.519 132.381 11.2848 134.052 12.6404V0C136.181 0.015317 138.086 0.949656 139.389 2.42009C140.522 3.69906 141.071 5.39925 141.071 7.11859V25.9202L141.067 28.9645C141.067 31.2774 141.162 34.9113 141.162 37.0442H141.158ZM134.052 16.2552C134.033 16.2016 134.018 16.1441 133.999 16.0944C133.112 13.2875 131.184 11.2886 128.612 11.2886C124.554 11.2886 122.357 16.0637 122.357 24.0707C122.357 32.5525 124.698 35.501 128.369 35.501C130.328 35.501 132.139 34.628 134.048 32.3649V16.2514L134.052 16.2552Z" fill="#142541"/>
<path d="M92.3196 69.0377C89.2171 74.1957 84.1143 77.4276 77.625 77.4276C67.8437 77.4276 60.9756 70.1941 60.9756 59.6828C60.9756 48.2525 68.5142 41.1646 78.8183 41.1646C84.4476 41.1646 89.1716 44.0097 91.8423 46.805L85.9023 52.1698C83.993 48.0687 83.1596 41.9342 78.6743 41.9342C72.2835 41.9342 69.2302 49.1677 69.2302 57.9444C69.2302 69.0339 74.0943 74.5327 80.917 74.5327C84.3529 74.5327 88.7397 73.2307 91.7476 68.6969L92.3196 69.0339V69.0377Z" fill="#142541"/>
<path d="M112.564 76.88C105.143 79.2274 98.1689 76.0797 95.7179 68.1646C93.282 60.2955 97.362 53.2956 104.92 50.9024C112.341 48.555 119.315 51.7027 121.766 59.6177C124.202 67.4869 120.076 74.5021 112.564 76.88ZM114.761 62.1872C112.454 54.7316 108.715 50.4084 104.844 51.6337C100.836 52.9012 100.468 58.3235 102.749 65.6871C105.045 73.0967 108.768 77.374 112.591 76.164C116.599 74.8965 117.012 69.4589 114.761 62.1872Z" fill="#142541"/>
<path d="M151 59.4797V76.788H143.991V58.7981C143.991 57.0137 143.938 52.4837 139.502 52.4837C137.646 52.4837 135.926 53.2572 133.972 55.2331V76.788H126.959V53.8201H128.301C131.206 57.3124 133.975 54.3179 133.975 54.3179C136.256 52.0088 138.695 50.2627 142.609 50.2627C147.95 50.2627 151 53.1576 151 59.4797Z" fill="#142541"/>
<path d="M0.07176 43.4044C0.0528187 43.0789 -0.0418877 42.7381 0.0263009 42.4279C0.628634 39.6402 2.53034 38.0549 5.01923 37.067C7.30733 36.1594 9.63711 36.2437 11.929 37.0172C14.8876 38.0128 17.8008 39.1501 20.767 40.1074C22.1422 40.5516 23.5968 40.835 25.0364 40.9881C27.4912 41.2523 29.7452 40.4635 31.8704 39.2726C33.0031 38.637 34.1964 38.1736 35.4882 37.9898C38.0869 37.6222 40.4811 38.2349 42.6669 39.6211C46.3908 41.9837 48.6221 45.4301 49.6525 49.715C50.145 51.756 50.2472 53.8391 50.2397 55.9184C50.2207 59.8434 50.1185 63.7684 50.0578 67.6934C50.0162 70.4925 50.0881 73.2764 50.645 76.0373C51.8951 82.2254 55.4978 86.4682 61.1158 89.0644C64.8699 90.7991 68.8287 91.4539 72.9351 91.3926C77.5682 91.3199 82.0535 90.3396 86.5274 89.2367C89.2891 88.5551 92.0431 87.8123 94.8313 87.2608C98.8999 86.4567 102.961 86.4873 106.897 88.0267C109.958 89.2253 112.227 91.3237 113.708 94.2837C113.807 94.479 113.814 94.7164 113.879 94.9959C113.231 94.9002 112.935 94.6092 112.697 94.1573C111.072 91.0403 108.393 89.3133 105.143 88.3292C102.01 87.3796 98.8317 87.3183 95.6685 87.9884C91.6453 88.8423 87.6525 89.8456 83.6483 90.7799C79.9965 91.63 76.3105 92.2772 72.5487 92.2657C68.4423 92.2542 64.4343 91.5879 60.6839 89.8456C54.9864 87.1996 51.3913 82.7959 49.9707 76.5734C49.1714 73.0658 49.0653 69.5352 49.2131 65.9664C49.3494 62.7038 49.5426 59.4413 49.5388 56.1826C49.5388 52.8014 49.0615 49.4661 47.603 46.3644C45.762 42.4509 42.7503 39.9083 38.6135 38.7978C36.5944 38.254 34.6624 38.7212 32.8554 39.713C31.3741 40.5286 29.8551 41.2409 28.2034 41.6314C26.0516 42.1446 23.9302 41.9608 21.8618 41.26C19.2328 40.3678 16.6265 39.399 14.0088 38.4646C11.9063 37.7141 9.75834 37.1704 7.50811 37.3695C5.01923 37.5916 2.96599 38.6867 1.54539 40.8005C1.18172 41.3442 1.03398 42.0335 0.776376 42.6539C0.65894 42.9296 0.518775 43.1976 0.386186 43.4657C0.283903 43.4465 0.18162 43.4235 0.0755483 43.4044H0.07176Z" fill="#142541"/>
</g>
<defs>
<clipPath id="clip0_1179_2563">
<rect width="151" height="95" fill="white"/>
</clipPath>
</defs>
</svg>
