<svg xmlns="http://www.w3.org/2000/svg" width="100%" height="100%" viewBox="0 0 197 173" fill="none" id="30daysnewicon">
    <title>30DaysNewIcon</title>
    <path
        d="M98.8977 0.462215C99.0264 0.35998 99.2085 0.35998 99.3372 0.462215L109.61 8.62632C109.711 8.7066 109.848 8.7254 109.967 8.67535L122.061 3.58557C122.213 3.52183 122.388 3.57098 122.484 3.70413L130.174 14.3371C130.249 14.4416 130.376 14.4966 130.504 14.4805L143.523 12.8426C143.686 12.822 143.842 12.9167 143.899 13.0709L148.434 25.3841C148.479 25.5051 148.586 25.5923 148.713 25.6113L161.692 27.5466C161.854 27.5709 161.979 27.704 161.992 27.8678L163.037 40.948C163.047 41.0766 163.127 41.1894 163.244 41.2422L175.219 46.6073C175.369 46.6744 175.453 46.8362 175.422 46.9974L172.899 59.8746C172.874 60.0012 172.92 60.1313 173.02 60.2138L183.103 68.6108C183.229 68.7159 183.266 68.8943 183.192 69.041L177.289 80.7601C177.231 80.8753 177.24 81.013 177.314 81.1193L184.758 91.9253C184.851 92.0606 184.839 92.2424 184.728 92.3637L175.882 102.056C175.795 102.151 175.767 102.286 175.808 102.408L180.061 114.822C180.114 114.977 180.053 115.149 179.914 115.236L168.781 122.182C168.671 122.25 168.608 122.372 168.615 122.501L169.361 135.602C169.37 135.766 169.265 135.915 169.107 135.961L156.513 139.645C156.39 139.682 156.295 139.783 156.268 139.909L153.451 152.725C153.416 152.885 153.275 153 153.11 153.002L139.989 153.152C139.86 153.154 139.742 153.225 139.682 153.339L133.512 164.92C133.435 165.065 133.268 165.138 133.109 165.095L120.434 161.7C120.309 161.666 120.176 161.704 120.087 161.797L111.022 171.284C110.908 171.402 110.728 171.427 110.586 171.344L99.2975 164.654C99.1865 164.588 99.0484 164.588 98.9374 164.654L87.6485 171.344C87.5072 171.427 87.3267 171.402 87.2132 171.284L78.1477 161.797C78.0586 161.704 77.9256 161.666 77.801 161.7L65.126 165.095C64.9673 165.138 64.8002 165.065 64.723 164.92L58.5532 153.339C58.4925 153.225 58.3746 153.154 58.2455 153.152L45.1245 153.002C44.9602 153 44.8189 152.885 44.7836 152.725L41.9671 139.909C41.9394 139.783 41.8452 139.682 41.7214 139.645L29.1274 135.961C28.9697 135.915 28.8646 135.766 28.874 135.602L29.6196 122.501C29.627 122.372 29.5635 122.25 29.454 122.182L18.3211 115.236C18.1817 115.149 18.1207 114.977 18.1739 114.822L22.4265 102.408C22.4683 102.286 22.4402 102.151 22.3532 102.056L13.5071 92.3637C13.3963 92.2424 13.3839 92.0606 13.4771 91.9253L20.9212 81.1193C20.9944 81.013 21.0038 80.8753 20.9457 80.7601L15.0425 69.041C14.9685 68.8943 15.0056 68.7159 15.1319 68.6108L25.2153 60.2138C25.3144 60.1313 25.3607 60.0012 25.3359 59.8746L22.8133 46.9974C22.7817 46.8362 22.8655 46.6744 23.0154 46.6073L34.9904 41.2422C35.1082 41.1894 35.1878 41.0766 35.198 40.948L36.2432 27.8678C36.2563 27.704 36.3806 27.5709 36.5431 27.5466L49.5215 25.6113C49.6491 25.5923 49.7562 25.5051 49.8008 25.3841L54.3362 13.0709C54.393 12.9167 54.5486 12.822 54.7117 12.8426L67.7309 14.4805C67.859 14.4966 67.9856 14.4416 68.0612 14.3371L75.7504 3.70413C75.8467 3.57098 76.0221 3.52183 76.1736 3.58557L88.2682 8.67535C88.3871 8.7254 88.5238 8.7066 88.6249 8.62632L98.8977 0.462215Z"
        fill="#EFD6D2" />
    <path
        d="M98.5632 18.4692C61.1366 18.4692 30.7951 48.8106 30.7951 86.2373C30.7951 123.664 61.1366 154.005 98.5632 154.005C135.99 154.005 166.331 123.664 166.331 86.2373C166.331 48.8106 135.99 18.4692 98.5632 18.4692ZM98.5632 139.17C69.3289 139.17 45.6302 115.472 45.6302 86.2373C45.6302 57.0029 69.3289 33.3043 98.5632 33.3043C127.798 33.3043 151.496 57.0029 151.496 86.2373C151.496 115.472 127.798 139.17 98.5632 139.17Z"
        fill="white" />
    <path
        d="M66.5697 29.6317L71.6825 37.3184L70.1395 38.3449L66.8137 33.3454L68.08 39.7157L66.9118 40.4916L61.5157 36.8695L64.8414 41.869L63.3006 42.8955L58.1855 35.2088L59.9378 34.0428L66.1839 38.1313L64.8261 30.789L66.5653 29.6317H66.5697Z"
        fill="#C57169" />
    <path
        d="M74.0191 35.7403C73.1952 35.6553 72.4455 35.3655 71.7721 34.8729C71.0987 34.3804 70.5822 33.7179 70.2226 32.8832C69.8673 32.0572 69.7409 31.2312 69.8433 30.403C69.948 29.5748 70.2509 28.8317 70.7543 28.1735C71.2578 27.5153 71.9072 27.0141 72.7005 26.6719C73.5025 26.3254 74.3133 26.1968 75.1349 26.2861C75.9544 26.3733 76.6997 26.6654 77.3688 27.1601C78.0378 27.6548 78.55 28.3152 78.9074 29.1411C79.267 29.9758 79.3956 30.804 79.2975 31.63C79.1973 32.456 78.8965 33.1992 78.3931 33.8573C77.8897 34.5155 77.2402 35.0168 76.4469 35.3589C75.6536 35.7011 74.845 35.8297 74.0191 35.7425V35.7403ZM76.9917 32.9115C77.2816 32.5127 77.4429 32.0528 77.4756 31.5298C77.5104 31.0067 77.4036 30.4619 77.1596 29.893C76.9155 29.3264 76.5907 28.8774 76.1897 28.5462C75.7887 28.2149 75.3441 28.0209 74.8581 27.9621C74.3721 27.9032 73.873 27.9839 73.3631 28.204C72.8531 28.4241 72.4499 28.7314 72.1557 29.1281C71.8615 29.5247 71.6958 29.9824 71.661 30.5011C71.6261 31.0198 71.7307 31.5646 71.9748 32.1313C72.2189 32.6979 72.5436 33.149 72.9468 33.4847C73.35 33.8203 73.7989 34.0186 74.2915 34.0796C74.784 34.1407 75.2853 34.0622 75.7953 33.8421C76.3052 33.622 76.7062 33.3125 76.9939 32.9137L76.9917 32.9115Z"
        fill="#C57169" />
    <path
        d="M88.8486 31.4024L87.0528 31.8514L81.4474 26.7211L82.9838 32.8692L81.188 33.3181L78.9454 24.3478L80.7434 23.8988L86.351 29.0422L84.8102 22.8832L86.606 22.4343L88.8486 31.4046V31.4024Z"
        fill="#C57169" />
    <path
        d="M90.7841 23.4293L91.0391 25.7307L94.1294 25.3864L94.2907 26.8466L91.2003 27.1909L91.4706 29.6231L94.9554 29.2352L95.1211 30.7346L89.7968 31.3252L88.7769 22.1347L94.1011 21.5419L94.2667 23.0414L90.7841 23.4293Z"
        fill="#C57169" />
    <path
        d="M103.412 21.5195L100.213 27.4976L100.171 30.7122L98.3187 30.6882L98.3601 27.4736L95.3024 21.4149L97.3925 21.4411L99.3234 25.6865L101.348 21.4912L103.412 21.5173V21.5195Z"
        fill="#C57169" />
    <path
        d="M113.087 28.4488C113.335 28.9283 113.407 29.4361 113.303 29.9722C113.209 30.456 113.006 30.8592 112.697 31.1817C112.387 31.5043 111.988 31.7244 111.498 31.8443C111.008 31.9641 110.454 31.9641 109.839 31.8443L105.93 31.0837L107.691 22.0196L111.43 22.7453C112.045 22.8652 112.555 23.0679 112.963 23.3534C113.37 23.6389 113.653 23.981 113.812 24.3799C113.974 24.7787 114.009 25.2037 113.921 25.6548C113.819 26.1822 113.592 26.5963 113.241 26.8971C112.891 27.1978 112.468 27.3765 111.971 27.431C112.463 27.625 112.834 27.9628 113.082 28.4423L113.087 28.4488ZM110.96 30.2054C111.247 30.0463 111.426 29.776 111.5 29.3946C111.576 29.0045 111.504 28.6754 111.289 28.403C111.073 28.1306 110.744 27.9541 110.301 27.8669L108.51 27.5182L108.035 29.9591L109.866 30.3143C110.306 30.3993 110.672 30.3623 110.957 30.2032L110.96 30.2054ZM108.782 26.1168L110.445 26.4394C110.879 26.5244 111.23 26.4917 111.502 26.3413C111.775 26.1909 111.945 25.936 112.014 25.572C112.084 25.208 112.023 24.9051 111.827 24.6588C111.631 24.4147 111.317 24.2491 110.886 24.1663L109.223 23.8437L108.78 26.1168H108.782Z"
        fill="#C57169" />
    <path
        d="M119.333 32.7674L115.859 31.5622L114.706 33.0246L112.869 32.3882L119.037 24.7407L121.074 25.4468L121.179 35.2715L119.329 34.6286V32.7674H119.333ZM119.344 31.2026L119.348 27.1163L116.82 30.3265L119.344 31.2026Z"
        fill="#C57169" />
    <path
        d="M124.952 29.2621C125.654 28.8219 126.412 28.5931 127.228 28.5756C128.043 28.5582 128.84 28.7565 129.616 29.175C130.525 29.6632 131.196 30.3235 131.63 31.156C132.064 31.9886 132.194 32.8908 132.027 33.8607L130.15 32.8538C130.172 32.3656 130.067 31.9319 129.832 31.557C129.597 31.1822 129.259 30.8749 128.816 30.6373C128.341 30.3824 127.862 30.2668 127.374 30.2908C126.885 30.3148 126.43 30.4739 126.007 30.7659C125.584 31.0601 125.227 31.4786 124.935 32.0234C124.647 32.5596 124.497 33.087 124.484 33.6057C124.471 34.1244 124.588 34.5929 124.839 35.0136C125.09 35.4342 125.451 35.7698 125.924 36.0248C126.367 36.2623 126.811 36.3735 127.256 36.3561C127.7 36.3386 128.119 36.1861 128.516 35.8984L130.392 36.9053C129.673 37.5918 128.851 37.9819 127.923 38.08C126.994 38.178 126.072 37.9797 125.155 37.4872C124.377 37.0709 123.771 36.5173 123.335 35.8286C122.899 35.14 122.67 34.3837 122.646 33.5599C122.623 32.7361 122.825 31.9254 123.255 31.1233C123.684 30.3235 124.248 29.7024 124.95 29.2643L124.952 29.2621Z"
        fill="#C57169" />
    <path
        d="M133.712 43.0288L133.505 37.722L131.029 41.0063L129.551 39.8926L135.109 32.5198L136.586 33.6334L134.093 36.9396L139.269 35.6559L141.054 37.0028L135.257 38.3649L135.582 44.441L133.712 43.031V43.0288Z"
        fill="#C57169" />
    <path
        d="M67.8012 136.233C67.8383 135.792 67.7576 135.385 67.5593 135.012C67.361 134.64 67.0559 134.317 66.644 134.045C66.1863 133.744 65.7134 133.58 65.2252 133.554C64.7348 133.528 64.2662 133.641 63.8151 133.892C63.364 134.145 62.9739 134.52 62.6448 135.021C62.3048 135.535 62.1108 136.052 62.0607 136.568C62.0106 137.085 62.0978 137.564 62.3244 138.009C62.5489 138.454 62.9019 138.833 63.3792 139.147C63.9677 139.534 64.5539 139.696 65.1358 139.63C65.7177 139.565 66.2517 139.29 66.7377 138.809L64.0854 137.063L64.8634 135.882L69.0391 138.632L68.1521 139.979C67.6944 140.45 67.1474 140.801 66.5067 141.034C65.8659 141.267 65.1903 141.348 64.4733 141.271C63.7563 141.195 63.0676 140.94 62.405 140.504C61.6619 140.014 61.0996 139.404 60.7204 138.674C60.3412 137.944 60.1755 137.168 60.2257 136.346C60.2758 135.524 60.5504 134.733 61.0495 133.975C61.5485 133.216 62.1675 132.65 62.9041 132.275C63.6429 131.9 64.421 131.743 65.2426 131.804C66.0642 131.863 66.8423 132.138 67.5789 132.621C68.4485 133.195 69.0631 133.903 69.4249 134.749C69.7866 135.594 69.8368 136.479 69.5752 137.405L67.7969 136.235L67.8012 136.233Z"
        fill="#C57169" />
    <path
        d="M73.7864 136.315L71.4588 141.535C71.2038 142.106 71.158 142.609 71.3215 143.045C71.4849 143.479 71.8358 143.819 72.3763 144.059C72.9233 144.303 73.4137 144.34 73.8474 144.172C74.2811 144.002 74.6233 143.632 74.8783 143.061L77.2058 137.841L78.9101 138.602L76.5891 143.808C76.2687 144.525 75.8437 145.061 75.3141 145.419C74.7824 145.776 74.2026 145.964 73.5706 145.981C72.9408 145.998 72.3066 145.865 71.6702 145.582C71.0425 145.301 70.5282 144.924 70.1272 144.444C69.7262 143.967 69.4886 143.414 69.4124 142.786C69.3361 142.158 69.4559 141.485 69.7763 140.768L72.0974 135.561L73.7886 136.315H73.7864Z"
        fill="#C57169" />
    <path
        d="M83.6819 147.739L80.1317 146.783L79.0856 148.324L77.207 147.818L82.8189 139.754L84.9002 140.314L85.7001 150.106L83.8105 149.596L83.6798 147.739H83.6819ZM83.5817 146.177L83.2962 142.099L81.0013 145.482L83.5817 146.177Z"
        fill="#C57169" />
    <path
        d="M92.6107 150.977L90.9936 147.172L90.1262 147.074L89.7187 150.648L87.8793 150.439L88.9232 141.266L92.3666 141.658C93.0771 141.739 93.6677 141.933 94.1385 142.24C94.6092 142.547 94.9449 142.927 95.1475 143.38C95.348 143.833 95.42 144.324 95.3589 144.849C95.2892 145.452 95.0516 145.978 94.6463 146.424C94.2409 146.871 93.6808 147.146 92.9681 147.253L94.74 151.221L92.6107 150.979V150.977ZM90.2831 145.692L91.8218 145.867C92.3209 145.923 92.7066 145.845 92.9812 145.633C93.2536 145.42 93.4149 145.099 93.4629 144.67C93.5108 144.249 93.4258 143.909 93.2057 143.648C92.9878 143.389 92.6282 143.229 92.1291 143.173L90.5904 142.998L90.2831 145.692Z"
        fill="#C57169" />
    <path
        d="M102.85 149.366L99.1759 149.503L98.6332 151.284L96.6892 151.356L99.6641 141.993L101.819 141.913L105.481 151.029L103.524 151.101L102.85 149.366ZM102.292 147.904L100.813 144.094L99.6205 148.004L102.29 147.904H102.292Z"
        fill="#C57169" />
    <path
        d="M115.472 149.165L113.657 149.531L108.291 144.15L109.546 150.361L107.731 150.727L105.9 141.663L107.716 141.297L113.083 146.691L111.826 140.467L113.641 140.101L115.472 149.162V149.165Z"
        fill="#C57169" />
    <path
        d="M120.882 137.528L121.39 138.933L119.075 139.768L121.702 147.047L119.96 147.675L117.334 140.396L115.02 141.23L114.512 139.825L120.882 137.525V137.528Z"
        fill="#C57169" />
    <path
        d="M124.112 137.58L125.16 139.644L127.932 138.236L128.597 139.546L125.825 140.954L126.932 143.135L130.057 141.549L130.739 142.894L125.962 145.319L121.775 137.075L126.553 134.649L127.235 135.994L124.11 137.58H124.112Z"
        fill="#C57169" />
    <path
        d="M130.093 134.192L131.374 136.121L133.963 134.401L134.776 135.624L132.187 137.343L133.541 139.381L136.461 137.441L137.296 138.697L132.832 141.661L127.717 133.959L132.181 130.995L133.015 132.25L130.095 134.19L130.093 134.192Z"
        fill="#C57169" />
    <path
        d="M194.533 116.72C195.555 116.72 196.208 115.631 195.727 114.73L181.547 88.1837L195.727 61.64C196.208 60.7386 195.555 59.6493 194.533 59.6493H2.60339C1.56885 59.6493 0.91697 60.7631 1.42359 61.6651L16.318 88.1837L1.42355 114.705C0.916983 115.607 1.56881 116.72 2.60336 116.72H194.533ZM181.384 88.4885L181.385 88.4875L181.384 88.4885Z"
        fill="#EFD6D2" stroke="white" stroke-width="2" />
    <path
        d="M31.6544 72.4962C33.6441 70.8399 36.2638 70.0139 39.5154 70.0139C41.7319 70.0139 43.6323 70.4018 45.2123 71.1755C46.7924 71.9492 47.9845 72.9975 48.7887 74.3204C49.5929 75.6411 49.9961 77.1383 49.9961 78.8099C49.9961 80.7234 49.5014 82.3405 48.5141 83.6634C47.5269 84.9841 46.35 85.8733 44.9835 86.3288V86.5119C46.7445 87.0589 48.1196 88.0309 49.1069 89.4279C50.0942 90.8249 50.5889 92.6185 50.5889 94.8045C50.5889 96.6264 50.1705 98.2523 49.3357 99.6798C48.4989 101.107 47.2697 102.225 45.6439 103.029C44.018 103.836 42.0675 104.237 39.7878 104.237C36.3553 104.237 33.5592 103.372 31.4037 101.639C29.2461 99.9086 28.1063 97.3565 27.9865 93.9828H34.1846C34.2457 95.4714 34.7535 96.6635 35.7102 97.5614C36.667 98.4571 37.9811 98.9061 39.6527 98.9061C41.2023 98.9061 42.3944 98.4724 43.2291 97.6072C44.0638 96.7419 44.4822 95.6239 44.4822 94.2574C44.4822 92.4355 43.9047 91.13 42.7496 90.3389C41.5946 89.55 39.8031 89.1533 37.3731 89.1533H36.0524V83.9119H37.3731C41.6861 83.9119 43.8437 82.4691 43.8437 79.5836C43.8437 78.2782 43.4558 77.2604 42.6821 76.5303C41.9062 75.8002 40.7904 75.4362 39.3323 75.4362C37.8743 75.4362 36.8043 75.8242 36.0284 76.5978C35.2525 77.3715 34.8058 78.3523 34.6837 79.5378H28.4398C28.5923 76.4998 29.6624 74.1526 31.6522 72.4962H31.6544Z"
        fill="#C57169" />
    <path
        d="M55.4896 74.6139C57.3878 71.6368 60.5392 70.1483 64.9459 70.1483C69.3527 70.1483 72.5019 71.6368 74.4023 74.6139C76.3006 77.5909 77.2508 81.7078 77.2508 86.9623C77.2508 92.2168 76.3006 96.3947 74.4023 99.4022C72.5041 102.41 69.3505 103.914 64.9459 103.914C60.5414 103.914 57.3878 102.41 55.4896 99.4022C53.5913 96.3947 52.6411 92.2473 52.6411 86.9623C52.6411 81.6773 53.5913 77.5909 55.4896 74.6139ZM70.5274 81.2894C70.2375 79.7551 69.6621 78.5019 68.7947 77.5299C67.9295 76.5579 66.6459 76.0719 64.9438 76.0719C63.2417 76.0719 61.958 76.5579 61.0928 77.5299C60.2276 78.5019 59.65 79.7551 59.3602 81.2894C59.0703 82.8236 58.9265 84.7153 58.9265 86.9623C58.9265 89.2092 59.0638 91.2078 59.3362 92.7726C59.6086 94.3374 60.1862 95.597 61.0666 96.5538C61.9471 97.5105 63.2395 97.99 64.9394 97.99C66.6393 97.99 67.9317 97.5105 68.8122 96.5538C69.6926 95.597 70.2702 94.3374 70.5426 92.7726C70.815 91.2078 70.9523 89.2725 70.9523 86.9623C70.9523 84.6521 70.8085 82.8236 70.5186 81.2894H70.5274Z"
        fill="#C57169" />
    <path
        d="M107.573 74.1589C110.11 75.4665 112.069 77.3255 113.451 79.7403C114.833 82.155 115.524 84.9577 115.524 88.1484C115.524 91.339 114.833 94.1264 113.451 96.5107C112.069 98.8949 110.108 100.741 107.573 102.048C105.037 103.356 102.097 104.008 98.7556 104.008H87.6364V72.1996H98.7556C102.097 72.1996 105.037 72.8534 107.573 74.1589ZM106.274 95.8503C108.096 94.0283 109.01 91.461 109.01 88.1484C109.01 84.8357 108.099 82.2466 106.274 80.3788C104.453 78.5111 101.87 77.5761 98.5268 77.5761H94.0154V98.5833H98.5268C101.868 98.5833 104.45 97.6723 106.274 95.8503Z"
        fill="#C57169" />
    <path
        d="M136.807 97.9475H124.138L122.041 104.008H115.342L126.779 72.1544H134.207L145.644 104.008H138.899L136.802 97.9475H136.807ZM135.076 92.8434L130.473 79.536L125.87 92.8434H135.076Z"
        fill="#C57169" />
    <path
        d="M172.217 72.1996L161.462 92.9343V104.008H155.083V92.9343L144.282 72.1996H151.482L158.317 86.7361L165.106 72.1996H172.215H172.217Z"
        fill="#C57169" />
</svg>