<svg xmlns="http://www.w3.org/2000/svg" fill="none" viewBox="0 0 40 41" height="100%" width="100%">
    <path fill="#457A41"
        d="M20.1151 31.3221C20.0352 31.3219 19.9562 31.3039 19.8837 31.2694L10.0823 26.4342C9.99277 26.3887 9.91732 26.3185 9.86436 26.2316C9.81139 26.1447 9.78298 26.0444 9.78229 25.9419V15.1199C9.78202 15.0275 9.80467 14.9365 9.84813 14.8555C9.89158 14.7745 9.95441 14.7062 10.0307 14.657C10.107 14.6077 10.1942 14.5792 10.2842 14.5741C10.3742 14.569 10.464 14.5874 10.5451 14.6276L20.3466 19.4628C20.4361 19.5084 20.5115 19.5785 20.5645 19.6654C20.6175 19.7523 20.6459 19.8526 20.6466 19.9551V30.7771C20.6466 30.8693 20.6238 30.96 20.5803 31.0407C20.5369 31.1215 20.4741 31.1896 20.398 31.2386C20.3136 31.2939 20.2153 31.3229 20.1151 31.3221ZM10.8451 25.6079L19.5837 29.9243V20.3024L10.8451 15.9859V25.6079Z" />
    <path fill="#457A41"
        d="M20.1151 20.4954C20.041 20.5008 19.9665 20.4904 19.8965 20.4647L10.0951 15.6295C10.0041 15.586 9.92711 15.5168 9.87315 15.43C9.81919 15.3432 9.79053 15.2423 9.79053 15.1394C9.79053 15.0364 9.81919 14.9356 9.87315 14.8488C9.92711 14.762 10.0041 14.6927 10.0951 14.6493L19.8965 9.79213C19.9682 9.75731 20.0465 9.73926 20.1258 9.73926C20.2051 9.73926 20.2834 9.75731 20.3551 9.79213L30.1565 14.6273C30.2467 14.672 30.3227 14.742 30.3758 14.8291C30.4288 14.9162 30.4568 15.0169 30.4565 15.1196C30.4565 15.2217 30.4284 15.3217 30.3753 15.408C30.3222 15.4944 30.2464 15.5635 30.1565 15.6075L20.3251 20.4647C20.2578 20.4893 20.1864 20.4997 20.1151 20.4954ZM11.5437 15.1152L20.1151 19.3482L28.6865 15.124L20.1151 10.8866L11.5437 15.1152Z" />
    <path fill="#457A41"
        d="M20.1151 31.3217C20.0149 31.3224 19.9167 31.2934 19.8323 31.2381C19.7561 31.1891 19.6934 31.121 19.6499 31.0403C19.6065 30.9595 19.5837 30.8688 19.5837 30.7766V19.959C19.5834 19.8563 19.6114 19.7556 19.6645 19.6685C19.7175 19.5814 19.7935 19.5114 19.8837 19.4667L29.6851 14.6315C29.7662 14.5913 29.856 14.5729 29.946 14.578C30.036 14.5831 30.1233 14.6116 30.1996 14.6609C30.2758 14.7101 30.3387 14.7784 30.3821 14.8594C30.4256 14.9404 30.4482 15.0314 30.448 15.1239V25.937C30.4483 26.0398 30.4203 26.1405 30.3672 26.2276C30.3141 26.3147 30.2381 26.3846 30.148 26.4293L20.3251 31.2689C20.2594 31.3011 20.1879 31.319 20.1151 31.3217ZM20.6465 20.3019V29.9107L29.3851 25.5942V15.9854L20.6465 20.3019Z" />
    <path fill="#457A41"
        d="M15.2123 18.0784C15.0929 18.0771 14.9775 18.0347 14.8845 17.958C14.7915 17.8813 14.7264 17.7747 14.6997 17.6554C14.673 17.5361 14.6862 17.4111 14.7372 17.3004C14.7882 17.1898 14.874 17.1 14.9808 17.0454L24.7865 12.2102C24.9133 12.1483 25.0589 12.1403 25.1914 12.1881C25.3239 12.2358 25.4326 12.3355 25.4937 12.4652C25.5242 12.5295 25.5419 12.5993 25.5459 12.6707C25.5499 12.7421 25.5401 12.8136 25.517 12.881C25.4939 12.9485 25.4579 13.0106 25.4113 13.0637C25.3646 13.1168 25.3081 13.1599 25.2451 13.1905L15.4437 18.0256C15.371 18.0598 15.2922 18.0778 15.2123 18.0784Z" />
    <path fill="#457A41"
        d="M16.528 22.8251C16.448 22.8255 16.3689 22.8074 16.2966 22.7724L13.4037 21.3438C13.3407 21.3132 13.2842 21.2701 13.2375 21.217C13.1909 21.1639 13.1549 21.1018 13.1318 21.0344C13.1087 20.9669 13.0989 20.8954 13.1029 20.824C13.1069 20.7527 13.1246 20.6828 13.1551 20.6185C13.2162 20.4888 13.3249 20.3892 13.4574 20.3414C13.5899 20.2936 13.7355 20.3016 13.8623 20.3636L16.7551 21.7833C16.8617 21.8377 16.9473 21.9272 16.9984 22.0374C17.0495 22.1476 17.063 22.2722 17.0368 22.3913C17.0106 22.5103 16.9463 22.6169 16.854 22.694C16.7618 22.771 16.6469 22.8141 16.528 22.8163V22.8251Z" />
    <path fill="#457A41"
        d="M4.01368 27.8184C3.90996 27.8201 3.80802 27.7906 3.72044 27.7336C3.63286 27.6765 3.56347 27.5945 3.52082 27.4975C1.91221 23.4174 1.78755 18.88 3.16958 14.7135C4.55161 10.5469 7.34819 7.02889 11.049 4.80135C14.7499 2.57381 19.1082 1.78526 23.3288 2.5796C27.5494 3.37393 31.3508 5.69819 34.0394 9.12826C34.0893 9.18286 34.1276 9.2474 34.1521 9.31786C34.1766 9.38833 34.1867 9.46321 34.1817 9.53784C34.1768 9.61248 34.1569 9.68527 34.1233 9.75168C34.0898 9.8181 34.0432 9.87671 33.9866 9.92388C33.93 9.97106 33.8646 10.0058 33.7943 10.0259C33.7241 10.046 33.6505 10.051 33.5783 10.0407C33.506 10.0304 33.4366 10.005 33.3744 9.96594C33.3122 9.92694 33.2584 9.87521 33.2165 9.81398C30.6874 6.59738 27.1166 4.41865 23.1536 3.67405C19.1906 2.92945 15.0987 3.66844 11.622 5.75661C8.14535 7.84478 5.51491 11.1434 4.20909 15.0526C2.90327 18.9618 3.00882 23.2218 4.50653 27.0579C4.53872 27.1406 4.55069 27.2301 4.54139 27.3185C4.5321 27.407 4.50182 27.4918 4.4532 27.5655C4.40458 27.6392 4.3391 27.6996 4.26249 27.7414C4.18587 27.7832 4.10045 27.8051 4.01368 27.8052V27.8184Z" />
    <path fill="#457A41"
        d="M20.1366 38.9663C17.4607 38.9728 14.8175 38.3628 12.4023 37.1813C9.98702 35.9997 7.86137 34.2769 6.18228 32.1399C6.09362 32.0233 6.05375 31.8754 6.07143 31.7287C6.08911 31.582 6.1629 31.4484 6.27656 31.3575C6.39023 31.2666 6.53446 31.2257 6.67752 31.2438C6.82058 31.2619 6.95076 31.3376 7.03942 31.4542C9.58404 34.667 13.1701 36.8344 17.1432 37.561C21.1163 38.2875 25.2117 37.5248 28.6821 35.412C32.1526 33.2992 34.7667 29.977 36.0476 26.0518C37.3284 22.1265 37.1907 17.8598 35.6594 14.03C35.6306 13.9636 35.6151 13.8919 35.6137 13.8192C35.6124 13.7465 35.6252 13.6742 35.6515 13.6067C35.6778 13.5392 35.717 13.4777 35.7668 13.4259C35.8166 13.3742 35.876 13.3331 35.9414 13.3053C36.0069 13.2774 36.0772 13.2633 36.1481 13.2637C36.219 13.2641 36.2891 13.2791 36.3543 13.3077C36.4194 13.3363 36.4784 13.378 36.5276 13.4304C36.5768 13.4827 36.6153 13.5446 36.6409 13.6124C38.101 17.2778 38.3735 21.3275 37.4181 25.1638C36.4628 29.0001 34.3302 32.4197 31.3351 34.9179C28.1643 37.5426 24.2112 38.9717 20.1366 38.9663Z" />
    <path fill="#457A41"
        d="M33.6709 10.0564H33.6109L28.6608 9.50699C28.5279 9.48299 28.4089 9.40801 28.3279 9.29727C28.2469 9.18653 28.21 9.04833 28.2247 8.91072C28.2395 8.77311 28.3047 8.64641 28.4072 8.55632C28.5097 8.46624 28.6417 8.41953 28.7766 8.42567L33.1823 8.91358L33.6751 4.37732C33.6784 4.30283 33.6965 4.22982 33.7283 4.1628C33.7601 4.09577 33.805 4.03615 33.8602 3.98764C33.9154 3.93912 33.9797 3.90273 34.0492 3.88073C34.1186 3.85872 34.1918 3.85156 34.264 3.8597C34.3363 3.86783 34.4061 3.89109 34.4693 3.92802C34.5324 3.96495 34.5875 4.01478 34.6312 4.07442C34.6748 4.13406 34.706 4.20225 34.7229 4.27476C34.7398 4.34727 34.742 4.42257 34.7294 4.496L34.198 9.57292C34.182 9.71653 34.1111 9.84777 34.0009 9.93776C33.9076 10.0153 33.7909 10.0573 33.6709 10.0564Z" />
    <path fill="#457A41"
        d="M6.03228 37.3749H5.97228C5.83262 37.3594 5.70463 37.2878 5.61629 37.1758C5.52794 37.0638 5.48644 36.9204 5.50085 36.7771L6.03657 31.7002C6.04323 31.6292 6.06374 31.5604 6.09687 31.4977C6.13 31.435 6.17508 31.3798 6.22942 31.3354C6.33915 31.2447 6.47927 31.2021 6.61942 31.2167L11.5694 31.7617C11.7017 31.7859 11.8202 31.8607 11.9009 31.9709C11.9816 32.081 12.0187 32.2185 12.0046 32.3556C11.9904 32.4927 11.9262 32.6192 11.8248 32.7096C11.7234 32.8001 11.5923 32.8477 11.458 32.843L7.03942 32.3551L6.55514 36.8914C6.54141 37.0239 6.48044 37.1466 6.38394 37.2358C6.28744 37.325 6.16221 37.3746 6.03228 37.3749Z" />
</svg>