<svg xmlns="http://www.w3.org/2000/svg" width="100%" height="100%" viewBox="0 0 133 148" fill="none" id="leaf">
  <path d="M65.7466 227C65.522 227 65.3052 226.971 65.0884 226.904C63.5475 226.456 62.5874 224.545 62.9436 222.644C63.4469 220.007 63.7411 215.814 63.8573 209.824C63.8805 208.64 63.3152 207.56 62.4325 207.092C43.9962 197.367 29.5244 184.93 18.1808 169.082C6.12477 152.24 0.178091 133.22 0 110.943C0.247779 98.6394 2.40811 85.2942 6.24868 72.4457C20.1011 26.0383 43.9575 -9.88966 65.4678 -38.911C66.1724 -39.8567 66.5131 -39.9904 66.5441 -40C66.5286 -39.9904 66.9158 -39.8567 67.8062 -38.6531C79.599 -22.805 88.6971 -9.19231 96.4324 4.17202C109.929 27.4808 124.579 55.8812 130.881 89.8222C136.286 118.92 131.338 144.961 116.17 167.219C104.88 183.774 90.1141 196.746 71.0273 206.853C70.1833 207.302 69.6259 208.315 69.6104 209.452C69.4865 216.196 69.1303 221.182 68.5418 224.268C68.2321 225.873 67.0861 227 65.7543 227H65.7466ZM12.2186 128.778C11.0726 128.778 9.97312 129.466 9.2685 130.613C8.5484 131.797 8.32382 133.306 8.65677 134.778C11.3901 146.652 16.4231 157.809 23.6319 167.926C32.0719 179.781 42.8735 189.84 56.6485 198.695C57.9416 199.526 58.8707 199.88 59.7612 199.88C60.7058 199.88 61.5498 199.459 62.1847 198.657C63.3075 197.262 63.4314 195.142 63.4159 193.46L63.3307 185.302C63.2997 182.303 62.2312 179.551 60.4038 177.736C56.2148 173.571 48.6189 166.493 36.2144 156.367C28.9437 150.435 21.851 141.78 15.1377 130.641C14.4254 129.466 13.3646 128.788 12.2186 128.788V128.778ZM120.181 133.249C119.414 133.249 118.686 133.574 118.082 134.195C102.565 150.033 81.6122 160.627 73.3271 164.458L72.9631 164.62C72.1423 164.983 71.0119 165.48 70.284 166.837C69.6026 168.117 69.6491 169.559 69.6801 170.62V171.126C69.6801 171.126 69.6956 189.037 69.7033 193.412C69.711 197.692 70.9267 199.861 73.2961 199.861C74.0627 199.861 74.8757 199.574 75.7971 198.991C98.5463 184.538 112.507 168.145 121.055 145.84C121.899 143.633 122.682 141.321 123.363 138.962C123.742 137.634 123.587 136.172 122.937 135.035C122.294 133.918 121.265 133.249 120.181 133.249ZM14.2396 79.9924C11.9244 79.9924 9.94215 81.9029 9.31496 84.7401C8.19221 89.8317 7.3869 94.589 6.86812 99.289C6.51968 101.056 6.66681 102.384 6.88362 103.779C7.10042 105.154 7.54177 106.482 8.23091 107.858C13.2562 119.073 23.9107 139.84 38.158 151.466C44.4608 156.615 50.1288 161.458 54.9992 165.881C55.8974 166.693 56.9349 167.123 58.0112 167.123C60.8684 167.123 63.2223 164.133 63.2455 160.446C63.2688 157.886 63.2998 155.326 63.354 152.765C63.563 143.088 61.0001 134.749 55.2702 126.514C48.8821 117.325 41.5959 109.616 34.0696 101.868C27.4415 95.0475 22.5401 89.0293 18.1808 82.3519C17.1974 80.8521 15.7649 79.9924 14.2473 79.9924H14.2396ZM119.669 77.6329C117.881 77.6329 116.766 79.5434 116.402 80.1643C110.835 89.6789 103.572 97.216 96.5408 104.514C93.219 107.963 89.7811 111.526 86.5368 115.29C83.1685 119.178 80.2339 122.942 77.5625 126.791C71.6003 135.37 69.0064 144.521 69.6413 154.781C69.8581 158.335 71.9411 158.516 72.3592 158.516C72.6689 158.516 73.1412 158.392 73.4277 158.249C86.6839 151.992 110.966 138.656 124.029 119.894C126.05 116.99 127.095 113.15 126.971 109.09C126.785 103.101 126.096 96.7957 124.919 90.3476C124.416 87.5964 123.828 84.8834 123.239 82.1704C122.589 79.1517 121.388 77.6233 119.685 77.6233L119.669 77.6329ZM30.469 33.5659C28.6881 33.5659 27.0699 34.7313 26.1484 36.6801C24.6695 39.8134 23.2215 42.9658 21.8123 46.166C16.1056 59.11 15.13 68.4908 25.6838 83.8804C30.3916 90.7488 35.9047 96.4709 41.2397 102.002C43.3923 104.237 45.5371 106.463 47.6355 108.765C49.308 110.599 50.9573 112.491 52.5988 114.373C53.8532 115.806 55.1076 117.239 56.3697 118.662C56.4626 118.777 56.5478 118.929 56.6485 119.082C57.1595 119.913 58.1196 121.461 59.8231 121.461C60.3187 121.461 60.8065 121.327 61.2788 121.05C63.594 119.713 63.3694 116.637 63.292 115.481C63.2765 115.252 63.2456 115.032 63.261 114.831C63.3153 114.583 63.3153 114.497 63.3153 114.239L63.2766 105.078C63.2766 104.705 63.2146 104.333 63.0984 103.989C59.8696 94.3502 48.9596 62.2338 44.306 53.7031C43.1368 51.5538 41.9133 49.414 40.6899 47.2837L40.4034 46.7869C38.2896 43.0996 36.408 39.7848 34.7742 36.5559C33.8218 34.674 32.2112 33.5564 30.469 33.5564V33.5659ZM97.3074 22.9623C95.0619 22.9623 93.1029 24.7009 92.3054 27.3853C88.1938 41.3132 79.9164 66.0167 70.6015 75.0536C70.0362 75.6077 69.7033 76.4388 69.7033 77.3272V113.723C69.7033 114.029 69.6723 114.373 69.6413 114.726C69.5097 116.36 69.2542 119.398 71.4377 120.869C72.0107 121.26 72.6147 121.451 73.2341 121.451C75.1622 121.451 76.3159 119.598 77.005 118.5C77.1599 118.251 77.2993 118.012 77.4541 117.821C81.5657 112.72 86.0877 107.972 90.4625 103.387C96.1382 97.4262 102.007 91.2742 107.195 84.1478C110.269 79.9255 112.453 75.6745 113.885 71.137C116.046 64.2972 115.899 57.744 113.452 51.678C110.06 43.2811 106.15 34.6836 101.829 26.1339C100.831 24.1469 99.1348 22.9623 97.2997 22.9623H97.3074ZM60.1096 -19.8532C58.2435 -19.8532 57.1672 -18.0286 56.5943 -17.0447L56.3232 -16.5957L55.1618 -14.838C52.4052 -10.6634 49.5635 -6.34558 46.8612 -1.96086C43.5239 3.45556 40.2021 9.22544 36.9888 15.1673C34.5574 19.6571 34.3793 25.5989 36.5319 30.318C38.4289 34.4543 41.1003 39.1161 43.4465 43.2238C44.817 45.612 46.1411 47.9237 47.4109 50.245C49.1996 53.5312 51.9794 60.2277 55.6651 70.1721C56.331 71.9776 57.717 73.0953 59.2656 73.0953C60.2954 73.0953 61.302 72.589 62.0454 71.7006C62.8352 70.7453 63.2766 69.4461 63.2766 68.0228V50.4743C63.4159 43.3479 63.3617 35.6006 63.2998 27.4044C63.2068 14.9762 63.1139 2.11818 63.6637 -10.8927C63.7024 -11.762 63.7101 -12.6982 63.5243 -13.6726C63.5243 -13.7585 63.5553 -13.9591 63.5785 -14.1693C63.8263 -17.0638 63.021 -18.9075 61.1859 -19.6526C60.8375 -19.7959 60.4735 -19.8723 60.1096 -19.8723V-19.8532ZM72.6766 -20.3977C71.972 -20.3977 71.2752 -20.0538 70.8261 -19.3851C69.4633 -17.3313 69.5871 -15.115 69.6723 -13.6535C69.6878 -13.3669 69.711 -13.0803 69.7033 -12.7937C69.6956 5.90107 69.7033 24.5959 69.7033 43.2906V55.7475C69.7033 58.298 71.3526 60.371 73.3735 60.371C74.6279 60.371 75.7661 59.559 76.4321 58.2121C83.0756 44.6949 88.9216 25.2359 91.3297 15.8742C92.3596 11.8811 91.8021 7.5155 89.8431 4.19113C85.3908 -3.37467 80.5281 -11.0933 75.3945 -18.7642C74.8834 -19.538 74.2407 -19.8628 73.8613 -20.0538C73.4974 -20.2831 73.0948 -20.3977 72.6844 -20.3977H72.6766Z" fill="#58745D" fill-opacity="0.1"/>
</svg>