<svg width="100%" height="100%" viewBox="0 0 71 70" fill="none" xmlns="http://www.w3.org/2000/svg">
<path d="M30.0928 57.5972C17.554 54.3786 9.96558 41.5834 13.1766 29.0739C16.3877 16.5645 29.2021 9.00649 41.7395 12.2247C54.2769 15.443 61.8667 28.2385 58.6556 40.748C55.4446 53.2574 42.6316 60.8158 30.0928 57.5972ZM41.4049 13.5284C29.5871 10.4933 17.5102 17.6174 14.4834 29.4093C11.4565 41.2013 18.6089 53.2614 30.4285 56.2954C42.2482 59.3294 54.325 52.2052 57.3519 40.4133C60.3788 28.6214 53.2249 16.5609 41.4052 13.5269L41.4049 13.5284Z" fill="#221873"/>
<mask id="mask0_0_658" style="mask-type:luminance" maskUnits="userSpaceOnUse" x="15" y="14" width="42" height="42">
<path d="M30.9112 54.4054C41.7033 57.1757 52.6926 50.6932 55.4563 39.9263C58.2201 29.1595 51.7118 18.1855 40.9197 15.4153C30.1275 12.645 19.1383 19.1275 16.3746 29.8944C13.6108 40.6612 20.1191 51.6352 30.9112 54.4054Z" fill="white"/>
</mask>
<g mask="url(#mask0_0_658)">
<path d="M66.7675 14.2437L4.62878 14.2773L4.6975 55.276L66.8362 55.2423L66.7675 14.2437Z" fill="#CC3838"/>
<path d="M66.7942 32.9958L4.66785 33.0294L4.67371 36.5267L66.8001 36.4931L66.7942 32.9958Z" fill="#F8FFF4"/>
<path d="M66.7848 25.5287L4.65222 25.5624L4.65808 29.0597L66.7906 29.026L66.7848 25.5287Z" fill="#F8FFF4"/>
<path d="M66.7757 18.0633L4.66785 18.0969L4.67371 21.5942L66.7815 21.5606L66.7757 18.0633Z" fill="#F8FFF4"/>
<path d="M66.8059 40.4637L4.67957 40.4973L4.68542 43.9905L66.8118 43.9568L66.8059 40.4637Z" fill="#F8FFF4"/>
<path d="M66.83 47.9296L4.69128 47.9633L4.69715 51.4606L66.8359 51.4269L66.83 47.9296Z" fill="#F8FFF4"/>
<path d="M39.6551 14.2598L4.62878 14.2788L4.66608 36.5278L39.6924 36.5088L39.6551 14.2598Z" fill="#221873"/>
<path d="M18.4211 17.4281L19.0819 18.7594L20.5537 18.9715L19.4912 20.0091L19.7458 21.4718L18.4263 20.7827L17.1124 21.4732L17.3603 20.01L16.2937 18.9738L17.7659 18.7613L18.4211 17.4281Z" fill="#F8FFF4"/>
<path d="M25.8781 17.4269L26.5389 18.7581L28.0107 18.9703L26.9463 20.0073L27.2009 21.47L25.8839 20.7794L24.5674 21.4715L24.8173 20.0087L23.7508 18.9726L25.2215 18.7576L25.8781 17.4269Z" fill="#F8FFF4"/>
<path d="M33.3312 17.4223L33.9921 18.7535L35.4658 18.9662L34.4014 20.0032L34.656 21.4659L33.3365 20.7768L32.0225 21.4674L32.2704 20.0041L31.2039 18.968L32.6761 18.7555L33.3312 17.4223Z" fill="#F8FFF4"/>
<path d="M18.424 23.3778L19.0848 24.7091L20.5566 24.9212L19.4942 25.9588L19.7488 27.4215L18.4298 26.7304L17.1153 27.4229L17.3632 25.9597L16.2967 24.9235L17.7694 24.7091L18.424 23.3778Z" fill="#F8FFF4"/>
<path d="M25.881 23.3746L26.5419 24.7059L28.0136 24.918L26.9492 25.9551L27.2038 27.4178L25.8863 26.7292L24.5704 27.4192L24.8202 25.9565L23.7537 24.9203L25.2239 24.7074L25.881 23.3746Z" fill="#F8FFF4"/>
<path d="M33.3342 23.3717L33.995 24.703L35.4688 24.9156L34.4048 25.9507L34.6589 27.4154L33.3399 26.7243L32.0255 27.4168L32.2739 25.9516L31.2068 24.9174L32.6795 24.703L33.3342 23.3717Z" fill="#F8FFF4"/>
<path d="M18.4367 29.3278L19.0975 30.659L20.5693 30.8712L19.5069 31.9087L19.7615 33.3714L18.442 32.6823L17.128 33.3729L17.3759 31.9096L16.3094 30.8735L17.7816 30.661L18.4367 29.3278Z" fill="#F8FFF4"/>
<path d="M25.8898 29.3248L26.5507 30.6561L28.0224 30.8682L26.9585 31.9033L27.2126 33.368L25.8956 32.6774L24.5791 33.3694L24.8295 31.9047L23.7625 30.8705L25.2332 30.6556L25.8898 29.3248Z" fill="#F8FFF4"/>
<path d="M33.3429 29.3204L34.0038 30.6517L35.4775 30.8644L34.4131 31.9014L34.6677 33.3641L33.3487 32.673L32.0343 33.3656L32.2822 31.9023L31.2156 30.8661L32.6883 30.6517L33.3429 29.3204Z" fill="#F8FFF4"/>
</g>
</svg>
