<svg width="100%" height="100%" viewBox="0 0 64 35" fill="none" xmlns="http://www.w3.org/2000/svg" id="norton">
<g clip-path="url(#clip0_0_514)">
<path d="M12.0215 5.72693C6.61773 5.72693 2.22266 10.1197 2.22266 15.5207C2.22266 20.9216 6.61773 25.3144 12.0215 25.3144H52.864C58.2658 25.3144 62.6629 20.9196 62.6629 15.5207C62.6629 10.1217 58.2678 5.72693 52.864 5.72693H12.0215Z" fill="white"/>
<path d="M52.8647 26.1487H12.0201C6.15605 26.1487 1.38672 21.3799 1.38672 15.5208C1.38672 9.66179 6.15805 4.89294 12.0201 4.89294H52.8627C58.7268 4.89294 63.4961 9.66179 63.4961 15.5208C63.4961 21.3799 58.7268 26.1487 52.8627 26.1487M12.0201 5.72709C6.61637 5.72709 2.2213 10.1199 2.2213 15.5208C2.2213 20.9218 6.61637 25.3145 12.0201 25.3145H52.8627C58.2645 25.3145 62.6615 20.9198 62.6615 15.5208C62.6615 10.1219 58.2664 5.72709 52.8627 5.72709H12.0201Z" fill="#D0D0D0"/>
<path d="M47.9658 9.57361C46.3806 9.57361 45.0938 10.8598 45.0938 12.4441C45.0938 14.0284 46.3786 15.3126 47.9658 15.3126C49.5529 15.3126 50.8378 14.0284 50.8378 12.4441C50.8378 10.8598 49.5529 9.57361 47.9658 9.57361ZM47.9658 13.9164C47.1532 13.9164 46.4927 13.2583 46.4927 12.4441C46.4927 11.63 47.1532 10.9719 47.9658 10.9719C48.7783 10.9719 49.4388 11.63 49.4388 12.4441C49.4388 13.2583 48.7783 13.9164 47.9658 13.9164Z" fill="#292929"/>
<path d="M34.7997 9.57361C33.2146 9.57361 31.9297 10.8598 31.9297 12.4441C31.9297 14.0284 33.2146 15.3126 34.7997 15.3126C36.3848 15.3126 37.6717 14.0284 37.6717 12.4441C37.6717 10.8598 36.3868 9.57361 34.7997 9.57361ZM34.7997 13.9164C33.9871 13.9164 33.3267 13.2583 33.3267 12.4441C33.3267 11.63 33.9871 10.9719 34.7997 10.9719C35.6123 10.9719 36.2727 11.63 36.2727 12.4441C36.2727 13.2583 35.6143 13.9164 34.7997 13.9164Z" fill="#292929"/>
<path d="M44.911 13.9966C44.7289 14.0486 44.4527 14.1006 44.3466 14.1006C43.8563 14.1006 43.7482 13.9306 43.7482 13.4625V10.81H44.923V9.70184H43.7482V8.13556H42.4273L42.1491 9.70184H41.2284H41.1544C40.4019 9.70584 39.8335 10.1639 39.4712 10.882L39.0129 9.69983H38.0662V15.2068H39.6854V12.8104C39.6854 11.6022 40.3999 10.832 41.2444 10.808H42.1291V13.5465C42.1291 14.8347 42.7895 15.3148 43.8663 15.3148C44.4207 15.3148 44.847 15.1968 45.1031 15.1128L44.913 13.9946L44.911 13.9966Z" fill="#292929"/>
<path d="M52.8017 11.4458V15.2105H51.2266V9.70349H52.1812L52.5015 10.5436" fill="#292929"/>
<path d="M52.4961 10.5498C52.9744 9.99568 53.6289 9.57361 54.3954 9.57361C55.7063 9.57361 56.2467 10.6178 56.2467 11.588V15.2106H54.6256V11.636C54.6256 11.1639 54.2333 10.9078 53.807 10.9078C53.3527 10.9078 53.0605 11.1679 52.8043 11.4459" fill="#292929"/>
<path d="M25.6133 7.70935H27.4165L29.8943 12.4262V7.70935H31.3893V15.2107H29.7542L27.1083 10.0258V15.2107H25.6133V7.70935Z" fill="#292929"/>
<path d="M61.0282 4.89294V5.16099H60.6339V6.48322H60.3277V5.16099H59.9414V4.89294H61.0282Z" fill="#B2B2B2"/>
<path d="M61.2461 6.48322V4.89294H61.6604L61.9366 5.93513L62.2168 4.89294H62.6371V6.48322H62.3829V5.23901H62.3769L62.0547 6.48322H61.8305L61.5063 5.23901H61.4983V6.48322H61.2461Z" fill="#B2B2B2"/>
<path d="M25.1602 21.8583L25.5344 21.2762C25.8386 21.5002 26.2949 21.7103 26.8513 21.7103C27.4077 21.7103 27.7259 21.4642 27.7259 21.0402C27.7259 20.5501 27.3037 20.422 26.6112 20.18C25.9887 19.962 25.3783 19.6479 25.3783 18.7678C25.3783 17.9416 26.0288 17.4935 26.9054 17.4935C27.4878 17.4935 27.9161 17.6076 28.2623 17.8116L27.9621 18.4317C27.6719 18.2817 27.3257 18.1797 26.9194 18.1797C26.431 18.1797 26.1388 18.3637 26.1388 18.7498C26.1388 19.2038 26.4771 19.3199 27.1155 19.5299C27.78 19.7459 28.5125 20.054 28.5125 21.0282C28.5125 21.8543 27.9221 22.3984 26.8633 22.3984C26.0768 22.3984 25.5004 22.1263 25.1602 21.8623" fill="#B2B2B2"/>
<path d="M29.9336 17.5653H32.7696V18.2254H30.7402V19.5257H32.3433V20.1718H30.7402V21.674H32.8937V22.3321H29.9336V17.5653Z" fill="#B2B2B2"/>
<path d="M34.0489 19.954C34.0489 18.5637 34.7153 17.4935 36.0443 17.4935C36.6407 17.4935 37.111 17.6816 37.4412 18.0676L36.9709 18.6117C36.6867 18.3337 36.4446 18.1977 36.0563 18.1977C35.2757 18.1977 34.9155 18.8358 34.9155 20.016C34.9155 21.1222 35.2957 21.6843 36.0643 21.6843C36.4906 21.6843 36.7908 21.4602 37.053 21.1822L37.5273 21.7123C37.1811 22.1203 36.7488 22.3984 36.0563 22.3984C34.6853 22.3984 34.0469 21.3542 34.0469 19.956" fill="#B2B2B2"/>
<path d="M38.8458 20.5078V17.5653H39.6583V20.6379C39.6583 21.294 39.8204 21.722 40.5129 21.722C41.2054 21.722 41.3675 21.294 41.3675 20.6379V17.5653H42.1881V20.5078C42.1881 21.688 41.7338 22.3942 40.5049 22.3942C39.2761 22.3942 38.8438 21.688 38.8438 20.5078" fill="#B2B2B2"/>
<path d="M47.1649 22.3341H46.2823L45.3677 20.3117H44.6152V22.3341H43.8086V17.5673H45.3637C46.3264 17.5673 47.0789 17.9133 47.0789 18.9575C47.0789 19.6696 46.6506 20.0277 46.1762 20.1977L47.1669 22.3341H47.1649ZM45.3337 19.6896C45.9381 19.6896 46.2483 19.4936 46.2483 18.9435C46.2483 18.3934 45.9321 18.2254 45.3797 18.2254H44.6132V19.6896H45.3317H45.3337Z" fill="#B2B2B2"/>
<path d="M48.5469 17.5653H51.3849V18.2254H49.3534V19.5257H50.9546V20.1718H49.3534V21.674H51.5049V22.3321H48.5469V17.5653Z" fill="#B2B2B2"/>
<path d="M52.8672 17.5653H54.058C55.6131 17.5653 56.3596 18.4055 56.3596 19.9317C56.3596 21.458 55.5991 22.3321 54.1 22.3321H52.8692V17.5653H52.8672ZM54.01 21.674C55.1228 21.674 55.503 21.1599 55.503 19.9317C55.503 18.8535 55.2048 18.2234 54.1101 18.2234H53.6758V21.674H54.008H54.01Z" fill="#B2B2B2"/>
<path d="M11.974 26.9889C5.6476 26.9889 0.5 21.844 0.5 15.5209C0.5 9.19775 5.6476 4.05484 11.974 4.05484C18.3004 4.05484 23.446 9.19975 23.446 15.5209C23.446 21.844 18.2984 26.9889 11.974 26.9889ZM11.974 7.68148C9.88055 7.68148 7.91118 8.49762 6.42614 9.97788C4.9451 11.4601 4.12853 13.4285 4.12853 15.5209C4.12853 17.6132 4.9451 19.5816 6.42614 21.0638C7.90917 22.5441 9.87855 23.3602 11.974 23.3602C14.0675 23.3602 16.0369 22.5441 17.5199 21.0638C18.9989 19.5816 19.8155 17.6132 19.8155 15.5209C19.8155 13.4285 18.9989 11.4581 17.5179 9.97588C16.0348 8.49562 14.0655 7.67948 11.972 7.67948" fill="#FDC300"/>
<path d="M25.3673 2.28845H24.4727V3.18261H25.3673V2.28845Z" fill="#FDC300"/>
<path d="M25.3673 0.506226H24.4727V1.40238H25.3673V0.506226Z" fill="#FDC300"/>
<path d="M22.7877 3.17664H21.9531V4.04879H22.7877V3.17664Z" fill="#FDC300"/>
<path d="M21.1395 4.89099H20.2969V5.72514H21.1395V4.89099Z" fill="#292929"/>
<path d="M23.7257 4.04919H22.7891V4.88934H23.7257V4.04919Z" fill="#292929"/>
<path d="M20.2995 4.09119H19.4609V4.89133H20.2995V4.09119Z" fill="#292929"/>
<path d="M22.7877 4.89099H21.9531V5.72514H22.7877V4.89099Z" fill="#292929"/>
<path d="M24.4707 1.40237H23.5861V2.28853H24.4707V1.40237Z" fill="#292929"/>
<path d="M23.5843 2.28845H21.9531V3.17661H23.5843V2.28845Z" fill="#292929"/>
<path d="M21.953 3.1767H21.1404V4.891H21.953V3.1767Z" fill="#292929"/>
<path d="M21.1407 5.72498V6.56712H20.2981V5.72498H18.9011V6.33108H18.1526V7.07921H18.9892V7.91336H18.1526V7.07921H17.264V8.38544H16.4234V9.21959H15.865V10.0577H15.2506C14.5621 11.0819 12.8349 14.2745 12.3125 15.5747C10.4292 12.9563 8.96819 11.9201 7.81739 11.544C7.19696 11.358 6.44843 12.0321 7.47915 13.0963C9.84681 15.6987 10.5933 17.8551 11.3118 19.5734C11.6921 20.4796 13.3993 20.6216 13.7415 19.6974C14.47 17.7471 15.5268 15.5547 16.7776 13.7544V12.8222H17.4461V11.9801H18.1486V11.0059H18.9872V10.0657H18.1386V9.21159H18.9872V10.0657H19.8178V9.21959H20.4822V8.19941H21.2308V7.49729H21.9513V5.72498H21.1387H21.1407Z" fill="#292929"/>
<path d="M4.95703 30.9197H5.58547V31.3758C5.78761 31.0897 6.07381 30.8617 6.51412 30.8617C7.16257 30.8617 7.79101 31.3758 7.79101 32.2839V32.2939C7.79101 33.2021 7.16858 33.7162 6.51412 33.7162C6.0618 33.7162 5.7776 33.4882 5.58547 33.2341V34.4903H4.95703V30.9197ZM7.15256 32.2939V32.2839C7.15256 31.7559 6.79431 31.4078 6.36802 31.4078C5.94172 31.4078 5.56946 31.7599 5.56946 32.2839V32.2939C5.56946 32.824 5.94372 33.1721 6.36802 33.1721C6.79231 33.1721 7.15256 32.834 7.15256 32.2939Z" fill="#B2B2B2"/>
<path d="M8.30078 32.3059V32.2959C8.30078 31.5138 8.92322 30.8636 9.7658 30.8636C10.6084 30.8636 11.2248 31.5018 11.2248 32.2859V32.2959C11.2248 33.074 10.6024 33.7222 9.7558 33.7222C8.90921 33.7222 8.30278 33.084 8.30278 32.3059M10.5984 32.3059V32.2959C10.5984 31.8138 10.2501 31.4137 9.7578 31.4137C9.26545 31.4137 8.93322 31.8078 8.93322 32.2859V32.2959C8.93322 32.774 9.28147 33.1781 9.76981 33.1781C10.2581 33.1781 10.6004 32.778 10.6004 32.3059" fill="#B2B2B2"/>
<path d="M11.5273 30.9195H12.1718L12.7222 32.7979L13.3286 30.9095H13.863L14.4754 32.7979L15.0378 30.9195H15.6642L14.7676 33.68H14.2072L13.5948 31.8077L12.9764 33.68H12.416L11.5273 30.9195Z" fill="#B2B2B2"/>
<path d="M15.9883 32.2999V32.2899C15.9883 31.5058 16.5447 30.8636 17.3272 30.8636C18.1998 30.8636 18.6401 31.5478 18.6401 32.3379C18.6401 32.3939 18.6341 32.4519 18.6301 32.5139H16.6167C16.6848 32.96 17.001 33.2101 17.4053 33.2101C17.7115 33.2101 17.9296 33.096 18.1478 32.884L18.516 33.2101C18.2559 33.5221 17.8976 33.7242 17.3953 33.7242C16.6007 33.7242 15.9883 33.1481 15.9883 32.3019M18.0177 32.0999C17.9757 31.6958 17.7375 31.3797 17.3212 31.3797C16.9369 31.3797 16.6668 31.6758 16.6107 32.0999H18.0177Z" fill="#B2B2B2"/>
<path d="M19.2969 30.9196H19.9253V31.5377C20.0954 31.1276 20.4137 30.8476 20.896 30.8676V31.5317H20.86C20.3096 31.5317 19.9253 31.8898 19.9253 32.6159V33.6581H19.2969V30.9176V30.9196Z" fill="#B2B2B2"/>
<path d="M21.2598 32.2999V32.2899C21.2598 31.5058 21.8162 30.8636 22.5987 30.8636C23.4714 30.8636 23.9117 31.5478 23.9117 32.3379C23.9117 32.3939 23.9057 32.4519 23.9017 32.5139H21.8863C21.9543 32.96 22.2705 33.2101 22.6748 33.2101C22.981 33.2101 23.1992 33.096 23.4173 32.884L23.7856 33.2101C23.5254 33.5221 23.1671 33.7242 22.6648 33.7242C21.8702 33.7242 21.2578 33.1481 21.2578 32.3019M23.2872 32.0999C23.2452 31.6958 23.007 31.3797 22.5907 31.3797C22.2065 31.3797 21.9363 31.6758 21.8802 32.0999H23.2872Z" fill="#B2B2B2"/>
<path d="M24.4219 32.2939V32.2839C24.4219 31.3758 25.0403 30.8617 25.6928 30.8617C26.1451 30.8617 26.4293 31.0897 26.6274 31.3438V29.8695H27.2559V33.6582H26.6274V33.2021C26.4253 33.4881 26.1391 33.7162 25.6928 33.7162C25.0483 33.7162 24.4219 33.2021 24.4219 32.2939ZM26.6394 32.2939V32.2839C26.6394 31.7558 26.2652 31.4078 25.8449 31.4078C25.4246 31.4078 25.0563 31.7398 25.0563 32.2839V32.2939C25.0563 32.824 25.4186 33.1721 25.8449 33.1721C26.2712 33.1721 26.6394 32.818 26.6394 32.2939Z" fill="#B2B2B2"/>
<path d="M30.2222 33.2341V33.6601H29.5938V29.8715H30.2222V31.3777C30.4243 31.0917 30.7105 30.8636 31.1508 30.8636C31.7993 30.8636 32.4277 31.3777 32.4277 32.2859V32.2959C32.4277 33.204 31.8053 33.7181 31.1508 33.7181C30.6985 33.7181 30.4143 33.4901 30.2222 33.2361M31.7893 32.2979V32.2879C31.7893 31.7598 31.431 31.4117 31.0047 31.4117C30.5784 31.4117 30.2062 31.7638 30.2062 32.2879V32.2979C30.2062 32.828 30.5804 33.176 31.0047 33.176C31.429 33.176 31.7893 32.838 31.7893 32.2979Z" fill="#B2B2B2"/>
<path d="M32.8557 34.3379L33.0679 33.8718C33.1819 33.9338 33.306 33.9759 33.4361 33.9759C33.6122 33.9759 33.7223 33.8978 33.8244 33.6598L32.6836 30.9193H33.3521L34.1306 32.9537L34.8411 30.9193H35.4956L34.4048 33.7378C34.1866 34.2979 33.9425 34.5059 33.5022 34.5059C33.238 34.5059 33.0458 34.4439 32.8537 34.3399" fill="#B2B2B2"/>
<path d="M37.3555 30.0277H38.062L39.1567 32.8202L40.2475 30.0277H40.938L39.4269 33.6864H38.8665L37.3555 30.0277Z" fill="#A50343"/>
<path d="M41.0663 32.2998V32.2898C41.0663 31.5057 41.6227 30.8636 42.4053 30.8636C43.2779 30.8636 43.7182 31.5477 43.7182 32.3378C43.7182 32.3939 43.7122 32.4519 43.7082 32.5139H41.6948C41.7628 32.96 42.0791 33.21 42.4833 33.21C42.7895 33.21 43.0077 33.096 43.2259 32.8839L43.5941 33.21C43.3339 33.5221 42.9757 33.7241 42.4733 33.7241C41.6788 33.7241 41.0663 33.148 41.0663 32.3018M43.0958 32.0998C43.0537 31.6957 42.8156 31.3797 42.4013 31.3797C42.017 31.3797 41.7468 31.6757 41.6908 32.0998H43.0978H43.0958Z" fill="#A50343"/>
<path d="M44.375 30.9196H45.0034V31.5377C45.1756 31.1276 45.4918 30.8476 45.9741 30.8676V31.5317H45.9381C45.3877 31.5317 45.0034 31.8898 45.0034 32.6159V33.6581H44.375V30.9176V30.9196Z" fill="#A50343"/>
<path d="M46.4844 29.9037H47.1588V30.4998H46.4844V29.9037ZM46.5104 30.9199H47.1388V33.6603H46.5104V30.9199Z" fill="#A50343"/>
<path d="M47.793 33.13L48.1773 32.6739C48.5255 32.976 48.8738 33.146 49.3241 33.146C49.7184 33.146 49.9685 32.964 49.9685 32.6899V32.6799C49.9685 32.4199 49.8224 32.2798 49.148 32.1258C48.3734 31.9398 47.9391 31.7117 47.9391 31.0416V31.0316C47.9391 30.4095 48.4575 29.9794 49.18 29.9794C49.7104 29.9794 50.1307 30.1395 50.4989 30.4355L50.1567 30.9176C49.8305 30.6736 49.5022 30.5435 49.17 30.5435C48.7957 30.5435 48.5796 30.7356 48.5796 30.9736V30.9836C48.5796 31.2637 48.7457 31.3877 49.4422 31.5537C50.2107 31.7397 50.609 32.0158 50.609 32.6179V32.6279C50.609 33.308 50.0746 33.7121 49.3101 33.7121C48.7557 33.7121 48.2313 33.5201 47.795 33.132" fill="#A50343"/>
<path d="M51.3008 29.9037H51.9753V30.4998H51.3008V29.9037ZM51.3268 30.9199H51.9552V33.6603H51.3268V30.9199Z" fill="#A50343"/>
<path d="M52.7435 34.1742L52.9776 33.7021C53.2678 33.8842 53.5801 33.9922 53.9543 33.9922C54.5147 33.9922 54.8209 33.7021 54.8209 33.1521V32.94C54.5928 33.2361 54.3066 33.4421 53.8562 33.4421C53.2118 33.4421 52.6094 32.964 52.6094 32.1599V32.1499C52.6094 31.3397 53.2158 30.8636 53.8562 30.8636C54.3186 30.8636 54.6028 31.0757 54.8169 31.3297V30.9197H55.4454V33.098C55.4454 33.5601 55.3273 33.9022 55.0971 34.1302C54.8489 34.3803 54.4647 34.4983 53.9703 34.4983C53.52 34.4983 53.0977 34.3843 52.7455 34.1702M54.8269 32.1559V32.1459C54.8269 31.6958 54.4587 31.3877 54.0224 31.3877C53.5861 31.3877 53.2438 31.6898 53.2438 32.1399V32.1499C53.2438 32.602 53.5921 32.908 54.0224 32.908C54.4527 32.908 54.8269 32.596 54.8269 32.1559Z" fill="#A50343"/>
<path d="M56.25 30.9197H56.8784V31.3457C57.0546 31.0857 57.3087 30.8636 57.735 30.8636C58.3535 30.8636 58.7117 31.2797 58.7117 31.9158V33.6601H58.0833V32.1039C58.0833 31.6778 57.8711 31.4337 57.4969 31.4337C57.1226 31.4337 56.8784 31.6878 56.8784 32.1139V33.6601H56.25V30.9197Z" fill="#A50343"/>
</g>
<defs>
<clipPath id="clip0_0_514">
<rect width="63" height="34" fill="white" transform="translate(0.5 0.506226)"/>
</clipPath>
</defs>
</svg>
