<svg width="100%" height="100%" viewBox="0 0 80 35" fill="none" xmlns="http://www.w3.org/2000/svg">
<g clip-path="url(#clip0_0_502)">
<path d="M21.988 13.5965V17.9717C21.988 27.1931 11.9998 32.7267 11.9998 32.7267C11.9998 32.7267 2.01172 27.0783 2.01172 17.9717V13.5965C2.01172 13.5965 9.21787 12.3442 11.9998 7.94156C14.7831 12.3442 21.988 13.5965 21.988 13.5965Z" fill="#4CCC63"/>
<path d="M11.9994 7.94177C14.7826 12.3444 21.9875 13.5967 21.9875 13.5967V17.9719C21.9875 27.1933 11.9994 32.7269 11.9994 32.7269C11.9994 32.7269 2.01125 27.0785 2.01125 17.9719V13.5967C2.01125 13.5967 9.21741 12.3444 11.9994 7.94177ZM11.9994 5.08365L10.735 7.08342C8.35347 10.8521 1.82486 12.0418 1.75938 12.0535L0.501259 12.2753V13.5967L0.5 17.9719C0.5 20.3096 1.08561 22.6263 2.24046 24.8583C3.14091 26.5985 4.38644 28.2878 5.94555 29.8792C8.56379 32.5534 11.1669 34.0392 11.2765 34.1018L11.9931 34.5075L12.7134 34.1084C12.823 34.047 15.4312 32.5886 18.0532 29.9262C19.6136 28.3425 20.8603 26.6532 21.7621 24.9065C22.9156 22.6694 23.5013 20.3369 23.5013 17.9732V12.2739L22.2406 12.0548C22.1764 12.0431 15.6478 10.8547 13.2663 7.08603L12.0019 5.08495L11.9994 5.08365Z" fill="#292929"/>
<path d="M11.9998 9.44356C14.6659 12.59 19.3042 13.9258 21.1064 14.3445V17.9723C21.1064 19.9159 20.6203 21.8479 19.6619 23.7146C18.8811 25.2343 17.7867 26.7175 16.4089 28.1224C14.6168 29.95 12.8008 31.1723 12.0036 31.6706C11.2052 31.1645 9.38663 29.9226 7.59202 28.082C6.213 26.6679 5.1186 25.1821 4.33653 23.665C3.37814 21.8048 2.89202 19.8885 2.89202 17.971V14.3432C4.69419 13.9258 9.33248 12.5887 11.9986 9.44225M11.9986 7.9408C9.21787 12.3447 2.01172 13.597 2.01172 13.597V17.9723C2.01172 27.0788 11.9998 32.7272 11.9998 32.7272C11.9998 32.7272 21.988 27.1936 21.988 17.9723V13.597C21.988 13.597 14.7818 12.3447 11.9998 7.9421L11.9986 7.9408Z" fill="#32A344"/>
<path d="M19.1138 11.8552H17.6025V7.87654C17.6025 4.67535 15.0888 2.0716 11.9983 2.0716C8.90778 2.0716 6.39406 4.67535 6.39406 7.87654V11.8552H4.88281V7.87654C4.88281 3.81309 8.07533 0.506226 11.9983 0.506226C15.9213 0.506226 19.1138 3.81309 19.1138 7.87654V11.8552Z" fill="#292929"/>
<path d="M14.0778 19.7475C14.0778 18.5591 13.1471 17.5951 11.9998 17.5951C10.8526 17.5951 9.92188 18.5591 9.92188 19.7475C9.92188 20.5837 10.3828 21.3063 11.0553 21.6625V22.7974C11.0553 23.1652 11.3437 23.464 11.6989 23.464H12.4268C12.7819 23.464 13.0703 23.1652 13.0703 22.7974V21.5881C13.6736 21.2111 14.0778 20.5289 14.0778 19.7462V19.7475Z" fill="#292929"/>
<path d="M11.9986 17.5948C13.1459 17.5948 14.0766 18.5588 14.0766 19.7472C14.0766 20.5299 13.6723 21.2121 13.0691 21.5891V22.7984C13.0691 23.1663 12.7807 23.465 12.4255 23.465H11.6976C11.3425 23.465 11.0541 23.1663 11.0541 22.7984V21.6635C10.3816 21.3074 9.92063 20.5834 9.92063 19.7485C9.92063 18.5601 10.8513 17.5961 11.9986 17.5961M11.9986 16.683C10.3664 16.683 9.03906 18.0579 9.03906 19.7485C9.03906 20.7047 9.46221 21.5852 10.1725 22.1605V22.7997C10.1725 23.6711 10.8563 24.3794 11.6976 24.3794H12.4255C13.2668 24.3794 13.9506 23.6711 13.9506 22.7997V22.0509C14.5891 21.4743 14.9581 20.646 14.9581 19.7485C14.9581 18.0579 13.6308 16.683 11.9986 16.683Z" fill="#32A344"/>
</g>
<path d="M32.4282 19.6536C31.8209 19.6536 31.2137 19.5397 30.6064 19.312C29.9992 19.0843 29.4631 18.7522 28.9981 18.3157L30.1937 16.8782C30.5258 17.1629 30.8958 17.3953 31.3038 17.5756C31.7118 17.7559 32.1056 17.846 32.4851 17.846C33.3486 17.846 33.7803 17.5472 33.7803 16.9494C33.7803 16.6553 33.6569 16.4418 33.4102 16.3089C33.173 16.1666 32.8504 16.01 32.4424 15.8393L31.2327 15.3269C30.7582 15.1371 30.3265 14.8382 29.9375 14.4302C29.558 14.0127 29.3682 13.4672 29.3682 12.7935C29.3682 12.0249 29.6766 11.375 30.2933 10.8436C30.91 10.3028 31.7023 10.0324 32.6701 10.0324C33.2015 10.0324 33.7328 10.1367 34.2642 10.3455C34.7955 10.5542 35.2605 10.8579 35.659 11.2564L34.5915 12.58C34.2879 12.3428 33.9843 12.1625 33.6807 12.0392C33.377 11.9063 33.0402 11.8399 32.6701 11.8399C32.3096 11.8399 32.0202 11.9158 31.802 12.0676C31.5932 12.21 31.4888 12.414 31.4888 12.6796C31.4888 12.9643 31.6217 13.1778 31.8873 13.3201C32.1625 13.4624 32.4993 13.6142 32.8979 13.7755L34.0934 14.2594C34.6532 14.4872 35.0992 14.8003 35.4313 15.1988C35.7633 15.5973 35.9294 16.1239 35.9294 16.7786C35.9294 17.5472 35.621 18.2208 35.0043 18.7996C34.397 19.3689 33.5383 19.6536 32.4282 19.6536ZM36.6505 19.4828V10.2032H42.4574V11.968H38.7427V13.8325H41.9023V15.5831H38.7427V17.718H42.5997V19.4828H36.6505ZM47.4651 19.6536C46.6776 19.6536 45.9565 19.4733 45.3018 19.1127C44.6565 18.7522 44.1347 18.2208 43.7362 17.5187C43.3472 16.8166 43.1526 15.9436 43.1526 14.8999C43.1526 13.8752 43.3519 13.0022 43.7504 12.2811C44.1584 11.5505 44.6945 10.9954 45.3587 10.6159C46.0324 10.2269 46.7582 10.0324 47.5363 10.0324C48.134 10.0324 48.6701 10.1557 49.1445 10.4024C49.619 10.6396 50.0127 10.9195 50.3258 11.2421L49.2157 12.58C48.9785 12.3618 48.7271 12.1862 48.4614 12.0534C48.2052 11.9111 47.9111 11.8399 47.579 11.8399C46.9432 11.8399 46.4024 12.1056 45.9565 12.6369C45.52 13.1683 45.3018 13.8989 45.3018 14.8287C45.3018 15.7871 45.5058 16.5319 45.9138 17.0633C46.3218 17.5851 46.8673 17.846 47.5505 17.846C47.93 17.846 48.2669 17.7654 48.561 17.6041C48.8646 17.4333 49.1303 17.2246 49.358 16.9779L50.4682 18.2873C49.6901 19.1981 48.6891 19.6536 47.4651 19.6536ZM54.4313 19.6536C53.2263 19.6536 52.3059 19.2978 51.6702 18.5861C51.0344 17.8745 50.7166 16.7406 50.7166 15.1846V10.2032H52.823V15.398C52.823 16.3089 52.9606 16.9446 53.2357 17.3052C53.5109 17.6658 53.9094 17.846 54.4313 17.846C54.9531 17.846 55.3564 17.6658 55.641 17.3052C55.9257 16.9446 56.068 16.3089 56.068 15.398V10.2032H58.089V15.1846C58.089 16.7406 57.7759 17.8745 57.1497 18.5861C56.5329 19.2978 55.6268 19.6536 54.4313 19.6536ZM61.4769 14.4729H62.5586C63.6877 14.4729 64.2523 14.0127 64.2523 13.0924C64.2523 12.6369 64.1052 12.3191 63.8111 12.1388C63.5264 11.9585 63.1089 11.8684 62.5586 11.8684H61.4769V14.4729ZM61.4769 19.4828H59.3848V10.2032H62.7294C63.7162 10.2032 64.5559 10.4119 65.2486 10.8294C65.9507 11.2374 66.3018 11.9917 66.3018 13.0924C66.3018 13.7755 66.15 14.3353 65.8463 14.7718C65.5427 15.2083 65.1442 15.5404 64.6508 15.7681L66.7572 19.4828H64.4089L62.6298 16.1381H61.4769V19.4828ZM67.2594 19.4828V10.2032H73.0663V11.968H69.3516V13.8325H72.5112V15.5831H69.3516V17.718H73.2086V19.4828H67.2594Z" fill="#292929"/>
<path d="M30.156 24.5782C29.9 24.5782 29.644 24.5302 29.388 24.4342C29.132 24.3382 28.906 24.1982 28.71 24.0142L29.214 23.4082C29.354 23.5282 29.51 23.6262 29.682 23.7022C29.854 23.7782 30.02 23.8162 30.18 23.8162C30.544 23.8162 30.726 23.6902 30.726 23.4382C30.726 23.3142 30.674 23.2242 30.57 23.1682C30.47 23.1082 30.334 23.0422 30.162 22.9702L29.652 22.7542C29.452 22.6742 29.27 22.5482 29.106 22.3762C28.946 22.2002 28.866 21.9702 28.866 21.6862C28.866 21.3622 28.996 21.0882 29.256 20.8642C29.516 20.6362 29.85 20.5222 30.258 20.5222C30.482 20.5222 30.706 20.5662 30.93 20.6542C31.154 20.7422 31.35 20.8702 31.518 21.0382L31.068 21.5962C30.94 21.4962 30.812 21.4202 30.684 21.3682C30.556 21.3122 30.414 21.2842 30.258 21.2842C30.106 21.2842 29.984 21.3162 29.892 21.3802C29.804 21.4402 29.76 21.5262 29.76 21.6382C29.76 21.7582 29.816 21.8482 29.928 21.9082C30.044 21.9682 30.186 22.0322 30.354 22.1002L30.858 22.3042C31.094 22.4002 31.282 22.5322 31.422 22.7002C31.562 22.8682 31.632 23.0902 31.632 23.3662C31.632 23.6902 31.502 23.9742 31.242 24.2182C30.986 24.4582 30.624 24.5782 30.156 24.5782ZM33.3845 24.5782C33.1285 24.5782 32.8725 24.5302 32.6165 24.4342C32.3605 24.3382 32.1345 24.1982 31.9385 24.0142L32.4425 23.4082C32.5825 23.5282 32.7385 23.6262 32.9105 23.7022C33.0825 23.7782 33.2485 23.8162 33.4085 23.8162C33.7725 23.8162 33.9545 23.6902 33.9545 23.4382C33.9545 23.3142 33.9025 23.2242 33.7985 23.1682C33.6985 23.1082 33.5625 23.0422 33.3905 22.9702L32.8805 22.7542C32.6805 22.6742 32.4985 22.5482 32.3345 22.3762C32.1745 22.2002 32.0945 21.9702 32.0945 21.6862C32.0945 21.3622 32.2245 21.0882 32.4845 20.8642C32.7445 20.6362 33.0785 20.5222 33.4865 20.5222C33.7105 20.5222 33.9345 20.5662 34.1585 20.6542C34.3825 20.7422 34.5785 20.8702 34.7465 21.0382L34.2965 21.5962C34.1685 21.4962 34.0405 21.4202 33.9125 21.3682C33.7845 21.3122 33.6425 21.2842 33.4865 21.2842C33.3345 21.2842 33.2125 21.3162 33.1205 21.3802C33.0325 21.4402 32.9885 21.5262 32.9885 21.6382C32.9885 21.7582 33.0445 21.8482 33.1565 21.9082C33.2725 21.9682 33.4145 22.0322 33.5825 22.1002L34.0865 22.3042C34.3225 22.4002 34.5105 22.5322 34.6505 22.7002C34.7905 22.8682 34.8605 23.0902 34.8605 23.3662C34.8605 23.6902 34.7305 23.9742 34.4705 24.2182C34.2145 24.4582 33.8525 24.5782 33.3845 24.5782ZM35.5245 24.5062V20.5942H36.4065V23.7622H37.9545V24.5062H35.5245ZM39.8311 24.5062V20.5942H42.2791V21.3382H40.7131V22.1242H42.0451V22.8622H40.7131V23.7622H42.3391V24.5062H39.8311ZM43.1183 24.5062V20.5942H44.0243L45.0443 22.5382L45.4283 23.4022H45.4523C45.4363 23.1942 45.4143 22.9622 45.3863 22.7062C45.3583 22.4502 45.3443 22.2062 45.3443 21.9742V20.5942H46.1842V24.5062H45.2783L44.2583 22.5562L43.8743 21.7042H43.8503C43.8703 21.9202 43.8923 22.1522 43.9163 22.4002C43.9443 22.6482 43.9583 22.8882 43.9583 23.1202V24.5062H43.1183ZM48.7405 24.5782C48.4085 24.5782 48.1045 24.5022 47.8285 24.3502C47.5565 24.1982 47.3365 23.9742 47.1685 23.6782C47.0045 23.3822 46.9225 23.0142 46.9225 22.5742C46.9225 22.1422 47.0065 21.7742 47.1745 21.4702C47.3465 21.1622 47.5725 20.9282 47.8525 20.7682C48.1365 20.6042 48.4425 20.5222 48.7705 20.5222C49.0225 20.5222 49.2485 20.5742 49.4485 20.6782C49.6485 20.7782 49.8145 20.8962 49.9465 21.0322L49.4785 21.5962C49.3785 21.5042 49.2725 21.4302 49.1605 21.3742C49.0525 21.3142 48.9285 21.2842 48.7885 21.2842C48.5205 21.2842 48.2925 21.3962 48.1045 21.6202C47.9205 21.8442 47.8285 22.1522 47.8285 22.5442C47.8285 22.9482 47.9145 23.2622 48.0865 23.4862C48.2585 23.7062 48.4885 23.8162 48.7765 23.8162C48.9365 23.8162 49.0785 23.7822 49.2025 23.7142C49.3305 23.6422 49.4425 23.5542 49.5385 23.4502L50.0065 24.0022C49.6785 24.3862 49.2565 24.5782 48.7405 24.5782ZM51.4827 22.3942H51.9387C52.4147 22.3942 52.6527 22.2002 52.6527 21.8122C52.6527 21.6202 52.5907 21.4862 52.4667 21.4102C52.3467 21.3342 52.1707 21.2962 51.9387 21.2962H51.4827V22.3942ZM51.4827 24.5062H50.6007V20.5942H52.0107C52.4267 20.5942 52.7807 20.6822 53.0727 20.8582C53.3687 21.0302 53.5167 21.3482 53.5167 21.8122C53.5167 22.1002 53.4527 22.3362 53.3247 22.5202C53.1967 22.7042 53.0287 22.8442 52.8207 22.9402L53.7087 24.5062H52.7187L51.9687 23.0962H51.4827V24.5062ZM54.8645 24.5062V23.1142L53.6825 20.5942H54.6305L54.9785 21.4942C55.0345 21.6422 55.0885 21.7862 55.1405 21.9262C55.1925 22.0622 55.2445 22.2062 55.2965 22.3582H55.3205C55.3765 22.2062 55.4305 22.0622 55.4825 21.9262C55.5385 21.7862 55.5945 21.6422 55.6505 21.4942L56.0045 20.5942H56.9285L55.7465 23.1142V24.5062H54.8645ZM57.3448 24.5062V20.5942H58.6888C59.1168 20.5942 59.4828 20.6862 59.7868 20.8702C60.0908 21.0542 60.2428 21.3822 60.2428 21.8542C60.2428 22.3142 60.0908 22.6502 59.7868 22.8622C59.4828 23.0742 59.1248 23.1802 58.7128 23.1802H58.2268V24.5062H57.3448ZM58.2268 22.4782H58.6588C59.1388 22.4782 59.3788 22.2702 59.3788 21.8542C59.3788 21.6502 59.3148 21.5062 59.1868 21.4222C59.0588 21.3382 58.8748 21.2962 58.6348 21.2962H58.2268V22.4782ZM61.599 24.5062V21.3382H60.525V20.5942H63.561V21.3382H62.487V24.5062H61.599ZM64.171 24.5062V20.5942H65.053V24.5062H64.171ZM67.5657 24.5782C67.0377 24.5782 66.6097 24.3982 66.2817 24.0382C65.9537 23.6742 65.7897 23.1722 65.7897 22.5322C65.7897 21.8922 65.9537 21.3982 66.2817 21.0502C66.6097 20.6982 67.0377 20.5222 67.5657 20.5222C68.0937 20.5222 68.5217 20.6982 68.8497 21.0502C69.1777 21.4022 69.3417 21.8962 69.3417 22.5322C69.3417 23.1722 69.1777 23.6742 68.8497 24.0382C68.5217 24.3982 68.0937 24.5782 67.5657 24.5782ZM67.5657 23.8162C67.8337 23.8162 68.0457 23.7002 68.2017 23.4682C68.3577 23.2362 68.4357 22.9242 68.4357 22.5322C68.4357 22.1442 68.3577 21.8402 68.2017 21.6202C68.0457 21.3962 67.8337 21.2842 67.5657 21.2842C67.2977 21.2842 67.0857 21.3962 66.9297 21.6202C66.7737 21.8402 66.6957 22.1442 66.6957 22.5322C66.6957 22.9242 66.7737 23.2362 66.9297 23.4682C67.0857 23.7002 67.2977 23.8162 67.5657 23.8162ZM70.0772 24.5062V20.5942H70.9832L72.0032 22.5382L72.3872 23.4022H72.4112C72.3952 23.1942 72.3732 22.9622 72.3452 22.7062C72.3172 22.4502 72.3032 22.2062 72.3032 21.9742V20.5942H73.1432V24.5062H72.2372L71.2172 22.5562L70.8332 21.7042H70.8092C70.8292 21.9202 70.8512 22.1522 70.8752 22.4002C70.9032 22.6482 70.9172 22.8882 70.9172 23.1202V24.5062H70.0772Z" fill="#292929"/>
<defs>
<clipPath id="clip0_0_502">
<rect width="23" height="34" fill="white" transform="translate(0.5 0.506226)"/>
</clipPath>
</defs>
</svg>
