<svg xmlns="http://www.w3.org/2000/svg" fill="none" viewBox="0 0 41 41" height="100%" width="100%">
    <path stroke-width="0.5" stroke="white" fill="#457A41"
        d="M6.59757 10.3838C6.05069 12.2189 5.77668 14.1245 5.78434 16.0394C5.80985 18.8582 6.31512 21.6522 7.2785 24.3014C8.57988 27.982 10.6087 31.3631 13.2441 34.2432C14.3202 35.4238 15.554 36.4503 16.9106 37.2937C18.0157 38.0138 19.2932 38.425 20.6108 38.4847C21.4611 38.4665 22.299 38.2772 23.0746 37.9282C24.6857 37.179 26.1446 36.1387 27.3779 34.8596C29.7117 32.4879 31.6066 29.7211 32.9744 26.6878C34.5444 23.3543 35.3841 19.7238 35.4372 16.0394C35.4449 14.1245 35.1709 12.219 34.6241 10.3838C34.562 10.1782 34.4354 9.99803 34.263 9.86994C34.0906 9.74185 33.8815 9.67268 33.6667 9.67265C30.5079 9.67326 28.0553 9.2111 26.1356 8.24682C25.1894 7.77547 24.3286 7.14941 23.5886 6.39447C22.7927 5.56812 22.1208 4.63074 21.5939 3.61159C21.5508 3.53137 21.5266 3.48463 21.5265 3.48276C21.4484 3.30494 21.3202 3.1537 21.1576 3.04751C20.995 2.94131 20.805 2.88477 20.6108 2.88477C20.4166 2.88477 20.2266 2.94131 20.064 3.04751C19.9014 3.1537 19.7733 3.30494 19.6952 3.48276C19.6951 3.48463 19.6708 3.53137 19.6278 3.61159C19.1008 4.63074 18.4289 5.56812 17.633 6.39447C16.4945 7.54531 15.0898 8.39779 13.5434 8.87647C11.6012 9.45337 9.58046 9.72203 7.55498 9.67267C7.34019 9.67268 7.1311 9.74184 6.95868 9.86991C6.78625 9.99799 6.65963 10.1782 6.59757 10.3838ZM15.9827 10.0346C17.1255 9.46441 18.1654 8.70789 19.0597 7.79606C19.6377 7.19965 20.1571 6.5492 20.6108 5.85363C21.0646 6.5492 21.5839 7.19965 22.1619 7.79606C23.5257 9.17541 25.207 10.1993 27.0585 10.778C28.9532 11.355 30.9219 11.6528 32.9024 11.6619C33.2621 13.0931 33.4418 14.5637 33.4372 16.0394C33.4115 18.6303 32.9452 21.1979 32.0582 23.6324C30.8483 27.0533 28.9642 30.1967 26.5174 32.8763C25.5687 33.9202 24.4811 34.8288 23.2852 35.5768C22.4885 36.1083 21.5664 36.4214 20.6108 36.4848C20.03 36.4656 19.4589 36.3308 18.9308 36.0882C17.5525 35.4364 16.3049 34.5379 15.2498 33.4373C13.0883 31.2353 11.3332 28.6684 10.0656 25.8553C8.61564 22.7828 7.83792 19.4364 7.78431 16.0394C7.77974 14.5624 7.95972 13.0906 8.32005 11.6582C11.3233 11.5875 13.8551 11.1002 15.9827 10.0346Z" />
    <path stroke-width="0.5" stroke="white" fill="#457A41"
        d="M13.8037 23.1886L18.0072 27.3921C18.1948 27.5796 18.4491 27.6849 18.7143 27.6849C18.9795 27.6849 19.2339 27.5796 19.4215 27.3921L27.4179 19.3956C27.6055 19.2081 27.7108 18.9537 27.7108 18.6885C27.7108 18.4233 27.6055 18.1689 27.4179 17.9814C27.2304 17.7938 26.976 17.6885 26.7108 17.6885C26.4456 17.6885 26.1913 17.7938 26.0037 17.9814L18.7143 25.2707L15.2179 21.7743C15.125 21.6815 15.0148 21.6078 14.8935 21.5575C14.7722 21.5073 14.6421 21.4814 14.5108 21.4814C14.3795 21.4814 14.2494 21.5073 14.1281 21.5576C14.0068 21.6078 13.8965 21.6815 13.8037 21.7743C13.7108 21.8672 13.6372 21.9774 13.5869 22.0988C13.5367 22.2201 13.5108 22.3501 13.5108 22.4815C13.5108 22.7467 13.6161 23.001 13.8037 23.1886Z" />
</svg>