<svg width="100%" height="100%" viewBox="0 0 39 59" fill="none" xmlns="http://www.w3.org/2000/svg">
<path d="M0.515625 25.4296C0.515625 23.9864 1.68558 22.8164 3.12878 22.8164H19.758V58.094C9.13072 58.094 0.515625 49.4789 0.515625 38.8517V25.4296Z" fill="#9AB898"/>
<path d="M39 25.4296C39 23.9864 37.83 22.8164 36.3868 22.8164H19.7577V58.094C30.3849 58.094 39 49.4789 39 38.8517V25.4296Z" fill="#70916E"/>
<path d="M17.3424 49.5418L9.15527 41.4251L12.8863 37.7262L17.3424 42.1571L30.368 29.2305L34.099 32.9294L17.3424 49.5418Z" fill="white"/>
<path fill-rule="evenodd" clip-rule="evenodd" d="M8.69599 22.8163V17.7857H8.7077C8.7077 14.8532 9.87263 12.0408 11.9462 9.96722C14.0198 7.89363 16.8322 6.7287 19.7647 6.7287C22.6972 6.7287 25.5096 7.89363 27.5832 9.96722C29.6568 12.0408 30.8217 14.8532 30.8217 17.7857H30.8321V22.8163H36.8689V17.7857H36.869C36.869 13.2494 35.067 8.89881 31.8593 5.69113C28.6516 2.48345 24.301 0.681397 19.7647 0.681396C15.2284 0.681396 10.8778 2.48345 7.67014 5.69113C4.46248 8.89879 2.66043 13.2493 2.6604 17.7856H2.65918V22.8163H8.69599Z" fill="#BBBBBB"/>
</svg>
