<svg xmlns="http://www.w3.org/2000/svg" fill="none" viewBox="0 0 44 44" height="100%" width="100%">
    <g clip-path="url(#clip0_6930_960)">
        <path fill="#457A41"
            d="M22.0554 5.33691C13.0416 5.33691 5.7074 12.6711 5.7074 21.6849C5.7074 30.6988 13.0416 38.0329 22.0554 38.0329C31.0692 38.0329 38.4034 30.6988 38.4034 21.6849C38.4034 12.6711 31.0692 5.33691 22.0554 5.33691ZM22.0554 36.6112C13.8244 36.6112 7.12916 29.9159 7.12916 21.6849C7.12916 13.4539 13.8244 6.75868 22.0554 6.75868C30.2864 6.75868 36.9816 13.4539 36.9816 21.6849C36.9816 29.9159 30.2864 36.6112 22.0554 36.6112Z" />
        <path fill="#457A41"
            d="M31.4792 13.5041C29.1687 10.6253 25.7351 8.97363 22.0554 8.97363C18.3756 8.97363 14.9421 10.6253 12.6316 13.5041C12.3854 13.81 12.4343 14.258 12.7411 14.5032C13.047 14.7494 13.495 14.7005 13.7393 14.3937C15.7792 11.8515 18.81 10.3945 22.0554 10.3945C25.3007 10.3945 28.3316 11.8515 30.3697 14.3937C30.5108 14.5684 30.7163 14.6598 30.9244 14.6598C31.0819 14.6598 31.2385 14.6082 31.3697 14.5032C31.6765 14.2571 31.7254 13.81 31.4792 13.5041Z" />
        <path fill="#457A41"
            d="M30.7887 30.1687C30.5072 29.8999 30.0547 29.9116 29.785 30.1958C27.7452 32.3434 25.0003 33.528 22.0545 33.528C19.1087 33.528 16.3638 32.3443 14.3258 30.1958C14.057 29.9089 13.6054 29.8999 13.3221 30.1687C13.0352 30.4383 13.0253 30.889 13.295 31.1741C15.6054 33.6095 18.715 34.9498 22.0545 34.9498C25.394 34.9498 28.5045 33.6095 30.8158 31.1741C31.0855 30.8899 31.0747 30.4393 30.7887 30.1687Z" />
        <path fill="#457A41"
            d="M15.7928 20.8154H13.2877C12.942 20.8154 12.6614 21.096 12.6614 21.4417V26.4518C12.6614 26.7975 12.942 27.0781 13.2877 27.0781C13.6334 27.0781 13.914 26.7975 13.914 26.4518V24.573H14.5402C14.8859 24.573 15.1665 24.2925 15.1665 23.9467C15.1665 23.601 14.8859 23.3205 14.5402 23.3205H13.914V22.068H15.7928C16.1385 22.068 16.419 21.7874 16.419 21.4417C16.419 21.096 16.1385 20.8154 15.7928 20.8154Z" />
        <path fill="#457A41"
            d="M21.4291 22.6942C21.4291 21.658 20.5866 20.8154 19.5504 20.8154H18.2978C17.9521 20.8154 17.6716 21.096 17.6716 21.4417V26.4518C17.6716 26.7975 17.9521 27.0781 18.2978 27.0781C18.6435 27.0781 18.9241 26.7975 18.9241 26.4518V25.4581L20.3594 26.8953C20.4825 27.0165 20.6427 27.0781 20.8029 27.0781C20.9631 27.0781 21.1233 27.0165 21.2454 26.8943C21.4898 26.65 21.4898 26.2527 21.2454 26.0083L19.7938 24.5567C20.716 24.4373 21.4301 23.6472 21.4301 22.6942H21.4291ZM19.5504 23.3205H18.9241V22.068H19.5504C19.8952 22.068 20.1766 22.3485 20.1766 22.6942C20.1766 23.0399 19.8952 23.3205 19.5504 23.3205Z" />
        <path fill="#457A41"
            d="M25.813 22.068C26.1587 22.068 26.4393 21.7874 26.4393 21.4417C26.4393 21.096 26.1587 20.8154 25.813 20.8154H23.3079C22.9622 20.8154 22.6817 21.096 22.6817 21.4417V26.4518C22.6817 26.7975 22.9622 27.0781 23.3079 27.0781H25.813C26.1587 27.0781 26.4393 26.7975 26.4393 26.4518C26.4393 26.1061 26.1587 25.8255 25.813 25.8255H23.9342V24.573H24.5605C24.9062 24.573 25.1867 24.2925 25.1867 23.9467C25.1867 23.601 24.9062 23.3205 24.5605 23.3205H23.9342V22.068H25.813Z" />
        <path fill="#457A41"
            d="M30.824 25.8255H28.9452V24.573H29.5714C29.9172 24.573 30.1977 24.2925 30.1977 23.9467C30.1977 23.601 29.9172 23.3205 29.5714 23.3205H28.9452V22.068H30.824C31.1697 22.068 31.4502 21.7874 31.4502 21.4417C31.4502 21.096 31.1697 20.8154 30.824 20.8154H28.3189C27.9732 20.8154 27.6927 21.096 27.6927 21.4417V26.4518C27.6927 26.7975 27.9732 27.0781 28.3189 27.0781H30.824C31.1697 27.0781 31.4502 26.7975 31.4502 26.4518C31.4502 26.1061 31.1697 25.8255 30.824 25.8255Z" />
        <path fill="#457A41"
            d="M41.5492 25.5323C42.5619 24.3757 43.6117 23.1829 43.6117 21.667C43.6117 20.1511 42.5628 18.9584 41.5492 17.8018C40.9021 17.1692 40.3827 16.418 40.0188 15.589C39.8442 14.6388 39.8442 13.665 40.0188 12.7147C40.1845 11.1916 40.3492 9.6178 39.5301 8.40328C38.7111 7.18877 37.1445 6.92269 35.7074 6.61409C34.8087 6.49734 33.9435 6.19869 33.1634 5.73714C32.5037 5.09368 31.9715 4.33076 31.5969 3.4882C30.8783 2.12979 30.1027 0.728842 28.7226 0.26186C27.3424 -0.205123 26.0067 0.462771 24.67 1.09537C23.8654 1.55873 22.9758 1.85738 22.0545 1.97232C21.1305 1.85829 20.2391 1.56054 19.4318 1.09537C18.0951 0.462771 16.7086 -0.190642 15.3792 0.26186C14.0497 0.714362 13.2235 2.12979 12.5049 3.4882C12.132 4.32986 11.6035 5.09278 10.9456 5.73714C10.1664 6.19869 9.30027 6.49734 8.4016 6.61409C6.96445 6.92269 5.43409 7.24669 4.60058 8.44672C3.76707 9.64676 3.94716 11.1988 4.11187 12.7582C4.28654 13.7084 4.28654 14.6822 4.11187 15.6325C3.74354 16.4624 3.21954 17.2135 2.56703 17.8452C1.5489 18.9574 0.5 20.1502 0.5 21.6661C0.5 23.182 1.5489 24.3748 2.56251 25.5314C3.20958 26.164 3.72906 26.9152 4.09287 27.7441C4.26753 28.6944 4.26753 29.6682 4.09287 30.6184C3.92725 32.1416 3.76254 33.7154 4.58157 34.8937C5.4006 36.072 6.96716 36.4096 8.40431 36.7544C9.30298 36.8711 10.1682 37.1698 10.9483 37.6313C11.6053 38.2757 12.1347 39.0386 12.5076 39.8803C13.2262 41.2387 14.0018 42.6396 15.3819 43.1066C16.7611 43.5736 18.0978 42.9057 19.4345 42.2731C20.2382 41.7962 21.1305 41.4857 22.0572 41.3608C22.9812 41.4749 23.8727 41.7726 24.6799 42.2378C25.6392 42.7862 26.7053 43.122 27.8058 43.2224C28.1235 43.2252 28.4393 43.1745 28.7398 43.0713C30.1118 42.6043 30.8955 41.2034 31.6141 39.845C31.9869 39.0033 32.5154 38.2404 33.1734 37.596C33.9535 37.148 34.816 36.8621 35.7101 36.7553C37.1473 36.4467 38.6776 36.1227 39.5111 34.9226C40.3446 33.7226 40.1645 32.1705 39.9998 30.6474C39.8252 29.6971 39.8252 28.7234 39.9998 27.7731C40.3673 26.9324 40.894 26.1712 41.5519 25.5314L41.5492 25.5323ZM38.6315 27.3206C38.3835 28.4519 38.3591 29.6211 38.56 30.7623C38.7039 32.0845 38.8333 33.3271 38.3229 34.0602C37.8124 34.7932 36.6414 35.0521 35.406 35.3172C34.2983 35.4665 33.2349 35.8512 32.2874 36.4449C31.4557 37.2051 30.7896 38.13 30.3326 39.1608C29.7289 40.2748 29.1036 41.4242 28.2628 41.7111C27.4221 41.9989 26.4239 41.474 25.2953 40.9355C24.2998 40.3699 23.1948 40.0241 22.0545 39.9228C20.9142 40.0241 19.8092 40.3699 18.8137 40.9355C17.686 41.474 16.658 41.9771 15.8462 41.7111C15.0344 41.445 14.409 40.2739 13.7764 39.1608C13.3194 38.13 12.6542 37.2051 11.8216 36.4449C10.875 35.8503 9.81159 35.4656 8.70296 35.3172C7.46673 35.0511 6.29565 34.7996 5.78613 34.0602C5.27571 33.3199 5.40513 32.0845 5.5273 30.7623C5.73364 29.622 5.71192 28.4519 5.46305 27.3206C5.04403 26.2934 4.42048 25.3622 3.63041 24.583C2.7607 23.5838 1.93443 22.6426 1.93443 21.6661C1.93443 20.6896 2.7607 19.7475 3.64489 18.7493C4.43496 17.9701 5.05851 17.0388 5.47753 16.0117C5.71826 14.8786 5.73545 13.7093 5.52821 12.5699C5.38431 11.2477 5.25489 10.0051 5.76532 9.27209C6.27574 8.53903 7.46854 8.2802 8.70387 8.01504C9.81159 7.86571 10.875 7.48108 11.8225 6.8874C12.6542 6.1272 13.3203 5.20228 13.7773 4.17148C14.381 3.05742 15.0063 1.90806 15.8471 1.62118C16.6878 1.33339 17.686 1.85829 18.8146 2.39677C19.8101 2.96239 20.9151 3.30811 22.0554 3.40947C23.1957 3.30811 24.3007 2.96239 25.2962 2.39677C26.4239 1.85829 27.4881 1.35511 28.2637 1.62118C29.0393 1.88725 29.7009 3.05832 30.3335 4.17148C30.7905 5.20228 31.4557 6.1272 32.2883 6.8874C33.2349 7.48199 34.2983 7.86661 35.4069 8.01504C36.6432 8.28111 37.8143 8.5327 38.3238 9.27209C38.8342 10.0124 38.7048 11.2477 38.5681 12.5699C38.3618 13.7102 38.3835 14.8804 38.6324 16.0117C39.0514 17.0406 39.6777 17.9728 40.4713 18.7493C41.3483 19.7484 42.1746 20.6896 42.1746 21.6661C42.1746 22.6426 41.3483 23.5847 40.4713 24.583C39.6768 25.3595 39.0514 26.2916 38.6324 27.3206H38.6315Z" />
        <path fill="#457A41"
            d="M15.6787 16.8857H14.0425C13.9366 16.8857 13.8515 16.912 13.79 16.9645C13.7257 17.0197 13.6913 17.0975 13.6913 17.1889C13.6913 17.2803 13.7239 17.3536 13.7855 17.4097C13.8452 17.464 13.9312 17.4912 14.0425 17.4912H14.514V19.2469C14.514 19.3754 14.5466 19.475 14.6099 19.5437C14.6751 19.6152 14.7602 19.6505 14.8624 19.6505C14.9647 19.6505 15.0479 19.6143 15.1131 19.5446C15.1765 19.4759 15.2081 19.3763 15.2081 19.2469V17.4912H15.6787C15.7891 17.4912 15.8751 17.464 15.9367 17.4106C16 17.3545 16.0335 17.2785 16.0335 17.1898C16.0335 17.1011 16.0009 17.0242 15.9385 16.9681C15.8778 16.9138 15.791 16.8857 15.6796 16.8857H15.6787Z" />
        <path fill="#457A41"
            d="M18.477 18.8396C18.4091 18.7283 18.3313 18.6224 18.2453 18.5247C18.2064 18.4804 18.1657 18.4396 18.124 18.4043C18.2679 18.3518 18.3829 18.2813 18.4679 18.1908C18.591 18.0604 18.6526 17.8867 18.6526 17.6749C18.6526 17.5717 18.6345 17.4722 18.5992 17.3799C18.563 17.2858 18.5096 17.2025 18.4399 17.131C18.3702 17.0604 18.2897 17.0052 18.201 16.9681C18.1268 16.9346 18.0435 16.912 17.9521 16.9011C17.867 16.8912 17.763 16.8857 17.6453 16.8857H16.8082C16.6724 16.8857 16.5702 16.9201 16.5032 16.9871C16.4362 17.0541 16.4018 17.1563 16.4018 17.2921V19.2469C16.4018 19.3718 16.4317 19.4695 16.4905 19.5392C16.5521 19.6125 16.6426 19.6505 16.7503 19.6505C16.8525 19.6505 16.9367 19.6152 17.0018 19.5456C17.0652 19.4777 17.0969 19.3772 17.0969 19.246V18.5202H17.1865C17.2652 18.5202 17.3304 18.5301 17.3792 18.55C17.4263 18.5691 17.4743 18.6062 17.5231 18.6614C17.5774 18.7229 17.6408 18.8143 17.7114 18.9356L17.9177 19.2786C17.9675 19.3618 18.0064 19.4234 18.0354 19.4668C18.0697 19.5175 18.1123 19.56 18.1602 19.5935C18.2145 19.6315 18.2815 19.6505 18.3575 19.6505C18.42 19.6505 18.4779 19.6379 18.5277 19.6116C18.5784 19.5854 18.62 19.5483 18.6499 19.5021C18.6806 19.4541 18.6969 19.4044 18.6969 19.3528C18.6969 19.322 18.6897 19.2695 18.6354 19.1401C18.5974 19.0505 18.544 18.9492 18.477 18.8387V18.8396ZM17.9494 17.7075C17.9494 17.7745 17.934 17.826 17.905 17.8604C17.8734 17.8975 17.8236 17.9247 17.7584 17.941C17.6815 17.96 17.5847 17.9699 17.4688 17.9699H17.0987V17.4523H17.4833C17.6978 17.4523 17.7756 17.4713 17.8037 17.483C17.8507 17.503 17.886 17.531 17.9123 17.5699C17.9385 17.6088 17.9512 17.6532 17.9512 17.7057L17.9494 17.7075Z" />
        <path fill="#457A41"
            d="M20.7983 16.8416C20.7422 16.8416 20.6925 16.8524 20.6508 16.8742C20.611 16.895 20.5757 16.9239 20.544 16.961C20.5178 16.9927 20.4934 17.0271 20.4716 17.0633L19.9965 17.8289L19.5983 17.1828C19.5223 17.0579 19.4653 16.9755 19.4245 16.9303C19.3702 16.8714 19.2942 16.8407 19.1974 16.8407C19.1069 16.8407 19.0291 16.8705 18.9666 16.9294C18.9033 16.9891 18.8698 17.0642 18.8698 17.1475C18.8698 17.1972 18.8834 17.2506 18.9123 17.3122C18.9368 17.3647 18.9766 17.4344 19.0336 17.5258L19.6399 18.4652V19.2444C19.6399 19.3738 19.6716 19.4742 19.735 19.5421C19.8001 19.6127 19.8852 19.648 19.9866 19.648C20.0879 19.648 20.1721 19.6118 20.2381 19.5412C20.3024 19.4724 20.335 19.372 20.335 19.2435V18.4643L20.9558 17.5122C21.0119 17.428 21.0508 17.3638 21.0744 17.314C21.1024 17.257 21.1169 17.1982 21.1169 17.1393C21.1169 17.0597 21.0852 16.9873 21.0246 16.9276C20.964 16.8687 20.8879 16.8389 20.7993 16.8389L20.7983 16.8416Z" />
        <path fill="#457A41"
            d="M24.2835 16.8856H23.0699C22.983 16.8856 22.9124 16.8992 22.8527 16.9254C22.7857 16.9562 22.7368 17.0051 22.7052 17.0711C22.6771 17.1309 22.6635 17.2024 22.6635 17.291V19.2459C22.6635 19.3744 22.6961 19.4739 22.7595 19.5427C22.8246 19.6142 22.9097 19.6495 23.012 19.6495C23.1142 19.6495 23.1975 19.6142 23.2627 19.5436C23.3269 19.4748 23.3586 19.3744 23.3586 19.2449V18.4983H24.1152C24.2147 18.4983 24.2944 18.473 24.3505 18.4232C24.4093 18.3716 24.4401 18.2992 24.4401 18.2151C24.4401 18.1309 24.4102 18.0594 24.3523 18.0069C24.2962 17.9562 24.2165 17.9309 24.1152 17.9309H23.3586V17.4621H24.2817C24.3867 17.4621 24.469 17.4358 24.5251 17.3843C24.584 17.3309 24.6147 17.2576 24.6147 17.1725C24.6147 17.0874 24.584 17.0159 24.5251 16.9625C24.4681 16.9109 24.3858 16.8838 24.2817 16.8838L24.2835 16.8856Z" />
        <path fill="#457A41"
            d="M26.9985 17.0137C26.7967 16.8997 26.5533 16.8418 26.2754 16.8418C26.0709 16.8418 25.8845 16.8744 25.7225 16.9395C25.5578 17.0047 25.4166 17.1006 25.3016 17.2246C25.1876 17.3477 25.0989 17.4988 25.0392 17.6726C24.9804 17.8445 24.9505 18.0346 24.9505 18.2391C24.9505 18.4437 24.9795 18.6274 25.0356 18.7993C25.0926 18.9749 25.1795 19.1269 25.2926 19.2527C25.4066 19.3794 25.5496 19.4781 25.7188 19.5469C25.8863 19.6147 26.0772 19.65 26.2872 19.65C26.4972 19.65 26.6881 19.6165 26.8528 19.5496C27.0193 19.4826 27.1623 19.384 27.2782 19.2554C27.3922 19.1287 27.4791 18.9776 27.5361 18.8057C27.5922 18.6364 27.6203 18.4473 27.6203 18.2418C27.6203 17.9631 27.5678 17.716 27.4655 17.5079C27.3605 17.2952 27.204 17.1287 26.9994 17.0128L26.9985 17.0137ZM26.2754 17.4319C26.4039 17.4319 26.5134 17.4617 26.6112 17.5233C26.708 17.5839 26.7804 17.6717 26.8338 17.7921C26.8881 17.916 26.9162 18.0672 26.9162 18.2391C26.9162 18.4256 26.8863 18.583 26.8266 18.7079C26.7696 18.8283 26.6926 18.9179 26.5985 18.974C26.5017 19.0319 26.3976 19.06 26.2818 19.06C26.1922 19.06 26.1089 19.0437 26.0347 19.0102C25.9614 18.9776 25.8953 18.9278 25.8374 18.8609C25.7795 18.7939 25.7333 18.707 25.7007 18.6029C25.6673 18.4952 25.6501 18.3731 25.6501 18.2382C25.6501 18.1034 25.6673 17.9839 25.7007 17.878C25.7333 17.7749 25.7777 17.6907 25.8329 17.6255C25.8863 17.5622 25.9514 17.5133 26.0256 17.4807C26.1008 17.4472 26.184 17.4301 26.2736 17.4301L26.2754 17.4319Z" />
        <path fill="#457A41"
            d="M30.357 19.141C30.319 19.0514 30.2656 18.9501 30.1986 18.8396C30.1307 18.7283 30.0529 18.6224 29.9669 18.5247C29.928 18.4804 29.8873 18.4396 29.8457 18.4043C29.9896 18.3518 30.1045 18.2813 30.1896 18.1908C30.3126 18.0604 30.3742 17.8867 30.3742 17.6749C30.3742 17.5717 30.3561 17.4722 30.3208 17.3799C30.2846 17.2858 30.2312 17.2025 30.1615 17.131C30.0918 17.0604 30.0113 17.0052 29.9226 16.9681C29.8484 16.9346 29.7651 16.912 29.6737 16.9011C29.5886 16.8912 29.4846 16.8857 29.3669 16.8857H28.5298C28.394 16.8857 28.2918 16.9201 28.2248 16.9871C28.1578 17.0541 28.1234 17.1563 28.1234 17.2921V19.2469C28.1234 19.3718 28.1533 19.4695 28.2121 19.5392C28.2737 19.6125 28.3642 19.6505 28.4719 19.6505C28.5741 19.6505 28.6583 19.6152 28.7235 19.5456C28.7868 19.4777 28.8185 19.3772 28.8185 19.246V18.5202H28.9081C28.9868 18.5202 29.052 18.5301 29.1008 18.55C29.1479 18.5691 29.1959 18.6062 29.2447 18.6614C29.299 18.7229 29.3624 18.8143 29.433 18.9356L29.6393 19.2786C29.6891 19.3618 29.728 19.4234 29.757 19.4668C29.7914 19.5175 29.8339 19.56 29.8819 19.5935C29.9362 19.6315 30.0031 19.6505 30.0792 19.6505C30.1416 19.6505 30.1995 19.6379 30.2493 19.6116C30.3 19.5854 30.3416 19.5483 30.3715 19.5021C30.4022 19.4541 30.4185 19.4044 30.4185 19.3528C30.4185 19.322 30.4113 19.2695 30.357 19.1401V19.141ZM29.671 17.7075C29.671 17.7745 29.6556 17.826 29.6267 17.8604C29.595 17.8975 29.5452 17.9247 29.48 17.941C29.4031 17.96 29.3063 17.9699 29.1904 17.9699H28.8203V17.4523H29.2049C29.4194 17.4523 29.4972 17.4713 29.5253 17.483C29.5724 17.503 29.6077 17.531 29.6339 17.5699C29.6601 17.6088 29.6728 17.6532 29.6728 17.7057L29.671 17.7075Z" />
    </g>
    <defs>
        <clipPath id="clip0_6930_960">
            <rect transform="translate(0.5 0.105469)" fill="white" height="43.1579" width="43.1108" />
        </clipPath>
    </defs>
</svg>