<svg width="126" height="107" viewBox="0 0 126 107" fill="currentColor" xmlns="http://www.w3.org/2000/svg">
    <g clip-path="url(#clip0_3014_18851)">
        <circle cx="60" cy="53.5" r="53" fill="#ECE8D4" />
        <g clip-path="url(#clip1_3014_18851)">
            <path
                d="M53.6059 50.2427C55.1281 50.2937 56.4928 49.654 57.8954 49.2133C59.6261 48.6696 61.332 48.0464 63.0757 47.5371C65.7388 46.7588 68.3461 46.8547 70.9736 47.7894C73.9257 48.839 76.9844 49.0178 80.0833 48.57C80.5015 48.5096 80.4683 48.3379 80.2835 48.063C79.9199 47.5228 79.5562 46.9815 79.2055 46.433C78.7767 45.7637 78.849 45.2093 79.4484 44.7094C81.0381 43.3802 82.6338 42.057 84.2343 40.7421C84.8491 40.2374 85.5681 40.2516 85.9721 40.7456C86.4305 41.3048 86.331 41.9634 85.689 42.5C84.5067 43.4868 83.3245 44.4724 82.1256 45.4379C81.7406 45.7483 81.6399 45.9852 81.9515 46.4531C86.4246 53.1735 90.8788 59.9069 95.3247 66.6462C95.5841 67.0395 95.7689 67.0312 96.1053 66.7564C97.3741 65.7198 98.6606 64.7058 99.9411 63.6835C100.638 63.1279 101.309 63.1433 101.757 63.7237C102.185 64.2793 102.049 64.9273 101.378 65.4651C99.6841 66.8227 97.9865 68.1755 96.289 69.5284C95.4965 70.1598 94.8769 70.0626 94.3024 69.2227C93.8246 68.5238 93.2488 68.4444 92.5752 68.9846C91.3657 69.9465 90.0638 70.7663 88.6683 71.4297C88.2643 71.6216 88.1222 71.81 88.2643 72.2885C89.1457 75.2691 87.4304 78.1098 84.3788 78.7281C83.8789 78.83 83.7059 78.9734 83.7782 79.5171C84.22 82.8364 81.1602 85.7079 77.8847 85.0398C77.3255 84.9261 77.2272 85.0979 77.1585 85.5824C76.7723 88.3307 74.8734 89.9631 72.0954 89.9714C71.9971 89.9714 71.8964 89.9844 71.7993 89.969C71.1774 89.8695 70.899 90.0709 70.7213 90.7449C70.2166 92.6628 67.7479 94.1484 65.7068 93.9387C63.9014 93.7527 62.3401 92.9851 60.8546 92.0243C60.126 91.5529 59.4212 91.0411 58.7365 90.5092C58.3799 90.2332 58.1726 90.2747 57.9321 90.636C57.6703 91.0293 57.3635 91.3929 57.0732 91.7685C54.9457 94.5239 51.1774 94.2123 49.5639 91.1335C49.3768 90.7769 49.2228 90.7663 48.8816 90.9061C46.228 91.9947 43.4264 90.675 42.6078 87.9386C42.4692 87.4766 42.2987 87.3913 41.8295 87.4588C38.7175 87.903 36.1434 85.4118 36.5189 82.3247C36.5757 81.8555 36.3578 81.8153 36.0119 81.7442C33.78 81.2857 32.4189 79.863 32.1216 77.6264C31.9522 76.3482 32.362 75.2122 33.1605 74.2112C33.8902 73.2955 33.8831 73.3026 33.0669 72.4461C32.0019 71.3302 31.0175 70.1479 30.18 68.8496C29.9549 68.5013 29.7962 68.4373 29.5888 68.846C29.5 69.0214 29.3875 69.186 29.2702 69.3448C28.7738 70.02 28.1412 70.1361 27.4802 69.6172C25.6962 68.2146 23.924 66.7966 22.1577 65.3704C21.5666 64.893 21.4837 64.2213 21.9018 63.7024C22.339 63.161 23.0035 63.1255 23.6302 63.623C24.912 64.643 26.1985 65.657 27.4625 66.6995C27.8522 67.0217 28.0559 67.0466 28.3663 66.5739C32.7636 59.8974 37.1823 53.2351 41.595 46.5704C42.0522 45.881 42.0511 45.8845 41.4019 45.3491C40.2587 44.4085 39.1168 43.4667 37.9807 42.519C37.3244 41.9705 37.2048 41.3071 37.649 40.7752C38.0932 40.2433 38.7756 40.222 39.4295 40.7575C41.0323 42.0712 42.6268 43.3956 44.2154 44.7248C44.7899 45.2057 44.8574 45.7566 44.4547 46.4046C44.2983 46.6557 44.1289 46.8985 43.9654 47.1461C43.5354 47.7989 43.5283 47.8131 44.2485 48.172C46.3062 49.1979 48.5203 49.6753 50.7782 49.9774C51.7152 50.1029 52.6558 50.2226 53.607 50.2392L53.6059 50.2427ZM66.0195 91.5979C66.6888 91.6441 67.3202 91.406 67.8853 90.9617C68.7015 90.3197 68.7974 89.5189 68.1601 88.6991C67.9611 88.4432 67.6981 88.2703 67.4363 88.0961C65.7269 86.9601 64.0151 85.8252 62.3069 84.688C61.8307 84.3705 61.3438 84.0661 60.8937 83.7142C60.4032 83.3304 60.3156 82.6528 60.6449 82.173C60.9849 81.6779 61.6056 81.5286 62.1624 81.8295C62.4218 81.9693 62.6611 82.147 62.9087 82.3093C65.4331 83.9665 67.9457 85.6416 70.4855 87.2752C72.2234 88.3935 74.4659 87.5145 74.839 85.6001C75.0795 84.3681 74.5689 83.4358 73.5798 82.7559C72.1487 81.7714 70.6928 80.8226 69.25 79.8559C67.9054 78.9556 66.5526 78.0671 65.2246 77.1419C64.4629 76.6112 64.4759 75.7133 65.2045 75.2217C65.6878 74.8959 66.138 75.0203 66.5798 75.3164C67.7941 76.1291 69.0095 76.9394 70.2237 77.7496C72.5385 79.2944 74.8449 80.8522 77.1727 82.378C78.9674 83.5543 81.1969 82.5557 81.4836 80.4553C81.6613 79.1511 81.0571 78.2389 79.9886 77.5376C76.2937 75.1091 72.6143 72.657 68.9301 70.2143C68.7169 70.0721 68.493 69.9406 68.2975 69.776C67.8272 69.3803 67.7419 68.7939 68.0618 68.2881C68.3769 67.7882 68.9562 67.6164 69.5118 67.8853C69.7759 68.0132 70.02 68.1874 70.2664 68.3509C74.133 70.9132 77.9937 73.4838 81.8662 76.0367C83.1906 76.9098 84.8716 76.6041 85.7067 75.3804C86.5999 74.0714 86.286 72.4165 84.9616 71.4688C84.5766 71.1928 84.1869 70.9227 83.7948 70.6573C78.0233 66.754 72.2518 62.8518 66.4827 58.9438C66.2268 58.7696 65.9626 58.6844 65.657 58.6678C63.8469 58.5683 62.0297 58.8573 60.2232 58.5694C59.5456 58.4616 59.0729 58.7388 58.6322 59.247C57.4464 60.6129 56.064 61.7584 54.5038 62.6742C53.2374 63.4181 51.8668 63.8434 50.3813 63.7285C48.5558 63.5875 46.9566 62.8436 45.4948 61.7821C44.579 61.1176 44.463 60.5371 45.1228 59.6332C46.568 57.6573 47.9848 55.6647 49.3104 53.6059C49.5118 53.292 49.776 53.0195 50.007 52.7245C50.1018 52.6037 50.3102 52.5148 50.2629 52.3549C50.2036 52.1547 49.9691 52.2045 49.802 52.1772C47.3143 51.7768 44.887 51.1833 42.6765 49.9181C42.3105 49.7085 42.1672 49.8459 41.9788 50.1314C38.5079 55.3852 35.0334 60.6354 31.5494 65.8809C31.3445 66.1889 31.3373 66.4294 31.5304 66.7398C32.5149 68.3224 33.6782 69.7617 34.9457 71.1229C35.2075 71.4048 35.3698 71.3752 35.5854 71.0802C35.9337 70.6016 36.3116 70.1444 36.6788 69.6812C38.8123 66.9957 42.9419 67.4221 44.4606 70.5045C44.6868 70.9641 44.8562 70.9736 45.2827 70.7604C48.3817 69.2109 52.0576 71.5091 51.9687 74.9504C51.9545 75.4858 52.1263 75.6102 52.5906 75.6825C55.2833 76.1018 56.956 78.3811 56.5319 81.0476C56.4715 81.4255 56.5271 81.5949 56.9406 81.6992C59.8382 82.4289 61.1839 85.2519 59.9116 87.9291C59.7517 88.2655 59.7718 88.4527 60.0656 88.6707C61.082 89.4217 62.0972 90.1751 63.2155 90.7722C64.0732 91.2295 64.9593 91.618 66.0195 91.5967V91.5979ZM66.7481 49.3104C65.6523 49.2607 64.6098 49.4834 63.5863 49.7867C60.408 50.7284 57.3042 51.9071 54.0975 52.7601C52.9958 53.0527 52.0848 53.677 51.4191 54.6081C50.1456 56.3897 49.0545 58.2982 47.665 59.9993C47.4494 60.2635 47.5726 60.4246 47.8178 60.5584C49.4573 61.4575 51.1359 61.8035 52.9022 60.9233C54.4458 60.1545 55.7571 59.0694 56.8683 57.7793C57.906 56.5757 59.1238 56.0592 60.6911 56.2902C61.9266 56.4715 63.1681 56.398 64.412 56.3222C65.5599 56.2511 66.6876 56.3056 67.7052 56.9974C73.8593 61.1827 80.0265 65.349 86.1818 69.5307C86.5182 69.7594 86.7978 69.7878 87.1626 69.6148C88.8495 68.8164 90.4168 67.8415 91.8419 66.6296C92.2068 66.3192 92.2375 66.1001 91.9746 65.7056C88.7263 60.8238 85.4899 55.9348 82.2678 51.0376C82.0202 50.6609 81.7726 50.5697 81.3461 50.6574C77.4866 51.4582 73.6947 51.175 69.975 49.8873C68.923 49.5237 67.8569 49.2548 66.7469 49.3104H66.7481ZM41.2586 85.208C41.9634 85.259 42.583 84.8218 43.0947 84.1632C45.0872 81.5937 47.0904 79.0326 49.0747 76.456C49.988 75.2702 49.8163 73.8392 48.7003 73.0052C47.6496 72.221 46.2494 72.4674 45.3645 73.5999C44.6004 74.5784 43.8422 75.5617 43.0805 76.5425C41.8236 78.1619 40.5608 79.7765 39.3099 81.3995C38.7033 82.1872 38.5801 83.0544 39.0326 83.9511C39.4508 84.7792 40.1486 85.1985 41.2586 85.2068V85.208ZM47.3842 88.9976C47.7728 89.0213 48.3746 88.724 48.8389 88.1565C49.2761 87.6223 49.6931 87.0703 50.1148 86.523C51.3326 84.9439 52.5551 83.3707 53.761 81.7821C54.6294 80.6389 54.4718 79.26 53.4045 78.4107C52.4047 77.6146 50.9938 77.816 50.0935 78.8928C49.802 79.2411 49.5319 79.6071 49.2547 79.9661C47.9043 81.7169 46.5479 83.4619 45.2093 85.2211C44.6193 85.9958 44.5317 86.8487 44.97 87.7265C45.3881 88.5652 46.0965 88.9609 47.3842 88.9976ZM42.6256 72.6439C42.6315 71.5387 42.0641 70.6964 41.1436 70.3623C40.1592 70.0058 39.1428 70.2628 38.483 71.0968C37.2593 72.6439 36.0462 74.1993 34.8604 75.7749C34.0821 76.8091 34.2894 78.2377 35.275 79.0053C36.2749 79.7848 37.7035 79.6675 38.5162 78.6606C39.7671 77.1111 40.966 75.519 42.1837 73.9423C42.4965 73.5383 42.6517 73.0787 42.6268 72.6427L42.6256 72.6439ZM56.0557 83.9109C55.3769 83.8931 54.8343 84.1513 54.4185 84.6951C53.6284 85.7304 52.824 86.754 52.0327 87.7893C51.8775 87.9919 51.7342 88.2099 51.6275 88.4409C51.2023 89.3601 51.5233 90.4606 52.3573 90.9937C53.2351 91.5552 54.4019 91.4285 55.0416 90.6312C55.968 89.4774 56.8683 88.3011 57.7355 87.1022C58.2117 86.4436 58.2306 85.6925 57.8397 84.9723C57.4618 84.2769 56.8636 83.9061 56.0557 83.9109Z"
                fill="#457A41" />
            <path
                d="M62.3924 16.8934C57.8008 16.8887 54.1463 17.9607 50.8293 20.1689C49.3841 21.132 47.9472 22.1081 46.4735 23.0262C45.0401 23.9194 43.4965 24.5768 41.8049 24.8055C41.3453 24.8671 41.3311 25.1395 41.3796 25.4795C41.7492 28.0798 42.2432 30.6528 42.9741 33.1796C44.3009 37.7617 46.246 42.0595 48.8285 46.0694C48.8818 46.1524 48.9375 46.2341 48.9884 46.3182C49.358 46.9378 49.2502 47.5727 48.7148 47.934C48.1699 48.3013 47.5444 48.184 47.1191 47.5739C46.4202 46.5693 45.8089 45.5079 45.2119 44.4394C42.0501 38.7911 40.1239 32.733 39.2023 26.3431C39.0897 25.5624 38.9962 24.7782 38.944 23.9916C38.8931 23.2276 39.3196 22.672 40.0659 22.6743C42.7633 22.6814 44.9477 21.421 47.0694 19.9663C49.0228 18.6277 50.949 17.2203 53.1666 16.3461C60.471 13.4675 67.4543 14.0894 74.0586 18.399C75.2645 19.1856 76.4314 20.0326 77.6243 20.8417C79.4024 22.0477 81.3168 22.8615 83.5036 22.9634C84.392 23.0049 84.7782 23.5664 84.6728 24.4489C84.0627 29.5736 82.8248 34.5324 80.7955 39.2851C79.7163 41.8131 78.437 44.2368 76.9692 46.561C76.8958 46.6783 76.8211 46.7956 76.7346 46.9022C76.3165 47.4163 75.7301 47.5265 75.2112 47.1925C74.69 46.8572 74.5419 46.2104 74.8795 45.6288C75.4434 44.6562 76.0476 43.7049 76.5913 42.7217C79.5339 37.3933 81.3689 31.6964 82.21 25.6738C82.2526 25.3658 82.281 25.1218 81.8854 25.0637C79.4048 24.6989 77.3435 23.4266 75.3427 22.0299C73.644 20.8441 71.9654 19.6287 70.0889 18.7213C67.4614 17.4502 64.6717 16.9408 62.3936 16.8922L62.3924 16.8934Z"
                fill="#457A41" />
            <path
                d="M70.507 30.5591C70.5307 30.9168 70.3613 31.2379 70.0829 31.5163C66.9283 34.6697 63.7784 37.8267 60.6178 40.9743C59.9864 41.6033 59.2662 41.6021 58.6336 40.9755C56.9372 39.2957 55.2479 37.6064 53.5681 35.91C52.9734 35.3094 52.9367 34.5856 53.4343 34.062C53.9602 33.5088 54.703 33.51 55.3249 34.1189C56.6221 35.3888 57.9098 36.6705 59.1761 37.9713C59.5149 38.3195 59.721 38.3314 60.0717 37.9772C62.7241 35.2987 65.3942 32.6381 68.0632 29.9762C68.2574 29.7832 68.4612 29.583 68.6981 29.4515C69.525 28.9906 70.4928 29.5687 70.5094 30.5591H70.507Z"
                fill="#457A41" />
        </g>
    </g>
    <defs>
        <clipPath id="clip0_3014_18851">
            <rect width="126" height="106" fill="white" transform="translate(0 0.5)" />
        </clipPath>
        <clipPath id="clip1_3014_18851">
            <rect width="80.36" height="79.3768" fill="white" transform="translate(21.6401 14.5833)" />
        </clipPath>
    </defs>
</svg>