<svg width="126" height="111" viewBox="0 0 126 111" fill="currentColor" xmlns="http://www.w3.org/2000/svg">
    <g clip-path="url(#clip0_3014_15880)">
        <circle cx="60" cy="53.5" r="53" fill="#ECE8D4" />
        <path
            d="M15.7042 49.9569C16.8015 50.4461 17.4384 51.3002 17.615 52.5219C17.7945 53.7668 17.4616 55.0551 16.6162 56.3897C15.7707 57.7214 14.6474 58.9228 13.2518 59.994C11.8534 61.0652 10.4811 61.8324 9.12895 62.2956C11.5668 62.09 13.6051 62.3506 15.238 63.0801C16.871 63.8097 17.8206 65.0951 18.0899 66.9392C18.3215 68.5431 17.9625 70.0803 17.0157 71.551C16.0661 73.0217 14.7342 74.2521 13.0231 75.2451C11.3091 76.2381 9.4706 76.8779 7.50759 77.1616C6.43055 77.318 5.42009 77.3411 4.47333 77.234C3.52947 77.1269 2.713 76.8895 2.02392 76.5247C0.851328 75.8646 0.191202 75.0048 0.0377521 73.951C-0.08385 73.1144 0.11303 72.3211 0.628391 71.5742C1.14375 70.8273 1.91679 70.3785 2.94462 70.2309C3.68581 70.1238 4.30541 70.2164 4.8005 70.5117C5.29559 70.807 5.59091 71.2905 5.68935 71.9592C5.80806 72.7727 5.62276 73.5689 5.13635 74.3505C4.64994 75.1293 3.97534 75.6678 3.11544 75.9631C3.44551 76.2092 3.92902 76.3886 4.56888 76.5044C5.20873 76.6202 5.90071 76.6231 6.6419 76.516C7.91004 76.3336 9.04499 75.8444 10.041 75.0511C11.0398 74.2608 11.7868 73.2157 12.2848 71.9216C12.7828 70.6275 12.916 69.1771 12.6815 67.5732C12.4585 66.0418 11.9837 64.8577 11.2512 64.021C10.5187 63.1872 9.61826 62.7848 8.547 62.8167C7.85792 63.4536 7.30782 63.8039 6.90248 63.8618C6.49424 63.9197 6.26841 63.7836 6.21919 63.4478C6.16997 63.112 6.36106 62.8717 6.79246 62.724C7.22386 62.5764 7.69289 62.478 8.19957 62.4287C9.5893 61.5689 10.6866 60.3935 11.4857 58.9113C12.2848 57.4261 12.5657 55.857 12.3254 54.2068C12.0098 52.0268 10.9298 51.0715 9.08552 51.3378C8.10402 51.4797 7.14279 51.8937 6.20471 52.5798C5.26375 53.2659 4.51676 54.0823 3.95508 55.0319C3.39629 55.9815 3.18203 56.9108 3.31232 57.8198C3.48604 59.0184 4.26487 59.5163 5.65461 59.3137C6.37264 59.2094 7.02698 58.9634 7.62051 58.5696C8.21115 58.1788 8.80758 57.6085 9.4098 56.8616L9.91358 57.3016C9.29978 58.1238 8.60201 58.7636 7.82608 59.2181C7.04724 59.6727 6.28868 59.9535 5.54459 60.0606C4.77734 60.1706 4.10563 60.0809 3.52368 59.7856C2.94173 59.4903 2.5856 58.8881 2.45532 57.9791C2.2787 56.7573 2.5914 55.5443 3.39629 54.3429C4.19828 53.1385 5.33323 52.1079 6.79825 51.2481C8.26326 50.3882 9.85857 49.8353 11.5813 49.5834C13.2345 49.3431 14.6097 49.4705 15.707 49.9569H15.7042Z"
            fill="#457A41" />
        <path
            d="M38.1252 47.6468C39.3962 48.7354 40.2127 50.5477 40.5804 53.0837C40.9973 55.9556 40.7541 58.9636 39.8508 62.0989C38.9475 65.2371 37.5346 67.9237 35.6092 70.1558C33.6838 72.3908 31.5008 73.6849 29.0572 74.0381C27.1897 74.3073 25.6321 73.8991 24.3871 72.8077C23.1421 71.7162 22.3343 69.9011 21.9666 67.365C21.5555 64.5163 21.7929 61.517 22.6818 58.3701C23.5706 55.2232 24.9661 52.5337 26.8683 50.3016C28.7705 48.0724 30.942 46.7783 33.3856 46.4251C35.2763 46.1501 36.8571 46.5583 38.1281 47.6439L38.1252 47.6468ZM29.5117 50.7098C28.4955 52.8984 27.789 55.6603 27.3924 58.9925C26.9957 62.3247 27.0421 65.6917 27.5343 69.0933C27.7572 70.6248 28.0438 71.7278 28.3971 72.3966C28.7503 73.0653 29.1904 73.3635 29.7173 73.2883C30.8899 73.1174 31.9843 71.9392 33.0006 69.7505C34.0168 67.5619 34.729 64.8 35.1373 61.4649C35.5484 58.1298 35.505 54.7629 35.0128 51.3612C34.7898 49.8297 34.4974 48.7296 34.1326 48.0608C33.7678 47.3921 33.3219 47.0968 32.795 47.172C31.6224 47.3429 30.528 48.5211 29.5117 50.7098Z"
            fill="#457A41" />
        <path
            d="M76.6585 57.6172C75.6915 60.3965 73.992 62.8051 71.5628 64.8433C69.1308 66.8814 66.0241 68.1755 62.2429 68.7226L60.4768 68.9426C59.0812 69.0961 57.8565 69.2495 56.8026 69.4001C54.4806 69.7359 52.6884 70.0312 51.4319 70.2888V69.5564C52.2426 69.3914 52.8448 69.2061 53.2443 69.0005C53.641 68.795 53.9363 68.4679 54.1274 68.0104C54.3185 67.5559 54.469 66.8669 54.5791 65.9463L56.7071 47.4527C56.8055 46.7782 56.8258 46.2513 56.7708 45.8662C56.6955 45.3393 56.4639 44.9804 56.0846 44.7922C55.7024 44.604 55.0655 44.5606 54.1766 44.6648V43.9295C55.2681 43.8455 56.8548 43.6515 58.9365 43.3504L60.0859 43.1854C62.5903 42.7512 64.368 42.4559 65.4219 42.3024C68.9426 41.7929 71.7336 42.1287 73.8009 43.307C75.8652 44.4882 77.1044 46.4916 77.5126 49.3142C77.9122 52.0674 77.6284 54.8351 76.6614 57.6143L76.6585 57.6172ZM68.1348 64.6059C69.6838 62.6459 70.7406 60.2633 71.2993 57.4551C71.8581 54.6498 71.9334 51.8329 71.5252 49.0074C71.2009 46.7579 70.4887 45.1309 69.3885 44.1292C68.2911 43.1275 66.7364 42.7714 64.7241 43.0609C64.1017 43.1507 63.6529 43.2954 63.3749 43.4952C63.097 43.695 62.8943 44.0105 62.7611 44.4448C62.628 44.879 62.5093 45.5796 62.405 46.5495L60.3001 65.1878C60.1901 66.2792 60.1525 66.9566 60.1901 67.2201C60.248 67.6283 60.4275 67.8946 60.7287 68.022C61.0269 68.1494 61.5017 68.1668 62.1473 68.0741C64.591 67.7209 66.5858 66.5629 68.1348 64.603V64.6059Z"
            fill="#457A41" />
        <path
            d="M98.978 62.0903C99.366 62.4001 99.7771 62.5361 100.211 62.4985L100.171 63.2367C98.9404 63.341 97.1974 63.5581 94.9478 63.8823C92.5041 64.2355 90.7148 64.5308 89.5741 64.7711L89.6146 64.0329C90.4224 63.8679 91.042 63.6739 91.4734 63.451C91.9048 63.2309 92.1856 62.8951 92.3188 62.4493C92.4491 62.0035 92.4317 61.3752 92.2667 60.5675L91.0912 54.7253L83.3319 55.8486L80.8216 60.7962C80.2107 61.9832 79.956 62.927 80.0573 63.6189C80.1413 64.1921 80.4597 64.5829 81.0127 64.7827C81.5686 64.9825 82.3388 65.0375 83.329 64.9419L83.2537 65.6859C81.2328 65.906 79.6693 66.0942 78.5691 66.2534C77.6832 66.3808 76.8638 66.5371 76.1052 66.7195L76.1458 65.9812C76.7451 65.7236 77.2981 65.2777 77.8048 64.6408C78.3114 64.0068 78.9281 62.9878 79.6548 61.5866L91.5805 38.3364C91.8006 38.3307 92.1133 38.2959 92.5186 38.238C92.95 38.1743 93.2482 38.1193 93.4104 38.073L98.1181 60.4546C98.3034 61.2334 98.59 61.7805 98.978 62.0903ZM90.9523 54.0102L89.108 44.5608L83.7314 55.0553L90.9523 54.0102Z"
            fill="#457A41" />
        <path
            d="M124.741 34.1038C125.424 34.6047 125.829 35.2966 125.96 36.1825C126.093 37.0915 125.896 37.9021 125.378 38.6143C124.856 39.3265 124.118 39.7492 123.16 39.8881C122.369 40.001 121.73 39.8939 121.243 39.561C120.754 39.2281 120.461 38.7272 120.366 38.0556C120.276 37.2623 120.438 36.5357 120.858 35.8756C121.275 35.2155 121.863 34.7089 122.618 34.3557C122.485 34.2775 122.274 34.2602 121.987 34.3007C121.269 34.4049 120.589 34.7842 119.952 35.4384C118.985 36.362 117.977 38.015 116.929 40.4035C115.881 42.7919 115.039 45.6695 114.402 49.0365L113.524 57.4147C113.464 58.0111 113.461 58.5004 113.516 58.8825C113.605 59.505 113.869 59.8958 114.309 60.0521C114.746 60.2085 115.484 60.2374 116.521 60.1361L116.446 60.8801C115.07 61.0046 113.006 61.268 110.253 61.6676C107.667 62.041 105.745 62.3566 104.485 62.6113L104.561 61.8673C105.415 61.6936 106.049 61.5054 106.457 61.2999C106.868 61.0943 107.172 60.7614 107.378 60.304C107.58 59.8466 107.725 59.1604 107.812 58.2427L108.634 50.2408C107.777 47.0157 106.848 44.3147 105.849 42.1376C104.85 39.9605 103.834 38.9443 102.806 39.0949C102.398 39.1528 102.091 39.3468 101.879 39.6681C101.668 39.9895 101.509 40.444 101.396 41.0201L100.97 43.3911L100.18 43.504L100.678 40.609C100.936 39.1788 101.445 38.1019 102.21 37.381C102.971 36.6602 103.964 36.2114 105.186 36.0348C106.744 35.809 108.041 36.1159 109.077 36.9555C110.114 37.795 110.985 39.0746 111.686 40.7943C112.386 42.5139 113.125 44.8705 113.901 47.864C114.364 45.4987 114.969 43.3448 115.716 41.4051C116.463 39.4655 117.308 37.8008 118.258 36.417C119.408 34.735 120.713 33.7883 122.175 33.5769C123.206 33.4293 124.06 33.603 124.746 34.1038H124.741Z"
            fill="#457A41" />
        <path
            d="M18.6225 29.3157L26.017 32.6971L25.1919 34.4978L20.7592 32.4684L24.4362 36.1509L23.7703 37.6042L18.5646 37.2365L23.0088 39.2688L22.1837 41.0696L14.792 37.6881L15.7648 35.5603L21.8333 35.8266L17.6554 31.432L18.6225 29.3157Z"
            fill="#457A41" />
        <path
            d="M28.1216 29.1619C27.4412 29.4195 26.7348 29.489 26.0081 29.3645C25.2785 29.24 24.6097 28.9216 24.0016 28.412C23.3936 27.9025 22.968 27.2974 22.7248 26.6026C22.4816 25.9078 22.4295 25.2043 22.5685 24.4864C22.7075 23.7713 23.023 23.1199 23.5152 22.5351C24.0074 21.9503 24.5952 21.5276 25.2756 21.27C25.9589 21.0123 26.6595 20.9457 27.3804 21.0731C28.1014 21.2005 28.7673 21.5189 29.3753 22.0314C29.9833 22.5438 30.4118 23.1459 30.6608 23.8408C30.9098 24.5327 30.9648 25.2391 30.8287 25.9512C30.6927 26.6634 30.38 27.3119 29.8878 27.8967C29.3956 28.4815 28.8078 28.9042 28.1274 29.1619H28.1216ZM29.0076 25.1233C28.9265 24.5472 28.6167 24.0289 28.0724 23.5715C27.5223 23.1083 26.9577 22.8912 26.3787 22.9115C25.7996 22.9346 25.3016 23.1923 24.8847 23.6902C24.462 24.1911 24.2883 24.7295 24.3636 25.2999C24.4359 25.8702 24.7515 26.3913 25.3074 26.8574C25.8575 27.3206 26.4221 27.5406 27.0012 27.5175C27.5802 27.4943 28.0811 27.2338 28.5038 26.73C28.9207 26.235 29.0916 25.6965 29.0105 25.1204L29.0076 25.1233Z"
            fill="#457A41" />
        <path
            d="M39.9491 19.0727L38.3422 20.2307L32.7254 18.0971L35.6554 22.1675L34.0485 23.3255L29.2974 16.7277L30.9042 15.5697L36.5356 17.7236L33.5911 13.6358L35.198 12.4778L39.9491 19.0756V19.0727Z"
            fill="#457A41" />
        <path
            d="M41.3014 11.1921L41.9616 12.6975L44.3907 11.6322L45.0045 13.0334L42.5754 14.0987L43.2934 15.7315L46.041 14.5272L46.678 15.9805L42.1179 17.981L38.8491 10.5378L43.4092 8.53735L44.0462 9.99067L41.2985 11.195L41.3014 11.1921Z"
            fill="#457A41" />
        <path
            d="M53.945 5.80469L52.3353 11.7164L52.8998 14.3422L50.9629 14.7591L50.3983 12.1333L46.5042 7.40275L48.7017 6.93086L50.9571 9.93013L51.7707 6.27368L53.945 5.80758V5.80469Z"
            fill="#457A41" />
        <path
            d="M67.4834 10.7061C67.7324 11.0999 67.8337 11.5312 67.7845 11.9973C67.7179 12.6719 67.4284 13.1872 66.9159 13.5346C66.4034 13.8849 65.7259 14.0152 64.8805 13.9312L61.1108 13.5578L61.9157 5.46899L65.558 5.83087C66.3803 5.91194 67.0056 6.16381 67.4312 6.58648C67.8598 7.00916 68.0393 7.54185 67.9756 8.18744C67.9292 8.66512 67.7642 9.04727 67.4834 9.33678C67.2025 9.62628 66.8493 9.81156 66.4208 9.89552C66.8783 10.0432 67.2315 10.3124 67.4805 10.7061H67.4834ZM65.4827 12.1594C65.6767 12.0263 65.7896 11.8178 65.8186 11.5341C65.8475 11.2504 65.7751 11.0188 65.6014 10.8364C65.4277 10.6569 65.1787 10.5498 64.8487 10.518L63.4184 10.3761L63.2418 12.1623L64.6923 12.3071C65.0224 12.3389 65.2858 12.2897 65.4798 12.1594H65.4827ZM63.5631 8.93726L64.8544 9.06464C65.1758 9.09649 65.4306 9.05017 65.6188 8.92568C65.807 8.80119 65.9141 8.60143 65.9402 8.32351C65.9691 8.04558 65.9025 7.82846 65.7433 7.66344C65.5841 7.50132 65.3437 7.40288 65.0224 7.37104L63.7311 7.24366L63.5631 8.93726Z"
            fill="#457A41" />
        <path
            d="M74.8925 14.8776L72.0175 13.9107L71.0997 15.1179L69.1338 14.4578L74.5132 7.68921L76.6876 8.42166L76.8845 17.0634L74.8983 16.3946V14.8776H74.8925ZM74.8954 13.2651L74.8896 10.1239L72.9961 12.6282L74.8954 13.268V13.2651Z"
            fill="#457A41" />
        <path
            d="M82.009 12.7355C82.6402 12.391 83.3119 12.2347 84.0241 12.2723C84.7364 12.3071 85.4255 12.5358 86.0914 12.9585C86.905 13.4767 87.4666 14.1338 87.7735 14.93C88.0804 15.729 88.0978 16.5599 87.8199 17.4284L85.9814 16.2617C86.0277 15.8882 85.9698 15.5466 85.8134 15.2369C85.6571 14.9271 85.4197 14.6723 85.1012 14.4697C84.5858 14.1425 84.056 14.0586 83.5088 14.2149C82.9616 14.3712 82.4983 14.7505 82.119 15.3498C81.7369 15.949 81.595 16.5309 81.6876 17.0926C81.7803 17.6542 82.0843 18.0972 82.5968 18.4243C82.9152 18.627 83.2482 18.7341 83.5956 18.7428C83.9431 18.7514 84.2731 18.6559 84.5945 18.4561L86.433 19.6228C85.7671 20.2424 85.0056 20.5811 84.1544 20.639C83.3032 20.6969 82.4694 20.4682 81.6558 19.9529C80.9899 19.5302 80.489 19.0062 80.1531 18.3751C79.8173 17.7469 79.6696 17.0752 79.7102 16.3601C79.7507 15.6451 79.9881 14.9502 80.4166 14.2728C80.8451 13.5954 81.3778 13.0829 82.0061 12.7384L82.009 12.7355Z"
            fill="#457A41" />
        <path
            d="M89.8612 26.7824L90.5416 22.3212L87.959 24.8167L86.5837 23.3923L92.4293 17.7412L93.8075 19.1656L91.2423 21.6437L95.6894 21.1139L97.3079 22.7873L92.2527 23.291L91.5434 28.5195L89.8612 26.7795V26.7824Z"
            fill="#457A41" />
        <path
            d="M31.6629 85.5635C31.7526 85.2653 31.7497 84.9642 31.6571 84.6661C31.5644 84.365 31.382 84.0842 31.1186 83.8149C30.6582 83.3546 30.14 83.1346 29.558 83.1577C28.9789 83.1809 28.4346 83.4472 27.9308 83.951C27.3923 84.4895 27.1173 85.054 27.1028 85.6475C27.0912 86.241 27.3402 86.7939 27.8498 87.3063C28.2001 87.6566 28.5823 87.8651 29.0021 87.9288C29.4219 87.9925 29.8533 87.9143 30.2963 87.6943L28.4925 85.8849L29.5435 84.8369L32.6357 87.9375L31.3096 89.2576C30.8493 89.5066 30.3397 89.6571 29.7809 89.7092C29.2221 89.7613 28.6547 89.6861 28.0785 89.4863C27.5023 89.2865 26.9696 88.942 26.4832 88.4528C25.907 87.8738 25.5191 87.234 25.3222 86.5276C25.1224 85.8241 25.1224 85.1206 25.3222 84.4171C25.5191 83.7165 25.907 83.0767 26.4861 82.5006C27.0652 81.9244 27.705 81.5365 28.4115 81.3397C29.115 81.1428 29.8186 81.1399 30.5221 81.3397C31.2228 81.5365 31.8626 81.9244 32.4388 82.5035C33.1366 83.2041 33.5564 83.9626 33.6954 84.7819C33.8343 85.6012 33.6838 86.3857 33.2379 87.1413L31.6687 85.5664L31.6629 85.5635Z"
            fill="#457A41" />
        <path
            d="M38.6897 87.7402L36.1331 91.9728C35.8783 92.3955 35.7857 92.7834 35.8552 93.1395C35.9247 93.4927 36.1621 93.7909 36.5645 94.0341C36.967 94.2773 37.3463 94.3496 37.6995 94.2512C38.0527 94.1528 38.3567 93.8922 38.6115 93.4695L41.168 89.237L42.8907 90.2763L40.34 94.4973C39.9578 95.1284 39.5003 95.5829 38.9676 95.8551C38.4349 96.1301 37.8761 96.2401 37.2883 96.188C36.7006 96.1359 36.1302 95.9419 35.5714 95.6061C35.0127 95.2703 34.5813 94.8592 34.2715 94.3757C33.9617 93.8922 33.814 93.3537 33.8256 92.7603C33.8343 92.1668 34.0311 91.553 34.4133 90.9219L36.9641 86.7009L38.6868 87.7402H38.6897Z"
            fill="#457A41" />
        <path
            d="M48.1425 99.3583L45.1951 98.4521L44.2947 99.7028L42.2795 99.0833L47.5663 92.0657L49.7928 92.7518L50.2213 101.53L48.1859 100.904L48.1425 99.3641V99.3583ZM48.1049 97.7226L48.0151 94.5294L46.1592 97.1233L48.1049 97.7226Z"
            fill="#457A41" />
        <path
            d="M58.4066 102.389L56.8865 99.1669L56.4059 99.1379L56.209 102.25L54.1997 102.123L54.7209 93.8748L58.0939 94.089C58.7453 94.1295 59.2896 94.2801 59.7355 94.5348C60.1785 94.7896 60.5027 95.1225 60.7054 95.5336C60.9081 95.9447 60.9949 96.3905 60.9631 96.8769C60.9284 97.4241 60.7431 97.9047 60.4072 98.3158C60.0713 98.7269 59.5965 99.0048 58.9798 99.1466L60.6765 102.534L58.4095 102.389H58.4066ZM56.4957 97.7165L57.7406 97.7947C58.1083 97.8178 58.3892 97.7454 58.5861 97.5775C58.7801 97.4096 58.8901 97.1606 58.9103 96.8306C58.9306 96.5179 58.8524 96.2661 58.6816 96.0721C58.5079 95.881 58.2386 95.7739 57.8709 95.7507L56.626 95.6726L56.4957 97.7165Z"
            fill="#457A41" />
        <path
            d="M69.7938 100.013L66.7538 100.54L66.5164 102.062L64.4404 102.421L65.9807 93.7709L68.2767 93.3743L72.6312 101.009L70.5321 101.37L69.7967 100.015L69.7938 100.013ZM69.0179 98.5709L67.4921 95.7627L67.0085 98.9154L69.015 98.568L69.0179 98.5709Z"
            fill="#457A41" />
        <path
            d="M83.2972 96.7296L81.4586 97.5518L76.3021 94.2775L78.3838 98.9298L76.5482 99.752L73.1694 92.2104L75.005 91.3883L80.1702 94.6857L78.0769 90.0131L79.9154 89.1909L83.2943 96.7325L83.2972 96.7296Z"
            fill="#457A41" />
        <path
            d="M86.8674 84.1274L87.846 85.4099L86.1059 86.7387L90.1419 92.0222L88.5408 93.2439L84.5048 87.9576L82.7647 89.2864L81.7861 88.0039L86.8645 84.1245L86.8674 84.1274Z"
            fill="#457A41" />
        <path
            d="M91.0106 82.0775L92.2671 83.1805L94.0448 81.1569L95.2116 82.1818L93.431 84.2054L94.7947 85.401L96.8069 83.1111L98.0172 84.1764L94.676 87.9776L88.4685 82.5263L91.8097 78.7222L93.0199 79.7875L91.0077 82.0775H91.0106Z"
            fill="#457A41" />
        <path
            d="M95.7268 75.6824L97.1716 76.5248L98.5295 74.1972L99.8729 74.9789L98.515 77.3065L100.081 78.2184L101.619 75.5839L103.011 76.3975L100.461 80.769L93.3237 76.6059L95.8745 72.2344L97.2671 73.0479L95.7297 75.6795L95.7268 75.6824Z"
            fill="#457A41" />
    </g>
    <defs>
        <clipPath id="clip0_3014_15880">
            <rect width="126" height="110" fill="white" transform="translate(0 0.5)" />
        </clipPath>
    </defs>
</svg>