<svg width="126" height="113" viewBox="0 0 126 113" fill="currentColor" xmlns="http://www.w3.org/2000/svg">
    <g clip-path="url(#clip0_3014_18880)">
        <circle cx="63" cy="56.5" r="53" fill="#ECE8D4" />
        <path
            d="M58.184 24.0158C62.6578 24.0158 67.1334 24.0435 71.6072 24.0002C73.1973 23.9846 74.3071 24.8758 74.8654 26.1779C76.5839 30.183 79.3826 33.1998 83.2079 35.277C83.9188 35.6636 84.6662 35.967 85.3962 36.3103C86.5841 36.8686 87.3245 37.7841 87.328 39.1399C87.3401 44.2061 87.328 49.2723 87.321 54.3385C87.321 54.8726 87.1476 55.3892 87.1528 55.9285C87.1563 56.2527 87.2395 56.4538 87.5343 56.6237C90.6885 58.4442 93.111 60.9825 94.8259 64.1849C95.5612 65.5598 96.0831 67.018 96.4767 68.5385C97.0247 70.6538 97.0906 72.7968 96.9102 74.9346C96.6571 77.9549 95.634 80.7446 93.9606 83.2829C91.5711 86.9066 88.3337 89.4397 84.25 90.9342C81.6351 91.8913 78.9387 92.1375 76.2058 91.9277C73.0187 91.6833 70.0656 90.6516 67.4247 88.8277C66.8195 88.4098 66.3877 88.3474 65.7167 88.7548C63.6688 89.998 61.5012 91.0244 59.2418 91.8254C58.3193 92.1531 57.3811 91.9849 56.4621 91.607C53.8662 90.5441 51.371 89.2923 49.0057 87.7856C46.2954 86.0588 43.7932 84.0701 41.5095 81.8074C38.6848 79.0073 36.2953 75.8708 34.3497 72.4049C32.6625 69.402 31.3498 66.2429 30.4602 62.9088C30.0111 61.2235 29.6747 59.5227 29.4198 57.7975C29.1285 55.8071 29.0036 53.8167 29.0123 51.8089C29.0279 47.6512 29.0452 43.4935 29.0002 39.3376C28.9863 38.0459 29.8498 36.7316 31.159 36.2045C34.9028 34.6961 37.9062 32.2688 40.0859 28.8393C40.7153 27.8475 41.1696 26.7743 41.7141 25.7427C42.3054 24.6192 43.247 24.0158 44.5423 24.0158C49.089 24.0158 53.6356 24.0158 58.1823 24.0158H58.184ZM58.1996 26.1276C56.0494 26.1276 53.8975 26.1276 51.7473 26.1276C49.4809 26.1276 47.2145 26.1328 44.9481 26.1241C44.2389 26.1224 43.7412 26.3877 43.4638 27.0725C42.7667 28.7959 41.8026 30.3668 40.6442 31.8163C38.3813 34.6476 35.5566 36.7368 32.2168 38.1291C31.3394 38.4949 31.1209 38.7515 31.1313 39.7138C31.1851 44.7488 30.9891 49.7873 31.2839 54.8205C31.3533 56.0013 31.485 57.1768 31.6845 58.3367C31.9168 59.6943 32.2116 61.0432 32.5775 62.3765C33.1896 64.608 33.9786 66.7718 34.9687 68.8593C36.4981 72.0807 38.4281 75.0473 40.7361 77.7676C42.7892 80.188 45.1128 82.3224 47.6567 84.2122C50.5178 86.3379 53.6061 88.0752 56.9078 89.4206C57.454 89.6426 57.9967 90.0032 58.6435 89.7396C59.1377 89.5385 59.6337 89.3461 60.1244 89.1363C61.6105 88.4982 63.048 87.7648 64.4629 86.9829C64.7491 86.8251 64.7629 86.7055 64.5323 86.4801C63.6982 85.6582 62.9145 84.7931 62.2833 83.8013C62.1289 83.5586 61.9694 83.5759 61.7405 83.6938C60.8822 84.1359 60.0151 84.5642 59.1499 84.9925C58.5742 85.2768 57.9655 85.3167 57.3881 85.0635C55.9193 84.422 54.4992 83.68 53.1362 82.8373C50.934 81.4763 48.8792 79.9228 46.9769 78.1612C44.5683 75.9315 42.5066 73.421 40.776 70.6347C39.4928 68.5697 38.4472 66.3886 37.6027 64.1103C36.9299 62.2968 36.434 60.4312 36.0629 58.5379C35.6641 56.4972 35.4699 54.427 35.4542 52.3499C35.4282 49.0885 35.4404 45.8255 35.4456 42.5625C35.4456 41.7302 35.8115 41.1008 36.5571 40.6951C36.9871 40.4611 37.405 40.2027 37.8195 39.9409C40.0044 38.5556 41.9309 36.8755 43.6025 34.899C44.4816 33.8604 45.2689 32.7595 45.9486 31.5822C46.4498 30.7135 47.1573 30.3373 48.189 30.3408C54.8876 30.3685 61.5844 30.365 68.283 30.3442C69.2506 30.3408 69.9044 30.7361 70.376 31.5319C71.0904 32.7386 71.8916 33.8795 72.8002 34.951C74.7336 37.231 76.9896 39.1139 79.6028 40.5651C80.4993 41.0627 80.9415 41.7666 80.9328 42.8052C80.9103 45.2447 80.9259 47.6842 80.9276 50.1236C80.9276 50.3854 80.9242 50.6455 80.8357 50.8935C80.6849 51.3096 80.4039 51.5644 79.9427 51.5904C79.1936 51.6321 78.7462 51.2003 78.7445 50.3976C78.7393 47.972 78.7341 45.5481 78.7497 43.1225C78.7514 42.741 78.6283 42.5226 78.2954 42.3336C76.492 41.3141 74.8446 40.0796 73.3308 38.6648C71.4962 36.9501 69.9252 35.0203 68.6229 32.8739C68.453 32.5947 68.2588 32.515 67.957 32.5167C61.4475 32.5219 54.9361 32.5237 48.4266 32.5132C48.0572 32.5132 47.8491 32.6537 47.6671 32.9571C47.3116 33.5501 46.9509 34.1448 46.5399 34.7013C44.2441 37.8187 41.4523 40.3952 38.0865 42.3284C37.7362 42.5295 37.6166 42.7618 37.6201 43.1554C37.6357 45.6521 37.6409 48.1506 37.6235 50.6473C37.6062 53.248 37.7848 55.8244 38.2877 58.3818C38.605 59.9977 39.0368 61.572 39.5847 63.1238C40.9962 67.1168 43.1152 70.6919 45.8775 73.8926C47.6289 75.9229 49.6023 77.7139 51.7629 79.2969C53.6755 80.6978 55.7095 81.9011 57.8649 82.8963C58.08 82.9951 58.2568 83.0194 58.4753 82.9101C59.1343 82.5842 59.8036 82.279 60.4382 81.9063C60.9689 81.5942 60.9723 81.608 60.6914 81.0515C59.8938 79.4668 59.3631 77.7832 59.1273 76.039C58.9296 74.5774 58.7822 73.1106 58.9504 71.6056C59.1412 69.9048 59.4325 68.2507 60.0117 66.64C61.2411 63.2261 63.2855 60.3982 66.1346 58.1633C66.6166 57.7854 66.8386 57.4213 66.8004 56.8058C66.7415 55.84 66.3496 55.4083 65.3872 55.4083C60.5943 55.4083 55.8014 55.4205 51.0103 55.3962C50.0947 55.391 49.571 55.8539 49.5814 56.8196C49.5919 57.7576 49.5814 58.6956 49.5814 59.6336C49.5814 61.1351 49.571 62.6366 49.5866 64.1381C49.5971 65.1402 49.9924 65.513 50.9895 65.5147C52.7218 65.5147 54.4541 65.5147 56.1864 65.5147C56.417 65.5147 56.6459 65.5113 56.8609 65.6274C57.3031 65.8667 57.5389 66.3539 57.4314 66.829C57.3083 67.3682 56.9008 67.6907 56.2419 67.6941C54.3657 67.7063 52.4877 67.7236 50.6132 67.6889C48.6988 67.6543 47.4087 66.0314 47.4468 64.4207C47.5093 61.7524 47.4607 59.0805 47.4659 56.4105C47.4694 54.9489 48.404 53.7439 49.8051 53.3381C50.1502 53.2393 50.6496 53.4023 50.8143 53.0261C50.9531 52.7088 50.849 52.2874 50.8664 51.9129C50.9323 50.4323 50.6947 48.9377 51.0172 47.4674C51.6276 44.6951 53.3096 42.8503 55.9852 41.9695C58.1545 41.2552 60.2475 41.5759 62.1584 42.8087C64.0884 44.0518 65.2103 45.8411 65.4271 48.1436C65.5623 49.5966 65.4947 51.0564 65.4999 52.5146C65.5011 52.9677 65.7242 53.226 66.1692 53.2896C67.5721 53.489 68.6905 54.59 68.8865 55.9857C68.9194 56.2232 68.9645 56.296 69.2021 56.1695C69.5714 55.9753 69.9546 55.8054 70.3344 55.632C72.2436 54.7633 74.2551 54.2727 76.3359 54.1027C77.3382 54.0213 78.3456 53.971 79.3583 54.0767C80.5496 54.2016 81.7287 54.368 82.8836 54.6818C83.4819 54.8448 84.0749 55.0217 84.6523 55.2505C84.8413 55.3251 85.0789 55.3979 85.0633 55.0459C85.0286 54.1912 85.2159 53.3485 85.2176 52.499C85.2298 48.1835 85.2246 43.8663 85.2228 39.5508C85.2228 38.8278 84.9766 38.4568 84.3021 38.1932C81.8224 37.2292 79.6358 35.8023 77.7006 33.9922C75.6197 32.0451 74.0036 29.7582 72.9025 27.128C72.5921 26.3859 72.084 26.1259 71.3228 26.1276C66.9496 26.138 62.5746 26.1328 58.2013 26.1328L58.1996 26.1276ZM71.5569 72.7292C71.5569 72.0599 71.543 71.6126 71.5604 71.1653C71.602 70.0677 71.8742 69.0309 72.4274 68.0791C73.9828 65.4072 77.2341 64.1277 80.286 65.3344C82.3253 66.1406 83.6067 67.6612 84.1495 69.7955C84.4425 70.9451 84.3853 72.1154 84.3766 73.2805C84.3662 74.7525 84.0385 76.1396 83.1559 77.3532C82.9807 77.5942 82.9894 77.7052 83.2859 77.8595C86.2251 79.3836 88.2366 81.719 89.3204 84.8485C89.4816 85.3167 89.4747 85.3236 89.8198 84.9751C92.0497 82.7229 93.6017 80.0927 94.3525 76.9944C94.6976 75.5709 94.871 74.1301 94.8381 72.6754C94.8086 71.3386 94.6283 70.0123 94.2797 68.7102C93.8341 67.0526 93.163 65.4922 92.2353 64.0566C90.5429 61.4333 88.3112 59.3857 85.509 57.983C83.2859 56.8699 80.9172 56.3116 78.4428 56.1903C77.6954 56.1539 76.9497 56.244 76.2024 56.3099C74.8516 56.4295 73.5528 56.733 72.2887 57.182C69.3997 58.2084 66.9652 59.9093 64.9901 62.2604C62.9353 64.7068 61.6746 67.526 61.2168 70.6711C60.9394 72.5714 61.0001 74.4959 61.4041 76.391C61.8914 78.6762 62.8 80.7775 64.1387 82.6917C64.7283 83.5343 65.408 84.2972 66.145 85.0133C66.3895 85.2508 66.4987 85.2369 66.5906 84.8988C66.6773 84.5798 66.7987 84.2695 66.9305 83.9643C68.1027 81.2353 69.9997 79.179 72.6632 77.8526C72.9424 77.7139 72.9563 77.6203 72.7777 77.3897C72.4412 76.9545 72.1881 76.4707 71.9939 75.9523C71.5725 74.8358 71.4945 73.681 71.5569 72.7274V72.7292ZM78.2 89.8471C79.2907 89.7847 80.5843 89.6634 81.8692 89.3651C83.761 88.9248 85.4899 88.1515 87.1355 87.1372C87.5482 86.8823 87.5516 86.6136 87.4424 86.246C87.4147 86.1489 87.3644 86.0588 87.3366 85.9634C86.4245 82.8148 84.4061 80.67 81.4028 79.4165C81.1652 79.3177 80.9398 79.309 80.697 79.4269C78.8676 80.3146 77.033 80.2817 75.2018 79.4373C74.94 79.3159 74.7007 79.3315 74.4527 79.4338C71.2933 80.7481 69.2853 83.0558 68.4356 86.376C68.3437 86.7349 68.4495 86.9274 68.7495 87.1216C71.5638 88.9317 74.6487 89.8125 78.2017 89.8506L78.2 89.8471ZM58.1354 53.215C59.6943 53.215 61.2515 53.2046 62.8104 53.222C63.2058 53.2254 63.341 53.0954 63.3341 52.6984C63.315 51.4153 63.3341 50.1306 63.3237 48.8458C63.3185 48.1766 63.1936 47.5212 62.9197 46.9143C61.6226 44.0449 58.4597 43.0445 55.7702 44.4003C54.246 45.1684 53.3495 46.4566 53.1171 48.1627C52.9125 49.6694 53.0755 51.1882 53.0183 52.7001C53.0027 53.1006 53.157 53.2254 53.5472 53.222C55.0766 53.2064 56.606 53.215 58.1354 53.215ZM82.138 72.4674C82.105 71.786 82.2073 71.0456 82.0305 70.3209C81.9837 70.1267 81.9195 69.9342 81.8501 69.7453C81.1773 67.923 79.1919 66.7856 77.2775 67.1237C75.2278 67.4861 73.8181 69.1193 73.8094 71.1479C73.8059 72.0998 73.8077 73.0516 73.8129 74.0035C73.8129 74.2046 73.8285 74.4075 73.8632 74.6051C74.1666 76.3286 76.0862 77.8977 77.7908 77.8422C79.8421 77.7746 81.2762 76.8591 81.9472 74.9641C82.2282 74.17 82.112 73.3377 82.138 72.4691V72.4674Z"
            fill="#457A41" />
    </g>
    <defs>
        <clip-path id="clip0_3014_18880">
            <rect width="106" height="106" fill="white" transform="translate(10 3.5)" />
        </clip-path>
    </defs>
</svg>