<svg width="1000" height="440" viewBox="0 0 1000 440" fill="none" xmlns="http://www.w3.org/2000/svg">
<rect width="1000" height="440" fill="white"/>
<g clip-path="url(#clip0_61_55)">
<path d="M761.69 65.3092C761.69 65.3092 761.43 65.1356 761.299 65.0922C761.169 65.0922 761.126 65.0922 761.082 65.0488C756.96 63.8771 752.793 62.7054 748.584 61.7072C748.323 61.6638 748.106 61.6204 747.803 61.577C746.804 61.36 745.763 61.143 744.765 60.926C744.635 60.926 744.504 60.926 744.331 60.8392C741.206 60.2317 738.125 59.7543 734.957 59.4939C734.783 59.4939 734.61 59.4939 734.436 59.4505C733.568 59.4071 732.744 59.3637 731.876 59.3203C730.617 59.3203 729.359 59.3203 728.1 59.3203C727.709 59.3203 727.362 59.3203 726.972 59.3203C726.841 59.3203 726.755 59.3203 726.668 59.3203C726.017 59.3203 725.453 59.4071 724.845 59.5373C723.413 59.7543 722.155 60.1015 720.853 60.5355C719.377 61.0128 717.945 61.577 716.513 62.1846C716.035 62.4016 715.558 62.662 715.037 62.8789C714.56 63.0959 714.126 63.3129 713.649 63.5299C713.475 63.6167 713.301 63.7035 713.171 63.7903C712.824 63.9205 712.477 64.0507 712.173 64.1809C710.09 65.0054 708.05 65.4828 705.75 65.613C704.795 65.6564 703.797 65.6564 702.756 65.613C702.278 65.613 701.801 65.5262 701.41 65.4394C700.239 65.2224 699.284 64.9186 698.459 64.4413C697.288 63.8337 696.42 62.9657 695.682 61.8808C695.638 61.8374 695.595 61.7506 695.508 61.6638V61.6204C694.77 60.4921 694.206 59.1467 693.642 57.8014C693.512 57.4976 693.425 57.2806 693.338 57.0202C693.208 56.6296 692.948 56.4127 692.644 56.2391C692.427 56.1089 692.167 56.0655 691.863 56.0655H691.689C689.953 56.1957 688.217 56.4561 686.481 56.7598C686.091 56.8466 685.7 56.9334 685.31 57.0202C683.921 57.324 682.576 57.5844 681.23 57.8448C680.927 57.8448 680.623 57.975 680.276 58.0184C679.625 58.1052 679.017 58.2354 678.409 58.3222C678.279 58.3222 678.149 58.3656 678.019 58.3656C676.717 58.5826 675.328 58.6693 673.983 58.7127C673.766 58.7127 673.505 58.7127 673.202 58.7127C672.681 58.7127 672.204 58.7127 671.726 58.626C670.771 58.5392 669.817 58.409 668.819 58.192C667.82 57.9316 666.952 57.5844 666.171 57.1504C665.477 56.7598 664.783 56.3259 664.218 55.8485C663.828 55.5447 663.481 55.1975 663.133 54.8503C662.482 54.1994 661.831 53.4616 661.224 52.7238C660.963 52.4201 660.747 52.1597 660.486 51.8559C660.269 51.5955 660.052 51.3785 659.792 51.0747C659.575 50.8143 659.401 50.5539 659.141 50.2936C659.141 50.2936 659.097 50.2502 659.054 50.2502C658.403 49.5558 657.709 48.9048 656.971 48.2973C656.667 48.0803 656.407 47.8633 656.103 47.6897C655.235 47.1255 654.237 46.6915 653.065 46.4311C652.284 46.1708 651.546 45.9972 650.765 45.8236C649.81 45.6066 648.899 45.3896 647.901 45.2594C647.727 45.2594 647.554 45.1726 647.38 45.1726C646.512 45.0858 645.687 44.9556 644.863 44.8688C644.559 44.8254 644.342 44.8254 644.038 44.782C643.908 44.782 643.735 44.782 643.648 44.6952C643.17 44.6952 642.693 44.6084 642.216 44.565C641.868 44.5216 641.521 44.4782 641.087 44.4782C640.48 44.4348 639.872 44.3914 639.265 44.3047C637.442 44.2179 635.749 43.8273 634.057 43.3499C633.449 43.1763 632.842 43.0027 632.234 42.8291C631.627 42.6555 631.019 42.4385 630.411 42.2216C630.281 42.2216 630.194 42.2216 630.064 42.1348C629.76 42.0046 629.37 41.8744 629.023 41.7876C628.198 41.5272 627.374 41.2668 626.549 41.0064C626.419 41.0064 626.289 40.9196 626.115 40.8762C625.898 40.8762 625.724 40.746 625.464 40.7026C624.856 40.5724 624.336 40.4422 623.728 40.312C623.641 40.312 623.511 40.2686 623.468 40.2253C622.99 40.1385 622.47 40.0517 621.992 39.9215C621.775 39.9215 621.602 39.8781 621.385 39.8347C620.734 39.7045 620.039 39.6177 619.432 39.4875C618.13 39.2705 616.784 39.0535 615.526 38.8365C615.092 38.7931 614.658 38.7063 614.224 38.6195C614.094 38.6195 614.007 38.6195 613.877 38.5761C613.139 38.4025 612.358 38.2723 611.62 38.0988C610.796 37.9252 610.058 37.7516 609.233 37.4912C608.973 37.4044 608.712 37.3176 608.452 37.2742C607.628 36.9704 606.803 36.6232 605.978 36.2326C605.631 36.0591 605.371 35.9289 605.067 35.7553C604.676 35.5383 604.329 35.3213 603.982 35.1043C603.331 34.6703 602.724 34.1929 602.116 33.6722C601.508 33.108 600.988 32.457 600.467 31.8061C599.469 30.5475 598.644 28.9852 597.95 27.1625C597.82 26.8153 597.559 26.5549 597.255 26.3813C597.082 26.2945 596.908 26.2077 596.735 26.2077C596.431 26.2077 596.214 26.2077 595.91 26.2077H595.867C594.738 26.2077 593.61 26.2511 592.482 26.3379C591.961 26.3379 591.44 26.3379 590.876 26.4681C590.876 26.4681 590.746 26.4681 590.659 26.4681C590.616 26.4681 590.485 26.4681 590.442 26.4681C589.965 26.5115 589.574 26.5549 589.14 26.5983C588.532 26.6417 587.925 26.7285 587.361 26.7719C587.144 26.8153 586.883 26.8587 586.666 26.9021C586.493 26.9021 586.319 26.9021 586.102 26.9455C585.538 27.0323 585.017 27.1191 584.496 27.2059C584.279 27.2059 584.062 27.2927 583.889 27.2927C583.759 27.2927 583.629 27.3361 583.455 27.3795C583.238 27.3795 583.064 27.3795 582.891 27.4229C582.153 27.5531 581.372 27.6833 580.591 27.8135C580.374 27.8569 580.2 27.9003 579.94 27.9003C578.291 28.1606 576.728 28.4644 575.123 28.7248C574.862 28.7248 574.645 28.8116 574.428 28.855C573.256 29.0286 572.128 29.2022 570.956 29.4192C569.958 29.5494 568.96 29.6796 567.962 29.8098C567.745 29.8098 567.528 29.8532 567.311 29.8966C566.269 30.0268 565.141 30.1135 564.013 30.2003C563.188 30.2871 562.364 30.2871 561.582 30.3305C560.411 30.3305 559.239 30.3305 558.067 30.3305C557.72 30.3305 557.373 30.3305 557.026 30.3305C556.027 30.2437 554.986 30.1569 553.988 30.0268C553.771 30.0268 553.554 30.0268 553.38 29.94C553.076 29.94 552.859 29.9834 552.686 30.0701C552.599 30.0701 552.512 30.1569 552.469 30.2437C551.601 30.2437 550.603 30.1135 549.518 29.94C548.823 29.8532 548.172 29.6796 547.478 29.506C547.088 29.4192 546.74 29.3324 546.393 29.2022C545.352 28.8116 544.267 28.3776 543.399 27.8569C542.835 27.5531 542.357 27.2059 541.923 26.8587C540.795 25.9474 540.057 24.8624 539.84 23.6039C539.84 23.4303 539.753 23.2133 539.753 23.0831C539.753 22.7793 539.623 22.5623 539.449 22.3453C539.319 22.1717 539.102 21.9981 538.842 21.9113C534.459 20.6094 529.598 20.8698 524.911 21.8246C524.781 21.8246 524.694 21.8246 524.607 21.868C523.566 22.0849 522.524 22.3019 521.526 22.6057C520.919 22.7793 520.354 22.9529 519.747 23.1265C519.4 23.2567 519.096 23.3435 518.749 23.4737C518.575 23.4737 518.445 23.5605 518.315 23.6039C516.926 24.0812 515.581 24.5586 514.365 25.036C514.018 25.1662 513.671 25.3398 513.367 25.47C513.15 25.5568 512.933 25.6436 512.716 25.7304C512.239 25.9474 511.805 26.1209 511.414 26.2945C511.241 26.3813 511.024 26.4681 510.807 26.5549C508.897 27.3795 507.118 28.204 505.339 28.8984C505.035 29.0286 504.688 29.1154 504.384 29.2022C504.254 29.2456 504.167 29.289 504.037 29.3324C502.735 29.7664 501.433 30.1569 500.131 30.4173C499.914 30.4173 499.74 30.4607 499.523 30.5041C499.133 30.5909 498.699 30.6343 498.265 30.6777C496.616 30.8513 494.967 30.8513 493.144 30.6343C492.797 30.5475 492.45 30.5041 492.102 30.4607C491.625 30.3739 491.148 30.2871 490.714 30.1569C490.28 30.0268 489.846 29.8966 489.368 29.8098C489.282 29.7664 489.151 29.7664 489.021 29.6796C486.504 28.8984 484.074 28.204 481.557 27.7267C481.383 27.6833 481.166 27.6399 480.949 27.5531C480.602 27.5531 480.255 27.5097 479.908 27.4663C479.43 27.3795 478.953 27.4663 478.475 27.4663C478.172 27.4663 477.911 27.4229 477.608 27.4663C477.26 27.4663 476.913 27.5097 476.566 27.5531C476.392 27.5531 476.175 27.5531 475.958 27.5531C475.611 27.5531 475.221 27.5531 474.83 27.5531C472.617 27.5531 470.403 27.2059 468.06 24.8624C467.583 24.385 467.018 24.385 466.584 24.5586C466.237 24.5152 465.89 24.5586 465.586 24.6888C465.5 24.7322 465.413 24.819 465.283 24.8624C464.935 25.0794 464.501 25.3398 464.024 25.6002C463.503 25.904 462.982 26.2077 462.375 26.5549C462.331 26.5983 462.245 26.6417 462.158 26.6851C461.941 26.8153 461.68 26.9889 461.42 27.0757C461.29 27.1625 461.16 27.2059 461.073 27.2927C460.769 27.4663 460.509 27.5965 460.205 27.7701C459.554 28.1172 458.86 28.5078 458.122 28.8984C457.254 29.3758 456.343 29.8098 455.431 30.2871C454.954 30.5041 454.476 30.7645 454.042 30.9815C452.654 31.6325 451.178 32.2834 449.746 32.9344C448.314 33.542 446.969 34.0628 445.536 34.5401C444.669 34.8439 443.801 35.0609 442.933 35.3647C442.585 35.4081 442.282 35.5383 441.978 35.6251C441.283 35.7987 440.546 35.9289 439.895 36.0157C439.114 36.1459 438.332 36.276 437.595 36.3194C436.77 36.4062 436.032 36.4062 435.295 36.3194C434.904 36.3194 434.6 36.2326 434.253 36.1459C433.732 36.0591 433.212 35.9723 432.778 35.7987C431.779 35.4515 430.955 34.9307 430.174 34.2797C429.826 33.8892 429.479 33.4552 429.175 32.9778C428.828 32.457 428.525 31.8495 428.308 31.1551C428.221 30.8513 428.004 30.6343 427.7 30.4607C427.57 30.4173 427.483 30.3305 427.353 30.2871C427.309 30.2871 427.223 30.2437 427.136 30.2003C427.049 30.2003 427.006 30.2003 426.919 30.1135C426.572 29.9834 426.224 30.0268 425.877 30.3305C425.443 30.7211 425.053 31.1551 424.749 31.5891C424.619 31.8495 424.445 32.1098 424.272 32.3268C424.098 32.7174 423.881 33.0646 423.664 33.542C423.534 33.8458 423.36 34.1495 423.23 34.4533C422.579 35.8421 421.841 37.1006 421.06 38.229C420.886 38.4893 420.713 38.7497 420.539 39.0101C420.366 39.2271 420.236 39.4007 420.062 39.6177C420.062 39.6177 419.932 39.7913 419.888 39.8781C419.02 40.9196 418.109 42.0046 417.111 43.0461C416.851 43.3499 416.547 43.6103 416.243 43.9141C415.635 44.4782 415.115 45.0858 414.55 45.6934C413.639 46.7349 412.771 47.7765 411.903 48.8614C411.686 49.1652 411.513 49.3822 411.296 49.6426C411.165 49.8596 410.992 49.9898 410.905 50.1634C410.731 50.4238 410.514 50.6841 410.254 50.9445C410.211 51.0313 410.124 51.1615 410.037 51.2049C409.82 51.4219 409.516 51.6823 409.212 51.9427C408.995 52.2031 408.735 52.3333 408.475 52.5069C407.477 53.1144 406.305 53.4182 405.176 52.7238C404.959 52.5502 404.612 52.4201 404.222 52.2899C403.918 52.1597 403.527 52.0729 403.18 52.0729C402.746 52.0295 402.312 52.0295 401.922 52.0729C399.274 52.2465 396.714 53.5484 394.24 55.0239C393.676 55.3277 393.199 55.6749 392.591 56.0221C392.417 56.1089 392.201 56.2391 391.984 56.3259C391.68 56.5429 391.419 56.673 391.116 56.89C390.508 57.2372 389.9 57.6278 389.293 57.8882C388.815 58.1052 388.338 58.3222 387.948 58.4958C387.774 58.5826 387.557 58.6693 387.427 58.7127H387.383C386.949 58.9297 386.559 59.0165 386.168 59.1467C385.561 59.2769 384.996 59.4071 384.389 59.5373C383.695 59.7109 383.044 59.8845 382.393 60.1015C381.915 60.1883 381.438 60.3619 381.047 60.4921C380.743 60.5355 380.483 60.6223 380.223 60.709C380.006 60.7958 379.832 60.8826 379.572 60.926C379.398 60.9694 379.225 61.0996 379.008 61.1864C378.617 61.3166 378.226 61.4902 377.792 61.6204C377.662 61.7072 377.489 61.794 377.402 61.8374C376.534 62.2714 375.709 62.662 374.885 63.0091C374.407 63.2261 373.93 63.3997 373.496 63.5299C373.366 63.5733 373.192 63.5733 373.062 63.6167C372.498 63.7469 371.934 63.8337 371.37 63.7903C370.285 63.7469 369.113 63.4431 367.768 62.662C367.724 62.662 367.724 62.6186 367.637 62.5752C367.377 62.445 367.117 62.2714 366.856 62.0978C366.726 62.0544 366.683 62.011 366.639 62.011C366.466 61.9676 366.292 61.8808 366.162 61.8808C365.858 61.8808 365.554 62.011 365.381 62.1846C365.164 62.3148 364.99 62.5752 364.947 62.8789V62.9657C364.816 63.6601 364.73 64.3545 364.599 65.0488C364.513 65.613 364.426 66.1772 364.339 66.7414C364.122 68.1301 363.862 69.5188 363.601 70.9075C363.515 71.4283 363.428 71.9057 363.298 72.4265C363.254 72.7737 363.167 73.1208 363.081 73.468C362.95 74.1624 362.82 74.8134 362.69 75.5077C362.647 75.7247 362.56 75.9417 362.516 76.1587C361.648 80.1947 360.563 84.1439 359.175 88.0931C358.871 89.0045 358.567 89.9158 358.22 90.8272C358.177 90.914 358.177 91.0008 358.09 91.0876C357.96 91.4781 357.786 91.8687 357.612 92.2159C357.526 92.4329 357.439 92.7367 357.309 92.9537C357.092 93.4744 356.918 94.0386 356.658 94.5594C356.527 94.7764 356.441 95.0368 356.31 95.2972C355.573 96.8161 354.748 98.2482 353.707 99.6369C353.49 99.9841 353.229 100.288 353.012 100.592C352.318 101.546 351.537 102.458 350.712 103.282C350.408 103.586 350.148 103.847 349.844 104.194C349.627 104.411 349.367 104.628 349.15 104.845C348.759 105.192 348.412 105.539 348.021 105.886C347.761 106.103 347.501 106.364 347.24 106.581C346.937 106.798 346.633 107.058 346.416 107.275C346.286 107.362 346.199 107.405 346.112 107.492C345.331 108.056 344.506 108.664 343.768 109.228C343.638 109.315 343.465 109.401 343.378 109.488C343.335 109.488 343.334 109.575 343.248 109.575C342.727 109.966 342.119 110.356 341.555 110.703C341.208 110.92 340.817 111.181 340.47 111.398C340.21 111.571 339.949 111.702 339.689 111.875C339.429 112.049 339.168 112.179 338.951 112.309C338.908 112.353 338.778 112.439 338.734 112.439C338.691 112.439 338.691 112.483 338.604 112.526C338.257 112.743 337.823 112.96 337.476 113.134C337.302 113.22 337.172 113.351 336.998 113.437C336.912 113.437 336.781 113.524 336.695 113.568C336.478 113.611 336.261 113.654 336.087 113.698C335.653 113.785 335.262 113.871 334.872 113.958C332.962 114.392 331.14 114.783 329.317 115.087C328.796 115.173 328.275 115.217 327.798 115.26C327.494 115.304 327.234 115.347 326.973 115.347C326.843 115.347 326.713 115.39 326.583 115.39C326.192 115.39 325.715 115.434 325.281 115.434C324.977 115.434 324.76 115.477 324.5 115.477C323.805 115.477 323.111 115.477 322.373 115.477C321.983 115.477 321.592 115.39 321.202 115.39C320.507 115.347 319.813 115.26 319.075 115.13C318.858 115.13 318.598 115.043 318.294 114.956C318.077 114.956 317.86 114.913 317.6 114.87C317.426 114.826 317.209 114.739 317.035 114.739C316.167 114.522 315.343 114.262 314.432 114.002C314.215 113.958 313.998 113.915 313.824 113.871C313.65 113.828 313.52 113.828 313.347 113.871C312.609 113.871 311.871 114.175 311.611 114.696C311.611 114.739 311.567 114.783 311.567 114.826C311.394 115.087 311.263 115.347 311.177 115.607C310.96 116.041 310.656 116.475 310.482 116.909C310.352 117.17 310.265 117.387 310.092 117.604C309.918 117.994 309.745 118.428 309.484 118.862C309.267 119.426 308.963 119.991 308.66 120.598C307.705 122.855 306.837 125.068 306.012 127.412C305.188 129.885 304.45 132.402 303.799 134.963C303.582 135.787 303.322 136.655 303.105 137.48C303.018 137.784 302.974 138.087 302.888 138.391C302.758 138.825 302.671 139.303 302.541 139.693C302.367 140.474 302.193 141.299 302.02 142.08C301.499 144.554 300.978 147.027 300.457 149.501C300.371 149.978 300.284 150.499 300.154 150.977C300.11 151.28 300.023 151.584 299.98 151.931C299.98 152.018 299.937 152.148 299.937 152.279C299.806 152.886 299.676 153.494 299.503 154.145C298.852 157.486 298.114 160.785 297.333 164.126C297.159 164.821 296.986 165.515 296.812 166.209C296.595 166.99 296.378 167.815 296.161 168.553C296.074 168.857 296.031 169.074 295.901 169.377C295.857 169.551 295.814 169.725 295.77 169.898C295.467 170.766 295.163 171.677 294.816 172.502C294.469 173.457 294.121 174.411 293.687 175.323C293.557 175.627 293.47 175.887 293.253 176.191C292.342 178.274 291.3 180.357 290.216 182.353C289.999 182.744 289.782 183.178 289.565 183.568C289 184.523 288.48 185.435 287.959 186.389C287.915 186.476 287.829 186.563 287.785 186.693C287.742 186.823 287.655 186.867 287.612 186.953C287.481 187.17 287.395 187.344 287.308 187.518C286.787 188.386 286.266 189.254 285.746 190.078C285.442 190.642 285.138 191.12 284.791 191.64C284.617 191.901 284.487 192.118 284.357 192.335C282.968 194.591 281.623 196.848 280.277 199.105C280.234 199.192 280.147 199.278 280.104 199.365C280.06 199.495 279.974 199.582 279.887 199.712C279.887 199.712 279.757 199.973 279.67 200.103C279.583 200.277 279.453 200.407 279.409 200.58C279.106 201.014 278.889 201.492 278.585 201.969C278.238 202.533 277.891 203.184 277.543 203.792C277.413 204.009 277.24 204.313 277.109 204.573C276.979 204.79 276.892 205.05 276.762 205.267C276.675 205.398 276.632 205.528 276.545 205.615C276.198 206.352 275.764 207.09 275.417 207.828C275.287 208.045 275.2 208.218 275.113 208.435C274.983 208.566 274.896 208.783 274.809 209C274.679 209.217 274.592 209.39 274.505 209.564C274.375 209.824 274.288 210.041 274.158 210.302C273.768 211.126 273.377 211.951 273.03 212.819C272.856 213.166 272.726 213.513 272.596 213.904C272.553 213.947 272.553 214.077 272.466 214.164C272.336 214.468 272.249 214.685 272.162 214.902C271.945 215.422 271.771 215.943 271.554 216.464C271.424 216.768 271.337 217.028 271.251 217.289C270.947 218.157 270.643 219.025 270.383 219.892C270.252 220.413 270.079 220.891 269.905 221.368C269.775 221.802 269.602 222.193 269.471 222.627C269.254 223.277 268.994 223.928 268.777 224.579V224.753C268.603 225.144 268.473 225.534 268.3 225.925C267.779 227.183 267.301 228.355 266.824 229.57C266.303 230.872 265.783 232.217 265.305 233.606C264.741 235.212 264.264 236.861 263.873 238.597C263.396 240.55 263.092 242.633 263.048 244.846C263.048 245.063 263.048 245.28 263.048 245.497C263.048 245.714 263.048 245.931 263.048 246.148V246.495C263.048 247.146 263.048 247.71 263.092 248.361V250.097C263.092 251.052 263.092 252.05 263.135 253.048C263.135 253.743 263.135 254.437 263.179 255.132V256.911C263.222 257.649 263.222 258.386 263.222 259.124C263.222 260.296 263.222 261.468 263.265 262.596V263.985C263.265 265.33 263.265 266.675 263.265 268.021C263.265 268.975 263.265 269.974 263.265 270.972V271.449C263.265 271.796 263.265 272.143 263.265 272.447C263.265 272.968 263.265 273.532 263.265 274.053V275.398C263.265 275.398 263.265 275.789 263.222 275.963C263.222 276.657 263.179 277.351 263.135 278.046C263.135 278.263 263.135 278.523 263.135 278.74C263.135 278.914 263.135 279.087 263.092 279.261V279.651C262.918 281.778 262.701 283.861 262.397 285.857C262.267 286.638 262.094 287.463 261.92 288.244C261.92 288.374 261.877 288.548 261.877 288.678C261.747 289.329 261.573 290.067 261.399 290.718C261.356 290.978 261.269 291.195 261.226 291.456C261.052 292.15 260.879 292.801 260.618 293.452C260.488 293.886 260.401 294.276 260.184 294.71C260.054 295.014 259.967 295.405 259.837 295.795C259.707 296.273 259.49 296.75 259.316 297.271C259.143 297.661 258.969 298.052 258.839 298.443C258.622 298.963 258.405 299.441 258.231 299.918C257.928 300.526 257.624 301.09 257.363 301.697C256.973 302.522 256.495 303.303 256.018 304.084C255.801 304.432 255.627 304.779 255.41 305.082C255.28 305.343 255.063 305.603 254.89 305.864C254.803 305.994 254.716 306.167 254.586 306.298C254.195 306.905 253.761 307.513 253.284 308.12C253.284 308.164 253.154 308.294 253.11 308.337C253.024 308.511 252.937 308.641 252.807 308.815C252.72 308.901 252.676 308.988 252.59 309.118C252.199 309.596 251.852 310.117 251.461 310.551C251.461 310.551 251.374 310.637 251.374 310.681C251.331 310.724 251.244 310.811 251.244 310.854C250.984 311.202 250.767 311.505 250.463 311.809C250.333 312.07 250.116 312.33 249.899 312.547C249.855 312.677 249.725 312.807 249.595 312.937C249.465 313.154 249.291 313.328 249.118 313.545C248.901 313.849 248.64 314.196 248.423 314.543C248.423 314.543 248.423 314.558 248.423 314.587C247.469 315.845 246.514 317.147 245.689 318.449C245.429 318.883 245.169 319.274 244.908 319.664C244.604 320.055 244.387 320.489 244.127 320.879C244.04 321.096 243.91 321.313 243.78 321.53C243.65 321.747 243.563 321.964 243.433 322.181C243.433 322.268 243.389 322.311 243.346 322.355C242.478 323.961 241.783 325.653 241.176 327.476C241.046 327.78 241.002 328.04 240.959 328.344C240.916 328.387 240.916 328.474 240.916 328.517C240.916 328.648 240.829 328.778 240.785 328.908C240.178 329.298 239.57 329.732 238.963 330.123C238.832 330.21 238.746 330.253 238.659 330.34C237.661 330.991 236.663 331.599 235.708 332.163C234.319 333.074 232.974 333.855 231.585 334.636C231.108 334.984 230.63 335.244 230.109 335.504C229.632 335.808 229.111 336.069 228.634 336.372C227.723 336.85 226.855 337.327 225.943 337.804C225.292 338.152 224.685 338.499 223.99 338.846C223.687 338.976 223.383 339.063 223.079 339.28C222.602 339.497 222.124 339.714 221.647 339.931C220.953 340.278 220.258 340.625 219.607 340.929C219.173 341.103 218.696 341.32 218.218 341.58C217.698 341.84 217.177 342.057 216.656 342.274C216.483 342.361 216.266 342.405 216.092 342.491C215.875 342.578 215.701 342.622 215.484 342.708C215.181 342.839 214.964 342.925 214.66 343.099C214.226 343.273 213.748 343.446 213.314 343.62C213.054 343.75 212.707 343.88 212.403 343.967C211.058 344.444 209.712 344.965 208.367 345.356C207.456 345.659 206.631 345.92 205.676 346.18C205.59 346.18 205.416 346.267 205.329 346.267C204.722 346.397 204.158 346.614 203.593 346.788C203.159 346.918 202.769 347.048 202.335 347.135C201.467 347.352 200.686 347.569 199.818 347.786C197.474 348.35 195.087 348.914 192.7 349.435C192.657 349.435 192.527 349.478 192.483 349.522C190.965 349.826 189.446 350.129 187.927 350.433C187.58 350.477 187.189 350.563 186.798 350.65C185.323 350.954 183.804 351.214 182.328 351.475C181.808 351.562 181.287 351.692 180.766 351.779C180.115 351.865 179.508 351.996 178.857 352.126C178.596 352.126 178.336 352.213 178.119 352.213C177.641 352.343 177.164 352.43 176.643 352.516C174.17 352.95 171.739 353.428 169.266 353.948C168.788 354.035 168.224 354.122 167.703 354.252C167.66 354.252 167.53 354.252 167.486 354.252C167.226 354.339 166.922 354.382 166.618 354.426C166.228 354.513 165.837 354.599 165.49 354.643C165.23 354.686 164.969 354.73 164.709 354.816C164.318 354.903 163.928 354.99 163.537 355.12C161.801 355.511 159.978 355.858 158.156 356.335C157.809 356.422 157.505 356.509 157.158 356.552C156.767 356.683 156.29 356.813 155.899 356.9C155.682 356.9 155.465 357.03 155.248 357.073C154.771 357.16 154.337 357.334 153.859 357.42C152.905 357.681 151.906 357.941 150.908 358.245C150.648 358.332 150.388 358.375 150.084 358.462C149.91 358.505 149.693 358.549 149.476 358.635C148.652 358.896 147.784 359.156 146.959 359.417C146.872 359.417 146.786 359.46 146.699 359.46C145.874 359.764 145.05 360.024 144.182 360.285C143.965 360.371 143.791 360.415 143.618 360.502C143.227 360.588 142.923 360.719 142.533 360.805C142.229 360.936 141.882 361.066 141.578 361.153C140.84 361.413 140.102 361.717 139.408 361.977C139.191 361.977 138.974 362.107 138.757 362.194C137.455 362.715 136.153 363.236 134.851 363.756C134.287 363.973 133.766 364.234 133.202 364.494C131.813 365.102 130.425 365.753 129.079 366.447C128.949 366.447 128.819 366.534 128.732 366.621C128.298 366.881 127.821 367.098 127.343 367.315C126.909 367.575 126.475 367.836 126.041 368.053C123.264 369.615 120.617 371.351 118.1 373.261C117.275 373.868 116.494 374.476 115.756 375.127C113.673 376.949 111.72 378.902 109.984 380.942C109.941 381.029 109.811 381.159 109.724 381.289C109.594 381.463 109.42 381.68 109.246 381.853C109.073 382.027 108.943 382.244 108.769 382.461C108.378 382.982 108.031 383.589 107.641 384.067C107.641 384.067 107.641 384.067 107.641 384.197C107.25 384.718 106.816 385.238 106.469 385.803C104.95 388.189 103.648 390.793 102.607 393.614C102.52 393.831 102.433 394.092 102.346 394.265C102.216 394.612 102.086 394.916 101.999 395.263C101.999 395.263 101.999 395.35 101.999 395.393C101.739 396.131 101.522 396.912 101.305 397.694C101.044 398.692 100.784 399.69 100.61 400.775C100.523 400.818 100.437 400.905 100.35 400.948C99.6555 401.643 99.7423 402.815 100.393 403.596C100.784 404.073 101.348 404.377 102.129 404.29C102.693 404.203 103.257 404.116 103.822 404.073C105.124 403.986 106.426 403.813 107.727 403.769H108.552C109.463 403.769 110.331 403.769 111.243 403.856C112.545 403.943 113.933 404.116 115.192 404.29C115.235 404.29 115.279 404.29 115.279 404.333C116.364 404.464 117.492 404.724 118.577 404.984C119.141 405.115 119.705 405.288 120.269 405.462C120.53 405.549 120.747 405.592 120.964 405.679C121.528 405.852 122.136 406.069 122.787 406.286C122.917 406.33 123.09 406.373 123.221 406.417C123.351 406.503 123.524 406.503 123.698 406.59C124.696 406.981 125.694 406.46 125.955 405.549C125.955 405.375 125.955 405.201 125.955 405.028C126.041 403.769 126.215 402.554 126.519 401.382C126.519 401.165 126.606 400.905 126.649 400.645C126.649 400.645 126.736 400.558 126.779 400.558C126.953 400.167 127.126 399.863 127.3 399.516C127.43 399.212 127.604 398.909 127.777 398.605C127.951 398.214 128.211 397.867 128.428 397.477C128.645 397.086 128.906 396.652 129.123 396.261L129.166 396.175C129.6 395.524 130.077 394.829 130.555 394.178C131.076 393.484 131.64 392.746 132.204 392.052C132.594 391.531 132.985 391.01 133.462 390.576C134.157 389.795 134.851 389.014 135.632 388.32C135.849 388.059 136.066 387.886 136.283 387.669C136.761 387.235 137.281 386.714 137.802 386.28C138.497 385.672 139.234 385.065 139.972 384.501C141.274 383.459 142.663 382.374 144.138 381.463C144.312 381.333 144.442 381.246 144.572 381.159C146.352 379.987 148.174 378.902 150.084 377.861C150.474 377.644 150.908 377.427 151.342 377.166C152.34 376.646 153.382 376.168 154.424 375.691C154.771 375.517 155.075 375.387 155.422 375.213C155.726 375.083 156.029 374.91 156.333 374.779C156.463 374.693 156.68 374.649 156.81 374.606C156.897 374.519 157.027 374.519 157.071 374.476C158.59 373.825 160.109 373.217 161.628 372.61C161.758 372.61 161.931 372.523 162.018 372.436C164.275 371.611 166.618 370.743 168.962 370.049C169.135 370.006 169.352 369.962 169.569 369.875C170.047 369.745 170.568 369.485 171.045 369.398C171.479 369.268 171.87 369.181 172.347 369.008C173.258 368.747 174.17 368.487 175.124 368.226C175.341 368.096 175.515 368.096 175.775 368.053C179.117 367.141 182.415 366.317 185.67 365.579C186.408 365.449 187.189 365.275 187.927 365.058C189.012 364.841 190.097 364.624 191.138 364.364C191.355 364.364 191.572 364.277 191.789 364.234C192.787 364.017 193.742 363.8 194.697 363.626C194.87 363.626 195.044 363.626 195.218 363.539C195.695 363.453 196.172 363.366 196.65 363.279C197.344 363.149 198.038 363.019 198.733 362.888C199.123 362.845 199.471 362.758 199.861 362.671C200.469 362.541 201.12 362.454 201.771 362.324C203.29 362.064 204.765 361.76 206.241 361.5C208.628 361.066 211.014 360.632 213.358 360.154C213.879 360.068 214.356 359.981 214.877 359.894C215.571 359.72 216.266 359.59 216.917 359.417C217.264 359.373 217.611 359.286 217.915 359.243C218.132 359.156 218.392 359.069 218.652 359.026C219.52 358.852 220.475 358.635 221.43 358.418C221.951 358.332 222.471 358.115 222.992 358.028C224.858 357.507 226.681 356.986 228.504 356.379C228.721 356.335 228.981 356.292 229.241 356.162C230.023 355.901 230.847 355.598 231.628 355.337C232.366 355.033 233.017 354.773 233.755 354.513C234.493 354.165 235.274 353.818 236.012 353.471C236.055 353.471 236.098 353.471 236.142 353.471C236.359 353.341 236.532 353.254 236.749 353.124C238.138 352.473 239.527 351.735 240.829 351.041C241.523 350.65 242.174 350.26 242.782 349.869C243.129 349.695 243.433 349.478 243.78 349.262C243.91 349.175 244.04 349.088 244.17 349.001C244.431 349.088 244.735 349.218 244.995 349.305C245.212 349.392 245.299 349.435 245.472 349.479C245.559 349.479 245.646 349.522 245.733 349.565C245.993 349.652 246.297 349.739 246.557 349.826C247.512 350.173 248.554 350.433 249.552 350.737C249.855 350.824 250.246 350.954 250.593 351.084C250.984 351.214 251.418 351.301 251.765 351.431C252.459 351.648 253.11 351.822 253.761 352.039C254.456 352.213 255.107 352.43 255.758 352.647C255.758 352.647 255.801 352.647 255.888 352.647C255.888 352.647 256.192 352.777 256.322 352.82C256.495 352.864 256.669 352.907 256.843 352.95C256.886 352.95 256.973 353.037 257.06 353.037C257.45 353.211 257.884 353.298 258.275 353.428C258.448 353.428 258.492 353.515 258.622 353.515C258.839 353.601 259.099 353.732 259.36 353.818C259.577 353.905 259.75 353.992 259.967 354.035C260.054 354.035 260.097 354.079 260.184 354.122C260.401 354.165 260.575 354.252 260.662 354.339C261.182 354.556 261.79 354.73 262.311 354.947C262.788 355.164 263.265 355.381 263.699 355.511C263.699 355.554 263.83 355.554 263.916 355.598C264.133 355.728 264.437 355.858 264.654 355.988C264.958 356.075 265.262 356.249 265.609 356.335C266.477 356.769 267.345 357.16 268.256 357.594C268.864 357.898 269.471 358.158 270.122 358.505C270.296 358.592 270.469 358.679 270.6 358.722C271.034 358.939 271.468 359.156 271.902 359.373C272.466 359.72 273.117 360.024 273.768 360.371C274.028 360.502 274.288 360.675 274.549 360.762C274.766 360.936 275.026 361.066 275.243 361.153C275.547 361.326 275.807 361.5 276.111 361.673C276.502 361.934 276.892 362.107 277.283 362.368C277.587 362.541 277.934 362.758 278.238 362.888C278.628 363.105 279.062 363.366 279.453 363.583C279.626 363.713 279.8 363.8 279.974 363.93C281.927 365.102 283.879 366.317 285.789 367.532C286.223 367.792 286.613 368.053 287.091 368.357C287.872 368.877 288.653 369.398 289.434 369.919C289.782 370.136 290.129 370.396 290.476 370.57C291.17 371.004 291.821 371.481 292.472 371.959C292.776 372.132 293.08 372.306 293.34 372.479C293.427 372.523 293.557 372.61 293.557 372.653C294.165 373.044 294.772 373.478 295.336 373.868C296.118 374.432 296.942 374.953 297.68 375.517C298.635 376.168 299.546 376.819 300.501 377.47C300.674 377.6 300.848 377.687 301.022 377.817C301.412 378.121 301.803 378.381 302.237 378.685C302.324 378.729 302.454 378.815 302.541 378.902C302.801 379.076 303.061 379.293 303.365 379.466C303.582 379.597 303.842 379.814 304.059 379.944C304.276 380.117 304.537 380.291 304.754 380.421C305.492 380.942 306.229 381.463 306.967 381.984C307.401 382.287 307.835 382.634 308.269 382.895C308.92 383.329 309.528 383.763 310.135 384.197C312.348 385.759 314.605 387.278 316.905 388.754C317.209 388.971 317.469 389.144 317.773 389.318C318.251 389.622 318.685 389.882 319.162 390.229C319.335 390.316 319.466 390.403 319.596 390.489C319.726 390.576 319.813 390.663 319.943 390.706C320.073 390.793 320.16 390.88 320.247 390.923C320.768 391.227 321.332 391.618 321.896 391.922C322.851 392.529 323.849 393.137 324.847 393.744C325.021 393.831 325.238 393.961 325.455 394.048C325.498 394.092 325.628 394.135 325.672 394.178C325.802 394.265 325.889 394.309 326.062 394.395C326.366 394.569 326.67 394.742 326.973 394.916C327.234 395.09 327.494 395.263 327.798 395.393C327.928 395.48 328.015 395.567 328.145 395.654C328.319 395.697 328.492 395.827 328.623 395.914C328.97 396.088 329.317 396.261 329.664 396.478C330.055 396.695 330.489 396.912 330.923 397.129C331.053 397.26 331.226 397.303 331.357 397.39C331.747 397.607 332.225 397.867 332.615 398.084C333.266 398.388 333.83 398.735 334.481 399.082C334.525 399.082 334.612 399.126 334.698 399.169C334.959 399.299 335.306 399.429 335.61 399.603C336.044 399.82 336.564 400.08 337.042 400.341C337.519 400.601 337.997 400.775 338.474 401.035C338.778 401.165 339.038 401.296 339.299 401.426C339.602 401.556 339.949 401.73 340.253 401.816C340.34 401.816 340.427 401.903 340.557 401.947C340.774 402.033 341.034 402.164 341.251 402.25C341.729 402.467 342.206 402.684 342.684 402.901C342.901 402.945 343.074 403.075 343.291 403.118C343.855 403.335 344.419 403.596 345.027 403.813C345.374 403.986 345.678 404.073 346.025 404.247C346.459 404.42 346.893 404.594 347.327 404.767C347.718 404.898 348.152 405.071 348.499 405.201C348.716 405.288 348.976 405.375 349.193 405.462C349.584 405.635 350.061 405.766 350.495 405.939C351.493 406.286 352.535 406.634 353.533 406.981C353.837 407.111 354.227 407.241 354.575 407.328C354.618 407.328 354.618 407.328 354.705 407.328C355.052 407.458 355.443 407.545 355.833 407.675C356.267 407.805 356.701 407.979 357.135 408.066C357.526 408.196 357.916 408.283 358.263 408.413C358.524 408.456 358.741 408.5 358.958 408.586C359.305 408.717 359.696 408.803 360.086 408.934C360.433 409.064 360.78 409.107 361.214 409.194C361.822 409.324 362.43 409.498 363.081 409.628C363.298 409.758 363.558 409.758 363.818 409.845C364.643 410.062 365.467 410.236 366.292 410.366C366.596 410.453 366.943 410.496 367.247 410.583C368.201 410.756 369.156 410.93 370.068 411.103C371.109 411.277 372.194 411.451 373.279 411.624C374.407 411.754 375.579 411.928 376.707 412.058C376.968 412.058 377.141 412.145 377.358 412.145C377.619 412.145 377.836 412.188 378.096 412.188C379.138 412.319 380.136 412.362 381.221 412.492C381.525 412.536 381.828 412.622 382.132 412.709C382.349 412.753 382.566 412.839 382.783 412.883C383.087 412.97 383.391 413.013 383.651 413.1C383.695 413.1 383.781 413.1 383.781 413.1C384.215 413.187 384.649 413.273 385.17 413.404C385.647 413.49 386.081 413.577 386.559 413.621C386.819 413.621 387.08 413.707 387.34 413.707C388.338 413.838 389.336 413.924 390.334 413.924C390.508 413.924 390.682 413.924 390.855 413.924C392.461 413.924 394.023 413.794 395.542 413.577C395.846 413.534 396.106 413.447 396.497 413.36C396.801 413.273 397.148 413.23 397.452 413.143C397.582 413.143 397.712 413.1 397.799 413.056C398.059 412.97 398.32 412.883 398.58 412.839C400.967 412.102 403.267 411.537 405.524 411.147C405.958 411.06 406.392 410.973 406.869 410.973C409.473 410.626 412.164 410.626 415.245 411.06C415.375 411.06 415.592 411.103 415.722 411.103H415.852C416.33 411.19 416.894 411.32 417.328 411.364C417.545 411.364 417.762 411.451 417.979 411.494C418.586 411.624 419.237 411.754 419.845 411.885C420.192 411.928 420.453 412.015 420.756 412.102H420.886C421.364 412.232 421.841 412.319 422.319 412.449C422.666 412.536 423.013 412.622 423.36 412.753C423.664 412.839 424.011 412.926 424.315 413.013C425.183 413.273 426.094 413.49 427.006 413.751C427.874 413.968 428.742 414.185 429.609 414.402C429.653 414.445 429.74 414.445 429.783 414.445C430.738 414.706 431.649 414.922 432.561 415.096C432.821 415.183 433.125 415.27 433.428 415.313C433.732 415.4 434.036 415.443 434.383 415.53C434.991 415.66 435.555 415.747 436.163 415.877C437.074 416.007 437.898 416.138 438.723 416.224C440.416 416.398 442.065 416.528 443.67 416.485C444.929 416.485 446.187 416.355 447.446 416.138C447.663 416.094 447.923 416.051 448.184 416.051C448.314 416.051 448.444 416.051 448.574 416.007C449.008 415.921 449.442 415.834 449.876 415.747C450.05 415.747 450.267 415.66 450.527 415.617C450.918 415.53 451.308 415.487 451.656 415.443C451.829 415.443 451.959 415.443 452.09 415.356C452.48 415.313 452.827 415.27 453.261 415.226C453.565 415.183 453.825 415.139 454.216 415.096C454.346 415.096 454.52 415.053 454.693 415.053C454.824 415.053 454.91 415.053 455.041 415.053C455.214 415.053 455.388 415.009 455.605 414.966C455.692 414.966 455.822 414.966 455.952 414.966C456.603 414.922 457.211 414.836 457.818 414.792C458.469 414.792 459.207 414.749 459.901 414.706C461.42 414.706 462.852 414.706 464.458 414.706C464.979 414.706 465.586 414.749 466.15 414.749C466.671 414.749 467.279 414.836 467.8 414.879C468.017 414.923 468.147 414.922 468.364 414.922C468.668 414.922 468.928 414.966 469.188 415.009C470.317 415.139 471.488 415.226 472.573 415.4C472.747 415.4 472.964 415.443 473.138 415.487C479.821 416.311 486.504 417.526 493.187 418.394C493.925 418.481 494.706 418.568 495.531 418.655C495.661 418.741 495.835 418.742 496.008 418.742C496.182 418.742 496.355 418.742 496.486 418.742C497.18 418.828 497.874 418.872 498.569 418.915C498.959 418.915 499.35 419.002 499.697 419.002C500.001 419.002 500.305 419.045 500.565 419.045C500.999 419.045 501.39 419.089 501.824 419.132C502.605 419.132 503.386 419.175 504.167 419.219H504.775C505.209 419.219 505.512 419.045 505.729 418.785C506.207 418.785 506.684 418.698 507.118 418.655C507.248 418.655 507.335 418.655 507.509 418.568C507.682 418.568 507.943 418.568 508.16 418.525C508.507 418.438 508.854 418.394 509.201 418.308C510.33 418.047 511.414 417.743 512.499 417.353C513.801 416.875 515.06 416.311 516.362 415.704C519.009 414.315 521.57 412.666 524.13 411.147C524.911 410.713 525.606 410.279 526.387 409.888C526.604 409.758 526.864 409.671 527.081 409.541C529.034 408.543 530.944 407.805 533.07 407.241C533.678 407.111 534.198 406.981 534.806 406.851C535.153 406.764 535.5 406.677 535.847 406.634C536.064 406.634 536.325 406.547 536.542 406.503C537.019 406.46 537.497 406.373 538.017 406.286C538.104 406.286 538.148 406.286 538.234 406.286C538.408 406.286 538.582 406.286 538.755 406.286C539.232 406.243 539.71 406.156 540.187 406.113C540.491 406.113 540.795 406.026 541.055 406.026C541.185 406.026 541.359 406.026 541.489 405.983C541.88 405.939 542.27 405.852 542.618 405.809C543.572 405.722 544.484 405.592 545.395 405.462C545.742 405.418 546.176 405.332 546.523 405.288C546.914 405.245 547.261 405.158 547.608 405.071C547.955 405.071 548.259 404.984 548.563 404.898C548.867 404.898 549.127 404.767 549.431 404.724C550.429 404.464 551.427 404.203 552.425 403.899C552.729 403.726 553.12 403.639 553.467 403.509C553.684 403.465 553.901 403.335 554.118 403.248C554.552 403.075 555.029 402.901 555.42 402.728C557.112 401.99 558.718 401.165 560.28 400.297C560.801 399.994 561.279 399.733 561.799 399.473C562.971 398.865 564.186 398.258 565.445 397.694C565.749 397.563 566.096 397.433 566.443 397.26C566.573 397.26 566.747 397.216 566.877 397.129C567.051 397.043 567.268 396.999 567.528 396.912C569.003 396.392 570.522 395.958 572.128 395.567C574.168 395.09 576.338 394.742 578.551 394.439C579.115 394.395 579.679 394.309 580.287 394.265C580.894 394.178 581.545 394.135 582.196 394.048C582.327 394.048 582.5 394.048 582.674 394.005C583.064 394.005 583.455 393.918 583.845 393.875C583.889 393.875 583.976 393.875 583.976 393.875C584.279 393.875 584.67 393.875 585.017 393.875C585.408 393.831 585.755 393.831 586.146 393.831C587.795 393.744 589.487 393.658 591.136 393.614H591.353C592.221 393.614 593.089 393.614 593.957 393.527H595.823C597.255 393.527 598.601 393.527 599.99 393.527C600.771 393.527 601.465 393.527 602.203 393.527H602.55C603.678 393.527 604.763 393.527 605.848 393.527H606.369C606.89 393.527 607.454 393.527 607.975 393.527C608.843 393.527 609.754 393.527 610.665 393.484C610.882 393.484 611.143 393.484 611.36 393.484H611.49C611.924 393.484 612.314 393.484 612.705 393.484C612.748 393.484 612.792 393.484 612.879 393.484C613.139 393.484 613.399 393.484 613.66 393.484C613.92 393.484 614.181 393.441 614.441 393.441C614.658 393.441 614.832 393.441 615.049 393.441C615.352 393.441 615.656 393.441 615.96 393.354C617.218 393.267 617.045 391.835 616.134 391.357C616.09 391.357 616.003 391.271 616.003 391.227C615.656 390.88 615.396 390.533 615.135 390.142C615.005 389.969 614.875 389.752 614.788 389.535C614.571 389.144 614.441 388.71 614.398 388.276C614.354 387.538 614.398 386.844 614.701 386.15C614.788 385.976 614.875 385.803 614.962 385.629C615.092 385.455 615.179 385.282 615.309 385.108C615.743 384.414 616.394 383.676 617.175 383.025C617.175 383.025 617.218 382.982 617.262 382.895C617.262 382.808 617.392 382.808 617.479 382.721C617.609 382.634 617.739 382.504 617.869 382.374C618.347 381.983 618.868 381.593 619.432 381.202C620.083 380.768 620.734 380.334 621.471 379.944C621.688 379.857 621.949 379.683 622.166 379.553C622.296 379.466 622.47 379.38 622.643 379.293C622.86 379.163 623.164 379.032 623.381 378.902C623.468 378.859 623.555 378.815 623.598 378.772C624.075 378.555 624.466 378.381 624.943 378.078C625.941 377.6 626.94 377.123 627.981 376.646C628.806 376.298 629.674 375.951 630.498 375.561C630.889 375.43 631.236 375.213 631.67 375.083C632.017 374.953 632.408 374.779 632.798 374.693C633.883 374.215 635.012 373.825 636.097 373.434C636.921 373.13 637.702 372.87 638.44 372.61C638.744 372.479 639.048 372.393 639.265 372.262C639.525 372.176 639.655 372.132 639.872 372.089C640.35 371.915 640.784 371.785 641.174 371.611C641.218 371.611 641.348 371.525 641.478 371.481C641.999 371.308 642.476 371.134 642.91 371.004C643.431 370.83 643.865 370.657 644.212 370.526C644.386 370.44 644.559 370.353 644.776 370.309C645.036 370.179 645.254 370.093 645.514 369.962C645.818 369.832 646.121 369.702 646.382 369.572C646.946 369.311 647.51 369.008 647.988 368.747C648.378 368.574 648.769 368.313 649.203 368.096C650.071 367.532 650.895 366.968 651.59 366.317C651.633 366.317 651.676 366.273 651.72 366.23C652.327 365.666 652.892 365.058 653.412 364.364C653.673 364.017 653.933 363.626 654.193 363.192C654.627 362.585 654.931 361.934 655.235 361.196C655.278 361.022 655.409 360.849 655.452 360.675C655.495 360.502 655.582 360.371 655.626 360.241C655.799 359.851 655.973 359.46 656.19 359.069C656.19 359.069 656.32 358.766 656.363 358.635C656.494 358.418 656.667 358.158 656.754 357.941C656.884 357.681 657.058 357.464 657.188 357.247C657.578 356.596 658.056 355.988 658.49 355.424C659.271 354.426 660.182 353.558 661.05 352.733C661.267 352.56 661.484 352.343 661.701 352.169C662.656 351.431 663.654 350.694 664.652 350.043C664.782 349.956 664.826 349.869 664.956 349.826C665.303 349.609 665.65 349.348 666.041 349.175C666.432 348.914 666.779 348.697 667.169 348.437C667.517 348.263 667.82 348.046 668.124 347.873C668.558 347.612 668.992 347.352 669.426 347.092C670.381 346.484 671.379 345.92 672.377 345.312C672.724 345.095 673.071 344.878 673.419 344.661C673.896 344.314 674.373 344.01 674.807 343.707C675.024 343.576 675.241 343.403 675.415 343.273C675.545 343.186 675.719 343.056 675.849 342.925C675.936 342.839 676.066 342.795 676.153 342.708C676.196 342.622 676.326 342.535 676.413 342.491C676.891 342.101 677.455 341.667 677.932 341.276C678.93 340.452 679.885 339.627 680.796 338.716C681.534 338.021 682.228 337.327 682.879 336.633C683.357 336.112 683.834 335.591 684.312 335.027C684.355 335.027 684.442 334.94 684.442 334.897C684.442 334.897 684.485 334.767 684.572 334.723C684.702 334.463 684.659 334.246 684.529 333.985C684.702 333.768 684.832 333.638 684.919 333.465C685.006 333.378 685.093 333.291 685.136 333.204C685.744 332.206 686.047 331.165 686.178 330.08C686.178 329.993 686.178 329.819 686.178 329.689C686.221 328.821 686.178 327.953 686.134 326.998C686.134 326.651 686.091 326.261 686.004 325.913C686.004 325.61 685.917 325.306 685.874 324.959C685.874 324.655 685.874 324.395 685.83 324.091C685.787 323.57 685.744 323.049 685.744 322.485C685.744 322.355 685.744 322.225 685.744 322.094C685.744 321.53 685.787 321.053 685.874 320.532C685.874 320.315 685.917 320.142 686.004 319.881C686.004 319.708 686.047 319.577 686.091 319.404C686.091 319.404 686.134 319.317 686.134 319.274C686.134 319.23 686.178 319.143 686.178 319.1C686.395 318.275 686.698 317.494 687.089 316.757C687.176 316.626 687.219 316.496 687.306 316.366C687.74 315.672 688.131 315.021 688.608 314.413C688.825 314.196 688.998 313.979 689.215 313.762C689.259 313.675 689.346 313.632 689.346 313.632C689.606 313.371 689.866 313.111 690.083 312.851C690.257 312.72 690.431 312.547 690.561 312.373C690.995 311.983 691.429 311.592 691.906 311.202C692.384 310.768 692.904 310.42 693.425 310.03C693.642 309.856 693.902 309.683 694.119 309.509C694.293 309.379 694.467 309.292 694.64 309.162C694.987 308.901 695.335 308.685 695.769 308.424C695.942 308.251 696.203 308.12 696.376 308.034C696.767 307.773 697.157 307.556 697.504 307.252C697.982 306.949 698.459 306.688 698.85 306.384C699.067 306.254 699.24 306.124 699.501 305.994C699.848 305.777 700.195 305.516 700.542 305.299C701.02 304.952 701.584 304.605 702.061 304.258C702.148 304.215 702.278 304.128 702.365 304.041C702.365 303.998 702.408 303.998 702.495 303.954C703.841 302.999 704.839 301.958 705.707 300.829C705.967 300.439 706.184 300.135 706.444 299.701C707.052 298.703 707.486 297.705 707.877 296.62C707.963 296.446 708.007 296.273 708.094 296.099C708.094 295.882 708.224 295.709 708.267 295.535C708.571 294.537 708.788 293.539 709.048 292.497C709.048 292.41 709.092 292.324 709.092 292.193C709.222 291.673 709.309 291.108 709.439 290.501C709.482 290.284 709.569 290.023 709.612 289.763C709.656 289.459 709.743 289.155 709.786 288.808C710.003 287.94 710.263 287.159 710.611 286.335C710.611 286.204 710.697 286.031 710.784 285.901C710.784 285.814 710.828 285.727 710.914 285.64C710.958 285.423 711.088 285.25 711.131 285.076C711.305 284.816 711.435 284.555 711.609 284.252C711.609 284.252 711.609 284.165 711.652 284.121C711.696 284.035 711.782 283.948 711.826 283.818C711.999 283.514 712.173 283.253 712.347 282.993C712.477 282.863 712.564 282.689 712.694 282.602C712.867 282.342 713.041 282.125 713.258 281.865C713.605 281.474 713.952 281.083 714.299 280.693C714.777 280.172 715.211 279.695 715.732 279.217C715.862 279.087 715.992 278.957 716.122 278.827C716.122 278.783 716.209 278.74 716.252 278.653C716.469 278.48 716.686 278.263 716.86 278.046C717.077 277.872 717.337 277.655 717.511 277.438C717.598 277.395 717.641 277.308 717.728 277.221C717.945 277.047 718.162 276.83 718.379 276.657C718.856 276.223 719.29 275.789 719.768 275.355C720.332 274.791 720.853 274.227 721.417 273.706C721.894 273.185 722.328 272.577 722.805 272.057C723.022 272.013 723.196 271.883 723.326 271.753C723.804 271.319 723.847 270.581 723.022 270.104C722.719 269.93 722.415 269.713 722.154 269.583C721.764 269.279 721.373 269.019 721.026 268.758C720.549 268.368 720.071 267.891 719.724 267.5C719.507 267.283 719.334 267.023 719.16 266.762C718.509 265.764 718.205 264.679 718.205 263.594C718.205 263.16 718.205 262.726 718.292 262.336C718.292 262.119 718.379 261.902 718.466 261.685C718.509 261.381 718.639 261.034 718.726 260.73C719.073 259.775 719.594 258.777 720.202 257.779C720.462 257.388 720.722 256.998 720.983 256.607C721.2 256.347 721.373 255.999 721.634 255.739C722.198 254.958 722.805 254.22 723.37 253.526C723.543 253.352 723.717 253.179 723.847 252.962C723.89 252.918 723.977 252.831 724.021 252.788C724.368 252.354 724.715 251.963 725.062 251.573C725.106 251.53 725.192 251.486 725.192 251.399C725.54 251.009 725.887 250.618 726.19 250.228C727.058 249.099 727.84 247.971 728.491 246.799C728.664 246.452 728.881 246.105 729.055 245.714C729.619 244.542 730.14 243.284 730.53 241.939C730.921 240.723 731.268 239.508 731.702 238.337C732.179 236.948 732.787 235.602 733.655 234.344C733.785 234.127 733.959 233.91 734.132 233.693C734.349 233.389 734.653 233.085 734.913 232.738C735.087 232.521 735.304 232.304 735.521 232.044C735.912 231.61 736.346 231.133 736.736 230.655C737.257 230.134 737.734 229.57 738.168 228.963C738.298 228.832 738.385 228.615 738.515 228.485C738.819 228.095 739.123 227.747 739.383 227.314C739.383 227.27 739.383 227.227 739.383 227.183C739.904 226.836 740.251 226.185 739.644 225.534C739.253 225.1 738.863 224.623 738.515 224.102C737.691 222.887 737.083 221.585 736.649 220.24C736.476 219.675 736.346 219.111 736.215 218.547C736.042 217.766 735.998 216.985 735.955 216.16C735.955 215.336 735.955 214.511 736.085 213.687C736.085 213.253 736.172 212.819 736.259 212.385C736.259 212.254 736.302 212.168 736.346 212.037C736.346 211.864 736.389 211.69 736.432 211.56C736.606 210.822 736.866 210.085 737.17 209.39C737.431 208.783 737.648 208.218 737.995 207.698C737.995 207.567 738.125 207.437 738.212 207.307C738.255 207.22 738.342 207.047 738.429 206.96C738.646 206.569 738.906 206.179 739.21 205.788C739.34 205.615 739.47 205.398 739.644 205.181C740.034 204.66 740.425 204.096 740.816 203.618C741.076 203.228 741.336 202.881 741.597 202.533C742.074 201.926 742.465 201.362 742.812 200.754C742.899 200.58 742.985 200.407 743.116 200.233C743.897 198.844 744.461 197.369 744.635 195.503C744.721 194.982 744.721 194.461 744.721 193.854V193.42C744.721 193.116 744.721 192.812 744.808 192.465C744.808 192.161 744.895 191.814 744.982 191.51C745.676 188.169 747.846 185.087 749.539 181.919C749.625 181.746 749.712 181.572 749.842 181.399C749.842 181.399 749.842 181.312 749.886 181.312C750.493 180.053 751.057 178.795 751.361 177.493C751.405 177.189 751.491 176.885 751.535 176.581C751.839 174.715 751.622 172.676 750.407 170.592C750.537 170.332 750.493 170.072 750.363 169.768C749.886 168.9 749.322 168.032 748.757 167.164C747.629 165.385 746.457 163.649 745.459 161.913C745.459 161.913 745.286 161.566 745.199 161.436C744.938 160.958 744.721 160.437 744.504 159.96C744.287 159.526 744.114 159.092 743.94 158.571C743.68 157.79 743.506 157.009 743.376 156.228C743.289 156.011 743.289 155.707 743.289 155.49C743.246 154.709 743.246 153.928 743.376 153.103C743.376 152.973 743.419 152.843 743.463 152.669C743.593 151.975 743.81 151.367 744.114 150.76C744.287 150.369 744.504 149.978 744.721 149.545C744.895 149.284 745.069 149.024 745.242 148.72C745.806 147.809 746.414 146.941 746.935 145.986C747.629 144.684 748.193 143.339 748.193 141.646C748.193 140.605 747.759 139.389 747.238 138.391C745.372 134.789 744.244 132.88 744.895 128.714C745.069 127.629 745.242 126.544 745.242 125.502C745.242 125.372 745.242 125.242 745.242 125.111C745.242 124.851 745.242 124.591 745.199 124.374C745.112 123.81 745.025 123.289 744.852 122.768C744.591 122.117 744.244 121.509 743.767 120.902V120.859C743.767 120.859 743.767 120.815 743.723 120.772C743.723 120.772 743.68 120.642 743.636 120.598C743.55 120.381 743.419 120.164 743.333 119.991C743.159 119.687 742.985 119.426 742.812 119.166C742.465 118.558 742.074 117.907 741.597 117.343C741.38 116.996 741.163 116.736 740.902 116.389C740.772 116.215 740.642 116.041 740.512 115.824C740.121 115.347 739.817 114.826 739.557 114.349C739.514 114.219 739.427 114.045 739.34 113.915C738.385 111.875 738.342 109.879 738.689 107.839C738.863 106.667 739.21 105.496 739.557 104.281C739.6 104.194 739.6 104.064 739.687 103.977C740.816 100.418 741.38 96.6425 741.987 92.9103C742.074 92.2159 742.204 91.5215 742.335 90.8706C742.465 90.1762 742.595 89.4384 742.725 88.7441C742.725 88.6573 742.725 88.5271 742.768 88.4403C742.768 88.3101 742.812 88.1365 742.812 88.0063C742.985 87.3119 743.159 86.6176 743.333 85.9232C743.376 85.576 743.463 85.2722 743.55 84.9685C743.68 84.6213 743.767 84.2307 743.897 83.8401C743.94 83.7099 743.984 83.6231 744.027 83.4929C744.504 82.1476 745.155 80.8457 745.893 79.5437C746.761 78.0248 747.933 76.6795 749.322 75.5077C749.365 75.4643 749.452 75.3775 749.495 75.3341C749.625 75.2473 749.669 75.2039 749.712 75.1605C750.103 74.8568 750.45 74.6398 750.84 74.4228C751.057 74.2926 751.318 74.1624 751.578 74.0756C752.967 73.3378 754.616 72.7303 756.048 72.0793C756.395 71.9491 756.699 71.7755 757.003 71.6453C757.611 71.3415 758.175 71.0377 758.695 70.734C759.129 70.4736 759.563 70.2132 759.911 69.9094C760.041 69.7792 760.214 69.649 760.345 69.5188C760.735 69.1716 761.082 68.7377 761.43 68.3037C761.647 68.0433 761.733 67.8263 761.907 67.5225C762.037 67.1753 762.211 66.8715 762.297 66.5244C762.428 66.2206 762.471 65.9168 762.514 65.613C762.645 64.9186 761.994 64.5281 761.386 64.4847L761.69 65.3092Z" fill="#8AB947"/>
<path d="M287.872 251.182H290.519C292.255 259.819 294.555 267.066 297.333 272.968C300.11 278.87 303.191 283.731 306.533 287.593C309.875 291.412 313.39 294.363 317.079 296.446C320.724 298.529 324.456 300.048 328.189 301.003C331.921 301.958 335.523 302.522 338.951 302.652C342.38 302.826 345.591 302.913 348.672 302.913C357.135 302.913 364.079 301.611 369.503 299.05C374.928 296.49 379.225 293.278 382.436 289.329C385.604 285.423 387.861 281.257 389.119 276.657C390.378 272.1 391.029 267.934 391.029 264.071C391.029 258.473 389.987 253.699 387.904 249.707C385.821 245.714 383.217 242.329 380.006 239.552C376.794 236.731 373.322 234.518 369.59 232.738C365.858 231.002 362.299 229.614 358.958 228.659L331.4 220.283C318.468 216.29 308.703 211.039 302.063 204.486C295.423 197.933 292.125 189.167 292.125 178.144C292.125 170.94 293.427 164.3 295.944 158.137C298.504 152.018 302.107 146.68 306.707 142.21C311.35 137.74 316.862 134.225 323.328 131.665C329.794 129.104 336.868 127.846 344.55 127.846C350.148 127.846 354.792 128.323 358.567 129.234C362.299 130.189 365.554 131.317 368.245 132.489C370.979 133.704 373.409 134.746 375.579 135.744C377.706 136.699 379.919 137.176 382.176 137.176C384.259 137.176 385.647 136.916 386.342 136.352C387.08 135.787 388.078 134.399 389.336 132.142H392.678V175.496H389.814C388.859 169.725 387.21 164.213 384.91 158.832C382.566 153.494 379.572 148.807 375.926 144.684C372.237 140.605 367.811 137.35 362.603 134.876C357.439 132.402 351.406 131.144 344.55 131.144C340.687 131.144 336.478 131.665 331.834 132.706C327.19 133.791 322.894 135.527 318.901 138.087C314.909 140.648 311.611 143.99 308.963 148.156C306.316 152.322 305.014 157.573 305.014 163.953C305.014 169.074 306.056 173.413 308.139 177.015C310.222 180.574 312.869 183.612 316.167 186.086C319.466 188.559 323.111 190.642 327.19 192.291C331.27 193.984 335.349 195.459 339.515 196.718L368.505 205.832C371.543 206.786 375.362 208.045 380.006 209.651C384.649 211.256 389.119 213.643 393.502 216.855C397.886 220.066 401.661 224.276 404.786 229.527C407.867 234.778 409.429 241.505 409.429 249.663C409.429 257.171 408.041 264.332 405.263 271.102C402.442 277.915 398.45 283.904 393.155 289.069C387.904 294.233 381.525 298.399 374.017 301.524C366.509 304.648 358.046 306.167 348.629 306.167C345.287 306.167 342.336 306.167 339.776 306.081C337.215 305.994 334.829 305.777 332.615 305.473C330.359 305.126 328.145 304.822 325.932 304.388C323.675 303.998 321.202 303.39 318.511 302.565C315.343 301.611 311.914 300.482 308.226 299.224C304.537 297.922 301.369 297.271 298.635 297.271C296.248 297.271 294.599 297.792 293.731 298.746C292.863 299.701 292.082 301.003 291.474 302.565H287.872V251.096V251.182Z" fill="white"/>
<path d="M487.285 216.941C490.497 217.592 493.838 218.07 497.353 218.374C500.869 218.721 503.993 218.851 506.684 218.851C518.488 218.851 527.732 215.379 534.328 208.435C540.925 201.492 544.267 190.99 544.267 176.929C544.267 168.77 543.485 162 541.88 156.575C540.274 151.107 537.8 146.767 534.372 143.512C530.9 140.257 526.473 137.957 520.962 136.699C515.45 135.397 508.854 134.789 501.216 134.789C498.135 134.789 495.444 134.876 492.97 135.05C490.497 135.223 488.63 135.353 487.329 135.527V216.941H487.285ZM436.77 299.311H463.33V135.527H436.77V132.185H481.774C484.03 132.185 486.244 132.142 488.457 132.055C490.67 131.968 492.927 131.838 495.184 131.708C497.397 131.708 499.61 131.665 501.737 131.578C503.907 131.491 506.076 131.448 508.333 131.448C517.447 131.448 525.866 132.533 533.591 134.702C541.359 136.872 548.042 139.954 553.684 143.903C559.369 147.895 563.796 152.669 566.964 158.268C570.132 163.866 571.737 170.072 571.737 176.972C571.737 183.872 569.915 190.556 566.226 196.154C562.537 201.709 557.676 206.439 551.644 210.258C545.568 214.121 538.495 217.072 530.466 219.111C522.394 221.194 513.975 222.236 505.208 222.236C502.952 222.236 500.088 222.019 496.616 221.628C493.1 221.238 489.976 220.804 487.285 220.326V299.354H513.888V302.696H436.77V299.354V299.311Z" fill="white"/>
<path d="M640.523 159.7L614.181 229.353H666.866L640.523 159.7ZM562.711 299.267H583.759L648.422 127.846H654.15L719.29 299.267H740.599V302.609H666.866V299.267H693.425L668.298 232.695H612.748L587.621 299.267H614.181V302.609H562.711V299.267Z" fill="white"/>
<path d="M54.6084 189.297H32.5189C31.3472 189.297 31 188.603 31 187.561V185.825C31 184.914 31.6944 184.306 32.5189 184.306H82.2963C83.2076 184.306 83.7718 185.001 83.7718 185.825V187.821C83.7718 188.603 83.2076 189.297 82.2963 189.297H60.0766V263.855C60.0766 264.679 59.3822 265.373 58.2105 265.373H56.1274C55.3028 265.373 54.6084 264.679 54.6084 263.855V189.297Z" fill="#231E1F"/>
<path d="M98.1365 185.825C98.1365 185.001 98.8308 184.35 99.6554 184.35H102.086C103.04 184.35 103.605 185.044 103.605 185.825V221.368H155.595V185.825C155.595 185.001 156.29 184.35 157.114 184.35H159.544C160.456 184.35 161.063 185.044 161.063 185.825V263.855C161.063 264.679 160.499 265.374 159.544 265.374H157.114C156.29 265.374 155.595 264.679 155.595 263.855V226.229H103.605V263.855C103.605 264.679 103.04 265.374 102.086 265.374H99.6554C98.8308 265.374 98.1365 264.679 98.1365 263.855V185.825Z" fill="#231E1F"/>
<path d="M186.712 185.825C186.712 185.001 187.406 184.35 188.23 184.35H234.666C235.447 184.35 236.185 185.044 236.185 185.825V187.822C236.185 188.603 235.491 189.34 234.666 189.34H192.266V221.325H228.981C229.806 221.325 230.5 222.019 230.5 222.8V224.797C230.5 225.578 229.806 226.315 228.981 226.315H192.266V260.6H234.666C235.447 260.6 236.185 261.294 236.185 262.119V263.941C236.185 264.766 235.491 265.46 234.666 265.46H188.23C187.406 265.46 186.712 264.766 186.712 263.941V185.912V185.825Z" fill="#231E1F"/>
<path d="M799.012 260.383C819.279 260.383 834.902 244.976 834.902 224.71C834.902 204.443 819.279 189.254 799.012 189.254H779.44V260.339H799.012V260.383ZM774.015 185.782C774.015 184.957 774.709 184.306 775.404 184.306H799.923C822.404 184.306 840.674 202.447 840.674 224.71C840.674 246.973 822.404 265.33 799.923 265.33H775.404C774.709 265.33 774.015 264.636 774.015 263.811V185.782Z" fill="#231E1F"/>
<path d="M890.582 229.267C901.691 229.267 911.065 220.587 911.065 209.13C911.065 197.673 901.691 189.688 890.451 189.688H866.149V229.267H890.582ZM860.594 185.825C860.594 185.001 861.158 184.35 862.069 184.35H890.799C904.946 184.35 916.62 194.982 916.62 209.13C916.62 220.804 908.505 230.221 897.525 233.303L914.45 263.29C915.058 264.202 914.798 265.374 913.626 265.374H910.067C909.243 265.374 908.765 265.026 908.418 264.332L891.623 233.997C890.104 234.127 888.846 234.127 887.327 234.127H866.018V263.855C866.018 264.679 865.324 265.374 864.152 265.374H862.069C861.288 265.374 860.594 264.679 860.594 263.855V185.825Z" fill="#231E1F"/>
<path d="M936.453 257.258C939.101 257.258 941.097 259.254 941.097 261.902C941.097 264.549 939.144 266.545 936.453 266.545C933.763 266.545 931.723 264.462 931.723 261.902C931.723 259.341 933.936 257.258 936.453 257.258Z" fill="#231E1F"/>
<path d="M953.899 190.989V187.561H956.98C958.022 187.561 958.716 188.255 958.716 189.254C958.716 190.208 958.022 190.946 956.98 190.946H953.899V190.989ZM951.339 197.239C951.339 197.586 951.599 197.89 951.99 197.89H953.292C953.682 197.89 953.942 197.586 953.942 197.239V193.29H956.112L957.848 197.412C957.935 197.629 958.196 197.89 958.456 197.89H960.018C960.496 197.89 960.843 197.412 960.626 196.935C960.018 195.676 959.411 194.375 958.803 193.073C959.845 192.682 961.45 191.727 961.45 189.254C961.45 186.606 959.324 185.131 957.154 185.131H951.99C951.599 185.131 951.339 185.435 951.339 185.782V197.195V197.239ZM945.74 191.554C945.74 185.955 950.254 181.442 955.852 181.442C961.45 181.442 965.964 185.955 965.964 191.554C965.964 197.152 961.45 201.665 955.852 201.665C950.254 201.665 945.74 197.152 945.74 191.554ZM943.353 191.554C943.353 198.454 948.952 204.052 955.852 204.052C962.752 204.052 968.394 198.454 968.394 191.554C968.394 184.653 962.752 179.012 955.852 179.012C948.952 179.012 943.353 184.653 943.353 191.554Z" fill="#231E1F"/>
</g>
<defs>
<clipPath id="clip0_61_55">
<rect width="937.394" height="399" fill="white" transform="translate(31 21)"/>
</clipPath>
</defs>
</svg>
