<svg width="1920" height="1080" viewBox="0 0 1920 1080" fill="currentColor" xmlns="http://www.w3.org/2000/svg">
    <rect width="1920" height="1080" fill="white" />
    <g clip-path="url(#clip0_405_3343)">
        <path
            d="M534.931 542.79C536.513 540.896 537.691 538.699 538.395 536.334C539.103 534.038 539.463 531.648 539.465 529.244C539.51 526.482 539.005 523.739 537.978 521.175C537.004 518.823 535.51 516.721 533.608 515.028C531.528 513.241 529.102 511.901 526.481 511.093C523.34 510.128 520.066 509.663 516.78 509.715H499.227V567.741H510.651V549.245H518.249L530.489 567.668H543.798L530.289 546.598C532.062 545.632 533.637 544.34 534.931 542.79ZM510.651 520.74H518.829C520.48 520.664 522.122 521.014 523.598 521.755C524.685 522.35 525.598 523.219 526.246 524.276C526.776 525.197 527.161 526.193 527.388 527.232C527.55 528.026 527.641 528.833 527.66 529.643C527.646 530.566 527.499 531.482 527.225 532.363C526.912 533.366 526.434 534.31 525.81 535.156C525.089 536.09 524.157 536.842 523.09 537.35C521.733 537.973 520.249 538.271 518.757 538.22H510.651V520.74Z"
            fill="#292929" />
        <path
            d="M596.221 544.113H621.117V533.089H596.221V520.74H624.345V509.715H584.815V567.668H625.433V556.643H596.221V544.113Z"
            fill="#292929" />
        <path d="M690.748 542.373L677.493 509.715H663.784L690.24 570.334L716.696 509.715H703.151L690.748 542.373Z"
            fill="#292929" />
        <path
            d="M769.609 544.113H794.505V533.089H769.609V520.74H797.733V509.715H758.203V567.668H798.821V556.643H769.609V544.113Z"
            fill="#292929" />
        <path d="M853.546 509.715H842.141V567.668H880.8V556.643H853.546V509.715Z" fill="#292929" />
        <path
            d="M949.814 540.541C948.738 540 947.615 539.557 946.46 539.218C947.45 538.838 948.393 538.345 949.27 537.749C951.097 536.474 952.55 534.734 953.477 532.708C954.437 530.584 954.92 528.275 954.891 525.944C954.891 520.964 953.411 517.337 950.449 515.065C947.475 512.816 943.286 511.71 937.883 511.71H925.516V567.614H940.022C942.254 567.622 944.476 567.316 946.623 566.707C948.656 566.142 950.567 565.208 952.262 563.951C953.908 562.722 955.254 561.134 956.197 559.309C957.21 557.266 957.708 555.006 957.648 552.727C957.706 550.143 956.952 547.605 955.49 545.473C954.032 543.388 952.083 541.694 949.814 540.541ZM929.378 515.463H938.046C941.382 515.298 944.683 516.214 947.457 518.075C949.802 519.815 950.969 522.68 950.957 526.67C951.05 529.576 950.112 532.421 948.309 534.702C946.496 536.842 943.685 537.93 939.696 537.93H929.378V515.463ZM951.99 559.164C950.713 560.877 948.96 562.176 946.949 562.899C944.737 563.739 942.388 564.157 940.022 564.132H929.469V541.647H939.787C942.042 541.648 944.28 542.035 946.405 542.79C948.478 543.503 950.324 544.755 951.754 546.416C953.236 548.281 953.99 550.62 953.876 552.999C953.943 555.205 953.28 557.372 951.99 559.164Z"
            fill="#292929" />
        <path
            d="M1007.33 541.357H1034.89V537.658H1007.33V515.463H1037.96V511.764H1003.47V567.668H1039.06V563.969H1007.33V541.357Z"
            fill="#292929" />
        <path
            d="M1104.04 509.316L1080.46 567.668H1084.36L1091.76 549.173H1116.44L1123.69 567.668H1128.03L1104.45 509.316H1104.04ZM1093.16 545.582L1104.11 518.075L1114.99 545.546L1093.16 545.582Z"
            fill="#292929" />
        <path
            d="M1206.23 548.774C1206.31 551.712 1205.61 554.618 1204.22 557.206C1202.96 559.495 1201.07 561.381 1198.78 562.645C1196.33 563.967 1193.58 564.635 1190.8 564.586C1188.05 564.631 1185.33 563.963 1182.91 562.645C1180.63 561.377 1178.74 559.492 1177.47 557.206C1176.08 554.618 1175.39 551.712 1175.46 548.774V511.764H1171.6V549.009C1171.49 552.636 1172.36 556.225 1174.12 559.4C1175.73 562.222 1178.12 564.52 1181.01 566.018C1184.06 567.522 1187.41 568.303 1190.81 568.303C1194.21 568.303 1197.56 567.522 1200.61 566.018C1203.5 564.515 1205.91 562.219 1207.54 559.4C1209.32 556.233 1210.21 552.642 1210.11 549.009V511.764H1206.32L1206.23 548.774Z"
            fill="#292929" />
        <path d="M1254.5 515.463H1270.8V567.668H1274.67V515.463H1291.11V511.764H1254.5V515.463Z" fill="#292929" />
        <path
            d="M1353.15 543.388L1334.98 511.764H1330.24L1351.12 547.74V567.668H1354.98V547.74L1375.83 511.764H1371.19L1353.15 543.388Z"
            fill="#292929" />
    </g>
    <defs>
        <clip-path id="clip0_405_3343">
            <rect width="921.7" height="61.0175" fill="white" transform="translate(499.3 509.316)" />
        </clip-path>
    </defs>
</svg>