<svg width="922" height="62" viewBox="0 0 922 62" fill="currentColor" xmlns="http://www.w3.org/2000/svg">
    <g clip-path="url(#clip0_329_2641)">
        <path
            d="M35.9313 33.7897C37.5129 31.896 38.6915 29.6994 39.3947 27.3344C40.1026 25.0376 40.4632 22.6478 40.4646 20.2443C40.5101 17.4825 40.0046 14.7394 38.9776 12.1752C38.0037 9.82255 36.5097 7.72094 34.6076 6.02812C32.5279 4.24056 30.102 2.90108 27.4813 2.09329C24.3399 1.12802 21.0662 0.662944 17.7802 0.715162H0.227448V58.7407H11.6512V40.2451H19.249L31.4887 58.6681H44.7983L31.2893 37.5976C33.0624 36.6316 34.6373 35.3398 35.9313 33.7897ZM11.6512 11.7399H19.8292C21.4796 11.6645 23.1217 12.0142 24.5982 12.7555C25.6853 13.3505 26.598 14.2193 27.2456 15.2759C27.7761 16.1965 28.1614 17.1935 28.388 18.2316C28.5497 19.0259 28.6407 19.833 28.66 20.6433C28.646 21.5661 28.4995 22.4821 28.2248 23.3633C27.9119 24.3663 27.4339 25.31 26.8104 26.1557C26.0885 27.0904 25.1567 27.842 24.0905 28.3498C22.7331 28.9727 21.2493 29.2707 19.7567 29.2202H11.6512V11.7399Z"
            fill="#292929" />
        <path
            d="M97.2208 35.1135H122.117V24.0886H97.2208V11.74H125.345V0.715164H85.8152V58.6682H126.433V47.6434H97.2208V35.1135Z"
            fill="#292929" />
        <path d="M191.748 33.3727L178.493 0.715164H164.784L191.24 61.3338L217.696 0.715164H204.151L191.748 33.3727Z"
            fill="#292929" />
        <path
            d="M270.609 35.1135H295.505V24.0886H270.609V11.74H298.733V0.715164H259.203V58.6682H299.821V47.6434H270.609V35.1135Z"
            fill="#292929" />
        <path d="M354.546 0.715164H343.141V58.6682H381.8V47.6434H354.546V0.715164Z" fill="#292929" />
        <path
            d="M450.814 31.5413C449.738 30.9997 448.615 30.5565 447.46 30.2175C448.45 29.838 449.393 29.3451 450.27 28.7487C452.097 27.4742 453.55 25.7336 454.477 23.7078C455.437 21.5836 455.92 19.275 455.891 16.9442C455.891 11.9637 454.411 8.33711 451.449 6.06445C448.475 3.81595 444.286 2.70978 438.883 2.70978H426.516V58.6138H441.022C443.254 58.6215 445.476 58.3163 447.623 57.7072C449.656 57.1419 451.567 56.2076 453.262 54.9509C454.908 53.7216 456.254 52.1343 457.197 50.3089C458.21 48.2659 458.708 46.0062 458.648 43.7266C458.706 41.1425 457.952 38.6052 456.49 36.4734C455.032 34.388 453.083 32.6941 450.814 31.5413ZM430.378 6.46332H439.046C442.382 6.2984 445.683 7.21413 448.457 9.07447C450.802 10.8152 451.969 13.6802 451.957 17.6695C452.05 20.5757 451.112 23.4214 449.309 25.7024C447.496 27.8421 444.685 28.9301 440.696 28.9301H430.378V6.46332ZM452.99 50.1638C451.713 51.8769 449.96 53.1761 447.949 53.8992C445.737 54.7386 443.388 55.1569 441.022 55.1323H430.469V32.6474H440.787C443.042 32.6481 445.28 33.0345 447.405 33.7898C449.478 34.5031 451.324 35.7547 452.754 37.4163C454.236 39.281 454.99 41.62 454.876 43.9986C454.943 46.2053 454.28 48.3723 452.99 50.1638Z"
            fill="#292929" />
        <path
            d="M508.332 32.3572H535.894V28.6581H508.332V6.46332H538.959V2.76419H504.47V58.6682H540.065V54.9691H508.332V32.3572Z"
            fill="#292929" />
        <path
            d="M605.035 0.316208L581.462 58.6682H585.361L592.759 40.1726H617.438L624.691 58.6682H629.025L605.452 0.316208H605.035ZM594.155 36.5822L605.108 9.07447L615.988 36.546L594.155 36.5822Z"
            fill="#292929" />
        <path
            d="M707.233 39.7736C707.308 42.7116 706.614 45.6183 705.22 48.2055C703.956 50.4954 702.07 52.3812 699.78 53.6454C697.331 54.9669 694.584 55.6351 691.802 55.5856C689.049 55.631 686.331 54.9625 683.914 53.6454C681.627 52.3765 679.743 50.4918 678.474 48.2055C677.08 45.6183 676.386 42.7116 676.461 39.7736V2.76423H672.599V40.0094C672.492 43.6361 673.363 47.2247 675.119 50.3995C676.733 53.2219 679.125 55.5198 682.01 57.0181C685.058 58.5215 688.412 59.3034 691.811 59.3034C695.21 59.3034 698.563 58.5215 701.612 57.0181C704.503 55.5154 706.906 53.2194 708.538 50.3995C710.321 47.233 711.211 43.642 711.113 40.0094V2.76423H707.323L707.233 39.7736Z"
            fill="#292929" />
        <path d="M755.503 6.46332H771.804V58.6682H775.667V6.46332H792.113V2.76419H755.503V6.46332Z" fill="#292929" />
        <path
            d="M854.146 34.3881L835.977 2.76419H831.244L852.115 38.74V58.6682H855.978V38.74L876.831 2.76419H872.189L854.146 34.3881Z"
            fill="#292929" />
        <path d="M895.888 4.68629H899.461V16.6178H901.51V4.68629H905.173V2.70979H895.888V4.68629Z" fill="#292929" />
        <path
            d="M921.964 2.23833L914.983 12.012L908.092 2.23833H908.074V16.6178H910.05V8.40355L914.928 15.1853H914.964L919.969 8.11342V16.6178H922V2.23833H921.964Z"
            fill="#292929" />
    </g>
    <defs>
        <clip-path id="clip0_329_2641">
            <rect width="921.7" height="61.0175" fill="white" transform="translate(0.299988 0.316254)" />
        </clip-path>
    </defs>
</svg>