<svg xmlns="http://www.w3.org/2000/svg" width="100%" height="100%" viewBox="0 0 553 482">
    <title>Comment</title>
    <path
        d="M337.247 206.979C337.247 194.137 347.455 183.715 360.033 183.715C372.612 183.715 382.82 194.137 382.82 206.979C382.82 219.821 372.612 230.243 360.033 230.243C347.455 230.243 337.247 219.821 337.247 206.979Z"
        fill="#292929" />
    <path
        d="M246.099 206.979C246.099 194.137 256.308 183.715 268.886 183.715C281.465 183.715 291.673 194.137 291.673 206.979C291.673 219.821 281.465 230.243 268.886 230.243C256.308 230.243 246.099 219.821 246.099 206.979Z"
        fill="#292929" />
    <path
        d="M154.952 206.979C154.952 194.137 165.16 183.715 177.739 183.715C190.317 183.715 200.526 194.137 200.526 206.979C200.526 219.821 190.317 230.243 177.739 230.243C165.16 230.243 154.952 219.821 154.952 206.979Z"
        fill="#292929" />
    <path fillRule="evenodd" clipRule="evenodd"
        d="M91.7212 78.7285H441.279C446.55 78.7285 450.823 83.0016 450.823 88.2728V319.721C450.823 324.991 446.55 329.265 441.279 329.265H91.7212C86.4501 329.265 82.1769 324.991 82.1769 319.721V88.2728C82.1769 83.0016 86.4501 78.7285 91.7212 78.7285ZM44 88.2728C44 61.9171 65.3655 40.5516 91.7212 40.5516H441.279C467.634 40.5516 489 61.9171 489 88.2728V319.721C489 346.076 467.634 367.442 441.279 367.442H373.276V403.833V405.58V418.603V430.89C373.276 440.113 362.417 445.044 355.473 438.976L346.221 430.89L336.414 422.32L335.099 421.171L284.537 376.986L281.483 374.318L273.615 367.442H91.7212C65.3655 367.442 44 346.077 44 319.721V88.2728Z"
        fill="#292929" />
</svg>