<svg xmlns="http://www.w3.org/2000/svg" width="100%" height="100%">
    <title>Messenger</title>
    <path
        d="M36.7393 6.25122C28.0886 -0.997151 15.4849 -0.997151 6.83411 6.25122C2.91144 9.55264 0.626988 14.4031 0.580078 19.5299C0.614018 23.698 2.14398 27.7151 4.89127 30.8498C4.34696 32.0819 3.461 33.1322 2.33829 33.8764C1.77439 34.2431 1.49878 34.9225 1.64789 35.5784C1.80045 36.2227 2.33286 36.7073 2.98862 36.7987C3.65885 36.8926 4.33493 36.9382 5.01172 36.9352C7.03693 36.9639 9.03827 36.4953 10.8402 35.5704C14.2113 37.3646 17.9719 38.302 21.7907 38.3C27.2685 38.3566 32.5805 36.4224 36.7393 32.8568C40.704 29.5855 43.0001 24.7142 43.0001 19.5741C43.0001 14.434 40.704 9.56269 36.7393 6.29136V6.25122ZM21.7907 36.1645C18.1368 36.177 14.5417 35.245 11.354 33.459C11.198 33.3674 11.021 33.3177 10.8402 33.3145C10.6505 33.3166 10.4649 33.3693 10.3023 33.467C8.69864 34.4026 6.86795 34.8776 5.01169 34.8398H4.53C5.68805 33.7955 6.56815 32.4795 7.09097 31.0103C7.22293 30.6405 7.14294 30.2282 6.88226 29.9346C4.2045 27.1336 2.70187 23.413 2.68347 19.538C2.68347 10.3697 11.2496 2.91149 21.7987 2.91149C32.3478 2.91149 40.914 10.3778 40.914 19.538C40.914 28.6982 32.3318 36.1645 21.7907 36.1645L21.7907 36.1645Z"
        fill="currentColor" />
    <path
        d="M25.6687 11.6544C24.2567 11.6527 22.8873 12.1376 21.791 13.0273C19.2677 10.9044 15.5166 11.16 13.3046 13.6056C11.0926 16.0511 11.2135 19.8089 13.5781 22.1072L20.4985 29.0276C20.8406 29.3717 21.3058 29.5653 21.791 29.5653C22.2763 29.5653 22.7415 29.3717 23.0835 29.0276L29.9959 22.1152C31.7328 20.362 32.2481 17.7377 31.3028 15.4579C30.3576 13.1782 28.1365 11.6883 25.6686 11.6785L25.6687 11.6544ZM28.5107 20.6461L21.791 27.3657L15.0714 20.622C13.4974 19.0502 13.4956 16.5 15.0674 14.9259C16.6392 13.3519 19.1894 13.3501 20.7634 14.9219L21.0524 15.211C21.2474 15.4081 21.5138 15.5182 21.791 15.516C22.07 15.515 22.3377 15.4056 22.5377 15.211L22.8106 14.93C24.3891 13.3559 26.9447 13.3595 28.5187 14.938C30.0927 16.5164 30.0891 19.072 28.5107 20.6461L28.5107 20.6461Z"
        fill="currentColor" />
</svg>