<svg xmlns="http://www.w3.org/2000/svg" width="100%" height="100%" viewBox="0 0 40 40" id="comment_dots">
  <title>Comment dots</title>
  <path
    d="M39.5652 32.3019C39.5305 32.2743 37.9963 30.6278 36.9341 28.5039C38.8432 26.6291 39.9887 24.2769 39.9887 21.7103C39.9887 16.1759 34.6778 11.603 27.7562 10.7867C25.5763 6.80183 20.432 4 14.4407 4C6.46385 4 0.000467582 8.95336 0.000467582 15.069C0.000467582 17.6287 1.14596 19.9808 3.05513 21.8625C1.99294 23.9864 0.465609 25.6329 0.437839 25.6606C0.000467594 26.1241 -0.124496 26.8021 0.132373 27.3901C0.3823 27.9781 0.965462 28.3586 1.60416 28.3586C5.31835 28.3586 8.31747 26.9612 10.2961 25.6744C10.9278 25.8197 11.5735 25.9304 12.2399 26.0065C14.4268 29.9844 19.5642 32.7862 25.5555 32.7862C26.9995 32.7862 28.388 32.6202 29.707 32.3158C31.6856 33.5956 34.6778 35 38.3989 35C39.0376 35 39.6138 34.6195 39.8707 34.0315C40.1206 33.4434 40.0026 32.7655 39.5652 32.3019ZM10.789 23.509L9.87257 23.3015L9.08114 23.8134C7.68571 24.7197 5.57522 25.7643 2.99265 26.0618C3.60358 25.2801 4.39501 24.1524 5.04066 22.8518L5.76267 21.4129L4.61717 20.2852C3.52027 19.2129 2.22204 17.4349 2.22204 15.069C2.22204 10.1848 7.70654 6.21379 14.4407 6.21379C21.1748 6.21379 26.6593 10.1848 26.6593 15.069C26.6593 19.9531 21.1748 23.9241 14.4407 23.9241C13.2119 23.9241 11.9831 23.7858 10.789 23.509ZM30.9081 30.4548L30.1166 29.9429L29.2002 30.1573C28.0061 30.4341 26.7773 30.5724 25.5485 30.5724C21.029 30.5724 17.0788 28.7806 14.9683 26.1241C22.6952 25.9027 28.8809 21.0462 28.8809 15.069C28.8809 14.4117 28.7906 13.7753 28.6518 13.1526C33.8864 14.1558 37.7672 17.6079 37.7672 21.7103C37.7672 24.0763 36.4689 25.8543 35.372 26.9266L34.2265 28.0542L34.9416 29.4863C35.5942 30.7938 36.3856 31.9214 36.9896 32.6963C34.414 32.4057 32.3035 31.3542 30.9081 30.4548Z"
    fill="currentColor" />
  <path
    d="M14.5 17C15.3284 17 16 16.3284 16 15.5C16 14.6716 15.3284 14 14.5 14C13.6716 14 13 14.6716 13 15.5C13 16.3284 13.6716 17 14.5 17Z"
    fill="currentColor" />
  <path
    d="M8.5 17C9.32843 17 10 16.3284 10 15.5C10 14.6716 9.32843 14 8.5 14C7.67157 14 7 14.6716 7 15.5C7 16.3284 7.67157 17 8.5 17Z"
    fill="currentColor" />
  <path
    d="M20.5 17C21.3284 17 22 16.3284 22 15.5C22 14.6716 21.3284 14 20.5 14C19.6716 14 19 14.6716 19 15.5C19 16.3284 19.6716 17 20.5 17Z"
    fill="currentColor" />
</svg>