<svg xmlns="http://www.w3.org/2000/svg" width="100%" height="100%" viewBox="0 0 40 40" id="light_bulb">
  <title>light bulb</title>
  <path
    d="M7 16C7 15.6022 6.84196 15.2206 6.56066 14.9393C6.27936 14.658 5.89782 14.5 5.5 14.5H1.5C1.10218 14.5 0.720644 14.658 0.43934 14.9393C0.158035 15.2206 0 15.6022 0 16C0 16.3978 0.158035 16.7794 0.43934 17.0607C0.720644 17.342 1.10218 17.5 1.5 17.5H5.5C5.89782 17.5 6.27936 17.342 6.56066 17.0607C6.84196 16.7794 7 16.3978 7 16V16ZM6.6925 21.9513L3.22875 23.9513C3.05438 24.0477 2.901 24.178 2.77754 24.3345C2.65409 24.4909 2.56305 24.6704 2.50973 24.8624C2.45642 25.0544 2.4419 25.2551 2.46703 25.4528C2.49216 25.6505 2.55643 25.8412 2.65609 26.0138C2.75575 26.1864 2.8888 26.3374 3.04747 26.458C3.20613 26.5785 3.38724 26.6663 3.5802 26.7161C3.77316 26.7659 3.97411 26.7767 4.17132 26.748C4.36852 26.7193 4.55802 26.6515 4.72875 26.5487L8.1925 24.5487C8.52926 24.346 8.77298 24.0192 8.87121 23.6385C8.96945 23.2579 8.91435 22.854 8.71778 22.5136C8.5212 22.1732 8.19886 21.9235 7.8201 21.8184C7.44134 21.7132 7.03643 21.7609 6.6925 21.9513V21.9513ZM8.1925 7.45125L4.72875 5.45125C4.55802 5.34846 4.36852 5.28072 4.17132 5.25199C3.97411 5.22326 3.77316 5.23411 3.5802 5.28391C3.38724 5.33372 3.20613 5.42147 3.04747 5.54205C2.8888 5.66263 2.75575 5.81362 2.65609 5.98619C2.55643 6.15877 2.49216 6.34948 2.46703 6.54717C2.4419 6.74487 2.45642 6.94559 2.50973 7.13761C2.56305 7.32963 2.65409 7.5091 2.77754 7.66554C2.901 7.82198 3.05438 7.95226 3.22875 8.04875L6.6925 10.0488C6.86323 10.1515 7.05273 10.2193 7.24993 10.248C7.44714 10.2767 7.64809 10.2659 7.84105 10.2161C8.03401 10.1663 8.21512 10.0785 8.37378 9.95795C8.53245 9.83737 8.6655 9.68638 8.76516 9.51381C8.86482 9.34123 8.92909 9.15053 8.95422 8.95283C8.97935 8.75514 8.96483 8.55442 8.91152 8.3624C8.8582 8.17037 8.76716 7.9909 8.64371 7.83446C8.52025 7.67802 8.36687 7.54775 8.1925 7.45125V7.45125ZM32.5588 10.25C32.8222 10.2505 33.081 10.1811 33.3088 10.0488L36.7725 8.04875C37.1093 7.846 37.353 7.51916 37.4512 7.13854C37.5494 6.75793 37.4944 6.35396 37.2978 6.01356C37.1012 5.67315 36.7789 5.42352 36.4001 5.31836C36.0213 5.21319 35.6164 5.26092 35.2725 5.45125L31.8088 7.45125C31.5229 7.61642 31.2996 7.87125 31.1733 8.17626C31.047 8.48127 31.0249 8.81941 31.1104 9.13827C31.1958 9.45713 31.3841 9.73889 31.6459 9.93989C31.9078 10.1409 32.2286 10.2499 32.5588 10.25ZM38.5 14.5H34.5C34.1022 14.5 33.7206 14.658 33.4393 14.9393C33.158 15.2206 33 15.6022 33 16C33 16.3978 33.158 16.7794 33.4393 17.0607C33.7206 17.342 34.1022 17.5 34.5 17.5H38.5C38.8978 17.5 39.2794 17.342 39.5607 17.0607C39.842 16.7794 40 16.3978 40 16C40 15.6022 39.842 15.2206 39.5607 14.9393C39.2794 14.658 38.8978 14.5 38.5 14.5ZM36.7713 23.9519L33.3075 21.9519C33.1368 21.8491 32.9473 21.7813 32.7501 21.7526C32.5529 21.7239 32.3519 21.7347 32.159 21.7845C31.966 21.8343 31.7849 21.9221 31.6262 22.0427C31.4676 22.1633 31.3345 22.3142 31.2348 22.4868C31.1352 22.6594 31.0709 22.8501 31.0458 23.0478C31.0207 23.2455 31.0352 23.4462 31.0885 23.6382C31.1418 23.8303 31.2328 24.0097 31.3563 24.1662C31.4797 24.3226 31.6331 24.4529 31.8075 24.5494L35.2713 26.5494C35.6152 26.7397 36.0201 26.7874 36.3988 26.6823C36.7776 26.5771 37.0999 26.3275 37.2965 25.9871C37.4931 25.6467 37.5482 25.2427 37.45 24.8621C37.3517 24.4815 37.108 24.1546 36.7713 23.9519ZM20 4C13.6075 4 9 9.1875 9 15C8.99629 17.6631 9.96431 20.236 11.7225 22.2362C12.7619 23.4237 14.3944 25.9113 14.9981 27.9963V28H17.9981V27.9925C17.998 27.6944 17.9531 27.3979 17.865 27.1131C17.5156 26 16.4375 23.0662 13.9788 20.2594C12.7037 18.8042 12.0017 16.9348 12.0037 15C11.99 10.3975 15.7325 7 20 7C21.5364 6.99895 23.0405 7.44064 24.3324 8.27221C25.6243 9.10377 26.6492 10.29 27.2845 11.6889C27.9197 13.0878 28.1384 14.6401 27.9144 16.1601C27.6904 17.68 27.0331 19.1032 26.0212 20.2594C23.5781 23.0475 22.4963 25.9762 22.1406 27.1006C22.0558 27.3915 22.0085 27.6921 22 27.995V28H25C25.6056 25.9144 27.2363 23.4263 28.2756 22.2406C29.6681 20.6509 30.5729 18.6937 30.8819 16.6031C31.1908 14.5125 30.8908 12.3772 30.0176 10.4527C29.1445 8.5282 27.7353 6.89609 25.9587 5.75171C24.1821 4.60733 22.1133 3.99916 20 4V4ZM20 9C18.4093 9.00182 16.8842 9.63455 15.7594 10.7594C14.6345 11.8842 14.0018 13.4093 14 15C14 15.2652 14.1054 15.5196 14.2929 15.7071C14.4804 15.8946 14.7348 16 15 16C15.2652 16 15.5196 15.8946 15.7071 15.7071C15.8946 15.5196 16 15.2652 16 15C16.0013 13.9395 16.4232 12.9229 17.173 12.173C17.9229 11.4232 18.9395 11.0013 20 11C20.2652 11 20.5196 10.8946 20.7071 10.7071C20.8946 10.5196 21 10.2652 21 10C21 9.73478 20.8946 9.48043 20.7071 9.29289C20.5196 9.10536 20.2652 9 20 9ZM15.0037 32.6994C15.0042 32.8961 15.0627 33.0883 15.1719 33.2519L16.7031 35.5537C16.7943 35.6909 16.918 35.8034 17.0631 35.8812C17.2082 35.9591 17.3703 35.9999 17.535 36H22.4631C22.6281 36.0002 22.7906 35.9595 22.9361 35.8817C23.0816 35.8038 23.2055 35.6911 23.2969 35.5537L24.8281 33.25C24.9366 33.0861 24.995 32.8941 24.9963 32.6975L25 30H15L15.0037 32.6994Z"
    fill="currentColor" />
</svg>