<svg xmlns="http://www.w3.org/2000/svg" width="100%" height="100%" viewBox="0 0 40 40">
    <title>light bulb solid</title>
    <path
        d="M15.0037 32.3963C15.0046 32.7891 15.1211 33.173 15.3387 33.5001L16.4075 35.1057C16.7344 35.6001 17.4806 35.9982 18.0725 35.9982H21.9287C22.5206 35.9982 23.2669 35.6001 23.5938 35.1057L24.6619 33.5001C24.8649 33.1661 24.9812 32.7867 25 32.3963V30.0001H15L15.0037 32.3963ZM19.9656 4.00006C13.59 4.01943 9 9.18756 9 15.0001C8.99629 17.6631 9.96431 20.2361 11.7225 22.2363C12.755 23.4144 14.37 25.8751 14.9856 27.9513C14.9856 27.9688 14.99 27.9844 14.9925 28.0001H25.0075C25.0075 27.9844 25.0119 27.9688 25.0144 27.9513C25.63 25.8751 27.245 23.4144 28.2775 22.2363C30.0357 20.2361 31.0037 17.6631 31 15.0001C31 8.91443 26.0569 3.98068 19.9656 4.00006ZM20 10.0001C18.6744 10.0015 17.4035 10.5288 16.4661 11.4662C15.5288 12.4035 15.0015 13.6744 15 15.0001C15 15.2653 14.8946 15.5196 14.7071 15.7072C14.5196 15.8947 14.2652 16.0001 14 16.0001C13.7348 16.0001 13.4804 15.8947 13.2929 15.7072C13.1054 15.5196 13 15.2653 13 15.0001C13.002 13.1442 13.7401 11.3648 15.0524 10.0525C16.3648 8.74018 18.1441 8.00204 20 8.00006C20.2652 8.00006 20.5196 8.10541 20.7071 8.29295C20.8946 8.48049 21 8.73484 21 9.00006C21 9.26527 20.8946 9.51963 20.7071 9.70716C20.5196 9.8947 20.2652 10.0001 20 10.0001ZM7 16.0001C7 15.6022 6.84196 15.2207 6.56066 14.9394C6.27936 14.6581 5.89782 14.5001 5.5 14.5001H1.5C1.10218 14.5001 0.720644 14.6581 0.43934 14.9394C0.158035 15.2207 0 15.6022 0 16.0001C0 16.3979 0.158035 16.7794 0.43934 17.0607C0.720644 17.342 1.10218 17.5001 1.5 17.5001H5.5C5.89782 17.5001 6.27936 17.342 6.56066 17.0607C6.84196 16.7794 7 16.3979 7 16.0001V16.0001ZM38.5 14.5001H34.5C34.1022 14.5001 33.7206 14.6581 33.4393 14.9394C33.158 15.2207 33 15.6022 33 16.0001C33 16.3979 33.158 16.7794 33.4393 17.0607C33.7206 17.342 34.1022 17.5001 34.5 17.5001H38.5C38.8978 17.5001 39.2794 17.342 39.5607 17.0607C39.842 16.7794 40 16.3979 40 16.0001C40 15.6022 39.842 15.2207 39.5607 14.9394C39.2794 14.6581 38.8978 14.5001 38.5 14.5001ZM8.1925 7.45131L4.72875 5.45131C4.55802 5.34852 4.36852 5.28078 4.17132 5.25205C3.97411 5.22332 3.77316 5.23417 3.5802 5.28397C3.38724 5.33377 3.20613 5.42153 3.04747 5.54211C2.8888 5.66269 2.75575 5.81367 2.65609 5.98625C2.55643 6.15883 2.49216 6.34953 2.46703 6.54723C2.4419 6.74492 2.45642 6.94564 2.50973 7.13766C2.56305 7.32968 2.65409 7.50916 2.77754 7.6656C2.901 7.82204 3.05438 7.95231 3.22875 8.04881L6.6925 10.0488C6.86323 10.1516 7.05273 10.2193 7.24993 10.2481C7.44714 10.2768 7.64809 10.2659 7.84105 10.2161C8.03401 10.1663 8.21512 10.0786 8.37378 9.95801C8.53245 9.83743 8.6655 9.68644 8.76516 9.51386C8.86482 9.34129 8.92909 9.15058 8.95422 8.95289C8.97935 8.75519 8.96483 8.55447 8.91152 8.36245C8.8582 8.17043 8.76716 7.99096 8.64371 7.83452C8.52025 7.67807 8.36687 7.5478 8.1925 7.45131V7.45131ZM36.7713 23.9513L33.3075 21.9513C33.1368 21.8485 32.9473 21.7808 32.7501 21.752C32.5529 21.7233 32.3519 21.7342 32.159 21.784C31.966 21.8338 31.7849 21.9215 31.6262 22.0421C31.4676 22.1627 31.3345 22.3137 31.2348 22.4863C31.1352 22.6588 31.0709 22.8495 31.0458 23.0472C31.0207 23.2449 31.0352 23.4456 31.0885 23.6377C31.1418 23.8297 31.2328 24.0092 31.3563 24.1656C31.4797 24.322 31.6331 24.4523 31.8075 24.5488L35.2713 26.5488C35.6152 26.7391 36.0201 26.7869 36.3988 26.6817C36.7776 26.5765 37.0999 26.3269 37.2965 25.9865C37.4931 25.6461 37.5482 25.2421 37.45 24.8615C37.3517 24.4809 37.108 24.1541 36.7713 23.9513ZM6.6925 21.9513L3.22875 23.9513C3.05438 24.0478 2.901 24.1781 2.77754 24.3345C2.65409 24.491 2.56305 24.6704 2.50973 24.8625C2.45642 25.0545 2.4419 25.2552 2.46703 25.4529C2.49216 25.6506 2.55643 25.8413 2.65609 26.0139C2.75575 26.1864 2.8888 26.3374 3.04747 26.458C3.20613 26.5786 3.38724 26.6663 3.5802 26.7161C3.77316 26.7659 3.97411 26.7768 4.17132 26.7481C4.36852 26.7193 4.55802 26.6516 4.72875 26.5488L8.1925 24.5488C8.52926 24.3461 8.77298 24.0192 8.87121 23.6386C8.96945 23.258 8.91435 22.854 8.71778 22.5136C8.5212 22.1732 8.19886 21.9236 7.8201 21.8184C7.44134 21.7132 7.03643 21.761 6.6925 21.9513V21.9513ZM32.5588 10.2501C32.8222 10.2506 33.081 10.1811 33.3088 10.0488L36.7725 8.04881C37.1093 7.84605 37.353 7.51921 37.4512 7.1386C37.5494 6.75798 37.4944 6.35402 37.2978 6.01361C37.1012 5.67321 36.7789 5.42357 36.4001 5.31841C36.0213 5.21325 35.6164 5.26097 35.2725 5.45131L31.8088 7.45131C31.5229 7.61647 31.2996 7.87131 31.1733 8.17632C31.047 8.48132 31.0249 8.81946 31.1104 9.13832C31.1958 9.45718 31.3841 9.73895 31.6459 9.93995C31.9078 10.1409 32.2286 10.2499 32.5588 10.2501Z"
        fill="currentColor" />
</svg>