<svg xmlns="http://www.w3.org/2000/svg" width="100%" height="100%" viewBox="0 0 24 24" fill="none"
    id="question_circle_light">
    <title>Question circle light</title>
    <path
        d="M12 15.658C11.3265 15.658 10.7806 16.2039 10.7806 16.8774C10.7806 17.5508 11.3265 18.0967 12 18.0967C12.6734 18.0967 13.2193 17.5508 13.2193 16.8774C13.2193 16.2039 12.6734 15.658 12 15.658ZM12.334 14.6129H11.6372C11.3486 14.6129 11.1146 14.3789 11.1146 14.0903V14.0737C11.1146 11.0104 14.487 11.3032 14.487 9.39624C14.487 8.52457 13.7135 7.64511 11.9856 7.64511C10.7164 7.64511 10.0579 8.06531 9.40704 8.8946C9.23685 9.11147 8.92565 9.15567 8.69946 8.99807L8.1275 8.59961C7.88254 8.42894 7.82876 8.087 8.01231 7.85157C8.93667 6.66588 10.0334 5.90318 11.9856 5.90318C14.264 5.90318 16.2289 7.19878 16.2289 9.39624C16.2289 12.332 12.8565 12.1768 12.8565 14.0737V14.0903C12.8565 14.3789 12.6226 14.6129 12.334 14.6129ZM12 2.5935C17.1657 2.5935 21.4064 6.77741 21.4064 12C21.4064 17.1949 17.1992 21.4064 12 21.4064C6.80707 21.4064 2.5935 17.2013 2.5935 12C2.5935 6.80885 6.80036 2.5935 12 2.5935ZM12 1.19995C6.03569 1.19995 1.19995 6.03744 1.19995 12C1.19995 17.9659 6.03569 22.7999 12 22.7999C17.9642 22.7999 22.7999 17.9659 22.7999 12C22.7999 6.03744 17.9642 1.19995 12 1.19995Z"
        fill="currentColor" />
</svg>