<svg xmlns="http://www.w3.org/2000/svg" width="100%" height="100%" viewBox="0 0 38 38" id="question_circle">
  <title>Question circle</title>
  <path
    d="M19 0C8.50733 0 0 8.51039 0 19C0 29.4957 8.50733 38 19 38C29.4927 38 38 29.4957 38 19C38 8.51039 29.4927 0 19 0ZM19 34.3226C10.5318 34.3226 3.67742 27.471 3.67742 19C3.67742 10.5347 10.5321 3.67742 19 3.67742C27.465 3.67742 34.3226 10.5321 34.3226 19C34.3226 27.468 27.471 34.3226 19 34.3226ZM27.2163 14.771C27.2163 19.908 21.6679 19.9871 21.6679 21.8855V22.371C21.6679 22.8787 21.2563 23.2903 20.7485 23.2903H17.2514C16.7437 23.2903 16.332 22.8787 16.332 22.371V21.7076C16.332 18.969 18.4082 17.8743 19.9772 16.9947C21.3226 16.2404 22.1472 15.7274 22.1472 14.7285C22.1472 13.4073 20.4618 12.5303 19.0992 12.5303C17.3226 12.5303 16.5025 13.3713 15.3496 14.8263C15.0388 15.2185 14.4716 15.2914 14.0728 14.989L11.9411 13.3726C11.5499 13.076 11.4622 12.5248 11.7386 12.119C13.5487 9.461 15.8543 7.96774 19.4439 7.96774C23.2034 7.96774 27.2163 10.9023 27.2163 14.771ZM22.2177 27.5806C22.2177 29.3549 20.7743 30.7984 19 30.7984C17.2257 30.7984 15.7823 29.3549 15.7823 27.5806C15.7823 25.8064 17.2257 24.3629 19 24.3629C20.7743 24.3629 22.2177 25.8064 22.2177 27.5806Z"
    fill="currentColor" />
</svg>