<svg xmlns="http://www.w3.org/2000/svg" width="100%" height="100%" viewBox="0 0 40 40">
    <title>quote solid right</title>
    <path
        d="M35.4375 4H25.9375C23.9707 4 22.375 5.53571 22.375 7.42857V16.5714C22.375 18.4643 23.9707 20 25.9375 20H31.875V24.5714C31.875 27.0929 29.7449 29.1429 27.125 29.1429H26.5312C25.5441 29.1429 24.75 29.9071 24.75 30.8571V34.2857C24.75 35.2357 25.5441 36 26.5312 36H27.125C33.6859 36 39 30.8857 39 24.5714V7.42857C39 5.53571 37.4043 4 35.4375 4ZM14.0625 4H4.5625C2.5957 4 1 5.53571 1 7.42857V16.5714C1 18.4643 2.5957 20 4.5625 20H10.5V24.5714C10.5 27.0929 8.36992 29.1429 5.75 29.1429H5.15625C4.16914 29.1429 3.375 29.9071 3.375 30.8571V34.2857C3.375 35.2357 4.16914 36 5.15625 36H5.75C12.3109 36 17.625 30.8857 17.625 24.5714V7.42857C17.625 5.53571 16.0293 4 14.0625 4Z"
        fill="currentColor" />
</svg>