<svg xmlns="http://www.w3.org/2000/svg" width="100%" height="100%" viewBox="0 0 40 40">
    <title>quote left</title>
    <path
        d="M34.25 17.8571H30.5556V17.3214C30.5556 15.8415 31.7365 14.6429 33.1944 14.6429H33.7222C35.4705 14.6429 36.8889 13.2031 36.8889 11.4286V8.21429C36.8889 6.43973 35.4705 5 33.7222 5H33.1944C26.4983 5 21.0556 10.5246 21.0556 17.3214V30.1786C21.0556 32.8371 23.1865 35 25.8056 35H34.25C36.8691 35 39 32.8371 39 30.1786V22.6786C39 20.0201 36.8691 17.8571 34.25 17.8571ZM35.8333 30.1786C35.8333 31.0625 35.1208 31.7857 34.25 31.7857H25.8056C24.9347 31.7857 24.2222 31.0625 24.2222 30.1786V17.3214C24.2222 12.2991 28.2465 8.21429 33.1944 8.21429H33.7222V11.4286H33.1944C29.9948 11.4286 27.3889 14.0737 27.3889 17.3214V21.0714H34.25C35.1208 21.0714 35.8333 21.7946 35.8333 22.6786V30.1786ZM14.1944 17.8571H10.5V17.3214C10.5 15.8415 11.6809 14.6429 13.1389 14.6429H13.6667C15.4149 14.6429 16.8333 13.2031 16.8333 11.4286V8.21429C16.8333 6.43973 15.4149 5 13.6667 5H13.1389C6.44271 5 1 10.5246 1 17.3214V30.1786C1 32.8371 3.1309 35 5.75 35H14.1944C16.8135 35 18.9444 32.8371 18.9444 30.1786V22.6786C18.9444 20.0201 16.8135 17.8571 14.1944 17.8571ZM15.7778 30.1786C15.7778 31.0625 15.0653 31.7857 14.1944 31.7857H5.75C4.87917 31.7857 4.16667 31.0625 4.16667 30.1786V17.3214C4.16667 12.2991 8.19097 8.21429 13.1389 8.21429H13.6667V11.4286H13.1389C9.93924 11.4286 7.33333 14.0737 7.33333 17.3214V21.0714H14.1944C15.0653 21.0714 15.7778 21.7946 15.7778 22.6786V30.1786Z"
        fill="currentColor" />
</svg>