<svg xmlns="http://www.w3.org/2000/svg" width="100%" height="100%">
    <title>quote right</title>
    <path
        d="M14.1944 5H5.75C3.1309 5 1 7.16295 1 9.82143V17.3214C1 19.9799 3.1309 22.1429 5.75 22.1429H9.44444V22.6786C9.44444 24.1585 8.26354 25.3571 6.80556 25.3571H6.27778C4.52951 25.3571 3.11111 26.7969 3.11111 28.5714V31.7857C3.11111 33.5603 4.52951 35 6.27778 35H6.80556C13.5017 35 18.9444 29.4754 18.9444 22.6786V9.82143C18.9444 7.16295 16.8135 5 14.1944 5ZM15.7778 22.6786C15.7778 27.7009 11.7535 31.7857 6.80556 31.7857H6.27778V28.5714H6.80556C10.0052 28.5714 12.6111 25.9263 12.6111 22.6786V18.9286H5.75C4.87917 18.9286 4.16667 18.2054 4.16667 17.3214V9.82143C4.16667 8.9375 4.87917 8.21429 5.75 8.21429H14.1944C15.0653 8.21429 15.7778 8.9375 15.7778 9.82143V22.6786ZM34.25 5H25.8056C23.1865 5 21.0556 7.16295 21.0556 9.82143V17.3214C21.0556 19.9799 23.1865 22.1429 25.8056 22.1429H29.5V22.6786C29.5 24.1585 28.3191 25.3571 26.8611 25.3571H26.3333C24.5851 25.3571 23.1667 26.7969 23.1667 28.5714V31.7857C23.1667 33.5603 24.5851 35 26.3333 35H26.8611C33.5573 35 39 29.4754 39 22.6786V9.82143C39 7.16295 36.8691 5 34.25 5ZM35.8333 22.6786C35.8333 27.7009 31.809 31.7857 26.8611 31.7857H26.3333V28.5714H26.8611C30.0608 28.5714 32.6667 25.9263 32.6667 22.6786V18.9286H25.8056C24.9347 18.9286 24.2222 18.2054 24.2222 17.3214V9.82143C24.2222 8.9375 24.9347 8.21429 25.8056 8.21429H34.25C35.1208 8.21429 35.8333 8.9375 35.8333 9.82143V22.6786Z"
        fill="currentColor" />
</svg>