<svg xmlns="http://www.w3.org/2000/svg" width="100%" height="100%" viewBox="0 0 40 40">
    <title>quote solid left</title>
    <path
        d="M35.4375 20H29.5V15.4286C29.5 12.9071 31.6301 10.8571 34.25 10.8571H34.8438C35.8309 10.8571 36.625 10.0929 36.625 9.14286V5.71429C36.625 4.76429 35.8309 4 34.8438 4H34.25C27.6891 4 22.375 9.11429 22.375 15.4286V32.5714C22.375 34.4643 23.9707 36 25.9375 36H35.4375C37.4043 36 39 34.4643 39 32.5714V23.4286C39 21.5357 37.4043 20 35.4375 20ZM14.0625 20H8.125V15.4286C8.125 12.9071 10.2551 10.8571 12.875 10.8571H13.4688C14.4559 10.8571 15.25 10.0929 15.25 9.14286V5.71429C15.25 4.76429 14.4559 4 13.4688 4H12.875C6.31406 4 1 9.11429 1 15.4286V32.5714C1 34.4643 2.5957 36 4.5625 36H14.0625C16.0293 36 17.625 34.4643 17.625 32.5714V23.4286C17.625 21.5357 16.0293 20 14.0625 20Z"
        fill="currentColor" />
</svg>