<svg xmlns="http://www.w3.org/2000/svg" width="100%" height="100%" fill="none">
    <title>Blowing a Kiss</title>
    <path
        d="M5.56782 38.3931C5.48064 37.3935 5.43416 36.388 5.43416 35.3651C5.43494 27.2318 8.34098 19.3662 13.6285 13.1861C18.916 7.00598 26.2371 2.91784 34.2724 1.65852C42.3076 0.399193 50.5284 2.05151 57.4531 6.31767C64.3778 10.5838 69.5509 17.1832 72.0399 24.9263C74.5289 32.6695 74.1702 41.047 71.0284 48.5491C67.8866 56.0511 62.1683 62.1841 54.9043 65.8427C47.6403 69.5013 39.3083 70.4449 31.4101 68.5033C23.5119 66.5617 16.5671 61.8628 11.8272 55.2533"
        stroke="#292929" strokeWidth="1.5" strokeLinecap="round" strokeLinejoin="round" />
    <path
        d="M20.4927 29.1638C20.8531 28.5424 21.3654 28.0227 21.9815 27.6534C22.5976 27.284 23.2974 27.0772 24.0153 27.0522C24.7333 27.0272 25.4458 27.1849 26.0861 27.5106C26.7264 27.8362 27.2735 28.3191 27.6762 28.9139"
        stroke="#292929" strokeWidth="1.5" strokeLinecap="round" strokeLinejoin="round" />
    <path
        d="M58.6418 29.1638C58.2814 28.5424 57.7692 28.0227 57.153 27.6534C56.5369 27.284 55.8371 27.0772 55.1192 27.0522C54.4013 27.0272 53.6888 27.1849 53.0485 27.5106C52.4082 27.8362 51.8611 28.3191 51.4584 28.9139"
        stroke="#292929" strokeWidth="1.5" strokeLinecap="round" strokeLinejoin="round" />
    <path
        d="M42.4499 54.3001C41.4567 54.9956 40.2389 55.2937 39.0368 55.1354C37.8346 54.9771 36.7355 54.374 35.9562 53.4451C35.1769 52.5162 34.774 51.329 34.8271 50.1176C34.8801 48.9063 35.3853 47.7588 36.2428 46.9016C36.6627 46.4791 37.1573 46.1382 37.7016 45.8962V45.8962C36.849 45.5136 36.1252 44.8924 35.6178 44.1076C35.1104 43.3228 34.841 42.4079 34.8422 41.4734C34.8407 40.5881 35.082 39.7194 35.5398 38.9616C35.9976 38.2039 36.6544 37.5863 37.4388 37.1758C38.2231 36.7653 39.105 36.5778 39.9885 36.6336C40.8721 36.6894 41.7234 36.9864 42.4499 37.4922"
        stroke="#292929" strokeWidth="1.5" strokeLinecap="round" strokeLinejoin="round" />
    <path
        d="M19.8011 38.8929C18.5355 38.2215 17.0551 38.0801 15.6852 38.4996C14.3154 38.9192 13.1681 39.8655 12.4956 41.1305C12.1439 41.7593 11.9579 42.4673 11.9551 43.1879C11.9503 42.4669 11.7623 41.7589 11.4088 41.1305C10.8647 40.1082 10.0068 39.2878 8.96124 38.7899C7.91573 38.2921 6.73797 38.1432 5.60144 38.3651C4.46492 38.5871 3.42974 39.1682 2.64837 40.0229C1.86701 40.8775 1.38079 41.9605 1.26132 43.1123C0.906796 46.5646 4.36482 48.7033 6.64888 50.6677C8.39244 52.1788 10.1651 53.6725 11.9667 55.1487C13.5476 53.8352 15.1168 52.5081 16.6743 51.1675C17.8367 50.1911 18.941 49.209 20.051 48.1977C21.5447 46.8319 22.7593 45.5882 22.6663 43.4262C22.6194 42.4878 22.3309 41.5775 21.829 40.7833C21.327 39.9891 20.6285 39.338 19.8011 38.8929V38.8929Z"
        stroke="#292929" strokeWidth="1.5" strokeLinecap="round" strokeLinejoin="round" />
</svg>