<svg xmlns="http://www.w3.org/2000/svg" width="100%" height="100%" fill="none">
    <title>Grinning</title>
    <path
        d="M16.9706 27.4261C16.9706 26.8293 17.1476 26.2459 17.4793 25.7497C17.811 25.2536 18.2825 24.867 18.834 24.6388C19.3855 24.4107 19.9923 24.3513 20.5775 24.4682C21.1628 24.585 21.7003 24.8729 22.1219 25.2953C22.5435 25.7177 22.8303 26.2558 22.946 26.8412C23.0618 27.4267 23.0012 28.0334 22.772 28.5845C22.5428 29.1355 22.1553 29.6062 21.6585 29.937C21.1617 30.2677 20.5779 30.4436 19.9811 30.4425C19.5853 30.4425 19.1933 30.3644 18.8277 30.2128C18.4621 30.0611 18.1299 29.8388 17.8503 29.5587C17.5707 29.2785 17.349 28.9459 17.1981 28.58C17.0471 28.2141 16.9698 27.822 16.9706 27.4261V27.4261Z"
        fill="#292929" />
    <path
        d="M47.7386 27.4261C47.7386 26.8293 47.9156 26.2459 48.2473 25.7497C48.579 25.2536 49.0505 24.867 49.602 24.6388C50.1535 24.4107 50.7603 24.3513 51.3455 24.4682C51.9308 24.585 52.4683 24.8729 52.8899 25.2953C53.3115 25.7177 53.5983 26.2558 53.714 26.8412C53.8298 27.4267 53.7692 28.0334 53.54 28.5845C53.3108 29.1355 52.9233 29.6062 52.4265 29.937C51.9297 30.2677 51.346 30.4436 50.7491 30.4425C50.3533 30.4425 49.9613 30.3644 49.5957 30.2128C49.2301 30.0611 48.8979 29.8388 48.6183 29.5587C48.3387 29.2785 48.117 28.9459 47.9661 28.58C47.8151 28.2141 47.7378 27.822 47.7386 27.4261V27.4261Z"
        fill="#292929" />
    <path
        d="M59.5046 59.5093C72.8344 46.1796 72.8344 24.5677 59.5046 11.238C46.1748 -2.09181 24.563 -2.09181 11.2332 11.238C-2.09654 24.5677 -2.09655 46.1796 11.2332 59.5093C24.563 72.8391 46.1748 72.8391 59.5046 59.5093Z"
        stroke="#292929" strokeWidth="1.5" strokeLinecap="round" strokeLinejoin="round" />
    <path
        d="M53.719 41.084C52.5004 44.998 50.0623 48.4199 46.7608 50.8498C43.4593 53.2797 39.4674 54.5903 35.368 54.5903C31.2687 54.5903 27.2768 53.2797 23.9753 50.8498C20.6738 48.4199 18.2358 44.998 17.0172 41.084H53.719Z"
        stroke="#292929" strokeWidth="1.5" strokeLinecap="round" strokeLinejoin="round" />
</svg>