<svg xmlns="http://www.w3.org/2000/svg" width="100%" height="100%" fill="none">
    <title>thinking</title>
    <path
        d="M18.1177 34.1177C26.9542 34.1177 34.1177 26.9542 34.1177 18.1177C34.1177 9.28112 26.9542 2.11768 18.1177 2.11768C9.28112 2.11768 2.11768 9.28112 2.11767 18.1177C2.11767 26.9542 9.28112 34.1177 18.1177 34.1177Z"
        fill="#D1D1D1" />
    <path
        d="M33.8824 18.0157C33.8858 15.627 33.3399 13.2685 32.2858 11.1177C31.749 16.3687 30.9035 21.0215 25.9749 25.7664C21.085 30.4741 13.7607 30.4384 4.76477 26.5069C7.6498 30.7724 12.1983 33.8824 17.7887 33.8824C22.057 33.8824 26.1505 32.2107 29.1687 29.2351C32.1868 26.2596 33.8824 22.2238 33.8824 18.0157Z"
        fill="#BBBBBB" />
    <path
        d="M18 34C26.8366 34 34 26.8366 34 18C34 9.16345 26.8366 2 18 2C9.16344 2 2 9.16344 2 18C2 26.8366 9.16344 34 18 34Z"
        stroke="#292929" strokeLinejoin="round" />
    <path
        d="M4.82728 27.412L4.82637 27.4132L4.40553 27.9299C4.40553 27.9299 4.40552 27.9299 4.40552 27.9299C3.81861 28.6494 3.5 29.5474 3.5 30.4704V32.3339C3.5 34.0936 4.9458 35.5 6.70703 35.5H11.2297C11.9963 35.5 12.632 34.8847 12.632 34.1113C12.632 33.8823 12.5763 33.6672 12.478 33.4779C12.8437 33.2285 13.0859 32.8113 13.0859 32.3339C13.0859 32.105 13.0302 31.8899 12.9319 31.7005C13.2976 31.4511 13.5398 31.034 13.5398 30.5566C13.5398 30.4213 13.5204 30.291 13.4843 30.1679H17.0977C17.8642 30.1679 18.5 29.5526 18.5 28.7792C18.5 28.0057 17.8642 27.3905 17.0977 27.3905H8.97109C8.4908 27.3905 8.11484 27.0093 8.11484 26.5548V23.8887C8.11484 23.1153 7.47908 22.5 6.7125 22.5C5.94592 22.5 5.31016 23.1153 5.31016 23.8887V26.0592C5.31016 26.553 5.14192 27.028 4.82728 27.412Z"
        fill="#E5E5E5" stroke="#292929" />
    <path
        d="M20.3556 25C20.2562 25 20.163 24.9768 20.0698 24.9362C20.0325 24.9188 16.5164 23.2887 12.6275 23.2016C12.2734 23.1958 11.9939 22.9174 12.0001 22.5867C12.0063 22.256 12.3045 21.9834 12.6586 22.0008C16.8456 22.0878 20.4922 23.7876 20.6475 23.863C20.9644 24.0138 21.0886 24.3735 20.9333 24.6693C20.8153 24.884 20.5916 25 20.3556 25Z"
        fill="#292929" />
    <path
        d="M12.4403 10C12.3219 10 12.1981 9.96334 12.0958 9.88478C12.0097 9.82193 10.0989 8.39216 7.80058 9.51293C7.52607 9.6491 7.19236 9.53912 7.0578 9.27202C6.92324 9.00492 7.03089 8.68021 7.30539 8.54404C10.255 7.10902 12.6879 8.95778 12.7902 9.03634C13.0324 9.22488 13.0701 9.56531 12.8763 9.79575C12.7686 9.93192 12.6072 10 12.4403 10Z"
        fill="#292929" />
    <path
        d="M21.4989 13C21.2664 13 21.058 12.8167 21.0096 12.5525C20.9563 12.2506 21.1307 11.9595 21.402 11.9002L25.4042 11.0107C25.6755 10.9514 25.9371 11.1454 25.9904 11.4473C26.0437 11.7492 25.8693 12.0404 25.598 12.0997L21.5958 12.9892C21.5668 12.9946 21.5329 13 21.4989 13Z"
        fill="#292929" />
    <path
        d="M11.8037 16.0101C11.8037 16.6111 11.3164 17.0983 10.7154 17.0983C10.1144 17.0983 9.6272 16.6111 9.6272 16.0101C9.6272 15.4091 10.1144 14.9219 10.7154 14.9219C11.3164 14.9219 11.8037 15.4091 11.8037 16.0101Z"
        fill="#292929" stroke="#292929" />
    <path
        d="M24.5096 16.0101C24.5096 16.6111 24.0224 17.0983 23.4214 17.0983C22.8203 17.0983 22.3331 16.6111 22.3331 16.0101C22.3331 15.4091 22.8203 14.9219 23.4214 14.9219C24.0224 14.9219 24.5096 15.4091 24.5096 16.0101Z"
        fill="#292929" stroke="#292929" />
</svg>