<svg xmlns="http://www.w3.org/2000/svg" width="100%" height="100%">
    <title>Comment money</title>
    <path
        d="M36.9452 28.5073C38.8528 26.6307 40 24.2773 40 21.7143C40 16.1772 34.691 11.6026 27.7653 10.7854C27.7653 10.7861 27.766 10.7868 27.766 10.7875C25.5813 6.80038 20.4404 4 14.4446 4C6.46681 4 0.000171293 8.95654 0.000171293 15.0714C0.000171293 17.6345 1.14739 19.9878 3.05502 21.8644C1.99252 23.9915 0.461975 25.6377 0.436975 25.6626C-0.00121759 26.1256 -0.12205 26.8064 0.130032 27.3919C0.253921 27.6783 0.459289 27.9224 0.720789 28.094C0.982289 28.2655 1.28847 28.357 1.60155 28.3571C5.31959 28.3571 8.31472 26.9566 10.2939 25.6737C10.9244 25.8183 11.5751 25.9283 12.2383 26.0072C14.4265 29.9895 19.5647 32.7857 25.5556 32.7857C26.9994 32.7857 28.391 32.6189 29.7063 32.3166C31.6855 33.5995 34.6806 35 38.3986 35C39.0389 35 39.6174 34.6194 39.8694 34.034C40.1222 33.4486 40.0007 32.7677 39.5625 32.3048C39.5382 32.2799 38.0076 30.6344 36.9452 28.5073ZM10.7932 23.5162L9.87374 23.3051L9.08277 23.8179C7.68903 24.7216 5.57654 25.7727 2.99391 26.0647C3.60293 25.2827 4.3946 24.1542 5.04529 22.8512L5.76195 21.4154L4.61682 20.2888C3.52446 19.2142 2.22238 17.4373 2.22238 15.0714C2.22238 10.1875 7.705 6.21429 14.4446 6.21429C21.1841 6.21429 26.6667 10.1875 26.6667 15.0714C26.6667 19.9553 21.1841 23.9286 14.4446 23.9286C13.2133 23.9286 11.9848 23.7895 10.7932 23.5162ZM30.9181 30.46L30.1271 29.9473L29.2077 30.1583C28.0099 30.433 26.7847 30.5716 25.5556 30.5714C21.032 30.5714 17.0834 28.7765 14.9702 26.1228C22.7022 25.909 28.8889 21.05 28.8889 15.0714C28.8889 14.4175 28.8007 13.7802 28.6584 13.1575C33.8972 14.1567 37.7778 17.6089 37.7778 21.7143C37.7778 24.0801 36.4757 25.8571 35.384 26.931L34.2389 28.0575L34.9556 29.4933C35.607 30.7984 36.4007 31.9284 37.0063 32.7068C34.4236 32.4148 32.3118 31.3637 30.9181 30.46V30.46ZM16.207 14.4424L13.3209 13.5796C13.0279 13.4917 12.8216 13.1907 12.8216 12.8475C12.8216 12.4302 13.123 12.0904 13.4925 12.0904H15.2939C15.5647 12.0904 15.8251 12.1652 16.055 12.305C16.2751 12.4385 16.5626 12.3845 16.7494 12.2081L17.5438 11.4559C17.789 11.2234 17.7786 10.8179 17.5063 10.6179C16.9383 10.2007 16.2584 9.95504 15.5564 9.90384V8.98214C15.5564 8.67629 15.3077 8.42857 15.0008 8.42857H13.8897C13.5828 8.42857 13.3341 8.67629 13.3341 8.98214V9.90937C11.8168 9.99864 10.5994 11.267 10.5994 12.8475C10.5994 14.1608 11.4564 15.3344 12.6828 15.7004L15.5689 16.5633C15.8619 16.6512 16.0682 16.9522 16.0682 17.2954C16.0682 17.7127 15.7668 18.0524 15.3973 18.0524H13.5959C13.3251 18.0524 13.0647 17.9777 12.8348 17.8379C12.6147 17.7037 12.3272 17.7583 12.1404 17.9348L11.346 18.6869C11.1008 18.9194 11.1112 19.3249 11.3835 19.5249C11.9515 19.9422 12.6314 20.1878 13.3334 20.239V21.1607C13.3334 21.4666 13.5821 21.7143 13.889 21.7143H15.0001C15.3071 21.7143 15.5557 21.4666 15.5557 21.1607V20.2335C17.073 20.1442 18.2904 18.8758 18.2904 17.2954C18.2904 15.9821 17.4327 14.8085 16.207 14.4424V14.4424Z"
        fill="none" />
</svg>