<svg xmlns="http://www.w3.org/2000/svg" width="100%" height="100%">
    <title>Comment</title>
    <path fillRule="evenodd" clipRule="evenodd"
        d="M0 10C0 4.46565 4.92593 0 11 0C17.037 0 22 4.46565 22 10C22 15.5344 17.0741 20 11 20C9 20 7.03704 19.5038 5.33333 18.5496C4.40741 19.0458 3.40741 19.2748 2.2963 19.2748C1.96296 19.2748 1.59259 19.2366 1.25926 19.1985C0.925926 19.1603 0.62963 18.8931 0.555556 18.5496C0.481481 18.2061 0.62963 17.8244 0.925926 17.6336C1.48148 17.2519 1.92593 16.7176 2.22222 16.0305C0.777778 14.313 0 12.1756 0 10ZM5.55556 17.4046C7.18518 18.3588 9.03704 18.855 10.963 18.855C16.4444 18.855 20.8519 14.8855 20.8519 10C20.8519 5.1145 16.4074 1.14504 10.963 1.14504C5.51852 1.14504 1.11111 5.1145 1.11111 10C1.11111 12.0229 1.85185 13.9695 3.22222 15.5344C3.37037 15.687 3.40741 15.916 3.33333 16.1069C3.03704 16.9084 2.62963 17.5954 2.03704 18.1298C3.14815 18.1679 4.14815 17.9389 5 17.4046C5.02318 17.3966 5.04475 17.3887 5.06538 17.381L5.0654 17.381C5.14364 17.3521 5.20837 17.3282 5.2963 17.3282C5.37037 17.3282 5.48148 17.3664 5.55556 17.4046ZM12.1579 10.2941C12.1579 10.7814 11.7691 11.1765 11.2895 11.1765C10.8099 11.1765 10.4211 10.7814 10.4211 10.2941C10.4211 9.80681 10.8099 9.41177 11.2895 9.41177C11.7691 9.41177 12.1579 9.80681 12.1579 10.2941ZM7.23683 11.1765C7.71644 11.1765 8.10525 10.7814 8.10525 10.2941C8.10525 9.8068 7.71644 9.41176 7.23683 9.41176C6.75721 9.41176 6.36841 9.8068 6.36841 10.2941C6.36841 10.7814 6.75721 11.1765 7.23683 11.1765ZM16.2105 10.2941C16.2105 10.7814 15.8217 11.1765 15.3421 11.1765C14.8625 11.1765 14.4737 10.7814 14.4737 10.2941C14.4737 9.80681 14.8625 9.41177 15.3421 9.41177C15.8217 9.41177 16.2105 9.80681 16.2105 10.2941Z"
        fill="none" />
</svg>