<svg xmlns="http://www.w3.org/2000/svg" width="100%" height="100%">
    <title>light</title>
    <path
        d="M2.68692 18.3131C2.24299 18.3131 1.88785 18.4907 1.53271 18.757C1.17757 19.0234 1 19.5561 1 20C1 20.4439 1.17757 20.7991 1.44393 21.1542C1.71028 21.5093 2.15421 21.5981 2.59813 21.5981H9.70093C10.1449 21.5981 10.5888 21.4206 10.8551 21.1542C11.2103 20.7991 11.2991 20.4439 11.2991 20C11.2991 19.5561 11.1215 19.1121 10.8551 18.8458C10.5 18.4907 10.1449 18.4019 9.70093 18.4019H2.68692V18.3131ZM14.5841 27.8131C14.9393 27.4579 15.028 27.1028 15.028 26.6589C15.028 26.215 14.8505 25.771 14.5841 25.5047C14.229 25.2383 13.8738 25.0607 13.4299 25.0607C12.986 25.0607 12.6308 25.2383 12.2757 25.5047L6.68224 31.0981C6.3271 31.4533 6.23832 31.8084 6.23832 32.2523C6.23832 32.6963 6.41589 33.0514 6.68224 33.4065C7.03738 33.7617 7.39252 33.8505 7.83645 33.8505C8.28037 33.8505 8.7243 33.6729 8.99065 33.4065L14.5841 27.8131ZM21.1542 29.1449C20.7991 28.7897 20.4439 28.7009 20 28.7009C19.5561 28.7009 19.2009 28.8785 18.8458 29.1449C18.4907 29.5 18.4019 29.8551 18.4019 30.2991V37.4019C18.4019 37.8458 18.5794 38.2897 18.8458 38.5561C19.2009 38.9112 19.5561 39 20 39C20.4439 39 20.7991 38.8224 21.1542 38.5561C21.5093 38.2009 21.5981 37.8458 21.5981 37.4019V30.2991C21.6869 29.8551 21.5093 29.4112 21.1542 29.1449ZM38.5561 18.8458C38.2009 18.4907 37.8458 18.4019 37.4019 18.4019H30.2991C29.8551 18.4019 29.4112 18.5794 29.1449 18.8458C28.7897 19.2009 28.7009 19.5561 28.7009 20C28.7009 20.4439 28.8785 20.7991 29.1449 21.1542C29.5 21.5093 29.8551 21.5981 30.2991 21.5981H37.4019C37.8458 21.5981 38.2009 21.4206 38.5561 21.1542C38.9112 20.7991 39 20.4439 39 20C39 19.5561 38.9112 19.1121 38.5561 18.8458ZM33.4953 33.4953C33.8505 33.1402 33.9393 32.785 33.9393 32.3411C33.9393 31.8972 33.7617 31.4533 33.4953 31.1869L27.9019 25.5935C27.6355 25.3271 27.1916 25.1495 26.7477 25.1495C26.3037 25.1495 25.8598 25.3271 25.5935 25.5935C25.3271 25.9486 25.1495 26.3037 25.1495 26.7477C25.1495 27.1916 25.3271 27.5467 25.5935 27.9019L31.2757 33.4953C31.5421 33.8505 31.986 33.9393 32.4299 33.9393C32.6963 33.9393 33.1402 33.7617 33.4953 33.4953ZM33.9393 7.74766C33.9393 7.30374 33.7617 6.85981 33.4953 6.59346C33.1402 6.23832 32.785 6.14953 32.3411 6.14953C31.8972 6.14953 31.4533 6.3271 31.1869 6.59346L25.5047 12.1869C25.2383 12.5421 25.0607 12.8972 25.0607 13.3411C25.0607 13.785 25.2383 14.1402 25.5047 14.4953C25.8598 14.8505 26.215 14.9393 26.6589 14.9393C27.1028 14.9393 27.5467 14.7617 27.8131 14.4953L33.4065 8.90187C33.7617 8.54673 33.9393 8.19159 33.9393 7.74766ZM21.6869 2.68692C21.6869 2.24299 21.5093 1.88785 21.243 1.53271C20.9766 1.17757 20.4439 1 20 1C19.5561 1 19.2009 1.17757 18.8458 1.44393C18.4907 1.79907 18.4019 2.15421 18.4019 2.59813V9.70093C18.4019 10.1449 18.5794 10.5 18.8458 10.8551C19.2009 11.2103 19.5561 11.2991 20 11.2991C20.4439 11.2991 20.7991 11.1215 21.1542 10.8551C21.5093 10.5888 21.5981 10.1449 21.5981 9.70093V2.68692H21.6869ZM8.90187 6.59346C8.63551 6.23832 8.19159 6.06075 7.74766 6.06075C7.30374 6.06075 6.9486 6.23832 6.59346 6.50467C6.23832 6.85981 6.06075 7.30374 6.06075 7.74766C6.06075 8.19159 6.23832 8.54673 6.50467 8.90187L12.0981 14.4953C12.4533 14.8505 12.8084 14.9393 13.2523 14.9393C13.6963 14.9393 14.1402 14.7617 14.4065 14.4953C14.7617 14.1402 14.8505 13.785 14.8505 13.3411C14.8505 12.8972 14.6729 12.4533 14.4065 12.1869L8.90187 6.59346Z"
        fill="none" />
</svg>