<svg xmlns="http://www.w3.org/2000/svg" width="100%" height="100%">
    <title>message icon</title>
    <path d="M21.4-14.3c0,0.1,0,0.2,0,0.3c0.1,0,0.1,0,0.2,0s0.1,0,0.2,0s0.1,0,0.2,0c0,0.1,0,0.1,0,0.2c0,0.1,0,0.2,0,0.2
	c0,0.1,0,0.2,0,0.2h0.1c0,0.1,0,0.2,0,0.3l0,0l0,0c0-0.1,0-0.2,0-0.3c0.1,0,0.1,0,0.2,0c0,0,0,0,0,0.1s0,0.2,0,0.2
	c0,0.1,0,0.3,0,0.4l0,0l0,0c0,0,0,0,0,0.1c0,0.2,0,0.3,0,0.5c0,0.1,0,0.2,0,0.3v0.1v0.1v0.1v0.1v0.1v0.1v0.1v0.1v0.1v0.1v0.1v0.1
	v0.1v0.1v0.1v0.1c0,0,0,0,0,0.1c0,0,0,0,0,0.1c0,0.2,0,0.3,0,0.5c0,0.1,0,0.2,0,0.3v0.1V-9v0.1v0.1v0.1v0.1v0.1v0.1v0.1v0.1v0.1V-8
	v0.1v0.1v0.1v0.1c0,0,0,0,0,0.1c0,0,0,0,0,0.1c0,0.2,0,0.3,0,0.5c0,0.1,0,0.2,0,0.3v0.1v0.1v0.1v0.1v0.1V-6v0.1v0.1v0.1v0.1
	c0,0.2,0,0.5,0,0.7c-0.1,0-0.1,0-0.2,0c0-0.1,0-0.2,0-0.3v0.1V-5v0.1H22c0,0,0,0,0,0.1s0,0.1,0,0.2s0,0.1,0,0.2s0,0.1,0,0.2
	c-0.2,0-0.4,0-0.7,0c0,0.1,0,0.2,0,0.3l0,0l0,0c-4.5,0-9,0-13.5,0c0-0.1,0-0.2,0-0.3c-0.1,0-0.2,0-0.3,0c0-0.2,0-0.4,0-0.6
	c-0.1,0-0.2,0-0.3,0l0,0l0,0c0.1,0,0.2,0,0.3,0v-0.1c-0.1,0-0.2,0-0.3,0c0-2.9,0-5.9,0-8.8c0.1,0,0.2,0,0.3,0v-0.1
	c-0.1,0-0.2,0-0.3,0l0,0c0.1,0,0.2,0,0.3,0c0-0.2,0-0.4,0-0.6c0.1,0,0.2,0,0.3,0c0-0.1,0-0.2,0-0.3C12.4-14.3,16.9-14.3,21.4-14.3z
	 M21-4.4L21-4.4c0-0.2,0-0.3,0-0.4c-0.1,0-0.2,0-0.3,0c0-0.1,0-0.2,0-0.3c-0.1,0-0.2,0-0.3,0c0-0.1,0-0.2,0-0.3l0,0l0,0
	c-0.1,0-0.2,0-0.3,0c0-0.1,0-0.2,0-0.3c-0.1,0-0.2,0-0.3,0c0-0.1,0-0.2,0-0.3c-0.1,0-0.2,0-0.3,0c0-0.1,0-0.2,0-0.3
	c-0.1,0-0.2,0-0.3,0c0-0.1,0-0.2,0-0.3c-0.1,0-0.2,0-0.3,0c0-0.1,0-0.2,0-0.3c-0.1,0-0.2,0-0.3,0c0-0.1,0-0.2,0-0.3l0,0l0,0
	c-0.1,0-0.2,0-0.3,0c0-0.1,0-0.2,0-0.3c-0.1,0-0.2,0-0.3,0c0-0.1,0-0.2,0-0.3c-0.2,0-0.4,0-0.7,0l0,0c0,0.1,0,0.2,0,0.3
	c-0.1,0-0.2,0-0.3,0c0,0.1,0,0.2,0,0.3c-0.1,0-0.2,0-0.2,0c-0.1,0-0.2,0-0.2,0c-0.1,0-0.1,0-0.2,0c0,0.1,0,0.2,0,0.3
	c-0.1,0-0.2,0-0.3,0l0,0c0,0.1,0,0.2,0,0.3c-0.5,0-1,0-1.5,0c0-0.1,0-0.1,0-0.2c0.1,0,0.1,0,0.2,0c-0.1,0-0.1,0-0.2,0v-0.1l0,0v0.1
	h-0.1v-0.1c-0.1,0-0.2,0-0.3,0c0-0.1,0-0.2,0-0.3c-0.1,0-0.2,0-0.2,0c-0.1,0-0.1,0-0.2,0c-0.1,0-0.1,0-0.2,0c0-0.1,0-0.2,0-0.3l0,0
	l0,0c-0.1,0-0.2,0-0.3,0c0-0.1,0-0.2,0-0.3c0,0,0,0,0-0.1h-0.1h-0.1H13h-0.1h-0.1h-0.1h-0.1v0.1v0.1v0.1c-0.1,0-0.2,0-0.3,0
	c0,0.1,0,0.2,0,0.3c-0.1,0-0.2,0-0.3,0c0,0.1,0,0.2,0,0.3c-0.1,0-0.2,0-0.3,0c0,0,0,0,0,0.1c0,0,0,0,0,0.1c0,0,0,0,0,0.1
	c0,0,0,0,0,0.1c0,0,0,0,0,0.1c-0.1,0-0.2,0-0.3,0l0,0c0,0.1,0,0.2,0,0.3c-0.1,0-0.2,0-0.3,0l0,0c0,0,0,0,0,0.1s0,0.2,0,0.3
	c-0.1,0-0.2,0-0.3,0c0,0.1,0,0.2,0,0.3c-0.1,0-0.2,0-0.2,0c-0.1,0-0.2,0-0.2,0c-0.1,0-0.1,0-0.2,0c0,0.1,0,0.2,0,0.3c0,0,0,0,0,0.1
	c-0.1,0-0.2,0-0.3,0c0,0.1,0,0.2,0,0.3c0,0,0,0-0.1,0c0,0,0,0-0.1,0c0,0,0,0-0.1,0c0,0,0,0-0.1,0c0,0,0,0-0.1,0c0,0,0,0-0.1,0
	c0,0.1,0,0.2,0,0.3c-0.1,0-0.2,0-0.3,0c0,0.1,0,0.2,0,0.3c0.1,0,0.2,0,0.3,0c0,0.1,0,0.2,0,0.3c0.2,0,12.4,0,12.5,0
	C21-4.2,21-4.3,21-4.4C21-4.3,21-4.3,21-4.4C21-4.3,21-4.3,21-4.4z M21-13.4c0-0.1,0-0.1,0-0.2c-4.2,0-8.3,0-12.5,0
	c0,0.1,0,0.2,0,0.3c-0.1,0-0.2,0-0.3,0c0,0.3,0,0.7,0,1c0.1,0,0.2,0,0.2,0c0.1,0,0.2,0,0.2,0c0.1,0,0.1,0,0.2,0c0,0.1,0,0.2,0,0.3
	c0.1,0,0.2,0,0.3,0c0,0.1,0,0.2,0,0.3l0,0l0,0c0.1,0,0.2,0,0.3,0c0,0.1,0,0.2,0,0.3c0.1,0,0.1,0,0.2,0c0.1,0,0.1,0,0.2,0
	c0.1,0,0.1,0,0.2,0c0,0,0,0,0.1,0c0,0.1,0,0.2,0,0.3l0,0c0.1,0,0.2,0,0.3,0c0,0.1,0,0.2,0,0.3c0.1,0,0.2,0,0.3,0l0,0
	c0,0.1,0,0.2,0,0.3c0.1,0,0.1,0,0.2,0c0.1,0,0.1,0,0.2,0c0,0,0,0,0.1,0c0,0.1,0,0.2,0,0.3l0,0l0,0c0-0.1,0-0.2,0-0.3
	c0.1,0,0.1,0,0.2,0c0,0.1,0,0.2,0,0.3l0,0c0.1,0,0.2,0,0.3,0v0.1v0.1v0.1l0,0c0.1,0,0.2,0,0.3,0c0,0.1,0,0.2,0,0.3
	c0.1,0,0.2,0,0.3,0c0,0.1,0,0.2,0,0.3c0.1,0,0.2,0,0.2,0c0.1,0,0.2,0,0.2,0c0.1,0,0.1,0,0.2,0c0,0.1,0,0.2,0,0.3c0.1,0,0.2,0,0.3,0
	c0,0,0,0,0,0.1s0,0.2,0,0.3c0.1,0,0.2,0,0.3,0c0,0,0,0,0.1,0c0,0.1,0,0.2,0,0.3c0.6,0,1.1,0,1.7,0c0-0.1,0-0.2,0-0.3l0,0
	c0.1,0,0.2,0,0.3,0c0-0.1,0-0.2,0-0.3l0,0c0.1,0,0.2,0,0.3,0c0-0.1,0-0.2,0-0.3c0.1,0,0.2,0,0.2,0c0.1,0,0.1,0,0.2,0s0.1,0,0.2,0
	c0-0.1,0-0.2,0-0.3c0.1,0,0.2,0,0.3,0c0-0.1,0-0.2,0-0.3c0,0,0,0,0-0.1c0.1,0,0.2,0,0.3,0c0-0.1,0-0.2,0-0.3c0.1,0,0.2,0,0.3,0l0,0
	c0-0.1,0-0.2,0-0.3c0.1,0,0.2,0,0.2,0c0.1,0,0.2,0,0.2,0c0.1,0,0.1,0,0.2,0c0-0.1,0-0.2,0-0.3c0.1,0,0.2,0,0.3,0c0-0.1,0-0.2,0-0.3
	c0.1,0,0.2,0,0.3,0c0-0.1,0-0.2,0-0.3c0.1,0,0.2,0,0.2,0c0.1,0,0.2,0,0.2,0c0.1,0,0.1,0,0.2,0c0-0.1,0-0.2,0-0.3c0.1,0,0.2,0,0.3,0
	c0-0.1,0-0.2,0-0.3l0,0l0,0c0.1,0,0.2,0,0.3,0c0-0.1,0-0.2,0-0.3c0.1,0,0.2,0,0.3,0c0-0.1,0-0.1,0-0.2h0.1h0.1c0,0.1,0,0.1,0,0.2
	l0,0l0,0c0-0.1,0-0.1,0-0.2h0.1l0,0h-0.1v-0.1h0.1c0-0.2,0-0.4,0-0.7c-0.1,0-0.2,0-0.3,0C21-13.3,21-13.3,21-13.4
	C21-13.3,21-13.3,21-13.4L21-13.4L21-13.4z M18.3-9.2c0,0.2,0,0.5,0,0.7l0,0h0.1h0.1c0,0,0,0,0.1,0h0.1c0,0.1,0,0.2,0,0.3l0,0
	c0.1,0,0.2,0,0.3,0c0,0.1,0,0.2,0,0.3c0.1,0,0.2,0,0.3,0l0,0l0,0c0,0.1,0,0.2,0,0.3c0.1,0,0.2,0,0.3,0c0,0.1,0,0.2,0,0.3
	c0.1,0,0.2,0,0.3,0c0,0.1,0,0.2,0,0.3c0.1,0,0.2,0,0.3,0c0,0.1,0,0.2,0,0.3l0,0l0,0c0.1,0,0.2,0,0.3,0c0,0.1,0,0.2,0,0.3
	c0.1,0,0.2,0,0.3,0c0,0.1,0,0.2,0,0.3c0.1,0,0.2,0,0.3,0c0-1.8,0-3.6,0-5.4l0,0c0,0,0,0-0.1,0c0,0,0,0-0.1,0h-0.1h-0.1l0,0
	c0,0.1,0,0.2,0,0.3c-0.2,0-0.3,0-0.5,0c-0.1,0-0.1,0-0.2,0c0,0.1,0,0.2,0,0.3c-0.1,0-0.2,0-0.3,0c0,0.1,0,0.2,0,0.3
	c-0.1,0-0.2,0-0.3,0l0,0l0,0c0,0.1,0,0.2,0,0.3c-0.1,0-0.2,0-0.2,0c-0.1,0-0.2,0-0.2,0c-0.1,0-0.1,0-0.2,0v0.1v0.1v0.1
	c-0.1,0-0.2,0-0.3,0c0,0.1,0,0.2,0,0.3C18.6-9.2,18.4-9.2,18.3-9.2z M8.2-5.8c0.1,0,0.2,0,0.3,0c0-0.1,0-0.2,0-0.3l0,0l0,0
	c0.1,0,0.2,0,0.3,0c0-0.1,0-0.2,0-0.3c0.1,0,0.2,0,0.3,0c0-0.1,0-0.2,0-0.3c0.1,0,0.2,0,0.3,0c0-0.1,0-0.2,0-0.3c0.1,0,0.2,0,0.3,0
	c0-0.1,0-0.2,0-0.3c0.1,0,0.2,0,0.3,0c0-0.1,0-0.2,0-0.3c0.1,0,0.2,0,0.3,0c0-0.1,0-0.2,0-0.3c0.1,0,0.2,0,0.3,0c0-0.1,0-0.2,0-0.3
	c0.1,0,0.2,0,0.3,0l0,0c0-0.1,0-0.2,0-0.3s0-0.2,0-0.4c0,0,0,0,0-0.1c-0.1,0-0.2,0-0.3,0c0-0.1,0-0.2,0-0.3c-0.1,0-0.2,0-0.3,0l0,0
	c0-0.1,0-0.1,0-0.2h-0.1v0.1v0.1c0-0.1,0-0.1,0-0.2c-0.1,0-0.2,0-0.2,0h0.1h0.1v-0.1c-0.1,0-0.2,0-0.3,0s-0.1,0-0.2,0
	c0-0.1,0-0.2,0-0.3l0,0c-0.1,0-0.2,0-0.3,0c0-0.1,0-0.2,0-0.3c-0.1,0-0.2,0-0.3,0v-0.1v-0.1v-0.1c-0.1,0-0.2,0-0.2,0
	c-0.1,0-0.2,0-0.2,0c-0.1,0-0.1,0-0.2,0c0-0.1,0-0.2,0-0.3c-0.1,0-0.2,0-0.3,0C8.2-9.4,8.2-7.6,8.2-5.8z M10.5-9.9v0.1h0.1
	C10.5-9.8,10.5-9.8,10.5-9.9L10.5-9.9z" />
    <g>
        <path
            d="M4.8,9.4H2.3C2,9.4,1.8,9.2,1.8,8.8c0-0.3,0.2-0.6,0.5-0.6h2.5c0.3,0,0.5,0.3,0.5,0.6C5.3,9.2,5,9.4,4.8,9.4z" />
        <path d="M4.8,12H3.7c-0.3,0-0.5-0.2-0.5-0.5S3.4,11,3.7,11h1.1c0.3,0,0.5,0.2,0.5,0.5S5.1,12,4.8,12z" />
        <path
            d="M4.8,14.6H1.6c-0.3,0-0.5-0.3-0.5-0.6c0-0.3,0.2-0.6,0.5-0.6h3.2c0.3,0,0.5,0.3,0.5,0.6C5.3,14.3,5.1,14.6,4.8,14.6z" />
        <path d="M21.3,6.1H8.1c-0.9,0-1.7,0.7-1.7,1.7v8.5c0,0.9,0.7,1.7,1.7,1.7h13.3c0.9,0,1.7-0.7,1.7-1.7V7.8C23,6.9,22.3,6.1,21.3,6.1
		z M18.4,11.7c1.3-1,2.7-2.1,3.6-2.7v6.4L18.4,11.7z M8.1,7.2h13.3c0.3,0,0.5,0.2,0.6,0.5c-1,0.8-5.4,4.2-7,5.4
		c-0.2,0.1-0.3,0.1-0.5,0c-1.6-1.2-5.7-4.1-7-5V7.8C7.5,7.4,7.8,7.2,8.1,7.2z M7.5,15.3v-6c0.9,0.6,2.3,1.6,3.6,2.6L7.5,15.3z
		 M8.1,16.8c-0.2,0-0.3-0.1-0.4-0.2l4.3-4.1c0.7,0.5,1.4,1,1.9,1.3c0.3,0.2,0.6,0.3,0.9,0.3s0.6-0.1,0.9-0.3c0.5-0.3,1.2-0.9,2-1.5
		l4.2,4.3c-0.1,0.1-0.2,0.2-0.4,0.2H8.1z" />
    </g>
</svg>