<svg xmlns="http://www.w3.org/2000/svg" width="100%" height="100%">
    <title>Messenger</title>
    <path
        d="M19.0431 0C8.31446 0 0 7.84097 0 18.4317C0 23.9711 2.27629 28.7581 5.98147 32.0649C6.62123 32.6403 6.48944 32.9736 6.59824 36.5263C6.60681 36.7752 6.67613 37.0181 6.80016 37.234C6.9242 37.4499 7.09917 37.6322 7.30983 37.765C7.52049 37.8977 7.76043 37.9769 8.00872 37.9957C8.25702 38.0144 8.50613 37.9721 8.73432 37.8725C12.7881 36.0873 12.8402 35.9463 13.5275 36.1333C25.2721 39.3657 38.0019 31.8496 38.0019 18.4317C38.0019 7.84097 29.7725 0 19.0431 0ZM30.4774 14.1841L24.8844 23.0387C24.6732 23.3716 24.3955 23.6574 24.0687 23.878C23.7419 24.0986 23.373 24.2494 22.9853 24.3208C22.5975 24.3922 22.1991 24.3828 21.8152 24.2931C21.4312 24.2034 21.0699 24.0353 20.754 23.7995L16.3041 20.4689C16.1051 20.3197 15.8632 20.2391 15.6145 20.2391C15.3658 20.2391 15.1239 20.3197 14.925 20.4689L8.9205 25.0231C8.11908 25.6306 7.06943 24.6706 7.60958 23.8225L13.2026 14.9679C13.4137 14.6348 13.6914 14.349 14.0182 14.1283C14.345 13.9076 14.7138 13.7568 15.1017 13.6854C15.4895 13.6139 15.8878 13.6234 16.2718 13.7132C16.6558 13.8029 17.0171 13.9711 17.333 14.2071L21.7814 17.5368C21.9803 17.686 22.2223 17.7667 22.4709 17.7667C22.7196 17.7667 22.9616 17.686 23.1605 17.5368L29.168 12.9873C29.9679 12.3759 31.0176 13.3352 30.4774 14.1841Z"
        fill="none" />
</svg>