<svg xmlns="http://www.w3.org/2000/svg" width="100%" height="100%" viewBox="0 0 55 68">
    <title>guard</title>
    <path
        d="M52.6628 0H2.33752C1.04659 0 0 1.04627 0 2.33752V40.0823C0.00124668 55.3179 25.4622 66.8911 26.5461 67.3761C26.85 67.512 27.1754 67.5799 27.5011 67.5799C27.8268 67.5799 28.1525 67.512 28.4557 67.3761C29.54 66.8908 55 55.3179 55 40.0819V2.33752C55.0003 1.04627 53.954 0 52.6628 0ZM50.3253 40.0819C50.3253 49.7646 34.6717 59.2481 27.5014 62.6668C20.3308 59.2481 4.67629 49.7649 4.67535 40.0819V4.67504H50.3256L50.3253 40.0819Z"
        fill="currentColor" />
    <path
        d="M18.7003 51.5716C21.5468 53.6502 24.4577 55.3248 26.3982 56.3633C26.7423 56.5478 27.1216 56.64 27.5012 56.64C27.8808 56.64 28.2604 56.5478 28.6048 56.3629C30.5456 55.3235 33.4556 53.6486 36.3027 51.5716C39.7567 49.049 45.5512 44.1143 45.5512 39.4072V11.5324C45.5512 10.2415 44.5049 9.19489 43.2137 9.19489H11.7887C10.4974 9.19489 9.45117 10.2415 9.45117 11.5324V39.4072C9.45117 44.1159 15.246 49.0499 18.7003 51.5716ZM14.1262 13.8699H40.8762V39.4072C40.8762 40.4569 39.344 43.5614 33.546 47.7958C31.4086 49.3554 29.2176 50.6768 27.5009 51.6377C25.7839 50.6778 23.5941 49.3569 21.457 47.7961C15.6584 43.5627 14.1262 40.4575 14.1262 39.4072V13.8699Z"
        fill="currentColor" />
</svg>