<svg xmlns="http://www.w3.org/2000/svg" width="100%" height="100%" viewBox="0 0 63 65">
    <title>Style and Fashion Content</title>
    <path
        d="M50.7209 -0.00127498C51.5926 0.444097 51.6674 1.24856 51.6091 2.0822C53.3094 2.32709 53.7738 2.62908 53.7522 3.44623C53.7306 4.26338 53.2814 4.5235 51.8223 4.7151C51.5685 5.36983 51.401 5.98396 51.1041 6.52196C51 6.71102 50.5889 6.80365 50.3136 6.81253C49.4964 6.83918 49.2109 6.35828 49.0447 4.90924C48.3785 4.64658 47.7543 4.46006 47.201 4.14792C47.0183 4.04641 46.9473 3.62515 46.9473 3.34853C46.9473 2.5187 47.4548 2.23066 49.0802 2.10885C49.0257 1.27267 49.0307 0.414916 49.9684 -0.00634766L50.7209 -0.00127498Z"
        fill="currentColor" />
    <path
        d="M59.1836 25.2491C60.0553 25.6958 60.1301 26.5002 60.0654 27.3326C61.7657 27.5775 62.2301 27.8795 62.2085 28.6967C62.187 29.5138 61.7391 29.7752 60.2786 29.9719C60.0248 30.6266 59.8586 31.2407 59.5604 31.7775C59.4564 31.9678 59.0453 32.0604 58.7699 32.0693C57.9528 32.0959 57.6685 31.615 57.5011 30.166C56.8336 29.9033 56.2106 29.7168 55.6561 29.4047C55.4734 29.3032 55.4023 28.8806 55.4023 28.6053C55.4023 27.7755 55.9099 27.4874 57.5366 27.3656C57.4807 26.5294 57.4871 25.6717 58.4248 25.2491H59.1836Z"
        fill="currentColor" />
    <path
        d="M6.60742 45.2972L3.00004 51.5489C4.27778 52.2861 5.51366 53.0018 6.75207 53.7136C7.19364 53.9674 7.53496 54.2808 7.57049 54.8315C7.63774 55.8466 6.65056 56.5102 5.71794 56.028C4.87542 55.5928 4.06842 55.0903 3.24746 54.6158C2.46161 54.1641 1.67661 53.7111 0.892449 53.2568C-0.0693511 52.696 -0.231764 52.0819 0.331613 51.0998C1.83649 48.4876 3.3439 45.8771 4.85385 43.2683C5.46798 42.2063 6.03009 42.0515 7.07944 42.6453C7.24439 42.7379 7.41061 42.8267 7.62124 42.9422C8.79748 41.7647 9.97753 40.591 11.1462 39.4071C14.3653 36.1424 18.2619 34.4269 22.8451 34.3317C25.7812 34.2759 28.39 35.2199 30.6816 37.0661C30.989 37.3011 31.362 37.4342 31.7487 37.4468C34.0327 37.481 36.309 37.5368 38.5841 37.4468C42.1534 37.3072 44.6404 40.8232 43.2789 44.0588C43.255 44.1524 43.2393 44.248 43.232 44.3443C43.7941 44.2174 44.3257 44.1337 44.8421 43.9903C46.8438 43.4322 48.6636 42.358 50.1194 40.8752C51.4923 39.5023 52.8373 38.1015 54.247 36.7666C54.8591 36.1729 55.6178 35.752 56.4456 35.5471C57.2734 35.3422 58.1408 35.3605 58.9592 35.6002C59.7776 35.8398 60.5179 36.2923 61.1044 36.9114C61.6909 37.5304 62.1028 38.294 62.2979 39.1242C62.6646 40.6265 62.4553 42.1136 61.3882 43.2239C58.702 46.0154 56.1604 48.9833 52.9832 51.2571C49.7374 53.5791 46.0679 54.7477 42.0862 54.801C37.465 54.8607 32.8438 54.8175 28.2225 54.8201H27.5881C27.3673 55.3441 27.2252 55.8034 26.993 56.2158C25.5313 58.7789 24.0505 61.3319 22.5723 63.8861C21.9632 64.9393 21.3922 65.0903 20.3391 64.4825C18.805 63.5943 17.2748 62.7061 15.7382 61.8293C15.1938 61.5184 14.8614 61.0946 14.9578 60.4449C15.0936 59.5301 16.0351 59.1025 16.9017 59.5808C18.0272 60.2026 19.1311 60.8624 20.2452 61.5044C20.4228 61.6072 20.6068 61.7011 20.8339 61.8255L24.4363 55.5928L6.60742 45.2972ZM9.89505 44.225C9.96778 44.2885 10.044 44.3478 10.1234 44.4027C14.5755 46.9742 19.03 49.5429 23.4871 52.1085C23.7279 52.2308 23.995 52.2918 24.265 52.2861C30.0878 52.295 35.9119 52.3229 41.7347 52.2861C46.2696 52.2544 50.2361 50.6886 53.5351 47.5647C55.4499 45.7515 57.291 43.8609 59.1359 41.9817C59.4562 41.6497 59.6917 41.2453 59.8224 40.8029C59.9525 40.3204 59.9171 39.8081 59.7218 39.3481C59.5265 38.8881 59.1826 38.5068 58.7451 38.2652C57.8201 37.7373 56.7149 37.8934 55.9028 38.694C54.4614 40.1177 53.0593 41.5807 51.5887 42.9752C48.8074 45.6208 45.4715 46.9518 41.6345 46.9899C39.2503 47.0127 36.8661 46.9899 34.4819 46.9899C32.7943 46.9899 31.1054 46.9975 29.4178 46.9899C28.4954 46.9899 27.9409 46.41 28.0221 45.5802C28.0919 44.8823 28.6146 44.4636 29.4546 44.4623C32.5138 44.4623 35.5731 44.4623 38.6323 44.4623C40.1029 44.4623 41.0977 43.5652 41.1053 42.2507C41.113 40.9361 40.1334 40.0187 38.6678 40.0162C36.1301 40.0162 33.6038 40.0022 31.0724 40.0238C30.7689 40.0397 30.4654 39.992 30.1814 39.8839C29.8973 39.7757 29.639 39.6094 29.4229 39.3957C28.3639 38.3537 27.0472 37.6115 25.6074 37.245C22.0444 36.3568 18.7555 37.1448 15.6747 38.9935C13.42 40.336 11.8326 42.4372 9.88871 44.2238L9.89505 44.225Z"
        fill="currentColor" />
    <path
        d="M45.7803 22.3307C46.4997 24.5233 47.2166 26.6588 47.8993 28.8019C48.4436 30.52 47.5097 32.0819 45.8006 32.3547C45.0481 32.4816 44.3908 32.2279 43.7894 31.7863C42.1208 30.5669 40.4409 29.364 38.7913 28.1218C38.3942 27.8224 38.1417 27.849 37.7598 28.1358C36.0899 29.3881 34.4099 30.6266 32.7046 31.8294C30.9574 33.064 28.6633 32.0388 28.5173 29.9579C28.5064 29.4959 28.5799 29.0358 28.7343 28.6002C29.337 26.6969 29.9562 24.7936 30.6059 22.8979C30.7556 22.4627 30.6871 22.2279 30.3102 21.9615C28.5871 20.7527 26.8775 19.5223 25.1815 18.2703C23.8149 17.2552 23.6589 15.4687 24.7856 14.2912C25.3655 13.6859 26.0963 13.4918 26.911 13.4956C28.9411 13.5032 30.9612 13.4766 32.985 13.5121C33.5065 13.521 33.7171 13.3484 33.8656 12.8675C34.481 10.8767 35.1154 8.89089 35.7829 6.91653C36.279 5.44972 37.6862 4.74423 39.1086 5.20356C40.0272 5.50048 40.5551 6.17043 40.8431 7.06879C41.4648 9.01396 42.112 10.9502 42.7147 12.9056C42.8593 13.3801 43.07 13.5146 43.5509 13.5108C45.7435 13.4931 47.9386 13.4829 50.1299 13.54C51.2592 13.5679 52.0117 14.2379 52.3657 15.2948C52.7197 16.3518 52.4646 17.2933 51.6488 18.061C51.4266 18.2555 51.1923 18.4357 50.9471 18.6002C49.2405 19.8323 47.5326 21.0618 45.7803 22.3307ZM49.9434 16.1869L49.885 16.0244H42.5497C41.2428 16.0244 41.0119 15.8544 40.6058 14.5944C39.9206 12.4695 39.2359 10.3442 38.5515 8.21839C38.4868 8.01537 38.4018 7.81996 38.2724 7.48371C38.1544 7.82377 38.0897 8.00014 38.0313 8.17905C37.3165 10.3835 36.603 12.5875 35.8907 14.7911C35.5672 15.7897 35.2563 16.0219 34.1828 16.0244C31.8819 16.0244 29.5819 16.0244 27.2827 16.0244C27.0721 16.0244 26.8615 16.0498 26.496 16.0727C26.812 16.315 26.9757 16.4457 27.1444 16.5688C28.9724 17.891 30.8017 19.2127 32.6323 20.534C33.5826 21.223 33.6981 21.5821 33.3365 22.6835C32.6327 24.8253 31.9297 26.9667 31.2276 29.1077C31.1578 29.3184 31.1122 29.5353 31.0107 29.9236C31.3406 29.6927 31.5258 29.5683 31.706 29.4376L37.2294 25.4128C38.1112 24.7707 38.4576 24.7657 39.3255 25.3976C41.2009 26.7629 43.075 28.1303 44.9479 29.4998C45.1078 29.6165 45.2765 29.7231 45.5747 29.9236C45.4643 29.5429 45.4059 29.3298 45.3361 29.1166C44.6163 26.9172 43.8973 24.7153 43.1791 22.5109C42.886 21.6087 43.0129 21.2141 43.7716 20.6621C45.0684 19.7198 46.3669 18.7796 47.6671 17.8415C48.425 17.2942 49.1838 16.7435 49.9434 16.1894V16.1869Z"
        fill="currentColor" />
    <path
        d="M16.758 26.1716C15.1643 25.9927 14.7063 25.7085 14.6771 24.9028C14.6479 24.097 15.1085 23.776 16.7961 23.5146C16.8113 22.5947 16.7732 21.4997 18.0649 21.4743C19.4175 21.4489 19.3681 22.5719 19.3706 23.5134C21.1051 23.7951 21.482 24.0336 21.4972 24.8317C21.5086 25.371 21.2802 25.8087 20.7803 25.9813C20.3578 26.126 19.8845 26.1234 19.3846 26.1945C19.3541 27.1246 19.4569 28.1993 18.0814 28.2551C17.2503 28.2945 16.9902 27.844 16.758 26.1716Z"
        fill="currentColor" />
    <path
        d="M12.502 57.7727C12.5065 57.9363 12.478 58.0991 12.4185 58.2516C12.359 58.4041 12.2695 58.543 12.1554 58.6604C12.0412 58.7777 11.9048 58.871 11.754 58.9347C11.6033 58.9984 11.4413 59.0313 11.2776 59.0314C11.1092 59.035 10.9418 59.0047 10.7853 58.9424C10.6289 58.8801 10.4865 58.7871 10.3666 58.6688C10.2468 58.5504 10.1519 58.4093 10.0876 58.2536C10.0233 58.0979 9.99083 57.931 9.99223 57.7625C10.0039 57.4322 10.1422 57.119 10.3784 56.8878C10.6145 56.6566 10.9306 56.525 11.2611 56.5203C11.5913 56.5233 11.9069 56.6566 12.1393 56.8911C12.3717 57.1257 12.5021 57.4425 12.502 57.7727Z"
        fill="currentColor" />
</svg>