<svg xmlns="http://www.w3.org/2000/svg" width="100%" height="100%">
    <title>Members Only Discount Opposite</title>
    <path
        d="M59.4152 22.7355C57.8928 22.7355 56.3999 22.7583 54.9134 22.7355C54.5535 22.7175 54.1949 22.7914 53.8714 22.9501C53.5479 23.1089 53.2702 23.3473 53.0643 23.6429C52.3228 24.5471 51.3721 25.275 50.539 26.1106C49.425 27.2302 48.36 28.3955 47.2362 29.5053C46.3639 30.3671 45.4035 31.1374 44.5312 32.0057C43.6589 32.874 42.8781 33.8238 42.0157 34.6954C41.1532 35.5669 40.245 36.347 39.4021 37.2055C38.311 38.299 37.2656 39.4415 36.1744 40.5415C35.5415 41.1831 34.8752 41.7911 34.1784 42.3629C33.9097 42.4931 33.6084 42.5409 33.3126 42.5C25.5178 42.5 17.723 42.5261 9.92812 42.5C8.94526 42.4947 7.97756 42.2574 7.10385 41.8076C6.23014 41.3578 5.47514 40.7081 4.90035 39.9115C3.7014 38.3316 3.05455 36.3895 3.59359 34.4016C3.9202 33.0028 4.65733 31.7332 5.71054 30.7555C7.19045 29.4499 8.81084 29.0125 10.7056 29.0255C15.606 29.0614 20.4835 29.0255 25.3708 29.0255H26.2038C26.257 28.8114 26.2481 28.5865 26.1781 28.3773C26.1081 28.168 25.9799 27.983 25.8086 27.8439C24.7599 26.7471 23.4694 25.7581 23.2832 24.0509C23.2146 23.3981 22.8651 22.7812 22.8781 22.1512C22.901 21.0283 23.3192 20.0001 23.8027 18.9621C24.4561 17.5193 25.7073 16.6772 26.7658 15.6131C27.6315 14.7513 28.3992 13.7786 29.2421 12.9103C30.0849 12.0421 31.0519 11.2587 31.9307 10.4002C32.8095 9.54172 33.5936 8.68651 34.4332 7.8313C35.6517 6.59092 36.867 5.34401 38.115 4.12647C38.2555 3.98938 38.5789 4.0057 38.8174 4.0057C45.3338 4.0057 51.8512 4.0057 58.3698 4.0057C59.1637 4.0057 59.9673 4.91967 59.9706 5.90871C59.9902 10.8996 59.9967 15.8905 59.9706 20.8814C59.9641 21.4461 59.6406 22.0108 59.4152 22.7355ZM19.1441 31.9274C16.1842 31.9274 13.2212 31.9665 10.2646 31.9274C8.66056 31.898 7.65109 32.5802 6.85396 33.9446C5.97516 35.4918 6.29859 36.9574 7.18065 38.188C7.52151 38.6537 7.97041 39.0298 8.4888 39.2839C9.00719 39.5381 9.57958 39.6627 10.1568 39.6471C16.0372 39.6047 21.9405 39.6308 27.834 39.6308C29.327 39.6308 30.82 39.6308 32.313 39.6308C32.6276 39.6565 32.942 39.5786 33.2081 39.4088C33.9105 38.7364 34.5149 37.9758 35.2042 37.2806C36.5338 35.9194 37.8863 34.5844 39.229 33.2395L43.2963 29.1593C44.6597 27.7949 46.0253 26.4316 47.393 25.0693C48.935 23.5385 50.4574 21.988 52.0483 20.5158C52.4626 20.1786 52.9777 19.9891 53.5119 19.9773C54.3286 19.9479 55.1454 20.1633 55.9719 20.1894C56.1356 20.1987 56.2994 20.1729 56.4524 20.1139C56.6053 20.0549 56.7439 19.964 56.8589 19.8472C56.9739 19.7305 57.0627 19.5905 57.1193 19.4368C57.1759 19.283 57.1991 19.119 57.1872 18.9556C57.1872 15.241 57.1709 11.5231 57.1872 7.80845C57.1872 7.11971 56.9389 6.89448 56.2986 6.89448C50.7862 6.89448 45.2739 6.89992 39.7615 6.91081C39.5677 6.89372 39.3733 6.93462 39.2029 7.02832C38.592 7.58322 38.0137 8.17077 37.4322 8.75179C36.0732 10.1097 34.7043 11.4545 33.3682 12.832C31.9307 14.3107 30.539 15.8383 29.1016 17.3202C28.03 18.4235 26.7233 19.2787 26.0764 20.8063C25.6354 21.8541 25.6877 23.6984 26.5697 24.4622C27.1415 24.9584 27.625 25.497 28.3992 25.8005C29.5034 26.2347 31.3002 26.2085 32.0679 25.4153C32.5384 24.9323 32.9304 24.3741 33.4074 23.8975C34.5508 22.7518 35.7236 21.6387 36.8801 20.506C37.2558 20.1372 38.6965 20.0882 39.0363 20.4473C39.376 20.8063 39.1637 22.2915 38.7782 22.6637C37.7034 23.7017 36.6547 24.7658 35.6093 25.8299C34.7664 26.6851 33.9562 27.5762 33.1036 28.4216C32.2509 29.2671 31.2512 30.1223 30.3822 31.0264C29.8693 31.5683 29.3727 31.9437 28.5789 31.9371C25.4427 31.911 22.2934 31.9274 19.1441 31.9274Z"
        fill="currentColor" />
    <path
        d="M22.0484 9.67556C21.7609 10.2345 21.4172 10.7628 21.0226 11.2521C20.3056 11.9965 19.5287 12.681 18.6999 13.2988C17.9158 13.8863 17.269 14.451 17.4454 15.5837C17.5858 16.4911 17.3898 17.5128 17.7427 18.3093C18.138 19.1939 18.0988 20.0327 18.0694 20.8978C18.0399 21.7628 17.1971 22.1577 16.6058 22.5592C16.2464 22.804 15.6453 22.7289 15.0997 22.2328C14.2275 21.4396 13.1167 20.9271 12.1007 20.2743C11.8214 20.0712 11.5214 19.8983 11.2056 19.7586C10.415 19.4876 9.94456 20.1307 9.39245 20.4865C8.3405 21.1719 7.33756 21.9358 6.26275 22.5788C6.02427 22.7192 5.55383 22.5429 5.21408 22.4352C4.43329 22.1904 4.05432 21.5669 3.84197 20.8259C3.80178 20.7332 3.78067 20.6333 3.7799 20.5322C3.88444 19.7977 4.02165 19.0698 4.10659 18.3354C4.20133 17.5487 4.06086 16.7621 4.53129 15.995C4.94619 15.316 4.48556 14.4217 3.87791 13.8994C2.68549 12.8581 1.51267 11.7842 0.418258 10.6352C-0.316796 9.86814 -0.0619775 8.67672 0.744948 8.02389C1.26112 7.61587 1.81649 7.56691 2.4274 7.50162C3.86585 7.37962 5.2945 7.16152 6.70378 6.84879C7.07948 6.75413 7.3343 6.02296 7.56625 5.54313C7.93867 4.78258 8.24903 3.99265 8.58226 3.21578C8.83054 2.64128 8.98082 1.99498 9.34671 1.51188C10.1994 0.382483 11.1729 0.0593311 12.2412 1.28339C12.7933 1.91664 13.0906 2.78491 13.4467 3.56831C13.8975 4.54756 14.2569 5.59862 14.7371 6.57787C14.8351 6.77698 15.2663 6.86838 15.5571 6.90428C17.1742 7.14257 18.8044 7.29925 20.4117 7.59955C20.7007 7.64218 20.9707 7.76894 21.188 7.964C21.4053 8.15906 21.5603 8.41377 21.6335 8.69631C21.7481 9.03228 21.8867 9.35954 22.0484 9.67556ZM14.9985 19.2004L15.2369 19.0633C15.0671 17.8915 15.3938 16.7098 14.8384 15.5184C14.577 14.9602 14.5738 13.9973 14.8972 13.5142C15.4362 12.7145 16.3346 12.1563 17.0795 11.4872C17.5793 11.0367 18.0595 10.5765 18.6737 10.0248C18.4597 9.94591 18.2416 9.87836 18.0203 9.82244C16.6482 9.62007 15.2729 9.43401 13.904 9.21857C13.8029 9.20406 13.7057 9.16944 13.6181 9.11673C13.5306 9.06403 13.4545 8.99433 13.3944 8.91174C12.8227 7.85742 12.3033 6.77372 11.7283 5.72265C11.4724 5.31901 11.1898 4.93297 10.8822 4.56714C10.7253 4.86744 10.5555 5.16448 10.415 5.46479C10.3921 5.51375 10.3725 5.56271 10.3529 5.61167C10.0507 6.36659 9.70264 7.10239 9.31077 7.81498C8.96122 8.37642 8.84361 9.16961 7.90274 9.26101C6.47183 9.40137 5.05726 9.6625 3.63289 9.87467C3.61002 9.87467 3.58716 9.90405 3.53162 9.93995C3.53162 10.0477 3.50222 10.2305 3.57082 10.2957C4.49536 11.1379 5.44603 11.9507 6.36076 12.8026C6.63518 13.0605 7.01414 13.4163 7.01414 13.7264C7.01414 15.0582 7.27223 16.4161 6.65478 17.7119C6.47183 18.0938 6.51757 18.5867 6.43263 19.2232C6.78958 19.1559 7.13724 19.0463 7.46824 18.8968C8.20003 18.43 8.89588 17.9176 9.6146 17.4182C9.91964 17.1701 10.2627 16.9728 10.6306 16.8339C11.5747 16.5825 12.1693 17.3268 12.8586 17.7511C13.548 18.1754 14.2863 18.7173 14.9985 19.2004Z"
        fill="currentColor" />
</svg>