<svg xmlns="http://www.w3.org/2000/svg" width="100%" height="100%">
    <title>Personal Stylist</title>
    <path
        d="M46.4415 21.0956H42.2895C41.1697 8.65372 33.6157 0.335449 23.4489 0.335449C12.2548 0.335449 4.43775 10.2178 4.43775 24.3625C4.34326 30.2408 6.13341 35.9949 9.54602 40.7822C9.66316 40.9405 9.81308 41.0717 9.98556 41.1668C10.158 41.2618 10.349 41.3186 10.5454 41.3331C10.7418 41.3476 10.9391 41.3195 11.1236 41.2508C11.3082 41.1821 11.4758 41.0744 11.6149 40.935C12.9204 39.6264 14.4416 38.5525 16.1118 37.7606C16.3713 37.981 16.6379 38.1907 16.9081 38.3898C16.6619 39.2732 16.1825 40.0741 15.5201 40.7083C14.8577 41.3426 14.0368 41.7868 13.1435 41.9944L9.90151 42.5062C7.33062 42.8729 4.98188 44.1651 3.29593 46.1404C1.60998 48.1156 0.702688 50.6381 0.74429 53.2347V62.2959C0.744288 62.6592 0.888361 63.0077 1.14492 63.2649C1.40148 63.5222 1.7496 63.6672 2.11291 63.6681H44.9165C45.2798 63.6672 45.6279 63.5222 45.8844 63.2649C46.141 63.0077 46.2851 62.6592 46.2851 62.2959V56.4945L53.4196 53.2454C56.9178 51.6519 59.7652 48.9089 61.4883 45.4727C63.2115 42.0365 63.7065 38.114 62.8911 34.3574C62.0757 30.6008 59.9991 27.2365 57.0065 24.8238C54.0139 22.4111 50.2855 21.0955 46.4415 21.0956ZM40.0144 46.4237C37.2274 46.4208 34.5554 45.3125 32.5847 43.3418C30.614 41.3711 29.5056 38.699 29.5028 35.9121C29.5065 32.7369 30.7695 29.6929 33.0147 27.4478C35.2598 25.2026 38.3038 23.9396 41.479 23.9359H46.4557C49.6511 23.9362 52.75 25.0302 55.2374 27.036C57.7247 29.0418 59.4506 31.8385 60.1281 34.9612C60.8055 38.0839 60.3937 41.3444 58.9612 44.2006C57.5286 47.0568 55.1616 49.3366 52.2536 50.661L46.4024 53.3271V52.7975C46.3958 51.1066 45.7202 49.487 44.5233 48.2927C43.3263 47.0984 41.7053 46.4265 40.0144 46.4237ZM22.6989 40.6755C22.7651 40.6811 22.8317 40.6811 22.8979 40.6755H23.9644H24.1563C25.2165 40.5255 26.2557 40.2523 27.2526 39.8615C27.5866 40.9254 28.0511 41.9439 28.6354 42.8937L23.5094 47.6679L17.7754 42.3356C18.4547 41.5903 18.9866 40.723 19.3431 39.7797C20.4185 40.2215 21.5464 40.5226 22.6989 40.6755ZM36.9395 21.8101C37.0197 20.4901 37.0197 19.1665 36.9395 17.8465C36.9157 17.544 36.7921 17.2581 36.5881 17.0335C36.3842 16.8089 36.1114 16.6585 35.8126 16.6058C30.7967 15.7243 29.8796 11.7215 29.844 11.5545C29.7898 11.2821 29.654 11.0327 29.4547 10.8394C29.2553 10.6461 29.0019 10.518 28.7281 10.4721C28.4542 10.4262 28.1728 10.4647 27.9214 10.5824C27.6699 10.7002 27.4602 10.8917 27.3201 11.1314C27.2988 11.167 25.0948 14.6862 19.3502 16.3855C16.8114 17.0107 14.1687 17.0894 11.5972 16.6165C11.4059 16.5776 11.2084 16.5799 11.0181 16.6234C10.8278 16.6669 10.6489 16.7504 10.4935 16.8685C10.338 16.9866 10.2096 17.1366 10.1167 17.3083C10.0238 17.48 9.96862 17.6695 9.95484 17.8643C9.87308 19.0231 9.30784 29.2397 14.1815 35.6739C13.0153 36.2948 11.9179 37.0372 10.9075 37.8885C8.4154 33.8279 7.12491 29.1442 7.18562 24.3802C7.18562 11.8424 13.8758 3.08333 23.456 3.08333C32.0836 3.08333 38.5356 10.3636 39.5665 21.2129C38.6731 21.3305 37.7925 21.5304 36.9359 21.8101H36.9395ZM12.621 19.5386C15.12 19.8281 17.6511 19.6522 20.0861 19.0196C23.1024 18.2137 25.8589 16.6413 28.0879 14.4552C28.7556 15.5953 29.6435 16.5911 30.7 17.3846C31.7564 18.178 32.9603 18.7531 34.2413 19.0765C34.2766 20.4024 34.2362 21.7293 34.1205 23.0507C31.8566 24.3486 29.9746 26.2201 28.6641 28.4767C27.3536 30.7333 26.6607 33.2954 26.6554 35.905C26.6554 36.2924 26.6731 36.6941 26.7122 37.1029C25.8087 37.5156 24.8512 37.7981 23.8684 37.9419H22.9904C13.275 36.4951 12.5676 23.8648 12.6174 19.5386H12.621ZM24.4478 50.5437L30.3168 45.0728C31.5646 46.3935 33.0682 47.4461 34.7361 48.1667C36.404 48.8873 38.2011 49.2606 40.0179 49.264C40.8113 49.2685 41.5803 49.5384 42.2026 50.0305C42.8249 50.5227 43.2647 51.2089 43.4519 51.9799C43.5151 52.3952 43.5472 52.8146 43.5479 53.2347V60.9202H3.47795V53.2276C3.46488 51.6028 3.94195 50.0119 4.84689 48.6624C5.75182 47.3129 7.04259 46.2676 8.55068 45.6629C9.12487 45.4479 9.7209 45.2966 10.3281 45.2115L13.6625 44.6854C14.3287 44.5423 14.973 44.3116 15.5785 43.9993L22.5851 50.5402C22.843 50.7638 23.1727 50.8872 23.514 50.8879C23.8554 50.8885 24.1855 50.7664 24.4443 50.5437H24.4478Z"
        fill="currentColor" />
    <path
        d="M37.1811 37.8174H35.0802L35.8942 37.1883C37.2842 36.1218 37.9383 35.4606 37.9383 34.1169C37.9383 32.6203 36.8256 31.6285 35.1726 31.6285C34.6799 31.6078 34.1891 31.7027 33.7397 31.9058C33.2903 32.1089 32.8947 32.4145 32.5847 32.7981C32.4372 32.975 32.3545 33.197 32.3501 33.4273C32.3516 33.6145 32.4092 33.797 32.5153 33.9513C32.6214 34.1056 32.7713 34.2247 32.9456 34.2931C33.1199 34.3615 33.3107 34.3762 33.4935 34.3353C33.6762 34.2944 33.8426 34.1998 33.9711 34.0636C34.3799 33.6228 34.682 33.4664 35.066 33.4664C35.1757 33.4527 35.2871 33.4638 35.392 33.4987C35.4969 33.5336 35.5927 33.5915 35.6724 33.6681C35.7521 33.7448 35.8137 33.8382 35.8527 33.9417C35.8917 34.0452 35.9071 34.156 35.8978 34.2662C35.8978 34.7852 35.6312 35.1442 34.6607 35.9334L32.5278 37.6859C32.3768 37.7976 32.2537 37.9426 32.168 38.1097C32.0823 38.2769 32.0363 38.4615 32.0337 38.6493C32.0329 38.785 32.0608 38.9193 32.1155 39.0434C32.1703 39.1676 32.2506 39.2787 32.3513 39.3697C32.452 39.4606 32.5707 39.5293 32.6998 39.5712C32.8288 39.613 32.9653 39.6272 33.1002 39.6126H37.1846C37.308 39.6237 37.4324 39.6089 37.5497 39.5693C37.6671 39.5296 37.7749 39.466 37.8663 39.3824C37.9578 39.2988 38.0308 39.1971 38.0807 39.0837C38.1307 38.9703 38.1565 38.8478 38.1565 38.7239C38.1565 38.6001 38.1307 38.4775 38.0807 38.3642C38.0308 38.2508 37.9578 38.1491 37.8663 38.0655C37.7749 37.9819 37.6671 37.9182 37.5497 37.8786C37.4324 37.8389 37.308 37.8242 37.1846 37.8352L37.1811 37.8174Z"
        fill="currentColor" />
    <path
        d="M43.7789 36.2818H43.5585V32.5848C43.5595 32.4574 43.535 32.3311 43.4865 32.2133C43.438 32.0955 43.3664 31.9887 43.276 31.8989C43.1856 31.8092 43.0782 31.7384 42.9601 31.6907C42.8419 31.6431 42.7155 31.6195 42.5881 31.6214C42.3574 31.6182 42.1296 31.6732 41.9258 31.7813C41.722 31.8894 41.5488 32.0472 41.4221 32.24L38.1552 36.0365C37.8869 36.3078 37.733 36.6717 37.7251 37.0532C37.7264 37.1801 37.7531 37.3055 37.8036 37.422C37.8541 37.5385 37.9274 37.6437 38.0192 37.7315C38.1109 37.8192 38.2192 37.8878 38.3378 37.9331C38.4564 37.9784 38.5829 37.9995 38.7098 37.9952H41.6247V38.7062C41.6247 38.9626 41.7266 39.2085 41.9079 39.3899C42.0893 39.5712 42.3352 39.6731 42.5916 39.6731C42.8481 39.6731 43.094 39.5712 43.2753 39.3899C43.4567 39.2085 43.5585 38.9626 43.5585 38.7062V37.9952H43.7789C43.8911 37.9971 44.0024 37.9766 44.1065 37.9349C44.2106 37.8932 44.3054 37.8311 44.3851 37.7523C44.4649 37.6735 44.5282 37.5796 44.5712 37.476C44.6142 37.3724 44.6361 37.2613 44.6357 37.1492C44.6371 37.0358 44.6159 36.9232 44.5735 36.818C44.5311 36.7129 44.4682 36.6172 44.3885 36.5365C44.3088 36.4558 44.2139 36.3917 44.1093 36.348C44.0046 36.3043 43.8923 36.2818 43.7789 36.2818ZM41.6247 34.5968V36.2818H40.2028L41.6247 34.5968Z"
        fill="currentColor" />
    <path
        d="M50.3162 31.3974C50.3106 31.1862 50.2228 30.9855 50.0714 30.8381C49.92 30.6907 49.717 30.6082 49.5057 30.6083C49.3535 30.6091 49.2049 30.6547 49.0785 30.7394C48.952 30.8241 48.8533 30.9442 48.7947 31.0846L44.5894 39.8686C44.5336 39.9891 44.5033 40.1198 44.5005 40.2525C44.506 40.4637 44.5939 40.6645 44.7453 40.8119C44.8967 40.9593 45.0997 41.0417 45.311 41.0417C45.466 41.0434 45.618 40.9991 45.7478 40.9143C45.8775 40.8295 45.9791 40.708 46.0397 40.5653L50.2451 31.7778C50.2946 31.6572 50.3188 31.5278 50.3162 31.3974Z"
        fill="currentColor" />
    <path
        d="M51.8483 33.509H54.422L51.7807 38.1303C51.6779 38.3147 51.6184 38.5202 51.6066 38.731C51.61 38.8601 51.6397 38.9872 51.6939 39.1044C51.7482 39.2216 51.8257 39.3265 51.9219 39.4127C52.0181 39.4989 52.1308 39.5645 52.2533 39.6056C52.3757 39.6467 52.5052 39.6624 52.6339 39.6517C52.8378 39.6454 53.0355 39.5808 53.2037 39.4655C53.372 39.3502 53.5036 39.189 53.583 39.0012L56.6046 33.5197C56.7594 33.248 56.8471 32.9434 56.8606 32.631C56.8685 32.5074 56.8499 32.3836 56.806 32.2678C56.762 32.152 56.6939 32.047 56.606 31.9598C56.5181 31.8725 56.4125 31.8051 56.2964 31.7621C56.1803 31.7191 56.0563 31.7014 55.9328 31.7103H51.8483C51.7249 31.6992 51.6006 31.714 51.4832 31.7537C51.3658 31.7933 51.258 31.8569 51.1666 31.9405C51.0752 32.0241 51.0022 32.1259 50.9522 32.2392C50.9023 32.3526 50.8765 32.4751 50.8765 32.599C50.8765 32.7229 50.9023 32.8454 50.9522 32.9588C51.0022 33.0721 51.0752 33.1738 51.1666 33.2574C51.258 33.341 51.3658 33.4047 51.4832 33.4443C51.6006 33.484 51.7249 33.4987 51.8483 33.4877V33.509Z"
        fill="currentColor" />
</svg>