<svg xmlns="http://www.w3.org/2000/svg" width="100%" height="100%">
    <title>Priority Shipping</title>
    <path
        d="M5.62892 41.8895H3.56971C3.38439 41.8895 3.22651 41.972 3.11669 42.0925C3.04118 42.1813 3 42.2954 3 42.4223V47.0269C3 47.3187 3.25397 47.5534 3.56971 47.5534C3.88546 47.5534 4.13943 47.3187 4.13943 47.0269V45.9107H5.62892C6.82326 45.9107 7.79795 45.0037 7.79795 43.9001C7.79795 42.7902 6.82326 41.8895 5.62892 41.8895ZM5.62892 44.8515H4.13943V42.9487H5.62892C6.19177 42.9487 6.65166 43.3737 6.65166 43.9001C6.65166 44.4202 6.19177 44.8515 5.62892 44.8515Z"
        fill="currentColor" />
    <path
        d="M12.4544 45.4603C13.1339 45.1623 13.6075 44.5153 13.6075 43.7669C13.6075 42.7331 12.7015 41.8895 11.5827 41.8895H9.18025C8.98119 41.8895 8.80959 41.9847 8.70663 42.1242C8.64486 42.2066 8.61054 42.3081 8.61054 42.4223V47.0269C8.61054 47.3187 8.86451 47.5534 9.18025 47.5534C9.496 47.5534 9.74996 47.3187 9.74996 47.0269V45.6443H11.1571L12.5848 47.3504C12.6946 47.4836 12.8662 47.5534 13.0378 47.5534C13.1614 47.5534 13.2849 47.5217 13.3879 47.4455C13.6419 47.268 13.6831 46.9318 13.4909 46.7035L12.4544 45.4603ZM9.74996 42.9487H11.5827C12.07 42.9487 12.4613 43.3166 12.4613 43.7669C12.4613 44.2172 12.07 44.5851 11.5827 44.5851C11.5689 44.5851 11.4454 44.5851 11.4385 44.5851C11.4317 44.5851 11.4317 44.5851 11.4317 44.5851H9.74996V42.9487ZM11.4385 44.5851C11.4317 44.5851 11.4317 44.5851 11.4317 44.5851C11.4454 44.5851 11.4522 44.5851 11.4385 44.5851Z"
        fill="currentColor" />
    <path
        d="M15.0857 41.8895C14.77 41.8895 14.516 42.1305 14.516 42.4223V47.0269C14.516 47.3187 14.77 47.5534 15.0857 47.5534C15.4015 47.5534 15.6554 47.3187 15.6554 47.0269V42.4223C15.6554 42.1305 15.4015 41.8895 15.0857 41.8895Z"
        fill="currentColor" />
    <path
        d="M23.0204 44.7373C23.0204 43.0883 21.5584 41.7373 19.7737 41.7373C17.9822 41.7373 16.5271 43.0883 16.5271 44.7373C16.5271 46.3927 17.9822 47.7373 19.7737 47.7373C21.5584 47.7373 23.0204 46.3927 23.0204 44.7373ZM19.7737 46.6844C18.6137 46.6844 17.6665 45.8092 17.6665 44.7373C17.6665 43.6718 18.6137 42.7965 19.7737 42.7965C20.9269 42.7965 21.8741 43.6718 21.8741 44.7373C21.8741 45.8092 20.9269 46.6844 19.7737 46.6844Z"
        fill="currentColor" />
    <path
        d="M27.7376 45.4603C28.4171 45.1623 28.8907 44.5153 28.8907 43.7669C28.8907 42.7331 27.9847 41.8895 26.8658 41.8895H24.4634C24.2644 41.8895 24.0928 41.9847 23.9898 42.1242C23.928 42.2066 23.8937 42.3081 23.8937 42.4223V47.0269C23.8937 47.3187 24.1477 47.5534 24.4634 47.5534C24.7792 47.5534 25.0331 47.3187 25.0331 47.0269V45.6443H26.4403L27.868 47.3504C27.9778 47.4836 28.1494 47.5534 28.321 47.5534C28.4446 47.5534 28.5681 47.5217 28.6711 47.4455C28.9251 47.268 28.9662 46.9318 28.774 46.7035L27.7376 45.4603ZM25.0331 42.9487H26.8658C27.3532 42.9487 27.7444 43.3166 27.7444 43.7669C27.7444 44.2172 27.3532 44.5851 26.8658 44.5851C26.8521 44.5851 26.7286 44.5851 26.7217 44.5851C26.7148 44.5851 26.7148 44.5851 26.7148 44.5851H25.0331V42.9487ZM26.7217 44.5851C26.7148 44.5851 26.7148 44.5851 26.7148 44.5851C26.7286 44.5851 26.7354 44.5851 26.7217 44.5851Z"
        fill="currentColor" />
    <path
        d="M30.3689 41.8895C30.0532 41.8895 29.7992 42.1305 29.7992 42.4223V47.0269C29.7992 47.3187 30.0532 47.5534 30.3689 47.5534C30.6846 47.5534 30.9386 47.3187 30.9386 47.0269V42.4223C30.9386 42.1305 30.6846 41.8895 30.3689 41.8895Z"
        fill="currentColor" />
    <path
        d="M36.3466 41.8895H32.1664C31.8506 41.8895 31.5967 42.1305 31.5967 42.4223C31.5967 42.714 31.8506 42.9487 32.1664 42.9487H33.6833V47.0269C33.6833 47.3187 33.9442 47.5534 34.2599 47.5534C34.5756 47.5534 34.8296 47.3187 34.8296 47.0269V42.9487H36.3466C36.6692 42.9487 36.9231 42.714 36.9231 42.4223C36.9231 42.1305 36.6692 41.8895 36.3466 41.8895Z"
        fill="currentColor" />
    <path
        d="M42.7667 41.991C42.5128 41.8198 42.149 41.8705 41.9636 42.1115L40.1172 44.4582L38.2708 42.1115C38.0786 41.8705 37.7217 41.8198 37.4677 41.991C37.2137 42.1623 37.152 42.4921 37.3373 42.7331L39.5406 45.5301V47.0269C39.5406 47.3187 39.8015 47.5534 40.1172 47.5534C40.433 47.5534 40.6869 47.3187 40.6869 47.0269V45.5301L42.8903 42.7331C43.0756 42.4921 43.0207 42.1623 42.7667 41.991Z"
        fill="currentColor" />
    <path
        d="M24.5938 10.9873V10.7373H24.3438H0.25V8.6748H26.6562V13.5498V13.7998H26.9062H37.8955L38.1184 14.5053L38.1184 14.5053L38.1196 14.5091L40.6821 22.1966L40.6845 22.2037L40.6873 22.2106L40.75 22.367V32.5186H36.9564H36.763L36.7144 32.7058C36.1702 34.8032 34.2849 36.3623 32.0312 36.3623C29.7776 36.3623 27.8923 34.8032 27.3481 32.7058L27.2995 32.5186H27.1061H16.4564H16.263L16.2144 32.7058C15.6702 34.8032 13.7849 36.3623 11.5312 36.3623C9.2776 36.3623 7.39231 34.8032 6.84811 32.7058L6.79954 32.5186H6.60613H2.8125V24.0498H4.875V30.2061V30.4561H5.125H6.60613H6.79954L6.84811 30.2688C7.39231 28.1714 9.2776 26.6123 11.5312 26.6123C13.7849 26.6123 15.6702 28.1714 16.2144 30.2688L16.263 30.4561H16.4564H24.3438H24.5938V30.2061V10.9873ZM26.9062 15.8623H26.6562V16.1123V30.2061V30.4561H26.9062H27.1061H27.2995L27.3481 30.2688C27.8923 28.1714 29.7776 26.6123 32.0312 26.6123C34.2849 26.6123 36.1702 28.1714 36.7144 30.2688L36.763 30.4561H36.9564H38.4375H38.6875V30.2061V22.6787V22.6379L38.6745 22.5992L36.4721 16.0328L36.4149 15.8623H36.235H26.9062ZM12.5625 15.8623H1.53125V13.7998H12.5625V15.8623ZM10 20.9873H2.8125V18.9248H10V20.9873ZM14.3438 31.4873C14.3438 29.9181 13.1005 28.6748 11.5312 28.6748C9.96202 28.6748 8.71875 29.9181 8.71875 31.4873C8.71875 33.0565 9.96202 34.2998 11.5312 34.2998C13.1005 34.2998 14.3438 33.0565 14.3438 31.4873ZM34.8438 31.4873C34.8438 29.9181 33.6005 28.6748 32.0312 28.6748C30.462 28.6748 29.2188 29.9181 29.2188 31.4873C29.2188 33.0565 30.462 34.2998 32.0312 34.2998C33.6005 34.2998 34.8438 33.0565 34.8438 31.4873Z"
        fill="currentColor" />
</svg>