<svg xmlns="http://www.w3.org/2000/svg" width="100%" height="100%" viewBox="0 0 62 59">
    <title>Save Up To 80% Off</title>
    <path
        d="M24.1073 58.339C18.0672 58.339 12.0246 58.339 5.98442 58.339C2.6183 58.339 0.0047681 55.7351 0.00234816 52.3738C-0.00249171 43.1103 -0.00249171 33.8492 0.00234816 24.5857C0.00234816 22.0206 0.907404 19.7991 2.74655 18.0326C5.18585 15.6901 7.69774 13.4226 10.1854 11.1309C13.3991 8.17132 16.6225 5.22384 19.8361 2.26184C21.593 0.642908 23.604 0.168601 25.9247 0.730026C32.6497 2.36106 39.3868 3.93402 46.1093 5.57473C49.2141 6.33217 51.3727 8.28022 52.423 11.2737C55.2398 19.3054 57.9719 27.3687 60.7403 35.4198C61.0282 36.2571 61.3211 37.092 61.6066 37.9317C62.6327 40.9517 61.3816 44.0347 58.4728 45.3584C55.4503 46.733 52.3697 47.9792 49.3254 49.3029C48.0913 49.8377 48.3188 49.5377 48.2946 50.8638C48.2776 51.8076 48.3502 52.7538 48.1445 53.6903C47.542 56.4079 45.1511 58.339 42.3536 58.339C36.2723 58.3414 30.191 58.339 24.1097 58.339H24.1073ZM24.0976 54.6292C30.0579 54.6292 36.0182 54.6292 41.9785 54.6292C43.6217 54.6292 44.5025 53.7726 44.5025 52.156C44.5074 43.0353 44.4977 33.9146 44.5098 24.7938C44.5122 22.9353 43.779 21.4592 42.4286 20.2226C38.9391 17.0283 35.4713 13.8098 31.9842 10.613C29.8643 8.66741 27.7275 6.73872 25.5956 4.80278C25.3391 4.57046 25.0535 4.40591 24.7075 4.31879C23.6983 4.06228 22.9675 4.52448 22.2706 5.16577C16.7701 10.2186 11.2696 15.2714 5.75453 20.3097C4.33645 21.6044 3.70727 23.1991 3.70969 25.0891C3.71453 34.009 3.70969 42.9288 3.71211 51.8487C3.71211 53.7968 4.55666 54.6316 6.51923 54.6316C12.3779 54.6316 18.239 54.6316 24.0976 54.6316V54.6292ZM32.9933 6.30071C32.9764 6.33217 32.9618 6.36363 32.9449 6.39267C33.1312 6.57175 33.3176 6.75324 33.5088 6.9299C37.3758 10.4848 41.2453 14.0397 45.1099 17.597C47.2612 19.5765 48.3018 22.0279 48.2946 24.9511C48.2825 31.5939 48.2897 38.2366 48.2921 44.8817C48.2921 45.6343 48.3067 45.6416 48.9746 45.3584C51.4913 44.284 54.008 43.2095 56.5223 42.1303C58.088 41.4599 58.5115 40.4726 57.9501 38.8416C54.9542 30.1274 51.9535 21.4156 48.9625 12.7014C48.4712 11.2713 47.5395 10.2476 46.2134 9.56279C45.4148 9.1514 44.5243 9.04492 43.6676 8.83922C40.1103 7.98499 36.5506 7.14769 32.9933 6.30313V6.30071Z"
        fill="currentColor" />
    <path
        d="M24.1775 13.8726C23.1224 13.8653 22.319 13.0474 22.3311 11.9923C22.3432 10.9445 23.1684 10.1507 24.2308 10.1652C25.2496 10.1798 26.0578 10.9977 26.0554 12.0141C26.0554 13.0571 25.223 13.8774 24.1751 13.8702L24.1775 13.8726Z"
        fill="currentColor" />
    <path
        d="M26.2615 43.3546C26.2615 42.493 26.4161 41.6977 26.7254 40.9687C27.0568 40.2175 27.4986 39.5658 28.0509 39.0135C28.6253 38.4391 29.277 37.9973 30.0061 37.688C30.7572 37.3566 31.5636 37.1909 32.4251 37.1909C33.2867 37.1909 34.082 37.3566 34.8111 37.688C35.5622 37.9973 36.2139 38.4391 36.7662 39.0135C37.3406 39.5658 37.7824 40.2175 38.0917 40.9687C38.4231 41.6977 38.5888 42.493 38.5888 43.3546C38.5888 44.2162 38.4231 45.0225 38.0917 45.7737C37.7824 46.5027 37.3406 47.1544 36.7662 47.7288C36.2139 48.2811 35.5622 48.723 34.8111 49.0543C34.082 49.3636 33.2867 49.5183 32.4251 49.5183C31.5636 49.5183 30.7572 49.3636 30.0061 49.0543C29.277 48.723 28.6253 48.2811 28.0509 47.7288C27.4986 47.1544 27.0568 46.5027 26.7254 45.7737C26.4161 45.0225 26.2615 44.2162 26.2615 43.3546ZM35.4076 43.3546C35.4076 42.5151 35.1204 41.8082 34.546 41.2338C33.9716 40.6594 33.2646 40.3722 32.4251 40.3722C31.5857 40.3722 30.8787 40.6594 30.3043 41.2338C29.7299 41.8082 29.4427 42.5151 29.4427 43.3546C29.4427 44.1941 29.7299 44.901 30.3043 45.4754C30.8787 46.0498 31.5857 46.337 32.4251 46.337C33.2646 46.337 33.9716 46.0498 34.546 45.4754C35.1204 44.901 35.4076 44.1941 35.4076 43.3546ZM10.4216 31.4249C10.4216 30.5634 10.5762 29.7681 10.8855 29.039C11.2169 28.2879 11.6587 27.6362 12.211 27.0839C12.7854 26.5095 13.4371 26.0676 14.1661 25.7584C14.9173 25.427 15.7236 25.2613 16.5852 25.2613C17.4468 25.2613 18.2421 25.427 18.9711 25.7584C19.7223 26.0676 20.374 26.5095 20.9263 27.0839C21.5007 27.6362 21.9425 28.2879 22.2518 29.039C22.5832 29.7681 22.7489 30.5634 22.7489 31.4249C22.7489 32.2865 22.5832 33.0929 22.2518 33.844C21.9425 34.5731 21.5007 35.2248 20.9263 35.7992C20.374 36.3515 19.7223 36.7933 18.9711 37.1247C18.2421 37.434 17.4468 37.5886 16.5852 37.5886C15.7236 37.5886 14.9173 37.434 14.1661 37.1247C13.4371 36.7933 12.7854 36.3515 12.211 35.7992C11.6587 35.2248 11.2169 34.5731 10.8855 33.844C10.5762 33.0929 10.4216 32.2865 10.4216 31.4249ZM19.5676 31.4249C19.5676 30.5855 19.2804 29.8785 18.706 29.3041C18.1316 28.7297 17.4247 28.4425 16.5852 28.4425C15.7457 28.4425 15.0388 28.7297 14.4644 29.3041C13.89 29.8785 13.6028 30.5855 13.6028 31.4249C13.6028 32.2644 13.89 32.9714 14.4644 33.5458C15.0388 34.1202 15.7457 34.4074 16.5852 34.4074C17.4247 34.4074 18.1316 34.1202 18.706 33.5458C19.2804 32.9714 19.5676 32.2644 19.5676 31.4249ZM30.0061 24.5985L32.7565 25.8578L18.9711 50.181L16.2207 48.9218L30.0061 24.5985Z"
        fill="currentColor" />
</svg>