<svg xmlns="http://www.w3.org/2000/svg" width="100%" height="100%" viewBox="0 0 63 67">
    <title>Style and Fashion Content</title>
    <path
        d="M56.1242 52.3747C56.2617 52.4653 56.3933 52.5647 56.518 52.6724C58.5069 54.6649 60.4921 56.6611 62.4736 58.661C63.1722 59.3631 63.1709 60.0371 62.4736 60.7442C60.9058 62.3225 59.3359 63.9 57.764 65.4766C57.0496 66.1947 56.39 66.1898 55.667 65.4632C53.6912 63.478 51.7157 61.4916 49.7407 59.504C49.6345 59.3827 49.5352 59.2555 49.4432 59.1229C49.3116 59.3031 49.2274 59.4109 49.1518 59.5249C47.8851 61.4341 46.6136 63.3408 45.3554 65.2561C45.0262 65.7573 44.6129 66.082 43.996 65.9852C43.3791 65.8884 43.0853 65.4644 42.9122 64.8823C40.4544 56.6231 37.9892 48.366 35.5168 40.1109C35.3534 39.5668 35.3559 39.0717 35.7728 38.6502C36.1898 38.2287 36.6811 38.2176 37.2236 38.3818C45.3871 40.8482 53.5522 43.3104 61.7189 45.7685L62.0176 45.8617C62.5553 46.0247 62.9027 46.3739 62.9771 46.9376C63.0515 47.5013 62.804 47.8983 62.3505 48.201C60.6558 49.3332 58.9624 50.468 57.2702 51.6051C56.9215 51.8343 56.5765 52.0683 56.1242 52.3747ZM59.9134 59.6597C59.8378 59.58 59.7427 59.4746 59.6439 59.3742C57.5844 57.3032 55.5252 55.2327 53.4665 53.1626C52.702 52.3943 52.7886 51.5696 53.6944 50.9667C55.2696 49.912 56.8443 48.8566 58.4187 47.8003C58.5333 47.7231 58.643 47.6397 58.8039 47.5233L38.5281 41.4098C40.5665 48.2377 42.5781 54.9799 44.6117 61.7906C44.7336 61.6203 44.8092 61.5174 44.8799 61.4108C45.9292 59.8284 46.9789 58.2456 48.029 56.6623C48.6483 55.731 49.4518 55.6526 50.2418 56.4455C52.3022 58.5139 54.3621 60.5836 56.4217 62.6545C56.5192 62.7526 56.6204 62.8457 56.6814 62.8996L59.9134 59.6597Z"
        fill="currentColor" />
    <path
        d="M35.4092 31.2978C35.4092 30.6937 35.4092 30.0908 35.4092 29.4867C35.4189 28.7441 35.9505 28.1939 36.6503 28.1877C36.8173 28.1861 36.9829 28.2181 37.1374 28.2818C37.2919 28.3456 37.4321 28.4398 37.5497 28.559C37.6673 28.6781 37.76 28.8198 37.8222 28.9755C37.8845 29.1313 37.915 29.298 37.9121 29.4658C37.9219 30.7133 37.9219 31.9599 37.9121 33.2058C37.9154 33.3736 37.8851 33.5405 37.8232 33.6964C37.7613 33.8524 37.6689 33.9943 37.5515 34.1137C37.4341 34.2332 37.2941 34.3278 37.1397 34.392C36.9854 34.4562 36.8198 34.4887 36.6527 34.4875C35.9566 34.4875 35.4189 33.9263 35.4092 33.1874C35.3982 32.56 35.4092 31.9277 35.4092 31.2978Z"
        fill="currentColor" />
    <path
        d="M28.5014 40.7898C27.9004 40.7898 27.2993 40.7898 26.6995 40.7898C25.9351 40.7898 25.3755 40.2494 25.3731 39.5349C25.3706 38.8205 25.9253 38.2765 26.691 38.2728C27.9052 38.2662 29.1195 38.2662 30.3338 38.2728C31.0897 38.2728 31.6493 38.8303 31.6407 39.546C31.6322 40.2616 31.0812 40.78 30.3423 40.7898C29.7279 40.7959 29.1147 40.7898 28.5014 40.7898Z"
        fill="currentColor" />
    <path
        d="M29.3138 30.6961C29.4674 30.7782 29.8015 30.8762 30.0161 31.087C30.8695 31.8994 31.6936 32.7425 32.5153 33.5856C32.6368 33.7012 32.7337 33.8402 32.8002 33.9945C32.8667 34.1487 32.9015 34.3149 32.9024 34.4829C32.9033 34.651 32.8704 34.8176 32.8055 34.9725C32.7407 35.1275 32.6453 35.2676 32.5251 35.3845C32.0228 35.8808 31.2669 35.8746 30.7354 35.3477C29.9063 34.5308 29.0846 33.7049 28.2702 32.87C28.0782 32.6963 27.9474 32.4647 27.8975 32.2099C27.8476 31.9551 27.8813 31.691 27.9935 31.4571C28.208 30.9669 28.6104 30.7316 29.3138 30.6961Z"
        fill="currentColor" />
    <path
        d="M44.0404 30.6974C44.7 30.7341 45.0914 30.9633 45.312 31.4326C45.5327 31.902 45.4973 32.386 45.145 32.7573C44.2709 33.6776 43.376 34.5807 42.4629 35.4532C41.9935 35.9017 41.2437 35.8306 40.7938 35.3723C40.5655 35.1505 40.4322 34.8479 40.4225 34.5289C40.4127 34.2099 40.5271 33.8996 40.7414 33.6641C41.5997 32.7655 42.4783 31.8852 43.3772 31.0233C43.5784 30.8359 43.8917 30.7672 44.0404 30.6974Z"
        fill="currentColor" />
    <path
        d="M32.908 44.7343C32.8299 44.885 32.7385 45.2245 32.5288 45.4414C31.712 46.3077 30.8659 47.1471 30.0149 47.9804C29.9002 48.0982 29.7633 48.1918 29.6121 48.2557C29.461 48.3197 29.2987 48.3526 29.1347 48.3526C28.9707 48.3526 28.8083 48.3197 28.6572 48.2557C28.506 48.1918 28.3691 48.0982 28.2544 47.9804C28.1362 47.8662 28.0419 47.7294 27.9771 47.5781C27.9123 47.4267 27.8782 47.2639 27.877 47.0991C27.8757 46.9343 27.9073 46.771 27.9698 46.6186C28.0323 46.4663 28.1246 46.3281 28.241 46.2121C29.0798 45.347 29.9296 44.4933 30.7903 43.6511C30.9605 43.4746 31.1818 43.3567 31.4225 43.314C31.6633 43.2713 31.9114 43.3061 32.1314 43.4133C32.6227 43.629 32.8665 44.0273 32.908 44.7343Z"
        fill="currentColor" />
    <path
        d="M28.4028 51.8502C20.0187 51.9911 13.2377 52.8366 7.0529 54.6208H7.00779V54.4333C7.00779 53.9162 6.64205 48.5159 6.54939 47.5772C6.41162 46.8261 5.99955 45.8862 5.0864 44.4304C2.5664 40.5802 1.78736 36.6356 2.52007 31.1887C2.98335 27.9819 3.8709 18.3319 4.52193 11.2466C4.64384 9.92806 4.75601 8.69776 4.8572 7.61451C5.04007 5.73597 5.17784 4.2802 5.22294 3.48246V3.43467H5.26927C5.58991 3.29375 6.41406 2.91878 7.05534 2.59037C7.29917 2.46783 7.52472 2.35999 7.67345 2.29015C7.74782 2.25584 7.8039 2.2301 7.83438 2.21417H7.97214L8.06358 2.30853L8.29278 2.96534L8.38422 3.34154L8.42811 3.49349C9.44611 7.00181 11.2724 13.3028 14.5239 16.9594C18.463 21.4676 23.7773 24.3326 28.4052 24.3792C33.0319 24.3326 38.3462 21.4676 42.2866 16.9594C45.5844 13.2023 47.4631 6.76898 48.425 3.34154L48.5628 2.91878L48.792 2.26074C48.7934 2.23671 48.8035 2.21402 48.8203 2.19689C48.8371 2.17976 48.8596 2.16935 48.8834 2.16761H49.0212C49.1121 2.22313 49.2075 2.2707 49.3065 2.30976C49.4467 2.37348 49.6235 2.4519 49.7941 2.54258C50.4354 2.82442 51.2133 3.20062 51.5802 3.38811C51.6034 3.38811 51.6143 3.38811 51.6204 3.38811C51.6265 3.38811 51.6204 3.40526 51.6204 3.42855V3.47633C51.6643 3.86356 51.7094 4.40764 51.7643 5.07916C51.8228 5.78866 51.8862 6.64277 51.9862 7.60838C52.5824 14.5111 53.7735 27.3777 54.3233 31.1826C54.9122 36.5744 54.1539 40.4956 51.7399 44.2613L53.9771 45.2637C56.4069 41.0826 57.1335 36.8391 56.4764 31.1348C56.0131 27.928 55.1255 18.2792 54.4745 11.1927C54.3526 9.87414 54.2404 8.64507 54.1392 7.56182C54.0454 6.5962 53.9759 5.7421 53.9173 5.03136C53.8625 4.35984 53.8174 3.817 53.7735 3.42855C53.6357 2.53646 53.0859 1.73872 52.3995 1.45688C52.1288 1.34169 51.6985 1.16891 51.2303 0.998578C50.2721 0.585619 48.4263 -0.0295334 45.9026 0.00110154C43.2022 0.00110154 40.2469 1.25224 37.3746 3.1994C34.7049 5.04356 31.541 6.02938 28.3016 6.02639C25.0622 6.02938 21.8983 5.04356 19.2286 3.1994C16.416 1.26204 12.355 0.0133555 9.48512 0.00110154H9.44123C9.33151 0.00110154 9.223 0.00110124 9.11328 0.00845364C8.36097 0.0406702 7.6156 0.167045 6.89441 0.384652C6.62763 0.457247 6.36612 0.548143 6.11171 0.656695C5.8128 0.774881 5.52021 0.908625 5.23514 1.0574C4.93278 1.19464 4.59995 1.34414 4.34027 1.4581C3.70997 1.74485 3.1138 2.53768 2.97847 3.38811C2.84315 4.23853 2.70416 5.6894 2.5664 7.56794C2.46643 8.63526 2.35548 9.84596 2.23601 11.1437C1.58498 18.2338 0.694991 27.9181 0.229272 31.0944C-0.457114 37.0988 0.367038 41.4723 3.11624 45.8396C3.89528 46.9192 4.16959 47.8591 4.21348 48.0931C4.30492 48.9386 4.67067 54.0106 4.67067 54.6208C4.67067 55.3254 4.94619 56.03 5.44971 56.4528C5.81545 56.7812 6.32019 56.9687 7.00779 56.9687C7.1283 56.9652 7.24844 56.9538 7.36744 56.9344C7.40012 56.9285 7.43308 56.9244 7.4662 56.9221C13.4669 55.1379 19.8358 54.339 28.1736 54.339H28.5808C33.2343 54.339 37.2746 54.5841 40.9796 55.1183L40.3701 52.7018C36.7321 52.2031 32.7869 51.9213 28.4028 51.8502ZM15.9016 15.5036C14.7007 14.1447 13.5851 12.2098 12.544 9.7173C15.47 9.91459 18.1216 11.3716 20.1101 13.8653C21.695 15.8406 22.7654 18.3429 23.197 21.0044C20.627 19.8587 18.068 17.9532 15.9016 15.5036ZM40.8236 15.5036C38.6852 17.9152 36.1566 19.7987 33.6305 20.9493C34.067 18.3086 35.1325 15.8271 36.7077 13.8653C38.6584 11.4145 41.2978 9.96482 44.1665 9.72832C43.1266 12.2183 42.0135 14.1508 40.8175 15.5036H40.8236ZM10.575 2.60263C12.9914 2.60263 15.4517 3.43712 17.9156 5.10489C20.9746 7.21829 24.5994 8.34968 28.3114 8.34975C32.0021 8.35052 35.608 7.23622 38.6608 5.15146C41.1235 3.4359 43.585 2.60263 46.0013 2.60263H46.4573L46.4122 2.78766C45.9562 4.41009 45.5003 5.93939 45.0443 7.33021H44.9529C41.0772 7.33021 37.4758 9.09112 34.8765 12.336C32.7613 14.9436 31.4909 18.3196 31.1508 21.8377C30.2391 22.083 29.3002 22.211 28.3565 22.2188C27.4139 22.2119 26.4759 22.0859 25.5646 21.8438C25.2696 18.322 23.9529 14.9448 21.8364 12.336C19.2384 9.09112 15.6358 7.33021 11.7613 7.33021H11.6345C11.604 7.24566 11.5748 7.15989 11.5455 7.07288C11.1176 5.7568 10.6921 4.35372 10.2617 2.78399L10.2154 2.59895L10.575 2.60263Z"
        fill="currentColor" />
</svg>