<svg xmlns="http://www.w3.org/2000/svg" width="100%" height="100%" viewBox="0 0 52 70">
    <title>VIP Content</title>
    <path
        d="M24.797 7.03962H24.4415C20.0022 7.02897 15.7365 8.76334 12.5642 11.8688C9.39183 14.9742 7.56696 19.202 7.48301 23.6405C7.39906 28.079 9.06276 32.3728 12.1154 35.596C15.168 38.8191 19.3651 40.7136 23.8016 40.8708H23.8372H23.9865H24.445C28.9019 40.8684 33.1779 39.1077 36.3443 35.9712C39.5106 32.8346 41.3116 28.5754 41.3561 24.1187C41.4006 19.6621 39.685 15.3678 36.5818 12.1687C33.4787 8.9695 29.2387 7.12382 24.7828 7.0325L24.797 7.03962ZM24.4237 37.931C21.4335 37.9308 18.5227 36.969 16.1211 35.1876C13.7194 33.4063 11.9543 30.8999 11.0863 28.0384C10.2184 25.177 10.2936 22.1123 11.3009 19.2969C12.3083 16.4816 14.1943 14.0648 16.6804 12.4034C19.1666 10.7421 22.1211 9.92431 25.1077 10.0708C28.0943 10.2174 30.9545 11.3205 33.2661 13.2172C35.5777 15.1139 37.2181 17.7038 37.945 20.6042C38.6719 23.5047 38.4467 26.5621 37.3028 29.3248C36.2441 31.8695 34.4565 34.0443 32.1648 35.5757C29.8732 37.107 27.1799 37.9265 24.4237 37.931V37.931Z"
        fill="currentColor" />
    <path
        d="M50.6507 53.2487L39.4459 42.0403L39.5916 41.9159C43.528 38.5832 46.2575 34.047 47.3584 29.0082C48.4594 23.9693 47.8706 18.7081 45.6829 14.0373C43.4953 9.36656 39.8305 5.54605 35.2547 3.166C30.679 0.785956 25.4468 -0.0211895 20.3665 0.869234C15.2863 1.75966 10.6405 4.29811 7.14694 8.09246C3.65337 11.8868 1.50639 16.7259 1.03763 21.8623C0.56887 26.9987 1.80443 32.1465 4.55344 36.5106C7.30245 40.8747 11.4119 44.2122 16.2471 46.0075L16.3644 46.0537V68.0296C16.3672 68.2946 16.4411 68.5541 16.5782 68.7809C16.7154 69.0077 16.9109 69.1936 17.1443 69.3192C17.3777 69.4448 17.6405 69.5055 17.9054 69.495C18.1702 69.4845 18.4274 69.4032 18.6502 69.2596L24.4232 65.399L30.214 69.256C30.4361 69.4001 30.6926 69.4822 30.9571 69.4936C31.2216 69.5051 31.4843 69.4455 31.718 69.321C31.9516 69.1966 32.1477 69.0118 32.2858 68.786C32.4239 68.5601 32.499 68.3014 32.5033 68.0367V57.9517L39.2219 64.6667C39.4113 64.8528 39.6471 64.9846 39.9048 65.0484C40.1625 65.1121 40.4326 65.1055 40.6868 65.0292C40.9411 64.953 41.1702 64.8098 41.3503 64.6147C41.5303 64.4196 41.6546 64.1798 41.7103 63.9202L43.0753 57.095L49.897 55.7299C50.1568 55.6747 50.397 55.5509 50.5926 55.3713C50.7883 55.1918 50.9322 54.9631 51.0096 54.7091C51.0869 54.455 51.0947 54.1849 51.0322 53.9268C50.9697 53.6687 50.8392 53.4321 50.6542 53.2415L50.6507 53.2487ZM29.5564 65.2782L25.2408 62.3988C24.9995 62.2369 24.7155 62.1505 24.425 62.1505C24.1344 62.1505 23.8504 62.2369 23.6092 62.3988L19.2936 65.2782V46.9175L19.5069 46.9637C22.7482 47.6641 26.1017 47.6641 29.3431 46.9637L29.5564 46.9175V65.2782ZM24.4232 44.5358C20.3593 44.5358 16.3866 43.3307 13.0076 41.0728C9.62863 38.8149 6.99509 35.6057 5.44006 31.8511C3.88502 28.0964 3.47833 23.9649 4.27142 19.9791C5.06452 15.9934 7.02176 12.3323 9.89565 9.45888C12.7695 6.58549 16.431 4.62887 20.4169 3.83647C24.4028 3.04406 28.5342 3.45147 32.2886 5.00716C36.043 6.56284 39.2517 9.19694 41.509 12.5763C43.7663 15.9557 44.9708 19.9286 44.9701 23.9925C44.9635 29.4395 42.7965 34.6615 38.9445 38.5128C35.0926 42.3641 29.8702 44.5302 24.4232 44.5358ZM41.529 54.3969C41.244 54.4542 40.9823 54.5944 40.7768 54.8C40.5713 55.0055 40.431 55.2672 40.3737 55.5522L39.3534 60.6356L32.5033 53.7854V46.0537L32.6206 46.0075C34.1229 45.4466 35.5632 44.7319 36.9184 43.8746L37.0393 43.7999L46.6159 53.3766L41.529 54.3969Z"
        fill="currentColor" />
    <path
        d="M34.0855 20.7434C34.0085 20.482 33.8581 20.2481 33.652 20.0698C33.4459 19.8914 33.1929 19.7761 32.9231 19.7374L27.9783 18.9909L25.7423 14.5261C25.6166 14.2854 25.4274 14.0838 25.1952 13.9432C24.963 13.8025 24.6968 13.7281 24.4253 13.7281C24.1538 13.7281 23.8875 13.8025 23.6553 13.9432C23.4231 14.0838 23.2339 14.2854 23.1082 14.5261L20.8687 18.9909L15.931 19.7374C15.666 19.7836 15.4186 19.9008 15.215 20.0766C15.0114 20.2524 14.8593 20.4802 14.775 20.7356C14.6908 20.9911 14.6774 21.2646 14.7363 21.527C14.7953 21.7895 14.9244 22.031 15.1099 22.2258L18.6647 25.7344L17.8435 30.6614C17.8024 30.9306 17.8361 31.2059 17.9409 31.4572C18.0457 31.7086 18.2175 31.9263 18.4376 32.0866C18.6577 32.2469 18.9177 32.3437 19.1891 32.3663C19.4604 32.3889 19.7328 32.3365 19.9764 32.2148L24.4235 29.9255L28.8635 32.229C29.1065 32.3502 29.3781 32.4024 29.6487 32.38C29.9193 32.3577 30.1786 32.2615 30.3985 32.1022C30.6183 31.9428 30.7903 31.7262 30.8957 31.4759C31.0011 31.2257 31.0359 30.9513 30.9964 30.6827L30.1752 25.7486L33.73 22.2436C33.9272 22.0542 34.0657 21.8119 34.1287 21.5458C34.1918 21.2798 34.1768 21.0012 34.0855 20.7434ZM27.5589 24.188C27.3905 24.3537 27.2645 24.5574 27.1915 24.782C27.1185 25.0066 27.1006 25.2455 27.1394 25.4784L27.6015 28.2548L25.1131 26.9572C24.9026 26.8487 24.6692 26.7921 24.4324 26.7921C24.1956 26.7921 23.9621 26.8487 23.7516 26.9572L21.2633 28.2512L21.7254 25.4784C21.7638 25.2449 21.7458 25.0056 21.6728 24.7805C21.5999 24.5554 21.4741 24.351 21.3059 24.1845L19.301 22.2116L22.0844 21.7921C22.3177 21.7564 22.539 21.6655 22.7301 21.527C22.9211 21.3885 23.0764 21.2064 23.1829 20.9958L24.4377 18.479L25.6961 20.9958C25.8026 21.2064 25.9578 21.3885 26.1489 21.527C26.34 21.6655 26.5613 21.7564 26.7946 21.7921L29.578 22.2116L27.5589 24.188Z"
        fill="currentColor" />
</svg>