<svg width="100%" height="100%" viewBox="0 0 78 68" fill="none" xmlns="http://www.w3.org/2000/svg" id="60dayscheckout">
<g clip-path="url(#clip0_8795_4173)">
<g filter="url(#filter0_d_8795_4173)">
<path d="M39.0275 6.10352e-05L41.6358 2.24213L44.5951 0.485775L46.7743 3.14625L49.9936 1.92994L51.6764 4.92693L55.059 4.28715L56.195 7.52984L59.6377 7.48605L60.1919 10.8771L63.5892 11.4301L63.5453 14.865L66.7955 15.9986L66.1536 19.3743L69.1576 21.0536L67.9387 24.2671L70.6039 26.4411L68.8447 29.3943L71.0906 31.9972L68.8447 34.6009L70.6039 37.5541L67.9387 39.7281L69.1576 42.9415L66.1536 44.6209L66.7955 47.9965L63.5453 49.1301L63.5892 52.565L60.1919 53.118L59.6377 56.5091L56.195 56.4653L55.059 59.708L51.6764 59.0682L49.9936 62.0652L46.7743 60.8489L44.5951 63.5086L41.6358 61.753L39.0275 63.9951L36.4192 61.753L33.4599 63.5086L31.2807 60.8489L28.0613 62.0652L26.3786 59.0682L22.9959 59.708L21.86 56.4653L18.4172 56.5091L17.8631 53.118L14.4658 52.565L14.5097 49.1301L11.2595 47.9965L11.9006 44.6209L8.89741 42.9415L10.1162 39.7281L7.45107 37.5541L9.21024 34.6009L6.96436 31.9972L9.21024 29.3943L7.45107 26.4411L10.1162 24.2671L8.89741 21.0536L11.9006 19.3743L11.2595 15.9986L14.5097 14.865L14.4658 11.4301L17.8631 10.8771L18.4172 7.48605L21.86 7.52984L22.9959 4.28715L26.3786 4.92693L28.0613 1.92994L31.2807 3.14625L33.4599 0.485775L36.4192 2.24213L39.0275 6.10352e-05Z" fill="url(#paint0_linear_8795_4173)"/>
</g>
<path d="M39.0276 6.05811C25.0738 6.05811 13.7615 17.3471 13.7615 31.2722C13.7615 45.1974 25.0738 56.4864 39.0276 56.4864C52.9815 56.4864 64.2938 45.1974 64.2938 31.2722C64.2938 17.3471 52.9815 6.05811 39.0276 6.05811ZM39.0276 50.9668C28.1281 50.9668 19.2925 42.1493 19.2925 31.2722C19.2925 20.3952 28.1281 11.5777 39.0276 11.5777C49.9272 11.5777 58.7628 20.3952 58.7628 31.2722C58.7628 42.1493 49.9272 50.9668 39.0276 50.9668Z" fill="white"/>
<path d="M39.0278 58.1803C24.1598 58.1803 12.0642 46.1088 12.0642 31.2723C12.0642 16.4357 24.1598 4.3642 39.0278 4.3642C53.8958 4.3642 65.9914 16.4349 65.9914 31.2723C65.9914 46.1096 53.8958 58.1803 39.0278 58.1803ZM39.0278 4.75747C24.3776 4.75747 12.4583 16.6514 12.4583 31.2714C12.4583 45.8915 24.3767 57.7862 39.0278 57.7862C53.6788 57.7862 65.5973 45.8915 65.5973 31.2714C65.5973 16.6514 53.678 4.75828 39.0278 4.75828V4.75747Z" fill="white"/>
<path d="M27.0993 10.2113L29.0055 13.0713L28.4302 13.4532L27.1903 11.593L27.6624 13.9632L27.2268 14.2519L25.215 12.9042L26.4549 14.7644L25.8804 15.1463L23.9734 12.2863L24.6267 11.8525L26.9554 13.3737L26.4492 10.6419L27.0976 10.2113H27.0993Z" fill="#292929"/>
<path d="M29.8758 12.4843C29.5687 12.4527 29.2892 12.3448 29.0381 12.1616C28.787 11.9783 28.5944 11.7318 28.4604 11.4212C28.3279 11.1139 28.2808 10.8066 28.319 10.4984C28.358 10.1903 28.4709 9.91381 28.6586 9.66892C28.8463 9.42404 29.0885 9.23754 29.3842 9.11023C29.6832 8.9813 29.9855 8.93346 30.2918 8.96671C30.5974 8.99914 30.8752 9.1078 31.1247 9.29187C31.3742 9.47593 31.5651 9.72163 31.6984 10.029C31.8324 10.3395 31.8804 10.6476 31.8438 10.955C31.8064 11.2623 31.6943 11.5388 31.5066 11.7837C31.3189 12.0286 31.0768 12.2151 30.781 12.3424C30.4852 12.4697 30.1838 12.5175 29.8758 12.4851V12.4843ZM30.9841 11.4318C31.0922 11.2834 31.1523 11.1123 31.1645 10.9177C31.1775 10.7231 31.1377 10.5203 31.0467 10.3087C30.9557 10.0979 30.8346 9.93083 30.6851 9.80758C30.5356 9.68433 30.3698 9.61216 30.1886 9.59027C30.0074 9.56837 29.8214 9.59838 29.6312 9.68027C29.4411 9.76217 29.2908 9.87651 29.1811 10.0241C29.0714 10.1717 29.0096 10.3419 28.9966 10.5349C28.9836 10.7279 29.0226 10.9306 29.1136 11.1415C29.2046 11.3523 29.3257 11.5201 29.476 11.645C29.6264 11.7699 29.7937 11.8437 29.9774 11.8664C30.161 11.8891 30.3479 11.8599 30.538 11.778C30.7282 11.6961 30.8777 11.581 30.9849 11.4326L30.9841 11.4318Z" fill="#292929"/>
<path d="M35.4068 10.8706L34.7373 11.0377L32.6474 9.12886L33.2203 11.4163L32.5507 11.5834L31.7146 8.24582L32.385 8.07878L34.4756 9.99245L33.9012 7.70091L34.5707 7.53387L35.4068 10.8714V10.8706Z" fill="#292929"/>
<path d="M36.1277 7.90357L36.2228 8.75986L37.375 8.63174L37.4351 9.17502L36.2829 9.30314L36.3837 10.2081L37.683 10.0637L37.7447 10.6216L35.7597 10.8414L35.3794 7.42191L37.3644 7.20135L37.4262 7.75924L36.1277 7.90357Z" fill="#292929"/>
<path d="M40.8355 7.19334L39.6427 9.41757L39.6272 10.6136L38.9366 10.6047L38.952 9.40865L37.812 7.15442L38.5912 7.16415L39.3112 8.74373L40.066 7.1828L40.8355 7.19253V7.19334Z" fill="#292929"/>
<path d="M44.444 9.77184C44.5367 9.95023 44.5635 10.1392 44.5245 10.3386C44.4895 10.5187 44.414 10.6687 44.2986 10.7887C44.1832 10.9087 44.0345 10.9906 43.8517 11.0352C43.6689 11.0798 43.4625 11.0798 43.2333 11.0352L41.7756 10.7522L42.4322 7.37976L43.8265 7.64978C44.0556 7.69438 44.2458 7.76979 44.3977 7.87602C44.5497 7.98224 44.6553 8.10955 44.7146 8.25794C44.7747 8.40633 44.7877 8.56445 44.7552 8.7323C44.7171 8.92853 44.6326 9.0826 44.5017 9.1945C44.3709 9.3064 44.2133 9.37289 44.028 9.39316C44.2116 9.46533 44.3498 9.59102 44.4424 9.76941L44.444 9.77184ZM43.651 10.4254C43.7583 10.3662 43.8249 10.2657 43.8525 10.1238C43.8809 9.97861 43.8541 9.85617 43.7737 9.75481C43.6932 9.65345 43.5706 9.58777 43.4056 9.55534L42.7377 9.4256L42.5606 10.3338L43.2431 10.4659C43.4072 10.4976 43.5437 10.4838 43.6502 10.4246L43.651 10.4254ZM42.8393 8.9042L43.4592 9.02421C43.6209 9.05584 43.7518 9.04367 43.8533 8.98772C43.9549 8.93177 44.0183 8.8369 44.0443 8.70149C44.0703 8.56607 44.0475 8.45336 43.9744 8.36173C43.9013 8.27091 43.7843 8.20929 43.6234 8.17847L43.0034 8.05846L42.8384 8.9042H42.8393Z" fill="#292929"/>
<path d="M46.7713 11.3782L45.4761 10.9298L45.0463 11.4739L44.3613 11.2371L46.6608 8.39172L47.4206 8.65445L47.4596 12.3099L46.7697 12.0707V11.3782H46.7713ZM46.7754 10.796L46.777 9.27558L45.8345 10.47L46.7754 10.796Z" fill="#292929"/>
<path d="M48.867 10.0742C49.1286 9.91044 49.4114 9.8253 49.7153 9.81881C50.0192 9.81233 50.3166 9.88612 50.6058 10.0418C50.9447 10.2234 51.1949 10.4691 51.3566 10.7789C51.5183 11.0886 51.5671 11.4243 51.5045 11.7852L50.8049 11.4106C50.813 11.2289 50.774 11.0676 50.6863 10.9281C50.5985 10.7886 50.4726 10.6743 50.3076 10.5859C50.1305 10.491 49.9517 10.4481 49.7697 10.457C49.5877 10.4659 49.4179 10.5251 49.2602 10.6337C49.1026 10.7432 48.9694 10.8989 48.8605 11.1016C48.7532 11.3011 48.6972 11.4973 48.6923 11.6903C48.6874 11.8833 48.7313 12.0576 48.8247 12.2141C48.9182 12.3706 49.053 12.4955 49.2294 12.5904C49.3943 12.6788 49.5601 12.7201 49.7258 12.7136C49.8916 12.7071 50.0476 12.6504 50.1955 12.5434L50.8951 12.918C50.627 13.1734 50.3206 13.3185 49.9745 13.355C49.6283 13.3915 49.2846 13.3177 48.9425 13.1345C48.6525 12.9796 48.4266 12.7736 48.2641 12.5174C48.1016 12.2612 48.0162 11.9798 48.0073 11.6733C47.9984 11.3668 48.0739 11.0651 48.234 10.7667C48.3941 10.4691 48.6045 10.238 48.8662 10.0751L48.867 10.0742Z" fill="#292929"/>
<path d="M52.1325 15.1966L52.0553 13.2221L51.1322 14.4441L50.5813 14.0297L52.6533 11.2866L53.2042 11.7009L52.2746 12.931L54.2044 12.4534L54.8699 12.9545L52.7085 13.4613L52.8296 15.722L52.1325 15.1974V15.1966Z" fill="#292929"/>
<path d="M27.5594 49.8745C27.5732 49.7107 27.5431 49.5591 27.4692 49.4204C27.3952 49.2818 27.2815 49.1618 27.1279 49.0604C26.9573 48.9485 26.7809 48.8877 26.5989 48.8779C26.4161 48.8682 26.2414 48.9104 26.0732 49.0036C25.905 49.0977 25.7596 49.2372 25.6369 49.4237C25.5101 49.615 25.4378 49.8072 25.4191 49.9994C25.4004 50.1916 25.4329 50.37 25.5174 50.5354C25.6011 50.7008 25.7328 50.8419 25.9107 50.9587C26.1301 51.103 26.3487 51.163 26.5656 51.1387C26.7826 51.1143 26.9816 51.0122 27.1628 50.833L26.174 50.1835L26.464 49.744L28.0209 50.7673L27.6902 51.2684C27.5195 51.4436 27.3156 51.5741 27.0767 51.6609C26.8378 51.7476 26.5859 51.7776 26.3186 51.7493C26.0513 51.7209 25.7945 51.626 25.5475 51.4638C25.2704 51.2814 25.0608 51.0543 24.9194 50.7827C24.778 50.511 24.7163 50.2224 24.7349 49.9167C24.7536 49.611 24.856 49.3166 25.0421 49.0344C25.2282 48.7523 25.4589 48.5414 25.7336 48.402C26.009 48.2625 26.2991 48.2041 26.6054 48.2268C26.9118 48.2487 27.2018 48.3509 27.4765 48.5309C27.8007 48.7442 28.0298 49.0077 28.1647 49.3223C28.2996 49.6369 28.3183 49.9661 28.2208 50.3108L27.5577 49.8753L27.5594 49.8745Z" fill="#292929"/>
<path d="M29.7914 49.9054L28.9236 51.8474C28.8285 52.0599 28.8115 52.2472 28.8724 52.4094C28.9334 52.5707 29.0642 52.6972 29.2657 52.7864C29.4696 52.8772 29.6525 52.891 29.8142 52.8286C29.9759 52.7653 30.1034 52.6275 30.1985 52.415L31.0663 50.473L31.7017 50.756L30.8363 52.6932C30.7169 52.9599 30.5585 53.1594 30.361 53.2924C30.1627 53.4254 29.9466 53.4951 29.711 53.5016C29.4761 53.5081 29.2397 53.4586 29.0024 53.3532C28.7684 53.2486 28.5767 53.1083 28.4271 52.9299C28.2776 52.7524 28.1891 52.5464 28.1606 52.3129C28.1322 52.0793 28.1769 51.8288 28.2963 51.562L29.1617 49.6248L29.7922 49.9054H29.7914Z" fill="#292929"/>
<path d="M33.4802 54.1559L32.1566 53.7999L31.7666 54.3732L31.0662 54.1851L33.1585 51.1849L33.9345 51.3933L34.2327 55.0365L33.5282 54.8468L33.4794 54.1559H33.4802ZM33.4429 53.5745L33.3364 52.0574L32.4808 53.3159L33.4429 53.5745Z" fill="#292929"/>
<path d="M36.8077 55.3601L36.2048 53.9443L35.8814 53.9078L35.7295 55.2376L35.0437 55.1598L35.4329 51.7468L36.7167 51.8928C36.9816 51.9228 37.2018 51.995 37.3773 52.1093C37.5528 52.2236 37.678 52.3647 37.7535 52.5334C37.8283 52.702 37.8551 52.8845 37.8324 53.0799C37.8064 53.3045 37.7178 53.4999 37.5667 53.6662C37.4155 53.8324 37.2067 53.9346 36.941 53.9743L37.6016 55.4509L36.8077 55.3609V55.3601ZM35.9399 53.3937L36.5136 53.4586C36.6997 53.4797 36.8435 53.4505 36.9459 53.3718C37.0474 53.2924 37.1076 53.1732 37.1254 53.0134C37.1433 52.8569 37.1116 52.7304 37.0296 52.6331C36.9483 52.5366 36.8142 52.4774 36.6282 52.4563L36.0545 52.3915L35.9399 53.3937Z" fill="#292929"/>
<path d="M40.6267 54.7609L39.2567 54.8119L39.0544 55.4744L38.3296 55.5012L39.4387 52.0177L40.2423 51.9877L41.6074 55.3796L40.8777 55.4063L40.6267 54.7609ZM40.4186 54.2168L39.8669 52.7994L39.4225 54.2541L40.4178 54.2168H40.4186Z" fill="#292929"/>
<path d="M45.3321 54.6854L44.6553 54.8216L42.6548 52.8196L43.1228 55.1306L42.446 55.2668L41.7634 51.8944L42.4403 51.7582L44.4416 53.7651L43.9727 51.4492L44.6496 51.313L45.3321 54.6846V54.6854Z" fill="#292929"/>
<path d="M47.349 50.3561L47.5383 50.8791L46.6754 51.1897L47.6545 53.898L47.0052 54.1315L46.0261 51.4232L45.1632 51.7338L44.9739 51.2108L47.349 50.3553V50.3561Z" fill="#292929"/>
<path d="M48.5529 50.3756L48.9438 51.1435L49.9773 50.6197L50.2252 51.107L49.1916 51.6308L49.6044 52.4425L50.7696 51.8522L51.0239 52.3525L49.2428 53.255L47.6819 50.1875L49.463 49.285L49.7173 49.7853L48.5521 50.3756H48.5529Z" fill="#292929"/>
<path d="M50.7834 49.1147L51.2612 49.8323L52.2265 49.1925L52.5295 49.6474L51.5642 50.2872L52.0688 51.0454L53.1576 50.3237L53.4688 50.7907L51.8048 51.8935L49.8977 49.0279L51.5618 47.9251L51.873 48.3922L50.7842 49.1138L50.7834 49.1147Z" fill="#292929"/>
<g filter="url(#filter1_d_8795_4173)">
<path d="M75.0284 21.7526L69.5437 31.9972L75.0284 42.2418H3.02611L8.79195 31.9972L3.02611 21.7526H75.0284ZM77.661 20.1779H0.330078L1.65047 22.5237L6.9824 31.9972L1.65047 41.4706L0.330078 43.8165H77.661L76.4203 41.4998L71.3329 31.9972L76.4203 22.4945L77.661 20.1779Z" fill="white"/>
</g>
<path d="M75.0284 42.2426H3.02612L8.79196 31.9972L3.02612 21.7526H75.0284L69.5445 31.9972L75.0284 42.2426Z" fill="url(#paint1_linear_8795_4173)"/>
<path d="M12.6852 33.3277C12.6852 33.6559 12.7536 33.9432 12.8904 34.1893C13.0363 34.4264 13.2278 34.6133 13.4648 34.7501C13.711 34.8777 13.9891 34.9416 14.2991 34.9416C14.6 34.9416 14.869 34.8777 15.106 34.7501C15.3522 34.6133 15.5437 34.4264 15.6805 34.1893C15.8264 33.9432 15.8993 33.6559 15.8993 33.3277C15.8993 33.0086 15.8264 32.7259 15.6805 32.4797C15.5437 32.2335 15.3522 32.0421 15.106 31.9053C14.869 31.7685 14.6 31.7002 14.2991 31.7002C13.9891 31.7002 13.711 31.7685 13.4648 31.9053C13.2278 32.0421 13.0363 32.2335 12.8904 32.4797C12.7536 32.7259 12.6852 33.0086 12.6852 33.3277ZM14.2718 27.1594H17.1986L14.1076 30.6197L13.6289 30.8248C13.8842 30.5695 14.1259 30.4054 14.3538 30.3325C14.5909 30.2595 14.8827 30.2231 15.2291 30.2231C15.5847 30.2231 15.9358 30.296 16.2823 30.4419C16.6378 30.5787 16.957 30.7838 17.2396 31.0573C17.5314 31.3218 17.7593 31.6454 17.9235 32.0284C18.0967 32.4113 18.1833 32.8444 18.1833 33.3277C18.1833 34.1118 18.0055 34.7729 17.6499 35.3108C17.3035 35.8397 16.8339 36.2409 16.2412 36.5144C15.6577 36.7788 15.0103 36.911 14.2991 36.911C13.5788 36.911 12.9223 36.7788 12.3296 36.5144C11.7461 36.2409 11.2765 35.8397 10.9209 35.3108C10.5744 34.7729 10.4012 34.1118 10.4012 33.3277C10.4012 32.8171 10.5061 32.343 10.7158 31.9053C10.9346 31.4676 11.199 31.0573 11.509 30.6744L14.2718 27.1594ZM21.6428 31.9053C21.6428 32.3521 21.6839 32.7624 21.7659 33.1362C21.848 33.5009 21.9665 33.8155 22.1215 34.0799C22.2765 34.3352 22.4589 34.5358 22.6686 34.6817C22.8874 34.8185 23.129 34.8869 23.3935 34.8869C23.6579 34.8869 23.8949 34.8185 24.1047 34.6817C24.3235 34.5358 24.5104 34.3352 24.6654 34.0799C24.8204 33.8155 24.9389 33.5009 25.021 33.1362C25.1031 32.7624 25.1441 32.3521 25.1441 31.9053C25.1441 31.4585 25.1031 31.0528 25.021 30.6881C24.9389 30.3142 24.8204 29.9997 24.6654 29.7444C24.5104 29.4799 24.3235 29.2794 24.1047 29.1426C23.8949 28.9967 23.6579 28.9238 23.3935 28.9238C23.129 28.9238 22.8874 28.9967 22.6686 29.1426C22.4589 29.2794 22.2765 29.4799 22.1215 29.7444C21.9665 29.9997 21.848 30.3142 21.7659 30.6881C21.6839 31.0528 21.6428 31.4585 21.6428 31.9053ZM19.4135 31.9053C19.4135 30.8659 19.5776 29.9769 19.9059 29.2383C20.2432 28.4998 20.7128 27.9345 21.3146 27.5424C21.9164 27.1412 22.6093 26.9406 23.3935 26.9406C24.205 26.9406 24.907 27.1412 25.4997 27.5424C26.1015 27.9345 26.5619 28.4998 26.8811 29.2383C27.2093 29.9769 27.3734 30.8659 27.3734 31.9053C27.3734 32.9447 27.2093 33.8337 26.8811 34.5723C26.5619 35.3108 26.1015 35.8807 25.4997 36.2819C24.907 36.674 24.205 36.87 23.3935 36.87C22.6093 36.87 21.9164 36.674 21.3146 36.2819C20.7128 35.8807 20.2432 35.3108 19.9059 34.5723C19.5776 33.8337 19.4135 32.9447 19.4135 31.9053ZM33.0345 27.1184H35.4142V36.6922H33.0345V27.1184ZM36.4537 36.6922H34.5663V34.6407H36.3716C36.7363 34.6407 37.0874 34.5951 37.4247 34.5039C37.7712 34.4127 38.0721 34.2623 38.3274 34.0526C38.5918 33.8429 38.8015 33.5648 38.9565 33.2183C39.1115 32.8627 39.189 32.425 39.189 31.9053C39.189 31.3856 39.1115 30.9525 38.9565 30.606C38.8015 30.2504 38.5918 29.9678 38.3274 29.758C38.0721 29.5483 37.7712 29.3979 37.4247 29.3067C37.0874 29.2155 36.7363 29.1699 36.3716 29.1699H34.5663V27.1184H36.4537C37.5022 27.1184 38.4095 27.3144 39.1754 27.7065C39.9413 28.0986 40.5339 28.6502 40.9534 29.3614C41.3728 30.0726 41.5825 30.9206 41.5825 31.9053C41.5825 32.8809 41.3728 33.7289 40.9534 34.4492C40.5339 35.1604 39.9413 35.712 39.1754 36.1041C38.4095 36.4962 37.5022 36.6922 36.4537 36.6922ZM44.1554 34.8458L44.3196 33.0815H49.0654L49.2159 34.8458H44.1554ZM46.6583 30.6334L45.318 33.7243L45.4274 34.2304L44.2375 36.6922H41.6252L46.6583 26.5166L51.7051 36.6922H49.0791L47.9303 34.3261L48.0123 33.738L46.6583 30.6334ZM57.1216 27.1184H59.7749L56.4241 32.7943V36.6922H54.0717V32.808L50.7209 27.1184H53.3742L55.2479 30.7154L57.1216 27.1184ZM61.8286 33.3277C62.0201 33.6742 62.2343 33.9751 62.4714 34.2304C62.7176 34.4857 62.982 34.6817 63.2647 34.8185C63.5564 34.9552 63.8619 35.0236 64.181 35.0236C64.5184 35.0236 64.7965 34.9416 65.0153 34.7774C65.2341 34.6042 65.3435 34.3717 65.3435 34.0799C65.3435 33.8337 65.2797 33.6377 65.1521 33.4918C65.0244 33.3368 64.8193 33.1909 64.5366 33.0542C64.254 32.9174 63.8801 32.7624 63.4151 32.5891C63.1872 32.5071 62.9227 32.3931 62.6219 32.2472C62.3301 32.1013 62.052 31.9144 61.7876 31.6865C61.5231 31.4494 61.3043 31.1668 61.1311 30.8385C60.9578 30.5011 60.8712 30.0954 60.8712 29.6213C60.8712 29.056 61.0171 28.5682 61.3089 28.1578C61.6098 27.7475 62.011 27.4375 62.5124 27.2278C63.023 27.009 63.5884 26.8996 64.2084 26.8996C64.8466 26.8996 65.3983 27.0044 65.8633 27.2141C66.3374 27.4239 66.7295 27.6883 67.0395 28.0074C67.3495 28.3265 67.5865 28.6502 67.7507 28.9785L65.9864 29.9632C65.8496 29.7352 65.69 29.5392 65.5077 29.3751C65.3344 29.2018 65.1384 29.0696 64.9196 28.9785C64.7099 28.8782 64.4819 28.828 64.2357 28.828C63.9075 28.828 63.6567 28.901 63.4835 29.0468C63.3103 29.1836 63.2236 29.3569 63.2236 29.5666C63.2236 29.7854 63.3057 29.9769 63.4698 30.141C63.6431 30.3051 63.8847 30.4556 64.1947 30.5923C64.5138 30.7291 64.8968 30.875 65.3435 31.03C65.6809 31.1576 65.9955 31.3081 66.2872 31.4813C66.579 31.6454 66.8343 31.846 67.0532 32.0831C67.2811 32.3202 67.4589 32.5937 67.5865 32.9037C67.7142 33.2137 67.778 33.5693 67.778 33.9705C67.778 34.4538 67.6777 34.8869 67.4771 35.2698C67.2857 35.6436 67.0212 35.9582 66.6839 36.2135C66.3556 36.4688 65.9772 36.6603 65.5487 36.7879C65.1293 36.9247 64.6962 36.9931 64.2494 36.9931C63.6294 36.9931 63.0504 36.8837 62.5124 36.6648C61.9836 36.4369 61.5231 36.1314 61.1311 35.7485C60.739 35.3655 60.4336 34.9461 60.2147 34.4902L61.8286 33.3277Z" fill="#292929"/>
</g>
<defs>
<filter id="filter0_d_8795_4173" x="5.87997" y="6.10352e-05" width="66.295" height="66.1638" filterUnits="userSpaceOnUse" color-interpolation-filters="sRGB">
<feFlood flood-opacity="0" result="BackgroundImageFix"/>
<feColorMatrix in="SourceAlpha" type="matrix" values="0 0 0 0 0 0 0 0 0 0 0 0 0 0 0 0 0 0 127 0" result="hardAlpha"/>
<feOffset dy="1.08439"/>
<feGaussianBlur stdDeviation="0.542195"/>
<feComposite in2="hardAlpha" operator="out"/>
<feColorMatrix type="matrix" values="0 0 0 0 0 0 0 0 0 0 0 0 0 0 0 0 0 0 0.25 0"/>
<feBlend mode="normal" in2="BackgroundImageFix" result="effect1_dropShadow_8795_4173"/>
<feBlend mode="normal" in="SourceGraphic" in2="effect1_dropShadow_8795_4173" result="shape"/>
</filter>
<filter id="filter1_d_8795_4173" x="-0.754311" y="20.1779" width="79.4998" height="25.8074" filterUnits="userSpaceOnUse" color-interpolation-filters="sRGB">
<feFlood flood-opacity="0" result="BackgroundImageFix"/>
<feColorMatrix in="SourceAlpha" type="matrix" values="0 0 0 0 0 0 0 0 0 0 0 0 0 0 0 0 0 0 127 0" result="hardAlpha"/>
<feOffset dy="1.08439"/>
<feGaussianBlur stdDeviation="0.542195"/>
<feComposite in2="hardAlpha" operator="out"/>
<feColorMatrix type="matrix" values="0 0 0 0 0 0 0 0 0 0 0 0 0 0 0 0 0 0 0.25 0"/>
<feBlend mode="normal" in2="BackgroundImageFix" result="effect1_dropShadow_8795_4173"/>
<feBlend mode="normal" in="SourceGraphic" in2="effect1_dropShadow_8795_4173" result="shape"/>
</filter>
<linearGradient id="paint0_linear_8795_4173" x1="6.96436" y1="31.9972" x2="71.0906" y2="31.9972" gradientUnits="userSpaceOnUse">
<stop stop-color="#C58F1E"/>
<stop offset="0.51" stop-color="#F9DF53"/>
<stop offset="1" stop-color="#C99320"/>
</linearGradient>
<linearGradient id="paint1_linear_8795_4173" x1="3.02612" y1="31.9972" x2="75.0284" y2="31.9972" gradientUnits="userSpaceOnUse">
<stop stop-color="#C58F1E"/>
<stop offset="0.51" stop-color="#F9DF53"/>
<stop offset="1" stop-color="#C99320"/>
</linearGradient>
<clipPath id="clip0_8795_4173">
<rect width="77.3687" height="67.3107" fill="white" transform="translate(0.330078)"/>
</clipPath>
</defs>
</svg>
