<svg width="194" height="13" viewBox="0 0 194 13" fill="none" xmlns="http://www.w3.org/2000/svg">
<g clip-path="url(#clip0_646_1598)">
<path d="M7.49959 7.08302C7.83249 6.71058 8.08055 6.27859 8.22857 5.81348C8.37757 5.36177 8.45347 4.89178 8.45375 4.41911C8.46335 3.87596 8.35695 3.33649 8.14079 2.83221C7.93579 2.36952 7.62133 1.95621 7.22098 1.62329C6.78325 1.27174 6.27263 1.00831 5.72103 0.849443C5.05982 0.659609 4.37077 0.568145 3.67913 0.578415H-0.0153809V11.99H2.38911V8.35255H3.98828L6.56452 11.9757H9.36593L6.52253 7.83189C6.89574 7.64192 7.22723 7.38786 7.49959 7.08302ZM2.38911 2.7466H4.11041C4.45778 2.73176 4.80342 2.80054 5.11419 2.94632C5.343 3.06334 5.5351 3.23421 5.67142 3.442C5.78307 3.62306 5.86417 3.81912 5.91187 4.02328C5.9459 4.17949 5.96506 4.33821 5.96912 4.49758C5.96618 4.67906 5.93533 4.85921 5.87752 5.0325C5.81166 5.22975 5.71105 5.41535 5.57982 5.58167C5.42787 5.76549 5.23175 5.91331 5.00732 6.01318C4.72163 6.13569 4.40931 6.19429 4.09515 6.18435H2.38911V2.7466Z" fill="#292929"/>
<path d="M20.3999 7.34355H25.6402V5.17534H20.3999V2.74682H26.3195V0.578613H17.9993V11.9759H26.5485V9.80774H20.3999V7.34355Z" fill="#292929"/>
<path d="M40.2962 7.0012L37.5062 0.578613H34.6208L40.1893 12.5002L45.7578 0.578613H42.9068L40.2962 7.0012Z" fill="#292929"/>
<path d="M56.8948 7.34355H62.1351V5.17534H56.8948V2.74682H62.8144V0.578613H54.4941V11.9759H63.0434V9.80774H56.8948V7.34355Z" fill="#292929"/>
<path d="M74.562 0.578613H72.1614V11.9759H80.2985V9.80774H74.562V0.578613Z" fill="#292929"/>
<path d="M94.8245 6.64084C94.598 6.53433 94.3617 6.44718 94.1184 6.3805C94.3269 6.30587 94.5254 6.20894 94.71 6.09165C95.0946 5.84099 95.4004 5.49868 95.5955 5.10028C95.7975 4.68253 95.8991 4.2285 95.8932 3.77012C95.8932 2.79063 95.5815 2.0774 94.9581 1.63045C94.3322 1.18825 93.4505 0.970703 92.3132 0.970703H89.7102V11.9651H92.7635C93.2332 11.9666 93.7009 11.9066 94.1528 11.7868C94.5807 11.6756 94.983 11.4918 95.3398 11.2447C95.6863 11.0029 95.9695 10.6908 96.168 10.3318C96.3812 9.93 96.486 9.48558 96.4733 9.03727C96.4857 8.52906 96.3268 8.03007 96.0191 7.61082C95.7122 7.2007 95.3019 6.86756 94.8245 6.64084ZM90.5232 1.70889H92.3475C93.0497 1.67646 93.7444 1.85655 94.3283 2.22242C94.822 2.56476 95.0675 3.12821 95.065 3.91275C95.0847 4.48431 94.8873 5.04395 94.5077 5.49254C94.1261 5.91334 93.5345 6.12732 92.6948 6.12732H90.5232V1.70889ZM95.2825 10.3032C95.0137 10.6401 94.6447 10.8956 94.2215 11.0379C93.7559 11.2029 93.2614 11.2852 92.7635 11.2804H90.5422V6.85837H92.7139C93.1886 6.85852 93.6597 6.93451 94.107 7.08304C94.5433 7.22333 94.9319 7.46948 95.2329 7.79626C95.5447 8.16297 95.7034 8.62297 95.6794 9.09077C95.6936 9.52474 95.5541 9.95092 95.2825 10.3032Z" fill="#292929"/>
<path d="M106.931 6.80136H112.732V6.07387H106.931V1.70893H113.377V0.981445H106.118V11.9758H113.61V11.2483H106.931V6.80136Z" fill="#292929"/>
<path d="M127.285 0.5L122.323 11.9758H123.144L124.701 8.33835H129.896L131.422 11.9758H132.335L127.373 0.5H127.285ZM124.995 7.63224L127.3 2.22244L129.59 7.62513L124.995 7.63224Z" fill="#292929"/>
<path d="M148.796 8.25989C148.811 8.83769 148.665 9.40933 148.372 9.91815C148.106 10.3685 147.709 10.7394 147.227 10.988C146.711 11.2479 146.133 11.3793 145.548 11.3696C144.968 11.3785 144.396 11.247 143.887 10.988C143.406 10.7384 143.009 10.3678 142.742 9.91815C142.449 9.40933 142.303 8.83769 142.319 8.25989V0.981445H141.506V8.30625C141.483 9.0195 141.667 9.72526 142.036 10.3496C142.376 10.9047 142.879 11.3566 143.487 11.6513C144.128 11.9469 144.834 12.1007 145.549 12.1007C146.265 12.1007 146.971 11.9469 147.612 11.6513C148.221 11.3557 148.727 10.9042 149.07 10.3496C149.446 9.7269 149.633 9.02066 149.612 8.30625V0.981445H148.815L148.796 8.25989Z" fill="#292929"/>
<path d="M158.956 1.70893H162.387V11.9758H163.2V1.70893H166.661V0.981445H158.956V1.70893Z" fill="#292929"/>
<path d="M179.718 7.20076L175.894 0.981445H174.898L179.291 8.05663V11.9758H180.104V8.05663L184.493 0.981445H183.516L179.718 7.20076Z" fill="#292929"/>
<path d="M188.504 1.35941H189.256V3.70592H189.687V1.35941H190.458V0.970703H188.504V1.35941Z" fill="#292929"/>
<path d="M193.992 0.87793L192.523 2.80007L191.073 0.87793H191.069V3.70586H191.485V2.09041L192.512 3.42414H192.519L193.573 2.03335V3.70586H194V0.87793H193.992Z" fill="#292929"/>
</g>
<defs>
<clipPath id="clip0_646_1598">
<rect width="194" height="12" fill="white" transform="translate(0 0.5)"/>
</clipPath>
</defs>
</svg>
