<svg width="1920" height="1080" viewBox="0 0 1920 1080" fill="currentColor" xmlns="http://www.w3.org/2000/svg">
    <rect width="1920" height="1080" fill="white" />
    <g clip-path="url(#clip0_405_3358)">
        <path
            d="M765.478 502.491C767.298 500.292 768.66 497.751 769.482 495.017C770.291 492.359 770.708 489.597 770.721 486.819C770.765 483.621 770.176 480.446 768.986 477.477C767.856 474.758 766.13 472.327 763.934 470.366C761.524 468.297 758.714 466.746 755.678 465.809C752.052 464.707 748.277 464.173 744.487 464.227H724.164V531.26H737.376V509.945H746.165L760.33 531.26H775.716L760.102 506.895C762.154 505.777 763.978 504.283 765.478 502.491ZM756.555 490.403C756.191 491.567 755.637 492.662 754.916 493.644C754.085 494.733 753.006 495.609 751.77 496.199C750.198 496.912 748.481 497.251 746.756 497.191H737.376V476.981H746.908C748.817 476.885 750.717 477.293 752.418 478.163C753.681 478.842 754.735 479.85 755.469 481.08C756.1 482.134 756.545 483.288 756.784 484.493C756.975 485.409 757.083 486.341 757.108 487.277C757.074 488.34 756.887 489.393 756.555 490.403Z"
            fill="#292929" />
        <path
            d="M836.306 504.035H865.094V491.28H836.306V476.981H868.831V464.227H823.093V531.26H870.108V518.506H836.306V504.035Z"
            fill="#292929" />
        <path d="M960.02 464.227L945.645 502.014L930.316 464.227H914.473L945.073 534.368L975.673 464.227H960.02Z"
            fill="#292929" />
        <path
            d="M1070.69 518.506H1036.89V504.035H1065.68V491.28H1036.89V476.981H1069.42V464.227H1023.68V531.26H1070.69V518.506Z"
            fill="#292929" />
        <path d="M1133.99 464.227H1120.78V531.26H1165.51V518.506H1133.99V464.227Z" fill="#292929" />
        <path
            d="M746.489 591.278C745.504 590.765 744.469 590.356 743.4 590.058C744.314 589.7 745.184 589.24 745.993 588.685C747.656 587.502 748.973 585.896 749.806 584.033C750.698 582.063 751.147 579.922 751.122 577.76C751.122 573.147 749.749 569.81 747.004 567.751C743.567 565.497 739.495 564.414 735.393 564.663H723.954V616.368H737.414C739.484 616.386 741.545 616.103 743.534 615.529C745.415 615.009 747.185 614.149 748.758 612.993C750.285 611.854 751.53 610.38 752.399 608.684C753.33 606.795 753.788 604.708 753.734 602.603C753.817 600.215 753.15 597.862 751.827 595.873C750.457 593.921 748.622 592.342 746.489 591.278ZM727.595 568.075H735.603C738.69 567.917 741.746 568.76 744.315 570.478C745.457 571.443 746.348 572.67 746.912 574.055C747.477 575.439 747.698 576.94 747.556 578.428C747.638 581.11 746.774 583.735 745.116 585.844C744.1 586.917 742.852 587.745 741.468 588.264C740.084 588.782 738.599 588.979 737.128 588.837H727.595V568.075ZM748.434 608.513C747.234 610.081 745.614 611.278 743.762 611.964C741.717 612.738 739.544 613.119 737.357 613.089H727.595V592.269H737.128C739.213 592.264 741.283 592.619 743.248 593.318C745.169 593.977 746.88 595.135 748.205 596.673C749.563 598.399 750.241 600.563 750.111 602.755C750.2 604.807 749.61 606.83 748.434 608.513Z"
            fill="#292929" />
        <path
            d="M804.676 592.04H830.166V588.609H804.676V568.075H833.007V564.663H801.092V616.368H834.037V612.955H804.676V592.04Z"
            fill="#292929" />
        <path
            d="M899.068 562.394L877.22 616.368H880.823L887.687 599.209H910.565L917.314 616.368H921.318L899.45 562.394H899.068ZM888.983 595.911L899.145 570.497L909.154 595.911H888.983Z"
            fill="#292929" />
        <path
            d="M998.589 598.885C998.649 601.606 997.991 604.296 996.683 606.683C995.495 608.817 993.731 610.574 991.592 611.754C989.316 612.96 986.771 613.57 984.195 613.527C981.655 613.572 979.147 612.961 976.912 611.754C974.783 610.568 973.026 608.812 971.841 606.683C970.532 604.296 969.875 601.606 969.934 598.885V564.567H966.369V599.018C966.281 602.346 967.084 605.637 968.695 608.551C970.184 611.161 972.396 613.286 975.063 614.671C977.882 616.063 980.984 616.787 984.128 616.787C987.273 616.787 990.375 616.063 993.194 614.671C995.873 613.283 998.102 611.16 999.619 608.551C1001.24 605.641 1002.06 602.35 1001.98 599.018V564.663H998.494L998.589 598.885Z"
            fill="#292929" />
        <path d="M1048.2 568.075H1063.28V616.368H1066.84V568.075H1082.08V564.663H1048.2V568.075Z" fill="#292929" />
        <path
            d="M1144.4 593.909L1127.6 564.663H1123.22L1142.53 597.951V616.368H1146.1V597.951L1165.41 564.663H1161.1L1144.4 593.909Z"
            fill="#292929" />
    </g>
    <defs>
        <clipPath id="clip0_405_3358">
            <rect width="470.97" height="153.438" fill="white" transform="translate(724.03 463.521)" />
        </clipPath>
    </defs>
</svg>