<svg xmlns="http://www.w3.org/2000/svg" width="100%" height="100%" testId="" fill="none">
    <title>NewSixtyDaysGuarantee</title>
    <g clipPath="url(#clip0_1_682)">
        <path
            d="M12.5 21.5C18.299 21.5 23 16.799 23 11C23 5.20101 18.299 0.5 12.5 0.5C6.70101 0.5 2 5.20101 2 11C2 16.799 6.70101 21.5 12.5 21.5Z"
            fill="none" />
        <path d="M4.74238 7.12665L2.19184 8.26674L1.35866 5.6001" stroke="#292929" strokeLinecap="round" />
        <path
            d="M8.29982 9.84063C8.29982 9.53688 8.36666 9.26049 8.50031 9.0114C8.64002 8.75625 8.83139 8.55579 9.07439 8.40999C9.32345 8.2581 9.61505 8.18217 9.94919 8.18217C10.2468 8.18217 10.5141 8.25507 10.7511 8.40087C10.988 8.54058 11.1763 8.73804 11.316 8.99319C11.4558 9.24225 11.5257 9.52473 11.5257 9.84063C11.5257 10.1687 11.4558 10.4603 11.316 10.7154C11.1824 10.9645 10.9941 11.165 10.7511 11.3169C10.5081 11.4627 10.2286 11.5356 9.91274 11.5356C9.59684 11.5356 9.31739 11.4627 9.07439 11.3169C8.83139 11.165 8.64002 10.9645 8.50031 10.7154C8.36666 10.4603 8.29982 10.1687 8.29982 9.84063ZM10.3683 5.52132L8.26337 8.46465C8.14187 8.63475 8.03555 8.8413 7.94444 9.0843C7.85939 9.3273 7.81685 9.57942 7.81685 9.84063C7.81685 10.2659 7.90496 10.6395 8.08112 10.9615C8.26337 11.2834 8.51246 11.5356 8.82836 11.7178C9.14426 11.9001 9.5057 11.9912 9.91274 11.9912C10.3258 11.9912 10.6873 11.9001 10.9971 11.7178C11.313 11.5356 11.559 11.2834 11.7352 10.9615C11.9175 10.6395 12.0086 10.2659 12.0086 9.84063C12.0086 9.55512 11.96 9.29085 11.8628 9.04785C11.7656 8.79879 11.6289 8.58312 11.4528 8.40087C11.2827 8.21253 11.0822 8.06673 10.8513 7.96347C10.6266 7.86018 10.3836 7.80855 10.1223 7.80855C9.86111 7.80855 9.6272 7.85109 9.42065 7.93614C9.2141 8.0151 9.03491 8.14572 8.88302 8.32797L8.91947 8.3553L10.9971 5.52132H10.3683ZM13.3807 8.71068C13.3807 8.31582 13.4202 7.94829 13.4991 7.60809C13.5781 7.26789 13.6905 6.9702 13.8363 6.71505C13.9882 6.4599 14.1704 6.26247 14.3831 6.12273C14.5957 5.97693 14.8356 5.90403 15.1029 5.90403C15.3763 5.90403 15.6163 5.97693 15.8228 6.12273C16.0355 6.26247 16.2147 6.4599 16.3605 6.71505C16.5123 6.9702 16.6278 7.26789 16.7067 7.60809C16.7857 7.94829 16.8252 8.31582 16.8252 8.71068C16.8252 9.10557 16.7857 9.4731 16.7067 9.8133C16.6278 10.1535 16.5123 10.4512 16.3605 10.7063C16.2147 10.9615 16.0355 11.1619 15.8228 11.3077C15.6163 11.4475 15.3763 11.5173 15.1029 11.5173C14.8356 11.5173 14.5957 11.4475 14.3831 11.3077C14.1704 11.1619 13.9882 10.9615 13.8363 10.7063C13.6905 10.4512 13.5781 10.1535 13.4991 9.8133C13.4202 9.4731 13.3807 9.10557 13.3807 8.71068ZM12.8795 8.71068C12.8795 9.33642 12.9706 9.89532 13.1529 10.3874C13.3351 10.8795 13.5933 11.2713 13.9274 11.5629C14.2616 11.8484 14.6534 11.9912 15.1029 11.9912C15.5525 11.9912 15.9443 11.8484 16.2785 11.5629C16.6126 11.2713 16.8708 10.8795 17.053 10.3874C17.2353 9.89532 17.3264 9.33642 17.3264 8.71068C17.3264 8.08497 17.2353 7.52607 17.053 7.03398C16.8708 6.54192 16.6126 6.15312 16.2785 5.86758C15.9443 5.57598 15.5525 5.43018 15.1029 5.43018C14.6534 5.43018 14.2616 5.57598 13.9274 5.86758C13.5933 6.15312 13.3351 6.54192 13.1529 7.03398C12.9706 7.52607 12.8795 8.08497 12.8795 8.71068ZM8.12375 13.5651V16.4001H8.468V13.5651H8.12375ZM8.97425 16.4001C9.24965 16.4001 9.494 16.3407 9.7073 16.2219C9.9206 16.1031 10.088 15.9384 10.2095 15.7278C10.331 15.5145 10.3917 15.2661 10.3917 14.9826C10.3917 14.6991 10.331 14.452 10.2095 14.2414C10.088 14.0281 9.9206 13.8621 9.7073 13.7433C9.494 13.6245 9.24965 13.5651 8.97425 13.5651H8.3141V13.9093H8.97425C9.13355 13.9093 9.27935 13.935 9.41165 13.9863C9.54395 14.0349 9.65735 14.1064 9.75185 14.2009C9.84635 14.2927 9.91925 14.4048 9.97055 14.5371C10.0218 14.6694 10.0475 14.8179 10.0475 14.9826C10.0475 15.1473 10.0218 15.2958 9.97055 15.4281C9.91925 15.5604 9.84635 15.6738 9.75185 15.7683C9.65735 15.8601 9.54395 15.9316 9.41165 15.9829C9.27935 16.0315 9.13355 16.0558 8.97425 16.0558H8.3141V16.4001H8.97425ZM11.0252 15.5496H12.5237L12.4022 15.2256H11.1467L11.0252 15.5496ZM11.7664 14.205L12.2524 15.3471L12.2848 15.4281L12.6979 16.4001H13.0826L11.7664 13.4233L10.4501 16.4001H10.8349L11.2561 15.4038L11.2885 15.3309L11.7664 14.205ZM14.6858 13.5651L13.9527 14.8773L13.2237 13.5651H12.839L13.7826 15.181V16.4001H14.1269V15.177L15.0705 13.5651H14.6858ZM15.5183 15.5415L15.2429 15.7278C15.305 15.852 15.3846 15.9694 15.4818 16.0801C15.5817 16.1881 15.6965 16.2759 15.8261 16.3434C15.9584 16.4082 16.1015 16.4406 16.2554 16.4406C16.3688 16.4406 16.4768 16.4217 16.5794 16.3839C16.6847 16.3461 16.7778 16.2921 16.8588 16.2219C16.9425 16.1517 17.0073 16.0666 17.0532 15.9667C17.1018 15.8668 17.1261 15.7548 17.1261 15.6306C17.1261 15.501 17.1032 15.3903 17.0573 15.2985C17.0114 15.204 16.952 15.1243 16.8791 15.0595C16.8089 14.992 16.7319 14.9367 16.6482 14.8935C16.5645 14.8503 16.4849 14.8152 16.4093 14.7882C16.2446 14.7315 16.1136 14.6748 16.0164 14.6181C15.9219 14.5587 15.8544 14.4966 15.8139 14.4318C15.7734 14.3643 15.7532 14.2914 15.7532 14.2131C15.7532 14.1213 15.7883 14.0389 15.8585 13.966C15.9287 13.8904 16.0407 13.8526 16.1946 13.8526C16.3053 13.8526 16.3985 13.8742 16.4741 13.9174C16.5524 13.9606 16.6185 14.016 16.6725 14.0835C16.7265 14.151 16.7711 14.2198 16.8062 14.29L17.1018 14.1199C17.0559 14.02 16.9925 13.9255 16.9115 13.8364C16.8305 13.7446 16.7319 13.6704 16.6158 13.6137C16.5024 13.5543 16.3688 13.5246 16.2149 13.5246C16.0556 13.5246 15.9138 13.557 15.7896 13.6218C15.6654 13.6839 15.5682 13.7703 15.498 13.881C15.4278 13.9917 15.3927 14.1172 15.3927 14.2576C15.3927 14.3872 15.417 14.4966 15.4656 14.5857C15.5169 14.6748 15.5817 14.7504 15.66 14.8125C15.7383 14.8719 15.8207 14.9218 15.9071 14.9623C15.9935 15.0001 16.0718 15.0312 16.142 15.0555C16.25 15.0933 16.3512 15.1365 16.4457 15.1851C16.5429 15.231 16.6212 15.2917 16.6806 15.3673C16.74 15.4429 16.7697 15.5442 16.7697 15.6711C16.7697 15.8007 16.7238 15.9073 16.632 15.991C16.5402 16.0747 16.4187 16.1166 16.2675 16.1166C16.1541 16.1166 16.0529 16.0923 15.9638 16.0437C15.8747 15.9951 15.7937 15.9276 15.7208 15.8412C15.6506 15.7548 15.5831 15.6549 15.5183 15.5415Z"
            fill="#292929" />
        <path d="M20.2804 14.796L22.668 13.3452L23.8287 15.8864" stroke="#292929" strokeLinecap="round" />
        <path
            d="M22.9038 11C22.9038 5.201 18.2028 0.5 12.4038 0.5C7.59257 0.5 3.53714 3.73589 2.29516 8.15M1.90376 11C1.90376 16.799 6.60476 21.5 12.4038 21.5C17.3404 21.5 21.4814 18.0931 22.6038 13.5023"
            stroke="#292929" strokeLinejoin="round" />
    </g>
    <defs>
        <clipPath id="clip0_1_682">
            <rect width="24" height="21.6" fill="white" transform="translate(0.5 0.199951)" />
        </clipPath>
    </defs>
</svg>