<svg xmlns="http://www.w3.org/2000/svg" width="100%" height="100%" fill="none">
    <title>thumbs up</title>
    <g>
        <path
            d="M3.59375 7.31409H1.90625C1.1307 7.31409 0.5 7.99598 0.5 8.83787V16.7615C0.5 17.6034 1.1307 18.2853 1.90625 18.2853H3.59375C4.3707 18.2853 5 17.6034 5 16.7615V8.83787C5 7.99598 4.3707 7.31409 3.59375 7.31409ZM3.875 16.7615C3.875 16.9291 3.74879 17.0663 3.59375 17.0663H1.90625C1.75121 17.0663 1.625 16.9291 1.625 16.7615V8.83787C1.625 8.67025 1.75121 8.53311 1.90625 8.53311H3.59375C3.74879 8.53311 3.875 8.67025 3.875 8.83787V16.7615ZM18.5 8.43788C18.5 7.14648 17.5297 6.09507 16.3379 6.09507H12.7344C13.1555 5.06424 13.3964 4.05779 13.3964 3.53018C13.3988 2.39382 12.5797 1.21899 11.2191 1.21899C9.77 1.21899 9.43672 2.32792 9.1407 3.30695C8.16758 6.51792 6.125 7.03982 6.125 7.9236C6.125 8.27026 6.38867 8.53311 6.6875 8.53311C6.83164 8.53311 6.97578 8.47216 7.08477 8.35407C8.9368 6.33355 9.44094 6.2166 10.207 3.68751C10.5301 2.62658 10.632 2.43801 11.2191 2.43801C11.9455 2.43801 12.2717 3.07686 12.2717 3.53018C12.2717 3.91455 11.9591 5.20443 11.3359 6.40554C11.2878 6.49819 11.2639 6.60101 11.2639 6.70382C11.2648 7.06648 11.5391 7.31409 11.8273 7.31409H16.3379C16.9109 7.31409 17.375 7.81694 17.375 8.43788C17.375 9.02187 16.9503 9.51062 16.4089 9.55023C16.1114 9.57238 15.8847 9.84162 15.8847 10.1582C15.8847 10.6226 16.3087 10.6481 16.3087 11.3251C16.3087 11.8637 15.9533 12.3269 15.4639 12.4256C15.2608 12.4668 15.0048 12.67 15.0048 13.0256C15.0048 13.3641 15.2426 13.434 15.2426 13.9231C15.2426 15.1048 14.1348 14.7657 14.1348 15.5631C14.1348 15.6974 14.1765 15.7585 14.1765 15.9444C14.1758 16.5634 13.7117 17.0663 13.1387 17.0663H11.184C8.30082 17.0663 7.37656 14.6275 6.6875 14.6275C6.37556 14.6275 6.125 14.9015 6.125 15.2354C6.09336 15.8587 8.39609 18.2853 11.184 18.2853H13.1397C14.3319 18.2853 15.3018 17.2346 15.3018 15.9436C15.954 15.5299 16.3681 14.7627 16.3681 13.9223C16.3681 13.7396 16.3472 13.5568 16.3072 13.3787C16.986 12.978 17.4343 12.1989 17.4343 11.3239C17.4343 11.0489 17.3892 10.7788 17.3024 10.5247C18.0148 10.1407 18.5 9.34453 18.5 8.43788Z"
            fill="none" />
    </g>
</svg>