<svg xmlns="http://www.w3.org/2000/svg" width="100%" height="100%">
    <title>wire free comfort</title>
    <g id="Size_Fitting" data-name="Size &amp; Fitting" transform="translate(3.427 1.626)">
        <path id="Trazado_183" data-name="Trazado 183" d="M56.821,139.358s10.641-4.293,28.814.395"
            transform="translate(-40.106 -87.645)" fill="none" stroke="none" strokeLinecap="round"
            strokeLinejoin="round" strokeWidth="2.3" />
        <path id="Trazado_184" data-name="Trazado 184" d="M131.662,134.222l2.171,3.355-3.076,2.409"
            transform="translate(-88.302 -85.466)" fill="none" stroke="none" strokeLinecap="round"
            strokeLinejoin="round" strokeWidth="2.3" />
        <path id="Trazado_185" data-name="Trazado 185" d="M8.827,59.483s5.455-10.095,2.829-28.678"
            transform="translate(49.288 -14.844)" fill="none" stroke="none" strokeLinecap="round" strokeLinejoin="round"
            strokeWidth="2.3" />
        <path id="Trazado_186" data-name="Trazado 186" d="M7.829,33.338,4.738,30.806,2,33.592"
            transform="translate(56.207 -14.844)" fill="none" stroke="none" strokeLinecap="round" strokeLinejoin="round"
            strokeWidth="2.3" />
        <path id="Trazado_187" data-name="Trazado 187" d="M0,28.678S5.454,18.584,2.829,0"
            transform="translate(4.537 44.824) rotate(173.976)" fill="none" stroke="none" strokeLinecap="round"
            strokeLinejoin="round" strokeWidth="2.3" />
        <path id="Trazado_188" data-name="Trazado 188" d="M5.829,2.532,2.738,0,0,2.787"
            transform="translate(4.446 44.833) rotate(173.976)" fill="none" stroke="none" strokeLinecap="round"
            strokeLinejoin="round" strokeWidth="2.3" />
        <g id="Grupo_21" data-name="Grupo 21" transform="translate(9.088 0)">
            <path id="Trazado_66" data-name="Trazado 66"
                d="M206.767,348.919c.791-3.423,1.918-8.929,1.69-11.657-.22-2.652-1.629-5.405-2.761-7.617a21.953,21.953,0,0,1-1.466-3.23c-.343-1.145-.739-3.617-1.157-6.232a55.862,55.862,0,0,0-1.463-7.449c-.881-2.289-2.655-2.686-4.439-2.775H197.1c-1.952,0-5.666,4.432-5.705,4.477-.515.615-2.347,2.628-4.37,2.693-2.5.09-4.36-1.774-4.959-2.373a13.605,13.605,0,0,1-1.135-1.478c-.993-1.4-2.208-3.1-3.357-3.43a.8.8,0,0,0-.312-.057,6.468,6.468,0,0,0-4.472,1.848c-.49.544-.926,2.78-1.533,6.129-.272,1.5-.529,2.911-.744,3.678-.153.547-.6,1.779-1.172,3.339-1.581,4.332-4.227,11.582-4.32,14.686-.114,3.71,2.3,11.823,2.4,12.166a.955.955,0,0,0,.889.646h0c.164,0,4.052-1.426,18.217-1.426s18.468,1.666,18.636,1.673h.03a.9.9,0,0,0,.849-.652c.035-.136.325-1.247.692-2.829a.255.255,0,0,0,.032-.1A.091.091,0,0,0,206.767,348.919Z"
                transform="translate(-165.02 -309.79)" fill="none" stroke="none" strokeLinecap="round"
                strokeLinejoin="round" strokeWidth="2.3" />
            <path id="Trazado_67" data-name="Trazado 67"
                d="M202.8,340.168c0-.28-.009-7.275-.687-9.558-.652-2.2-1.973-5.069-3.33-6.155a6.916,6.916,0,0,0-2.617-1.169"
                transform="translate(-185.597 -318.706)" fill="none" stroke="none" strokeLinecap="round"
                strokeLinejoin="round" strokeWidth="2.3" />
            <path id="Trazado_68" data-name="Trazado 68"
                d="M250.935,322.568a6.727,6.727,0,0,0-3.452,2A14.317,14.317,0,0,0,244.059,331c-.51,2.55-.121,8.337-.1,8.807"
                transform="translate(-217.058 -318.232)" fill="none" stroke="none" strokeLinecap="round"
                strokeLinejoin="round" strokeWidth="2.3" />
            <path id="Trazado_69" data-name="Trazado 69"
                d="M197.828,309.794a7.106,7.106,0,0,0-1.435,2.211,15,15,0,0,0-.243,2.558,58.834,58.834,0,0,0,.492,7.5c.4,2.33,1.717,5.625,3.367,7.142,2.09,1.922,5.181,3.606,7.339,3.606s6.894-2.135,7.489-2.581c3.215-2.412,3.982-4.326,4.652-8.85a51.134,51.134,0,0,0-.262-9.22,10.257,10.257,0,0,0-1.3-2.19"
                transform="translate(-185.583 -309.794)" fill="none" stroke="none" strokeLinecap="round"
                strokeLinejoin="round" strokeWidth="2.3" />
        </g>
    </g>
</svg>