<svg xmlns="http://www.w3.org/2000/svg" width="100%" height="100%" viewBox="0 0 36 36">
  <title>Instagram solid</title>
  <path fillRule="evenodd" clipRule="evenodd"
    d="M18 0C22.8906 0 23.5008 0.018 25.4196 0.108C27.3366 0.198 28.6416 0.4986 29.79 0.945C30.978 1.4022 31.9788 2.0214 32.9796 3.0204C33.8949 3.92022 34.6031 5.00866 35.055 6.21C35.4996 7.3566 35.802 8.6634 35.892 10.5804C35.9766 12.4992 36 13.1094 36 18C36 22.8906 35.982 23.5008 35.892 25.4196C35.802 27.3366 35.4996 28.6416 35.055 29.79C34.6044 30.992 33.896 32.0807 32.9796 32.9796C32.0795 33.8946 30.9912 34.6027 29.79 35.055C28.6434 35.4996 27.3366 35.802 25.4196 35.892C23.5008 35.9766 22.8906 36 18 36C13.1094 36 12.4992 35.982 10.5804 35.892C8.6634 35.802 7.3584 35.4996 6.21 35.055C5.00819 34.604 3.91955 33.8957 3.0204 32.9796C2.10494 32.0799 1.39667 30.9914 0.945 29.79C0.4986 28.6434 0.198 27.3366 0.108 25.4196C0.0234 23.5008 0 22.8906 0 18C0 13.1094 0.018 12.4992 0.108 10.5804C0.198 8.6616 0.4986 7.3584 0.945 6.21C1.39543 5.00792 2.10384 3.91918 3.0204 3.0204C3.91981 2.10461 5.00837 1.39631 6.21 0.945C7.3584 0.4986 8.6616 0.198 10.5804 0.108C12.4992 0.0234 13.1094 0 18 0ZM18 9C13.0294 9 9 13.0294 9 18C9 22.9706 13.0294 27 18 27C22.9706 27 27 22.9706 27 18C27 13.0294 22.9706 9 18 9ZM29.7 8.55002C29.7 7.30737 28.6926 6.30002 27.45 6.30002C26.2073 6.30002 25.2 7.30737 25.2 8.55002C25.2 9.79267 26.2073 10.8 27.45 10.8C28.6926 10.8 29.7 9.79267 29.7 8.55002ZM18 12.6C20.9824 12.6 23.4 15.0177 23.4 18C23.4 20.9823 20.9824 23.4 18 23.4C15.0177 23.4 12.6 20.9823 12.6 18C12.6 15.0177 15.0177 12.6 18 12.6Z"
    fill="currentColor" />
</svg>