<svg xmlns="http://www.w3.org/2000/svg" width="100%" height="100%" viewBox="0 0 109 115">
  <title>Interaction</title>
  <path
    d="M95.8363 0H90.892C88.7186 0 88.7186 3.36963 90.892 3.36963H95.8363C100.942 3.36963 105.097 7.50888 105.097 12.5966V51.5881C105.097 56.676 100.943 60.8153 95.8363 60.8153H90.2286C89.8586 60.8153 89.499 60.937 89.2049 61.1619L78.915 69.0329V62.5001C78.915 61.5696 78.1608 60.8153 77.2301 60.8153H56.7248C55.0456 60.8153 53.4318 60.3721 52.0085 59.5294V40.6164C52.0085 37.0738 50.2042 33.9438 47.4642 32.0921V12.5966C47.4642 7.50888 51.6185 3.36963 56.7248 3.36963H80.3338C82.507 3.36963 82.507 0 80.3338 0H56.7248C49.7605 0 44.0946 5.65087 44.0946 12.5966V30.6113C43.3232 30.4271 42.5194 30.3267 41.6922 30.3267H10.8498C5.16166 30.3267 0.533813 34.9426 0.533813 40.6164V44.2544C0.533813 46.4276 3.90344 46.4276 3.90344 44.2544V40.6164C3.90344 36.8006 7.01945 33.6963 10.8498 33.6963H41.6925C45.5228 33.6963 48.6391 36.8006 48.6391 40.6164V60.2002C48.6189 60.3489 48.6198 60.4987 48.6391 60.6463V71.3644C48.6391 71.5763 48.6263 71.7872 48.6072 71.997H45.1326C41.3041 71.997 38.1124 74.7604 37.4506 78.3921C37.2974 78.4499 37.1502 78.5305 37.0139 78.6357L29.4782 84.4541V79.9694C29.4782 79.0389 28.7241 78.2845 27.7934 78.2845H10.8498C7.01945 78.2845 3.90344 75.1802 3.90344 71.3644V54.3633C3.90344 52.1901 0.533813 52.1901 0.533813 54.3633V71.3647C0.533813 77.0385 5.16166 81.6544 10.8498 81.6544H26.1088V87.8837C26.1088 89.2352 27.7498 90.0459 28.8234 89.2174L37.3227 82.655V101.609C37.3227 105.905 40.8265 109.4 45.1329 109.4H55.472V113.332C55.472 114.683 57.113 115.494 58.1864 114.666L65.0056 109.4H67.0202C71.3266 109.4 74.8303 105.905 74.8303 101.609V98.6178C74.8303 96.4446 71.4607 96.4446 71.4607 98.6178V101.609C71.4607 104.047 69.4688 106.031 67.0202 106.031H64.4307C64.058 106.031 63.6959 106.154 63.4012 106.382L58.8414 109.902V107.715C58.8414 106.785 58.0873 106.031 57.1566 106.031H45.1326C42.6843 106.031 40.6921 104.047 40.6921 101.609V79.7885C40.6921 77.3503 42.684 75.3669 45.1326 75.3669H67.0202C69.4685 75.3669 71.4607 77.3505 71.4607 79.7885V88.0596C71.4607 90.2328 74.8303 90.2328 74.8303 88.0596V79.7887C74.8303 75.4925 71.3266 71.9975 67.0202 71.9975H51.9894C52.0022 71.787 52.0087 63.2773 52.0087 63.2773C53.4943 63.8747 55.087 64.1851 56.7251 64.1851H75.5456V72.443C75.5456 73.791 77.1796 74.6027 78.2541 73.7811L90.7994 64.1851H95.8366C102.801 64.1851 108.467 58.5343 108.467 51.5883V12.5966C108.466 5.65087 102.8 0 95.8363 0V0Z"
    fill="currentColor" />
  <path
    d="M80.4903 12.4478C78.3511 11.9017 76.1712 13.5919 76.1712 15.8024C76.1712 18.2175 75.291 20.545 73.694 22.355L69.052 27.6078C68.7515 27.1466 68.2321 26.8413 67.6406 26.8413H58.5786C57.6479 26.8413 56.8937 27.5957 56.8937 28.5261V48.9157C56.8937 49.8462 57.6479 50.6006 58.5786 50.6006H67.6406C68.3215 50.6006 68.9065 50.196 69.1722 49.6151C71.0069 50.736 73.1329 51.3421 75.2959 51.3421H91.3111C93.7584 51.3421 95.7772 49.2186 95.6624 46.7776C95.6114 45.6966 95.6671 31.1818 95.6671 30.8595C95.6671 28.4576 93.713 26.5032 91.3161 26.5032L82.9879 26.4783L83.3327 25.6617C84.9086 21.9297 84.6491 17.6022 82.6395 14.085C82.1704 13.2633 81.4069 12.6821 80.4903 12.4478C81.4069 12.6821 79.5734 12.2138 80.4903 12.4478C81.4069 12.6821 78.3513 11.9017 80.4903 12.4478ZM65.9558 47.2309H60.2634V30.2109H65.9558V47.2309ZM91.3111 29.8726C91.8552 29.8726 92.2977 30.3152 92.2977 30.8593C92.2977 31.1798 92.2944 32.0499 92.2899 33.2294C92.2649 39.7423 92.2483 45.9105 92.2964 46.9357C92.3139 47.3057 92.134 47.5524 92.0253 47.6665C91.837 47.8637 91.5834 47.9722 91.3111 47.9722H75.2959C73.3869 47.9722 71.5186 47.3107 70.0346 46.1095L69.3254 45.5353V32.3868L76.2199 24.5852C78.3614 22.1582 79.5408 19.039 79.5408 15.8022C79.5408 15.7069 79.6709 15.6822 79.714 15.7564C81.2061 18.3674 81.3983 21.58 80.2286 24.3505L78.899 27.4997C78.6795 28.0193 78.7348 28.614 79.0454 29.0844C79.3566 29.5548 79.8822 29.8383 80.4459 29.8401L91.3111 29.8726Z"
    fill="currentColor" />
  <path
    d="M14.9603 58.5187C14.0296 58.5187 13.2755 59.2731 13.2755 60.2035C13.2755 61.134 14.0296 61.8883 14.9603 61.8883H19.9267L18.9989 67.4997C18.8471 68.4176 19.4684 69.2849 20.3863 69.4368C20.4795 69.4523 20.5719 69.4597 20.6631 69.4597C21.4727 69.4597 22.1868 68.8745 22.3234 68.0494L23.3419 61.8886H27.4064L26.4786 67.4999C26.3267 68.4178 26.9481 69.2851 27.866 69.437C27.9592 69.4525 28.0515 69.4599 28.1427 69.4599C28.9523 69.4599 29.6665 68.8747 29.8031 68.0496L30.8216 61.8888H37.5817C38.5124 61.8888 39.2665 61.1344 39.2665 60.204C39.2665 59.2735 38.5124 58.5192 37.5817 58.5192H31.3787L32.0582 54.4091H37.5817C38.5124 54.4091 39.2665 53.6548 39.2665 52.7243C39.2665 51.7938 38.5124 51.0395 37.5817 51.0395H32.6154L33.5431 45.4282C33.695 44.5103 33.0736 43.6429 32.1557 43.4911C31.2367 43.3388 30.3705 43.9606 30.2186 44.8785L29.2001 51.0393H25.1357L26.0634 45.4279C26.2153 44.51 25.5939 43.6427 24.6761 43.4908C23.7559 43.3385 22.8911 43.9603 22.739 44.8782L21.7204 51.039H14.9603C14.0296 51.039 13.2755 51.7934 13.2755 52.7239C13.2755 53.6543 14.0296 54.4087 14.9603 54.4087H21.1633L20.4838 58.5187H14.9603ZM24.5788 54.4087H28.6432L27.9637 58.5187H23.8992L24.5788 54.4087Z"
    fill="currentColor" />
  <path
    d="M56.0561 84.0601C54.6956 82.94 52.8857 82.4981 51.0701 82.9395C48.7435 83.5045 46.3958 85.6795 46.3958 89.2646C46.3958 91.4959 47.2101 93.4328 48.8853 95.1859C50.2536 96.618 52.2282 97.9798 55.2873 99.6017C55.5342 99.7326 55.8054 99.798 56.0765 99.798C56.3476 99.798 56.6188 99.7326 56.8657 99.6017C62.2027 96.7723 65.757 93.9317 65.757 89.2646C65.757 85.66 63.3259 83.5072 60.9164 82.9728C59.1062 82.5711 57.3513 82.9975 56.0561 84.0601ZM62.3871 89.2646C62.3871 91.7819 60.7174 93.6435 56.0763 96.1984C51.4352 93.6433 49.7652 91.7817 49.7652 89.2646C49.7652 87.3915 50.8498 86.4606 51.8649 86.2139C52.052 86.1685 52.2524 86.1429 52.4584 86.1429C53.222 86.1429 54.0615 86.4956 54.579 87.4991C54.874 88.0701 55.4702 88.4242 56.1097 88.4109C56.752 88.3981 57.3314 88.0212 57.6029 87.4389C58.1482 86.2703 59.2947 86.0648 60.1861 86.2627C61.2505 86.4983 62.3871 87.411 62.3871 89.2646Z"
    fill="currentColor" />
</svg>