<svg xmlns="http://www.w3.org/2000/svg" width="100%" height="100%" viewBox="0 0 38 38">
  <title>pinterest</title>
  <path
    d="M38 19C38 29.496 29.496 38 19 38C17.0387 38 15.154 37.7012 13.3766 37.1496C14.1504 35.8855 15.3073 33.8169 15.7363 32.1698C15.9661 31.281 16.9161 27.6496 16.9161 27.6496C17.5367 28.8294 19.3448 29.8331 21.2677 29.8331C26.9984 29.8331 31.1278 24.5621 31.1278 18.0117C31.1278 11.7371 26.0024 7.04073 19.4137 7.04073C11.2161 7.04073 6.85685 12.5415 6.85685 18.5403C6.85685 21.329 8.34315 24.7996 10.7105 25.9028C11.0706 26.0714 11.2621 25.9948 11.3464 25.65C11.4077 25.3895 11.7294 24.0948 11.875 23.4972C11.921 23.3056 11.898 23.1371 11.7448 22.9532C10.971 21.9956 10.3427 20.2488 10.3427 18.6169C10.3427 14.4262 13.5145 10.3734 18.9234 10.3734C23.5891 10.3734 26.8605 13.5528 26.8605 18.1036C26.8605 23.2444 24.2633 26.8069 20.8847 26.8069C19.023 26.8069 17.621 25.2669 18.073 23.3746C18.6093 21.1145 19.6435 18.6782 19.6435 17.0464C19.6435 15.5907 18.8621 14.3726 17.2379 14.3726C15.3302 14.3726 13.798 16.3415 13.798 18.9847C13.798 20.6702 14.3649 21.804 14.3649 21.804C14.3649 21.804 12.4879 29.7565 12.1431 31.2427C11.7601 32.8823 11.9133 35.196 12.0742 36.6976C5.01048 33.9319 0 27.052 0 19C0 8.50403 8.50403 0 19 0C29.496 0 38 8.50403 38 19Z"
    fill="currentColor" />
</svg>