<svg xmlns="http://www.w3.org/2000/svg" width="100%" height="100%">
  <title>twitter</title>
  <path
    d="M34.094 7.72575C34.1181 8.0648 34.1181 8.40392 34.1181 8.74297C34.1181 19.0843 26.2819 31 11.9594 31C7.54696 31 3.44799 29.7163 0 27.4883C0.626928 27.5609 1.22966 27.5852 1.88071 27.5852C5.52153 27.5852 8.87311 26.35 11.5495 24.243C8.12565 24.1703 5.25634 21.918 4.26774 18.818C4.75002 18.8906 5.23222 18.939 5.73862 18.939C6.43783 18.939 7.13713 18.8421 7.7881 18.6727C4.21957 17.946 1.54309 14.7976 1.54309 10.9953V10.8985C2.57985 11.4797 3.78554 11.843 5.06337 11.8914C2.96564 10.4867 1.59133 8.08903 1.59133 5.37651C1.59133 3.92341 1.97705 2.59138 2.65222 1.42887C6.486 6.17574 12.2487 9.27569 18.7106 9.61481C18.5901 9.03356 18.5177 8.42815 18.5177 7.82267C18.5177 3.51168 21.9898 0 26.3058 0C28.5482 0 30.5736 0.944529 31.9962 2.47031C33.7563 2.13127 35.4441 1.47733 36.9391 0.581254C36.3604 2.3977 35.1307 3.92348 33.5152 4.89217C35.0825 4.72272 36.6016 4.28668 38 3.68128C36.9393 5.23121 35.613 6.61163 34.094 7.72575Z"
    fill="currentColor" />
</svg>