<svg xmlns="http://www.w3.org/2000/svg" width="100%" height="100%" viewBox="0 0 40 28">
  <title>twitter</title>
  <path
    d="M39.1642 4.38105C38.7041 2.65657 37.3487 1.29843 35.6277 0.837521C32.5084 0 20 0 20 0C20 0 7.49171 0 4.37226 0.837521C2.65129 1.2985 1.29587 2.65657 0.835839 4.38105C0 7.50677 0 14.0283 0 14.0283C0 14.0283 0 20.5498 0.835839 23.6755C1.29587 25.4 2.65129 26.7016 4.37226 27.1625C7.49171 28 20 28 20 28C20 28 32.5083 28 35.6277 27.1625C37.3487 26.7016 38.7041 25.4 39.1642 23.6755C40 20.5498 40 14.0283 40 14.0283C40 14.0283 40 7.50677 39.1642 4.38105ZM15.9091 19.9493V8.10724L26.3636 14.0284L15.9091 19.9493Z"
    fill="currentColor" />
</svg>