<svg xmlns="http://www.w3.org/2000/svg" width="100%" height="100%">
    <title>circle plus</title>
    <path
        d="M20 1C9.51505 1 1 9.51505 1 20C1 30.4849 9.51505 39 20 39C30.4849 39 39 30.4849 39 20C39 9.51505 30.4849 1 20 1ZM20 37.0936C10.5953 37.0936 2.90635 29.4682 2.90635 20C2.90635 10.5953 10.5953 2.90635 20 2.90635C29.4047 2.90635 37.0936 10.5953 37.0936 20C37.0936 29.4682 29.4682 37.0936 20 37.0936Z"
        fill="none" />
    <path
        d="M20 12C19.3144 12 18.7586 12.5558 18.7586 13.2414V18.7586H13.2414C12.5558 18.7586 12 19.3144 12 20C12 20.6856 12.5558 21.2414 13.2414 21.2414H18.7586V26.7586C18.7586 27.4442 19.3144 28 20 28C20.6856 28 21.2414 27.4442 21.2414 26.7586V21.2414H26.7586C27.4442 21.2414 28 20.6856 28 20C28 19.3144 27.4442 18.7586 26.7586 18.7586H21.2414V13.2414C21.2414 12.5558 20.6856 12 20 12Z"
        fill="none" />
</svg>