<svg xmlns="http://www.w3.org/2000/svg" width="100%" height="100%">
    <title>circle check</title>
    <path
        d="M20 1C9.51505 1 1 9.51505 1 20C1 30.4849 9.51505 39 20 39C30.4849 39 39 30.4849 39 20C39 9.51505 30.4849 1 20 1ZM20 37.0936C10.5953 37.0936 2.90635 29.4682 2.90635 20C2.90635 10.5953 10.5953 2.90635 20 2.90635C29.4047 2.90635 37.0936 10.5953 37.0936 20C37.0936 29.4682 29.4682 37.0936 20 37.0936Z"
        fill="none" />
    <path
        d="M26.7933 14.3293L16.8413 24.339L13.2933 20.6512C12.7740 20.2122 11.9087 20.2122 11.3894 20.6512C10.8702 21.0902 10.8702 21.9683 11.3894 22.4951L15.9760 27.1488C16.2356 27.4122 16.5817 27.5 16.9279 27.5C17.2740 27.5 17.6202 27.4122 17.7933 27.1488L28.6106 16.1732C29.1298 15.6463 29.1298 14.8561 28.6106 14.3293C28.0913 13.8902 27.3125 13.8902 26.7933 14.3293Z"
        fill="none" />
</svg>