<svg xmlns="http://www.w3.org/2000/svg" width="100%" height="100%">
    <title>circle solid plus</title>
    <path fillRule="evenodd" clipRule="evenodd"
        d="M20 1C9.50659 1 1 9.50659 1 20C1 30.4934 9.50659 39 20 39C30.4934 39 39 30.4934 39 20C39 9.50659 30.4934 1 20 1ZM18.7586 13.2414C18.7586 12.5558 19.3144 12 20 12C20.6856 12 21.2414 12.5558 21.2414 13.2414V18.7586H26.7586C27.4442 18.7586 28 19.3144 28 20C28 20.6856 27.4442 21.2414 26.7586 21.2414H21.2414V26.7586C21.2414 27.4442 20.6856 28 20 28C19.3144 28 18.7586 27.4442 18.7586 26.7586V21.2414H13.2414C12.5558 21.2414 12 20.6856 12 20C12 19.3144 12.5558 18.7586 13.2414 18.7586H18.7586V13.2414Z"
        fill="none" />
</svg>