<svg xmlns="http://www.w3.org/2000/svg" width="100%" height="100%">
    <title>circle solid warning</title>
    <path fillRule="evenodd" clipRule="evenodd"
        d="M20 1C9.50659 1 1 9.50659 1 20C1 30.4934 9.50659 39 20 39C30.4934 39 39 30.4934 39 20C39 9.50659 30.4934 1 20 1ZM21.7209 10.625C21.7293 10.295 21.4986 10 21.1827 10H18.8239C18.508 10 18.2773 10.295 18.2858 10.625L18.2858 10.627L18.7841 22.6135C18.7931 22.9268 19.0249 23.1997 19.3223 23.1997H20.6844C20.9802 23.1997 21.2136 22.9361 21.2225 22.6134L21.7209 10.625ZM22 27.8818C22 26.6127 21.1026 25.7635 20 25.7635C18.8974 25.7635 18 26.6127 18 27.8818C18 29.1509 18.8974 30 20 30C21.1026 30 22 29.1509 22 27.8818Z"
        fill="none" />
</svg>