<svg xmlns="http://www.w3.org/2000/svg" width="100%" height="100%" fill="none">
    <title>copy</title>
    <path
        d="M8 14.9998C7.54167 14.9998 7.14944 14.8368 6.82333 14.5107C6.49667 14.184 6.33333 13.7915 6.33333 13.3332V3.33317C6.33333 2.87484 6.49667 2.48234 6.82333 2.15567C7.14944 1.82956 7.54167 1.6665 8 1.6665H15.5C15.9583 1.6665 16.3508 1.82956 16.6775 2.15567C17.0036 2.48234 17.1667 2.87484 17.1667 3.33317V13.3332C17.1667 13.7915 17.0036 14.184 16.6775 14.5107C16.3508 14.8368 15.9583 14.9998 15.5 14.9998H8ZM8 13.3332H15.5V3.33317H8V13.3332ZM4.66667 18.3332C4.20833 18.3332 3.81583 18.1701 3.48917 17.844C3.16306 17.5173 3 17.1248 3 16.6665V5.83317C3 5.59706 3.08 5.399 3.24 5.239C3.39944 5.07956 3.59722 4.99984 3.83333 4.99984C4.06944 4.99984 4.2675 5.07956 4.4275 5.239C4.58694 5.399 4.66667 5.59706 4.66667 5.83317V16.6665H13C13.2361 16.6665 13.4342 16.7465 13.5942 16.9065C13.7536 17.0659 13.8333 17.2637 13.8333 17.4998C13.8333 17.7359 13.7536 17.9337 13.5942 18.0932C13.4342 18.2532 13.2361 18.3332 13 18.3332H4.66667ZM8 3.33317V13.3332V3.33317Z"
        fill="none" />
</svg>