<svg xmlns="http://www.w3.org/2000/svg" width="100%" height="100%">
    <title>not Allowed</title>
    <path
        d="M32.0292 28.8111C32.0292 28.8111 32.0291 28.8111 32.0292 28.8111C32.4746 28.2051 32.869 27.5717 33.2118 26.9172L32.0292 28.8111Z"
        fill="none" />
    <path fillRule="evenodd" clipRule="evenodd"
        d="M2 20C2 10.0588 10.0588 2 20 2C29.9412 2 38 10.0588 38 20C38 29.9412 29.9412 38 20 38C10.0588 38 2 29.9412 2 20ZM10.0669 8.22486L31.7751 29.9331L32.114 29.5028C36.8163 23.5321 36.519 14.7473 30.8858 9.11416C25.2542 3.48246 16.4698 3.18221 10.4972 7.88597L10.0669 8.22486ZM29.9331 31.7751L8.22486 10.0669L7.88597 10.4972C3.18368 16.4679 3.48098 25.2527 9.11416 30.8858C14.7458 36.5175 23.5302 36.8178 29.5028 32.114L29.9331 31.7751Z"
        fill="none" />
</svg>