<svg xmlns="http://www.w3.org/2000/svg" width="100%" height="100%" viewBox="0 0 40 40" id="check_box_solid">
  <title>checkbox solid</title>
  <path fillRule="evenodd" clipRule="evenodd"
    d="M6 2C3.79086 2 2 3.79086 2 6V34C2 36.2091 3.79086 38 6 38H34C36.2091 38 38 36.2091 38 34V6C38 3.79086 36.2091 2 34 2H6ZM16.1394 24.2537L28.3029 12.3902C28.9375 11.8699 29.8894 11.8699 30.524 12.3902C31.1587 13.0146 31.1587 13.9512 30.524 14.5756L17.3029 27.5837C17.0913 27.8959 16.6683 28 16.2452 28C15.8221 28 15.399 27.8959 15.0817 27.5837L9.47596 22.0683C8.84135 21.4439 8.84135 20.4033 9.47596 19.8829C10.1106 19.3626 11.1683 19.3626 11.8029 19.8829L16.1394 24.2537Z"
    fill="currentColor" />
</svg>