<svg xmlns="http://www.w3.org/2000/svg" width="100%" height="100%" viewBox="0 0 40 40">
    <title>circle question</title>
    <path
        d="M20 26.0968C18.8776 26.0968 17.9677 27.0066 17.9677 28.129C17.9677 29.2514 18.8776 30.1613 20 30.1613C21.1224 30.1613 22.0323 29.2514 22.0323 28.129C22.0323 27.0066 21.1224 26.0968 20 26.0968ZM20.5567 24.3548H19.3954C18.9144 24.3548 18.5244 23.9649 18.5244 23.4839V23.4562C18.5244 18.3507 24.1451 18.8387 24.1451 15.6605C24.1451 14.2077 22.856 12.7419 19.976 12.7419C17.8608 12.7419 16.7633 13.4423 15.6785 14.8244C15.3948 15.1859 14.8762 15.2595 14.4992 14.9969L13.5459 14.3328C13.1376 14.0483 13.048 13.4784 13.3539 13.086C14.8945 11.1099 16.7224 9.83871 19.976 9.83871C23.7735 9.83871 27.0483 11.9981 27.0483 15.6605C27.0483 20.5534 21.4277 20.2947 21.4277 23.4562V23.4839C21.4277 23.9649 21.0377 24.3548 20.5567 24.3548ZM20 4.32258C28.6096 4.32258 35.6774 11.2958 35.6774 20C35.6774 28.6582 28.6654 35.6774 20 35.6774C11.3452 35.6774 4.32258 28.6689 4.32258 20C4.32258 11.3482 11.334 4.32258 20 4.32258ZM20 2C10.0596 2 2 10.0625 2 20C2 29.9433 10.0596 38 20 38C29.9404 38 38 29.9433 38 20C38 10.0625 29.9404 2 20 2Z"
        fill="currentColor" />
</svg>