<svg xmlns="http://www.w3.org/2000/svg" width="100%" height="100%" viewBox="0 0 40 40" id="circle_clear">
    <title>circle clear</title>
    <path
        d="M26.6938 24.5698L22.1199 19.9886L26.5823 15.5192C27.0285 15.0723 27.1401 14.4019 26.8054 13.8432C26.3592 13.0611 25.2436 12.9493 24.6858 13.508L20.1119 18.0891L15.3148 13.3963C14.8686 12.9493 13.9761 12.8376 13.4183 13.2845C12.8606 13.8432 12.8606 14.7371 13.4183 15.2958L18.1038 19.9886L13.5299 24.5698C13.0837 25.0167 12.9721 25.6871 13.3068 26.2458C13.7530 27.0279 14.8686 27.1397 15.4264 26.581L20.0003 21.9999L24.5742 26.581C25.1320 27.1397 25.9129 27.1397 26.4707 26.581C27.0285 26.0223 27.1401 25.1284 26.6938 24.5698Z"
        fill="currentColor" />
    <path
        d="M20 1C9.51505 1 1 9.51505 1 20C1 30.4849 9.51505 39 20 39C30.4849 39 39 30.4849 39 20C39 9.51505 30.4849 1 20 1ZM20 37.0936C10.5953 37.0936 2.90635 29.4682 2.90635 20C2.90635 10.5953 10.5953 2.90635 20 2.90635C29.4047 2.90635 37.0936 10.5953 37.0936 20C37.0936 29.4682 29.4682 37.0936 20 37.0936Z"
        fill="currentColor" />
</svg>