<svg xmlns="http://www.w3.org/2000/svg" width="100%" height="100%" viewBox="0 0 40 40">
    <title>circle minus</title>
    <path
        d="M20 1C9.51505 1 1 9.51505 1 20C1 30.4849 9.51505 39 20 39C30.4849 39 39 30.4849 39 20C39 9.51505 30.4849 1 20 1ZM20 37.0936C10.5953 37.0936 2.90635 29.4682 2.90635 20C2.90635 10.5953 10.5953 2.90635 20 2.90635C29.4047 2.90635 37.0936 10.5953 37.0936 20C37.0936 29.4682 29.4682 37.0936 20 37.0936Z"
        fill="currentColor" />
    <rect x="11" y="22" width="3" height="18" rx="1.5" transform="rotate(-90 11 22)" fill="currentColor" />
</svg>