<svg xmlns="http://www.w3.org/2000/svg" width="100%" height="100%" viewBox="0 0 40 40" id="circle_solid_clear">
  <title>circle solid clear</title>
  <path fill-rule="evenodd" clip-rule="evenodd"
    d="M20 1C9.50659 1 1 9.50659 1 20C1 30.4934 9.50659 39 20 39C30.4934 39 39 30.4934 39 20C39 9.50659 30.4934 1 20 1ZM22.1199 19.9886L26.6938 24.5698C27.1401 25.1284 27.0285 26.0223 26.4707 26.581C25.9129 27.1397 25.132 27.1397 24.5742 26.581L20.0003 21.9999L15.4264 26.581C14.8686 27.1397 13.753 27.0279 13.3068 26.2458C12.9721 25.6871 13.0837 25.0167 13.5299 24.5698L18.1038 19.9886L13.4183 15.2958C12.8606 14.7371 12.8606 13.8432 13.4183 13.2845C13.9761 12.8376 14.8686 12.9493 15.3148 13.3963L20.1119 18.0891L24.6858 13.508C25.2436 12.9493 26.3592 13.0611 26.8054 13.8432C27.1401 14.4019 27.0285 15.0723 26.5823 15.5192L22.1199 19.9886Z"
    fill="currentColor" />
</svg>