<svg xmlns="http://www.w3.org/2000/svg" width="24" height="25" viewBox="0 0 24 25" fill="currentColor">
  <circle cx="12" cy="12.3114" r="12" fill="currentColor"/>
  <path fill-rule="evenodd" clip-rule="evenodd" d="M15.836 7.32991C13.5143 5.46885 10.0872 5.50002 7.79722 7.53877C6.11535 9.0351 5.40586 11.3139 5.93798 13.4836C5.99499 13.708 5.85246 13.9356 5.62441 13.9917C5.58957 14.0011 5.5579 14.0042 5.52305 14.0042C5.32985 14.0042 5.15564 13.8764 5.10813 13.6831C4.5 11.2141 5.31084 8.6205 7.22393 6.9153C8.6144 5.6746 10.4166 5.04177 12.2917 5.13529C13.8057 5.21011 15.2215 5.74629 16.3713 6.67215L16.3048 4.94825C16.2953 4.71445 16.479 4.52117 16.7165 4.51182C16.9509 4.50247 17.1505 4.68328 17.16 4.91708L17.2645 7.66659V7.6697V7.68529V7.71646C17.2645 7.94403 17.0839 8.12795 16.8527 8.13731L14.0274 8.24018H14.0116C13.7835 8.24018 13.5935 8.06249 13.584 7.83492C13.5745 7.60112 13.7582 7.40785 13.9958 7.39849L15.836 7.32991ZM18.3762 10.6816C18.6042 10.6257 18.8354 10.7653 18.8925 10.9885C19.5006 13.4475 18.6897 16.0244 16.7767 17.7206C15.4717 18.8741 13.812 19.5005 12.0668 19.5005C11.9496 19.5005 11.8292 19.4974 11.7089 19.4912C10.2044 19.4167 8.79489 18.8865 7.64514 17.9748L7.79717 19.6524C7.81934 19.885 7.64513 20.0865 7.41075 20.1082C7.39808 20.1113 7.38541 20.1113 7.37274 20.1113C7.15419 20.1113 6.96732 19.947 6.94831 19.7299L6.69493 16.9732C6.67275 16.7407 6.84696 16.5391 7.08134 16.5174L9.89713 16.2693C10.1347 16.2476 10.3406 16.4151 10.3627 16.6476C10.3849 16.8802 10.2107 17.0818 9.97632 17.1035L8.1139 17.2678C9.24782 18.1919 10.6541 18.6601 12.0636 18.6601C13.5396 18.6601 15.0219 18.1454 16.2034 17.1004C17.8852 15.612 18.5979 13.3452 18.0626 11.187C18.0056 10.9637 18.1481 10.7374 18.3762 10.6816Z" fill="currentColor"/>
  <path d="M7.79722 7.53877L7.9634 7.72555L7.96346 7.7255L7.79722 7.53877ZM15.836 7.32991L15.8453 7.57974L16.5162 7.55474L15.9924 7.13485L15.836 7.32991ZM5.93798 13.4836L5.69517 13.5431L5.69567 13.5451L5.93798 13.4836ZM5.62441 13.9917L5.56467 13.7489L5.5596 13.7502L5.62441 13.9917ZM5.10813 13.6831L5.3509 13.6234L5.35087 13.6233L5.10813 13.6831ZM7.22393 6.9153L7.39028 7.10193L7.39038 7.10184L7.22393 6.9153ZM12.2917 5.13529L12.2793 5.38498L12.2794 5.38499L12.2917 5.13529ZM16.3713 6.67215L16.2145 6.86687L16.6423 7.21135L16.6211 6.66251L16.3713 6.67215ZM16.3048 4.94825L16.5546 4.93861L16.5546 4.9381L16.3048 4.94825ZM16.7165 4.51182L16.7264 4.76163L16.7265 4.76162L16.7165 4.51182ZM17.16 4.91708L17.4098 4.90758L17.4098 4.90693L17.16 4.91708ZM17.2645 7.66659H17.5147L17.5143 7.65709L17.2645 7.66659ZM16.8527 8.13731L16.8618 8.38714L16.8628 8.3871L16.8527 8.13731ZM14.0274 8.24018V8.49034L14.0365 8.49001L14.0274 8.24018ZM13.584 7.83492L13.3342 7.84507L13.3342 7.84535L13.584 7.83492ZM13.9958 7.39849L13.9864 7.14867L13.9859 7.14869L13.9958 7.39849ZM18.8925 10.9885L19.1351 10.9285L19.1347 10.9267L18.8925 10.9885ZM18.3762 10.6816L18.3167 10.4387V10.4387L18.3762 10.6816ZM16.7767 17.7206L16.9422 17.9079L16.9425 17.9076L16.7767 17.7206ZM11.7089 19.4912L11.7217 19.2415L11.7212 19.2415L11.7089 19.4912ZM7.64514 17.9748L7.80046 17.7789L7.34352 17.4166L7.39616 17.9974L7.64514 17.9748ZM7.79717 19.6524L7.54819 19.675L7.5483 19.6761L7.79717 19.6524ZM7.41075 20.1082L7.3877 19.8593L7.36929 19.861L7.35133 19.8654L7.41075 20.1082ZM6.94831 19.7299L7.19736 19.7081L7.19726 19.707L6.94831 19.7299ZM6.69493 16.9732L6.94388 16.9504L6.9438 16.9495L6.69493 16.9732ZM7.08134 16.5174L7.0594 16.2684L7.05829 16.2685L7.08134 16.5174ZM9.89713 16.2693L9.91907 16.5184L9.91988 16.5183L9.89713 16.2693ZM9.97632 17.1035L9.99829 17.3525L9.99937 17.3524L9.97632 17.1035ZM8.1139 17.2678L8.09193 17.0188L7.47895 17.0729L7.95597 17.4616L8.1139 17.2678ZM16.2034 17.1004L16.369 17.2876L16.369 17.2876L16.2034 17.1004ZM18.0626 11.187L18.3053 11.1268L18.3048 11.1251L18.0626 11.187ZM7.96346 7.7255C10.1608 5.76927 13.4514 5.73886 15.6796 7.52498L15.9924 7.13485C13.5772 5.19884 10.0137 5.23077 7.63099 7.35205L7.96346 7.7255ZM6.18078 13.424C5.67084 11.3447 6.3504 9.16061 7.9634 7.72555L7.63105 7.352C5.88031 8.9096 5.14089 11.283 5.69517 13.5431L6.18078 13.424ZM5.68414 14.2345C6.04023 14.1468 6.27315 13.7876 6.18028 13.422L5.69567 13.5451C5.71683 13.6284 5.66469 13.7243 5.56468 13.7489L5.68414 14.2345ZM5.52305 14.2542C5.57464 14.2542 5.6288 14.2494 5.68922 14.2332L5.5596 13.7502C5.55034 13.7527 5.54115 13.7542 5.52305 13.7542V14.2542ZM4.86536 13.7428C4.94172 14.0534 5.22064 14.2542 5.52305 14.2542V13.7542C5.43905 13.7542 5.36956 13.6993 5.3509 13.6234L4.86536 13.7428ZM7.05758 6.72868C5.07603 8.4949 4.23488 11.1831 4.86538 13.7429L5.35087 13.6233C4.76512 11.2452 5.54565 8.74609 7.39028 7.10193L7.05758 6.72868ZM12.3042 4.8856C10.3641 4.78884 8.49741 5.44394 7.05748 6.72877L7.39038 7.10184C8.7314 5.90525 10.4692 5.29471 12.2793 5.38498L12.3042 4.8856ZM16.5281 6.47743C15.3364 5.51781 13.8698 4.96297 12.3041 4.8856L12.2794 5.38499C13.7417 5.45725 15.1067 5.97478 16.2145 6.86687L16.5281 6.47743ZM16.055 4.95789L16.1215 6.68179L16.6211 6.66251L16.5546 4.93861L16.055 4.95789ZM16.7067 4.26202C16.3368 4.27658 16.0396 4.58088 16.055 4.9584L16.5546 4.9381C16.5509 4.84802 16.6212 4.76577 16.7264 4.76163L16.7067 4.26202ZM17.4098 4.90693C17.3945 4.53241 17.076 4.24728 16.7066 4.26202L16.7265 4.76162C16.8258 4.75766 16.9064 4.83414 16.9102 4.92723L17.4098 4.90693ZM17.5143 7.65709L17.4098 4.90758L16.9101 4.92657L17.0147 7.67608L17.5143 7.65709ZM17.5145 7.6697V7.66659H17.0145V7.6697H17.5145ZM17.5145 7.68529V7.6697H17.0145V7.68529H17.5145ZM17.5145 7.71646V7.68529H17.0145V7.71646H17.5145ZM16.8628 8.3871C17.2235 8.37251 17.5145 8.08267 17.5145 7.71646H17.0145C17.0145 7.80539 16.9444 7.8834 16.8426 7.88751L16.8628 8.3871ZM14.0365 8.49001L16.8618 8.38714L16.8436 7.88747L14.0183 7.99034L14.0365 8.49001ZM14.0116 8.49018H14.0274V7.99018H14.0116V8.49018ZM13.3342 7.84535C13.3495 8.2105 13.6533 8.49018 14.0116 8.49018V7.99018C13.9138 7.99018 13.8375 7.91448 13.8338 7.82449L13.3342 7.84535ZM13.9859 7.14869C13.616 7.16325 13.3189 7.46755 13.3342 7.84507L13.8338 7.82477C13.8301 7.73469 13.9004 7.65244 14.0056 7.6483L13.9859 7.14869ZM15.8267 7.08008L13.9864 7.14867L14.0051 7.64832L15.8453 7.57974L15.8267 7.08008ZM19.1347 10.9267C19.0435 10.5697 18.6771 10.3505 18.3167 10.4387L18.4356 10.9244C18.5314 10.9009 18.6274 10.9608 18.6502 11.0504L19.1347 10.9267ZM16.9425 17.9076C18.9242 16.1506 19.7659 13.4789 19.1351 10.9285L18.6498 11.0486C19.2353 13.4161 18.4552 15.8982 16.6108 17.5335L16.9425 17.9076ZM12.0668 19.7505C13.8727 19.7505 15.5914 19.102 16.9422 17.9079L16.6111 17.5332C15.352 18.6462 13.7513 19.2505 12.0668 19.2505V19.7505ZM11.696 19.7408C11.8206 19.7472 11.9452 19.7505 12.0668 19.7505V19.2505C11.9539 19.2505 11.8379 19.2475 11.7217 19.2415L11.696 19.7408ZM7.48981 18.1707C8.68101 19.1152 10.1406 19.6639 11.6965 19.7409L11.7212 19.2415C10.2681 19.1696 8.90877 18.6577 7.80046 17.7789L7.48981 18.1707ZM8.04615 19.6298L7.89411 17.9523L7.39616 17.9974L7.54819 19.675L8.04615 19.6298ZM7.4338 20.3572C7.79911 20.3233 8.08198 20.0057 8.04604 19.6287L7.5483 19.6761C7.5567 19.7643 7.49116 19.8497 7.3877 19.8593L7.4338 20.3572ZM7.37274 20.3613C7.38084 20.3613 7.42355 20.3625 7.47017 20.3511L7.35133 19.8654C7.36361 19.8624 7.37287 19.8616 7.37648 19.8614C7.37828 19.8613 7.37914 19.8613 7.37842 19.8613C7.37748 19.8613 7.37623 19.8613 7.37274 19.8613V20.3613ZM6.69927 19.7517C6.73008 20.1037 7.03046 20.3613 7.37274 20.3613V19.8613C7.27793 19.8613 7.20455 19.7903 7.19736 19.7081L6.69927 19.7517ZM6.44597 16.9961L6.69936 19.7528L7.19726 19.707L6.94388 16.9504L6.44597 16.9961ZM7.05829 16.2685C6.69299 16.3023 6.41011 16.62 6.44605 16.997L6.9438 16.9495C6.93539 16.8614 7.00093 16.7759 7.1044 16.7663L7.05829 16.2685ZM9.87519 16.0203L7.0594 16.2684L7.10328 16.7664L9.91907 16.5184L9.87519 16.0203ZM10.6116 16.6239C10.5759 16.2497 10.2444 15.9866 9.87438 16.0204L9.91988 16.5183C10.0249 16.5087 10.1052 16.5805 10.1139 16.6714L10.6116 16.6239ZM9.99937 17.3524C10.3647 17.3186 10.6475 17.0009 10.6116 16.6239L10.1139 16.6714C10.1223 16.7595 10.0567 16.845 9.95326 16.8545L9.99937 17.3524ZM8.13588 17.5169L9.99829 17.3525L9.95434 16.8544L8.09193 17.0188L8.13588 17.5169ZM12.0636 18.4101C10.709 18.4101 9.3591 17.9601 8.27184 17.074L7.95597 17.4616C9.13655 18.4237 10.5993 18.9101 12.0636 18.9101V18.4101ZM16.0377 16.9131C14.9043 17.9157 13.4817 18.4101 12.0636 18.4101V18.9101C13.5975 18.9101 15.1396 18.3751 16.369 17.2876L16.0377 16.9131ZM17.82 11.2472C18.3325 13.3139 17.6507 15.4857 16.0377 16.9132L16.369 17.2876C18.1198 15.7382 18.8632 13.3765 18.3053 11.1268L17.82 11.2472ZM18.3167 10.4387C17.9615 10.5257 17.727 10.8831 17.8204 11.2488L18.3048 11.1251C18.2842 11.0443 18.3347 10.9491 18.4356 10.9244L18.3167 10.4387Z" fill="currentColor"/>
</svg>
