<svg xmlns="http://www.w3.org/2000/svg" width="100%" height="100%" viewBox="0 0 40 40">
    <title>circle solid check</title>
    <path fillRule="evenodd" clipRule="evenodd"
        d="M20 1C9.50659 1 1 9.50659 1 20C1 30.4934 9.50659 39 20 39C30.4934 39 39 30.4934 39 20C39 9.50659 30.4934 1 20 1ZM16.8413 24.339L26.7933 14.3293C27.3125 13.8902 28.0913 13.8902 28.6106 14.3293C29.1298 14.8561 29.1298 15.6463 28.6106 16.1732L17.7933 27.1488C17.6202 27.4122 17.274 27.5 16.9279 27.5C16.5817 27.5 16.2356 27.4122 15.976 27.1488L11.3894 22.4951C10.8702 21.9683 10.8702 21.0902 11.3894 20.6512C11.9087 20.2122 12.774 20.2122 13.2933 20.6512L16.8413 24.339Z"
        fill="currentColor" />
</svg>