<svg xmlns="http://www.w3.org/2000/svg" width="100%" height="100%" viewBox="0 0 40 40" id="circle_solid_question">
  <title>circle solid question</title>
  <path fill-rule="evenodd" clip-rule="evenodd"
    d="M20 1C9.50659 1 1 9.50659 1 20C1 30.4934 9.50659 39 20 39C30.4934 39 39 30.4934 39 20C39 9.50659 30.4934 1 20 1ZM20.4506 24.6453H19.279C18.7937 24.6453 18.4003 24.2518 18.4003 23.7666V23.7387C18.4003 20.8594 20.1721 19.7434 21.7349 18.7591C22.968 17.9824 24.0709 17.2877 24.0709 15.8736C24.0709 14.4079 22.7704 12.9291 19.8648 12.9291C17.7307 12.9291 16.6235 13.6356 15.529 15.0301C15.2428 15.3947 14.7196 15.4691 14.3392 15.2041L13.3775 14.534C12.9656 14.2471 12.8751 13.6721 13.1838 13.2762C14.7381 11.2825 16.5822 10 19.8648 10C23.696 10 27 12.1786 27 15.8736C27 18.6102 25.2572 19.7495 23.704 20.7649C22.4554 21.5811 21.3293 22.3173 21.3293 23.7387V23.7666C21.3293 24.2518 20.9359 24.6453 20.4506 24.6453ZM19.889 26.4027C18.7566 26.4027 17.8386 27.3207 17.8386 28.453C17.8386 29.5854 18.7566 30.5034 19.889 30.5034C21.0214 30.5034 21.9393 29.5854 21.9393 28.453C21.9393 27.3207 21.0214 26.4027 19.889 26.4027Z"
    fill="currentColor" />
</svg>