<svg xmlns="http://www.w3.org/2000/svg" width="100%" height="100%" viewBox="0 0 40 40">
    <title>circle info</title>
    <path
        d="M20 4.32258C28.6096 4.32258 35.6774 11.2958 35.6774 20C35.6774 28.6582 28.6654 35.6774 20 35.6774C11.3452 35.6774 4.32258 28.6689 4.32258 20C4.32258 11.3482 11.334 4.32258 20 4.32258ZM20 2C10.0596 2 2 10.0625 2 20C2 29.9433 10.0596 38 20 38C29.9404 38 38 29.9433 38 20C38 10.0625 29.9404 2 20 2ZM17.3871 26.9677H18.2581V18.2581H17.3871C16.9061 18.2581 16.5161 17.8681 16.5161 17.3871V16.8065C16.5161 16.3255 16.9061 15.9355 17.3871 15.9355H20.871C21.352 15.9355 21.7419 16.3255 21.7419 16.8065V26.9677H22.6129C23.0939 26.9677 23.4839 27.3577 23.4839 27.8387V28.4194C23.4839 28.9003 23.0939 29.2903 22.6129 29.2903H17.3871C16.9061 29.2903 16.5161 28.9003 16.5161 28.4194V27.8387C16.5161 27.3577 16.9061 26.9677 17.3871 26.9677ZM20 9.54839C18.7173 9.54839 17.6774 10.5883 17.6774 11.871C17.6774 13.1537 18.7173 14.1935 20 14.1935C21.2827 14.1935 22.3226 13.1537 22.3226 11.871C22.3226 10.5883 21.2827 9.54839 20 9.54839Z"
        fill="currentColor" />
</svg>