<svg xmlns="http://www.w3.org/2000/svg" width="100%" height="100%" viewBox="0 0 40 40" fill="none" id="circle_warning">
  <title>circle Warning</title>
  <path
    d="M37 20C37 29.3888 29.3888 37 20 37C10.6112 37 3 29.3888 3 20C3 10.6112 10.6112 3 20 3C29.3888 3 37 10.6112 37 20Z"
    stroke="#292929" strokeWidth="2" fill="none" />
  <path
    d="M21.1827 10C21.4986 10 21.7293 10.295 21.7209 10.625L21.2225 22.6134C21.2135 22.9361 20.9802 23.1997 20.6844 23.1997H19.3222C19.0249 23.1997 18.7931 22.9268 18.7841 22.6135L18.2858 10.627L18.2857 10.625C18.2773 10.295 18.508 10 18.8239 10H21.1827Z"
    fill="#292929" fill-rule="evenodd" />
  <path
    d="M20 25.7635C21.1026 25.7635 22 26.6127 22 27.8818C22 29.1509 21.1026 30 20 30C18.8974 30 18 29.1509 18 27.8818C18 26.6127 18.8974 25.7635 20 25.7635Z"
    fill="#292929" fill-rule="evenodd" />
</svg>