<svg xmlns="http://www.w3.org/2000/svg" width="100%" height="100%" viewBox="0 0 32 32">
    <title>clear light</title>
    <path
        d="M19.3946 16.0005L29.6509 5.74418L31.766 3.62911C32.078 3.3171 32.078 2.81009 31.766 2.49808L29.5029 0.235008C29.1909 -0.0770022 28.6839 -0.0770022 28.3719 0.235008L16.0005 12.6064L3.62911 0.234007C3.3171 -0.0780024 2.81009 -0.0780024 2.49808 0.234007L0.234007 2.49708C-0.0780024 2.80909 -0.0780024 3.3161 0.234007 3.62811L12.6064 16.0005L0.234007 28.3719C-0.0780024 28.6839 -0.0780024 29.1909 0.234007 29.5029L2.49708 31.766C2.80909 32.078 3.3161 32.078 3.62811 31.766L16.0005 19.3946L26.2568 29.6509L28.3719 31.766C28.6839 32.078 29.1909 32.078 29.5029 31.766L31.766 29.5029C32.078 29.1909 32.078 28.6839 31.766 28.3719L19.3946 16.0005Z"
        fill="currentColor" />
</svg>