<svg xmlns="http://www.w3.org/2000/svg" width="100%" height="100%" fill="currentColor">
    <title>close</title>
    <path fillRule="evenodd" clipRule="evenodd"
        d="M1.2123 0.287701C0.919406 0.580594 0.919406 1.05547 1.2123 1.34836L3.86397 4.00003L1.21233 6.65167C0.919437 6.94456 0.919437 7.41944 1.21233 7.71233C1.50522 8.00522 1.9801 8.00522 2.27299 7.71233L4.92463 5.06069L7.57626 7.71232C7.86915 8.00522 8.34403 8.00522 8.63692 7.71232C8.92981 7.41943 8.92981 6.94456 8.63692 6.65166L5.98529 4.00003L8.63695 1.34837C8.92984 1.05548 8.92984 0.580602 8.63695 0.287709C8.34406 -0.00518426 7.86918 -0.00518393 7.57629 0.287709L4.92463 2.93937L2.27296 0.287701C1.98007 -0.00519271 1.50519 -0.00519269 1.2123 0.287701Z"
        fill="currentColor" />
</svg>