<svg xmlns="http://www.w3.org/2000/svg" width="100%" height="100%" viewBox="0 0 25 24" id="edit">
  <title>Edit</title>
  <path fill-rule="evenodd" clip-rule="evenodd"
    d="M21.1753 4.97694C21.6993 4.45768 21.9914 3.85188 22 3.09895C21.9828 2.5018 21.7938 1.94793 21.3815 1.48059C21.1066 1.17769 20.8145 0.892099 20.5139 0.615161C20.0757 0.208407 19.5431 0.00935792 18.9504 0.000703593C18.1945 -0.0166051 17.5759 0.286296 17.0519 0.81421C13.9422 3.94708 10.8239 7.07994 7.69699 10.2042C7.40492 10.5071 7.20734 10.8273 7.09566 11.2427C6.82455 12.2952 6.53308 13.3426 6.24084 14.3928C6.15342 14.7069 6.06594 15.0213 5.97891 15.3362C5.87583 15.691 5.95314 15.9333 6.19367 16.0804C6.37407 16.1929 6.56306 16.1583 6.75205 16.1064C7.11291 16.0054 7.47377 15.9022 7.83484 15.799C8.71151 15.5483 9.58945 15.2972 10.4717 15.0765C11.1246 14.9121 11.6228 14.5919 12.0953 14.1159C15.1105 11.0523 18.1429 8.01461 21.1753 4.97694ZM15.1064 9.43803C13.7813 10.7709 12.4561 12.1037 11.1331 13.4322L8.64193 10.9225C9.96489 9.59399 11.29 8.26118 12.6151 6.92838C13.9401 5.59565 15.2652 4.26292 16.588 2.93452L19.0793 5.44427C17.7564 6.77264 16.4314 8.10533 15.1064 9.43803ZM19.9469 4.67404C19.0793 3.79130 18.2374 2.94317 17.3612 2.06043C17.4173 2.00608 17.4734 1.95064 17.5298 1.89493C17.6978 1.72886 17.8683 1.56041 18.0484 1.41136C18.5123 1.02191 19.2339 1.00461 19.6978 1.39405C20.0328 1.67099 20.3421 1.98254 20.6255 2.32006C20.9949 2.76143 20.9863 3.47109 20.6427 3.92977C20.5826 4.00766 20.5139 4.08555 20.4451 4.15478C20.3581 4.24243 20.2733 4.33231 20.1896 4.42103C20.1080 4.50750 20.0275 4.59288 19.9469 4.67404ZM10.0334 14.0464L10.0336 14.0467C9.14877 14.2890 8.22959 14.5486 7.26747 14.8256C7.36412 14.4738 7.45852 14.1277 7.55147 13.7868C7.71461 13.1886 7.87331 12.6067 8.03201 12.0389C8.69340 12.6965 9.36338 13.3715 10.0334 14.0464ZM2.85201 22H10.4373C11.5197 22 12.6107 22 13.6931 21.9827C14.0755 21.9827 14.4579 21.9838 14.8402 21.9849C15.9865 21.9881 17.1315 21.9914 18.2718 21.9654C19.6376 21.9394 20.8059 20.7538 20.8317 19.3778C20.8501 18.4446 20.8466 17.5159 20.8431 16.5853C20.8417 16.2126 20.8403 15.8397 20.8403 15.4660C20.8403 15.0852 20.8403 14.7044 20.8317 14.3236C20.8231 13.9688 20.4967 13.7265 20.1617 13.8044C19.9125 13.8650 19.7493 14.0986 19.7493 14.4102V19.1008C19.7493 20.1913 19.0535 20.8923 17.9797 20.8923H2.8606C2.6802 20.8923 2.4998 20.8750 2.3280 20.8317C1.5291 20.6153 1.0909 19.9922 1.0909 19.0835V5.0462C1.0909 4.8645 1.0996 4.6827 1.1425 4.5096C1.3487 3.7134 1.9758 3.2374 2.8177 3.2374H7.4822C7.5939 3.2374 7.7142 3.2288 7.8173 3.1855C8.0578 3.0817 8.1867 2.8220 8.1351 2.5884C8.0836 2.3114 7.8688 2.1384 7.5424 2.1384C7.0859 2.1384 6.6293 2.1369 6.1728 2.1355C5.0315 2.1320 3.8902 2.1285 2.7489 2.1470C1.1597 2.1730 0 3.3586 0 4.9424C0 9.7022 0 14.4621 0.0086 19.2220C0.0086 19.5335 0.0601 19.8538 0.1632 20.1480C0.5584 21.3077 1.5635 22.0000 2.8520 22.0000Z"
    fill="currentColor" />
</svg>