<svg width="100%" height="100%" viewBox="0 0 24 20" fill="currentColor" xmlns="http://www.w3.org/2000/svg" id="like_bold">
  <path d="M16.7668 1.00041C14.9326 0.98987 13.1837 1.78534 12.0053 3.17611C10.8269 1.78008 9.07804 0.979334 7.23849 1.00041C3.79399 1.00041 1 3.76086 1 7.16402C1 13.001 11.3068 18.6958 11.7227 18.917C11.8934 19.0277 12.112 19.0277 12.2773 18.917C12.6932 18.6958 23 13.08 23 7.16402C23.0053 3.76086 20.2113 1.00041 16.7668 1.00041ZM12.0053 17.816C10.3897 16.8836 2.1144 11.9 2.1144 7.16402C2.1144 4.36669 4.40717 2.10143 7.23849 2.10143C8.9714 2.08036 10.5923 2.94431 11.5308 4.38776C11.7227 4.64589 12.0853 4.70384 12.3466 4.51419C12.3946 4.47732 12.4426 4.43517 12.4745 4.38776C14.0262 2.04875 17.1987 1.39024 19.5715 2.92324C21.0218 3.86095 21.8963 5.45717 21.8909 7.16929C21.8909 11.9527 13.6209 16.9099 12.0053 17.816Z" fill="currentColor" stroke="currentColor" stroke-width="0.5"/>
</svg>
