<svg width="20" height="21" viewBox="0 0 20 21" fill="currentColor" xmlns="http://www.w3.org/2000/svg" id="navigate">
    <path d="M14.9999 18.1029H4.99992C4.39213 18.1029 3.80924 17.8614 3.37947 17.4317C2.94969 17.0019 2.70825 16.419 2.70825 15.8112V5.8112C2.70825 5.20341 2.94969 4.62052 3.37947 4.19074C3.80924 3.76097 4.39213 3.51953 4.99992 3.51953H9.99992C10.1657 3.51953 10.3246 3.58538 10.4419 3.70259C10.5591 3.8198 10.6249 3.97877 10.6249 4.14453C10.6249 4.31029 10.5591 4.46926 10.4419 4.58647C10.3246 4.70368 10.1657 4.76953 9.99992 4.76953H4.99992C4.72365 4.76953 4.4587 4.87928 4.26335 5.07463C4.068 5.26998 3.95825 5.53493 3.95825 5.8112V15.8112C3.95825 16.0875 4.068 16.3524 4.26335 16.5478C4.4587 16.7431 4.72365 16.8529 4.99992 16.8529H14.9999C15.2762 16.8529 15.5411 16.7431 15.7365 16.5478C15.9318 16.3524 16.0416 16.0875 16.0416 15.8112V10.8112C16.0416 10.6454 16.1074 10.4865 16.2246 10.3693C16.3419 10.252 16.5008 10.1862 16.6666 10.1862C16.8323 10.1862 16.9913 10.252 17.1085 10.3693C17.2257 10.4865 17.2916 10.6454 17.2916 10.8112V15.8112C17.2916 16.419 17.0501 17.0019 16.6204 17.4317C16.1906 17.8614 15.6077 18.1029 14.9999 18.1029ZM16.6666 8.10286C16.5015 8.10071 16.3438 8.03416 16.227 7.91742C16.1103 7.80067 16.0437 7.64295 16.0416 7.47786V4.76953H13.3333C13.1675 4.76953 13.0085 4.70368 12.8913 4.58647C12.7741 4.46926 12.7083 4.31029 12.7083 4.14453C12.7083 3.97877 12.7741 3.8198 12.8913 3.70259C13.0085 3.58538 13.1675 3.51953 13.3333 3.51953H16.6666C16.8317 3.52169 16.9894 3.58823 17.1061 3.70498C17.2229 3.82172 17.2894 3.97944 17.2916 4.14453V7.47786C17.2894 7.64295 17.2229 7.80067 17.1061 7.91742C16.9894 8.03416 16.8317 8.10071 16.6666 8.10286Z" fill="currentColor"/>
    <path d="M11.2499 10.1863C11.0891 10.174 10.9395 10.0992 10.8332 9.97798C10.7307 9.86339 10.6741 9.71505 10.6741 9.56131C10.6741 9.40757 10.7307 9.25923 10.8332 9.14464L16.2499 3.72798C16.3071 3.66657 16.3761 3.61732 16.4528 3.58316C16.5294 3.549 16.6122 3.53063 16.6961 3.52915C16.78 3.52767 16.8634 3.54311 16.9412 3.57454C17.019 3.60597 17.0897 3.65276 17.1491 3.71211C17.2084 3.77146 17.2552 3.84215 17.2867 3.91998C17.3181 3.9978 17.3335 4.08116 17.3321 4.16508C17.3306 4.249 17.3122 4.33176 17.278 4.40842C17.2439 4.48509 17.1946 4.55409 17.1332 4.61131L11.6666 9.97798C11.5603 10.0992 11.4107 10.174 11.2499 10.1863Z" fill="currentColor"/>
</svg>
