<svg xmlns="http://www.w3.org/2000/svg" width="100%" height="100%" viewBox="0 0 22 22" id="question">
  <title>Question</title>
  <path fillRule="evenodd" clipRule="evenodd"
    d="M11 22C17.0751 22 22 17.0751 22 11C22 4.92487 17.0751 0 11 0C4.92487 0 0 4.92487 0 11C0 17.0751 4.92487 22 11 22ZM9.75807 15.9678C9.75807 15.2819 10.3141 14.7258 11 14.7258C11.6859 14.7258 12.2419 15.2819 12.2419 15.9678C12.2419 16.6537 11.6859 17.2097 11 17.2097C10.3141 17.2097 9.75807 16.6537 9.75807 15.9678ZM10.6305 13.6613H11.3402C11.6341 13.6613 11.8725 13.423 11.8725 13.1291V13.1122C11.8725 12.2512 12.5546 11.8053 13.3108 11.3109C14.2517 10.6958 15.3073 10.0058 15.3073 8.34809C15.3073 6.10995 13.306 4.79034 10.9854 4.79034C8.99703 4.79034 7.88 5.56717 6.93852 6.77482C6.75157 7.01461 6.80634 7.36288 7.05584 7.53671L7.6384 7.94255C7.86878 8.10307 8.18573 8.05805 8.35907 7.83717C9.022 6.99252 9.69269 6.56454 10.9854 6.56454C12.7453 6.56454 13.5331 7.46028 13.5331 8.34809C13.5331 9.20467 12.865 9.62547 12.1181 10.0959C11.1715 10.6922 10.0983 11.3681 10.0983 13.1122V13.1291C10.0983 13.423 10.3366 13.6613 10.6305 13.6613Z"
    fill="currentColor" />
</svg>