<svg xmlns="http://www.w3.org/2000/svg" width="100%" height="100%">
    <title>settings</title>
    <path fillRule="evenodd" clipRule="evenodd"
        d="M34.3879 15.5586L37.0551 16.0111C38.1903 16.2016 39.0159 17.178 39 18.329V21.671C39 22.822 38.1744 23.7984 37.0393 23.9889L34.372 24.4335C34.1021 25.3225 33.737 26.1878 33.3004 27.0213L34.8722 29.2281C35.539 30.1648 35.4278 31.4429 34.6181 32.2526L32.2526 34.6181C31.808 35.0627 31.2206 35.3088 30.5935 35.3088C30.1013 35.3088 29.625 35.1579 29.2281 34.8722L27.0292 33.3004C26.2037 33.737 25.3384 34.0942 24.4414 34.372L23.9889 37.0393C23.7984 38.1744 22.822 39 21.671 39H18.3211C17.17 39 16.1936 38.1744 16.0031 37.0393L15.5586 34.372C14.6933 34.1021 13.8519 33.7608 13.0501 33.3401L10.8195 34.9277C10.4226 35.2135 9.95425 35.3643 9.46208 35.3643C8.83497 35.3643 8.24755 35.1182 7.80301 34.6737L5.43743 32.3081C4.6198 31.4984 4.51661 30.2204 5.18341 29.2837L6.74723 27.1086C6.30269 26.2831 5.93754 25.4178 5.6597 24.5287L2.96073 24.0683C1.82557 23.8778 1 22.9014 1 21.7504V18.4084C1 17.2574 1.82557 16.281 2.96073 16.0905L5.5962 15.6459C5.8661 14.7489 6.21537 13.8836 6.65197 13.0501L5.06434 10.8195C4.39754 9.88281 4.50867 8.60476 5.31836 7.79507L7.69187 5.4295C8.12847 4.98496 8.72384 4.73888 9.35095 4.73888C9.84312 4.73888 10.3194 4.8897 10.7163 5.17548L12.8993 6.74723C13.7249 6.30269 14.5901 5.93754 15.4792 5.6597L15.9396 2.96073C16.1301 1.82557 17.1065 1 18.2576 1H21.5995C22.7506 1 23.727 1.82557 23.9175 2.96073L24.362 5.5962C25.2908 5.87403 26.1878 6.24713 27.0451 6.6996L29.2519 5.12785C29.6488 4.84207 30.1172 4.69125 30.6094 4.69125C31.2365 4.69125 31.8239 4.93733 32.2684 5.38187L34.634 7.74744C35.4516 8.55713 35.5548 9.83518 34.888 10.7719L33.3163 12.9708C33.7529 13.7963 34.1101 14.6616 34.3879 15.5586ZM36.6979 21.8774C36.8011 21.8615 36.8726 21.7742 36.8726 21.671L36.8805 18.329C36.8805 18.2258 36.8091 18.1385 36.7059 18.1226L33.3718 17.559C32.9591 17.4955 32.6177 17.1859 32.5145 16.7731C32.2129 15.6062 31.7525 14.4869 31.1333 13.447C30.9189 13.0819 30.9348 12.6215 31.1809 12.2801L33.1416 9.52559C33.1972 9.43827 33.1893 9.32714 33.1178 9.25569L30.7522 6.89012C30.6967 6.83455 30.6332 6.82661 30.6014 6.82661C30.5617 6.82661 30.522 6.84249 30.4823 6.8663L27.7437 8.83497C27.3944 9.08105 26.9419 9.09693 26.5768 8.8826C25.5131 8.25548 24.37 7.78713 23.1713 7.48548C22.7585 7.38229 22.4489 7.04094 22.3775 6.62022L21.8218 3.31001C21.8059 3.20681 21.7186 3.13537 21.6154 3.13537H18.2734C18.1703 3.13537 18.0829 3.20681 18.0671 3.31001L17.4955 6.66785C17.4241 7.08064 17.1145 7.41404 16.7096 7.52517C15.5427 7.82682 14.4234 8.30311 13.3915 8.92229C13.0263 9.13662 12.5659 9.12074 12.2166 8.87466L9.47796 6.92187C9.44621 6.89806 9.40652 6.88218 9.35889 6.88218C9.3192 6.88218 9.26363 6.89012 9.20806 6.94569L6.84249 9.31126C6.77105 9.3827 6.76311 9.50178 6.81868 9.58116L8.79528 12.3595C9.04136 12.7009 9.06518 13.1533 8.85085 13.5185C8.23961 14.5584 7.78713 15.6856 7.49342 16.8525C7.39022 17.2653 7.04888 17.5749 6.62816 17.6463L3.31794 18.202C3.21475 18.2179 3.1433 18.3052 3.1433 18.4084V21.7504C3.1433 21.8536 3.21475 21.9409 3.31794 21.9568L6.67579 22.5283C7.08857 22.5998 7.42198 22.9093 7.53311 23.3142C7.83476 24.4811 8.31105 25.6004 8.93023 26.6323C9.14456 26.9975 9.12868 27.4579 8.8826 27.8072L6.92981 30.5459C6.87424 30.6332 6.88218 30.7443 6.95362 30.8158L9.3192 33.1813C9.37477 33.2369 9.43827 33.2448 9.47002 33.2448C9.50971 33.2448 9.5494 33.229 9.5891 33.2051L12.3675 31.2285C12.55 31.0936 12.7723 31.0301 12.9866 31.0301C13.1692 31.0301 13.3597 31.0777 13.5264 31.173C14.5504 31.7604 15.6459 32.2129 16.7811 32.5066C17.1859 32.6098 17.4955 32.9432 17.567 33.3639L18.1226 36.6979C18.1385 36.8011 18.2258 36.8726 18.329 36.8726H21.671C21.7742 36.8726 21.8615 36.8011 21.8774 36.6979L22.441 33.3639C22.5045 32.9511 22.8141 32.6098 23.2269 32.5066C24.3938 32.2049 25.5131 31.7445 26.553 31.1253C26.9181 30.911 27.3785 30.9269 27.7199 31.173L30.4744 33.1337C30.5062 33.1575 30.5459 33.1734 30.5935 33.1734C30.6332 33.1734 30.6887 33.1654 30.7443 33.1099L33.1099 30.7443C33.1813 30.6729 33.1893 30.5538 33.1337 30.4744L31.173 27.7119C30.9269 27.3626 30.911 26.9102 31.1253 26.545C31.7445 25.5051 32.2049 24.3858 32.5066 23.2189C32.6098 22.8141 32.9432 22.5045 33.3639 22.433L36.6979 21.8774ZM11.8039 19.9961C11.8039 15.4713 15.4792 11.7959 20.004 11.7959C24.5287 11.7959 28.2041 15.4713 28.2041 19.9961C28.2041 24.5208 24.5287 28.1962 20.004 28.1962C15.4792 28.1962 11.8039 24.5208 11.8039 19.9961ZM13.9472 19.9961C13.9472 23.338 16.662 26.0529 20.004 26.0529C23.3459 26.0529 26.0608 23.338 26.0608 19.9961C26.0608 16.6541 23.3459 13.9392 20.004 13.9392C16.662 13.9392 13.9472 16.6541 13.9472 19.9961Z"
        fill="currentColor" />
</svg>