<svg xmlns="http://www.w3.org/2000/svg" width="100%" height="100%" viewBox="0 0 40 40">
    <title>settings Solid</title>
    <path
        d="M36.1575 16.221L33.6307 15.7924C33.3675 14.9426 33.029 14.1228 32.6154 13.3407L34.1044 11.2576C34.7362 10.3702 34.6384 9.15939 33.8638 8.39231L31.6227 6.15124C31.2016 5.7301 30.6451 5.49697 30.051 5.49697C29.5847 5.49697 29.141 5.63986 28.765 5.91059L26.6743 7.39962C25.8621 6.97096 25.0123 6.61751 24.1324 6.35429L23.7113 3.85753C23.5308 2.78212 22.6058 2 21.5154 2H18.3493C17.2588 2 16.3338 2.78212 16.1533 3.85753L15.7171 6.41446C14.8749 6.67767 14.0551 7.02361 13.273 7.44475L11.2049 5.95571C10.8289 5.68498 10.3777 5.54209 9.91143 5.54209C9.31732 5.54209 8.75329 5.77522 8.33967 6.19636L6.09108 8.43743C5.324 9.20451 5.21872 10.4153 5.85043 11.3027L7.3545 13.4159C6.94088 14.2056 6.60999 15.0253 6.35429 15.8751L3.85753 16.2962C2.78212 16.4767 2 17.4017 2 18.4922V21.6582C2 22.7487 2.78212 23.6737 3.85753 23.8542L6.41446 24.2904C6.67767 25.1326 7.02361 25.9524 7.44475 26.7345L5.96323 28.7951C5.33152 29.6825 5.42929 30.8932 6.20389 31.6603L8.44495 33.9014C8.8661 34.3225 9.4226 34.5557 10.0167 34.5557C10.483 34.5557 10.9267 34.4128 11.3027 34.142L13.4159 32.638C14.1755 33.0366 14.9726 33.3599 15.7924 33.6156L16.2135 36.1425C16.394 37.2179 17.319 38 18.4094 38H21.583C22.6735 38 23.5985 37.2179 23.779 36.1425L24.2076 33.6156C25.0574 33.3524 25.8772 33.014 26.6593 32.6004L28.7424 34.0894C29.1184 34.3601 29.5697 34.503 30.0359 34.503C30.63 34.503 31.1865 34.2699 31.6077 33.8488L33.8488 31.6077C34.6158 30.8406 34.7211 29.6298 34.0894 28.7424L32.6004 26.6518C33.014 25.8621 33.3599 25.0424 33.6156 24.2001L36.1425 23.779C37.2179 23.5985 38 22.6735 38 21.583V18.417C38.015 17.3265 37.2329 16.4015 36.1575 16.221ZM20.0038 26.8924C16.1985 26.8924 13.1076 23.8015 13.1076 19.9962C13.1076 16.1909 16.1985 13.1001 20.0038 13.1001C23.8091 13.1001 26.8999 16.1909 26.8999 19.9962C26.8999 23.8015 23.8091 26.8924 20.0038 26.8924Z"
        fill="currentColor" />
</svg>