<svg xmlns="http://www.w3.org/2000/svg" width="100%" height="100%">
    <title>share</title>
    <path
        d="M30.3746 26.7496C28.687 26.7496 27.1752 27.4944 26.1415 28.675L13.9695 21.7392C14.1453 21.1911 14.2438 20.6078 14.2438 19.9965C14.2438 19.3922 14.1453 18.8019 13.9695 18.2538L26.1415 11.318C27.1752 12.4985 28.687 13.2434 30.3746 13.2434C33.4756 13.2434 36 10.7207 36 7.62171C36 4.52274 33.4756 2 30.3746 2C27.2736 2 24.7492 4.52274 24.7492 7.62171C24.7492 8.22604 24.8476 8.81632 25.0234 9.36443L12.8515 16.3002C11.8248 15.1267 10.313 14.3818 8.6254 14.3818C5.5244 14.3818 3 16.9045 3 20.0035C3 23.1025 5.5244 25.6252 8.6254 25.6252C10.313 25.6252 11.8319 24.8803 12.8585 23.6998L25.0234 30.6356C24.8406 31.1837 24.7422 31.7669 24.7422 32.3783C24.7422 35.4773 27.2666 38 30.3676 38C33.4686 38 35.993 35.4773 35.993 32.3783C35.993 29.2793 33.4756 26.7496 30.3746 26.7496ZM30.3746 4.26274C32.238 4.26274 33.7498 5.77357 33.7498 7.63576C33.7498 9.49795 32.238 11.0088 30.3746 11.0088C28.5112 11.0088 26.9994 9.49795 26.9994 7.63576C26.9994 5.77357 28.5182 4.26274 30.3746 4.26274ZM8.6254 23.3765C6.76199 23.3765 5.25016 21.8657 5.25016 20.0035C5.25016 18.1413 6.76199 16.6305 8.6254 16.6305C10.4888 16.6305 12.0006 18.1413 12.0006 20.0035C12.0006 21.8657 10.4888 23.3765 8.6254 23.3765ZM30.3746 35.7443C28.5112 35.7443 26.9994 34.2335 26.9994 32.3713C26.9994 30.5091 28.5112 28.9982 30.3746 28.9982C32.238 28.9982 33.7498 30.5091 33.7498 32.3713C33.7498 34.2335 32.238 35.7443 30.3746 35.7443Z"
        fill="currentColor" />
</svg>