<svg xmlns="http://www.w3.org/2000/svg" width="100%" height="100%" viewBox="0 0 24 24" fill="none" id="signout_light">
    <title>Sign out light</title>
    <path
        d="M18.0939 19.5L14.8949 19.5C14.6435 19.5 14.4379 19.2891 14.4379 19.0313L14.4379 18.0938C14.4379 17.8359 14.6435 17.625 14.8949 17.625L18.0939 17.625C19.1032 17.625 19.922 16.7852 19.922 15.75L19.922 8.25C19.922 7.21484 19.1032 6.375 18.0939 6.375L14.8949 6.375C14.6435 6.375 14.4379 6.16406 14.4379 5.90625L14.4379 4.96875C14.4379 4.71094 14.6435 4.5 14.8949 4.5L18.0939 4.5C20.1124 4.5 21.75 6.17969 21.75 8.25L21.75 15.75C21.75 17.8203 20.1124 19.5 18.0939 19.5ZM9.2927 18.7383L10.0391 17.9727C10.222 17.7852 10.2181 17.4844 10.0315 17.3047L5.72422 13.0156L15.1995 13.0156C15.4509 13.0156 15.6565 12.8047 15.6565 12.5469L15.6565 11.4531C15.6565 11.1953 15.4509 10.9844 15.1995 10.9844L5.72422 10.9844L10.0315 6.69922C10.2143 6.51562 10.2181 6.21484 10.0391 6.03125L9.2927 5.26563C9.1137 5.08203 8.82427 5.08203 8.64527 5.26563L2.38425 11.6719C2.20525 11.8555 2.20525 12.1523 2.38425 12.3359L8.64527 18.7422C8.82427 18.9219 9.1137 18.9219 9.2927 18.7383Z"
        fill="currentColor" />
</svg>