<svg xmlns="http://www.w3.org/2000/svg" width="100%" height="100%" viewBox="0 0 21 16" id="signout">
  <title>Sign out</title>
  <path
    d="M16.5939 15.5L13.3949 15.5C13.1435 15.5 12.9379 15.2891 12.9379 15.0313L12.9379 14.0938C12.9379 13.8359 13.1435 13.625 13.3949 13.625L16.5939 13.625C17.6032 13.625 18.422 12.7852 18.422 11.75L18.422 4.25C18.422 3.21484 17.6032 2.375 16.5939 2.375L13.3949 2.375C13.1435 2.375 12.9379 2.16406 12.9379 1.90625L12.9379 0.96875C12.9379 0.710937 13.1435 0.499999 13.3949 0.499999L16.5939 0.499998C18.6124 0.499998 20.25 2.17969 20.25 4.25L20.25 11.75C20.25 13.8203 18.6124 15.5 16.5939 15.5ZM7.7927 14.7383L8.53915 13.9727C8.72195 13.7852 8.71814 13.4844 8.53153 13.3047L4.22422 9.01563L13.6995 9.01563C13.9509 9.01563 14.1565 8.80469 14.1565 8.54688L14.1565 7.45312C14.1565 7.19531 13.9509 6.98437 13.6995 6.98437L4.22422 6.98438L8.53153 2.69922C8.71433 2.51562 8.71814 2.21484 8.53915 2.03125L7.7927 1.26563C7.6137 1.08203 7.32427 1.08203 7.14527 1.26563L0.88425 7.67188C0.705255 7.85547 0.705255 8.15234 0.88425 8.33594L7.14527 14.7422C7.32427 14.9219 7.6137 14.9219 7.7927 14.7383Z"
    fill="currentColor" />
</svg>